  0
SECTION
  2
HEADER
  9
$ANGBASE
  50
0.0
  9
$ANGDIR
  70
1
  9
$MEASUREMENT
  70
0
  0
ENDSEC
  0
SECTION
  2
TABLES
  0
TABLE
  2
LTYPE
  70
4
  0
LTYPE
  5
40F
  2
CONTINUOUS
  70
0
  3
Solid line
  72
65
  73
0
  40
0.0
  0
LTYPE
  5
410
  2
DASHDOT
 70
0
  3
Dash Dot ____ _ ____ _
 72
65
 73
4
 40
2.0
 49
1.25
 49
-0.25
 49
0.25
 49
-0.25
  0
LTYPE
  5
411
  2
DASHED
 70
0
  3
Dashed __ __ __ __ __
 72
65
 73
2
 40
0.75
 49
0.5
 49
-0.25
  0
LTYPE
  5
43B
  2
DOTTED
 70
0
  3
Dotted .  .  .  .
 72
65
 73
2
 40
0.2
 49
0.0
 49
-0.2
  0
ENDTAB
  0
TABLE
  2
STYLE
  70
4
  0
STYLE
  2
KICAD
  70
0
  40
0
  41
1
  42
1
  50
0
  71
0
  3
isocp.shx
  0
STYLE
  2
KICADB
  70
0
  40
0
  41
1
  42
1
  50
0
  71
0
  3
isocp.shx
  0
STYLE
  2
KICADI
  70
0
  40
0
  41
1
  42
1
  50
15
  71
0
  3
isocp.shx
  0
STYLE
  2
KICADBI
  70
0
  40
0
  41
1
  42
1
  50
15
  71
0
  3
isocp.shx
  0
ENDTAB
  0
TABLE
  2
LAYER
  70
1
  0
LAYER
  2
BLACK
  70
0
  62
7
  6
CONTINUOUS
  0
ENDTAB
  0
ENDSEC
  0
SECTION
  2
ENTITIES
0
LINE
8
BLACK
6
CONTINUOUS
10
0.4189189763779527
20
0.5275414566929134
11
0.4313291338582677
21
0.5250729133858267
0
LINE
8
BLACK
6
CONTINUOUS
10
0.4313291338582677
20
0.5250729133858267
11
0.4434375590551181
21
0.5213998818897637
0
LINE
8
BLACK
6
CONTINUOUS
10
0.4434375590551181
20
0.5213998818897637
11
0.4551276771653543
21
0.5165576771653543
0
LINE
8
BLACK
6
CONTINUOUS
10
0.4551276771653543
20
0.5165576771653543
11
0.4662868503937008
21
0.5105929527559055
0
LINE
8
BLACK
6
CONTINUOUS
10
0.4662868503937008
20
0.5105929527559055
11
0.4768076771653543
21
0.503563188976378
0
LINE
8
BLACK
6
CONTINUOUS
10
0.4768076771653543
20
0.503563188976378
11
0.4865888188976378
21
0.4955360236220472
0
LINE
8
BLACK
6
CONTINUOUS
10
0.4865888188976378
20
0.4955360236220472
11
0.4955360236220472
21
0.4865888188976378
0
LINE
8
BLACK
6
CONTINUOUS
10
0.4955360236220472
20
0.4865888188976378
11
0.503563188976378
21
0.4768076771653543
0
LINE
8
BLACK
6
CONTINUOUS
10
0.503563188976378
20
0.4768076771653543
11
0.5105929527559055
21
0.4662868503937008
0
LINE
8
BLACK
6
CONTINUOUS
10
0.5105929527559055
20
0.4662868503937008
11
0.5165576771653543
21
0.4551276771653543
0
LINE
8
BLACK
6
CONTINUOUS
10
0.5165576771653543
20
0.4551276771653543
11
0.5213998818897637
21
0.4434375590551181
0
LINE
8
BLACK
6
CONTINUOUS
10
0.5213998818897637
20
0.4434375590551181
11
0.5250729133858267
21
0.4313291338582677
0
LINE
8
BLACK
6
CONTINUOUS
10
0.5250729133858267
20
0.4313291338582677
11
0.5275414566929134
21
0.4189189763779527
0
LINE
8
BLACK
6
CONTINUOUS
10
0.5275414566929134
20
0.4189189763779527
11
0.5287816929133858
21
0.4063266535433071
0
LINE
8
BLACK
6
CONTINUOUS
10
0.5287816929133858
20
0.4063266535433071
11
0.5287816929133858
21
0.3936733464566929
0
LINE
8
BLACK
6
CONTINUOUS
10
0.5287816929133858
20
0.3936733464566929
11
0.5275414566929134
21
0.3810810236220472
0
LINE
8
BLACK
6
CONTINUOUS
10
0.5275414566929134
20
0.3810810236220472
11
0.5250729133858267
21
0.3686708661417323
0
LINE
8
BLACK
6
CONTINUOUS
10
0.5250729133858267
20
0.3686708661417323
11
0.5213998818897637
21
0.3565624409448819
0
LINE
8
BLACK
6
CONTINUOUS
10
0.5213998818897637
20
0.3565624409448819
11
0.5165576771653543
21
0.3448723228346456
0
LINE
8
BLACK
6
CONTINUOUS
10
0.5165576771653543
20
0.3448723228346456
11
0.5105929527559055
21
0.3337131496062992
0
LINE
8
BLACK
6
CONTINUOUS
10
0.5105929527559055
20
0.3337131496062992
11
0.503563188976378
21
0.3231923228346457
0
LINE
8
BLACK
6
CONTINUOUS
10
0.503563188976378
20
0.3231923228346457
11
0.4955360236220472
21
0.3134111811023622
0
LINE
8
BLACK
6
CONTINUOUS
10
0.4955360236220472
20
0.3134111811023622
11
0.4865888188976378
21
0.3044639763779527
0
LINE
8
BLACK
6
CONTINUOUS
10
0.4865888188976378
20
0.3044639763779527
11
0.4768076771653543
21
0.296436811023622
0
LINE
8
BLACK
6
CONTINUOUS
10
0.4768076771653543
20
0.296436811023622
11
0.4662868503937008
21
0.2894070472440945
0
LINE
8
BLACK
6
CONTINUOUS
10
0.4662868503937008
20
0.2894070472440945
11
0.4551276771653543
21
0.2834423228346457
0
LINE
8
BLACK
6
CONTINUOUS
10
0.4551276771653543
20
0.2834423228346457
11
0.4434375590551181
21
0.2786001181102362
0
LINE
8
BLACK
6
CONTINUOUS
10
0.4434375590551181
20
0.2786001181102362
11
0.4313291338582677
21
0.2749270866141732
0
LINE
8
BLACK
6
CONTINUOUS
10
0.4313291338582677
20
0.2749270866141732
11
0.4189189763779527
21
0.2724585433070866
0
LINE
8
BLACK
6
CONTINUOUS
10
0.4189189763779527
20
0.2724585433070866
11
0.4063266535433071
21
0.2712183070866142
0
LINE
8
BLACK
6
CONTINUOUS
10
0.4063266535433071
20
0.2712183070866142
11
0.3936733464566929
21
0.2712183070866142
0
LINE
8
BLACK
6
CONTINUOUS
10
0.3936733464566929
20
0.2712183070866142
11
0.3810810236220472
21
0.2724585433070866
0
LINE
8
BLACK
6
CONTINUOUS
10
0.3810810236220472
20
0.2724585433070866
11
0.3686708661417323
21
0.2749270866141732
0
LINE
8
BLACK
6
CONTINUOUS
10
0.3686708661417323
20
0.2749270866141732
11
0.3565624409448819
21
0.2786001181102362
0
LINE
8
BLACK
6
CONTINUOUS
10
0.3565624409448819
20
0.2786001181102362
11
0.3448723228346456
21
0.2834423228346457
0
LINE
8
BLACK
6
CONTINUOUS
10
0.3448723228346456
20
0.2834423228346457
11
0.3337131496062992
21
0.2894070472440945
0
LINE
8
BLACK
6
CONTINUOUS
10
0.3337131496062992
20
0.2894070472440945
11
0.3231923228346457
21
0.296436811023622
0
LINE
8
BLACK
6
CONTINUOUS
10
0.3231923228346457
20
0.296436811023622
11
0.3134111811023622
21
0.3044639763779527
0
LINE
8
BLACK
6
CONTINUOUS
10
0.3134111811023622
20
0.3044639763779527
11
0.3044639763779527
21
0.3134111811023622
0
LINE
8
BLACK
6
CONTINUOUS
10
0.3044639763779527
20
0.3134111811023622
11
0.296436811023622
21
0.3231923228346457
0
LINE
8
BLACK
6
CONTINUOUS
10
0.296436811023622
20
0.3231923228346457
11
0.2894070472440945
21
0.3337131496062992
0
LINE
8
BLACK
6
CONTINUOUS
10
0.2894070472440945
20
0.3337131496062992
11
0.2834423228346457
21
0.3448723228346456
0
LINE
8
BLACK
6
CONTINUOUS
10
0.2834423228346457
20
0.3448723228346456
11
0.2786001181102362
21
0.3565624409448819
0
LINE
8
BLACK
6
CONTINUOUS
10
0.2786001181102362
20
0.3565624409448819
11
0.2749270866141732
21
0.3686708661417323
0
LINE
8
BLACK
6
CONTINUOUS
10
0.2749270866141732
20
0.3686708661417323
11
0.2724585433070866
21
0.3810810236220472
0
LINE
8
BLACK
6
CONTINUOUS
10
0.2724585433070866
20
0.3810810236220472
11
0.2712183070866142
21
0.3936733464566929
0
LINE
8
BLACK
6
CONTINUOUS
10
0.2712183070866142
20
0.3936733464566929
11
0.2712183070866142
21
0.4063266535433071
0
LINE
8
BLACK
6
CONTINUOUS
10
0.2712183070866142
20
0.4063266535433071
11
0.2712757086614173
21
0.4069092913385827
0
LINE
8
BLACK
6
CONTINUOUS
10
0.2712757086614173
20
0.4069092913385827
11
0.2724585433070866
21
0.4189189763779527
0
LINE
8
BLACK
6
CONTINUOUS
10
0.2724585433070866
20
0.4189189763779527
11
0.2749270866141732
21
0.4313291338582677
0
LINE
8
BLACK
6
CONTINUOUS
10
0.2749270866141732
20
0.4313291338582677
11
0.2786001181102362
21
0.4434375590551181
0
LINE
8
BLACK
6
CONTINUOUS
10
0.2786001181102362
20
0.4434375590551181
11
0.2834423228346457
21
0.4551276771653543
0
LINE
8
BLACK
6
CONTINUOUS
10
0.2834423228346457
20
0.4551276771653543
11
0.2894070472440945
21
0.4662868503937008
0
LINE
8
BLACK
6
CONTINUOUS
10
0.2894070472440945
20
0.4662868503937008
11
0.296436811023622
21
0.4768076771653543
0
LINE
8
BLACK
6
CONTINUOUS
10
0.296436811023622
20
0.4768076771653543
11
0.3044639763779527
21
0.4865888188976378
0
LINE
8
BLACK
6
CONTINUOUS
10
0.3044639763779527
20
0.4865888188976378
11
0.3134111811023622
21
0.4955360236220472
0
LINE
8
BLACK
6
CONTINUOUS
10
0.3134111811023622
20
0.4955360236220472
11
0.3231923228346457
21
0.503563188976378
0
LINE
8
BLACK
6
CONTINUOUS
10
0.3231923228346457
20
0.503563188976378
11
0.3337131496062992
21
0.5105929527559055
0
LINE
8
BLACK
6
CONTINUOUS
10
0.3337131496062992
20
0.5105929527559055
11
0.3448723228346456
21
0.5165576771653543
0
LINE
8
BLACK
6
CONTINUOUS
10
0.3448723228346456
20
0.5165576771653543
11
0.3565624409448819
21
0.5213998818897637
0
LINE
8
BLACK
6
CONTINUOUS
10
0.3565624409448819
20
0.5213998818897637
11
0.3686708661417323
21
0.5250729133858267
0
LINE
8
BLACK
6
CONTINUOUS
10
0.3686708661417323
20
0.5250729133858267
11
0.3810810236220472
21
0.5275414566929134
0
LINE
8
BLACK
6
CONTINUOUS
10
0.3810810236220472
20
0.5275414566929134
11
0.3936733464566929
21
0.5287816929133858
0
LINE
8
BLACK
6
CONTINUOUS
10
0.3936733464566929
20
0.5287816929133858
11
0.4063266535433071
21
0.5287816929133858
0
LINE
8
BLACK
6
CONTINUOUS
10
0.4063266535433071
20
0.5287816929133858
11
0.4189189763779527
21
0.5275414566929134
0
LINE
8
BLACK
6
CONTINUOUS
10
0.2769685039370079
20
0.3930907086614173
11
0.2785157086614173
21
0.3793589763779527
0
LINE
8
BLACK
6
CONTINUOUS
10
0.2785157086614173
20
0.3793589763779527
11
0.2815906299212598
21
0.3658868503937008
0
LINE
8
BLACK
6
CONTINUOUS
10
0.2815906299212598
20
0.3658868503937008
11
0.2861546062992126
21
0.3528437007874016
0
LINE
8
BLACK
6
CONTINUOUS
10
0.2861546062992126
20
0.3528437007874016
11
0.2921502755905512
21
0.3403935826771654
0
LINE
8
BLACK
6
CONTINUOUS
10
0.2921502755905512
20
0.3403935826771654
11
0.2995022047244094
21
0.328693031496063
0
LINE
8
BLACK
6
CONTINUOUS
10
0.2995022047244094
20
0.328693031496063
11
0.3081179921259842
21
0.3178892125984252
0
LINE
8
BLACK
6
CONTINUOUS
10
0.3081179921259842
20
0.3178892125984252
11
0.3178892125984252
21
0.3081179921259842
0
LINE
8
BLACK
6
CONTINUOUS
10
0.3178892125984252
20
0.3081179921259842
11
0.328693031496063
21
0.2995022047244094
0
LINE
8
BLACK
6
CONTINUOUS
10
0.328693031496063
20
0.2995022047244094
11
0.3403935826771654
21
0.2921502755905512
0
LINE
8
BLACK
6
CONTINUOUS
10
0.3403935826771654
20
0.2921502755905512
11
0.3528437007874016
21
0.2861546062992126
0
LINE
8
BLACK
6
CONTINUOUS
10
0.3528437007874016
20
0.2861546062992126
11
0.3658868503937008
21
0.2815906299212598
0
LINE
8
BLACK
6
CONTINUOUS
10
0.3658868503937008
20
0.2815906299212598
11
0.3793589763779527
21
0.2785157086614173
0
LINE
8
BLACK
6
CONTINUOUS
10
0.3793589763779527
20
0.2785157086614173
11
0.3930907086614173
21
0.2769685039370079
0
LINE
8
BLACK
6
CONTINUOUS
10
0.3930907086614173
20
0.2769685039370079
11
0.4069092913385827
21
0.2769685039370079
0
LINE
8
BLACK
6
CONTINUOUS
10
0.4069092913385827
20
0.2769685039370079
11
0.4206410236220472
21
0.2785157086614173
0
LINE
8
BLACK
6
CONTINUOUS
10
0.4206410236220472
20
0.2785157086614173
11
0.4341131496062992
21
0.2815906299212598
0
LINE
8
BLACK
6
CONTINUOUS
10
0.4341131496062992
20
0.2815906299212598
11
0.4471562992125984
21
0.2861546062992126
0
LINE
8
BLACK
6
CONTINUOUS
10
0.4471562992125984
20
0.2861546062992126
11
0.4596064173228346
21
0.2921502755905512
0
LINE
8
BLACK
6
CONTINUOUS
10
0.4596064173228346
20
0.2921502755905512
11
0.471306968503937
21
0.2995022047244094
0
LINE
8
BLACK
6
CONTINUOUS
10
0.471306968503937
20
0.2995022047244094
11
0.4821107874015748
21
0.3081179921259842
0
LINE
8
BLACK
6
CONTINUOUS
10
0.4821107874015748
20
0.3081179921259842
11
0.4918820078740158
21
0.3178892125984252
0
LINE
8
BLACK
6
CONTINUOUS
10
0.4918820078740158
20
0.3178892125984252
11
0.5004977952755906
21
0.328693031496063
0
LINE
8
BLACK
6
CONTINUOUS
10
0.5004977952755906
20
0.328693031496063
11
0.5078497244094488
21
0.3403935826771654
0
LINE
8
BLACK
6
CONTINUOUS
10
0.5078497244094488
20
0.3403935826771654
11
0.5138453937007874
21
0.3528437007874016
0
LINE
8
BLACK
6
CONTINUOUS
10
0.5138453937007874
20
0.3528437007874016
11
0.5184093700787401
21
0.3658868503937008
0
LINE
8
BLACK
6
CONTINUOUS
10
0.5184093700787401
20
0.3658868503937008
11
0.5214842913385827
21
0.3793589763779527
0
LINE
8
BLACK
6
CONTINUOUS
10
0.5214842913385827
20
0.3793589763779527
11
0.5230314960629922
21
0.3930907086614173
0
LINE
8
BLACK
6
CONTINUOUS
10
0.5230314960629922
20
0.3930907086614173
11
0.5230314960629922
21
0.4069092913385827
0
LINE
8
BLACK
6
CONTINUOUS
10
0.5230314960629922
20
0.4069092913385827
11
0.5214842913385827
21
0.4206410236220472
0
LINE
8
BLACK
6
CONTINUOUS
10
0.5214842913385827
20
0.4206410236220472
11
0.5184093700787401
21
0.4341131496062992
0
LINE
8
BLACK
6
CONTINUOUS
10
0.5184093700787401
20
0.4341131496062992
11
0.5138453937007874
21
0.4471562992125984
0
LINE
8
BLACK
6
CONTINUOUS
10
0.5138453937007874
20
0.4471562992125984
11
0.5078497244094488
21
0.4596064173228346
0
LINE
8
BLACK
6
CONTINUOUS
10
0.5078497244094488
20
0.4596064173228346
11
0.5004977952755906
21
0.471306968503937
0
LINE
8
BLACK
6
CONTINUOUS
10
0.5004977952755906
20
0.471306968503937
11
0.4918820078740158
21
0.4821107874015748
0
LINE
8
BLACK
6
CONTINUOUS
10
0.4918820078740158
20
0.4821107874015748
11
0.4821107874015748
21
0.4918820078740158
0
LINE
8
BLACK
6
CONTINUOUS
10
0.4821107874015748
20
0.4918820078740158
11
0.471306968503937
21
0.5004977952755906
0
LINE
8
BLACK
6
CONTINUOUS
10
0.471306968503937
20
0.5004977952755906
11
0.4596064173228346
21
0.5078497244094488
0
LINE
8
BLACK
6
CONTINUOUS
10
0.4596064173228346
20
0.5078497244094488
11
0.4471562992125984
21
0.5138453937007874
0
LINE
8
BLACK
6
CONTINUOUS
10
0.4471562992125984
20
0.5138453937007874
11
0.4341131496062992
21
0.5184093700787401
0
LINE
8
BLACK
6
CONTINUOUS
10
0.4341131496062992
20
0.5184093700787401
11
0.4206410236220472
21
0.5214842913385827
0
LINE
8
BLACK
6
CONTINUOUS
10
0.4206410236220472
20
0.5214842913385827
11
0.4069092913385827
21
0.5230314960629922
0
LINE
8
BLACK
6
CONTINUOUS
10
0.4069092913385827
20
0.5230314960629922
11
0.3930907086614173
21
0.5230314960629922
0
LINE
8
BLACK
6
CONTINUOUS
10
0.3930907086614173
20
0.5230314960629922
11
0.3793589763779527
21
0.5214842913385827
0
LINE
8
BLACK
6
CONTINUOUS
10
0.3793589763779527
20
0.5214842913385827
11
0.3658868503937008
21
0.5184093700787401
0
LINE
8
BLACK
6
CONTINUOUS
10
0.3658868503937008
20
0.5184093700787401
11
0.3528437007874016
21
0.5138453937007874
0
LINE
8
BLACK
6
CONTINUOUS
10
0.3528437007874016
20
0.5138453937007874
11
0.3403935826771654
21
0.5078497244094488
0
LINE
8
BLACK
6
CONTINUOUS
10
0.3403935826771654
20
0.5078497244094488
11
0.328693031496063
21
0.5004977952755906
0
LINE
8
BLACK
6
CONTINUOUS
10
0.328693031496063
20
0.5004977952755906
11
0.3178892125984252
21
0.4918820078740158
0
LINE
8
BLACK
6
CONTINUOUS
10
0.3178892125984252
20
0.4918820078740158
11
0.3081179921259842
21
0.4821107874015748
0
LINE
8
BLACK
6
CONTINUOUS
10
0.3081179921259842
20
0.4821107874015748
11
0.2995022047244094
21
0.471306968503937
0
LINE
8
BLACK
6
CONTINUOUS
10
0.2995022047244094
20
0.471306968503937
11
0.2921502755905512
21
0.4596064173228346
0
LINE
8
BLACK
6
CONTINUOUS
10
0.2921502755905512
20
0.4596064173228346
11
0.2861546062992126
21
0.4471562992125984
0
LINE
8
BLACK
6
CONTINUOUS
10
0.2861546062992126
20
0.4471562992125984
11
0.2815906299212598
21
0.4341131496062992
0
LINE
8
BLACK
6
CONTINUOUS
10
0.2815906299212598
20
0.4341131496062992
11
0.2785157086614173
21
0.4206410236220472
0
LINE
8
BLACK
6
CONTINUOUS
10
0.2785157086614173
20
0.4206410236220472
11
0.2769685039370079
21
0.4069092913385827
0
LINE
8
BLACK
6
CONTINUOUS
10
0.2769685039370079
20
0.4069092913385827
11
0.2769685039370079
21
0.3930907086614173
0
LINE
8
BLACK
6
CONTINUOUS
10
2.0189189763779529
20
0.5275414566929134
11
2.0313291338582675
21
0.5250729133858267
0
LINE
8
BLACK
6
CONTINUOUS
10
2.0313291338582675
20
0.5250729133858267
11
2.0434375590551181
21
0.5213998818897637
0
LINE
8
BLACK
6
CONTINUOUS
10
2.0434375590551181
20
0.5213998818897637
11
2.0551276771653542
21
0.5165576771653543
0
LINE
8
BLACK
6
CONTINUOUS
10
2.0551276771653542
20
0.5165576771653543
11
2.0662868503937006
21
0.5105929527559055
0
LINE
8
BLACK
6
CONTINUOUS
10
2.0662868503937006
20
0.5105929527559055
11
2.0768076771653541
21
0.503563188976378
0
LINE
8
BLACK
6
CONTINUOUS
10
2.0768076771653541
20
0.503563188976378
11
2.0865888188976376
21
0.4955360236220472
0
LINE
8
BLACK
6
CONTINUOUS
10
2.0865888188976376
20
0.4955360236220472
11
2.0955360236220471
21
0.4865888188976378
0
LINE
8
BLACK
6
CONTINUOUS
10
2.0955360236220471
20
0.4865888188976378
11
2.103563188976378
21
0.4768076771653543
0
LINE
8
BLACK
6
CONTINUOUS
10
2.103563188976378
20
0.4768076771653543
11
2.1105929527559053
21
0.4662868503937008
0
LINE
8
BLACK
6
CONTINUOUS
10
2.1105929527559053
20
0.4662868503937008
11
2.1165576771653543
21
0.4551276771653543
0
LINE
8
BLACK
6
CONTINUOUS
10
2.1165576771653543
20
0.4551276771653543
11
2.1213998818897637
21
0.4434375590551181
0
LINE
8
BLACK
6
CONTINUOUS
10
2.1213998818897637
20
0.4434375590551181
11
2.1250729133858268
21
0.4313291338582677
0
LINE
8
BLACK
6
CONTINUOUS
10
2.1250729133858268
20
0.4313291338582677
11
2.1275414566929132
21
0.4189189763779527
0
LINE
8
BLACK
6
CONTINUOUS
10
2.1275414566929132
20
0.4189189763779527
11
2.1287816929133858
21
0.4063266535433071
0
LINE
8
BLACK
6
CONTINUOUS
10
2.1287816929133858
20
0.4063266535433071
11
2.1287816929133858
21
0.3936733464566929
0
LINE
8
BLACK
6
CONTINUOUS
10
2.1287816929133858
20
0.3936733464566929
11
2.1275414566929132
21
0.3810810236220472
0
LINE
8
BLACK
6
CONTINUOUS
10
2.1275414566929132
20
0.3810810236220472
11
2.1250729133858268
21
0.3686708661417323
0
LINE
8
BLACK
6
CONTINUOUS
10
2.1250729133858268
20
0.3686708661417323
11
2.1213998818897637
21
0.3565624409448819
0
LINE
8
BLACK
6
CONTINUOUS
10
2.1213998818897637
20
0.3565624409448819
11
2.1165576771653543
21
0.3448723228346456
0
LINE
8
BLACK
6
CONTINUOUS
10
2.1165576771653543
20
0.3448723228346456
11
2.1105929527559053
21
0.3337131496062992
0
LINE
8
BLACK
6
CONTINUOUS
10
2.1105929527559053
20
0.3337131496062992
11
2.103563188976378
21
0.3231923228346457
0
LINE
8
BLACK
6
CONTINUOUS
10
2.103563188976378
20
0.3231923228346457
11
2.0955360236220471
21
0.3134111811023622
0
LINE
8
BLACK
6
CONTINUOUS
10
2.0955360236220471
20
0.3134111811023622
11
2.0865888188976376
21
0.3044639763779527
0
LINE
8
BLACK
6
CONTINUOUS
10
2.0865888188976376
20
0.3044639763779527
11
2.0768076771653541
21
0.296436811023622
0
LINE
8
BLACK
6
CONTINUOUS
10
2.0768076771653541
20
0.296436811023622
11
2.0662868503937006
21
0.2894070472440945
0
LINE
8
BLACK
6
CONTINUOUS
10
2.0662868503937006
20
0.2894070472440945
11
2.0551276771653542
21
0.2834423228346457
0
LINE
8
BLACK
6
CONTINUOUS
10
2.0551276771653542
20
0.2834423228346457
11
2.0434375590551181
21
0.2786001181102362
0
LINE
8
BLACK
6
CONTINUOUS
10
2.0434375590551181
20
0.2786001181102362
11
2.0313291338582675
21
0.2749270866141732
0
LINE
8
BLACK
6
CONTINUOUS
10
2.0313291338582675
20
0.2749270866141732
11
2.0189189763779529
21
0.2724585433070866
0
LINE
8
BLACK
6
CONTINUOUS
10
2.0189189763779529
20
0.2724585433070866
11
2.0063266535433071
21
0.2712183070866142
0
LINE
8
BLACK
6
CONTINUOUS
10
2.0063266535433071
20
0.2712183070866142
11
1.9936733464566929
21
0.2712183070866142
0
LINE
8
BLACK
6
CONTINUOUS
10
1.9936733464566929
20
0.2712183070866142
11
1.9810810236220473
21
0.2724585433070866
0
LINE
8
BLACK
6
CONTINUOUS
10
1.9810810236220473
20
0.2724585433070866
11
1.9686708661417323
21
0.2749270866141732
0
LINE
8
BLACK
6
CONTINUOUS
10
1.9686708661417323
20
0.2749270866141732
11
1.9565624409448819
21
0.2786001181102362
0
LINE
8
BLACK
6
CONTINUOUS
10
1.9565624409448819
20
0.2786001181102362
11
1.9448723228346456
21
0.2834423228346457
0
LINE
8
BLACK
6
CONTINUOUS
10
1.9448723228346456
20
0.2834423228346457
11
1.9337131496062991
21
0.2894070472440945
0
LINE
8
BLACK
6
CONTINUOUS
10
1.9337131496062991
20
0.2894070472440945
11
1.9231923228346457
21
0.296436811023622
0
LINE
8
BLACK
6
CONTINUOUS
10
1.9231923228346457
20
0.296436811023622
11
1.9134111811023622
21
0.3044639763779527
0
LINE
8
BLACK
6
CONTINUOUS
10
1.9134111811023622
20
0.3044639763779527
11
1.9044639763779527
21
0.3134111811023622
0
LINE
8
BLACK
6
CONTINUOUS
10
1.9044639763779527
20
0.3134111811023622
11
1.896436811023622
21
0.3231923228346457
0
LINE
8
BLACK
6
CONTINUOUS
10
1.896436811023622
20
0.3231923228346457
11
1.8894070472440945
21
0.3337131496062992
0
LINE
8
BLACK
6
CONTINUOUS
10
1.8894070472440945
20
0.3337131496062992
11
1.8834423228346455
21
0.3448723228346456
0
LINE
8
BLACK
6
CONTINUOUS
10
1.8834423228346455
20
0.3448723228346456
11
1.8786001181102361
21
0.3565624409448819
0
LINE
8
BLACK
6
CONTINUOUS
10
1.8786001181102361
20
0.3565624409448819
11
1.8749270866141732
21
0.3686708661417323
0
LINE
8
BLACK
6
CONTINUOUS
10
1.8749270866141732
20
0.3686708661417323
11
1.8724585433070866
21
0.3810810236220472
0
LINE
8
BLACK
6
CONTINUOUS
10
1.8724585433070866
20
0.3810810236220472
11
1.8712183070866142
21
0.3936733464566929
0
LINE
8
BLACK
6
CONTINUOUS
10
1.8712183070866142
20
0.3936733464566929
11
1.8712183070866142
21
0.4063266535433071
0
LINE
8
BLACK
6
CONTINUOUS
10
1.8712183070866142
20
0.4063266535433071
11
1.8712757086614173
21
0.4069092913385827
0
LINE
8
BLACK
6
CONTINUOUS
10
1.8712757086614173
20
0.4069092913385827
11
1.8724585433070866
21
0.4189189763779527
0
LINE
8
BLACK
6
CONTINUOUS
10
1.8724585433070866
20
0.4189189763779527
11
1.8749270866141732
21
0.4313291338582677
0
LINE
8
BLACK
6
CONTINUOUS
10
1.8749270866141732
20
0.4313291338582677
11
1.8786001181102361
21
0.4434375590551181
0
LINE
8
BLACK
6
CONTINUOUS
10
1.8786001181102361
20
0.4434375590551181
11
1.8834423228346455
21
0.4551276771653543
0
LINE
8
BLACK
6
CONTINUOUS
10
1.8834423228346455
20
0.4551276771653543
11
1.8894070472440945
21
0.4662868503937008
0
LINE
8
BLACK
6
CONTINUOUS
10
1.8894070472440945
20
0.4662868503937008
11
1.896436811023622
21
0.4768076771653543
0
LINE
8
BLACK
6
CONTINUOUS
10
1.896436811023622
20
0.4768076771653543
11
1.9044639763779527
21
0.4865888188976378
0
LINE
8
BLACK
6
CONTINUOUS
10
1.9044639763779527
20
0.4865888188976378
11
1.9134111811023622
21
0.4955360236220472
0
LINE
8
BLACK
6
CONTINUOUS
10
1.9134111811023622
20
0.4955360236220472
11
1.9231923228346457
21
0.503563188976378
0
LINE
8
BLACK
6
CONTINUOUS
10
1.9231923228346457
20
0.503563188976378
11
1.9337131496062991
21
0.5105929527559055
0
LINE
8
BLACK
6
CONTINUOUS
10
1.9337131496062991
20
0.5105929527559055
11
1.9448723228346456
21
0.5165576771653543
0
LINE
8
BLACK
6
CONTINUOUS
10
1.9448723228346456
20
0.5165576771653543
11
1.9565624409448819
21
0.5213998818897637
0
LINE
8
BLACK
6
CONTINUOUS
10
1.9565624409448819
20
0.5213998818897637
11
1.9686708661417323
21
0.5250729133858267
0
LINE
8
BLACK
6
CONTINUOUS
10
1.9686708661417323
20
0.5250729133858267
11
1.9810810236220473
21
0.5275414566929134
0
LINE
8
BLACK
6
CONTINUOUS
10
1.9810810236220473
20
0.5275414566929134
11
1.9936733464566929
21
0.5287816929133858
0
LINE
8
BLACK
6
CONTINUOUS
10
1.9936733464566929
20
0.5287816929133858
11
2.0063266535433071
21
0.5287816929133858
0
LINE
8
BLACK
6
CONTINUOUS
10
2.0063266535433071
20
0.5287816929133858
11
2.0189189763779529
21
0.5275414566929134
0
LINE
8
BLACK
6
CONTINUOUS
10
1.8769685039370079
20
0.3930907086614173
11
1.8785157086614173
21
0.3793589763779527
0
LINE
8
BLACK
6
CONTINUOUS
10
1.8785157086614173
20
0.3793589763779527
11
1.8815906299212597
21
0.3658868503937008
0
LINE
8
BLACK
6
CONTINUOUS
10
1.8815906299212597
20
0.3658868503937008
11
1.8861546062992125
21
0.3528437007874016
0
LINE
8
BLACK
6
CONTINUOUS
10
1.8861546062992125
20
0.3528437007874016
11
1.892150275590551
21
0.3403935826771654
0
LINE
8
BLACK
6
CONTINUOUS
10
1.892150275590551
20
0.3403935826771654
11
1.8995022047244094
21
0.328693031496063
0
LINE
8
BLACK
6
CONTINUOUS
10
1.8995022047244094
20
0.328693031496063
11
1.9081179921259843
21
0.3178892125984252
0
LINE
8
BLACK
6
CONTINUOUS
10
1.9081179921259843
20
0.3178892125984252
11
1.9178892125984253
21
0.3081179921259842
0
LINE
8
BLACK
6
CONTINUOUS
10
1.9178892125984253
20
0.3081179921259842
11
1.9286930314960629
21
0.2995022047244094
0
LINE
8
BLACK
6
CONTINUOUS
10
1.9286930314960629
20
0.2995022047244094
11
1.9403935826771652
21
0.2921502755905512
0
LINE
8
BLACK
6
CONTINUOUS
10
1.9403935826771652
20
0.2921502755905512
11
1.9528437007874015
21
0.2861546062992126
0
LINE
8
BLACK
6
CONTINUOUS
10
1.9528437007874015
20
0.2861546062992126
11
1.9658868503937008
21
0.2815906299212598
0
LINE
8
BLACK
6
CONTINUOUS
10
1.9658868503937008
20
0.2815906299212598
11
1.9793589763779527
21
0.2785157086614173
0
LINE
8
BLACK
6
CONTINUOUS
10
1.9793589763779527
20
0.2785157086614173
11
1.9930907086614174
21
0.2769685039370079
0
LINE
8
BLACK
6
CONTINUOUS
10
1.9930907086614174
20
0.2769685039370079
11
2.0069092913385824
21
0.2769685039370079
0
LINE
8
BLACK
6
CONTINUOUS
10
2.0069092913385824
20
0.2769685039370079
11
2.0206410236220473
21
0.2785157086614173
0
LINE
8
BLACK
6
CONTINUOUS
10
2.0206410236220473
20
0.2785157086614173
11
2.034113149606299
21
0.2815906299212598
0
LINE
8
BLACK
6
CONTINUOUS
10
2.034113149606299
20
0.2815906299212598
11
2.0471562992125985
21
0.2861546062992126
0
LINE
8
BLACK
6
CONTINUOUS
10
2.0471562992125985
20
0.2861546062992126
11
2.0596064173228346
21
0.2921502755905512
0
LINE
8
BLACK
6
CONTINUOUS
10
2.0596064173228346
20
0.2921502755905512
11
2.0713069685039369
21
0.2995022047244094
0
LINE
8
BLACK
6
CONTINUOUS
10
2.0713069685039369
20
0.2995022047244094
11
2.0821107874015747
21
0.3081179921259842
0
LINE
8
BLACK
6
CONTINUOUS
10
2.0821107874015747
20
0.3081179921259842
11
2.0918820078740157
21
0.3178892125984252
0
LINE
8
BLACK
6
CONTINUOUS
10
2.0918820078740157
20
0.3178892125984252
11
2.1004977952755906
21
0.328693031496063
0
LINE
8
BLACK
6
CONTINUOUS
10
2.1004977952755906
20
0.328693031496063
11
2.1078497244094487
21
0.3403935826771654
0
LINE
8
BLACK
6
CONTINUOUS
10
2.1078497244094487
20
0.3403935826771654
11
2.1138453937007875
21
0.3528437007874016
0
LINE
8
BLACK
6
CONTINUOUS
10
2.1138453937007875
20
0.3528437007874016
11
2.1184093700787403
21
0.3658868503937008
0
LINE
8
BLACK
6
CONTINUOUS
10
2.1184093700787403
20
0.3658868503937008
11
2.1214842913385827
21
0.3793589763779527
0
LINE
8
BLACK
6
CONTINUOUS
10
2.1214842913385827
20
0.3793589763779527
11
2.1230314960629921
21
0.3930907086614173
0
LINE
8
BLACK
6
CONTINUOUS
10
2.1230314960629921
20
0.3930907086614173
11
2.1230314960629921
21
0.4069092913385827
0
LINE
8
BLACK
6
CONTINUOUS
10
2.1230314960629921
20
0.4069092913385827
11
2.1214842913385827
21
0.4206410236220472
0
LINE
8
BLACK
6
CONTINUOUS
10
2.1214842913385827
20
0.4206410236220472
11
2.1184093700787403
21
0.4341131496062992
0
LINE
8
BLACK
6
CONTINUOUS
10
2.1184093700787403
20
0.4341131496062992
11
2.1138453937007875
21
0.4471562992125984
0
LINE
8
BLACK
6
CONTINUOUS
10
2.1138453937007875
20
0.4471562992125984
11
2.1078497244094487
21
0.4596064173228346
0
LINE
8
BLACK
6
CONTINUOUS
10
2.1078497244094487
20
0.4596064173228346
11
2.1004977952755906
21
0.471306968503937
0
LINE
8
BLACK
6
CONTINUOUS
10
2.1004977952755906
20
0.471306968503937
11
2.0918820078740157
21
0.4821107874015748
0
LINE
8
BLACK
6
CONTINUOUS
10
2.0918820078740157
20
0.4821107874015748
11
2.0821107874015747
21
0.4918820078740158
0
LINE
8
BLACK
6
CONTINUOUS
10
2.0821107874015747
20
0.4918820078740158
11
2.0713069685039369
21
0.5004977952755906
0
LINE
8
BLACK
6
CONTINUOUS
10
2.0713069685039369
20
0.5004977952755906
11
2.0596064173228346
21
0.5078497244094488
0
LINE
8
BLACK
6
CONTINUOUS
10
2.0596064173228346
20
0.5078497244094488
11
2.0471562992125985
21
0.5138453937007874
0
LINE
8
BLACK
6
CONTINUOUS
10
2.0471562992125985
20
0.5138453937007874
11
2.034113149606299
21
0.5184093700787401
0
LINE
8
BLACK
6
CONTINUOUS
10
2.034113149606299
20
0.5184093700787401
11
2.0206410236220473
21
0.5214842913385827
0
LINE
8
BLACK
6
CONTINUOUS
10
2.0206410236220473
20
0.5214842913385827
11
2.0069092913385824
21
0.5230314960629922
0
LINE
8
BLACK
6
CONTINUOUS
10
2.0069092913385824
20
0.5230314960629922
11
1.9930907086614174
21
0.5230314960629922
0
LINE
8
BLACK
6
CONTINUOUS
10
1.9930907086614174
20
0.5230314960629922
11
1.9793589763779527
21
0.5214842913385827
0
LINE
8
BLACK
6
CONTINUOUS
10
1.9793589763779527
20
0.5214842913385827
11
1.9658868503937008
21
0.5184093700787401
0
LINE
8
BLACK
6
CONTINUOUS
10
1.9658868503937008
20
0.5184093700787401
11
1.9528437007874015
21
0.5138453937007874
0
LINE
8
BLACK
6
CONTINUOUS
10
1.9528437007874015
20
0.5138453937007874
11
1.9403935826771652
21
0.5078497244094488
0
LINE
8
BLACK
6
CONTINUOUS
10
1.9403935826771652
20
0.5078497244094488
11
1.9286930314960629
21
0.5004977952755906
0
LINE
8
BLACK
6
CONTINUOUS
10
1.9286930314960629
20
0.5004977952755906
11
1.9178892125984253
21
0.4918820078740158
0
LINE
8
BLACK
6
CONTINUOUS
10
1.9178892125984253
20
0.4918820078740158
11
1.9081179921259843
21
0.4821107874015748
0
LINE
8
BLACK
6
CONTINUOUS
10
1.9081179921259843
20
0.4821107874015748
11
1.8995022047244094
21
0.471306968503937
0
LINE
8
BLACK
6
CONTINUOUS
10
1.8995022047244094
20
0.471306968503937
11
1.892150275590551
21
0.4596064173228346
0
LINE
8
BLACK
6
CONTINUOUS
10
1.892150275590551
20
0.4596064173228346
11
1.8861546062992125
21
0.4471562992125984
0
LINE
8
BLACK
6
CONTINUOUS
10
1.8861546062992125
20
0.4471562992125984
11
1.8815906299212597
21
0.4341131496062992
0
LINE
8
BLACK
6
CONTINUOUS
10
1.8815906299212597
20
0.4341131496062992
11
1.8785157086614173
21
0.4206410236220472
0
LINE
8
BLACK
6
CONTINUOUS
10
1.8785157086614173
20
0.4206410236220472
11
1.8769685039370079
21
0.4069092913385827
0
LINE
8
BLACK
6
CONTINUOUS
10
1.8769685039370079
20
0.4069092913385827
11
1.8769685039370079
21
0.3930907086614173
0
LINE
8
BLACK
6
CONTINUOUS
10
0.4189189763779527
20
2.1275414566929132
11
0.4313291338582677
21
2.1250729133858268
0
LINE
8
BLACK
6
CONTINUOUS
10
0.4313291338582677
20
2.1250729133858268
11
0.4434375590551181
21
2.1213998818897637
0
LINE
8
BLACK
6
CONTINUOUS
10
0.4434375590551181
20
2.1213998818897637
11
0.4551276771653543
21
2.1165576771653543
0
LINE
8
BLACK
6
CONTINUOUS
10
0.4551276771653543
20
2.1165576771653543
11
0.4662868503937008
21
2.1105929527559053
0
LINE
8
BLACK
6
CONTINUOUS
10
0.4662868503937008
20
2.1105929527559053
11
0.4768076771653543
21
2.103563188976378
0
LINE
8
BLACK
6
CONTINUOUS
10
0.4768076771653543
20
2.103563188976378
11
0.4865888188976378
21
2.0955360236220471
0
LINE
8
BLACK
6
CONTINUOUS
10
0.4865888188976378
20
2.0955360236220471
11
0.4955360236220472
21
2.0865888188976376
0
LINE
8
BLACK
6
CONTINUOUS
10
0.4955360236220472
20
2.0865888188976376
11
0.503563188976378
21
2.0768076771653541
0
LINE
8
BLACK
6
CONTINUOUS
10
0.503563188976378
20
2.0768076771653541
11
0.5105929527559055
21
2.0662868503937006
0
LINE
8
BLACK
6
CONTINUOUS
10
0.5105929527559055
20
2.0662868503937006
11
0.5165576771653543
21
2.0551276771653542
0
LINE
8
BLACK
6
CONTINUOUS
10
0.5165576771653543
20
2.0551276771653542
11
0.5213998818897637
21
2.0434375590551181
0
LINE
8
BLACK
6
CONTINUOUS
10
0.5213998818897637
20
2.0434375590551181
11
0.5250729133858267
21
2.0313291338582675
0
LINE
8
BLACK
6
CONTINUOUS
10
0.5250729133858267
20
2.0313291338582675
11
0.5275414566929134
21
2.0189189763779529
0
LINE
8
BLACK
6
CONTINUOUS
10
0.5275414566929134
20
2.0189189763779529
11
0.5287816929133858
21
2.0063266535433071
0
LINE
8
BLACK
6
CONTINUOUS
10
0.5287816929133858
20
2.0063266535433071
11
0.5287816929133858
21
1.9936733464566929
0
LINE
8
BLACK
6
CONTINUOUS
10
0.5287816929133858
20
1.9936733464566929
11
0.5275414566929134
21
1.9810810236220473
0
LINE
8
BLACK
6
CONTINUOUS
10
0.5275414566929134
20
1.9810810236220473
11
0.5250729133858267
21
1.9686708661417323
0
LINE
8
BLACK
6
CONTINUOUS
10
0.5250729133858267
20
1.9686708661417323
11
0.5213998818897637
21
1.9565624409448819
0
LINE
8
BLACK
6
CONTINUOUS
10
0.5213998818897637
20
1.9565624409448819
11
0.5165576771653543
21
1.9448723228346456
0
LINE
8
BLACK
6
CONTINUOUS
10
0.5165576771653543
20
1.9448723228346456
11
0.5105929527559055
21
1.9337131496062991
0
LINE
8
BLACK
6
CONTINUOUS
10
0.5105929527559055
20
1.9337131496062991
11
0.503563188976378
21
1.9231923228346457
0
LINE
8
BLACK
6
CONTINUOUS
10
0.503563188976378
20
1.9231923228346457
11
0.4955360236220472
21
1.9134111811023622
0
LINE
8
BLACK
6
CONTINUOUS
10
0.4955360236220472
20
1.9134111811023622
11
0.4865888188976378
21
1.9044639763779527
0
LINE
8
BLACK
6
CONTINUOUS
10
0.4865888188976378
20
1.9044639763779527
11
0.4768076771653543
21
1.896436811023622
0
LINE
8
BLACK
6
CONTINUOUS
10
0.4768076771653543
20
1.896436811023622
11
0.4662868503937008
21
1.8894070472440945
0
LINE
8
BLACK
6
CONTINUOUS
10
0.4662868503937008
20
1.8894070472440945
11
0.4551276771653543
21
1.8834423228346455
0
LINE
8
BLACK
6
CONTINUOUS
10
0.4551276771653543
20
1.8834423228346455
11
0.4434375590551181
21
1.8786001181102361
0
LINE
8
BLACK
6
CONTINUOUS
10
0.4434375590551181
20
1.8786001181102361
11
0.4313291338582677
21
1.8749270866141732
0
LINE
8
BLACK
6
CONTINUOUS
10
0.4313291338582677
20
1.8749270866141732
11
0.4189189763779527
21
1.8724585433070866
0
LINE
8
BLACK
6
CONTINUOUS
10
0.4189189763779527
20
1.8724585433070866
11
0.4063266535433071
21
1.8712183070866142
0
LINE
8
BLACK
6
CONTINUOUS
10
0.4063266535433071
20
1.8712183070866142
11
0.3936733464566929
21
1.8712183070866142
0
LINE
8
BLACK
6
CONTINUOUS
10
0.3936733464566929
20
1.8712183070866142
11
0.3810810236220472
21
1.8724585433070866
0
LINE
8
BLACK
6
CONTINUOUS
10
0.3810810236220472
20
1.8724585433070866
11
0.3686708661417323
21
1.8749270866141732
0
LINE
8
BLACK
6
CONTINUOUS
10
0.3686708661417323
20
1.8749270866141732
11
0.3565624409448819
21
1.8786001181102361
0
LINE
8
BLACK
6
CONTINUOUS
10
0.3565624409448819
20
1.8786001181102361
11
0.3448723228346456
21
1.8834423228346455
0
LINE
8
BLACK
6
CONTINUOUS
10
0.3448723228346456
20
1.8834423228346455
11
0.3337131496062992
21
1.8894070472440945
0
LINE
8
BLACK
6
CONTINUOUS
10
0.3337131496062992
20
1.8894070472440945
11
0.3231923228346457
21
1.896436811023622
0
LINE
8
BLACK
6
CONTINUOUS
10
0.3231923228346457
20
1.896436811023622
11
0.3134111811023622
21
1.9044639763779527
0
LINE
8
BLACK
6
CONTINUOUS
10
0.3134111811023622
20
1.9044639763779527
11
0.3044639763779527
21
1.9134111811023622
0
LINE
8
BLACK
6
CONTINUOUS
10
0.3044639763779527
20
1.9134111811023622
11
0.296436811023622
21
1.9231923228346457
0
LINE
8
BLACK
6
CONTINUOUS
10
0.296436811023622
20
1.9231923228346457
11
0.2894070472440945
21
1.9337131496062991
0
LINE
8
BLACK
6
CONTINUOUS
10
0.2894070472440945
20
1.9337131496062991
11
0.2834423228346457
21
1.9448723228346456
0
LINE
8
BLACK
6
CONTINUOUS
10
0.2834423228346457
20
1.9448723228346456
11
0.2786001181102362
21
1.9565624409448819
0
LINE
8
BLACK
6
CONTINUOUS
10
0.2786001181102362
20
1.9565624409448819
11
0.2749270866141732
21
1.9686708661417323
0
LINE
8
BLACK
6
CONTINUOUS
10
0.2749270866141732
20
1.9686708661417323
11
0.2724585433070866
21
1.9810810236220473
0
LINE
8
BLACK
6
CONTINUOUS
10
0.2724585433070866
20
1.9810810236220473
11
0.2712183070866142
21
1.9936733464566929
0
LINE
8
BLACK
6
CONTINUOUS
10
0.2712183070866142
20
1.9936733464566929
11
0.2712183070866142
21
2.0063266535433071
0
LINE
8
BLACK
6
CONTINUOUS
10
0.2712183070866142
20
2.0063266535433071
11
0.2712757086614173
21
2.0069092913385824
0
LINE
8
BLACK
6
CONTINUOUS
10
0.2712757086614173
20
2.0069092913385824
11
0.2724585433070866
21
2.0189189763779529
0
LINE
8
BLACK
6
CONTINUOUS
10
0.2724585433070866
20
2.0189189763779529
11
0.2749270866141732
21
2.0313291338582675
0
LINE
8
BLACK
6
CONTINUOUS
10
0.2749270866141732
20
2.0313291338582675
11
0.2786001181102362
21
2.0434375590551181
0
LINE
8
BLACK
6
CONTINUOUS
10
0.2786001181102362
20
2.0434375590551181
11
0.2834423228346457
21
2.0551276771653542
0
LINE
8
BLACK
6
CONTINUOUS
10
0.2834423228346457
20
2.0551276771653542
11
0.2894070472440945
21
2.0662868503937006
0
LINE
8
BLACK
6
CONTINUOUS
10
0.2894070472440945
20
2.0662868503937006
11
0.296436811023622
21
2.0768076771653541
0
LINE
8
BLACK
6
CONTINUOUS
10
0.296436811023622
20
2.0768076771653541
11
0.3044639763779527
21
2.0865888188976376
0
LINE
8
BLACK
6
CONTINUOUS
10
0.3044639763779527
20
2.0865888188976376
11
0.3134111811023622
21
2.0955360236220471
0
LINE
8
BLACK
6
CONTINUOUS
10
0.3134111811023622
20
2.0955360236220471
11
0.3231923228346457
21
2.103563188976378
0
LINE
8
BLACK
6
CONTINUOUS
10
0.3231923228346457
20
2.103563188976378
11
0.3337131496062992
21
2.1105929527559053
0
LINE
8
BLACK
6
CONTINUOUS
10
0.3337131496062992
20
2.1105929527559053
11
0.3448723228346456
21
2.1165576771653543
0
LINE
8
BLACK
6
CONTINUOUS
10
0.3448723228346456
20
2.1165576771653543
11
0.3565624409448819
21
2.1213998818897637
0
LINE
8
BLACK
6
CONTINUOUS
10
0.3565624409448819
20
2.1213998818897637
11
0.3686708661417323
21
2.1250729133858268
0
LINE
8
BLACK
6
CONTINUOUS
10
0.3686708661417323
20
2.1250729133858268
11
0.3810810236220472
21
2.1275414566929132
0
LINE
8
BLACK
6
CONTINUOUS
10
0.3810810236220472
20
2.1275414566929132
11
0.3936733464566929
21
2.1287816929133858
0
LINE
8
BLACK
6
CONTINUOUS
10
0.3936733464566929
20
2.1287816929133858
11
0.4063266535433071
21
2.1287816929133858
0
LINE
8
BLACK
6
CONTINUOUS
10
0.4063266535433071
20
2.1287816929133858
11
0.4189189763779527
21
2.1275414566929132
0
LINE
8
BLACK
6
CONTINUOUS
10
0.2769685039370079
20
1.9930907086614174
11
0.2785157086614173
21
1.9793589763779527
0
LINE
8
BLACK
6
CONTINUOUS
10
0.2785157086614173
20
1.9793589763779527
11
0.2815906299212598
21
1.9658868503937008
0
LINE
8
BLACK
6
CONTINUOUS
10
0.2815906299212598
20
1.9658868503937008
11
0.2861546062992126
21
1.9528437007874015
0
LINE
8
BLACK
6
CONTINUOUS
10
0.2861546062992126
20
1.9528437007874015
11
0.2921502755905512
21
1.9403935826771652
0
LINE
8
BLACK
6
CONTINUOUS
10
0.2921502755905512
20
1.9403935826771652
11
0.2995022047244094
21
1.9286930314960629
0
LINE
8
BLACK
6
CONTINUOUS
10
0.2995022047244094
20
1.9286930314960629
11
0.3081179921259842
21
1.9178892125984253
0
LINE
8
BLACK
6
CONTINUOUS
10
0.3081179921259842
20
1.9178892125984253
11
0.3178892125984252
21
1.9081179921259843
0
LINE
8
BLACK
6
CONTINUOUS
10
0.3178892125984252
20
1.9081179921259843
11
0.328693031496063
21
1.8995022047244094
0
LINE
8
BLACK
6
CONTINUOUS
10
0.328693031496063
20
1.8995022047244094
11
0.3403935826771654
21
1.892150275590551
0
LINE
8
BLACK
6
CONTINUOUS
10
0.3403935826771654
20
1.892150275590551
11
0.3528437007874016
21
1.8861546062992125
0
LINE
8
BLACK
6
CONTINUOUS
10
0.3528437007874016
20
1.8861546062992125
11
0.3658868503937008
21
1.8815906299212597
0
LINE
8
BLACK
6
CONTINUOUS
10
0.3658868503937008
20
1.8815906299212597
11
0.3793589763779527
21
1.8785157086614173
0
LINE
8
BLACK
6
CONTINUOUS
10
0.3793589763779527
20
1.8785157086614173
11
0.3930907086614173
21
1.8769685039370079
0
LINE
8
BLACK
6
CONTINUOUS
10
0.3930907086614173
20
1.8769685039370079
11
0.4069092913385827
21
1.8769685039370079
0
LINE
8
BLACK
6
CONTINUOUS
10
0.4069092913385827
20
1.8769685039370079
11
0.4206410236220472
21
1.8785157086614173
0
LINE
8
BLACK
6
CONTINUOUS
10
0.4206410236220472
20
1.8785157086614173
11
0.4341131496062992
21
1.8815906299212597
0
LINE
8
BLACK
6
CONTINUOUS
10
0.4341131496062992
20
1.8815906299212597
11
0.4471562992125984
21
1.8861546062992125
0
LINE
8
BLACK
6
CONTINUOUS
10
0.4471562992125984
20
1.8861546062992125
11
0.4596064173228346
21
1.892150275590551
0
LINE
8
BLACK
6
CONTINUOUS
10
0.4596064173228346
20
1.892150275590551
11
0.471306968503937
21
1.8995022047244094
0
LINE
8
BLACK
6
CONTINUOUS
10
0.471306968503937
20
1.8995022047244094
11
0.4821107874015748
21
1.9081179921259843
0
LINE
8
BLACK
6
CONTINUOUS
10
0.4821107874015748
20
1.9081179921259843
11
0.4918820078740158
21
1.9178892125984253
0
LINE
8
BLACK
6
CONTINUOUS
10
0.4918820078740158
20
1.9178892125984253
11
0.5004977952755906
21
1.9286930314960629
0
LINE
8
BLACK
6
CONTINUOUS
10
0.5004977952755906
20
1.9286930314960629
11
0.5078497244094488
21
1.9403935826771652
0
LINE
8
BLACK
6
CONTINUOUS
10
0.5078497244094488
20
1.9403935826771652
11
0.5138453937007874
21
1.9528437007874015
0
LINE
8
BLACK
6
CONTINUOUS
10
0.5138453937007874
20
1.9528437007874015
11
0.5184093700787401
21
1.9658868503937008
0
LINE
8
BLACK
6
CONTINUOUS
10
0.5184093700787401
20
1.9658868503937008
11
0.5214842913385827
21
1.9793589763779527
0
LINE
8
BLACK
6
CONTINUOUS
10
0.5214842913385827
20
1.9793589763779527
11
0.5230314960629922
21
1.9930907086614174
0
LINE
8
BLACK
6
CONTINUOUS
10
0.5230314960629922
20
1.9930907086614174
11
0.5230314960629922
21
2.0069092913385824
0
LINE
8
BLACK
6
CONTINUOUS
10
0.5230314960629922
20
2.0069092913385824
11
0.5214842913385827
21
2.0206410236220473
0
LINE
8
BLACK
6
CONTINUOUS
10
0.5214842913385827
20
2.0206410236220473
11
0.5184093700787401
21
2.034113149606299
0
LINE
8
BLACK
6
CONTINUOUS
10
0.5184093700787401
20
2.034113149606299
11
0.5138453937007874
21
2.0471562992125985
0
LINE
8
BLACK
6
CONTINUOUS
10
0.5138453937007874
20
2.0471562992125985
11
0.5078497244094488
21
2.0596064173228346
0
LINE
8
BLACK
6
CONTINUOUS
10
0.5078497244094488
20
2.0596064173228346
11
0.5004977952755906
21
2.0713069685039369
0
LINE
8
BLACK
6
CONTINUOUS
10
0.5004977952755906
20
2.0713069685039369
11
0.4918820078740158
21
2.0821107874015747
0
LINE
8
BLACK
6
CONTINUOUS
10
0.4918820078740158
20
2.0821107874015747
11
0.4821107874015748
21
2.0918820078740157
0
LINE
8
BLACK
6
CONTINUOUS
10
0.4821107874015748
20
2.0918820078740157
11
0.471306968503937
21
2.1004977952755906
0
LINE
8
BLACK
6
CONTINUOUS
10
0.471306968503937
20
2.1004977952755906
11
0.4596064173228346
21
2.1078497244094487
0
LINE
8
BLACK
6
CONTINUOUS
10
0.4596064173228346
20
2.1078497244094487
11
0.4471562992125984
21
2.1138453937007875
0
LINE
8
BLACK
6
CONTINUOUS
10
0.4471562992125984
20
2.1138453937007875
11
0.4341131496062992
21
2.1184093700787403
0
LINE
8
BLACK
6
CONTINUOUS
10
0.4341131496062992
20
2.1184093700787403
11
0.4206410236220472
21
2.1214842913385827
0
LINE
8
BLACK
6
CONTINUOUS
10
0.4206410236220472
20
2.1214842913385827
11
0.4069092913385827
21
2.1230314960629921
0
LINE
8
BLACK
6
CONTINUOUS
10
0.4069092913385827
20
2.1230314960629921
11
0.3930907086614173
21
2.1230314960629921
0
LINE
8
BLACK
6
CONTINUOUS
10
0.3930907086614173
20
2.1230314960629921
11
0.3793589763779527
21
2.1214842913385827
0
LINE
8
BLACK
6
CONTINUOUS
10
0.3793589763779527
20
2.1214842913385827
11
0.3658868503937008
21
2.1184093700787403
0
LINE
8
BLACK
6
CONTINUOUS
10
0.3658868503937008
20
2.1184093700787403
11
0.3528437007874016
21
2.1138453937007875
0
LINE
8
BLACK
6
CONTINUOUS
10
0.3528437007874016
20
2.1138453937007875
11
0.3403935826771654
21
2.1078497244094487
0
LINE
8
BLACK
6
CONTINUOUS
10
0.3403935826771654
20
2.1078497244094487
11
0.328693031496063
21
2.1004977952755906
0
LINE
8
BLACK
6
CONTINUOUS
10
0.328693031496063
20
2.1004977952755906
11
0.3178892125984252
21
2.0918820078740157
0
LINE
8
BLACK
6
CONTINUOUS
10
0.3178892125984252
20
2.0918820078740157
11
0.3081179921259842
21
2.0821107874015747
0
LINE
8
BLACK
6
CONTINUOUS
10
0.3081179921259842
20
2.0821107874015747
11
0.2995022047244094
21
2.0713069685039369
0
LINE
8
BLACK
6
CONTINUOUS
10
0.2995022047244094
20
2.0713069685039369
11
0.2921502755905512
21
2.0596064173228346
0
LINE
8
BLACK
6
CONTINUOUS
10
0.2921502755905512
20
2.0596064173228346
11
0.2861546062992126
21
2.0471562992125985
0
LINE
8
BLACK
6
CONTINUOUS
10
0.2861546062992126
20
2.0471562992125985
11
0.2815906299212598
21
2.034113149606299
0
LINE
8
BLACK
6
CONTINUOUS
10
0.2815906299212598
20
2.034113149606299
11
0.2785157086614173
21
2.0206410236220473
0
LINE
8
BLACK
6
CONTINUOUS
10
0.2785157086614173
20
2.0206410236220473
11
0.2769685039370079
21
2.0069092913385824
0
LINE
8
BLACK
6
CONTINUOUS
10
0.2769685039370079
20
2.0069092913385824
11
0.2769685039370079
21
1.9930907086614174
0
LINE
8
BLACK
6
CONTINUOUS
10
2.0189189763779529
20
2.1275414566929132
11
2.0313291338582675
21
2.1250729133858268
0
LINE
8
BLACK
6
CONTINUOUS
10
2.0313291338582675
20
2.1250729133858268
11
2.0434375590551181
21
2.1213998818897637
0
LINE
8
BLACK
6
CONTINUOUS
10
2.0434375590551181
20
2.1213998818897637
11
2.0551276771653542
21
2.1165576771653543
0
LINE
8
BLACK
6
CONTINUOUS
10
2.0551276771653542
20
2.1165576771653543
11
2.0662868503937006
21
2.1105929527559053
0
LINE
8
BLACK
6
CONTINUOUS
10
2.0662868503937006
20
2.1105929527559053
11
2.0768076771653541
21
2.103563188976378
0
LINE
8
BLACK
6
CONTINUOUS
10
2.0768076771653541
20
2.103563188976378
11
2.0865888188976376
21
2.0955360236220471
0
LINE
8
BLACK
6
CONTINUOUS
10
2.0865888188976376
20
2.0955360236220471
11
2.0955360236220471
21
2.0865888188976376
0
LINE
8
BLACK
6
CONTINUOUS
10
2.0955360236220471
20
2.0865888188976376
11
2.103563188976378
21
2.0768076771653541
0
LINE
8
BLACK
6
CONTINUOUS
10
2.103563188976378
20
2.0768076771653541
11
2.1105929527559053
21
2.0662868503937006
0
LINE
8
BLACK
6
CONTINUOUS
10
2.1105929527559053
20
2.0662868503937006
11
2.1165576771653543
21
2.0551276771653542
0
LINE
8
BLACK
6
CONTINUOUS
10
2.1165576771653543
20
2.0551276771653542
11
2.1213998818897637
21
2.0434375590551181
0
LINE
8
BLACK
6
CONTINUOUS
10
2.1213998818897637
20
2.0434375590551181
11
2.1250729133858268
21
2.0313291338582675
0
LINE
8
BLACK
6
CONTINUOUS
10
2.1250729133858268
20
2.0313291338582675
11
2.1275414566929132
21
2.0189189763779529
0
LINE
8
BLACK
6
CONTINUOUS
10
2.1275414566929132
20
2.0189189763779529
11
2.1287816929133858
21
2.0063266535433071
0
LINE
8
BLACK
6
CONTINUOUS
10
2.1287816929133858
20
2.0063266535433071
11
2.1287816929133858
21
1.9936733464566929
0
LINE
8
BLACK
6
CONTINUOUS
10
2.1287816929133858
20
1.9936733464566929
11
2.1275414566929132
21
1.9810810236220473
0
LINE
8
BLACK
6
CONTINUOUS
10
2.1275414566929132
20
1.9810810236220473
11
2.1250729133858268
21
1.9686708661417323
0
LINE
8
BLACK
6
CONTINUOUS
10
2.1250729133858268
20
1.9686708661417323
11
2.1213998818897637
21
1.9565624409448819
0
LINE
8
BLACK
6
CONTINUOUS
10
2.1213998818897637
20
1.9565624409448819
11
2.1165576771653543
21
1.9448723228346456
0
LINE
8
BLACK
6
CONTINUOUS
10
2.1165576771653543
20
1.9448723228346456
11
2.1105929527559053
21
1.9337131496062991
0
LINE
8
BLACK
6
CONTINUOUS
10
2.1105929527559053
20
1.9337131496062991
11
2.103563188976378
21
1.9231923228346457
0
LINE
8
BLACK
6
CONTINUOUS
10
2.103563188976378
20
1.9231923228346457
11
2.0955360236220471
21
1.9134111811023622
0
LINE
8
BLACK
6
CONTINUOUS
10
2.0955360236220471
20
1.9134111811023622
11
2.0865888188976376
21
1.9044639763779527
0
LINE
8
BLACK
6
CONTINUOUS
10
2.0865888188976376
20
1.9044639763779527
11
2.0768076771653541
21
1.896436811023622
0
LINE
8
BLACK
6
CONTINUOUS
10
2.0768076771653541
20
1.896436811023622
11
2.0662868503937006
21
1.8894070472440945
0
LINE
8
BLACK
6
CONTINUOUS
10
2.0662868503937006
20
1.8894070472440945
11
2.0551276771653542
21
1.8834423228346455
0
LINE
8
BLACK
6
CONTINUOUS
10
2.0551276771653542
20
1.8834423228346455
11
2.0434375590551181
21
1.8786001181102361
0
LINE
8
BLACK
6
CONTINUOUS
10
2.0434375590551181
20
1.8786001181102361
11
2.0313291338582675
21
1.8749270866141732
0
LINE
8
BLACK
6
CONTINUOUS
10
2.0313291338582675
20
1.8749270866141732
11
2.0189189763779529
21
1.8724585433070866
0
LINE
8
BLACK
6
CONTINUOUS
10
2.0189189763779529
20
1.8724585433070866
11
2.0063266535433071
21
1.8712183070866142
0
LINE
8
BLACK
6
CONTINUOUS
10
2.0063266535433071
20
1.8712183070866142
11
1.9936733464566929
21
1.8712183070866142
0
LINE
8
BLACK
6
CONTINUOUS
10
1.9936733464566929
20
1.8712183070866142
11
1.9810810236220473
21
1.8724585433070866
0
LINE
8
BLACK
6
CONTINUOUS
10
1.9810810236220473
20
1.8724585433070866
11
1.9686708661417323
21
1.8749270866141732
0
LINE
8
BLACK
6
CONTINUOUS
10
1.9686708661417323
20
1.8749270866141732
11
1.9565624409448819
21
1.8786001181102361
0
LINE
8
BLACK
6
CONTINUOUS
10
1.9565624409448819
20
1.8786001181102361
11
1.9448723228346456
21
1.8834423228346455
0
LINE
8
BLACK
6
CONTINUOUS
10
1.9448723228346456
20
1.8834423228346455
11
1.9337131496062991
21
1.8894070472440945
0
LINE
8
BLACK
6
CONTINUOUS
10
1.9337131496062991
20
1.8894070472440945
11
1.9231923228346457
21
1.896436811023622
0
LINE
8
BLACK
6
CONTINUOUS
10
1.9231923228346457
20
1.896436811023622
11
1.9134111811023622
21
1.9044639763779527
0
LINE
8
BLACK
6
CONTINUOUS
10
1.9134111811023622
20
1.9044639763779527
11
1.9044639763779527
21
1.9134111811023622
0
LINE
8
BLACK
6
CONTINUOUS
10
1.9044639763779527
20
1.9134111811023622
11
1.896436811023622
21
1.9231923228346457
0
LINE
8
BLACK
6
CONTINUOUS
10
1.896436811023622
20
1.9231923228346457
11
1.8894070472440945
21
1.9337131496062991
0
LINE
8
BLACK
6
CONTINUOUS
10
1.8894070472440945
20
1.9337131496062991
11
1.8834423228346455
21
1.9448723228346456
0
LINE
8
BLACK
6
CONTINUOUS
10
1.8834423228346455
20
1.9448723228346456
11
1.8786001181102361
21
1.9565624409448819
0
LINE
8
BLACK
6
CONTINUOUS
10
1.8786001181102361
20
1.9565624409448819
11
1.8749270866141732
21
1.9686708661417323
0
LINE
8
BLACK
6
CONTINUOUS
10
1.8749270866141732
20
1.9686708661417323
11
1.8724585433070866
21
1.9810810236220473
0
LINE
8
BLACK
6
CONTINUOUS
10
1.8724585433070866
20
1.9810810236220473
11
1.8712183070866142
21
1.9936733464566929
0
LINE
8
BLACK
6
CONTINUOUS
10
1.8712183070866142
20
1.9936733464566929
11
1.8712183070866142
21
2.0063266535433071
0
LINE
8
BLACK
6
CONTINUOUS
10
1.8712183070866142
20
2.0063266535433071
11
1.8712757086614173
21
2.0069092913385824
0
LINE
8
BLACK
6
CONTINUOUS
10
1.8712757086614173
20
2.0069092913385824
11
1.8724585433070866
21
2.0189189763779529
0
LINE
8
BLACK
6
CONTINUOUS
10
1.8724585433070866
20
2.0189189763779529
11
1.8749270866141732
21
2.0313291338582675
0
LINE
8
BLACK
6
CONTINUOUS
10
1.8749270866141732
20
2.0313291338582675
11
1.8786001181102361
21
2.0434375590551181
0
LINE
8
BLACK
6
CONTINUOUS
10
1.8786001181102361
20
2.0434375590551181
11
1.8834423228346455
21
2.0551276771653542
0
LINE
8
BLACK
6
CONTINUOUS
10
1.8834423228346455
20
2.0551276771653542
11
1.8894070472440945
21
2.0662868503937006
0
LINE
8
BLACK
6
CONTINUOUS
10
1.8894070472440945
20
2.0662868503937006
11
1.896436811023622
21
2.0768076771653541
0
LINE
8
BLACK
6
CONTINUOUS
10
1.896436811023622
20
2.0768076771653541
11
1.9044639763779527
21
2.0865888188976376
0
LINE
8
BLACK
6
CONTINUOUS
10
1.9044639763779527
20
2.0865888188976376
11
1.9134111811023622
21
2.0955360236220471
0
LINE
8
BLACK
6
CONTINUOUS
10
1.9134111811023622
20
2.0955360236220471
11
1.9231923228346457
21
2.103563188976378
0
LINE
8
BLACK
6
CONTINUOUS
10
1.9231923228346457
20
2.103563188976378
11
1.9337131496062991
21
2.1105929527559053
0
LINE
8
BLACK
6
CONTINUOUS
10
1.9337131496062991
20
2.1105929527559053
11
1.9448723228346456
21
2.1165576771653543
0
LINE
8
BLACK
6
CONTINUOUS
10
1.9448723228346456
20
2.1165576771653543
11
1.9565624409448819
21
2.1213998818897637
0
LINE
8
BLACK
6
CONTINUOUS
10
1.9565624409448819
20
2.1213998818897637
11
1.9686708661417323
21
2.1250729133858268
0
LINE
8
BLACK
6
CONTINUOUS
10
1.9686708661417323
20
2.1250729133858268
11
1.9810810236220473
21
2.1275414566929132
0
LINE
8
BLACK
6
CONTINUOUS
10
1.9810810236220473
20
2.1275414566929132
11
1.9936733464566929
21
2.1287816929133858
0
LINE
8
BLACK
6
CONTINUOUS
10
1.9936733464566929
20
2.1287816929133858
11
2.0063266535433071
21
2.1287816929133858
0
LINE
8
BLACK
6
CONTINUOUS
10
2.0063266535433071
20
2.1287816929133858
11
2.0189189763779529
21
2.1275414566929132
0
LINE
8
BLACK
6
CONTINUOUS
10
1.8769685039370079
20
1.9930907086614174
11
1.8785157086614173
21
1.9793589763779527
0
LINE
8
BLACK
6
CONTINUOUS
10
1.8785157086614173
20
1.9793589763779527
11
1.8815906299212597
21
1.9658868503937008
0
LINE
8
BLACK
6
CONTINUOUS
10
1.8815906299212597
20
1.9658868503937008
11
1.8861546062992125
21
1.9528437007874015
0
LINE
8
BLACK
6
CONTINUOUS
10
1.8861546062992125
20
1.9528437007874015
11
1.892150275590551
21
1.9403935826771652
0
LINE
8
BLACK
6
CONTINUOUS
10
1.892150275590551
20
1.9403935826771652
11
1.8995022047244094
21
1.9286930314960629
0
LINE
8
BLACK
6
CONTINUOUS
10
1.8995022047244094
20
1.9286930314960629
11
1.9081179921259843
21
1.9178892125984253
0
LINE
8
BLACK
6
CONTINUOUS
10
1.9081179921259843
20
1.9178892125984253
11
1.9178892125984253
21
1.9081179921259843
0
LINE
8
BLACK
6
CONTINUOUS
10
1.9178892125984253
20
1.9081179921259843
11
1.9286930314960629
21
1.8995022047244094
0
LINE
8
BLACK
6
CONTINUOUS
10
1.9286930314960629
20
1.8995022047244094
11
1.9403935826771652
21
1.892150275590551
0
LINE
8
BLACK
6
CONTINUOUS
10
1.9403935826771652
20
1.892150275590551
11
1.9528437007874015
21
1.8861546062992125
0
LINE
8
BLACK
6
CONTINUOUS
10
1.9528437007874015
20
1.8861546062992125
11
1.9658868503937008
21
1.8815906299212597
0
LINE
8
BLACK
6
CONTINUOUS
10
1.9658868503937008
20
1.8815906299212597
11
1.9793589763779527
21
1.8785157086614173
0
LINE
8
BLACK
6
CONTINUOUS
10
1.9793589763779527
20
1.8785157086614173
11
1.9930907086614174
21
1.8769685039370079
0
LINE
8
BLACK
6
CONTINUOUS
10
1.9930907086614174
20
1.8769685039370079
11
2.0069092913385824
21
1.8769685039370079
0
LINE
8
BLACK
6
CONTINUOUS
10
2.0069092913385824
20
1.8769685039370079
11
2.0206410236220473
21
1.8785157086614173
0
LINE
8
BLACK
6
CONTINUOUS
10
2.0206410236220473
20
1.8785157086614173
11
2.034113149606299
21
1.8815906299212597
0
LINE
8
BLACK
6
CONTINUOUS
10
2.034113149606299
20
1.8815906299212597
11
2.0471562992125985
21
1.8861546062992125
0
LINE
8
BLACK
6
CONTINUOUS
10
2.0471562992125985
20
1.8861546062992125
11
2.0596064173228346
21
1.892150275590551
0
LINE
8
BLACK
6
CONTINUOUS
10
2.0596064173228346
20
1.892150275590551
11
2.0713069685039369
21
1.8995022047244094
0
LINE
8
BLACK
6
CONTINUOUS
10
2.0713069685039369
20
1.8995022047244094
11
2.0821107874015747
21
1.9081179921259843
0
LINE
8
BLACK
6
CONTINUOUS
10
2.0821107874015747
20
1.9081179921259843
11
2.0918820078740157
21
1.9178892125984253
0
LINE
8
BLACK
6
CONTINUOUS
10
2.0918820078740157
20
1.9178892125984253
11
2.1004977952755906
21
1.9286930314960629
0
LINE
8
BLACK
6
CONTINUOUS
10
2.1004977952755906
20
1.9286930314960629
11
2.1078497244094487
21
1.9403935826771652
0
LINE
8
BLACK
6
CONTINUOUS
10
2.1078497244094487
20
1.9403935826771652
11
2.1138453937007875
21
1.9528437007874015
0
LINE
8
BLACK
6
CONTINUOUS
10
2.1138453937007875
20
1.9528437007874015
11
2.1184093700787403
21
1.9658868503937008
0
LINE
8
BLACK
6
CONTINUOUS
10
2.1184093700787403
20
1.9658868503937008
11
2.1214842913385827
21
1.9793589763779527
0
LINE
8
BLACK
6
CONTINUOUS
10
2.1214842913385827
20
1.9793589763779527
11
2.1230314960629921
21
1.9930907086614174
0
LINE
8
BLACK
6
CONTINUOUS
10
2.1230314960629921
20
1.9930907086614174
11
2.1230314960629921
21
2.0069092913385824
0
LINE
8
BLACK
6
CONTINUOUS
10
2.1230314960629921
20
2.0069092913385824
11
2.1214842913385827
21
2.0206410236220473
0
LINE
8
BLACK
6
CONTINUOUS
10
2.1214842913385827
20
2.0206410236220473
11
2.1184093700787403
21
2.034113149606299
0
LINE
8
BLACK
6
CONTINUOUS
10
2.1184093700787403
20
2.034113149606299
11
2.1138453937007875
21
2.0471562992125985
0
LINE
8
BLACK
6
CONTINUOUS
10
2.1138453937007875
20
2.0471562992125985
11
2.1078497244094487
21
2.0596064173228346
0
LINE
8
BLACK
6
CONTINUOUS
10
2.1078497244094487
20
2.0596064173228346
11
2.1004977952755906
21
2.0713069685039369
0
LINE
8
BLACK
6
CONTINUOUS
10
2.1004977952755906
20
2.0713069685039369
11
2.0918820078740157
21
2.0821107874015747
0
LINE
8
BLACK
6
CONTINUOUS
10
2.0918820078740157
20
2.0821107874015747
11
2.0821107874015747
21
2.0918820078740157
0
LINE
8
BLACK
6
CONTINUOUS
10
2.0821107874015747
20
2.0918820078740157
11
2.0713069685039369
21
2.1004977952755906
0
LINE
8
BLACK
6
CONTINUOUS
10
2.0713069685039369
20
2.1004977952755906
11
2.0596064173228346
21
2.1078497244094487
0
LINE
8
BLACK
6
CONTINUOUS
10
2.0596064173228346
20
2.1078497244094487
11
2.0471562992125985
21
2.1138453937007875
0
LINE
8
BLACK
6
CONTINUOUS
10
2.0471562992125985
20
2.1138453937007875
11
2.034113149606299
21
2.1184093700787403
0
LINE
8
BLACK
6
CONTINUOUS
10
2.034113149606299
20
2.1184093700787403
11
2.0206410236220473
21
2.1214842913385827
0
LINE
8
BLACK
6
CONTINUOUS
10
2.0206410236220473
20
2.1214842913385827
11
2.0069092913385824
21
2.1230314960629921
0
LINE
8
BLACK
6
CONTINUOUS
10
2.0069092913385824
20
2.1230314960629921
11
1.9930907086614174
21
2.1230314960629921
0
LINE
8
BLACK
6
CONTINUOUS
10
1.9930907086614174
20
2.1230314960629921
11
1.9793589763779527
21
2.1214842913385827
0
LINE
8
BLACK
6
CONTINUOUS
10
1.9793589763779527
20
2.1214842913385827
11
1.9658868503937008
21
2.1184093700787403
0
LINE
8
BLACK
6
CONTINUOUS
10
1.9658868503937008
20
2.1184093700787403
11
1.9528437007874015
21
2.1138453937007875
0
LINE
8
BLACK
6
CONTINUOUS
10
1.9528437007874015
20
2.1138453937007875
11
1.9403935826771652
21
2.1078497244094487
0
LINE
8
BLACK
6
CONTINUOUS
10
1.9403935826771652
20
2.1078497244094487
11
1.9286930314960629
21
2.1004977952755906
0
LINE
8
BLACK
6
CONTINUOUS
10
1.9286930314960629
20
2.1004977952755906
11
1.9178892125984253
21
2.0918820078740157
0
LINE
8
BLACK
6
CONTINUOUS
10
1.9178892125984253
20
2.0918820078740157
11
1.9081179921259843
21
2.0821107874015747
0
LINE
8
BLACK
6
CONTINUOUS
10
1.9081179921259843
20
2.0821107874015747
11
1.8995022047244094
21
2.0713069685039369
0
LINE
8
BLACK
6
CONTINUOUS
10
1.8995022047244094
20
2.0713069685039369
11
1.892150275590551
21
2.0596064173228346
0
LINE
8
BLACK
6
CONTINUOUS
10
1.892150275590551
20
2.0596064173228346
11
1.8861546062992125
21
2.0471562992125985
0
LINE
8
BLACK
6
CONTINUOUS
10
1.8861546062992125
20
2.0471562992125985
11
1.8815906299212597
21
2.034113149606299
0
LINE
8
BLACK
6
CONTINUOUS
10
1.8815906299212597
20
2.034113149606299
11
1.8785157086614173
21
2.0206410236220473
0
LINE
8
BLACK
6
CONTINUOUS
10
1.8785157086614173
20
2.0206410236220473
11
1.8769685039370079
21
2.0069092913385824
0
LINE
8
BLACK
6
CONTINUOUS
10
1.8769685039370079
20
2.0069092913385824
11
1.8769685039370079
21
1.9930907086614174
0
CIRCLE
8
BLACK
10
0.305511811023622
20
0.4
40
0.0068897637795276
0
CIRCLE
8
BLACK
10
0.3331867716535433
20
0.4668132283464567
40
0.0068897637795276
0
CIRCLE
8
BLACK
10
0.3331867716535433
20
0.3331867716535433
40
0.0068897637795276
0
CIRCLE
8
BLACK
10
0.4
20
0.4944881889763779
40
0.0068897637795276
0
CIRCLE
8
BLACK
10
0.4
20
0.4
40
0.0068897637795276
0
CIRCLE
8
BLACK
10
0.4
20
0.305511811023622
40
0.0068897637795276
0
CIRCLE
8
BLACK
10
0.4668132283464567
20
0.4668132283464567
40
0.0068897637795276
0
CIRCLE
8
BLACK
10
0.4668132283464567
20
0.3331867716535433
40
0.0068897637795276
0
CIRCLE
8
BLACK
10
0.4944881889763779
20
0.4
40
0.0068897637795276
0
CIRCLE
8
BLACK
10
1.905511811023622
20
0.4
40
0.0068897637795276
0
CIRCLE
8
BLACK
10
1.9331867716535434
20
0.4668132283464567
40
0.0068897637795276
0
CIRCLE
8
BLACK
10
1.9331867716535434
20
0.3331867716535433
40
0.0068897637795276
0
CIRCLE
8
BLACK
10
2.
20
0.4944881889763779
40
0.0068897637795276
0
CIRCLE
8
BLACK
10
2.
20
0.4
40
0.0068897637795276
0
CIRCLE
8
BLACK
10
2.
20
0.305511811023622
40
0.0068897637795276
0
CIRCLE
8
BLACK
10
2.0668132283464566
20
0.4668132283464567
40
0.0068897637795276
0
CIRCLE
8
BLACK
10
2.0668132283464566
20
0.3331867716535433
40
0.0068897637795276
0
CIRCLE
8
BLACK
10
2.0944881889763778
20
0.4
40
0.0068897637795276
0
CIRCLE
8
BLACK
10
1.5523622047244094
20
0.4858267716535433
40
0.0068897637795276
0
CIRCLE
8
BLACK
10
1.6523622047244093
20
0.4858267716535433
40
0.0068897637795276
0
CIRCLE
8
BLACK
10
1.5523622047244094
20
0.3858267716535433
40
0.0068897637795276
0
CIRCLE
8
BLACK
10
1.6523622047244093
20
0.3858267716535433
40
0.0068897637795276
0
CIRCLE
8
BLACK
10
1.5523622047244094
20
0.2858267716535433
40
0.0068897637795276
0
CIRCLE
8
BLACK
10
1.6523622047244093
20
0.2858267716535433
40
0.0068897637795276
0
CIRCLE
8
BLACK
10
1.2297244094488189
20
2.0980314960629922
40
0.0068897637795276
0
CIRCLE
8
BLACK
10
1.2297244094488189
20
1.9980314960629921
40
0.0068897637795276
0
CIRCLE
8
BLACK
10
1.1297244094488188
20
2.0980314960629922
40
0.0068897637795276
0
CIRCLE
8
BLACK
10
1.1297244094488188
20
1.9980314960629921
40
0.0068897637795276
0
CIRCLE
8
BLACK
10
1.0297244094488189
20
2.0980314960629922
40
0.0068897637795276
0
CIRCLE
8
BLACK
10
1.0297244094488189
20
1.9980314960629921
40
0.0068897637795276
0
CIRCLE
8
BLACK
10
0.9297244094488188
20
2.0980314960629922
40
0.0068897637795276
0
CIRCLE
8
BLACK
10
0.9297244094488188
20
1.9980314960629921
40
0.0068897637795276
0
CIRCLE
8
BLACK
10
0.8297244094488189
20
2.0980314960629922
40
0.0068897637795276
0
CIRCLE
8
BLACK
10
0.8297244094488189
20
1.9980314960629921
40
0.0068897637795276
0
CIRCLE
8
BLACK
10
1.9669291338582677
20
1.7811023622047244
40
0.0068897637795276
0
CIRCLE
8
BLACK
10
2.0669291338582676
20
1.7811023622047244
40
0.0068897637795276
0
CIRCLE
8
BLACK
10
1.9669291338582677
20
1.6811023622047243
40
0.0068897637795276
0
CIRCLE
8
BLACK
10
2.0669291338582676
20
1.6811023622047243
40
0.0068897637795276
0
CIRCLE
8
BLACK
10
1.9669291338582677
20
1.5811023622047244
40
0.0068897637795276
0
CIRCLE
8
BLACK
10
2.0669291338582676
20
1.5811023622047244
40
0.0068897637795276
0
CIRCLE
8
BLACK
10
1.9669291338582677
20
1.4811023622047244
40
0.0068897637795276
0
CIRCLE
8
BLACK
10
2.0669291338582676
20
1.4811023622047244
40
0.0068897637795276
0
CIRCLE
8
BLACK
10
1.9669291338582677
20
1.3811023622047245
40
0.0068897637795276
0
CIRCLE
8
BLACK
10
2.0669291338582676
20
1.3811023622047245
40
0.0068897637795276
0
CIRCLE
8
BLACK
10
1.9669291338582677
20
1.2811023622047244
40
0.0068897637795276
0
CIRCLE
8
BLACK
10
2.0669291338582676
20
1.2811023622047244
40
0.0068897637795276
0
CIRCLE
8
BLACK
10
1.9669291338582677
20
1.1811023622047243
40
0.0068897637795276
0
CIRCLE
8
BLACK
10
2.0669291338582676
20
1.1811023622047243
40
0.0068897637795276
0
CIRCLE
8
BLACK
10
1.9669291338582677
20
1.0811023622047244
40
0.0068897637795276
0
CIRCLE
8
BLACK
10
2.0669291338582676
20
1.0811023622047244
40
0.0068897637795276
0
CIRCLE
8
BLACK
10
1.9669291338582677
20
0.9811023622047244
40
0.0068897637795276
0
CIRCLE
8
BLACK
10
2.0669291338582676
20
0.9811023622047244
40
0.0068897637795276
0
CIRCLE
8
BLACK
10
1.9669291338582677
20
0.8811023622047244
40
0.0068897637795276
0
CIRCLE
8
BLACK
10
2.0669291338582676
20
0.8811023622047244
40
0.0068897637795276
0
CIRCLE
8
BLACK
10
1.905511811023622
20
2.
40
0.0068897637795276
0
CIRCLE
8
BLACK
10
1.9331867716535434
20
2.0668132283464566
40
0.0068897637795276
0
CIRCLE
8
BLACK
10
1.9331867716535434
20
1.9331867716535434
40
0.0068897637795276
0
CIRCLE
8
BLACK
10
2.
20
2.0944881889763778
40
0.0068897637795276
0
CIRCLE
8
BLACK
10
2.
20
2.
40
0.0068897637795276
0
CIRCLE
8
BLACK
10
2.
20
1.905511811023622
40
0.0068897637795276
0
CIRCLE
8
BLACK
10
2.0668132283464566
20
2.0668132283464566
40
0.0068897637795276
0
CIRCLE
8
BLACK
10
2.0668132283464566
20
1.9331867716535434
40
0.0068897637795276
0
CIRCLE
8
BLACK
10
2.0944881889763778
20
2.
40
0.0068897637795276
0
CIRCLE
8
BLACK
10
1.0523622047244094
20
0.4818897637795275
40
0.0068897637795276
0
CIRCLE
8
BLACK
10
1.1523622047244095
20
0.4818897637795275
40
0.0068897637795276
0
CIRCLE
8
BLACK
10
1.0523622047244094
20
0.3818897637795275
40
0.0068897637795276
0
CIRCLE
8
BLACK
10
1.1523622047244095
20
0.3818897637795275
40
0.0068897637795276
0
CIRCLE
8
BLACK
10
1.0523622047244094
20
0.2818897637795276
40
0.0068897637795276
0
CIRCLE
8
BLACK
10
1.1523622047244095
20
0.2818897637795276
40
0.0068897637795276
0
CIRCLE
8
BLACK
10
0.4346456692913386
20
0.879527559055118
40
0.0068897637795276
0
CIRCLE
8
BLACK
10
0.3346456692913386
20
0.879527559055118
40
0.0068897637795276
0
CIRCLE
8
BLACK
10
0.4346456692913386
20
0.9795275590551181
40
0.0068897637795276
0
CIRCLE
8
BLACK
10
0.3346456692913386
20
0.9795275590551181
40
0.0068897637795276
0
CIRCLE
8
BLACK
10
0.4346456692913386
20
1.0795275590551181
40
0.0068897637795276
0
CIRCLE
8
BLACK
10
0.3346456692913386
20
1.0795275590551181
40
0.0068897637795276
0
CIRCLE
8
BLACK
10
0.4346456692913386
20
1.1795275590551182
40
0.0068897637795276
0
CIRCLE
8
BLACK
10
0.3346456692913386
20
1.1795275590551182
40
0.0068897637795276
0
CIRCLE
8
BLACK
10
0.4346456692913386
20
1.2795275590551181
40
0.0068897637795276
0
CIRCLE
8
BLACK
10
0.3346456692913386
20
1.2795275590551181
40
0.0068897637795276
0
CIRCLE
8
BLACK
10
0.4346456692913386
20
1.3795275590551181
40
0.0068897637795276
0
CIRCLE
8
BLACK
10
0.3346456692913386
20
1.3795275590551181
40
0.0068897637795276
0
CIRCLE
8
BLACK
10
0.4346456692913386
20
1.479527559055118
40
0.0068897637795276
0
CIRCLE
8
BLACK
10
0.3346456692913386
20
1.479527559055118
40
0.0068897637795276
0
CIRCLE
8
BLACK
10
0.4346456692913386
20
1.5795275590551181
40
0.0068897637795276
0
CIRCLE
8
BLACK
10
0.3346456692913386
20
1.5795275590551181
40
0.0068897637795276
0
CIRCLE
8
BLACK
10
0.4346456692913386
20
1.679527559055118
40
0.0068897637795276
0
CIRCLE
8
BLACK
10
0.3346456692913386
20
1.679527559055118
40
0.0068897637795276
0
CIRCLE
8
BLACK
10
0.4346456692913386
20
1.7795275590551181
40
0.0068897637795276
0
CIRCLE
8
BLACK
10
0.3346456692913386
20
1.7795275590551181
40
0.0068897637795276
0
CIRCLE
8
BLACK
10
1.5816929133858266
20
1.5383858267716535
40
0.0068897637795276
0
CIRCLE
8
BLACK
10
1.4816929133858268
20
1.5383858267716535
40
0.0068897637795276
0
CIRCLE
8
BLACK
10
0.305511811023622
20
2.
40
0.0068897637795276
0
CIRCLE
8
BLACK
10
0.3331867716535433
20
2.0668132283464566
40
0.0068897637795276
0
CIRCLE
8
BLACK
10
0.3331867716535433
20
1.9331867716535434
40
0.0068897637795276
0
CIRCLE
8
BLACK
10
0.4
20
2.0944881889763778
40
0.0068897637795276
0
CIRCLE
8
BLACK
10
0.4
20
2.
40
0.0068897637795276
0
CIRCLE
8
BLACK
10
0.4
20
1.905511811023622
40
0.0068897637795276
0
CIRCLE
8
BLACK
10
0.4668132283464567
20
2.0668132283464566
40
0.0068897637795276
0
CIRCLE
8
BLACK
10
0.4668132283464567
20
1.9331867716535434
40
0.0068897637795276
0
CIRCLE
8
BLACK
10
0.4944881889763779
20
2.
40
0.0068897637795276
0
CIRCLE
8
BLACK
10
0.6765748031496063
20
1.7838582677165353
40
0.0068897637795276
0
CIRCLE
8
BLACK
10
0.6765748031496063
20
1.8838582677165354
40
0.0068897637795276
0
CIRCLE
8
BLACK
10
0.7765748031496063
20
1.7838582677165353
40
0.0068897637795276
0
CIRCLE
8
BLACK
10
0.7765748031496063
20
1.8838582677165354
40
0.0068897637795276
0
CIRCLE
8
BLACK
10
0.8765748031496062
20
1.7838582677165353
40
0.0068897637795276
0
CIRCLE
8
BLACK
10
0.8765748031496062
20
1.8838582677165354
40
0.0068897637795276
0
CIRCLE
8
BLACK
10
0.9765748031496063
20
1.7838582677165353
40
0.0068897637795276
0
CIRCLE
8
BLACK
10
0.9765748031496063
20
1.8838582677165354
40
0.0068897637795276
0
CIRCLE
8
BLACK
10
1.0765748031496063
20
1.7838582677165353
40
0.0068897637795276
0
CIRCLE
8
BLACK
10
1.0765748031496063
20
1.8838582677165354
40
0.0068897637795276
0
CIRCLE
8
BLACK
10
1.1765748031496062
20
1.7838582677165353
40
0.0068897637795276
0
CIRCLE
8
BLACK
10
1.1765748031496062
20
1.8838582677165354
40
0.0068897637795276
0
CIRCLE
8
BLACK
10
1.2765748031496063
20
1.7838582677165353
40
0.0068897637795276
0
CIRCLE
8
BLACK
10
1.2765748031496063
20
1.8838582677165354
40
0.0068897637795276
0
CIRCLE
8
BLACK
10
1.3765748031496063
20
1.7838582677165353
40
0.0068897637795276
0
CIRCLE
8
BLACK
10
1.3765748031496063
20
1.8838582677165354
40
0.0068897637795276
0
CIRCLE
8
BLACK
10
1.4765748031496062
20
1.7838582677165353
40
0.0068897637795276
0
CIRCLE
8
BLACK
10
1.4765748031496062
20
1.8838582677165354
40
0.0068897637795276
0
CIRCLE
8
BLACK
10
1.5765748031496063
20
1.7838582677165353
40
0.0068897637795276
0
CIRCLE
8
BLACK
10
1.5765748031496063
20
1.8838582677165354
40
0.0068897637795276
0
CIRCLE
8
BLACK
10
1.6765748031496062
20
1.7838582677165353
40
0.0068897637795276
0
CIRCLE
8
BLACK
10
1.6765748031496062
20
1.8838582677165354
40
0.0068897637795276
0
CIRCLE
8
BLACK
10
1.7765748031496063
20
1.7838582677165353
40
0.0068897637795276
0
CIRCLE
8
BLACK
10
1.7765748031496063
20
1.8838582677165354
40
0.0068897637795276
0
CIRCLE
8
BLACK
10
0.8854330708661418
20
0.4454724409448819
40
0.0068897637795276
0
CIRCLE
8
BLACK
10
0.6578740157480315
20
0.4454724409448819
40
0.0068897637795276
0
LINE
8
BLACK
6
CONTINUOUS
10
0.9300223228346457
20
0.3178802362204725
11
0.9308203149606299
21
0.3208584645669291
0
LINE
8
BLACK
6
CONTINUOUS
10
0.9308203149606299
20
0.3208584645669291
11
0.9323619685039369
21
0.3235286614173228
0
LINE
8
BLACK
6
CONTINUOUS
10
0.9323619685039369
20
0.3235286614173228
11
0.9345422047244094
21
0.3257088976377953
0
LINE
8
BLACK
6
CONTINUOUS
10
0.9345422047244094
20
0.3257088976377953
11
0.9372124015748031
21
0.3272505511811024
0
LINE
8
BLACK
6
CONTINUOUS
10
0.9372124015748031
20
0.3272505511811024
11
0.9401906299212598
21
0.3280485433070866
0
LINE
8
BLACK
6
CONTINUOUS
10
0.9401906299212598
20
0.3280485433070866
11
0.943273937007874
21
0.3280485433070866
0
LINE
8
BLACK
6
CONTINUOUS
10
0.943273937007874
20
0.3280485433070866
11
0.9462521653543307
21
0.3272505511811024
0
LINE
8
BLACK
6
CONTINUOUS
10
0.9462521653543307
20
0.3272505511811024
11
0.9489223622047244
21
0.3257088976377953
0
LINE
8
BLACK
6
CONTINUOUS
10
0.9489223622047244
20
0.3257088976377953
11
0.9511025984251968
21
0.3235286614173228
0
LINE
8
BLACK
6
CONTINUOUS
10
0.9511025984251968
20
0.3235286614173228
11
0.9526442519685039
21
0.3208584645669291
0
LINE
8
BLACK
6
CONTINUOUS
10
0.9526442519685039
20
0.3208584645669291
11
0.9534422440944882
21
0.3178802362204725
0
LINE
8
BLACK
6
CONTINUOUS
10
0.9534422440944882
20
0.3178802362204725
11
0.9535433070866142
21
0.3163385826771654
0
LINE
8
BLACK
6
CONTINUOUS
10
0.9535433070866142
20
0.3163385826771654
11
0.9535433070866142
21
0.2848425196850394
0
LINE
8
BLACK
6
CONTINUOUS
10
0.9535433070866142
20
0.2848425196850394
11
0.9534422440944882
21
0.2833008661417323
0
LINE
8
BLACK
6
CONTINUOUS
10
0.9534422440944882
20
0.2833008661417323
11
0.9526442519685039
21
0.2803226377952756
0
LINE
8
BLACK
6
CONTINUOUS
10
0.9526442519685039
20
0.2803226377952756
11
0.9511025984251968
21
0.2776524409448819
0
LINE
8
BLACK
6
CONTINUOUS
10
0.9511025984251968
20
0.2776524409448819
11
0.9489223622047244
21
0.2754722047244094
0
LINE
8
BLACK
6
CONTINUOUS
10
0.9489223622047244
20
0.2754722047244094
11
0.9462521653543307
21
0.2739305511811024
0
LINE
8
BLACK
6
CONTINUOUS
10
0.9462521653543307
20
0.2739305511811024
11
0.943273937007874
21
0.2731325590551181
0
LINE
8
BLACK
6
CONTINUOUS
10
0.943273937007874
20
0.2731325590551181
11
0.9401906299212598
21
0.2731325590551181
0
LINE
8
BLACK
6
CONTINUOUS
10
0.9401906299212598
20
0.2731325590551181
11
0.9372124015748031
21
0.2739305511811024
0
LINE
8
BLACK
6
CONTINUOUS
10
0.9372124015748031
20
0.2739305511811024
11
0.9345422047244094
21
0.2754722047244094
0
LINE
8
BLACK
6
CONTINUOUS
10
0.9345422047244094
20
0.2754722047244094
11
0.9323619685039369
21
0.2776524409448819
0
LINE
8
BLACK
6
CONTINUOUS
10
0.9323619685039369
20
0.2776524409448819
11
0.9308203149606299
21
0.2803226377952756
0
LINE
8
BLACK
6
CONTINUOUS
10
0.9308203149606299
20
0.2803226377952756
11
0.9300223228346457
21
0.2833008661417323
0
LINE
8
BLACK
6
CONTINUOUS
10
0.9300223228346457
20
0.2833008661417323
11
0.9299212598425196
21
0.2848425196850394
0
LINE
8
BLACK
6
CONTINUOUS
10
0.9299212598425196
20
0.2848425196850394
11
0.9299212598425196
21
0.3163385826771654
0
LINE
8
BLACK
6
CONTINUOUS
10
0.9299212598425196
20
0.3163385826771654
11
0.9300223228346457
21
0.3178802362204725
0
LINE
8
BLACK
6
CONTINUOUS
10
0.5898648425196851
20
0.3178802362204725
11
0.5906628346456693
21
0.3208584645669291
0
LINE
8
BLACK
6
CONTINUOUS
10
0.5906628346456693
20
0.3208584645669291
11
0.5922044881889764
21
0.3235286614173228
0
LINE
8
BLACK
6
CONTINUOUS
10
0.5922044881889764
20
0.3235286614173228
11
0.5943847244094488
21
0.3257088976377953
0
LINE
8
BLACK
6
CONTINUOUS
10
0.5943847244094488
20
0.3257088976377953
11
0.5970549212598425
21
0.3272505511811024
0
LINE
8
BLACK
6
CONTINUOUS
10
0.5970549212598425
20
0.3272505511811024
11
0.6000331496062992
21
0.3280485433070866
0
LINE
8
BLACK
6
CONTINUOUS
10
0.6000331496062992
20
0.3280485433070866
11
0.6031164566929134
21
0.3280485433070866
0
LINE
8
BLACK
6
CONTINUOUS
10
0.6031164566929134
20
0.3280485433070866
11
0.60609468503937
21
0.3272505511811024
0
LINE
8
BLACK
6
CONTINUOUS
10
0.60609468503937
20
0.3272505511811024
11
0.6087648818897637
21
0.3257088976377953
0
LINE
8
BLACK
6
CONTINUOUS
10
0.6087648818897637
20
0.3257088976377953
11
0.6109451181102362
21
0.3235286614173228
0
LINE
8
BLACK
6
CONTINUOUS
10
0.6109451181102362
20
0.3235286614173228
11
0.6124867716535433
21
0.3208584645669291
0
LINE
8
BLACK
6
CONTINUOUS
10
0.6124867716535433
20
0.3208584645669291
11
0.6132847637795276
21
0.3178802362204725
0
LINE
8
BLACK
6
CONTINUOUS
10
0.6132847637795276
20
0.3178802362204725
11
0.6133858267716535
21
0.3163385826771654
0
LINE
8
BLACK
6
CONTINUOUS
10
0.6133858267716535
20
0.3163385826771654
11
0.6133858267716535
21
0.2848425196850394
0
LINE
8
BLACK
6
CONTINUOUS
10
0.6133858267716535
20
0.2848425196850394
11
0.6132847637795276
21
0.2833008661417323
0
LINE
8
BLACK
6
CONTINUOUS
10
0.6132847637795276
20
0.2833008661417323
11
0.6124867716535433
21
0.2803226377952756
0
LINE
8
BLACK
6
CONTINUOUS
10
0.6124867716535433
20
0.2803226377952756
11
0.6109451181102362
21
0.2776524409448819
0
LINE
8
BLACK
6
CONTINUOUS
10
0.6109451181102362
20
0.2776524409448819
11
0.6087648818897637
21
0.2754722047244094
0
LINE
8
BLACK
6
CONTINUOUS
10
0.6087648818897637
20
0.2754722047244094
11
0.60609468503937
21
0.2739305511811024
0
LINE
8
BLACK
6
CONTINUOUS
10
0.60609468503937
20
0.2739305511811024
11
0.6031164566929134
21
0.2731325590551181
0
LINE
8
BLACK
6
CONTINUOUS
10
0.6031164566929134
20
0.2731325590551181
11
0.6000331496062992
21
0.2731325590551181
0
LINE
8
BLACK
6
CONTINUOUS
10
0.6000331496062992
20
0.2731325590551181
11
0.5970549212598425
21
0.2739305511811024
0
LINE
8
BLACK
6
CONTINUOUS
10
0.5970549212598425
20
0.2739305511811024
11
0.5943847244094488
21
0.2754722047244094
0
LINE
8
BLACK
6
CONTINUOUS
10
0.5943847244094488
20
0.2754722047244094
11
0.5922044881889764
21
0.2776524409448819
0
LINE
8
BLACK
6
CONTINUOUS
10
0.5922044881889764
20
0.2776524409448819
11
0.5906628346456693
21
0.2803226377952756
0
LINE
8
BLACK
6
CONTINUOUS
10
0.5906628346456693
20
0.2803226377952756
11
0.5898648425196851
21
0.2833008661417323
0
LINE
8
BLACK
6
CONTINUOUS
10
0.5898648425196851
20
0.2833008661417323
11
0.5897637795275591
21
0.2848425196850394
0
LINE
8
BLACK
6
CONTINUOUS
10
0.5897637795275591
20
0.2848425196850394
11
0.5897637795275591
21
0.3163385826771654
0
LINE
8
BLACK
6
CONTINUOUS
10
0.5897637795275591
20
0.3163385826771654
11
0.5898648425196851
21
0.3178802362204725
0
LINE
8
BLACK
6
CONTINUOUS
10
0.9300223228346457
20
0.4883526771653543
11
0.9308203149606299
21
0.491330905511811
0
LINE
8
BLACK
6
CONTINUOUS
10
0.9308203149606299
20
0.491330905511811
11
0.9323619685039369
21
0.4940011023622047
0
LINE
8
BLACK
6
CONTINUOUS
10
0.9323619685039369
20
0.4940011023622047
11
0.9345422047244094
21
0.4961813385826772
0
LINE
8
BLACK
6
CONTINUOUS
10
0.9345422047244094
20
0.4961813385826772
11
0.9372124015748031
21
0.4977229921259843
0
LINE
8
BLACK
6
CONTINUOUS
10
0.9372124015748031
20
0.4977229921259843
11
0.9401906299212598
21
0.4985209842519685
0
LINE
8
BLACK
6
CONTINUOUS
10
0.9401906299212598
20
0.4985209842519685
11
0.943273937007874
21
0.4985209842519685
0
LINE
8
BLACK
6
CONTINUOUS
10
0.943273937007874
20
0.4985209842519685
11
0.9462521653543307
21
0.4977229921259843
0
LINE
8
BLACK
6
CONTINUOUS
10
0.9462521653543307
20
0.4977229921259843
11
0.9489223622047244
21
0.4961813385826772
0
LINE
8
BLACK
6
CONTINUOUS
10
0.9489223622047244
20
0.4961813385826772
11
0.9511025984251968
21
0.4940011023622047
0
LINE
8
BLACK
6
CONTINUOUS
10
0.9511025984251968
20
0.4940011023622047
11
0.9526442519685039
21
0.491330905511811
0
LINE
8
BLACK
6
CONTINUOUS
10
0.9526442519685039
20
0.491330905511811
11
0.9534422440944882
21
0.4883526771653543
0
LINE
8
BLACK
6
CONTINUOUS
10
0.9534422440944882
20
0.4883526771653543
11
0.9535433070866142
21
0.4868110236220473
0
LINE
8
BLACK
6
CONTINUOUS
10
0.9535433070866142
20
0.4868110236220473
11
0.9535433070866142
21
0.443503937007874
0
LINE
8
BLACK
6
CONTINUOUS
10
0.9535433070866142
20
0.443503937007874
11
0.9534422440944882
21
0.4419622834645669
0
LINE
8
BLACK
6
CONTINUOUS
10
0.9534422440944882
20
0.4419622834645669
11
0.9526442519685039
21
0.4389840551181102
0
LINE
8
BLACK
6
CONTINUOUS
10
0.9526442519685039
20
0.4389840551181102
11
0.9511025984251968
21
0.4363138582677165
0
LINE
8
BLACK
6
CONTINUOUS
10
0.9511025984251968
20
0.4363138582677165
11
0.9489223622047244
21
0.4341336220472441
0
LINE
8
BLACK
6
CONTINUOUS
10
0.9489223622047244
20
0.4341336220472441
11
0.9462521653543307
21
0.432591968503937
0
LINE
8
BLACK
6
CONTINUOUS
10
0.9462521653543307
20
0.432591968503937
11
0.943273937007874
21
0.4317939763779527
0
LINE
8
BLACK
6
CONTINUOUS
10
0.943273937007874
20
0.4317939763779527
11
0.9401906299212598
21
0.4317939763779527
0
LINE
8
BLACK
6
CONTINUOUS
10
0.9401906299212598
20
0.4317939763779527
11
0.9372124015748031
21
0.432591968503937
0
LINE
8
BLACK
6
CONTINUOUS
10
0.9372124015748031
20
0.432591968503937
11
0.9345422047244094
21
0.4341336220472441
0
LINE
8
BLACK
6
CONTINUOUS
10
0.9345422047244094
20
0.4341336220472441
11
0.9323619685039369
21
0.4363138582677165
0
LINE
8
BLACK
6
CONTINUOUS
10
0.9323619685039369
20
0.4363138582677165
11
0.9308203149606299
21
0.4389840551181102
0
LINE
8
BLACK
6
CONTINUOUS
10
0.9308203149606299
20
0.4389840551181102
11
0.9300223228346457
21
0.4419622834645669
0
LINE
8
BLACK
6
CONTINUOUS
10
0.9300223228346457
20
0.4419622834645669
11
0.9299212598425196
21
0.443503937007874
0
LINE
8
BLACK
6
CONTINUOUS
10
0.9299212598425196
20
0.443503937007874
11
0.9299212598425196
21
0.4868110236220473
0
LINE
8
BLACK
6
CONTINUOUS
10
0.9299212598425196
20
0.4868110236220473
11
0.9300223228346457
21
0.4883526771653543
0
LINE
8
BLACK
6
CONTINUOUS
10
0.5898648425196851
20
0.4883526771653543
11
0.5906628346456693
21
0.491330905511811
0
LINE
8
BLACK
6
CONTINUOUS
10
0.5906628346456693
20
0.491330905511811
11
0.5922044881889764
21
0.4940011023622047
0
LINE
8
BLACK
6
CONTINUOUS
10
0.5922044881889764
20
0.4940011023622047
11
0.5943847244094488
21
0.4961813385826772
0
LINE
8
BLACK
6
CONTINUOUS
10
0.5943847244094488
20
0.4961813385826772
11
0.5970549212598425
21
0.4977229921259843
0
LINE
8
BLACK
6
CONTINUOUS
10
0.5970549212598425
20
0.4977229921259843
11
0.6000331496062992
21
0.4985209842519685
0
LINE
8
BLACK
6
CONTINUOUS
10
0.6000331496062992
20
0.4985209842519685
11
0.6031164566929134
21
0.4985209842519685
0
LINE
8
BLACK
6
CONTINUOUS
10
0.6031164566929134
20
0.4985209842519685
11
0.60609468503937
21
0.4977229921259843
0
LINE
8
BLACK
6
CONTINUOUS
10
0.60609468503937
20
0.4977229921259843
11
0.6087648818897637
21
0.4961813385826772
0
LINE
8
BLACK
6
CONTINUOUS
10
0.6087648818897637
20
0.4961813385826772
11
0.6109451181102362
21
0.4940011023622047
0
LINE
8
BLACK
6
CONTINUOUS
10
0.6109451181102362
20
0.4940011023622047
11
0.6124867716535433
21
0.491330905511811
0
LINE
8
BLACK
6
CONTINUOUS
10
0.6124867716535433
20
0.491330905511811
11
0.6132847637795276
21
0.4883526771653543
0
LINE
8
BLACK
6
CONTINUOUS
10
0.6132847637795276
20
0.4883526771653543
11
0.6133858267716535
21
0.4868110236220473
0
LINE
8
BLACK
6
CONTINUOUS
10
0.6133858267716535
20
0.4868110236220473
11
0.6133858267716535
21
0.443503937007874
0
LINE
8
BLACK
6
CONTINUOUS
10
0.6133858267716535
20
0.443503937007874
11
0.6132847637795276
21
0.4419622834645669
0
LINE
8
BLACK
6
CONTINUOUS
10
0.6132847637795276
20
0.4419622834645669
11
0.6124867716535433
21
0.4389840551181102
0
LINE
8
BLACK
6
CONTINUOUS
10
0.6124867716535433
20
0.4389840551181102
11
0.6109451181102362
21
0.4363138582677165
0
LINE
8
BLACK
6
CONTINUOUS
10
0.6109451181102362
20
0.4363138582677165
11
0.6087648818897637
21
0.4341336220472441
0
LINE
8
BLACK
6
CONTINUOUS
10
0.6087648818897637
20
0.4341336220472441
11
0.60609468503937
21
0.432591968503937
0
LINE
8
BLACK
6
CONTINUOUS
10
0.60609468503937
20
0.432591968503937
11
0.6031164566929134
21
0.4317939763779527
0
LINE
8
BLACK
6
CONTINUOUS
10
0.6031164566929134
20
0.4317939763779527
11
0.6000331496062992
21
0.4317939763779527
0
LINE
8
BLACK
6
CONTINUOUS
10
0.6000331496062992
20
0.4317939763779527
11
0.5970549212598425
21
0.432591968503937
0
LINE
8
BLACK
6
CONTINUOUS
10
0.5970549212598425
20
0.432591968503937
11
0.5943847244094488
21
0.4341336220472441
0
LINE
8
BLACK
6
CONTINUOUS
10
0.5943847244094488
20
0.4341336220472441
11
0.5922044881889764
21
0.4363138582677165
0
LINE
8
BLACK
6
CONTINUOUS
10
0.5922044881889764
20
0.4363138582677165
11
0.5906628346456693
21
0.4389840551181102
0
LINE
8
BLACK
6
CONTINUOUS
10
0.5906628346456693
20
0.4389840551181102
11
0.5898648425196851
21
0.4419622834645669
0
LINE
8
BLACK
6
CONTINUOUS
10
0.5898648425196851
20
0.4419622834645669
11
0.5897637795275591
21
0.443503937007874
0
LINE
8
BLACK
6
CONTINUOUS
10
0.5897637795275591
20
0.443503937007874
11
0.5897637795275591
21
0.4868110236220473
0
LINE
8
BLACK
6
CONTINUOUS
10
0.5897637795275591
20
0.4868110236220473
11
0.5898648425196851
21
0.4883526771653543
0
LINE
8
BLACK
6
CONTINUOUS
10
1.4899773622047243
20
0.6400348031496063
11
1.488546968503937
21
0.6328437007874016
0
LINE
8
BLACK
6
CONTINUOUS
10
1.488546968503937
20
0.6328437007874016
11
1.4857411417322834
21
0.6260698031496063
0
LINE
8
BLACK
6
CONTINUOUS
10
1.4857411417322834
20
0.6260698031496063
11
1.4816677165354331
21
0.6199734645669291
0
LINE
8
BLACK
6
CONTINUOUS
10
1.4816677165354331
20
0.6199734645669291
11
1.4764832283464566
21
0.6147889763779527
0
LINE
8
BLACK
6
CONTINUOUS
10
1.4764832283464566
20
0.6147889763779527
11
1.4703868897637795
21
0.6107155511811023
0
LINE
8
BLACK
6
CONTINUOUS
10
1.4703868897637795
20
0.6107155511811023
11
1.4636129921259842
21
0.6079097244094488
0
LINE
8
BLACK
6
CONTINUOUS
10
1.4636129921259842
20
0.6079097244094488
11
1.4564218897637795
21
0.6064793307086614
0
LINE
8
BLACK
6
CONTINUOUS
10
1.4564218897637795
20
0.6064793307086614
11
1.4490899212598425
21
0.6064793307086614
0
LINE
8
BLACK
6
CONTINUOUS
10
1.4490899212598425
20
0.6064793307086614
11
1.4418988188976378
21
0.6079097244094488
0
LINE
8
BLACK
6
CONTINUOUS
10
1.4418988188976378
20
0.6079097244094488
11
1.4351249212598425
21
0.6107155511811023
0
LINE
8
BLACK
6
CONTINUOUS
10
1.4351249212598425
20
0.6107155511811023
11
1.4290285826771654
21
0.6147889763779527
0
LINE
8
BLACK
6
CONTINUOUS
10
1.4290285826771654
20
0.6147889763779527
11
1.4238440944881889
21
0.6199734645669291
0
LINE
8
BLACK
6
CONTINUOUS
10
1.4238440944881889
20
0.6199734645669291
11
1.4197706692913385
21
0.6260698031496063
0
LINE
8
BLACK
6
CONTINUOUS
10
1.4197706692913385
20
0.6260698031496063
11
1.416964842519685
21
0.6328437007874016
0
LINE
8
BLACK
6
CONTINUOUS
10
1.416964842519685
20
0.6328437007874016
11
1.4155344488188977
21
0.6400348031496063
0
LINE
8
BLACK
6
CONTINUOUS
10
1.4155344488188977
20
0.6400348031496063
11
1.4153543307086613
21
0.6437007874015748
0
LINE
8
BLACK
6
CONTINUOUS
10
1.4153543307086613
20
0.6437007874015748
11
1.4153543307086613
21
0.6633858267716535
0
LINE
8
BLACK
6
CONTINUOUS
10
1.4153543307086613
20
0.6633858267716535
11
1.4155344488188977
21
0.667051811023622
0
LINE
8
BLACK
6
CONTINUOUS
10
1.4155344488188977
20
0.667051811023622
11
1.416964842519685
21
0.6742429133858268
0
LINE
8
BLACK
6
CONTINUOUS
10
1.416964842519685
20
0.6742429133858268
11
1.4197706692913385
21
0.681016811023622
0
LINE
8
BLACK
6
CONTINUOUS
10
1.4197706692913385
20
0.681016811023622
11
1.4238440944881889
21
0.6871131496062992
0
LINE
8
BLACK
6
CONTINUOUS
10
1.4238440944881889
20
0.6871131496062992
11
1.4290285826771654
21
0.6922976377952755
0
LINE
8
BLACK
6
CONTINUOUS
10
1.4290285826771654
20
0.6922976377952755
11
1.4351249212598425
21
0.6963710629921259
0
LINE
8
BLACK
6
CONTINUOUS
10
1.4351249212598425
20
0.6963710629921259
11
1.4418988188976378
21
0.6991768897637796
0
LINE
8
BLACK
6
CONTINUOUS
10
1.4418988188976378
20
0.6991768897637796
11
1.4490899212598425
21
0.7006072834645669
0
LINE
8
BLACK
6
CONTINUOUS
10
1.4490899212598425
20
0.7006072834645669
11
1.4564218897637795
21
0.7006072834645669
0
LINE
8
BLACK
6
CONTINUOUS
10
1.4564218897637795
20
0.7006072834645669
11
1.4636129921259842
21
0.6991768897637796
0
LINE
8
BLACK
6
CONTINUOUS
10
1.4636129921259842
20
0.6991768897637796
11
1.4703868897637795
21
0.6963710629921259
0
LINE
8
BLACK
6
CONTINUOUS
10
1.4703868897637795
20
0.6963710629921259
11
1.4764832283464566
21
0.6922976377952755
0
LINE
8
BLACK
6
CONTINUOUS
10
1.4764832283464566
20
0.6922976377952755
11
1.4816677165354331
21
0.6871131496062992
0
LINE
8
BLACK
6
CONTINUOUS
10
1.4816677165354331
20
0.6871131496062992
11
1.4857411417322834
21
0.681016811023622
0
LINE
8
BLACK
6
CONTINUOUS
10
1.4857411417322834
20
0.681016811023622
11
1.488546968503937
21
0.6742429133858268
0
LINE
8
BLACK
6
CONTINUOUS
10
1.488546968503937
20
0.6742429133858268
11
1.4899773622047243
21
0.667051811023622
0
LINE
8
BLACK
6
CONTINUOUS
10
1.4899773622047243
20
0.667051811023622
11
1.4901574803149606
21
0.6633858267716535
0
LINE
8
BLACK
6
CONTINUOUS
10
1.4901574803149606
20
0.6633858267716535
11
1.4901574803149606
21
0.6437007874015748
0
LINE
8
BLACK
6
CONTINUOUS
10
1.4901574803149606
20
0.6437007874015748
11
1.4899773622047243
21
0.6400348031496063
0
LINE
8
BLACK
6
CONTINUOUS
10
1.6202588582677164
20
0.667051811023622
11
1.621689251968504
21
0.6742429133858268
0
LINE
8
BLACK
6
CONTINUOUS
10
1.621689251968504
20
0.6742429133858268
11
1.6244950787401575
21
0.681016811023622
0
LINE
8
BLACK
6
CONTINUOUS
10
1.6244950787401575
20
0.681016811023622
11
1.6285685039370079
21
0.6871131496062992
0
LINE
8
BLACK
6
CONTINUOUS
10
1.6285685039370079
20
0.6871131496062992
11
1.6337529921259841
21
0.6922976377952755
0
LINE
8
BLACK
6
CONTINUOUS
10
1.6337529921259841
20
0.6922976377952755
11
1.6398493307086615
21
0.6963710629921259
0
LINE
8
BLACK
6
CONTINUOUS
10
1.6398493307086615
20
0.6963710629921259
11
1.6466232283464566
21
0.6991768897637796
0
LINE
8
BLACK
6
CONTINUOUS
10
1.6466232283464566
20
0.6991768897637796
11
1.6538143307086615
21
0.7006072834645669
0
LINE
8
BLACK
6
CONTINUOUS
10
1.6538143307086615
20
0.7006072834645669
11
1.6611462992125985
21
0.7006072834645669
0
LINE
8
BLACK
6
CONTINUOUS
10
1.6611462992125985
20
0.7006072834645669
11
1.6683374015748031
21
0.6991768897637796
0
LINE
8
BLACK
6
CONTINUOUS
10
1.6683374015748031
20
0.6991768897637796
11
1.6751112992125985
21
0.6963710629921259
0
LINE
8
BLACK
6
CONTINUOUS
10
1.6751112992125985
20
0.6963710629921259
11
1.6812076377952756
21
0.6922976377952755
0
LINE
8
BLACK
6
CONTINUOUS
10
1.6812076377952756
20
0.6922976377952755
11
1.686392125984252
21
0.6871131496062992
0
LINE
8
BLACK
6
CONTINUOUS
10
1.686392125984252
20
0.6871131496062992
11
1.6904655511811024
21
0.681016811023622
0
LINE
8
BLACK
6
CONTINUOUS
10
1.6904655511811024
20
0.681016811023622
11
1.693271377952756
21
0.6742429133858268
0
LINE
8
BLACK
6
CONTINUOUS
10
1.693271377952756
20
0.6742429133858268
11
1.6947017716535433
21
0.667051811023622
0
LINE
8
BLACK
6
CONTINUOUS
10
1.6947017716535433
20
0.667051811023622
11
1.6948818897637794
21
0.6633858267716535
0
LINE
8
BLACK
6
CONTINUOUS
10
1.6948818897637794
20
0.6633858267716535
11
1.6948818897637794
21
0.6437007874015748
0
LINE
8
BLACK
6
CONTINUOUS
10
1.6948818897637794
20
0.6437007874015748
11
1.6947017716535433
21
0.6400348031496063
0
LINE
8
BLACK
6
CONTINUOUS
10
1.6947017716535433
20
0.6400348031496063
11
1.693271377952756
21
0.6328437007874016
0
LINE
8
BLACK
6
CONTINUOUS
10
1.693271377952756
20
0.6328437007874016
11
1.6904655511811024
21
0.6260698031496063
0
LINE
8
BLACK
6
CONTINUOUS
10
1.6904655511811024
20
0.6260698031496063
11
1.686392125984252
21
0.6199734645669291
0
LINE
8
BLACK
6
CONTINUOUS
10
1.686392125984252
20
0.6199734645669291
11
1.6812076377952756
21
0.6147889763779527
0
LINE
8
BLACK
6
CONTINUOUS
10
1.6812076377952756
20
0.6147889763779527
11
1.6751112992125985
21
0.6107155511811023
0
LINE
8
BLACK
6
CONTINUOUS
10
1.6751112992125985
20
0.6107155511811023
11
1.6683374015748031
21
0.6079097244094488
0
LINE
8
BLACK
6
CONTINUOUS
10
1.6683374015748031
20
0.6079097244094488
11
1.6611462992125985
21
0.6064793307086614
0
LINE
8
BLACK
6
CONTINUOUS
10
1.6611462992125985
20
0.6064793307086614
11
1.6538143307086615
21
0.6064793307086614
0
LINE
8
BLACK
6
CONTINUOUS
10
1.6538143307086615
20
0.6064793307086614
11
1.6466232283464566
21
0.6079097244094488
0
LINE
8
BLACK
6
CONTINUOUS
10
1.6466232283464566
20
0.6079097244094488
11
1.6398493307086615
21
0.6107155511811023
0
LINE
8
BLACK
6
CONTINUOUS
10
1.6398493307086615
20
0.6107155511811023
11
1.6337529921259841
21
0.6147889763779527
0
LINE
8
BLACK
6
CONTINUOUS
10
1.6337529921259841
20
0.6147889763779527
11
1.6285685039370079
21
0.6199734645669291
0
LINE
8
BLACK
6
CONTINUOUS
10
1.6285685039370079
20
0.6199734645669291
11
1.6244950787401575
21
0.6260698031496063
0
LINE
8
BLACK
6
CONTINUOUS
10
1.6244950787401575
20
0.6260698031496063
11
1.621689251968504
21
0.6328437007874016
0
LINE
8
BLACK
6
CONTINUOUS
10
1.621689251968504
20
0.6328437007874016
11
1.6202588582677164
21
0.6400348031496063
0
LINE
8
BLACK
6
CONTINUOUS
10
1.6202588582677164
20
0.6400348031496063
11
1.6200787401574803
21
0.6437007874015748
0
LINE
8
BLACK
6
CONTINUOUS
10
1.6200787401574803
20
0.6437007874015748
11
1.6200787401574803
21
0.6633858267716535
0
LINE
8
BLACK
6
CONTINUOUS
10
1.6200787401574803
20
0.6633858267716535
11
1.6202588582677164
21
0.667051811023622
0
CIRCLE
8
BLACK
10
0.305511811023622
20
0.4
40
0.0068897637795276
0
CIRCLE
8
BLACK
10
0.3331867716535433
20
0.4668132283464567
40
0.0068897637795276
0
CIRCLE
8
BLACK
10
0.3331867716535433
20
0.3331867716535433
40
0.0068897637795276
0
CIRCLE
8
BLACK
10
0.4
20
0.4944881889763779
40
0.0068897637795276
0
CIRCLE
8
BLACK
10
0.4
20
0.4
40
0.0068897637795276
0
CIRCLE
8
BLACK
10
0.4
20
0.305511811023622
40
0.0068897637795276
0
CIRCLE
8
BLACK
10
0.4668132283464567
20
0.4668132283464567
40
0.0068897637795276
0
CIRCLE
8
BLACK
10
0.4668132283464567
20
0.3331867716535433
40
0.0068897637795276
0
CIRCLE
8
BLACK
10
0.4944881889763779
20
0.4
40
0.0068897637795276
0
CIRCLE
8
BLACK
10
1.905511811023622
20
0.4
40
0.0068897637795276
0
CIRCLE
8
BLACK
10
1.9331867716535434
20
0.4668132283464567
40
0.0068897637795276
0
CIRCLE
8
BLACK
10
1.9331867716535434
20
0.3331867716535433
40
0.0068897637795276
0
CIRCLE
8
BLACK
10
2.
20
0.4944881889763779
40
0.0068897637795276
0
CIRCLE
8
BLACK
10
2.
20
0.4
40
0.0068897637795276
0
CIRCLE
8
BLACK
10
2.
20
0.305511811023622
40
0.0068897637795276
0
CIRCLE
8
BLACK
10
2.0668132283464566
20
0.4668132283464567
40
0.0068897637795276
0
CIRCLE
8
BLACK
10
2.0668132283464566
20
0.3331867716535433
40
0.0068897637795276
0
CIRCLE
8
BLACK
10
2.0944881889763778
20
0.4
40
0.0068897637795276
0
CIRCLE
8
BLACK
10
1.5523622047244094
20
0.4858267716535433
40
0.0068897637795276
0
CIRCLE
8
BLACK
10
1.6523622047244093
20
0.4858267716535433
40
0.0068897637795276
0
CIRCLE
8
BLACK
10
1.5523622047244094
20
0.3858267716535433
40
0.0068897637795276
0
CIRCLE
8
BLACK
10
1.6523622047244093
20
0.3858267716535433
40
0.0068897637795276
0
CIRCLE
8
BLACK
10
1.5523622047244094
20
0.2858267716535433
40
0.0068897637795276
0
CIRCLE
8
BLACK
10
1.6523622047244093
20
0.2858267716535433
40
0.0068897637795276
0
CIRCLE
8
BLACK
10
1.2297244094488189
20
2.0980314960629922
40
0.0068897637795276
0
CIRCLE
8
BLACK
10
1.2297244094488189
20
1.9980314960629921
40
0.0068897637795276
0
CIRCLE
8
BLACK
10
1.1297244094488188
20
2.0980314960629922
40
0.0068897637795276
0
CIRCLE
8
BLACK
10
1.1297244094488188
20
1.9980314960629921
40
0.0068897637795276
0
CIRCLE
8
BLACK
10
1.0297244094488189
20
2.0980314960629922
40
0.0068897637795276
0
CIRCLE
8
BLACK
10
1.0297244094488189
20
1.9980314960629921
40
0.0068897637795276
0
CIRCLE
8
BLACK
10
0.9297244094488188
20
2.0980314960629922
40
0.0068897637795276
0
CIRCLE
8
BLACK
10
0.9297244094488188
20
1.9980314960629921
40
0.0068897637795276
0
CIRCLE
8
BLACK
10
0.8297244094488189
20
2.0980314960629922
40
0.0068897637795276
0
CIRCLE
8
BLACK
10
0.8297244094488189
20
1.9980314960629921
40
0.0068897637795276
0
CIRCLE
8
BLACK
10
1.9669291338582677
20
1.7811023622047244
40
0.0068897637795276
0
CIRCLE
8
BLACK
10
2.0669291338582676
20
1.7811023622047244
40
0.0068897637795276
0
CIRCLE
8
BLACK
10
1.9669291338582677
20
1.6811023622047243
40
0.0068897637795276
0
CIRCLE
8
BLACK
10
2.0669291338582676
20
1.6811023622047243
40
0.0068897637795276
0
CIRCLE
8
BLACK
10
1.9669291338582677
20
1.5811023622047244
40
0.0068897637795276
0
CIRCLE
8
BLACK
10
2.0669291338582676
20
1.5811023622047244
40
0.0068897637795276
0
CIRCLE
8
BLACK
10
1.9669291338582677
20
1.4811023622047244
40
0.0068897637795276
0
CIRCLE
8
BLACK
10
2.0669291338582676
20
1.4811023622047244
40
0.0068897637795276
0
CIRCLE
8
BLACK
10
1.9669291338582677
20
1.3811023622047245
40
0.0068897637795276
0
CIRCLE
8
BLACK
10
2.0669291338582676
20
1.3811023622047245
40
0.0068897637795276
0
CIRCLE
8
BLACK
10
1.9669291338582677
20
1.2811023622047244
40
0.0068897637795276
0
CIRCLE
8
BLACK
10
2.0669291338582676
20
1.2811023622047244
40
0.0068897637795276
0
CIRCLE
8
BLACK
10
1.9669291338582677
20
1.1811023622047243
40
0.0068897637795276
0
CIRCLE
8
BLACK
10
2.0669291338582676
20
1.1811023622047243
40
0.0068897637795276
0
CIRCLE
8
BLACK
10
1.9669291338582677
20
1.0811023622047244
40
0.0068897637795276
0
CIRCLE
8
BLACK
10
2.0669291338582676
20
1.0811023622047244
40
0.0068897637795276
0
CIRCLE
8
BLACK
10
1.9669291338582677
20
0.9811023622047244
40
0.0068897637795276
0
CIRCLE
8
BLACK
10
2.0669291338582676
20
0.9811023622047244
40
0.0068897637795276
0
CIRCLE
8
BLACK
10
1.9669291338582677
20
0.8811023622047244
40
0.0068897637795276
0
CIRCLE
8
BLACK
10
2.0669291338582676
20
0.8811023622047244
40
0.0068897637795276
0
CIRCLE
8
BLACK
10
1.905511811023622
20
2.
40
0.0068897637795276
0
CIRCLE
8
BLACK
10
1.9331867716535434
20
2.0668132283464566
40
0.0068897637795276
0
CIRCLE
8
BLACK
10
1.9331867716535434
20
1.9331867716535434
40
0.0068897637795276
0
CIRCLE
8
BLACK
10
2.
20
2.0944881889763778
40
0.0068897637795276
0
CIRCLE
8
BLACK
10
2.
20
2.
40
0.0068897637795276
0
CIRCLE
8
BLACK
10
2.
20
1.905511811023622
40
0.0068897637795276
0
CIRCLE
8
BLACK
10
2.0668132283464566
20
2.0668132283464566
40
0.0068897637795276
0
CIRCLE
8
BLACK
10
2.0668132283464566
20
1.9331867716535434
40
0.0068897637795276
0
CIRCLE
8
BLACK
10
2.0944881889763778
20
2.
40
0.0068897637795276
0
CIRCLE
8
BLACK
10
1.0523622047244094
20
0.4818897637795275
40
0.0068897637795276
0
CIRCLE
8
BLACK
10
1.1523622047244095
20
0.4818897637795275
40
0.0068897637795276
0
CIRCLE
8
BLACK
10
1.0523622047244094
20
0.3818897637795275
40
0.0068897637795276
0
CIRCLE
8
BLACK
10
1.1523622047244095
20
0.3818897637795275
40
0.0068897637795276
0
CIRCLE
8
BLACK
10
1.0523622047244094
20
0.2818897637795276
40
0.0068897637795276
0
CIRCLE
8
BLACK
10
1.1523622047244095
20
0.2818897637795276
40
0.0068897637795276
0
CIRCLE
8
BLACK
10
0.4346456692913386
20
0.879527559055118
40
0.0068897637795276
0
CIRCLE
8
BLACK
10
0.3346456692913386
20
0.879527559055118
40
0.0068897637795276
0
CIRCLE
8
BLACK
10
0.4346456692913386
20
0.9795275590551181
40
0.0068897637795276
0
CIRCLE
8
BLACK
10
0.3346456692913386
20
0.9795275590551181
40
0.0068897637795276
0
CIRCLE
8
BLACK
10
0.4346456692913386
20
1.0795275590551181
40
0.0068897637795276
0
CIRCLE
8
BLACK
10
0.3346456692913386
20
1.0795275590551181
40
0.0068897637795276
0
CIRCLE
8
BLACK
10
0.4346456692913386
20
1.1795275590551182
40
0.0068897637795276
0
CIRCLE
8
BLACK
10
0.3346456692913386
20
1.1795275590551182
40
0.0068897637795276
0
CIRCLE
8
BLACK
10
0.4346456692913386
20
1.2795275590551181
40
0.0068897637795276
0
CIRCLE
8
BLACK
10
0.3346456692913386
20
1.2795275590551181
40
0.0068897637795276
0
CIRCLE
8
BLACK
10
0.4346456692913386
20
1.3795275590551181
40
0.0068897637795276
0
CIRCLE
8
BLACK
10
0.3346456692913386
20
1.3795275590551181
40
0.0068897637795276
0
CIRCLE
8
BLACK
10
0.4346456692913386
20
1.479527559055118
40
0.0068897637795276
0
CIRCLE
8
BLACK
10
0.3346456692913386
20
1.479527559055118
40
0.0068897637795276
0
CIRCLE
8
BLACK
10
0.4346456692913386
20
1.5795275590551181
40
0.0068897637795276
0
CIRCLE
8
BLACK
10
0.3346456692913386
20
1.5795275590551181
40
0.0068897637795276
0
CIRCLE
8
BLACK
10
0.4346456692913386
20
1.679527559055118
40
0.0068897637795276
0
CIRCLE
8
BLACK
10
0.3346456692913386
20
1.679527559055118
40
0.0068897637795276
0
CIRCLE
8
BLACK
10
0.4346456692913386
20
1.7795275590551181
40
0.0068897637795276
0
CIRCLE
8
BLACK
10
0.3346456692913386
20
1.7795275590551181
40
0.0068897637795276
0
CIRCLE
8
BLACK
10
1.5816929133858266
20
1.5383858267716535
40
0.0068897637795276
0
CIRCLE
8
BLACK
10
1.4816929133858268
20
1.5383858267716535
40
0.0068897637795276
0
CIRCLE
8
BLACK
10
0.305511811023622
20
2.
40
0.0068897637795276
0
CIRCLE
8
BLACK
10
0.3331867716535433
20
2.0668132283464566
40
0.0068897637795276
0
CIRCLE
8
BLACK
10
0.3331867716535433
20
1.9331867716535434
40
0.0068897637795276
0
CIRCLE
8
BLACK
10
0.4
20
2.0944881889763778
40
0.0068897637795276
0
CIRCLE
8
BLACK
10
0.4
20
2.
40
0.0068897637795276
0
CIRCLE
8
BLACK
10
0.4
20
1.905511811023622
40
0.0068897637795276
0
CIRCLE
8
BLACK
10
0.4668132283464567
20
2.0668132283464566
40
0.0068897637795276
0
CIRCLE
8
BLACK
10
0.4668132283464567
20
1.9331867716535434
40
0.0068897637795276
0
CIRCLE
8
BLACK
10
0.4944881889763779
20
2.
40
0.0068897637795276
0
CIRCLE
8
BLACK
10
0.6765748031496063
20
1.7838582677165353
40
0.0068897637795276
0
CIRCLE
8
BLACK
10
0.6765748031496063
20
1.8838582677165354
40
0.0068897637795276
0
CIRCLE
8
BLACK
10
0.7765748031496063
20
1.7838582677165353
40
0.0068897637795276
0
CIRCLE
8
BLACK
10
0.7765748031496063
20
1.8838582677165354
40
0.0068897637795276
0
CIRCLE
8
BLACK
10
0.8765748031496062
20
1.7838582677165353
40
0.0068897637795276
0
CIRCLE
8
BLACK
10
0.8765748031496062
20
1.8838582677165354
40
0.0068897637795276
0
CIRCLE
8
BLACK
10
0.9765748031496063
20
1.7838582677165353
40
0.0068897637795276
0
CIRCLE
8
BLACK
10
0.9765748031496063
20
1.8838582677165354
40
0.0068897637795276
0
CIRCLE
8
BLACK
10
1.0765748031496063
20
1.7838582677165353
40
0.0068897637795276
0
CIRCLE
8
BLACK
10
1.0765748031496063
20
1.8838582677165354
40
0.0068897637795276
0
CIRCLE
8
BLACK
10
1.1765748031496062
20
1.7838582677165353
40
0.0068897637795276
0
CIRCLE
8
BLACK
10
1.1765748031496062
20
1.8838582677165354
40
0.0068897637795276
0
CIRCLE
8
BLACK
10
1.2765748031496063
20
1.7838582677165353
40
0.0068897637795276
0
CIRCLE
8
BLACK
10
1.2765748031496063
20
1.8838582677165354
40
0.0068897637795276
0
CIRCLE
8
BLACK
10
1.3765748031496063
20
1.7838582677165353
40
0.0068897637795276
0
CIRCLE
8
BLACK
10
1.3765748031496063
20
1.8838582677165354
40
0.0068897637795276
0
CIRCLE
8
BLACK
10
1.4765748031496062
20
1.7838582677165353
40
0.0068897637795276
0
CIRCLE
8
BLACK
10
1.4765748031496062
20
1.8838582677165354
40
0.0068897637795276
0
CIRCLE
8
BLACK
10
1.5765748031496063
20
1.7838582677165353
40
0.0068897637795276
0
CIRCLE
8
BLACK
10
1.5765748031496063
20
1.8838582677165354
40
0.0068897637795276
0
CIRCLE
8
BLACK
10
1.6765748031496062
20
1.7838582677165353
40
0.0068897637795276
0
CIRCLE
8
BLACK
10
1.6765748031496062
20
1.8838582677165354
40
0.0068897637795276
0
CIRCLE
8
BLACK
10
1.7765748031496063
20
1.7838582677165353
40
0.0068897637795276
0
CIRCLE
8
BLACK
10
1.7765748031496063
20
1.8838582677165354
40
0.0068897637795276
0
CIRCLE
8
BLACK
10
0.8854330708661418
20
0.4454724409448819
40
0.0068897637795276
0
CIRCLE
8
BLACK
10
0.6578740157480315
20
0.4454724409448819
40
0.0068897637795276
0
LINE
8
BLACK
6
CONTINUOUS
10
0.9535433070866142
20
0.2848425196850394
11
0.9535433070866142
21
0.3163385826771654
0
ARC
8
BLACK
10
0.9417322834645669
20
0.3163385826771654
40
0.0118110236220472
50
0.00000000
51
180.00000000
0
LINE
8
BLACK
6
CONTINUOUS
10
0.9299212598425196
20
0.3163385826771654
11
0.9299212598425196
21
0.2848425196850394
0
ARC
8
BLACK
10
0.9417322834645669
20
0.2848425196850394
40
0.0118110236220472
50
180.00000000
51
360.00000000
0
LINE
8
BLACK
6
CONTINUOUS
10
0.6133858267716535
20
0.2848425196850394
11
0.6133858267716535
21
0.3163385826771654
0
ARC
8
BLACK
10
0.6015748031496063
20
0.3163385826771654
40
0.0118110236220472
50
0.00000000
51
180.00000000
0
LINE
8
BLACK
6
CONTINUOUS
10
0.5897637795275591
20
0.3163385826771654
11
0.5897637795275591
21
0.2848425196850394
0
ARC
8
BLACK
10
0.6015748031496063
20
0.2848425196850394
40
0.0118110236220472
50
180.00000000
51
360.00000000
0
LINE
8
BLACK
6
CONTINUOUS
10
0.9535433070866142
20
0.443503937007874
11
0.9535433070866142
21
0.4868110236220473
0
ARC
8
BLACK
10
0.9417322834645669
20
0.4868110236220473
40
0.0118110236220472
50
0.00000000
51
180.00000000
0
LINE
8
BLACK
6
CONTINUOUS
10
0.9299212598425196
20
0.4868110236220473
11
0.9299212598425196
21
0.443503937007874
0
ARC
8
BLACK
10
0.9417322834645669
20
0.443503937007874
40
0.0118110236220472
50
180.00000000
51
360.00000000
0
LINE
8
BLACK
6
CONTINUOUS
10
0.6133858267716535
20
0.443503937007874
11
0.6133858267716535
21
0.4868110236220473
0
ARC
8
BLACK
10
0.6015748031496063
20
0.4868110236220473
40
0.0118110236220472
50
0.00000000
51
180.00000000
0
LINE
8
BLACK
6
CONTINUOUS
10
0.5897637795275591
20
0.4868110236220473
11
0.5897637795275591
21
0.443503937007874
0
ARC
8
BLACK
10
0.6015748031496063
20
0.443503937007874
40
0.0118110236220472
50
180.00000000
51
360.00000000
0
LINE
8
BLACK
6
CONTINUOUS
10
1.4153543700787401
20
0.6633858267716535
11
1.4153543700787401
21
0.6437007874015748
0
ARC
8
BLACK
10
1.4527559055118109
20
0.6437007874015748
40
0.0374015354330709
50
-180.00000000
51
0.00000000
0
LINE
8
BLACK
6
CONTINUOUS
10
1.4901574409448819
20
0.6437007874015748
11
1.4901574409448819
21
0.6633858267716535
0
ARC
8
BLACK
10
1.4527559055118109
20
0.6633858267716535
40
0.0374015354330709
50
0.00000000
51
180.00000000
0
LINE
8
BLACK
6
CONTINUOUS
10
1.6948818503937007
20
0.6437007874015748
11
1.6948818503937007
21
0.6633858267716535
0
ARC
8
BLACK
10
1.6574803149606299
20
0.6633858267716535
40
0.0374015354330709
50
0.00000000
51
180.00000000
0
LINE
8
BLACK
6
CONTINUOUS
10
1.6200787795275591
20
0.6633858267716535
11
1.6200787795275591
21
0.6437007874015748
0
ARC
8
BLACK
10
1.6574803149606299
20
0.6437007874015748
40
0.0374015354330709
50
180.00000000
51
360.00000000
  0
ENDSEC
  0
EOF
