  0
SECTION
  2
HEADER
  9
$ANGBASE
  50
0.0
  9
$ANGDIR
  70
1
  9
$MEASUREMENT
  70
0
  0
ENDSEC
  0
SECTION
  2
TABLES
  0
TABLE
  2
LTYPE
  70
4
  0
LTYPE
  5
40F
  2
CONTINUOUS
  70
0
  3
Solid line
  72
65
  73
0
  40
0.0
  0
LTYPE
  5
410
  2
DASHDOT
 70
0
  3
Dash Dot ____ _ ____ _
 72
65
 73
4
 40
2.0
 49
1.25
 49
-0.25
 49
0.25
 49
-0.25
  0
LTYPE
  5
411
  2
DASHED
 70
0
  3
Dashed __ __ __ __ __
 72
65
 73
2
 40
0.75
 49
0.5
 49
-0.25
  0
LTYPE
  5
43B
  2
DOTTED
 70
0
  3
Dotted .  .  .  .
 72
65
 73
2
 40
0.2
 49
0.0
 49
-0.2
  0
ENDTAB
  0
TABLE
  2
STYLE
  70
4
  0
STYLE
  2
KICAD
  70
0
  40
0
  41
1
  42
1
  50
0
  71
0
  3
isocp.shx
  0
STYLE
  2
KICADB
  70
0
  40
0
  41
1
  42
1
  50
0
  71
0
  3
isocp.shx
  0
STYLE
  2
KICADI
  70
0
  40
0
  41
1
  42
1
  50
15
  71
0
  3
isocp.shx
  0
STYLE
  2
KICADBI
  70
0
  40
0
  41
1
  42
1
  50
15
  71
0
  3
isocp.shx
  0
ENDTAB
  0
TABLE
  2
LAYER
  70
1
  0
LAYER
  2
BLACK
  70
0
  62
7
  6
CONTINUOUS
  0
ENDTAB
  0
ENDSEC
  0
SECTION
  2
ENTITIES
0
LINE
8
BLACK
6
CONTINUOUS
10
1.0823622047244095
20
0.2518897637795275
11
1.0223622047244094
21
0.2518897637795275
0
LINE
8
BLACK
6
CONTINUOUS
10
1.0223622047244094
20
0.2518897637795275
11
1.0223622047244094
21
0.3118897637795275
0
LINE
8
BLACK
6
CONTINUOUS
10
1.0223622047244094
20
0.3118897637795275
11
1.0823622047244095
21
0.3118897637795275
0
LINE
8
BLACK
6
CONTINUOUS
10
1.0823622047244095
20
0.3118897637795275
11
1.0823622047244095
21
0.2518897637795275
0
LINE
8
BLACK
6
CONTINUOUS
10
1.1823622047244093
20
0.2518897637795275
11
1.1223622047244095
21
0.2518897637795275
0
LINE
8
BLACK
6
CONTINUOUS
10
1.1223622047244095
20
0.2518897637795275
11
1.1223622047244095
21
0.3118897637795275
0
LINE
8
BLACK
6
CONTINUOUS
10
1.1223622047244095
20
0.3118897637795275
11
1.1823622047244093
21
0.3118897637795275
0
LINE
8
BLACK
6
CONTINUOUS
10
1.1823622047244093
20
0.3118897637795275
11
1.1823622047244093
21
0.2518897637795275
0
LINE
8
BLACK
6
CONTINUOUS
10
1.5823622047244095
20
0.2558267716535433
11
1.5223622047244094
21
0.2558267716535433
0
LINE
8
BLACK
6
CONTINUOUS
10
1.5223622047244094
20
0.2558267716535433
11
1.5223622047244094
21
0.3158267716535433
0
LINE
8
BLACK
6
CONTINUOUS
10
1.5223622047244094
20
0.3158267716535433
11
1.5823622047244095
21
0.3158267716535433
0
LINE
8
BLACK
6
CONTINUOUS
10
1.5823622047244095
20
0.3158267716535433
11
1.5823622047244095
21
0.2558267716535433
0
LINE
8
BLACK
6
CONTINUOUS
10
1.6823622047244093
20
0.2558267716535433
11
1.6223622047244095
21
0.2558267716535433
0
LINE
8
BLACK
6
CONTINUOUS
10
1.6223622047244095
20
0.2558267716535433
11
1.6223622047244095
21
0.3158267716535433
0
LINE
8
BLACK
6
CONTINUOUS
10
1.6223622047244095
20
0.3158267716535433
11
1.6823622047244093
21
0.3158267716535433
0
LINE
8
BLACK
6
CONTINUOUS
10
1.6823622047244093
20
0.3158267716535433
11
1.6823622047244093
21
0.2558267716535433
0
LINE
8
BLACK
6
CONTINUOUS
10
0.6097522834645669
20
0.3381817322834645
11
0.614465748031496
21
0.3351525590551181
0
LINE
8
BLACK
6
CONTINUOUS
10
0.614465748031496
20
0.3351525590551181
11
0.6181349212598425
21
0.3309181102362205
0
LINE
8
BLACK
6
CONTINUOUS
10
0.6181349212598425
20
0.3309181102362205
11
0.6204624409448819
21
0.3258214960629921
0
LINE
8
BLACK
6
CONTINUOUS
10
0.6204624409448819
20
0.3258214960629921
11
0.621259842519685
21
0.3202755905511811
0
LINE
8
BLACK
6
CONTINUOUS
10
0.621259842519685
20
0.3202755905511811
11
0.621259842519685
21
0.2809055118110236
0
LINE
8
BLACK
6
CONTINUOUS
10
0.621259842519685
20
0.2809055118110236
11
0.6204624409448819
21
0.2753596062992126
0
LINE
8
BLACK
6
CONTINUOUS
10
0.6204624409448819
20
0.2753596062992126
11
0.6181349212598425
21
0.2702629921259843
0
LINE
8
BLACK
6
CONTINUOUS
10
0.6181349212598425
20
0.2702629921259843
11
0.614465748031496
21
0.2660285433070866
0
LINE
8
BLACK
6
CONTINUOUS
10
0.614465748031496
20
0.2660285433070866
11
0.6097522834645669
21
0.2629993700787401
0
LINE
8
BLACK
6
CONTINUOUS
10
0.6097522834645669
20
0.2629993700787401
11
0.6043762598425196
21
0.2614208267716535
0
LINE
8
BLACK
6
CONTINUOUS
10
0.6043762598425196
20
0.2614208267716535
11
0.5987733464566929
21
0.2614208267716535
0
LINE
8
BLACK
6
CONTINUOUS
10
0.5987733464566929
20
0.2614208267716535
11
0.5933973228346456
21
0.2629993700787401
0
LINE
8
BLACK
6
CONTINUOUS
10
0.5933973228346456
20
0.2629993700787401
11
0.5886838582677165
21
0.2660285433070866
0
LINE
8
BLACK
6
CONTINUOUS
10
0.5886838582677165
20
0.2660285433070866
11
0.58501468503937
21
0.2702629921259843
0
LINE
8
BLACK
6
CONTINUOUS
10
0.58501468503937
20
0.2702629921259843
11
0.5826871653543307
21
0.2753596062992126
0
LINE
8
BLACK
6
CONTINUOUS
10
0.5826871653543307
20
0.2753596062992126
11
0.5818897637795275
21
0.2809055118110236
0
LINE
8
BLACK
6
CONTINUOUS
10
0.5818897637795275
20
0.2809055118110236
11
0.5818897637795275
21
0.3202755905511811
0
LINE
8
BLACK
6
CONTINUOUS
10
0.5818897637795275
20
0.3202755905511811
11
0.5826871653543307
21
0.3258214960629921
0
LINE
8
BLACK
6
CONTINUOUS
10
0.5826871653543307
20
0.3258214960629921
11
0.58501468503937
21
0.3309181102362205
0
LINE
8
BLACK
6
CONTINUOUS
10
0.58501468503937
20
0.3309181102362205
11
0.5886838582677165
21
0.3351525590551181
0
LINE
8
BLACK
6
CONTINUOUS
10
0.5886838582677165
20
0.3351525590551181
11
0.5933973228346456
21
0.3381817322834645
0
LINE
8
BLACK
6
CONTINUOUS
10
0.5933973228346456
20
0.3381817322834645
11
0.5987733464566929
21
0.3397602755905512
0
LINE
8
BLACK
6
CONTINUOUS
10
0.5987733464566929
20
0.3397602755905512
11
0.6043762598425196
21
0.3397602755905512
0
LINE
8
BLACK
6
CONTINUOUS
10
0.6043762598425196
20
0.3397602755905512
11
0.6097522834645669
21
0.3381817322834645
0
LINE
8
BLACK
6
CONTINUOUS
10
0.9499097637795275
20
0.3381817322834645
11
0.9546232283464566
21
0.3351525590551181
0
LINE
8
BLACK
6
CONTINUOUS
10
0.9546232283464566
20
0.3351525590551181
11
0.9582924015748031
21
0.3309181102362205
0
LINE
8
BLACK
6
CONTINUOUS
10
0.9582924015748031
20
0.3309181102362205
11
0.9606199212598425
21
0.3258214960629921
0
LINE
8
BLACK
6
CONTINUOUS
10
0.9606199212598425
20
0.3258214960629921
11
0.9614173228346456
21
0.3202755905511811
0
LINE
8
BLACK
6
CONTINUOUS
10
0.9614173228346456
20
0.3202755905511811
11
0.9614173228346456
21
0.2809055118110236
0
LINE
8
BLACK
6
CONTINUOUS
10
0.9614173228346456
20
0.2809055118110236
11
0.9606199212598425
21
0.2753596062992126
0
LINE
8
BLACK
6
CONTINUOUS
10
0.9606199212598425
20
0.2753596062992126
11
0.9582924015748031
21
0.2702629921259843
0
LINE
8
BLACK
6
CONTINUOUS
10
0.9582924015748031
20
0.2702629921259843
11
0.9546232283464566
21
0.2660285433070866
0
LINE
8
BLACK
6
CONTINUOUS
10
0.9546232283464566
20
0.2660285433070866
11
0.9499097637795275
21
0.2629993700787401
0
LINE
8
BLACK
6
CONTINUOUS
10
0.9499097637795275
20
0.2629993700787401
11
0.9445337401574803
21
0.2614208267716535
0
LINE
8
BLACK
6
CONTINUOUS
10
0.9445337401574803
20
0.2614208267716535
11
0.9389308267716535
21
0.2614208267716535
0
LINE
8
BLACK
6
CONTINUOUS
10
0.9389308267716535
20
0.2614208267716535
11
0.9335548031496063
21
0.2629993700787401
0
LINE
8
BLACK
6
CONTINUOUS
10
0.9335548031496063
20
0.2629993700787401
11
0.9288413385826771
21
0.2660285433070866
0
LINE
8
BLACK
6
CONTINUOUS
10
0.9288413385826771
20
0.2660285433070866
11
0.9251721653543307
21
0.2702629921259843
0
LINE
8
BLACK
6
CONTINUOUS
10
0.9251721653543307
20
0.2702629921259843
11
0.9228446456692914
21
0.2753596062992126
0
LINE
8
BLACK
6
CONTINUOUS
10
0.9228446456692914
20
0.2753596062992126
11
0.9220472440944881
21
0.2809055118110236
0
LINE
8
BLACK
6
CONTINUOUS
10
0.9220472440944881
20
0.2809055118110236
11
0.9220472440944881
21
0.3202755905511811
0
LINE
8
BLACK
6
CONTINUOUS
10
0.9220472440944881
20
0.3202755905511811
11
0.9228446456692914
21
0.3258214960629921
0
LINE
8
BLACK
6
CONTINUOUS
10
0.9228446456692914
20
0.3258214960629921
11
0.9251721653543307
21
0.3309181102362205
0
LINE
8
BLACK
6
CONTINUOUS
10
0.9251721653543307
20
0.3309181102362205
11
0.9288413385826771
21
0.3351525590551181
0
LINE
8
BLACK
6
CONTINUOUS
10
0.9288413385826771
20
0.3351525590551181
11
0.9335548031496063
21
0.3381817322834645
0
LINE
8
BLACK
6
CONTINUOUS
10
0.9335548031496063
20
0.3381817322834645
11
0.9389308267716535
21
0.3397602755905512
0
LINE
8
BLACK
6
CONTINUOUS
10
0.9389308267716535
20
0.3397602755905512
11
0.9445337401574803
21
0.3397602755905512
0
LINE
8
BLACK
6
CONTINUOUS
10
0.9445337401574803
20
0.3397602755905512
11
0.9499097637795275
21
0.3381817322834645
0
LINE
8
BLACK
6
CONTINUOUS
10
0.4141057480314961
20
0.5251920866141733
11
0.4280341338582677
21
0.5228255511811023
0
LINE
8
BLACK
6
CONTINUOUS
10
0.4280341338582677
20
0.5228255511811023
11
0.4416099606299212
21
0.5189144488188976
0
LINE
8
BLACK
6
CONTINUOUS
10
0.4416099606299212
20
0.5189144488188976
11
0.4546625196850393
21
0.513507874015748
0
LINE
8
BLACK
6
CONTINUOUS
10
0.4546625196850393
20
0.513507874015748
11
0.4670276771653543
21
0.5066738976377952
0
LINE
8
BLACK
6
CONTINUOUS
10
0.4670276771653543
20
0.5066738976377952
11
0.4785498818897638
21
0.4984984645669291
0
LINE
8
BLACK
6
CONTINUOUS
10
0.4785498818897638
20
0.4984984645669291
11
0.4890843307086614
21
0.4890843307086614
0
LINE
8
BLACK
6
CONTINUOUS
10
0.4890843307086614
20
0.4890843307086614
11
0.4984984645669291
21
0.4785498818897638
0
LINE
8
BLACK
6
CONTINUOUS
10
0.4984984645669291
20
0.4785498818897638
11
0.5066738976377952
21
0.4670276771653543
0
LINE
8
BLACK
6
CONTINUOUS
10
0.5066738976377952
20
0.4670276771653543
11
0.513507874015748
21
0.4546625196850393
0
LINE
8
BLACK
6
CONTINUOUS
10
0.513507874015748
20
0.4546625196850393
11
0.5189144488188976
21
0.4416099606299212
0
LINE
8
BLACK
6
CONTINUOUS
10
0.5189144488188976
20
0.4416099606299212
11
0.5228255511811023
21
0.4280341338582677
0
LINE
8
BLACK
6
CONTINUOUS
10
0.5228255511811023
20
0.4280341338582677
11
0.5251920866141733
21
0.4141057480314961
0
LINE
8
BLACK
6
CONTINUOUS
10
0.5251920866141733
20
0.4141057480314961
11
0.525984251968504
21
0.4
0
LINE
8
BLACK
6
CONTINUOUS
10
0.525984251968504
20
0.4
11
0.5251920866141733
21
0.3858942519685039
0
LINE
8
BLACK
6
CONTINUOUS
10
0.5251920866141733
20
0.3858942519685039
11
0.5228255511811023
21
0.3719658661417323
0
LINE
8
BLACK
6
CONTINUOUS
10
0.5228255511811023
20
0.3719658661417323
11
0.5189144488188976
21
0.3583900393700787
0
LINE
8
BLACK
6
CONTINUOUS
10
0.5189144488188976
20
0.3583900393700787
11
0.513507874015748
21
0.3453374803149606
0
LINE
8
BLACK
6
CONTINUOUS
10
0.513507874015748
20
0.3453374803149606
11
0.5066738976377952
21
0.3329723228346457
0
LINE
8
BLACK
6
CONTINUOUS
10
0.5066738976377952
20
0.3329723228346457
11
0.4984984645669291
21
0.3214501181102362
0
LINE
8
BLACK
6
CONTINUOUS
10
0.4984984645669291
20
0.3214501181102362
11
0.4890843307086614
21
0.3109156692913386
0
LINE
8
BLACK
6
CONTINUOUS
10
0.4890843307086614
20
0.3109156692913386
11
0.4785498818897638
21
0.3015015354330708
0
LINE
8
BLACK
6
CONTINUOUS
10
0.4785498818897638
20
0.3015015354330708
11
0.4670276771653543
21
0.2933261023622047
0
LINE
8
BLACK
6
CONTINUOUS
10
0.4670276771653543
20
0.2933261023622047
11
0.4546625196850393
21
0.2864921259842519
0
LINE
8
BLACK
6
CONTINUOUS
10
0.4546625196850393
20
0.2864921259842519
11
0.4416099606299212
21
0.2810855511811023
0
LINE
8
BLACK
6
CONTINUOUS
10
0.4416099606299212
20
0.2810855511811023
11
0.4280341338582677
21
0.2771744488188976
0
LINE
8
BLACK
6
CONTINUOUS
10
0.4280341338582677
20
0.2771744488188976
11
0.4141057480314961
21
0.2748079133858268
0
LINE
8
BLACK
6
CONTINUOUS
10
0.4141057480314961
20
0.2748079133858268
11
0.4
21
0.274015748031496
0
LINE
8
BLACK
6
CONTINUOUS
10
0.4
20
0.274015748031496
11
0.3858942519685039
21
0.2748079133858268
0
LINE
8
BLACK
6
CONTINUOUS
10
0.3858942519685039
20
0.2748079133858268
11
0.3719658661417323
21
0.2771744488188976
0
LINE
8
BLACK
6
CONTINUOUS
10
0.3719658661417323
20
0.2771744488188976
11
0.3583900393700787
21
0.2810855511811023
0
LINE
8
BLACK
6
CONTINUOUS
10
0.3583900393700787
20
0.2810855511811023
11
0.3453374803149606
21
0.2864921259842519
0
LINE
8
BLACK
6
CONTINUOUS
10
0.3453374803149606
20
0.2864921259842519
11
0.3329723228346457
21
0.2933261023622047
0
LINE
8
BLACK
6
CONTINUOUS
10
0.3329723228346457
20
0.2933261023622047
11
0.3214501181102362
21
0.3015015354330708
0
LINE
8
BLACK
6
CONTINUOUS
10
0.3214501181102362
20
0.3015015354330708
11
0.3109156692913386
21
0.3109156692913386
0
LINE
8
BLACK
6
CONTINUOUS
10
0.3109156692913386
20
0.3109156692913386
11
0.3015015354330708
21
0.3214501181102362
0
LINE
8
BLACK
6
CONTINUOUS
10
0.3015015354330708
20
0.3214501181102362
11
0.2933261023622047
21
0.3329723228346457
0
LINE
8
BLACK
6
CONTINUOUS
10
0.2933261023622047
20
0.3329723228346457
11
0.2864921259842519
21
0.3453374803149606
0
LINE
8
BLACK
6
CONTINUOUS
10
0.2864921259842519
20
0.3453374803149606
11
0.2810855511811023
21
0.3583900393700787
0
LINE
8
BLACK
6
CONTINUOUS
10
0.2810855511811023
20
0.3583900393700787
11
0.2771744488188976
21
0.3719658661417323
0
LINE
8
BLACK
6
CONTINUOUS
10
0.2771744488188976
20
0.3719658661417323
11
0.2748079133858268
21
0.3858942519685039
0
LINE
8
BLACK
6
CONTINUOUS
10
0.2748079133858268
20
0.3858942519685039
11
0.274015748031496
21
0.4
0
LINE
8
BLACK
6
CONTINUOUS
10
0.274015748031496
20
0.4
11
0.2748079133858268
21
0.4141057480314961
0
LINE
8
BLACK
6
CONTINUOUS
10
0.2748079133858268
20
0.4141057480314961
11
0.2771744488188976
21
0.4280341338582677
0
LINE
8
BLACK
6
CONTINUOUS
10
0.2771744488188976
20
0.4280341338582677
11
0.2810855511811023
21
0.4416099606299212
0
LINE
8
BLACK
6
CONTINUOUS
10
0.2810855511811023
20
0.4416099606299212
11
0.2864921259842519
21
0.4546625196850393
0
LINE
8
BLACK
6
CONTINUOUS
10
0.2864921259842519
20
0.4546625196850393
11
0.2933261023622047
21
0.4670276771653543
0
LINE
8
BLACK
6
CONTINUOUS
10
0.2933261023622047
20
0.4670276771653543
11
0.3015015354330708
21
0.4785498818897638
0
LINE
8
BLACK
6
CONTINUOUS
10
0.3015015354330708
20
0.4785498818897638
11
0.3109156692913386
21
0.4890843307086614
0
LINE
8
BLACK
6
CONTINUOUS
10
0.3109156692913386
20
0.4890843307086614
11
0.3214501181102362
21
0.4984984645669291
0
LINE
8
BLACK
6
CONTINUOUS
10
0.3214501181102362
20
0.4984984645669291
11
0.3329723228346457
21
0.5066738976377952
0
LINE
8
BLACK
6
CONTINUOUS
10
0.3329723228346457
20
0.5066738976377952
11
0.3453374803149606
21
0.513507874015748
0
LINE
8
BLACK
6
CONTINUOUS
10
0.3453374803149606
20
0.513507874015748
11
0.3583900393700787
21
0.5189144488188976
0
LINE
8
BLACK
6
CONTINUOUS
10
0.3583900393700787
20
0.5189144488188976
11
0.3719658661417323
21
0.5228255511811023
0
LINE
8
BLACK
6
CONTINUOUS
10
0.3719658661417323
20
0.5228255511811023
11
0.3858942519685039
21
0.5251920866141733
0
LINE
8
BLACK
6
CONTINUOUS
10
0.3858942519685039
20
0.5251920866141733
11
0.4
21
0.525984251968504
0
LINE
8
BLACK
6
CONTINUOUS
10
0.4
20
0.525984251968504
11
0.4141057480314961
21
0.5251920866141733
0
LINE
8
BLACK
6
CONTINUOUS
10
2.0141057480314961
20
0.5251920866141733
11
2.0280341338582675
21
0.5228255511811023
0
LINE
8
BLACK
6
CONTINUOUS
10
2.0280341338582675
20
0.5228255511811023
11
2.0416099606299212
21
0.5189144488188976
0
LINE
8
BLACK
6
CONTINUOUS
10
2.0416099606299212
20
0.5189144488188976
11
2.0546625196850394
21
0.513507874015748
0
LINE
8
BLACK
6
CONTINUOUS
10
2.0546625196850394
20
0.513507874015748
11
2.0670276771653544
21
0.5066738976377952
0
LINE
8
BLACK
6
CONTINUOUS
10
2.0670276771653544
20
0.5066738976377952
11
2.0785498818897636
21
0.4984984645669291
0
LINE
8
BLACK
6
CONTINUOUS
10
2.0785498818897636
20
0.4984984645669291
11
2.0890843307086615
21
0.4890843307086614
0
LINE
8
BLACK
6
CONTINUOUS
10
2.0890843307086615
20
0.4890843307086614
11
2.0984984645669291
21
0.4785498818897638
0
LINE
8
BLACK
6
CONTINUOUS
10
2.0984984645669291
20
0.4785498818897638
11
2.1066738976377954
21
0.4670276771653543
0
LINE
8
BLACK
6
CONTINUOUS
10
2.1066738976377954
20
0.4670276771653543
11
2.113507874015748
21
0.4546625196850393
0
LINE
8
BLACK
6
CONTINUOUS
10
2.113507874015748
20
0.4546625196850393
11
2.1189144488188978
21
0.4416099606299212
0
LINE
8
BLACK
6
CONTINUOUS
10
2.1189144488188978
20
0.4416099606299212
11
2.1228255511811023
21
0.4280341338582677
0
LINE
8
BLACK
6
CONTINUOUS
10
2.1228255511811023
20
0.4280341338582677
11
2.1251920866141734
21
0.4141057480314961
0
LINE
8
BLACK
6
CONTINUOUS
10
2.1251920866141734
20
0.4141057480314961
11
2.1259842519685037
21
0.4
0
LINE
8
BLACK
6
CONTINUOUS
10
2.1259842519685037
20
0.4
11
2.1251920866141734
21
0.3858942519685039
0
LINE
8
BLACK
6
CONTINUOUS
10
2.1251920866141734
20
0.3858942519685039
11
2.1228255511811023
21
0.3719658661417323
0
LINE
8
BLACK
6
CONTINUOUS
10
2.1228255511811023
20
0.3719658661417323
11
2.1189144488188978
21
0.3583900393700787
0
LINE
8
BLACK
6
CONTINUOUS
10
2.1189144488188978
20
0.3583900393700787
11
2.113507874015748
21
0.3453374803149606
0
LINE
8
BLACK
6
CONTINUOUS
10
2.113507874015748
20
0.3453374803149606
11
2.1066738976377954
21
0.3329723228346457
0
LINE
8
BLACK
6
CONTINUOUS
10
2.1066738976377954
20
0.3329723228346457
11
2.0984984645669291
21
0.3214501181102362
0
LINE
8
BLACK
6
CONTINUOUS
10
2.0984984645669291
20
0.3214501181102362
11
2.0890843307086615
21
0.3109156692913386
0
LINE
8
BLACK
6
CONTINUOUS
10
2.0890843307086615
20
0.3109156692913386
11
2.0785498818897636
21
0.3015015354330708
0
LINE
8
BLACK
6
CONTINUOUS
10
2.0785498818897636
20
0.3015015354330708
11
2.0670276771653544
21
0.2933261023622047
0
LINE
8
BLACK
6
CONTINUOUS
10
2.0670276771653544
20
0.2933261023622047
11
2.0546625196850394
21
0.2864921259842519
0
LINE
8
BLACK
6
CONTINUOUS
10
2.0546625196850394
20
0.2864921259842519
11
2.0416099606299212
21
0.2810855511811023
0
LINE
8
BLACK
6
CONTINUOUS
10
2.0416099606299212
20
0.2810855511811023
11
2.0280341338582675
21
0.2771744488188976
0
LINE
8
BLACK
6
CONTINUOUS
10
2.0280341338582675
20
0.2771744488188976
11
2.0141057480314961
21
0.2748079133858268
0
LINE
8
BLACK
6
CONTINUOUS
10
2.0141057480314961
20
0.2748079133858268
11
2.
21
0.274015748031496
0
LINE
8
BLACK
6
CONTINUOUS
10
2.
20
0.274015748031496
11
1.9858942519685039
21
0.2748079133858268
0
LINE
8
BLACK
6
CONTINUOUS
10
1.9858942519685039
20
0.2748079133858268
11
1.9719658661417323
21
0.2771744488188976
0
LINE
8
BLACK
6
CONTINUOUS
10
1.9719658661417323
20
0.2771744488188976
11
1.9583900393700786
21
0.2810855511811023
0
LINE
8
BLACK
6
CONTINUOUS
10
1.9583900393700786
20
0.2810855511811023
11
1.9453374803149606
21
0.2864921259842519
0
LINE
8
BLACK
6
CONTINUOUS
10
1.9453374803149606
20
0.2864921259842519
11
1.9329723228346456
21
0.2933261023622047
0
LINE
8
BLACK
6
CONTINUOUS
10
1.9329723228346456
20
0.2933261023622047
11
1.9214501181102361
21
0.3015015354330708
0
LINE
8
BLACK
6
CONTINUOUS
10
1.9214501181102361
20
0.3015015354330708
11
1.9109156692913385
21
0.3109156692913386
0
LINE
8
BLACK
6
CONTINUOUS
10
1.9109156692913385
20
0.3109156692913386
11
1.9015015354330709
21
0.3214501181102362
0
LINE
8
BLACK
6
CONTINUOUS
10
1.9015015354330709
20
0.3214501181102362
11
1.8933261023622048
21
0.3329723228346457
0
LINE
8
BLACK
6
CONTINUOUS
10
1.8933261023622048
20
0.3329723228346457
11
1.886492125984252
21
0.3453374803149606
0
LINE
8
BLACK
6
CONTINUOUS
10
1.886492125984252
20
0.3453374803149606
11
1.8810855511811022
21
0.3583900393700787
0
LINE
8
BLACK
6
CONTINUOUS
10
1.8810855511811022
20
0.3583900393700787
11
1.8771744488188975
21
0.3719658661417323
0
LINE
8
BLACK
6
CONTINUOUS
10
1.8771744488188975
20
0.3719658661417323
11
1.8748079133858266
21
0.3858942519685039
0
LINE
8
BLACK
6
CONTINUOUS
10
1.8748079133858266
20
0.3858942519685039
11
1.8740157480314961
21
0.4
0
LINE
8
BLACK
6
CONTINUOUS
10
1.8740157480314961
20
0.4
11
1.8748079133858266
21
0.4141057480314961
0
LINE
8
BLACK
6
CONTINUOUS
10
1.8748079133858266
20
0.4141057480314961
11
1.8771744488188975
21
0.4280341338582677
0
LINE
8
BLACK
6
CONTINUOUS
10
1.8771744488188975
20
0.4280341338582677
11
1.8810855511811022
21
0.4416099606299212
0
LINE
8
BLACK
6
CONTINUOUS
10
1.8810855511811022
20
0.4416099606299212
11
1.886492125984252
21
0.4546625196850393
0
LINE
8
BLACK
6
CONTINUOUS
10
1.886492125984252
20
0.4546625196850393
11
1.8933261023622048
21
0.4670276771653543
0
LINE
8
BLACK
6
CONTINUOUS
10
1.8933261023622048
20
0.4670276771653543
11
1.9015015354330709
21
0.4785498818897638
0
LINE
8
BLACK
6
CONTINUOUS
10
1.9015015354330709
20
0.4785498818897638
11
1.9109156692913385
21
0.4890843307086614
0
LINE
8
BLACK
6
CONTINUOUS
10
1.9109156692913385
20
0.4890843307086614
11
1.9214501181102361
21
0.4984984645669291
0
LINE
8
BLACK
6
CONTINUOUS
10
1.9214501181102361
20
0.4984984645669291
11
1.9329723228346456
21
0.5066738976377952
0
LINE
8
BLACK
6
CONTINUOUS
10
1.9329723228346456
20
0.5066738976377952
11
1.9453374803149606
21
0.513507874015748
0
LINE
8
BLACK
6
CONTINUOUS
10
1.9453374803149606
20
0.513507874015748
11
1.9583900393700786
21
0.5189144488188976
0
LINE
8
BLACK
6
CONTINUOUS
10
1.9583900393700786
20
0.5189144488188976
11
1.9719658661417323
21
0.5228255511811023
0
LINE
8
BLACK
6
CONTINUOUS
10
1.9719658661417323
20
0.5228255511811023
11
1.9858942519685039
21
0.5251920866141733
0
LINE
8
BLACK
6
CONTINUOUS
10
1.9858942519685039
20
0.5251920866141733
11
2.
21
0.525984251968504
0
LINE
8
BLACK
6
CONTINUOUS
10
2.
20
0.525984251968504
11
2.0141057480314961
21
0.5251920866141733
0
LINE
8
BLACK
6
CONTINUOUS
10
1.0823622047244095
20
0.3518897637795276
11
1.0223622047244094
21
0.3518897637795276
0
LINE
8
BLACK
6
CONTINUOUS
10
1.0223622047244094
20
0.3518897637795276
11
1.0223622047244094
21
0.4118897637795276
0
LINE
8
BLACK
6
CONTINUOUS
10
1.0223622047244094
20
0.4118897637795276
11
1.0823622047244095
21
0.4118897637795276
0
LINE
8
BLACK
6
CONTINUOUS
10
1.0823622047244095
20
0.4118897637795276
11
1.0823622047244095
21
0.3518897637795276
0
LINE
8
BLACK
6
CONTINUOUS
10
1.1823622047244093
20
0.3518897637795276
11
1.1223622047244095
21
0.3518897637795276
0
LINE
8
BLACK
6
CONTINUOUS
10
1.1223622047244095
20
0.3518897637795276
11
1.1223622047244095
21
0.4118897637795276
0
LINE
8
BLACK
6
CONTINUOUS
10
1.1223622047244095
20
0.4118897637795276
11
1.1823622047244093
21
0.4118897637795276
0
LINE
8
BLACK
6
CONTINUOUS
10
1.1823622047244093
20
0.4118897637795276
11
1.1823622047244093
21
0.3518897637795276
0
LINE
8
BLACK
6
CONTINUOUS
10
1.5823622047244095
20
0.3558267716535433
11
1.5223622047244094
21
0.3558267716535433
0
LINE
8
BLACK
6
CONTINUOUS
10
1.5223622047244094
20
0.3558267716535433
11
1.5223622047244094
21
0.4158267716535433
0
LINE
8
BLACK
6
CONTINUOUS
10
1.5223622047244094
20
0.4158267716535433
11
1.5823622047244095
21
0.4158267716535433
0
LINE
8
BLACK
6
CONTINUOUS
10
1.5823622047244095
20
0.4158267716535433
11
1.5823622047244095
21
0.3558267716535433
0
LINE
8
BLACK
6
CONTINUOUS
10
1.6823622047244093
20
0.3558267716535433
11
1.6223622047244095
21
0.3558267716535433
0
LINE
8
BLACK
6
CONTINUOUS
10
1.6223622047244095
20
0.3558267716535433
11
1.6223622047244095
21
0.4158267716535433
0
LINE
8
BLACK
6
CONTINUOUS
10
1.6223622047244095
20
0.4158267716535433
11
1.6823622047244093
21
0.4158267716535433
0
LINE
8
BLACK
6
CONTINUOUS
10
1.6823622047244093
20
0.4158267716535433
11
1.6823622047244093
21
0.3558267716535433
0
LINE
8
BLACK
6
CONTINUOUS
10
0.6057800787401575
20
0.5060637401574803
11
0.6110840157480315
21
0.5041787401574803
0
LINE
8
BLACK
6
CONTINUOUS
10
0.6110840157480315
20
0.5041787401574803
11
0.6156826771653543
21
0.5009326377952755
0
LINE
8
BLACK
6
CONTINUOUS
10
0.6156826771653543
20
0.5009326377952755
11
0.6192350393700787
21
0.4965662204724409
0
LINE
8
BLACK
6
CONTINUOUS
10
0.6192350393700787
20
0.4965662204724409
11
0.6214776377952755
21
0.4914032677165354
0
LINE
8
BLACK
6
CONTINUOUS
10
0.6214776377952755
20
0.4914032677165354
11
0.622244094488189
21
0.4858267716535433
0
LINE
8
BLACK
6
CONTINUOUS
10
0.622244094488189
20
0.4858267716535433
11
0.622244094488189
21
0.4444881889763779
0
LINE
8
BLACK
6
CONTINUOUS
10
0.622244094488189
20
0.4444881889763779
11
0.6220515748031495
21
0.4416737401574803
0
LINE
8
BLACK
6
CONTINUOUS
10
0.6220515748031495
20
0.4416737401574803
11
0.6205329133858267
21
0.4362535039370078
0
LINE
8
BLACK
6
CONTINUOUS
10
0.6205329133858267
20
0.4362535039370078
11
0.6176081889763779
21
0.4314440551181102
0
LINE
8
BLACK
6
CONTINUOUS
10
0.6176081889763779
20
0.4314440551181102
11
0.6134943700787402
21
0.4276020078740158
0
LINE
8
BLACK
6
CONTINUOUS
10
0.6134943700787402
20
0.4276020078740158
11
0.6084965354330708
21
0.4250123228346457
0
LINE
8
BLACK
6
CONTINUOUS
10
0.6084965354330708
20
0.4250123228346457
11
0.6029853149606299
21
0.4238670866141732
0
LINE
8
BLACK
6
CONTINUOUS
10
0.6029853149606299
20
0.4238670866141732
11
0.5973695275590551
21
0.424251220472441
0
LINE
8
BLACK
6
CONTINUOUS
10
0.5973695275590551
20
0.424251220472441
11
0.5920655905511811
21
0.4261362204724409
0
LINE
8
BLACK
6
CONTINUOUS
10
0.5920655905511811
20
0.4261362204724409
11
0.5874669291338582
21
0.4293823228346457
0
LINE
8
BLACK
6
CONTINUOUS
10
0.5874669291338582
20
0.4293823228346457
11
0.5839145669291338
21
0.4337487401574803
0
LINE
8
BLACK
6
CONTINUOUS
10
0.5839145669291338
20
0.4337487401574803
11
0.581671968503937
21
0.4389116929133858
0
LINE
8
BLACK
6
CONTINUOUS
10
0.581671968503937
20
0.4389116929133858
11
0.5809055118110236
21
0.4444881889763779
0
LINE
8
BLACK
6
CONTINUOUS
10
0.5809055118110236
20
0.4444881889763779
11
0.5809055118110236
21
0.4858267716535433
0
LINE
8
BLACK
6
CONTINUOUS
10
0.5809055118110236
20
0.4858267716535433
11
0.581098031496063
21
0.4886412204724409
0
LINE
8
BLACK
6
CONTINUOUS
10
0.581098031496063
20
0.4886412204724409
11
0.5826166929133858
21
0.4940614566929133
0
LINE
8
BLACK
6
CONTINUOUS
10
0.5826166929133858
20
0.4940614566929133
11
0.5855414173228346
21
0.498870905511811
0
LINE
8
BLACK
6
CONTINUOUS
10
0.5855414173228346
20
0.498870905511811
11
0.5896552362204724
21
0.5027129527559056
0
LINE
8
BLACK
6
CONTINUOUS
10
0.5896552362204724
20
0.5027129527559056
11
0.5946530708661417
21
0.5053026377952756
0
LINE
8
BLACK
6
CONTINUOUS
10
0.5946530708661417
20
0.5053026377952756
11
0.6001642913385826
21
0.506447874015748
0
LINE
8
BLACK
6
CONTINUOUS
10
0.6001642913385826
20
0.506447874015748
11
0.6057800787401575
21
0.5060637401574803
0
LINE
8
BLACK
6
CONTINUOUS
10
0.9459375590551181
20
0.5060637401574803
11
0.9512414960629921
21
0.5041787401574803
0
LINE
8
BLACK
6
CONTINUOUS
10
0.9512414960629921
20
0.5041787401574803
11
0.9558401574803149
21
0.5009326377952755
0
LINE
8
BLACK
6
CONTINUOUS
10
0.9558401574803149
20
0.5009326377952755
11
0.9593925196850394
21
0.4965662204724409
0
LINE
8
BLACK
6
CONTINUOUS
10
0.9593925196850394
20
0.4965662204724409
11
0.9616351181102362
21
0.4914032677165354
0
LINE
8
BLACK
6
CONTINUOUS
10
0.9616351181102362
20
0.4914032677165354
11
0.9624015748031496
21
0.4858267716535433
0
LINE
8
BLACK
6
CONTINUOUS
10
0.9624015748031496
20
0.4858267716535433
11
0.9624015748031496
21
0.4444881889763779
0
LINE
8
BLACK
6
CONTINUOUS
10
0.9624015748031496
20
0.4444881889763779
11
0.9622090551181102
21
0.4416737401574803
0
LINE
8
BLACK
6
CONTINUOUS
10
0.9622090551181102
20
0.4416737401574803
11
0.9606903937007873
21
0.4362535039370078
0
LINE
8
BLACK
6
CONTINUOUS
10
0.9606903937007873
20
0.4362535039370078
11
0.9577656692913386
21
0.4314440551181102
0
LINE
8
BLACK
6
CONTINUOUS
10
0.9577656692913386
20
0.4314440551181102
11
0.9536518503937008
21
0.4276020078740158
0
LINE
8
BLACK
6
CONTINUOUS
10
0.9536518503937008
20
0.4276020078740158
11
0.9486540157480314
21
0.4250123228346457
0
LINE
8
BLACK
6
CONTINUOUS
10
0.9486540157480314
20
0.4250123228346457
11
0.9431427952755905
21
0.4238670866141732
0
LINE
8
BLACK
6
CONTINUOUS
10
0.9431427952755905
20
0.4238670866141732
11
0.9375270078740158
21
0.424251220472441
0
LINE
8
BLACK
6
CONTINUOUS
10
0.9375270078740158
20
0.424251220472441
11
0.9322230708661418
21
0.4261362204724409
0
LINE
8
BLACK
6
CONTINUOUS
10
0.9322230708661418
20
0.4261362204724409
11
0.9276244094488189
21
0.4293823228346457
0
LINE
8
BLACK
6
CONTINUOUS
10
0.9276244094488189
20
0.4293823228346457
11
0.9240720472440944
21
0.4337487401574803
0
LINE
8
BLACK
6
CONTINUOUS
10
0.9240720472440944
20
0.4337487401574803
11
0.9218294488188976
21
0.4389116929133858
0
LINE
8
BLACK
6
CONTINUOUS
10
0.9218294488188976
20
0.4389116929133858
11
0.9210629921259842
21
0.4444881889763779
0
LINE
8
BLACK
6
CONTINUOUS
10
0.9210629921259842
20
0.4444881889763779
11
0.9210629921259842
21
0.4858267716535433
0
LINE
8
BLACK
6
CONTINUOUS
10
0.9210629921259842
20
0.4858267716535433
11
0.9212555118110236
21
0.4886412204724409
0
LINE
8
BLACK
6
CONTINUOUS
10
0.9212555118110236
20
0.4886412204724409
11
0.9227741732283464
21
0.4940614566929133
0
LINE
8
BLACK
6
CONTINUOUS
10
0.9227741732283464
20
0.4940614566929133
11
0.9256988976377952
21
0.498870905511811
0
LINE
8
BLACK
6
CONTINUOUS
10
0.9256988976377952
20
0.498870905511811
11
0.9298127165354331
21
0.5027129527559056
0
LINE
8
BLACK
6
CONTINUOUS
10
0.9298127165354331
20
0.5027129527559056
11
0.9348105511811023
21
0.5053026377952756
0
LINE
8
BLACK
6
CONTINUOUS
10
0.9348105511811023
20
0.5053026377952756
11
0.9403217716535432
21
0.506447874015748
0
LINE
8
BLACK
6
CONTINUOUS
10
0.9403217716535432
20
0.506447874015748
11
0.9459375590551181
21
0.5060637401574803
0
LINE
8
BLACK
6
CONTINUOUS
10
0.6642716535433071
20
0.4565534645669291
11
0.6676757480314961
21
0.4536970866141732
0
LINE
8
BLACK
6
CONTINUOUS
10
0.6676757480314961
20
0.4536970866141732
11
0.6698976377952756
21
0.4498487007874016
0
LINE
8
BLACK
6
CONTINUOUS
10
0.6698976377952756
20
0.4498487007874016
11
0.6706692913385827
21
0.4454724409448819
0
LINE
8
BLACK
6
CONTINUOUS
10
0.6706692913385827
20
0.4454724409448819
11
0.6698976377952756
21
0.4410961811023622
0
LINE
8
BLACK
6
CONTINUOUS
10
0.6698976377952756
20
0.4410961811023622
11
0.6676757480314961
21
0.4372477952755905
0
LINE
8
BLACK
6
CONTINUOUS
10
0.6676757480314961
20
0.4372477952755905
11
0.6642716535433071
21
0.4343914173228346
0
LINE
8
BLACK
6
CONTINUOUS
10
0.6642716535433071
20
0.4343914173228346
11
0.660095905511811
21
0.4328715354330708
0
LINE
8
BLACK
6
CONTINUOUS
10
0.660095905511811
20
0.4328715354330708
11
0.6556521259842519
21
0.4328715354330708
0
LINE
8
BLACK
6
CONTINUOUS
10
0.6556521259842519
20
0.4328715354330708
11
0.6514763779527559
21
0.4343914173228346
0
LINE
8
BLACK
6
CONTINUOUS
10
0.6514763779527559
20
0.4343914173228346
11
0.6480722834645669
21
0.4372477952755905
0
LINE
8
BLACK
6
CONTINUOUS
10
0.6480722834645669
20
0.4372477952755905
11
0.6458503937007873
21
0.4410961811023622
0
LINE
8
BLACK
6
CONTINUOUS
10
0.6458503937007873
20
0.4410961811023622
11
0.6450787401574803
21
0.4454724409448819
0
LINE
8
BLACK
6
CONTINUOUS
10
0.6450787401574803
20
0.4454724409448819
11
0.6458503937007873
21
0.4498487007874016
0
LINE
8
BLACK
6
CONTINUOUS
10
0.6458503937007873
20
0.4498487007874016
11
0.6480722834645669
21
0.4536970866141732
0
LINE
8
BLACK
6
CONTINUOUS
10
0.6480722834645669
20
0.4536970866141732
11
0.6514763779527559
21
0.4565534645669291
0
LINE
8
BLACK
6
CONTINUOUS
10
0.6514763779527559
20
0.4565534645669291
11
0.6556521259842519
21
0.4580733464566929
0
LINE
8
BLACK
6
CONTINUOUS
10
0.6556521259842519
20
0.4580733464566929
11
0.660095905511811
21
0.4580733464566929
0
LINE
8
BLACK
6
CONTINUOUS
10
0.660095905511811
20
0.4580733464566929
11
0.6642716535433071
21
0.4565534645669291
0
LINE
8
BLACK
6
CONTINUOUS
10
0.8918307086614173
20
0.4565534645669291
11
0.8952348031496062
21
0.4536970866141732
0
LINE
8
BLACK
6
CONTINUOUS
10
0.8952348031496062
20
0.4536970866141732
11
0.8974566929133858
21
0.4498487007874016
0
LINE
8
BLACK
6
CONTINUOUS
10
0.8974566929133858
20
0.4498487007874016
11
0.8982283464566929
21
0.4454724409448819
0
LINE
8
BLACK
6
CONTINUOUS
10
0.8982283464566929
20
0.4454724409448819
11
0.8974566929133858
21
0.4410961811023622
0
LINE
8
BLACK
6
CONTINUOUS
10
0.8974566929133858
20
0.4410961811023622
11
0.8952348031496062
21
0.4372477952755905
0
LINE
8
BLACK
6
CONTINUOUS
10
0.8952348031496062
20
0.4372477952755905
11
0.8918307086614173
21
0.4343914173228346
0
LINE
8
BLACK
6
CONTINUOUS
10
0.8918307086614173
20
0.4343914173228346
11
0.8876549606299212
21
0.4328715354330708
0
LINE
8
BLACK
6
CONTINUOUS
10
0.8876549606299212
20
0.4328715354330708
11
0.8832111811023622
21
0.4328715354330708
0
LINE
8
BLACK
6
CONTINUOUS
10
0.8832111811023622
20
0.4328715354330708
11
0.8790354330708661
21
0.4343914173228346
0
LINE
8
BLACK
6
CONTINUOUS
10
0.8790354330708661
20
0.4343914173228346
11
0.8756313385826772
21
0.4372477952755905
0
LINE
8
BLACK
6
CONTINUOUS
10
0.8756313385826772
20
0.4372477952755905
11
0.8734094488188976
21
0.4410961811023622
0
LINE
8
BLACK
6
CONTINUOUS
10
0.8734094488188976
20
0.4410961811023622
11
0.8726377952755905
21
0.4454724409448819
0
LINE
8
BLACK
6
CONTINUOUS
10
0.8726377952755905
20
0.4454724409448819
11
0.8734094488188976
21
0.4498487007874016
0
LINE
8
BLACK
6
CONTINUOUS
10
0.8734094488188976
20
0.4498487007874016
11
0.8756313385826772
21
0.4536970866141732
0
LINE
8
BLACK
6
CONTINUOUS
10
0.8756313385826772
20
0.4536970866141732
11
0.8790354330708661
21
0.4565534645669291
0
LINE
8
BLACK
6
CONTINUOUS
10
0.8790354330708661
20
0.4565534645669291
11
0.8832111811023622
21
0.4580733464566929
0
LINE
8
BLACK
6
CONTINUOUS
10
0.8832111811023622
20
0.4580733464566929
11
0.8876549606299212
21
0.4580733464566929
0
LINE
8
BLACK
6
CONTINUOUS
10
0.8876549606299212
20
0.4580733464566929
11
0.8918307086614173
21
0.4565534645669291
0
LINE
8
BLACK
6
CONTINUOUS
10
1.0823622047244095
20
0.4518897637795276
11
1.0223622047244094
21
0.4518897637795276
0
LINE
8
BLACK
6
CONTINUOUS
10
1.0223622047244094
20
0.4518897637795276
11
1.0223622047244094
21
0.5118897637795276
0
LINE
8
BLACK
6
CONTINUOUS
10
1.0223622047244094
20
0.5118897637795276
11
1.0823622047244095
21
0.5118897637795276
0
LINE
8
BLACK
6
CONTINUOUS
10
1.0823622047244095
20
0.5118897637795276
11
1.0823622047244095
21
0.4518897637795276
0
LINE
8
BLACK
6
CONTINUOUS
10
1.1823622047244093
20
0.4518897637795276
11
1.1223622047244095
21
0.4518897637795276
0
LINE
8
BLACK
6
CONTINUOUS
10
1.1223622047244095
20
0.4518897637795276
11
1.1223622047244095
21
0.5118897637795276
0
LINE
8
BLACK
6
CONTINUOUS
10
1.1223622047244095
20
0.5118897637795276
11
1.1823622047244093
21
0.5118897637795276
0
LINE
8
BLACK
6
CONTINUOUS
10
1.1823622047244093
20
0.5118897637795276
11
1.1823622047244093
21
0.4518897637795276
0
LINE
8
BLACK
6
CONTINUOUS
10
1.5823622047244095
20
0.4558267716535433
11
1.5223622047244094
21
0.4558267716535433
0
LINE
8
BLACK
6
CONTINUOUS
10
1.5223622047244094
20
0.4558267716535433
11
1.5223622047244094
21
0.5158267716535433
0
LINE
8
BLACK
6
CONTINUOUS
10
1.5223622047244094
20
0.5158267716535433
11
1.5823622047244095
21
0.5158267716535433
0
LINE
8
BLACK
6
CONTINUOUS
10
1.5823622047244095
20
0.5158267716535433
11
1.5823622047244095
21
0.4558267716535433
0
LINE
8
BLACK
6
CONTINUOUS
10
1.6823622047244093
20
0.4558267716535433
11
1.6223622047244095
21
0.4558267716535433
0
LINE
8
BLACK
6
CONTINUOUS
10
1.6223622047244095
20
0.4558267716535433
11
1.6223622047244095
21
0.5158267716535433
0
LINE
8
BLACK
6
CONTINUOUS
10
1.6223622047244095
20
0.5158267716535433
11
1.6823622047244093
21
0.5158267716535433
0
LINE
8
BLACK
6
CONTINUOUS
10
1.6823622047244093
20
0.5158267716535433
11
1.6823622047244093
21
0.4558267716535433
0
LINE
8
BLACK
6
CONTINUOUS
10
1.458419527559055
20
0.7003561023622047
11
1.4657456692913386
21
0.6984592519685039
0
LINE
8
BLACK
6
CONTINUOUS
10
1.4657456692913386
20
0.6984592519685039
11
1.47254
21
0.6951264566929134
0
LINE
8
BLACK
6
CONTINUOUS
10
1.47254
20
0.6951264566929134
11
1.47852437007874
21
0.6904942125984251
0
LINE
8
BLACK
6
CONTINUOUS
10
1.47852437007874
20
0.6904942125984251
11
1.4834537401574803
21
0.6847521653543307
0
LINE
8
BLACK
6
CONTINUOUS
10
1.4834537401574803
20
0.6847521653543307
11
1.4871263779527559
21
0.6781353543307086
0
LINE
8
BLACK
6
CONTINUOUS
10
1.4871263779527559
20
0.6781353543307086
11
1.4893918503937007
21
0.6709147244094488
0
LINE
8
BLACK
6
CONTINUOUS
10
1.4893918503937007
20
0.6709147244094488
11
1.4901574803149606
21
0.6633858267716535
0
LINE
8
BLACK
6
CONTINUOUS
10
1.4901574803149606
20
0.6633858267716535
11
1.4901574803149606
21
0.6437007874015748
0
LINE
8
BLACK
6
CONTINUOUS
10
1.4901574803149606
20
0.6437007874015748
11
1.4899655905511811
21
0.6399169291338582
0
LINE
8
BLACK
6
CONTINUOUS
10
1.4899655905511811
20
0.6399169291338582
11
1.4884422047244095
21
0.6325041338582676
0
LINE
8
BLACK
6
CONTINUOUS
10
1.4884422047244095
20
0.6325041338582676
11
1.4854578346456693
21
0.6255497244094488
0
LINE
8
BLACK
6
CONTINUOUS
10
1.4854578346456693
20
0.6255497244094488
11
1.4811346456692913
21
0.6193384251968503
0
LINE
8
BLACK
6
CONTINUOUS
10
1.4811346456692913
20
0.6193384251968503
11
1.4756496456692914
21
0.6141245275590551
0
LINE
8
BLACK
6
CONTINUOUS
10
1.4756496456692914
20
0.6141245275590551
11
1.4692273228346457
21
0.6101214960629922
0
LINE
8
BLACK
6
CONTINUOUS
10
1.4692273228346457
20
0.6101214960629922
11
1.4621307086614173
21
0.6074931889763779
0
LINE
8
BLACK
6
CONTINUOUS
10
1.4621307086614173
20
0.6074931889763779
11
1.454650275590551
21
0.6063472047244094
0
LINE
8
BLACK
6
CONTINUOUS
10
1.454650275590551
20
0.6063472047244094
11
1.447092283464567
21
0.6067305118110236
0
LINE
8
BLACK
6
CONTINUOUS
10
1.447092283464567
20
0.6067305118110236
11
1.4397661417322833
21
0.6086273622047244
0
LINE
8
BLACK
6
CONTINUOUS
10
1.4397661417322833
20
0.6086273622047244
11
1.432971811023622
21
0.611960157480315
0
LINE
8
BLACK
6
CONTINUOUS
10
1.432971811023622
20
0.611960157480315
11
1.4269874409448819
21
0.6165924015748031
0
LINE
8
BLACK
6
CONTINUOUS
10
1.4269874409448819
20
0.6165924015748031
11
1.4220580708661417
21
0.6223344488188977
0
LINE
8
BLACK
6
CONTINUOUS
10
1.4220580708661417
20
0.6223344488188977
11
1.4183854330708661
21
0.6289512598425196
0
LINE
8
BLACK
6
CONTINUOUS
10
1.4183854330708661
20
0.6289512598425196
11
1.4161199606299213
21
0.6361718897637795
0
LINE
8
BLACK
6
CONTINUOUS
10
1.4161199606299213
20
0.6361718897637795
11
1.4153543307086613
21
0.6437007874015748
0
LINE
8
BLACK
6
CONTINUOUS
10
1.4153543307086613
20
0.6437007874015748
11
1.4153543307086613
21
0.6633858267716535
0
LINE
8
BLACK
6
CONTINUOUS
10
1.4153543307086613
20
0.6633858267716535
11
1.4155462204724409
21
0.66716968503937
0
LINE
8
BLACK
6
CONTINUOUS
10
1.4155462204724409
20
0.66716968503937
11
1.4170696062992125
21
0.6745824803149606
0
LINE
8
BLACK
6
CONTINUOUS
10
1.4170696062992125
20
0.6745824803149606
11
1.4200539763779527
21
0.6815368897637795
0
LINE
8
BLACK
6
CONTINUOUS
10
1.4200539763779527
20
0.6815368897637795
11
1.4243771653543307
21
0.6877481889763779
0
LINE
8
BLACK
6
CONTINUOUS
10
1.4243771653543307
20
0.6877481889763779
11
1.4298621653543306
21
0.6929620866141732
0
LINE
8
BLACK
6
CONTINUOUS
10
1.4298621653543306
20
0.6929620866141732
11
1.4362844881889762
21
0.6969651181102362
0
LINE
8
BLACK
6
CONTINUOUS
10
1.4362844881889762
20
0.6969651181102362
11
1.4433811023622047
21
0.6995934251968504
0
LINE
8
BLACK
6
CONTINUOUS
10
1.4433811023622047
20
0.6995934251968504
11
1.4508615354330707
21
0.7007394094488189
0
LINE
8
BLACK
6
CONTINUOUS
10
1.4508615354330707
20
0.7007394094488189
11
1.458419527559055
21
0.7003561023622047
0
LINE
8
BLACK
6
CONTINUOUS
10
1.663143937007874
20
0.7003561023622047
11
1.6704700787401574
21
0.6984592519685039
0
LINE
8
BLACK
6
CONTINUOUS
10
1.6704700787401574
20
0.6984592519685039
11
1.6772644094488189
21
0.6951264566929134
0
LINE
8
BLACK
6
CONTINUOUS
10
1.6772644094488189
20
0.6951264566929134
11
1.683248779527559
21
0.6904942125984251
0
LINE
8
BLACK
6
CONTINUOUS
10
1.683248779527559
20
0.6904942125984251
11
1.6881781496062991
21
0.6847521653543307
0
LINE
8
BLACK
6
CONTINUOUS
10
1.6881781496062991
20
0.6847521653543307
11
1.6918507874015747
21
0.6781353543307086
0
LINE
8
BLACK
6
CONTINUOUS
10
1.6918507874015747
20
0.6781353543307086
11
1.6941162598425197
21
0.6709147244094488
0
LINE
8
BLACK
6
CONTINUOUS
10
1.6941162598425197
20
0.6709147244094488
11
1.6948818897637794
21
0.6633858267716535
0
LINE
8
BLACK
6
CONTINUOUS
10
1.6948818897637794
20
0.6633858267716535
11
1.6948818897637794
21
0.6437007874015748
0
LINE
8
BLACK
6
CONTINUOUS
10
1.6948818897637794
20
0.6437007874015748
11
1.69469
21
0.6399169291338582
0
LINE
8
BLACK
6
CONTINUOUS
10
1.69469
20
0.6399169291338582
11
1.6931666141732282
21
0.6325041338582676
0
LINE
8
BLACK
6
CONTINUOUS
10
1.6931666141732282
20
0.6325041338582676
11
1.6901822440944883
21
0.6255497244094488
0
LINE
8
BLACK
6
CONTINUOUS
10
1.6901822440944883
20
0.6255497244094488
11
1.6858590551181103
21
0.6193384251968503
0
LINE
8
BLACK
6
CONTINUOUS
10
1.6858590551181103
20
0.6193384251968503
11
1.6803740551181101
21
0.6141245275590551
0
LINE
8
BLACK
6
CONTINUOUS
10
1.6803740551181101
20
0.6141245275590551
11
1.6739517322834645
21
0.6101214960629922
0
LINE
8
BLACK
6
CONTINUOUS
10
1.6739517322834645
20
0.6101214960629922
11
1.6668551181102362
21
0.6074931889763779
0
LINE
8
BLACK
6
CONTINUOUS
10
1.6668551181102362
20
0.6074931889763779
11
1.65937468503937
21
0.6063472047244094
0
LINE
8
BLACK
6
CONTINUOUS
10
1.65937468503937
20
0.6063472047244094
11
1.6518166929133857
21
0.6067305118110236
0
LINE
8
BLACK
6
CONTINUOUS
10
1.6518166929133857
20
0.6067305118110236
11
1.6444905511811023
21
0.6086273622047244
0
LINE
8
BLACK
6
CONTINUOUS
10
1.6444905511811023
20
0.6086273622047244
11
1.637696220472441
21
0.611960157480315
0
LINE
8
BLACK
6
CONTINUOUS
10
1.637696220472441
20
0.611960157480315
11
1.6317118503937007
21
0.6165924015748031
0
LINE
8
BLACK
6
CONTINUOUS
10
1.6317118503937007
20
0.6165924015748031
11
1.6267824803149606
21
0.6223344488188977
0
LINE
8
BLACK
6
CONTINUOUS
10
1.6267824803149606
20
0.6223344488188977
11
1.623109842519685
21
0.6289512598425196
0
LINE
8
BLACK
6
CONTINUOUS
10
1.623109842519685
20
0.6289512598425196
11
1.62084437007874
21
0.6361718897637795
0
LINE
8
BLACK
6
CONTINUOUS
10
1.62084437007874
20
0.6361718897637795
11
1.6200787401574803
21
0.6437007874015748
0
LINE
8
BLACK
6
CONTINUOUS
10
1.6200787401574803
20
0.6437007874015748
11
1.6200787401574803
21
0.6633858267716535
0
LINE
8
BLACK
6
CONTINUOUS
10
1.6200787401574803
20
0.6633858267716535
11
1.6202706299212597
21
0.66716968503937
0
LINE
8
BLACK
6
CONTINUOUS
10
1.6202706299212597
20
0.66716968503937
11
1.6217940157480315
21
0.6745824803149606
0
LINE
8
BLACK
6
CONTINUOUS
10
1.6217940157480315
20
0.6745824803149606
11
1.6247783858267717
21
0.6815368897637795
0
LINE
8
BLACK
6
CONTINUOUS
10
1.6247783858267717
20
0.6815368897637795
11
1.6291015748031497
21
0.6877481889763779
0
LINE
8
BLACK
6
CONTINUOUS
10
1.6291015748031497
20
0.6877481889763779
11
1.6345865748031496
21
0.6929620866141732
0
LINE
8
BLACK
6
CONTINUOUS
10
1.6345865748031496
20
0.6929620866141732
11
1.6410088976377952
21
0.6969651181102362
0
LINE
8
BLACK
6
CONTINUOUS
10
1.6410088976377952
20
0.6969651181102362
11
1.6481055118110235
21
0.6995934251968504
0
LINE
8
BLACK
6
CONTINUOUS
10
1.6481055118110235
20
0.6995934251968504
11
1.6555859448818897
21
0.7007394094488189
0
LINE
8
BLACK
6
CONTINUOUS
10
1.6555859448818897
20
0.7007394094488189
11
1.663143937007874
21
0.7003561023622047
0
LINE
8
BLACK
6
CONTINUOUS
10
0.3208661417322834
20
0.6535433070866141
11
0.2795275590551181
21
0.6535433070866141
0
LINE
8
BLACK
6
CONTINUOUS
10
0.2795275590551181
20
0.6535433070866141
11
0.2795275590551181
21
0.6791338582677166
0
LINE
8
BLACK
6
CONTINUOUS
10
0.2795275590551181
20
0.6791338582677166
11
0.3208661417322834
21
0.6791338582677166
0
LINE
8
BLACK
6
CONTINUOUS
10
0.3208661417322834
20
0.6791338582677166
11
0.3208661417322834
21
0.6535433070866141
0
LINE
8
BLACK
6
CONTINUOUS
10
0.484251968503937
20
0.6535433070866141
11
0.4429133858267716
21
0.6535433070866141
0
LINE
8
BLACK
6
CONTINUOUS
10
0.4429133858267716
20
0.6535433070866141
11
0.4429133858267716
21
0.6791338582677166
0
LINE
8
BLACK
6
CONTINUOUS
10
0.4429133858267716
20
0.6791338582677166
11
0.484251968503937
21
0.6791338582677166
0
LINE
8
BLACK
6
CONTINUOUS
10
0.484251968503937
20
0.6791338582677166
11
0.484251968503937
21
0.6535433070866141
0
LINE
8
BLACK
6
CONTINUOUS
10
1.9547244094488188
20
0.6535433070866141
11
1.9133858267716535
21
0.6535433070866141
0
LINE
8
BLACK
6
CONTINUOUS
10
1.9133858267716535
20
0.6535433070866141
11
1.9133858267716535
21
0.6791338582677166
0
LINE
8
BLACK
6
CONTINUOUS
10
1.9133858267716535
20
0.6791338582677166
11
1.9547244094488188
21
0.6791338582677166
0
LINE
8
BLACK
6
CONTINUOUS
10
1.9547244094488188
20
0.6791338582677166
11
1.9547244094488188
21
0.6535433070866141
0
LINE
8
BLACK
6
CONTINUOUS
10
2.1171259842519685
20
0.6535433070866141
11
2.0757874015748032
21
0.6535433070866141
0
LINE
8
BLACK
6
CONTINUOUS
10
2.0757874015748032
20
0.6535433070866141
11
2.0757874015748032
21
0.6791338582677166
0
LINE
8
BLACK
6
CONTINUOUS
10
2.0757874015748032
20
0.6791338582677166
11
2.1171259842519685
21
0.6791338582677166
0
LINE
8
BLACK
6
CONTINUOUS
10
2.1171259842519685
20
0.6791338582677166
11
2.1171259842519685
21
0.6535433070866141
0
LINE
8
BLACK
6
CONTINUOUS
10
0.3218503937007874
20
0.7381889763779528
11
0.280511811023622
21
0.7381889763779528
0
LINE
8
BLACK
6
CONTINUOUS
10
0.280511811023622
20
0.7381889763779528
11
0.280511811023622
21
0.7637795275590551
0
LINE
8
BLACK
6
CONTINUOUS
10
0.280511811023622
20
0.7637795275590551
11
0.3218503937007874
21
0.7637795275590551
0
LINE
8
BLACK
6
CONTINUOUS
10
0.3218503937007874
20
0.7637795275590551
11
0.3218503937007874
21
0.7381889763779528
0
LINE
8
BLACK
6
CONTINUOUS
10
0.484251968503937
20
0.7381889763779528
11
0.4429133858267716
21
0.7381889763779528
0
LINE
8
BLACK
6
CONTINUOUS
10
0.4429133858267716
20
0.7381889763779528
11
0.4429133858267716
21
0.7637795275590551
0
LINE
8
BLACK
6
CONTINUOUS
10
0.4429133858267716
20
0.7637795275590551
11
0.484251968503937
21
0.7637795275590551
0
LINE
8
BLACK
6
CONTINUOUS
10
0.484251968503937
20
0.7637795275590551
11
0.484251968503937
21
0.7381889763779528
0
LINE
8
BLACK
6
CONTINUOUS
10
1.9547244094488188
20
0.7381889763779528
11
1.9133858267716535
21
0.7381889763779528
0
LINE
8
BLACK
6
CONTINUOUS
10
1.9133858267716535
20
0.7381889763779528
11
1.9133858267716535
21
0.7637795275590551
0
LINE
8
BLACK
6
CONTINUOUS
10
1.9133858267716535
20
0.7637795275590551
11
1.9547244094488188
21
0.7637795275590551
0
LINE
8
BLACK
6
CONTINUOUS
10
1.9547244094488188
20
0.7637795275590551
11
1.9547244094488188
21
0.7381889763779528
0
LINE
8
BLACK
6
CONTINUOUS
10
2.1181102362204722
20
0.7381889763779528
11
2.076771653543307
21
0.7381889763779528
0
LINE
8
BLACK
6
CONTINUOUS
10
2.076771653543307
20
0.7381889763779528
11
2.076771653543307
21
0.7637795275590551
0
LINE
8
BLACK
6
CONTINUOUS
10
2.076771653543307
20
0.7637795275590551
11
2.1181102362204722
21
0.7637795275590551
0
LINE
8
BLACK
6
CONTINUOUS
10
2.1181102362204722
20
0.7637795275590551
11
2.1181102362204722
21
0.7381889763779528
0
LINE
8
BLACK
6
CONTINUOUS
10
0.3646456692913386
20
0.8495275590551181
11
0.3046456692913386
21
0.8495275590551181
0
LINE
8
BLACK
6
CONTINUOUS
10
0.3046456692913386
20
0.8495275590551181
11
0.3046456692913386
21
0.9095275590551181
0
LINE
8
BLACK
6
CONTINUOUS
10
0.3046456692913386
20
0.9095275590551181
11
0.3646456692913386
21
0.9095275590551181
0
LINE
8
BLACK
6
CONTINUOUS
10
0.3646456692913386
20
0.9095275590551181
11
0.3646456692913386
21
0.8495275590551181
0
LINE
8
BLACK
6
CONTINUOUS
10
0.4646456692913385
20
0.8495275590551181
11
0.4046456692913385
21
0.8495275590551181
0
LINE
8
BLACK
6
CONTINUOUS
10
0.4046456692913385
20
0.8495275590551181
11
0.4046456692913385
21
0.9095275590551181
0
LINE
8
BLACK
6
CONTINUOUS
10
0.4046456692913385
20
0.9095275590551181
11
0.4646456692913385
21
0.9095275590551181
0
LINE
8
BLACK
6
CONTINUOUS
10
0.4646456692913385
20
0.9095275590551181
11
0.4646456692913385
21
0.8495275590551181
0
LINE
8
BLACK
6
CONTINUOUS
10
1.9969291338582678
20
0.8511023622047243
11
1.9369291338582677
21
0.8511023622047243
0
LINE
8
BLACK
6
CONTINUOUS
10
1.9369291338582677
20
0.8511023622047243
11
1.9369291338582677
21
0.9111023622047244
0
LINE
8
BLACK
6
CONTINUOUS
10
1.9369291338582677
20
0.9111023622047244
11
1.9969291338582678
21
0.9111023622047244
0
LINE
8
BLACK
6
CONTINUOUS
10
1.9969291338582678
20
0.9111023622047244
11
1.9969291338582678
21
0.8511023622047243
0
LINE
8
BLACK
6
CONTINUOUS
10
2.0969291338582678
20
0.8511023622047243
11
2.0369291338582678
21
0.8511023622047243
0
LINE
8
BLACK
6
CONTINUOUS
10
2.0369291338582678
20
0.8511023622047243
11
2.0369291338582678
21
0.9111023622047244
0
LINE
8
BLACK
6
CONTINUOUS
10
2.0369291338582678
20
0.9111023622047244
11
2.0969291338582678
21
0.9111023622047244
0
LINE
8
BLACK
6
CONTINUOUS
10
2.0969291338582678
20
0.9111023622047244
11
2.0969291338582678
21
0.8511023622047243
0
LINE
8
BLACK
6
CONTINUOUS
10
0.3646456692913386
20
0.9495275590551181
11
0.3046456692913386
21
0.9495275590551181
0
LINE
8
BLACK
6
CONTINUOUS
10
0.3046456692913386
20
0.9495275590551181
11
0.3046456692913386
21
1.009527559055118
0
LINE
8
BLACK
6
CONTINUOUS
10
0.3046456692913386
20
1.009527559055118
11
0.3646456692913386
21
1.009527559055118
0
LINE
8
BLACK
6
CONTINUOUS
10
0.3646456692913386
20
1.009527559055118
11
0.3646456692913386
21
0.9495275590551181
0
LINE
8
BLACK
6
CONTINUOUS
10
0.4646456692913385
20
0.9495275590551181
11
0.4046456692913385
21
0.9495275590551181
0
LINE
8
BLACK
6
CONTINUOUS
10
0.4046456692913385
20
0.9495275590551181
11
0.4046456692913385
21
1.009527559055118
0
LINE
8
BLACK
6
CONTINUOUS
10
0.4046456692913385
20
1.009527559055118
11
0.4646456692913385
21
1.009527559055118
0
LINE
8
BLACK
6
CONTINUOUS
10
0.4646456692913385
20
1.009527559055118
11
0.4646456692913385
21
0.9495275590551181
0
LINE
8
BLACK
6
CONTINUOUS
10
1.9969291338582678
20
0.9511023622047244
11
1.9369291338582677
21
0.9511023622047244
0
LINE
8
BLACK
6
CONTINUOUS
10
1.9369291338582677
20
0.9511023622047244
11
1.9369291338582677
21
1.0111023622047244
0
LINE
8
BLACK
6
CONTINUOUS
10
1.9369291338582677
20
1.0111023622047244
11
1.9969291338582678
21
1.0111023622047244
0
LINE
8
BLACK
6
CONTINUOUS
10
1.9969291338582678
20
1.0111023622047244
11
1.9969291338582678
21
0.9511023622047244
0
LINE
8
BLACK
6
CONTINUOUS
10
2.0969291338582678
20
0.9511023622047244
11
2.0369291338582678
21
0.9511023622047244
0
LINE
8
BLACK
6
CONTINUOUS
10
2.0369291338582678
20
0.9511023622047244
11
2.0369291338582678
21
1.0111023622047244
0
LINE
8
BLACK
6
CONTINUOUS
10
2.0369291338582678
20
1.0111023622047244
11
2.0969291338582678
21
1.0111023622047244
0
LINE
8
BLACK
6
CONTINUOUS
10
2.0969291338582678
20
1.0111023622047244
11
2.0969291338582678
21
0.9511023622047244
0
LINE
8
BLACK
6
CONTINUOUS
10
0.3646456692913386
20
1.0495275590551181
11
0.3046456692913386
21
1.0495275590551181
0
LINE
8
BLACK
6
CONTINUOUS
10
0.3046456692913386
20
1.0495275590551181
11
0.3046456692913386
21
1.1095275590551181
0
LINE
8
BLACK
6
CONTINUOUS
10
0.3046456692913386
20
1.1095275590551181
11
0.3646456692913386
21
1.1095275590551181
0
LINE
8
BLACK
6
CONTINUOUS
10
0.3646456692913386
20
1.1095275590551181
11
0.3646456692913386
21
1.0495275590551181
0
LINE
8
BLACK
6
CONTINUOUS
10
0.4646456692913385
20
1.0495275590551181
11
0.4046456692913385
21
1.0495275590551181
0
LINE
8
BLACK
6
CONTINUOUS
10
0.4046456692913385
20
1.0495275590551181
11
0.4046456692913385
21
1.1095275590551181
0
LINE
8
BLACK
6
CONTINUOUS
10
0.4046456692913385
20
1.1095275590551181
11
0.4646456692913385
21
1.1095275590551181
0
LINE
8
BLACK
6
CONTINUOUS
10
0.4646456692913385
20
1.1095275590551181
11
0.4646456692913385
21
1.0495275590551181
0
LINE
8
BLACK
6
CONTINUOUS
10
1.9969291338582678
20
1.0511023622047244
11
1.9369291338582677
21
1.0511023622047244
0
LINE
8
BLACK
6
CONTINUOUS
10
1.9369291338582677
20
1.0511023622047244
11
1.9369291338582677
21
1.1111023622047245
0
LINE
8
BLACK
6
CONTINUOUS
10
1.9369291338582677
20
1.1111023622047245
11
1.9969291338582678
21
1.1111023622047245
0
LINE
8
BLACK
6
CONTINUOUS
10
1.9969291338582678
20
1.1111023622047245
11
1.9969291338582678
21
1.0511023622047244
0
LINE
8
BLACK
6
CONTINUOUS
10
2.0969291338582678
20
1.0511023622047244
11
2.0369291338582678
21
1.0511023622047244
0
LINE
8
BLACK
6
CONTINUOUS
10
2.0369291338582678
20
1.0511023622047244
11
2.0369291338582678
21
1.1111023622047245
0
LINE
8
BLACK
6
CONTINUOUS
10
2.0369291338582678
20
1.1111023622047245
11
2.0969291338582678
21
1.1111023622047245
0
LINE
8
BLACK
6
CONTINUOUS
10
2.0969291338582678
20
1.1111023622047245
11
2.0969291338582678
21
1.0511023622047244
0
LINE
8
BLACK
6
CONTINUOUS
10
0.3646456692913386
20
1.1495275590551182
11
0.3046456692913386
21
1.1495275590551182
0
LINE
8
BLACK
6
CONTINUOUS
10
0.3046456692913386
20
1.1495275590551182
11
0.3046456692913386
21
1.209527559055118
0
LINE
8
BLACK
6
CONTINUOUS
10
0.3046456692913386
20
1.209527559055118
11
0.3646456692913386
21
1.209527559055118
0
LINE
8
BLACK
6
CONTINUOUS
10
0.3646456692913386
20
1.209527559055118
11
0.3646456692913386
21
1.1495275590551182
0
LINE
8
BLACK
6
CONTINUOUS
10
0.4646456692913385
20
1.1495275590551182
11
0.4046456692913385
21
1.1495275590551182
0
LINE
8
BLACK
6
CONTINUOUS
10
0.4046456692913385
20
1.1495275590551182
11
0.4046456692913385
21
1.209527559055118
0
LINE
8
BLACK
6
CONTINUOUS
10
0.4046456692913385
20
1.209527559055118
11
0.4646456692913385
21
1.209527559055118
0
LINE
8
BLACK
6
CONTINUOUS
10
0.4646456692913385
20
1.209527559055118
11
0.4646456692913385
21
1.1495275590551182
0
LINE
8
BLACK
6
CONTINUOUS
10
1.9969291338582678
20
1.1511023622047243
11
1.9369291338582677
21
1.1511023622047243
0
LINE
8
BLACK
6
CONTINUOUS
10
1.9369291338582677
20
1.1511023622047243
11
1.9369291338582677
21
1.2111023622047243
0
LINE
8
BLACK
6
CONTINUOUS
10
1.9369291338582677
20
1.2111023622047243
11
1.9969291338582678
21
1.2111023622047243
0
LINE
8
BLACK
6
CONTINUOUS
10
1.9969291338582678
20
1.2111023622047243
11
1.9969291338582678
21
1.1511023622047243
0
LINE
8
BLACK
6
CONTINUOUS
10
2.0969291338582678
20
1.1511023622047243
11
2.0369291338582678
21
1.1511023622047243
0
LINE
8
BLACK
6
CONTINUOUS
10
2.0369291338582678
20
1.1511023622047243
11
2.0369291338582678
21
1.2111023622047243
0
LINE
8
BLACK
6
CONTINUOUS
10
2.0369291338582678
20
1.2111023622047243
11
2.0969291338582678
21
1.2111023622047243
0
LINE
8
BLACK
6
CONTINUOUS
10
2.0969291338582678
20
1.2111023622047243
11
2.0969291338582678
21
1.1511023622047243
0
LINE
8
BLACK
6
CONTINUOUS
10
0.3646456692913386
20
1.249527559055118
11
0.3046456692913386
21
1.249527559055118
0
LINE
8
BLACK
6
CONTINUOUS
10
0.3046456692913386
20
1.249527559055118
11
0.3046456692913386
21
1.3095275590551181
0
LINE
8
BLACK
6
CONTINUOUS
10
0.3046456692913386
20
1.3095275590551181
11
0.3646456692913386
21
1.3095275590551181
0
LINE
8
BLACK
6
CONTINUOUS
10
0.3646456692913386
20
1.3095275590551181
11
0.3646456692913386
21
1.249527559055118
0
LINE
8
BLACK
6
CONTINUOUS
10
0.4646456692913385
20
1.249527559055118
11
0.4046456692913385
21
1.249527559055118
0
LINE
8
BLACK
6
CONTINUOUS
10
0.4046456692913385
20
1.249527559055118
11
0.4046456692913385
21
1.3095275590551181
0
LINE
8
BLACK
6
CONTINUOUS
10
0.4046456692913385
20
1.3095275590551181
11
0.4646456692913385
21
1.3095275590551181
0
LINE
8
BLACK
6
CONTINUOUS
10
0.4646456692913385
20
1.3095275590551181
11
0.4646456692913385
21
1.249527559055118
0
LINE
8
BLACK
6
CONTINUOUS
10
1.9969291338582678
20
1.2511023622047244
11
1.9369291338582677
21
1.2511023622047244
0
LINE
8
BLACK
6
CONTINUOUS
10
1.9369291338582677
20
1.2511023622047244
11
1.9369291338582677
21
1.3111023622047244
0
LINE
8
BLACK
6
CONTINUOUS
10
1.9369291338582677
20
1.3111023622047244
11
1.9969291338582678
21
1.3111023622047244
0
LINE
8
BLACK
6
CONTINUOUS
10
1.9969291338582678
20
1.3111023622047244
11
1.9969291338582678
21
1.2511023622047244
0
LINE
8
BLACK
6
CONTINUOUS
10
2.0969291338582678
20
1.2511023622047244
11
2.0369291338582678
21
1.2511023622047244
0
LINE
8
BLACK
6
CONTINUOUS
10
2.0369291338582678
20
1.2511023622047244
11
2.0369291338582678
21
1.3111023622047244
0
LINE
8
BLACK
6
CONTINUOUS
10
2.0369291338582678
20
1.3111023622047244
11
2.0969291338582678
21
1.3111023622047244
0
LINE
8
BLACK
6
CONTINUOUS
10
2.0969291338582678
20
1.3111023622047244
11
2.0969291338582678
21
1.2511023622047244
0
LINE
8
BLACK
6
CONTINUOUS
10
0.3646456692913386
20
1.3495275590551181
11
0.3046456692913386
21
1.3495275590551181
0
LINE
8
BLACK
6
CONTINUOUS
10
0.3046456692913386
20
1.3495275590551181
11
0.3046456692913386
21
1.4095275590551182
0
LINE
8
BLACK
6
CONTINUOUS
10
0.3046456692913386
20
1.4095275590551182
11
0.3646456692913386
21
1.4095275590551182
0
LINE
8
BLACK
6
CONTINUOUS
10
0.3646456692913386
20
1.4095275590551182
11
0.3646456692913386
21
1.3495275590551181
0
LINE
8
BLACK
6
CONTINUOUS
10
0.4646456692913385
20
1.3495275590551181
11
0.4046456692913385
21
1.3495275590551181
0
LINE
8
BLACK
6
CONTINUOUS
10
0.4046456692913385
20
1.3495275590551181
11
0.4046456692913385
21
1.4095275590551182
0
LINE
8
BLACK
6
CONTINUOUS
10
0.4046456692913385
20
1.4095275590551182
11
0.4646456692913385
21
1.4095275590551182
0
LINE
8
BLACK
6
CONTINUOUS
10
0.4646456692913385
20
1.4095275590551182
11
0.4646456692913385
21
1.3495275590551181
0
LINE
8
BLACK
6
CONTINUOUS
10
1.9969291338582678
20
1.3511023622047245
11
1.9369291338582677
21
1.3511023622047245
0
LINE
8
BLACK
6
CONTINUOUS
10
1.9369291338582677
20
1.3511023622047245
11
1.9369291338582677
21
1.4111023622047243
0
LINE
8
BLACK
6
CONTINUOUS
10
1.9369291338582677
20
1.4111023622047243
11
1.9969291338582678
21
1.4111023622047243
0
LINE
8
BLACK
6
CONTINUOUS
10
1.9969291338582678
20
1.4111023622047243
11
1.9969291338582678
21
1.3511023622047245
0
LINE
8
BLACK
6
CONTINUOUS
10
2.0969291338582678
20
1.3511023622047245
11
2.0369291338582678
21
1.3511023622047245
0
LINE
8
BLACK
6
CONTINUOUS
10
2.0369291338582678
20
1.3511023622047245
11
2.0369291338582678
21
1.4111023622047243
0
LINE
8
BLACK
6
CONTINUOUS
10
2.0369291338582678
20
1.4111023622047243
11
2.0969291338582678
21
1.4111023622047243
0
LINE
8
BLACK
6
CONTINUOUS
10
2.0969291338582678
20
1.4111023622047243
11
2.0969291338582678
21
1.3511023622047245
0
LINE
8
BLACK
6
CONTINUOUS
10
0.3646456692913386
20
1.449527559055118
11
0.3046456692913386
21
1.449527559055118
0
LINE
8
BLACK
6
CONTINUOUS
10
0.3046456692913386
20
1.449527559055118
11
0.3046456692913386
21
1.509527559055118
0
LINE
8
BLACK
6
CONTINUOUS
10
0.3046456692913386
20
1.509527559055118
11
0.3646456692913386
21
1.509527559055118
0
LINE
8
BLACK
6
CONTINUOUS
10
0.3646456692913386
20
1.509527559055118
11
0.3646456692913386
21
1.449527559055118
0
LINE
8
BLACK
6
CONTINUOUS
10
0.4646456692913385
20
1.449527559055118
11
0.4046456692913385
21
1.449527559055118
0
LINE
8
BLACK
6
CONTINUOUS
10
0.4046456692913385
20
1.449527559055118
11
0.4046456692913385
21
1.509527559055118
0
LINE
8
BLACK
6
CONTINUOUS
10
0.4046456692913385
20
1.509527559055118
11
0.4646456692913385
21
1.509527559055118
0
LINE
8
BLACK
6
CONTINUOUS
10
0.4646456692913385
20
1.509527559055118
11
0.4646456692913385
21
1.449527559055118
0
LINE
8
BLACK
6
CONTINUOUS
10
1.9969291338582678
20
1.4511023622047243
11
1.9369291338582677
21
1.4511023622047243
0
LINE
8
BLACK
6
CONTINUOUS
10
1.9369291338582677
20
1.4511023622047243
11
1.9369291338582677
21
1.5111023622047244
0
LINE
8
BLACK
6
CONTINUOUS
10
1.9369291338582677
20
1.5111023622047244
11
1.9969291338582678
21
1.5111023622047244
0
LINE
8
BLACK
6
CONTINUOUS
10
1.9969291338582678
20
1.5111023622047244
11
1.9969291338582678
21
1.4511023622047243
0
LINE
8
BLACK
6
CONTINUOUS
10
2.0969291338582678
20
1.4511023622047243
11
2.0369291338582678
21
1.4511023622047243
0
LINE
8
BLACK
6
CONTINUOUS
10
2.0369291338582678
20
1.4511023622047243
11
2.0369291338582678
21
1.5111023622047244
0
LINE
8
BLACK
6
CONTINUOUS
10
2.0369291338582678
20
1.5111023622047244
11
2.0969291338582678
21
1.5111023622047244
0
LINE
8
BLACK
6
CONTINUOUS
10
2.0969291338582678
20
1.5111023622047244
11
2.0969291338582678
21
1.4511023622047243
0
LINE
8
BLACK
6
CONTINUOUS
10
1.5116929133858268
20
1.5083858267716534
11
1.4516929133858267
21
1.5083858267716534
0
LINE
8
BLACK
6
CONTINUOUS
10
1.4516929133858267
20
1.5083858267716534
11
1.4516929133858267
21
1.5683858267716535
0
LINE
8
BLACK
6
CONTINUOUS
10
1.4516929133858267
20
1.5683858267716535
11
1.5116929133858268
21
1.5683858267716535
0
LINE
8
BLACK
6
CONTINUOUS
10
1.5116929133858268
20
1.5683858267716535
11
1.5116929133858268
21
1.5083858267716534
0
LINE
8
BLACK
6
CONTINUOUS
10
1.6116929133858267
20
1.5083858267716534
11
1.5516929133858268
21
1.5083858267716534
0
LINE
8
BLACK
6
CONTINUOUS
10
1.5516929133858268
20
1.5083858267716534
11
1.5516929133858268
21
1.5683858267716535
0
LINE
8
BLACK
6
CONTINUOUS
10
1.5516929133858268
20
1.5683858267716535
11
1.6116929133858267
21
1.5683858267716535
0
LINE
8
BLACK
6
CONTINUOUS
10
1.6116929133858267
20
1.5683858267716535
11
1.6116929133858267
21
1.5083858267716534
0
LINE
8
BLACK
6
CONTINUOUS
10
0.3646456692913386
20
1.5495275590551181
11
0.3046456692913386
21
1.5495275590551181
0
LINE
8
BLACK
6
CONTINUOUS
10
0.3046456692913386
20
1.5495275590551181
11
0.3046456692913386
21
1.6095275590551181
0
LINE
8
BLACK
6
CONTINUOUS
10
0.3046456692913386
20
1.6095275590551181
11
0.3646456692913386
21
1.6095275590551181
0
LINE
8
BLACK
6
CONTINUOUS
10
0.3646456692913386
20
1.6095275590551181
11
0.3646456692913386
21
1.5495275590551181
0
LINE
8
BLACK
6
CONTINUOUS
10
0.4646456692913385
20
1.5495275590551181
11
0.4046456692913385
21
1.5495275590551181
0
LINE
8
BLACK
6
CONTINUOUS
10
0.4046456692913385
20
1.5495275590551181
11
0.4046456692913385
21
1.6095275590551181
0
LINE
8
BLACK
6
CONTINUOUS
10
0.4046456692913385
20
1.6095275590551181
11
0.4646456692913385
21
1.6095275590551181
0
LINE
8
BLACK
6
CONTINUOUS
10
0.4646456692913385
20
1.6095275590551181
11
0.4646456692913385
21
1.5495275590551181
0
LINE
8
BLACK
6
CONTINUOUS
10
1.9969291338582678
20
1.5511023622047244
11
1.9369291338582677
21
1.5511023622047244
0
LINE
8
BLACK
6
CONTINUOUS
10
1.9369291338582677
20
1.5511023622047244
11
1.9369291338582677
21
1.6111023622047245
0
LINE
8
BLACK
6
CONTINUOUS
10
1.9369291338582677
20
1.6111023622047245
11
1.9969291338582678
21
1.6111023622047245
0
LINE
8
BLACK
6
CONTINUOUS
10
1.9969291338582678
20
1.6111023622047245
11
1.9969291338582678
21
1.5511023622047244
0
LINE
8
BLACK
6
CONTINUOUS
10
2.0969291338582678
20
1.5511023622047244
11
2.0369291338582678
21
1.5511023622047244
0
LINE
8
BLACK
6
CONTINUOUS
10
2.0369291338582678
20
1.5511023622047244
11
2.0369291338582678
21
1.6111023622047245
0
LINE
8
BLACK
6
CONTINUOUS
10
2.0369291338582678
20
1.6111023622047245
11
2.0969291338582678
21
1.6111023622047245
0
LINE
8
BLACK
6
CONTINUOUS
10
2.0969291338582678
20
1.6111023622047245
11
2.0969291338582678
21
1.5511023622047244
0
LINE
8
BLACK
6
CONTINUOUS
10
0.3646456692913386
20
1.6495275590551182
11
0.3046456692913386
21
1.6495275590551182
0
LINE
8
BLACK
6
CONTINUOUS
10
0.3046456692913386
20
1.6495275590551182
11
0.3046456692913386
21
1.709527559055118
0
LINE
8
BLACK
6
CONTINUOUS
10
0.3046456692913386
20
1.709527559055118
11
0.3646456692913386
21
1.709527559055118
0
LINE
8
BLACK
6
CONTINUOUS
10
0.3646456692913386
20
1.709527559055118
11
0.3646456692913386
21
1.6495275590551182
0
LINE
8
BLACK
6
CONTINUOUS
10
0.4646456692913385
20
1.6495275590551182
11
0.4046456692913385
21
1.6495275590551182
0
LINE
8
BLACK
6
CONTINUOUS
10
0.4046456692913385
20
1.6495275590551182
11
0.4046456692913385
21
1.709527559055118
0
LINE
8
BLACK
6
CONTINUOUS
10
0.4046456692913385
20
1.709527559055118
11
0.4646456692913385
21
1.709527559055118
0
LINE
8
BLACK
6
CONTINUOUS
10
0.4646456692913385
20
1.709527559055118
11
0.4646456692913385
21
1.6495275590551182
0
LINE
8
BLACK
6
CONTINUOUS
10
1.9969291338582678
20
1.6511023622047243
11
1.9369291338582677
21
1.6511023622047243
0
LINE
8
BLACK
6
CONTINUOUS
10
1.9369291338582677
20
1.6511023622047243
11
1.9369291338582677
21
1.7111023622047243
0
LINE
8
BLACK
6
CONTINUOUS
10
1.9369291338582677
20
1.7111023622047243
11
1.9969291338582678
21
1.7111023622047243
0
LINE
8
BLACK
6
CONTINUOUS
10
1.9969291338582678
20
1.7111023622047243
11
1.9969291338582678
21
1.6511023622047243
0
LINE
8
BLACK
6
CONTINUOUS
10
2.0969291338582678
20
1.6511023622047243
11
2.0369291338582678
21
1.6511023622047243
0
LINE
8
BLACK
6
CONTINUOUS
10
2.0369291338582678
20
1.6511023622047243
11
2.0369291338582678
21
1.7111023622047243
0
LINE
8
BLACK
6
CONTINUOUS
10
2.0369291338582678
20
1.7111023622047243
11
2.0969291338582678
21
1.7111023622047243
0
LINE
8
BLACK
6
CONTINUOUS
10
2.0969291338582678
20
1.7111023622047243
11
2.0969291338582678
21
1.6511023622047243
0
LINE
8
BLACK
6
CONTINUOUS
10
0.3646456692913386
20
1.749527559055118
11
0.3046456692913386
21
1.749527559055118
0
LINE
8
BLACK
6
CONTINUOUS
10
0.3046456692913386
20
1.749527559055118
11
0.3046456692913386
21
1.8095275590551181
0
LINE
8
BLACK
6
CONTINUOUS
10
0.3046456692913386
20
1.8095275590551181
11
0.3646456692913386
21
1.8095275590551181
0
LINE
8
BLACK
6
CONTINUOUS
10
0.3646456692913386
20
1.8095275590551181
11
0.3646456692913386
21
1.749527559055118
0
LINE
8
BLACK
6
CONTINUOUS
10
0.4646456692913385
20
1.749527559055118
11
0.4046456692913385
21
1.749527559055118
0
LINE
8
BLACK
6
CONTINUOUS
10
0.4046456692913385
20
1.749527559055118
11
0.4046456692913385
21
1.8095275590551181
0
LINE
8
BLACK
6
CONTINUOUS
10
0.4046456692913385
20
1.8095275590551181
11
0.4646456692913385
21
1.8095275590551181
0
LINE
8
BLACK
6
CONTINUOUS
10
0.4646456692913385
20
1.8095275590551181
11
0.4646456692913385
21
1.749527559055118
0
LINE
8
BLACK
6
CONTINUOUS
10
1.9969291338582678
20
1.7511023622047244
11
1.9369291338582677
21
1.7511023622047244
0
LINE
8
BLACK
6
CONTINUOUS
10
1.9369291338582677
20
1.7511023622047244
11
1.9369291338582677
21
1.8111023622047244
0
LINE
8
BLACK
6
CONTINUOUS
10
1.9369291338582677
20
1.8111023622047244
11
1.9969291338582678
21
1.8111023622047244
0
LINE
8
BLACK
6
CONTINUOUS
10
1.9969291338582678
20
1.8111023622047244
11
1.9969291338582678
21
1.7511023622047244
0
LINE
8
BLACK
6
CONTINUOUS
10
2.0969291338582678
20
1.7511023622047244
11
2.0369291338582678
21
1.7511023622047244
0
LINE
8
BLACK
6
CONTINUOUS
10
2.0369291338582678
20
1.7511023622047244
11
2.0369291338582678
21
1.8111023622047244
0
LINE
8
BLACK
6
CONTINUOUS
10
2.0369291338582678
20
1.8111023622047244
11
2.0969291338582678
21
1.8111023622047244
0
LINE
8
BLACK
6
CONTINUOUS
10
2.0969291338582678
20
1.8111023622047244
11
2.0969291338582678
21
1.7511023622047244
0
LINE
8
BLACK
6
CONTINUOUS
10
0.7065748031496063
20
1.7538582677165353
11
0.6465748031496062
21
1.7538582677165353
0
LINE
8
BLACK
6
CONTINUOUS
10
0.6465748031496062
20
1.7538582677165353
11
0.6465748031496062
21
1.8138582677165354
0
LINE
8
BLACK
6
CONTINUOUS
10
0.6465748031496062
20
1.8138582677165354
11
0.7065748031496063
21
1.8138582677165354
0
LINE
8
BLACK
6
CONTINUOUS
10
0.7065748031496063
20
1.8138582677165354
11
0.7065748031496063
21
1.7538582677165353
0
LINE
8
BLACK
6
CONTINUOUS
10
0.8065748031496063
20
1.7538582677165353
11
0.7465748031496063
21
1.7538582677165353
0
LINE
8
BLACK
6
CONTINUOUS
10
0.7465748031496063
20
1.7538582677165353
11
0.7465748031496063
21
1.8138582677165354
0
LINE
8
BLACK
6
CONTINUOUS
10
0.7465748031496063
20
1.8138582677165354
11
0.8065748031496063
21
1.8138582677165354
0
LINE
8
BLACK
6
CONTINUOUS
10
0.8065748031496063
20
1.8138582677165354
11
0.8065748031496063
21
1.7538582677165353
0
LINE
8
BLACK
6
CONTINUOUS
10
0.9065748031496063
20
1.7538582677165353
11
0.8465748031496063
21
1.7538582677165353
0
LINE
8
BLACK
6
CONTINUOUS
10
0.8465748031496063
20
1.7538582677165353
11
0.8465748031496063
21
1.8138582677165354
0
LINE
8
BLACK
6
CONTINUOUS
10
0.8465748031496063
20
1.8138582677165354
11
0.9065748031496063
21
1.8138582677165354
0
LINE
8
BLACK
6
CONTINUOUS
10
0.9065748031496063
20
1.8138582677165354
11
0.9065748031496063
21
1.7538582677165353
0
LINE
8
BLACK
6
CONTINUOUS
10
1.0065748031496062
20
1.7538582677165353
11
0.9465748031496063
21
1.7538582677165353
0
LINE
8
BLACK
6
CONTINUOUS
10
0.9465748031496063
20
1.7538582677165353
11
0.9465748031496063
21
1.8138582677165354
0
LINE
8
BLACK
6
CONTINUOUS
10
0.9465748031496063
20
1.8138582677165354
11
1.0065748031496062
21
1.8138582677165354
0
LINE
8
BLACK
6
CONTINUOUS
10
1.0065748031496062
20
1.8138582677165354
11
1.0065748031496062
21
1.7538582677165353
0
LINE
8
BLACK
6
CONTINUOUS
10
1.1065748031496063
20
1.7538582677165353
11
1.0465748031496063
21
1.7538582677165353
0
LINE
8
BLACK
6
CONTINUOUS
10
1.0465748031496063
20
1.7538582677165353
11
1.0465748031496063
21
1.8138582677165354
0
LINE
8
BLACK
6
CONTINUOUS
10
1.0465748031496063
20
1.8138582677165354
11
1.1065748031496063
21
1.8138582677165354
0
LINE
8
BLACK
6
CONTINUOUS
10
1.1065748031496063
20
1.8138582677165354
11
1.1065748031496063
21
1.7538582677165353
0
LINE
8
BLACK
6
CONTINUOUS
10
1.2065748031496062
20
1.7538582677165353
11
1.1465748031496064
21
1.7538582677165353
0
LINE
8
BLACK
6
CONTINUOUS
10
1.1465748031496064
20
1.7538582677165353
11
1.1465748031496064
21
1.8138582677165354
0
LINE
8
BLACK
6
CONTINUOUS
10
1.1465748031496064
20
1.8138582677165354
11
1.2065748031496062
21
1.8138582677165354
0
LINE
8
BLACK
6
CONTINUOUS
10
1.2065748031496062
20
1.8138582677165354
11
1.2065748031496062
21
1.7538582677165353
0
LINE
8
BLACK
6
CONTINUOUS
10
1.3065748031496063
20
1.7538582677165353
11
1.2465748031496062
21
1.7538582677165353
0
LINE
8
BLACK
6
CONTINUOUS
10
1.2465748031496062
20
1.7538582677165353
11
1.2465748031496062
21
1.8138582677165354
0
LINE
8
BLACK
6
CONTINUOUS
10
1.2465748031496062
20
1.8138582677165354
11
1.3065748031496063
21
1.8138582677165354
0
LINE
8
BLACK
6
CONTINUOUS
10
1.3065748031496063
20
1.8138582677165354
11
1.3065748031496063
21
1.7538582677165353
0
LINE
8
BLACK
6
CONTINUOUS
10
1.4065748031496064
20
1.7538582677165353
11
1.3465748031496063
21
1.7538582677165353
0
LINE
8
BLACK
6
CONTINUOUS
10
1.3465748031496063
20
1.7538582677165353
11
1.3465748031496063
21
1.8138582677165354
0
LINE
8
BLACK
6
CONTINUOUS
10
1.3465748031496063
20
1.8138582677165354
11
1.4065748031496064
21
1.8138582677165354
0
LINE
8
BLACK
6
CONTINUOUS
10
1.4065748031496064
20
1.8138582677165354
11
1.4065748031496064
21
1.7538582677165353
0
LINE
8
BLACK
6
CONTINUOUS
10
1.5065748031496062
20
1.7538582677165353
11
1.4465748031496062
21
1.7538582677165353
0
LINE
8
BLACK
6
CONTINUOUS
10
1.4465748031496062
20
1.7538582677165353
11
1.4465748031496062
21
1.8138582677165354
0
LINE
8
BLACK
6
CONTINUOUS
10
1.4465748031496062
20
1.8138582677165354
11
1.5065748031496062
21
1.8138582677165354
0
LINE
8
BLACK
6
CONTINUOUS
10
1.5065748031496062
20
1.8138582677165354
11
1.5065748031496062
21
1.7538582677165353
0
LINE
8
BLACK
6
CONTINUOUS
10
1.6065748031496063
20
1.7538582677165353
11
1.5465748031496063
21
1.7538582677165353
0
LINE
8
BLACK
6
CONTINUOUS
10
1.5465748031496063
20
1.7538582677165353
11
1.5465748031496063
21
1.8138582677165354
0
LINE
8
BLACK
6
CONTINUOUS
10
1.5465748031496063
20
1.8138582677165354
11
1.6065748031496063
21
1.8138582677165354
0
LINE
8
BLACK
6
CONTINUOUS
10
1.6065748031496063
20
1.8138582677165354
11
1.6065748031496063
21
1.7538582677165353
0
LINE
8
BLACK
6
CONTINUOUS
10
1.7065748031496062
20
1.7538582677165353
11
1.6465748031496064
21
1.7538582677165353
0
LINE
8
BLACK
6
CONTINUOUS
10
1.6465748031496064
20
1.7538582677165353
11
1.6465748031496064
21
1.8138582677165354
0
LINE
8
BLACK
6
CONTINUOUS
10
1.6465748031496064
20
1.8138582677165354
11
1.7065748031496062
21
1.8138582677165354
0
LINE
8
BLACK
6
CONTINUOUS
10
1.7065748031496062
20
1.8138582677165354
11
1.7065748031496062
21
1.7538582677165353
0
LINE
8
BLACK
6
CONTINUOUS
10
1.8065748031496063
20
1.7538582677165353
11
1.7465748031496062
21
1.7538582677165353
0
LINE
8
BLACK
6
CONTINUOUS
10
1.7465748031496062
20
1.7538582677165353
11
1.7465748031496062
21
1.8138582677165354
0
LINE
8
BLACK
6
CONTINUOUS
10
1.7465748031496062
20
1.8138582677165354
11
1.8065748031496063
21
1.8138582677165354
0
LINE
8
BLACK
6
CONTINUOUS
10
1.8065748031496063
20
1.8138582677165354
11
1.8065748031496063
21
1.7538582677165353
0
LINE
8
BLACK
6
CONTINUOUS
10
0.7065748031496063
20
1.8538582677165354
11
0.6465748031496062
21
1.8538582677165354
0
LINE
8
BLACK
6
CONTINUOUS
10
0.6465748031496062
20
1.8538582677165354
11
0.6465748031496062
21
1.9138582677165354
0
LINE
8
BLACK
6
CONTINUOUS
10
0.6465748031496062
20
1.9138582677165354
11
0.7065748031496063
21
1.9138582677165354
0
LINE
8
BLACK
6
CONTINUOUS
10
0.7065748031496063
20
1.9138582677165354
11
0.7065748031496063
21
1.8538582677165354
0
LINE
8
BLACK
6
CONTINUOUS
10
0.8065748031496063
20
1.8538582677165354
11
0.7465748031496063
21
1.8538582677165354
0
LINE
8
BLACK
6
CONTINUOUS
10
0.7465748031496063
20
1.8538582677165354
11
0.7465748031496063
21
1.9138582677165354
0
LINE
8
BLACK
6
CONTINUOUS
10
0.7465748031496063
20
1.9138582677165354
11
0.8065748031496063
21
1.9138582677165354
0
LINE
8
BLACK
6
CONTINUOUS
10
0.8065748031496063
20
1.9138582677165354
11
0.8065748031496063
21
1.8538582677165354
0
LINE
8
BLACK
6
CONTINUOUS
10
0.9065748031496063
20
1.8538582677165354
11
0.8465748031496063
21
1.8538582677165354
0
LINE
8
BLACK
6
CONTINUOUS
10
0.8465748031496063
20
1.8538582677165354
11
0.8465748031496063
21
1.9138582677165354
0
LINE
8
BLACK
6
CONTINUOUS
10
0.8465748031496063
20
1.9138582677165354
11
0.9065748031496063
21
1.9138582677165354
0
LINE
8
BLACK
6
CONTINUOUS
10
0.9065748031496063
20
1.9138582677165354
11
0.9065748031496063
21
1.8538582677165354
0
LINE
8
BLACK
6
CONTINUOUS
10
1.0065748031496062
20
1.8538582677165354
11
0.9465748031496063
21
1.8538582677165354
0
LINE
8
BLACK
6
CONTINUOUS
10
0.9465748031496063
20
1.8538582677165354
11
0.9465748031496063
21
1.9138582677165354
0
LINE
8
BLACK
6
CONTINUOUS
10
0.9465748031496063
20
1.9138582677165354
11
1.0065748031496062
21
1.9138582677165354
0
LINE
8
BLACK
6
CONTINUOUS
10
1.0065748031496062
20
1.9138582677165354
11
1.0065748031496062
21
1.8538582677165354
0
LINE
8
BLACK
6
CONTINUOUS
10
1.1065748031496063
20
1.8538582677165354
11
1.0465748031496063
21
1.8538582677165354
0
LINE
8
BLACK
6
CONTINUOUS
10
1.0465748031496063
20
1.8538582677165354
11
1.0465748031496063
21
1.9138582677165354
0
LINE
8
BLACK
6
CONTINUOUS
10
1.0465748031496063
20
1.9138582677165354
11
1.1065748031496063
21
1.9138582677165354
0
LINE
8
BLACK
6
CONTINUOUS
10
1.1065748031496063
20
1.9138582677165354
11
1.1065748031496063
21
1.8538582677165354
0
LINE
8
BLACK
6
CONTINUOUS
10
1.2065748031496062
20
1.8538582677165354
11
1.1465748031496064
21
1.8538582677165354
0
LINE
8
BLACK
6
CONTINUOUS
10
1.1465748031496064
20
1.8538582677165354
11
1.1465748031496064
21
1.9138582677165354
0
LINE
8
BLACK
6
CONTINUOUS
10
1.1465748031496064
20
1.9138582677165354
11
1.2065748031496062
21
1.9138582677165354
0
LINE
8
BLACK
6
CONTINUOUS
10
1.2065748031496062
20
1.9138582677165354
11
1.2065748031496062
21
1.8538582677165354
0
LINE
8
BLACK
6
CONTINUOUS
10
1.3065748031496063
20
1.8538582677165354
11
1.2465748031496062
21
1.8538582677165354
0
LINE
8
BLACK
6
CONTINUOUS
10
1.2465748031496062
20
1.8538582677165354
11
1.2465748031496062
21
1.9138582677165354
0
LINE
8
BLACK
6
CONTINUOUS
10
1.2465748031496062
20
1.9138582677165354
11
1.3065748031496063
21
1.9138582677165354
0
LINE
8
BLACK
6
CONTINUOUS
10
1.3065748031496063
20
1.9138582677165354
11
1.3065748031496063
21
1.8538582677165354
0
LINE
8
BLACK
6
CONTINUOUS
10
1.4065748031496064
20
1.8538582677165354
11
1.3465748031496063
21
1.8538582677165354
0
LINE
8
BLACK
6
CONTINUOUS
10
1.3465748031496063
20
1.8538582677165354
11
1.3465748031496063
21
1.9138582677165354
0
LINE
8
BLACK
6
CONTINUOUS
10
1.3465748031496063
20
1.9138582677165354
11
1.4065748031496064
21
1.9138582677165354
0
LINE
8
BLACK
6
CONTINUOUS
10
1.4065748031496064
20
1.9138582677165354
11
1.4065748031496064
21
1.8538582677165354
0
LINE
8
BLACK
6
CONTINUOUS
10
1.5065748031496062
20
1.8538582677165354
11
1.4465748031496062
21
1.8538582677165354
0
LINE
8
BLACK
6
CONTINUOUS
10
1.4465748031496062
20
1.8538582677165354
11
1.4465748031496062
21
1.9138582677165354
0
LINE
8
BLACK
6
CONTINUOUS
10
1.4465748031496062
20
1.9138582677165354
11
1.5065748031496062
21
1.9138582677165354
0
LINE
8
BLACK
6
CONTINUOUS
10
1.5065748031496062
20
1.9138582677165354
11
1.5065748031496062
21
1.8538582677165354
0
LINE
8
BLACK
6
CONTINUOUS
10
1.6065748031496063
20
1.8538582677165354
11
1.5465748031496063
21
1.8538582677165354
0
LINE
8
BLACK
6
CONTINUOUS
10
1.5465748031496063
20
1.8538582677165354
11
1.5465748031496063
21
1.9138582677165354
0
LINE
8
BLACK
6
CONTINUOUS
10
1.5465748031496063
20
1.9138582677165354
11
1.6065748031496063
21
1.9138582677165354
0
LINE
8
BLACK
6
CONTINUOUS
10
1.6065748031496063
20
1.9138582677165354
11
1.6065748031496063
21
1.8538582677165354
0
LINE
8
BLACK
6
CONTINUOUS
10
1.7065748031496062
20
1.8538582677165354
11
1.6465748031496064
21
1.8538582677165354
0
LINE
8
BLACK
6
CONTINUOUS
10
1.6465748031496064
20
1.8538582677165354
11
1.6465748031496064
21
1.9138582677165354
0
LINE
8
BLACK
6
CONTINUOUS
10
1.6465748031496064
20
1.9138582677165354
11
1.7065748031496062
21
1.9138582677165354
0
LINE
8
BLACK
6
CONTINUOUS
10
1.7065748031496062
20
1.9138582677165354
11
1.7065748031496062
21
1.8538582677165354
0
LINE
8
BLACK
6
CONTINUOUS
10
1.8065748031496063
20
1.8538582677165354
11
1.7465748031496062
21
1.8538582677165354
0
LINE
8
BLACK
6
CONTINUOUS
10
1.7465748031496062
20
1.8538582677165354
11
1.7465748031496062
21
1.9138582677165354
0
LINE
8
BLACK
6
CONTINUOUS
10
1.7465748031496062
20
1.9138582677165354
11
1.8065748031496063
21
1.9138582677165354
0
LINE
8
BLACK
6
CONTINUOUS
10
1.8065748031496063
20
1.9138582677165354
11
1.8065748031496063
21
1.8538582677165354
0
LINE
8
BLACK
6
CONTINUOUS
10
0.4141057480314961
20
2.1251920866141734
11
0.4280341338582677
21
2.1228255511811023
0
LINE
8
BLACK
6
CONTINUOUS
10
0.4280341338582677
20
2.1228255511811023
11
0.4416099606299212
21
2.1189144488188978
0
LINE
8
BLACK
6
CONTINUOUS
10
0.4416099606299212
20
2.1189144488188978
11
0.4546625196850393
21
2.113507874015748
0
LINE
8
BLACK
6
CONTINUOUS
10
0.4546625196850393
20
2.113507874015748
11
0.4670276771653543
21
2.1066738976377954
0
LINE
8
BLACK
6
CONTINUOUS
10
0.4670276771653543
20
2.1066738976377954
11
0.4785498818897638
21
2.0984984645669291
0
LINE
8
BLACK
6
CONTINUOUS
10
0.4785498818897638
20
2.0984984645669291
11
0.4890843307086614
21
2.0890843307086615
0
LINE
8
BLACK
6
CONTINUOUS
10
0.4890843307086614
20
2.0890843307086615
11
0.4984984645669291
21
2.0785498818897636
0
LINE
8
BLACK
6
CONTINUOUS
10
0.4984984645669291
20
2.0785498818897636
11
0.5066738976377952
21
2.0670276771653544
0
LINE
8
BLACK
6
CONTINUOUS
10
0.5066738976377952
20
2.0670276771653544
11
0.513507874015748
21
2.0546625196850394
0
LINE
8
BLACK
6
CONTINUOUS
10
0.513507874015748
20
2.0546625196850394
11
0.5189144488188976
21
2.0416099606299212
0
LINE
8
BLACK
6
CONTINUOUS
10
0.5189144488188976
20
2.0416099606299212
11
0.5228255511811023
21
2.0280341338582675
0
LINE
8
BLACK
6
CONTINUOUS
10
0.5228255511811023
20
2.0280341338582675
11
0.5251920866141733
21
2.0141057480314961
0
LINE
8
BLACK
6
CONTINUOUS
10
0.5251920866141733
20
2.0141057480314961
11
0.525984251968504
21
2.
0
LINE
8
BLACK
6
CONTINUOUS
10
0.525984251968504
20
2.
11
0.5251920866141733
21
1.9858942519685039
0
LINE
8
BLACK
6
CONTINUOUS
10
0.5251920866141733
20
1.9858942519685039
11
0.5228255511811023
21
1.9719658661417323
0
LINE
8
BLACK
6
CONTINUOUS
10
0.5228255511811023
20
1.9719658661417323
11
0.5189144488188976
21
1.9583900393700786
0
LINE
8
BLACK
6
CONTINUOUS
10
0.5189144488188976
20
1.9583900393700786
11
0.513507874015748
21
1.9453374803149606
0
LINE
8
BLACK
6
CONTINUOUS
10
0.513507874015748
20
1.9453374803149606
11
0.5066738976377952
21
1.9329723228346456
0
LINE
8
BLACK
6
CONTINUOUS
10
0.5066738976377952
20
1.9329723228346456
11
0.4984984645669291
21
1.9214501181102361
0
LINE
8
BLACK
6
CONTINUOUS
10
0.4984984645669291
20
1.9214501181102361
11
0.4890843307086614
21
1.9109156692913385
0
LINE
8
BLACK
6
CONTINUOUS
10
0.4890843307086614
20
1.9109156692913385
11
0.4785498818897638
21
1.9015015354330709
0
LINE
8
BLACK
6
CONTINUOUS
10
0.4785498818897638
20
1.9015015354330709
11
0.4670276771653543
21
1.8933261023622048
0
LINE
8
BLACK
6
CONTINUOUS
10
0.4670276771653543
20
1.8933261023622048
11
0.4546625196850393
21
1.886492125984252
0
LINE
8
BLACK
6
CONTINUOUS
10
0.4546625196850393
20
1.886492125984252
11
0.4416099606299212
21
1.8810855511811022
0
LINE
8
BLACK
6
CONTINUOUS
10
0.4416099606299212
20
1.8810855511811022
11
0.4280341338582677
21
1.8771744488188975
0
LINE
8
BLACK
6
CONTINUOUS
10
0.4280341338582677
20
1.8771744488188975
11
0.4141057480314961
21
1.8748079133858266
0
LINE
8
BLACK
6
CONTINUOUS
10
0.4141057480314961
20
1.8748079133858266
11
0.4
21
1.8740157480314961
0
LINE
8
BLACK
6
CONTINUOUS
10
0.4
20
1.8740157480314961
11
0.3858942519685039
21
1.8748079133858266
0
LINE
8
BLACK
6
CONTINUOUS
10
0.3858942519685039
20
1.8748079133858266
11
0.3719658661417323
21
1.8771744488188975
0
LINE
8
BLACK
6
CONTINUOUS
10
0.3719658661417323
20
1.8771744488188975
11
0.3583900393700787
21
1.8810855511811022
0
LINE
8
BLACK
6
CONTINUOUS
10
0.3583900393700787
20
1.8810855511811022
11
0.3453374803149606
21
1.886492125984252
0
LINE
8
BLACK
6
CONTINUOUS
10
0.3453374803149606
20
1.886492125984252
11
0.3329723228346457
21
1.8933261023622048
0
LINE
8
BLACK
6
CONTINUOUS
10
0.3329723228346457
20
1.8933261023622048
11
0.3214501181102362
21
1.9015015354330709
0
LINE
8
BLACK
6
CONTINUOUS
10
0.3214501181102362
20
1.9015015354330709
11
0.3109156692913386
21
1.9109156692913385
0
LINE
8
BLACK
6
CONTINUOUS
10
0.3109156692913386
20
1.9109156692913385
11
0.3015015354330708
21
1.9214501181102361
0
LINE
8
BLACK
6
CONTINUOUS
10
0.3015015354330708
20
1.9214501181102361
11
0.2933261023622047
21
1.9329723228346456
0
LINE
8
BLACK
6
CONTINUOUS
10
0.2933261023622047
20
1.9329723228346456
11
0.2864921259842519
21
1.9453374803149606
0
LINE
8
BLACK
6
CONTINUOUS
10
0.2864921259842519
20
1.9453374803149606
11
0.2810855511811023
21
1.9583900393700786
0
LINE
8
BLACK
6
CONTINUOUS
10
0.2810855511811023
20
1.9583900393700786
11
0.2771744488188976
21
1.9719658661417323
0
LINE
8
BLACK
6
CONTINUOUS
10
0.2771744488188976
20
1.9719658661417323
11
0.2748079133858268
21
1.9858942519685039
0
LINE
8
BLACK
6
CONTINUOUS
10
0.2748079133858268
20
1.9858942519685039
11
0.274015748031496
21
2.
0
LINE
8
BLACK
6
CONTINUOUS
10
0.274015748031496
20
2.
11
0.2748079133858268
21
2.0141057480314961
0
LINE
8
BLACK
6
CONTINUOUS
10
0.2748079133858268
20
2.0141057480314961
11
0.2771744488188976
21
2.0280341338582675
0
LINE
8
BLACK
6
CONTINUOUS
10
0.2771744488188976
20
2.0280341338582675
11
0.2810855511811023
21
2.0416099606299212
0
LINE
8
BLACK
6
CONTINUOUS
10
0.2810855511811023
20
2.0416099606299212
11
0.2864921259842519
21
2.0546625196850394
0
LINE
8
BLACK
6
CONTINUOUS
10
0.2864921259842519
20
2.0546625196850394
11
0.2933261023622047
21
2.0670276771653544
0
LINE
8
BLACK
6
CONTINUOUS
10
0.2933261023622047
20
2.0670276771653544
11
0.3015015354330708
21
2.0785498818897636
0
LINE
8
BLACK
6
CONTINUOUS
10
0.3015015354330708
20
2.0785498818897636
11
0.3109156692913386
21
2.0890843307086615
0
LINE
8
BLACK
6
CONTINUOUS
10
0.3109156692913386
20
2.0890843307086615
11
0.3214501181102362
21
2.0984984645669291
0
LINE
8
BLACK
6
CONTINUOUS
10
0.3214501181102362
20
2.0984984645669291
11
0.3329723228346457
21
2.1066738976377954
0
LINE
8
BLACK
6
CONTINUOUS
10
0.3329723228346457
20
2.1066738976377954
11
0.3453374803149606
21
2.113507874015748
0
LINE
8
BLACK
6
CONTINUOUS
10
0.3453374803149606
20
2.113507874015748
11
0.3583900393700787
21
2.1189144488188978
0
LINE
8
BLACK
6
CONTINUOUS
10
0.3583900393700787
20
2.1189144488188978
11
0.3719658661417323
21
2.1228255511811023
0
LINE
8
BLACK
6
CONTINUOUS
10
0.3719658661417323
20
2.1228255511811023
11
0.3858942519685039
21
2.1251920866141734
0
LINE
8
BLACK
6
CONTINUOUS
10
0.3858942519685039
20
2.1251920866141734
11
0.4
21
2.1259842519685037
0
LINE
8
BLACK
6
CONTINUOUS
10
0.4
20
2.1259842519685037
11
0.4141057480314961
21
2.1251920866141734
0
LINE
8
BLACK
6
CONTINUOUS
10
2.0141057480314961
20
2.1251920866141734
11
2.0280341338582675
21
2.1228255511811023
0
LINE
8
BLACK
6
CONTINUOUS
10
2.0280341338582675
20
2.1228255511811023
11
2.0416099606299212
21
2.1189144488188978
0
LINE
8
BLACK
6
CONTINUOUS
10
2.0416099606299212
20
2.1189144488188978
11
2.0546625196850394
21
2.113507874015748
0
LINE
8
BLACK
6
CONTINUOUS
10
2.0546625196850394
20
2.113507874015748
11
2.0670276771653544
21
2.1066738976377954
0
LINE
8
BLACK
6
CONTINUOUS
10
2.0670276771653544
20
2.1066738976377954
11
2.0785498818897636
21
2.0984984645669291
0
LINE
8
BLACK
6
CONTINUOUS
10
2.0785498818897636
20
2.0984984645669291
11
2.0890843307086615
21
2.0890843307086615
0
LINE
8
BLACK
6
CONTINUOUS
10
2.0890843307086615
20
2.0890843307086615
11
2.0984984645669291
21
2.0785498818897636
0
LINE
8
BLACK
6
CONTINUOUS
10
2.0984984645669291
20
2.0785498818897636
11
2.1066738976377954
21
2.0670276771653544
0
LINE
8
BLACK
6
CONTINUOUS
10
2.1066738976377954
20
2.0670276771653544
11
2.113507874015748
21
2.0546625196850394
0
LINE
8
BLACK
6
CONTINUOUS
10
2.113507874015748
20
2.0546625196850394
11
2.1189144488188978
21
2.0416099606299212
0
LINE
8
BLACK
6
CONTINUOUS
10
2.1189144488188978
20
2.0416099606299212
11
2.1228255511811023
21
2.0280341338582675
0
LINE
8
BLACK
6
CONTINUOUS
10
2.1228255511811023
20
2.0280341338582675
11
2.1251920866141734
21
2.0141057480314961
0
LINE
8
BLACK
6
CONTINUOUS
10
2.1251920866141734
20
2.0141057480314961
11
2.1259842519685037
21
2.
0
LINE
8
BLACK
6
CONTINUOUS
10
2.1259842519685037
20
2.
11
2.1251920866141734
21
1.9858942519685039
0
LINE
8
BLACK
6
CONTINUOUS
10
2.1251920866141734
20
1.9858942519685039
11
2.1228255511811023
21
1.9719658661417323
0
LINE
8
BLACK
6
CONTINUOUS
10
2.1228255511811023
20
1.9719658661417323
11
2.1189144488188978
21
1.9583900393700786
0
LINE
8
BLACK
6
CONTINUOUS
10
2.1189144488188978
20
1.9583900393700786
11
2.113507874015748
21
1.9453374803149606
0
LINE
8
BLACK
6
CONTINUOUS
10
2.113507874015748
20
1.9453374803149606
11
2.1066738976377954
21
1.9329723228346456
0
LINE
8
BLACK
6
CONTINUOUS
10
2.1066738976377954
20
1.9329723228346456
11
2.0984984645669291
21
1.9214501181102361
0
LINE
8
BLACK
6
CONTINUOUS
10
2.0984984645669291
20
1.9214501181102361
11
2.0890843307086615
21
1.9109156692913385
0
LINE
8
BLACK
6
CONTINUOUS
10
2.0890843307086615
20
1.9109156692913385
11
2.0785498818897636
21
1.9015015354330709
0
LINE
8
BLACK
6
CONTINUOUS
10
2.0785498818897636
20
1.9015015354330709
11
2.0670276771653544
21
1.8933261023622048
0
LINE
8
BLACK
6
CONTINUOUS
10
2.0670276771653544
20
1.8933261023622048
11
2.0546625196850394
21
1.886492125984252
0
LINE
8
BLACK
6
CONTINUOUS
10
2.0546625196850394
20
1.886492125984252
11
2.0416099606299212
21
1.8810855511811022
0
LINE
8
BLACK
6
CONTINUOUS
10
2.0416099606299212
20
1.8810855511811022
11
2.0280341338582675
21
1.8771744488188975
0
LINE
8
BLACK
6
CONTINUOUS
10
2.0280341338582675
20
1.8771744488188975
11
2.0141057480314961
21
1.8748079133858266
0
LINE
8
BLACK
6
CONTINUOUS
10
2.0141057480314961
20
1.8748079133858266
11
2.
21
1.8740157480314961
0
LINE
8
BLACK
6
CONTINUOUS
10
2.
20
1.8740157480314961
11
1.9858942519685039
21
1.8748079133858266
0
LINE
8
BLACK
6
CONTINUOUS
10
1.9858942519685039
20
1.8748079133858266
11
1.9719658661417323
21
1.8771744488188975
0
LINE
8
BLACK
6
CONTINUOUS
10
1.9719658661417323
20
1.8771744488188975
11
1.9583900393700786
21
1.8810855511811022
0
LINE
8
BLACK
6
CONTINUOUS
10
1.9583900393700786
20
1.8810855511811022
11
1.9453374803149606
21
1.886492125984252
0
LINE
8
BLACK
6
CONTINUOUS
10
1.9453374803149606
20
1.886492125984252
11
1.9329723228346456
21
1.8933261023622048
0
LINE
8
BLACK
6
CONTINUOUS
10
1.9329723228346456
20
1.8933261023622048
11
1.9214501181102361
21
1.9015015354330709
0
LINE
8
BLACK
6
CONTINUOUS
10
1.9214501181102361
20
1.9015015354330709
11
1.9109156692913385
21
1.9109156692913385
0
LINE
8
BLACK
6
CONTINUOUS
10
1.9109156692913385
20
1.9109156692913385
11
1.9015015354330709
21
1.9214501181102361
0
LINE
8
BLACK
6
CONTINUOUS
10
1.9015015354330709
20
1.9214501181102361
11
1.8933261023622048
21
1.9329723228346456
0
LINE
8
BLACK
6
CONTINUOUS
10
1.8933261023622048
20
1.9329723228346456
11
1.886492125984252
21
1.9453374803149606
0
LINE
8
BLACK
6
CONTINUOUS
10
1.886492125984252
20
1.9453374803149606
11
1.8810855511811022
21
1.9583900393700786
0
LINE
8
BLACK
6
CONTINUOUS
10
1.8810855511811022
20
1.9583900393700786
11
1.8771744488188975
21
1.9719658661417323
0
LINE
8
BLACK
6
CONTINUOUS
10
1.8771744488188975
20
1.9719658661417323
11
1.8748079133858266
21
1.9858942519685039
0
LINE
8
BLACK
6
CONTINUOUS
10
1.8748079133858266
20
1.9858942519685039
11
1.8740157480314961
21
2.
0
LINE
8
BLACK
6
CONTINUOUS
10
1.8740157480314961
20
2.
11
1.8748079133858266
21
2.0141057480314961
0
LINE
8
BLACK
6
CONTINUOUS
10
1.8748079133858266
20
2.0141057480314961
11
1.8771744488188975
21
2.0280341338582675
0
LINE
8
BLACK
6
CONTINUOUS
10
1.8771744488188975
20
2.0280341338582675
11
1.8810855511811022
21
2.0416099606299212
0
LINE
8
BLACK
6
CONTINUOUS
10
1.8810855511811022
20
2.0416099606299212
11
1.886492125984252
21
2.0546625196850394
0
LINE
8
BLACK
6
CONTINUOUS
10
1.886492125984252
20
2.0546625196850394
11
1.8933261023622048
21
2.0670276771653544
0
LINE
8
BLACK
6
CONTINUOUS
10
1.8933261023622048
20
2.0670276771653544
11
1.9015015354330709
21
2.0785498818897636
0
LINE
8
BLACK
6
CONTINUOUS
10
1.9015015354330709
20
2.0785498818897636
11
1.9109156692913385
21
2.0890843307086615
0
LINE
8
BLACK
6
CONTINUOUS
10
1.9109156692913385
20
2.0890843307086615
11
1.9214501181102361
21
2.0984984645669291
0
LINE
8
BLACK
6
CONTINUOUS
10
1.9214501181102361
20
2.0984984645669291
11
1.9329723228346456
21
2.1066738976377954
0
LINE
8
BLACK
6
CONTINUOUS
10
1.9329723228346456
20
2.1066738976377954
11
1.9453374803149606
21
2.113507874015748
0
LINE
8
BLACK
6
CONTINUOUS
10
1.9453374803149606
20
2.113507874015748
11
1.9583900393700786
21
2.1189144488188978
0
LINE
8
BLACK
6
CONTINUOUS
10
1.9583900393700786
20
2.1189144488188978
11
1.9719658661417323
21
2.1228255511811023
0
LINE
8
BLACK
6
CONTINUOUS
10
1.9719658661417323
20
2.1228255511811023
11
1.9858942519685039
21
2.1251920866141734
0
LINE
8
BLACK
6
CONTINUOUS
10
1.9858942519685039
20
2.1251920866141734
11
2.
21
2.1259842519685037
0
LINE
8
BLACK
6
CONTINUOUS
10
2.
20
2.1259842519685037
11
2.0141057480314961
21
2.1251920866141734
0
LINE
8
BLACK
6
CONTINUOUS
10
0.8597244094488189
20
1.9680314960629921
11
0.7997244094488188
21
1.9680314960629921
0
LINE
8
BLACK
6
CONTINUOUS
10
0.7997244094488188
20
1.9680314960629921
11
0.7997244094488188
21
2.0280314960629919
0
LINE
8
BLACK
6
CONTINUOUS
10
0.7997244094488188
20
2.0280314960629919
11
0.8597244094488189
21
2.0280314960629919
0
LINE
8
BLACK
6
CONTINUOUS
10
0.8597244094488189
20
2.0280314960629919
11
0.8597244094488189
21
1.9680314960629921
0
LINE
8
BLACK
6
CONTINUOUS
10
0.9597244094488189
20
1.9680314960629921
11
0.8997244094488189
21
1.9680314960629921
0
LINE
8
BLACK
6
CONTINUOUS
10
0.8997244094488189
20
1.9680314960629921
11
0.8997244094488189
21
2.0280314960629919
0
LINE
8
BLACK
6
CONTINUOUS
10
0.8997244094488189
20
2.0280314960629919
11
0.9597244094488189
21
2.0280314960629919
0
LINE
8
BLACK
6
CONTINUOUS
10
0.9597244094488189
20
2.0280314960629919
11
0.9597244094488189
21
1.9680314960629921
0
LINE
8
BLACK
6
CONTINUOUS
10
1.059724409448819
20
1.9680314960629921
11
0.9997244094488189
21
1.9680314960629921
0
LINE
8
BLACK
6
CONTINUOUS
10
0.9997244094488189
20
1.9680314960629921
11
0.9997244094488189
21
2.0280314960629919
0
LINE
8
BLACK
6
CONTINUOUS
10
0.9997244094488189
20
2.0280314960629919
11
1.059724409448819
21
2.0280314960629919
0
LINE
8
BLACK
6
CONTINUOUS
10
1.059724409448819
20
2.0280314960629919
11
1.059724409448819
21
1.9680314960629921
0
LINE
8
BLACK
6
CONTINUOUS
10
1.1597244094488188
20
1.9680314960629921
11
1.0997244094488188
21
1.9680314960629921
0
LINE
8
BLACK
6
CONTINUOUS
10
1.0997244094488188
20
1.9680314960629921
11
1.0997244094488188
21
2.0280314960629919
0
LINE
8
BLACK
6
CONTINUOUS
10
1.0997244094488188
20
2.0280314960629919
11
1.1597244094488188
21
2.0280314960629919
0
LINE
8
BLACK
6
CONTINUOUS
10
1.1597244094488188
20
2.0280314960629919
11
1.1597244094488188
21
1.9680314960629921
0
LINE
8
BLACK
6
CONTINUOUS
10
1.2597244094488189
20
1.9680314960629921
11
1.1997244094488189
21
1.9680314960629921
0
LINE
8
BLACK
6
CONTINUOUS
10
1.1997244094488189
20
1.9680314960629921
11
1.1997244094488189
21
2.0280314960629919
0
LINE
8
BLACK
6
CONTINUOUS
10
1.1997244094488189
20
2.0280314960629919
11
1.2597244094488189
21
2.0280314960629919
0
LINE
8
BLACK
6
CONTINUOUS
10
1.2597244094488189
20
2.0280314960629919
11
1.2597244094488189
21
1.9680314960629921
0
LINE
8
BLACK
6
CONTINUOUS
10
0.8597244094488189
20
2.068031496062992
11
0.7997244094488188
21
2.068031496062992
0
LINE
8
BLACK
6
CONTINUOUS
10
0.7997244094488188
20
2.068031496062992
11
0.7997244094488188
21
2.128031496062992
0
LINE
8
BLACK
6
CONTINUOUS
10
0.7997244094488188
20
2.128031496062992
11
0.8597244094488189
21
2.128031496062992
0
LINE
8
BLACK
6
CONTINUOUS
10
0.8597244094488189
20
2.128031496062992
11
0.8597244094488189
21
2.068031496062992
0
LINE
8
BLACK
6
CONTINUOUS
10
0.9597244094488189
20
2.068031496062992
11
0.8997244094488189
21
2.068031496062992
0
LINE
8
BLACK
6
CONTINUOUS
10
0.8997244094488189
20
2.068031496062992
11
0.8997244094488189
21
2.128031496062992
0
LINE
8
BLACK
6
CONTINUOUS
10
0.8997244094488189
20
2.128031496062992
11
0.9597244094488189
21
2.128031496062992
0
LINE
8
BLACK
6
CONTINUOUS
10
0.9597244094488189
20
2.128031496062992
11
0.9597244094488189
21
2.068031496062992
0
LINE
8
BLACK
6
CONTINUOUS
10
1.059724409448819
20
2.068031496062992
11
0.9997244094488189
21
2.068031496062992
0
LINE
8
BLACK
6
CONTINUOUS
10
0.9997244094488189
20
2.068031496062992
11
0.9997244094488189
21
2.128031496062992
0
LINE
8
BLACK
6
CONTINUOUS
10
0.9997244094488189
20
2.128031496062992
11
1.059724409448819
21
2.128031496062992
0
LINE
8
BLACK
6
CONTINUOUS
10
1.059724409448819
20
2.128031496062992
11
1.059724409448819
21
2.068031496062992
0
LINE
8
BLACK
6
CONTINUOUS
10
1.1597244094488188
20
2.068031496062992
11
1.0997244094488188
21
2.068031496062992
0
LINE
8
BLACK
6
CONTINUOUS
10
1.0997244094488188
20
2.068031496062992
11
1.0997244094488188
21
2.128031496062992
0
LINE
8
BLACK
6
CONTINUOUS
10
1.0997244094488188
20
2.128031496062992
11
1.1597244094488188
21
2.128031496062992
0
LINE
8
BLACK
6
CONTINUOUS
10
1.1597244094488188
20
2.128031496062992
11
1.1597244094488188
21
2.068031496062992
0
LINE
8
BLACK
6
CONTINUOUS
10
1.2597244094488189
20
2.068031496062992
11
1.1997244094488189
21
2.068031496062992
0
LINE
8
BLACK
6
CONTINUOUS
10
1.1997244094488189
20
2.068031496062992
11
1.1997244094488189
21
2.128031496062992
0
LINE
8
BLACK
6
CONTINUOUS
10
1.1997244094488189
20
2.128031496062992
11
1.2597244094488189
21
2.128031496062992
0
LINE
8
BLACK
6
CONTINUOUS
10
1.2597244094488189
20
2.128031496062992
11
1.2597244094488189
21
2.068031496062992
  0
ENDSEC
  0
EOF
