  0
SECTION
  2
HEADER
  9
$ANGBASE
  50
0.0
  9
$ANGDIR
  70
1
  9
$MEASUREMENT
  70
0
  0
ENDSEC
  0
SECTION
  2
TABLES
  0
TABLE
  2
LTYPE
  70
4
  0
LTYPE
  5
40F
  2
CONTINUOUS
  70
0
  3
Solid line
  72
65
  73
0
  40
0.0
  0
LTYPE
  5
410
  2
DASHDOT
 70
0
  3
Dash Dot ____ _ ____ _
 72
65
 73
4
 40
2.0
 49
1.25
 49
-0.25
 49
0.25
 49
-0.25
  0
LTYPE
  5
411
  2
DASHED
 70
0
  3
Dashed __ __ __ __ __
 72
65
 73
2
 40
0.75
 49
0.5
 49
-0.25
  0
LTYPE
  5
43B
  2
DOTTED
 70
0
  3
Dotted .  .  .  .
 72
65
 73
2
 40
0.2
 49
0.0
 49
-0.2
  0
ENDTAB
  0
TABLE
  2
STYLE
  70
4
  0
STYLE
  2
KICAD
  70
0
  40
0
  41
1
  42
1
  50
0
  71
0
  3
isocp.shx
  0
STYLE
  2
KICADB
  70
0
  40
0
  41
1
  42
1
  50
0
  71
0
  3
isocp.shx
  0
STYLE
  2
KICADI
  70
0
  40
0
  41
1
  42
1
  50
15
  71
0
  3
isocp.shx
  0
STYLE
  2
KICADBI
  70
0
  40
0
  41
1
  42
1
  50
15
  71
0
  3
isocp.shx
  0
ENDTAB
  0
TABLE
  2
LAYER
  70
1
  0
LAYER
  2
BLACK
  70
0
  62
7
  6
CONTINUOUS
  0
ENDTAB
  0
ENDSEC
  0
SECTION
  2
ENTITIES
0
LINE
8
BLACK
6
CONTINUOUS
10
0.42085968503937
20
0.5272384645669291
11
0.4344942913385827
21
0.5242372440944881
0
LINE
8
BLACK
6
CONTINUOUS
10
0.4344942913385827
20
0.5242372440944881
11
0.4477244881889764
21
0.5197794881889763
0
LINE
8
BLACK
6
CONTINUOUS
10
0.4477244881889764
20
0.5197794881889763
11
0.4603951968503937
21
0.5139174015748031
0
LINE
8
BLACK
6
CONTINUOUS
10
0.4603951968503937
20
0.5139174015748031
11
0.4723577952755905
21
0.5067197244094488
0
LINE
8
BLACK
6
CONTINUOUS
10
0.4723577952755905
20
0.5067197244094488
11
0.4834720472440945
21
0.498270905511811
0
LINE
8
BLACK
6
CONTINUOUS
10
0.4834720472440945
20
0.498270905511811
11
0.4936076771653543
21
0.4886699212598425
0
LINE
8
BLACK
6
CONTINUOUS
10
0.4936076771653543
20
0.4886699212598425
11
0.5026458661417322
21
0.4780293700787401
0
LINE
8
BLACK
6
CONTINUOUS
10
0.5026458661417322
20
0.4780293700787401
11
0.5104805905511811
21
0.4664739763779527
0
LINE
8
BLACK
6
CONTINUOUS
10
0.5104805905511811
20
0.4664739763779527
11
0.5170200393700787
21
0.4541392519685039
0
LINE
8
BLACK
6
CONTINUOUS
10
0.5170200393700787
20
0.4541392519685039
11
0.522187559055118
21
0.4411698031496063
0
LINE
8
BLACK
6
CONTINUOUS
10
0.522187559055118
20
0.4411698031496063
11
0.5259225196850393
21
0.4277176377952756
0
LINE
8
BLACK
6
CONTINUOUS
10
0.5259225196850393
20
0.4277176377952756
11
0.5281811811023622
21
0.4139405511811023
0
LINE
8
BLACK
6
CONTINUOUS
10
0.5281811811023622
20
0.4139405511811023
11
0.5289370078740158
21
0.4
0
LINE
8
BLACK
6
CONTINUOUS
10
0.5289370078740158
20
0.4
11
0.5281811811023622
21
0.3860594488188976
0
LINE
8
BLACK
6
CONTINUOUS
10
0.5281811811023622
20
0.3860594488188976
11
0.5259225196850393
21
0.3722823622047244
0
LINE
8
BLACK
6
CONTINUOUS
10
0.5259225196850393
20
0.3722823622047244
11
0.522187559055118
21
0.3588301968503937
0
LINE
8
BLACK
6
CONTINUOUS
10
0.522187559055118
20
0.3588301968503937
11
0.5170200393700787
21
0.3458607480314961
0
LINE
8
BLACK
6
CONTINUOUS
10
0.5170200393700787
20
0.3458607480314961
11
0.5104805905511811
21
0.3335260236220473
0
LINE
8
BLACK
6
CONTINUOUS
10
0.5104805905511811
20
0.3335260236220473
11
0.5026458661417322
21
0.3219706299212599
0
LINE
8
BLACK
6
CONTINUOUS
10
0.5026458661417322
20
0.3219706299212599
11
0.4936076771653543
21
0.3113300787401575
0
LINE
8
BLACK
6
CONTINUOUS
10
0.4936076771653543
20
0.3113300787401575
11
0.4834720472440945
21
0.301729094488189
0
LINE
8
BLACK
6
CONTINUOUS
10
0.4834720472440945
20
0.301729094488189
11
0.4723577952755905
21
0.2932802755905512
0
LINE
8
BLACK
6
CONTINUOUS
10
0.4723577952755905
20
0.2932802755905512
11
0.4603951968503937
21
0.2860825984251968
0
LINE
8
BLACK
6
CONTINUOUS
10
0.4603951968503937
20
0.2860825984251968
11
0.4477244881889764
21
0.2802205118110236
0
LINE
8
BLACK
6
CONTINUOUS
10
0.4477244881889764
20
0.2802205118110236
11
0.4344942913385827
21
0.2757627559055118
0
LINE
8
BLACK
6
CONTINUOUS
10
0.4344942913385827
20
0.2757627559055118
11
0.42085968503937
21
0.2727615354330709
0
LINE
8
BLACK
6
CONTINUOUS
10
0.42085968503937
20
0.2727615354330709
11
0.4069805118110236
21
0.2712520866141732
0
LINE
8
BLACK
6
CONTINUOUS
10
0.4069805118110236
20
0.2712520866141732
11
0.3930194881889764
21
0.2712520866141732
0
LINE
8
BLACK
6
CONTINUOUS
10
0.3930194881889764
20
0.2712520866141732
11
0.3791403149606299
21
0.2727615354330709
0
LINE
8
BLACK
6
CONTINUOUS
10
0.3791403149606299
20
0.2727615354330709
11
0.3655057086614173
21
0.2757627559055118
0
LINE
8
BLACK
6
CONTINUOUS
10
0.3655057086614173
20
0.2757627559055118
11
0.3522755118110236
21
0.2802205118110236
0
LINE
8
BLACK
6
CONTINUOUS
10
0.3522755118110236
20
0.2802205118110236
11
0.3396048031496063
21
0.2860825984251968
0
LINE
8
BLACK
6
CONTINUOUS
10
0.3396048031496063
20
0.2860825984251968
11
0.3276422047244094
21
0.2932802755905512
0
LINE
8
BLACK
6
CONTINUOUS
10
0.3276422047244094
20
0.2932802755905512
11
0.3165279527559055
21
0.301729094488189
0
LINE
8
BLACK
6
CONTINUOUS
10
0.3165279527559055
20
0.301729094488189
11
0.3063923228346457
21
0.3113300787401575
0
LINE
8
BLACK
6
CONTINUOUS
10
0.3063923228346457
20
0.3113300787401575
11
0.2973541338582677
21
0.3219706299212599
0
LINE
8
BLACK
6
CONTINUOUS
10
0.2973541338582677
20
0.3219706299212599
11
0.2895194094488189
21
0.3335260236220473
0
LINE
8
BLACK
6
CONTINUOUS
10
0.2895194094488189
20
0.3335260236220473
11
0.2829799606299213
21
0.3458607480314961
0
LINE
8
BLACK
6
CONTINUOUS
10
0.2829799606299213
20
0.3458607480314961
11
0.2778124409448819
21
0.3588301968503937
0
LINE
8
BLACK
6
CONTINUOUS
10
0.2778124409448819
20
0.3588301968503937
11
0.2740774803149606
21
0.3722823622047244
0
LINE
8
BLACK
6
CONTINUOUS
10
0.2740774803149606
20
0.3722823622047244
11
0.2718188188976378
21
0.3860594488188976
0
LINE
8
BLACK
6
CONTINUOUS
10
0.2718188188976378
20
0.3860594488188976
11
0.2710629921259842
21
0.4
0
LINE
8
BLACK
6
CONTINUOUS
10
0.2710629921259842
20
0.4
11
0.2718188188976378
21
0.4139405511811023
0
LINE
8
BLACK
6
CONTINUOUS
10
0.2718188188976378
20
0.4139405511811023
11
0.2740774803149606
21
0.4277176377952756
0
LINE
8
BLACK
6
CONTINUOUS
10
0.2740774803149606
20
0.4277176377952756
11
0.2778124409448819
21
0.4411698031496063
0
LINE
8
BLACK
6
CONTINUOUS
10
0.2778124409448819
20
0.4411698031496063
11
0.2829799606299213
21
0.4541392519685039
0
LINE
8
BLACK
6
CONTINUOUS
10
0.2829799606299213
20
0.4541392519685039
11
0.2895194094488189
21
0.4664739763779527
0
LINE
8
BLACK
6
CONTINUOUS
10
0.2895194094488189
20
0.4664739763779527
11
0.2973541338582677
21
0.4780293700787401
0
LINE
8
BLACK
6
CONTINUOUS
10
0.2973541338582677
20
0.4780293700787401
11
0.3063923228346457
21
0.4886699212598425
0
LINE
8
BLACK
6
CONTINUOUS
10
0.3063923228346457
20
0.4886699212598425
11
0.3165279527559055
21
0.498270905511811
0
LINE
8
BLACK
6
CONTINUOUS
10
0.3165279527559055
20
0.498270905511811
11
0.3276422047244094
21
0.5067197244094488
0
LINE
8
BLACK
6
CONTINUOUS
10
0.3276422047244094
20
0.5067197244094488
11
0.3396048031496063
21
0.5139174015748031
0
LINE
8
BLACK
6
CONTINUOUS
10
0.3396048031496063
20
0.5139174015748031
11
0.3522755118110236
21
0.5197794881889763
0
LINE
8
BLACK
6
CONTINUOUS
10
0.3522755118110236
20
0.5197794881889763
11
0.3655057086614173
21
0.5242372440944881
0
LINE
8
BLACK
6
CONTINUOUS
10
0.3655057086614173
20
0.5242372440944881
11
0.3791403149606299
21
0.5272384645669291
0
LINE
8
BLACK
6
CONTINUOUS
10
0.3791403149606299
20
0.5272384645669291
11
0.3930194881889764
21
0.5287479133858267
0
LINE
8
BLACK
6
CONTINUOUS
10
0.3930194881889764
20
0.5287479133858267
11
0.4069805118110236
21
0.5287479133858267
0
LINE
8
BLACK
6
CONTINUOUS
10
0.4069805118110236
20
0.5287479133858267
11
0.42085968503937
21
0.5272384645669291
0
LINE
8
BLACK
6
CONTINUOUS
10
0.2775494488188976
20
0.3862031496062992
11
0.2798641732283464
21
0.3725797637795276
0
LINE
8
BLACK
6
CONTINUOUS
10
0.2798641732283464
20
0.3725797637795276
11
0.2836896456692913
21
0.3593012598425197
0
LINE
8
BLACK
6
CONTINUOUS
10
0.2836896456692913
20
0.3593012598425197
11
0.2889777952755905
21
0.3465345275590551
0
LINE
8
BLACK
6
CONTINUOUS
10
0.2889777952755905
20
0.3465345275590551
11
0.295662125984252
21
0.334440157480315
0
LINE
8
BLACK
6
CONTINUOUS
10
0.295662125984252
20
0.334440157480315
11
0.3036585433070866
21
0.3231702362204724
0
LINE
8
BLACK
6
CONTINUOUS
10
0.3036585433070866
20
0.3231702362204724
11
0.3128665354330709
21
0.3128665354330709
0
LINE
8
BLACK
6
CONTINUOUS
10
0.3128665354330709
20
0.3128665354330709
11
0.3231702362204724
21
0.3036585433070866
0
LINE
8
BLACK
6
CONTINUOUS
10
0.3231702362204724
20
0.3036585433070866
11
0.334440157480315
21
0.295662125984252
0
LINE
8
BLACK
6
CONTINUOUS
10
0.334440157480315
20
0.295662125984252
11
0.3465345275590551
21
0.2889777952755905
0
LINE
8
BLACK
6
CONTINUOUS
10
0.3465345275590551
20
0.2889777952755905
11
0.3593012598425197
21
0.2836896456692913
0
LINE
8
BLACK
6
CONTINUOUS
10
0.3593012598425197
20
0.2836896456692913
11
0.3725797637795276
21
0.2798641732283464
0
LINE
8
BLACK
6
CONTINUOUS
10
0.3725797637795276
20
0.2798641732283464
11
0.3862031496062992
21
0.2775494488188976
0
LINE
8
BLACK
6
CONTINUOUS
10
0.3862031496062992
20
0.2775494488188976
11
0.4
21
0.2767746456692913
0
LINE
8
BLACK
6
CONTINUOUS
10
0.4
20
0.2767746456692913
11
0.4137968503937008
21
0.2775494488188976
0
LINE
8
BLACK
6
CONTINUOUS
10
0.4137968503937008
20
0.2775494488188976
11
0.4274202362204724
21
0.2798641732283464
0
LINE
8
BLACK
6
CONTINUOUS
10
0.4274202362204724
20
0.2798641732283464
11
0.4406987401574803
21
0.2836896456692913
0
LINE
8
BLACK
6
CONTINUOUS
10
0.4406987401574803
20
0.2836896456692913
11
0.4534654724409449
21
0.2889777952755905
0
LINE
8
BLACK
6
CONTINUOUS
10
0.4534654724409449
20
0.2889777952755905
11
0.465559842519685
21
0.295662125984252
0
LINE
8
BLACK
6
CONTINUOUS
10
0.465559842519685
20
0.295662125984252
11
0.4768297637795276
21
0.3036585433070866
0
LINE
8
BLACK
6
CONTINUOUS
10
0.4768297637795276
20
0.3036585433070866
11
0.4871334645669291
21
0.3128665354330709
0
LINE
8
BLACK
6
CONTINUOUS
10
0.4871334645669291
20
0.3128665354330709
11
0.4963414566929134
21
0.3231702362204724
0
LINE
8
BLACK
6
CONTINUOUS
10
0.4963414566929134
20
0.3231702362204724
11
0.504337874015748
21
0.334440157480315
0
LINE
8
BLACK
6
CONTINUOUS
10
0.504337874015748
20
0.334440157480315
11
0.5110222047244094
21
0.3465345275590551
0
LINE
8
BLACK
6
CONTINUOUS
10
0.5110222047244094
20
0.3465345275590551
11
0.5163103543307086
21
0.3593012598425197
0
LINE
8
BLACK
6
CONTINUOUS
10
0.5163103543307086
20
0.3593012598425197
11
0.5201358267716535
21
0.3725797637795276
0
LINE
8
BLACK
6
CONTINUOUS
10
0.5201358267716535
20
0.3725797637795276
11
0.5224505511811024
21
0.3862031496062992
0
LINE
8
BLACK
6
CONTINUOUS
10
0.5224505511811024
20
0.3862031496062992
11
0.5232253543307086
21
0.4
0
LINE
8
BLACK
6
CONTINUOUS
10
0.5232253543307086
20
0.4
11
0.5224505511811024
21
0.4137968503937008
0
LINE
8
BLACK
6
CONTINUOUS
10
0.5224505511811024
20
0.4137968503937008
11
0.5201358267716535
21
0.4274202362204724
0
LINE
8
BLACK
6
CONTINUOUS
10
0.5201358267716535
20
0.4274202362204724
11
0.5163103543307086
21
0.4406987401574803
0
LINE
8
BLACK
6
CONTINUOUS
10
0.5163103543307086
20
0.4406987401574803
11
0.5110222047244094
21
0.4534654724409449
0
LINE
8
BLACK
6
CONTINUOUS
10
0.5110222047244094
20
0.4534654724409449
11
0.504337874015748
21
0.465559842519685
0
LINE
8
BLACK
6
CONTINUOUS
10
0.504337874015748
20
0.465559842519685
11
0.4963414566929134
21
0.4768297637795276
0
LINE
8
BLACK
6
CONTINUOUS
10
0.4963414566929134
20
0.4768297637795276
11
0.4871334645669291
21
0.4871334645669291
0
LINE
8
BLACK
6
CONTINUOUS
10
0.4871334645669291
20
0.4871334645669291
11
0.4768297637795276
21
0.4963414566929134
0
LINE
8
BLACK
6
CONTINUOUS
10
0.4768297637795276
20
0.4963414566929134
11
0.465559842519685
21
0.504337874015748
0
LINE
8
BLACK
6
CONTINUOUS
10
0.465559842519685
20
0.504337874015748
11
0.4534654724409449
21
0.5110222047244094
0
LINE
8
BLACK
6
CONTINUOUS
10
0.4534654724409449
20
0.5110222047244094
11
0.4406987401574803
21
0.5163103543307086
0
LINE
8
BLACK
6
CONTINUOUS
10
0.4406987401574803
20
0.5163103543307086
11
0.4274202362204724
21
0.5201358267716535
0
LINE
8
BLACK
6
CONTINUOUS
10
0.4274202362204724
20
0.5201358267716535
11
0.4137968503937008
21
0.5224505511811024
0
LINE
8
BLACK
6
CONTINUOUS
10
0.4137968503937008
20
0.5224505511811024
11
0.4
21
0.5232253543307086
0
LINE
8
BLACK
6
CONTINUOUS
10
0.4
20
0.5232253543307086
11
0.3862031496062992
21
0.5224505511811024
0
LINE
8
BLACK
6
CONTINUOUS
10
0.3862031496062992
20
0.5224505511811024
11
0.3725797637795276
21
0.5201358267716535
0
LINE
8
BLACK
6
CONTINUOUS
10
0.3725797637795276
20
0.5201358267716535
11
0.3593012598425197
21
0.5163103543307086
0
LINE
8
BLACK
6
CONTINUOUS
10
0.3593012598425197
20
0.5163103543307086
11
0.3465345275590551
21
0.5110222047244094
0
LINE
8
BLACK
6
CONTINUOUS
10
0.3465345275590551
20
0.5110222047244094
11
0.334440157480315
21
0.504337874015748
0
LINE
8
BLACK
6
CONTINUOUS
10
0.334440157480315
20
0.504337874015748
11
0.3231702362204724
21
0.4963414566929134
0
LINE
8
BLACK
6
CONTINUOUS
10
0.3231702362204724
20
0.4963414566929134
11
0.3128665354330709
21
0.4871334645669291
0
LINE
8
BLACK
6
CONTINUOUS
10
0.3128665354330709
20
0.4871334645669291
11
0.3036585433070866
21
0.4768297637795276
0
LINE
8
BLACK
6
CONTINUOUS
10
0.3036585433070866
20
0.4768297637795276
11
0.295662125984252
21
0.465559842519685
0
LINE
8
BLACK
6
CONTINUOUS
10
0.295662125984252
20
0.465559842519685
11
0.2889777952755905
21
0.4534654724409449
0
LINE
8
BLACK
6
CONTINUOUS
10
0.2889777952755905
20
0.4534654724409449
11
0.2836896456692913
21
0.4406987401574803
0
LINE
8
BLACK
6
CONTINUOUS
10
0.2836896456692913
20
0.4406987401574803
11
0.2798641732283464
21
0.4274202362204724
0
LINE
8
BLACK
6
CONTINUOUS
10
0.2798641732283464
20
0.4274202362204724
11
0.2775494488188976
21
0.4137968503937008
0
LINE
8
BLACK
6
CONTINUOUS
10
0.2775494488188976
20
0.4137968503937008
11
0.2767746456692913
21
0.4
0
LINE
8
BLACK
6
CONTINUOUS
10
0.2767746456692913
20
0.4
11
0.2775494488188976
21
0.3862031496062992
0
LINE
8
BLACK
6
CONTINUOUS
10
2.0208596850393699
20
0.5272384645669291
11
2.0344942913385826
21
0.5242372440944881
0
LINE
8
BLACK
6
CONTINUOUS
10
2.0344942913385826
20
0.5242372440944881
11
2.0477244881889765
21
0.5197794881889763
0
LINE
8
BLACK
6
CONTINUOUS
10
2.0477244881889765
20
0.5197794881889763
11
2.0603951968503935
21
0.5139174015748031
0
LINE
8
BLACK
6
CONTINUOUS
10
2.0603951968503935
20
0.5139174015748031
11
2.0723577952755905
21
0.5067197244094488
0
LINE
8
BLACK
6
CONTINUOUS
10
2.0723577952755905
20
0.5067197244094488
11
2.0834720472440944
21
0.498270905511811
0
LINE
8
BLACK
6
CONTINUOUS
10
2.0834720472440944
20
0.498270905511811
11
2.0936076771653545
21
0.4886699212598425
0
LINE
8
BLACK
6
CONTINUOUS
10
2.0936076771653545
20
0.4886699212598425
11
2.1026458661417324
21
0.4780293700787401
0
LINE
8
BLACK
6
CONTINUOUS
10
2.1026458661417324
20
0.4780293700787401
11
2.1104805905511812
21
0.4664739763779527
0
LINE
8
BLACK
6
CONTINUOUS
10
2.1104805905511812
20
0.4664739763779527
11
2.1170200393700789
21
0.4541392519685039
0
LINE
8
BLACK
6
CONTINUOUS
10
2.1170200393700789
20
0.4541392519685039
11
2.122187559055118
21
0.4411698031496063
0
LINE
8
BLACK
6
CONTINUOUS
10
2.122187559055118
20
0.4411698031496063
11
2.1259225196850395
21
0.4277176377952756
0
LINE
8
BLACK
6
CONTINUOUS
10
2.1259225196850395
20
0.4277176377952756
11
2.1281811811023621
21
0.4139405511811023
0
LINE
8
BLACK
6
CONTINUOUS
10
2.1281811811023621
20
0.4139405511811023
11
2.1289370078740157
21
0.4
0
LINE
8
BLACK
6
CONTINUOUS
10
2.1289370078740157
20
0.4
11
2.1281811811023621
21
0.3860594488188976
0
LINE
8
BLACK
6
CONTINUOUS
10
2.1281811811023621
20
0.3860594488188976
11
2.1259225196850395
21
0.3722823622047244
0
LINE
8
BLACK
6
CONTINUOUS
10
2.1259225196850395
20
0.3722823622047244
11
2.122187559055118
21
0.3588301968503937
0
LINE
8
BLACK
6
CONTINUOUS
10
2.122187559055118
20
0.3588301968503937
11
2.1170200393700789
21
0.3458607480314961
0
LINE
8
BLACK
6
CONTINUOUS
10
2.1170200393700789
20
0.3458607480314961
11
2.1104805905511812
21
0.3335260236220473
0
LINE
8
BLACK
6
CONTINUOUS
10
2.1104805905511812
20
0.3335260236220473
11
2.1026458661417324
21
0.3219706299212599
0
LINE
8
BLACK
6
CONTINUOUS
10
2.1026458661417324
20
0.3219706299212599
11
2.0936076771653545
21
0.3113300787401575
0
LINE
8
BLACK
6
CONTINUOUS
10
2.0936076771653545
20
0.3113300787401575
11
2.0834720472440944
21
0.301729094488189
0
LINE
8
BLACK
6
CONTINUOUS
10
2.0834720472440944
20
0.301729094488189
11
2.0723577952755905
21
0.2932802755905512
0
LINE
8
BLACK
6
CONTINUOUS
10
2.0723577952755905
20
0.2932802755905512
11
2.0603951968503935
21
0.2860825984251968
0
LINE
8
BLACK
6
CONTINUOUS
10
2.0603951968503935
20
0.2860825984251968
11
2.0477244881889765
21
0.2802205118110236
0
LINE
8
BLACK
6
CONTINUOUS
10
2.0477244881889765
20
0.2802205118110236
11
2.0344942913385826
21
0.2757627559055118
0
LINE
8
BLACK
6
CONTINUOUS
10
2.0344942913385826
20
0.2757627559055118
11
2.0208596850393699
21
0.2727615354330709
0
LINE
8
BLACK
6
CONTINUOUS
10
2.0208596850393699
20
0.2727615354330709
11
2.0069805118110238
21
0.2712520866141732
0
LINE
8
BLACK
6
CONTINUOUS
10
2.0069805118110238
20
0.2712520866141732
11
1.9930194881889762
21
0.2712520866141732
0
LINE
8
BLACK
6
CONTINUOUS
10
1.9930194881889762
20
0.2712520866141732
11
1.9791403149606299
21
0.2727615354330709
0
LINE
8
BLACK
6
CONTINUOUS
10
1.9791403149606299
20
0.2727615354330709
11
1.9655057086614174
21
0.2757627559055118
0
LINE
8
BLACK
6
CONTINUOUS
10
1.9655057086614174
20
0.2757627559055118
11
1.9522755118110235
21
0.2802205118110236
0
LINE
8
BLACK
6
CONTINUOUS
10
1.9522755118110235
20
0.2802205118110236
11
1.9396048031496063
21
0.2860825984251968
0
LINE
8
BLACK
6
CONTINUOUS
10
1.9396048031496063
20
0.2860825984251968
11
1.9276422047244095
21
0.2932802755905512
0
LINE
8
BLACK
6
CONTINUOUS
10
1.9276422047244095
20
0.2932802755905512
11
1.9165279527559054
21
0.301729094488189
0
LINE
8
BLACK
6
CONTINUOUS
10
1.9165279527559054
20
0.301729094488189
11
1.9063923228346455
21
0.3113300787401575
0
LINE
8
BLACK
6
CONTINUOUS
10
1.9063923228346455
20
0.3113300787401575
11
1.8973541338582676
21
0.3219706299212599
0
LINE
8
BLACK
6
CONTINUOUS
10
1.8973541338582676
20
0.3219706299212599
11
1.8895194094488188
21
0.3335260236220473
0
LINE
8
BLACK
6
CONTINUOUS
10
1.8895194094488188
20
0.3335260236220473
11
1.8829799606299211
21
0.3458607480314961
0
LINE
8
BLACK
6
CONTINUOUS
10
1.8829799606299211
20
0.3458607480314961
11
1.8778124409448818
21
0.3588301968503937
0
LINE
8
BLACK
6
CONTINUOUS
10
1.8778124409448818
20
0.3588301968503937
11
1.8740774803149607
21
0.3722823622047244
0
LINE
8
BLACK
6
CONTINUOUS
10
1.8740774803149607
20
0.3722823622047244
11
1.8718188188976377
21
0.3860594488188976
0
LINE
8
BLACK
6
CONTINUOUS
10
1.8718188188976377
20
0.3860594488188976
11
1.8710629921259843
21
0.4
0
LINE
8
BLACK
6
CONTINUOUS
10
1.8710629921259843
20
0.4
11
1.8718188188976377
21
0.4139405511811023
0
LINE
8
BLACK
6
CONTINUOUS
10
1.8718188188976377
20
0.4139405511811023
11
1.8740774803149607
21
0.4277176377952756
0
LINE
8
BLACK
6
CONTINUOUS
10
1.8740774803149607
20
0.4277176377952756
11
1.8778124409448818
21
0.4411698031496063
0
LINE
8
BLACK
6
CONTINUOUS
10
1.8778124409448818
20
0.4411698031496063
11
1.8829799606299211
21
0.4541392519685039
0
LINE
8
BLACK
6
CONTINUOUS
10
1.8829799606299211
20
0.4541392519685039
11
1.8895194094488188
21
0.4664739763779527
0
LINE
8
BLACK
6
CONTINUOUS
10
1.8895194094488188
20
0.4664739763779527
11
1.8973541338582676
21
0.4780293700787401
0
LINE
8
BLACK
6
CONTINUOUS
10
1.8973541338582676
20
0.4780293700787401
11
1.9063923228346455
21
0.4886699212598425
0
LINE
8
BLACK
6
CONTINUOUS
10
1.9063923228346455
20
0.4886699212598425
11
1.9165279527559054
21
0.498270905511811
0
LINE
8
BLACK
6
CONTINUOUS
10
1.9165279527559054
20
0.498270905511811
11
1.9276422047244095
21
0.5067197244094488
0
LINE
8
BLACK
6
CONTINUOUS
10
1.9276422047244095
20
0.5067197244094488
11
1.9396048031496063
21
0.5139174015748031
0
LINE
8
BLACK
6
CONTINUOUS
10
1.9396048031496063
20
0.5139174015748031
11
1.9522755118110235
21
0.5197794881889763
0
LINE
8
BLACK
6
CONTINUOUS
10
1.9522755118110235
20
0.5197794881889763
11
1.9655057086614174
21
0.5242372440944881
0
LINE
8
BLACK
6
CONTINUOUS
10
1.9655057086614174
20
0.5242372440944881
11
1.9791403149606299
21
0.5272384645669291
0
LINE
8
BLACK
6
CONTINUOUS
10
1.9791403149606299
20
0.5272384645669291
11
1.9930194881889762
21
0.5287479133858267
0
LINE
8
BLACK
6
CONTINUOUS
10
1.9930194881889762
20
0.5287479133858267
11
2.0069805118110238
21
0.5287479133858267
0
LINE
8
BLACK
6
CONTINUOUS
10
2.0069805118110238
20
0.5287479133858267
11
2.0208596850393699
21
0.5272384645669291
0
LINE
8
BLACK
6
CONTINUOUS
10
1.8775494488188975
20
0.3862031496062992
11
1.8798641732283463
21
0.3725797637795276
0
LINE
8
BLACK
6
CONTINUOUS
10
1.8798641732283463
20
0.3725797637795276
11
1.8836896456692913
21
0.3593012598425197
0
LINE
8
BLACK
6
CONTINUOUS
10
1.8836896456692913
20
0.3593012598425197
11
1.8889777952755904
21
0.3465345275590551
0
LINE
8
BLACK
6
CONTINUOUS
10
1.8889777952755904
20
0.3465345275590551
11
1.8956621259842519
21
0.334440157480315
0
LINE
8
BLACK
6
CONTINUOUS
10
1.8956621259842519
20
0.334440157480315
11
1.9036585433070865
21
0.3231702362204724
0
LINE
8
BLACK
6
CONTINUOUS
10
1.9036585433070865
20
0.3231702362204724
11
1.9128665354330707
21
0.3128665354330709
0
LINE
8
BLACK
6
CONTINUOUS
10
1.9128665354330707
20
0.3128665354330709
11
1.9231702362204723
21
0.3036585433070866
0
LINE
8
BLACK
6
CONTINUOUS
10
1.9231702362204723
20
0.3036585433070866
11
1.9344401574803149
21
0.295662125984252
0
LINE
8
BLACK
6
CONTINUOUS
10
1.9344401574803149
20
0.295662125984252
11
1.9465345275590551
21
0.2889777952755905
0
LINE
8
BLACK
6
CONTINUOUS
10
1.9465345275590551
20
0.2889777952755905
11
1.9593012598425197
21
0.2836896456692913
0
LINE
8
BLACK
6
CONTINUOUS
10
1.9593012598425197
20
0.2836896456692913
11
1.9725797637795275
21
0.2798641732283464
0
LINE
8
BLACK
6
CONTINUOUS
10
1.9725797637795275
20
0.2798641732283464
11
1.9862031496062991
21
0.2775494488188976
0
LINE
8
BLACK
6
CONTINUOUS
10
1.9862031496062991
20
0.2775494488188976
11
2.
21
0.2767746456692913
0
LINE
8
BLACK
6
CONTINUOUS
10
2.
20
0.2767746456692913
11
2.0137968503937009
21
0.2775494488188976
0
LINE
8
BLACK
6
CONTINUOUS
10
2.0137968503937009
20
0.2775494488188976
11
2.0274202362204723
21
0.2798641732283464
0
LINE
8
BLACK
6
CONTINUOUS
10
2.0274202362204723
20
0.2798641732283464
11
2.0406987401574801
21
0.2836896456692913
0
LINE
8
BLACK
6
CONTINUOUS
10
2.0406987401574801
20
0.2836896456692913
11
2.0534654724409447
21
0.2889777952755905
0
LINE
8
BLACK
6
CONTINUOUS
10
2.0534654724409447
20
0.2889777952755905
11
2.0655598425196851
21
0.295662125984252
0
LINE
8
BLACK
6
CONTINUOUS
10
2.0655598425196851
20
0.295662125984252
11
2.0768297637795277
21
0.3036585433070866
0
LINE
8
BLACK
6
CONTINUOUS
10
2.0768297637795277
20
0.3036585433070866
11
2.0871334645669291
21
0.3128665354330709
0
LINE
8
BLACK
6
CONTINUOUS
10
2.0871334645669291
20
0.3128665354330709
11
2.0963414566929135
21
0.3231702362204724
0
LINE
8
BLACK
6
CONTINUOUS
10
2.0963414566929135
20
0.3231702362204724
11
2.1043378740157479
21
0.334440157480315
0
LINE
8
BLACK
6
CONTINUOUS
10
2.1043378740157479
20
0.334440157480315
11
2.1110222047244096
21
0.3465345275590551
0
LINE
8
BLACK
6
CONTINUOUS
10
2.1110222047244096
20
0.3465345275590551
11
2.1163103543307087
21
0.3593012598425197
0
LINE
8
BLACK
6
CONTINUOUS
10
2.1163103543307087
20
0.3593012598425197
11
2.1201358267716537
21
0.3725797637795276
0
LINE
8
BLACK
6
CONTINUOUS
10
2.1201358267716537
20
0.3725797637795276
11
2.1224505511811023
21
0.3862031496062992
0
LINE
8
BLACK
6
CONTINUOUS
10
2.1224505511811023
20
0.3862031496062992
11
2.1232253543307085
21
0.4
0
LINE
8
BLACK
6
CONTINUOUS
10
2.1232253543307085
20
0.4
11
2.1224505511811023
21
0.4137968503937008
0
LINE
8
BLACK
6
CONTINUOUS
10
2.1224505511811023
20
0.4137968503937008
11
2.1201358267716537
21
0.4274202362204724
0
LINE
8
BLACK
6
CONTINUOUS
10
2.1201358267716537
20
0.4274202362204724
11
2.1163103543307087
21
0.4406987401574803
0
LINE
8
BLACK
6
CONTINUOUS
10
2.1163103543307087
20
0.4406987401574803
11
2.1110222047244096
21
0.4534654724409449
0
LINE
8
BLACK
6
CONTINUOUS
10
2.1110222047244096
20
0.4534654724409449
11
2.1043378740157479
21
0.465559842519685
0
LINE
8
BLACK
6
CONTINUOUS
10
2.1043378740157479
20
0.465559842519685
11
2.0963414566929135
21
0.4768297637795276
0
LINE
8
BLACK
6
CONTINUOUS
10
2.0963414566929135
20
0.4768297637795276
11
2.0871334645669291
21
0.4871334645669291
0
LINE
8
BLACK
6
CONTINUOUS
10
2.0871334645669291
20
0.4871334645669291
11
2.0768297637795277
21
0.4963414566929134
0
LINE
8
BLACK
6
CONTINUOUS
10
2.0768297637795277
20
0.4963414566929134
11
2.0655598425196851
21
0.504337874015748
0
LINE
8
BLACK
6
CONTINUOUS
10
2.0655598425196851
20
0.504337874015748
11
2.0534654724409447
21
0.5110222047244094
0
LINE
8
BLACK
6
CONTINUOUS
10
2.0534654724409447
20
0.5110222047244094
11
2.0406987401574801
21
0.5163103543307086
0
LINE
8
BLACK
6
CONTINUOUS
10
2.0406987401574801
20
0.5163103543307086
11
2.0274202362204723
21
0.5201358267716535
0
LINE
8
BLACK
6
CONTINUOUS
10
2.0274202362204723
20
0.5201358267716535
11
2.0137968503937009
21
0.5224505511811024
0
LINE
8
BLACK
6
CONTINUOUS
10
2.0137968503937009
20
0.5224505511811024
11
2.
21
0.5232253543307086
0
LINE
8
BLACK
6
CONTINUOUS
10
2.
20
0.5232253543307086
11
1.9862031496062991
21
0.5224505511811024
0
LINE
8
BLACK
6
CONTINUOUS
10
1.9862031496062991
20
0.5224505511811024
11
1.9725797637795275
21
0.5201358267716535
0
LINE
8
BLACK
6
CONTINUOUS
10
1.9725797637795275
20
0.5201358267716535
11
1.9593012598425197
21
0.5163103543307086
0
LINE
8
BLACK
6
CONTINUOUS
10
1.9593012598425197
20
0.5163103543307086
11
1.9465345275590551
21
0.5110222047244094
0
LINE
8
BLACK
6
CONTINUOUS
10
1.9465345275590551
20
0.5110222047244094
11
1.9344401574803149
21
0.504337874015748
0
LINE
8
BLACK
6
CONTINUOUS
10
1.9344401574803149
20
0.504337874015748
11
1.9231702362204723
21
0.4963414566929134
0
LINE
8
BLACK
6
CONTINUOUS
10
1.9231702362204723
20
0.4963414566929134
11
1.9128665354330707
21
0.4871334645669291
0
LINE
8
BLACK
6
CONTINUOUS
10
1.9128665354330707
20
0.4871334645669291
11
1.9036585433070865
21
0.4768297637795276
0
LINE
8
BLACK
6
CONTINUOUS
10
1.9036585433070865
20
0.4768297637795276
11
1.8956621259842519
21
0.465559842519685
0
LINE
8
BLACK
6
CONTINUOUS
10
1.8956621259842519
20
0.465559842519685
11
1.8889777952755904
21
0.4534654724409449
0
LINE
8
BLACK
6
CONTINUOUS
10
1.8889777952755904
20
0.4534654724409449
11
1.8836896456692913
21
0.4406987401574803
0
LINE
8
BLACK
6
CONTINUOUS
10
1.8836896456692913
20
0.4406987401574803
11
1.8798641732283463
21
0.4274202362204724
0
LINE
8
BLACK
6
CONTINUOUS
10
1.8798641732283463
20
0.4274202362204724
11
1.8775494488188975
21
0.4137968503937008
0
LINE
8
BLACK
6
CONTINUOUS
10
1.8775494488188975
20
0.4137968503937008
11
1.8767746456692913
21
0.4
0
LINE
8
BLACK
6
CONTINUOUS
10
1.8767746456692913
20
0.4
11
1.8775494488188975
21
0.3862031496062992
0
LINE
8
BLACK
6
CONTINUOUS
10
0.42085968503937
20
2.1272384645669291
11
0.4344942913385827
21
2.1242372440944881
0
LINE
8
BLACK
6
CONTINUOUS
10
0.4344942913385827
20
2.1242372440944881
11
0.4477244881889764
21
2.1197794881889762
0
LINE
8
BLACK
6
CONTINUOUS
10
0.4477244881889764
20
2.1197794881889762
11
0.4603951968503937
21
2.113917401574803
0
LINE
8
BLACK
6
CONTINUOUS
10
0.4603951968503937
20
2.113917401574803
11
0.4723577952755905
21
2.1067197244094489
0
LINE
8
BLACK
6
CONTINUOUS
10
0.4723577952755905
20
2.1067197244094489
11
0.4834720472440945
21
2.0982709055118112
0
LINE
8
BLACK
6
CONTINUOUS
10
0.4834720472440945
20
2.0982709055118112
11
0.4936076771653543
21
2.0886699212598425
0
LINE
8
BLACK
6
CONTINUOUS
10
0.4936076771653543
20
2.0886699212598425
11
0.5026458661417322
21
2.07802937007874
0
LINE
8
BLACK
6
CONTINUOUS
10
0.5026458661417322
20
2.07802937007874
11
0.5104805905511811
21
2.0664739763779525
0
LINE
8
BLACK
6
CONTINUOUS
10
0.5104805905511811
20
2.0664739763779525
11
0.5170200393700787
21
2.054139251968504
0
LINE
8
BLACK
6
CONTINUOUS
10
0.5170200393700787
20
2.054139251968504
11
0.522187559055118
21
2.0411698031496064
0
LINE
8
BLACK
6
CONTINUOUS
10
0.522187559055118
20
2.0411698031496064
11
0.5259225196850393
21
2.0277176377952757
0
LINE
8
BLACK
6
CONTINUOUS
10
0.5259225196850393
20
2.0277176377952757
11
0.5281811811023622
21
2.0139405511811024
0
LINE
8
BLACK
6
CONTINUOUS
10
0.5281811811023622
20
2.0139405511811024
11
0.5289370078740158
21
2.
0
LINE
8
BLACK
6
CONTINUOUS
10
0.5289370078740158
20
2.
11
0.5281811811023622
21
1.9860594488188976
0
LINE
8
BLACK
6
CONTINUOUS
10
0.5281811811023622
20
1.9860594488188976
11
0.5259225196850393
21
1.9722823622047243
0
LINE
8
BLACK
6
CONTINUOUS
10
0.5259225196850393
20
1.9722823622047243
11
0.522187559055118
21
1.9588301968503936
0
LINE
8
BLACK
6
CONTINUOUS
10
0.522187559055118
20
1.9588301968503936
11
0.5170200393700787
21
1.945860748031496
0
LINE
8
BLACK
6
CONTINUOUS
10
0.5170200393700787
20
1.945860748031496
11
0.5104805905511811
21
1.9335260236220473
0
LINE
8
BLACK
6
CONTINUOUS
10
0.5104805905511811
20
1.9335260236220473
11
0.5026458661417322
21
1.9219706299212598
0
LINE
8
BLACK
6
CONTINUOUS
10
0.5026458661417322
20
1.9219706299212598
11
0.4936076771653543
21
1.9113300787401575
0
LINE
8
BLACK
6
CONTINUOUS
10
0.4936076771653543
20
1.9113300787401575
11
0.4834720472440945
21
1.9017290944881888
0
LINE
8
BLACK
6
CONTINUOUS
10
0.4834720472440945
20
1.9017290944881888
11
0.4723577952755905
21
1.8932802755905511
0
LINE
8
BLACK
6
CONTINUOUS
10
0.4723577952755905
20
1.8932802755905511
11
0.4603951968503937
21
1.8860825984251968
0
LINE
8
BLACK
6
CONTINUOUS
10
0.4603951968503937
20
1.8860825984251968
11
0.4477244881889764
21
1.8802205118110236
0
LINE
8
BLACK
6
CONTINUOUS
10
0.4477244881889764
20
1.8802205118110236
11
0.4344942913385827
21
1.8757627559055117
0
LINE
8
BLACK
6
CONTINUOUS
10
0.4344942913385827
20
1.8757627559055117
11
0.42085968503937
21
1.8727615354330709
0
LINE
8
BLACK
6
CONTINUOUS
10
0.42085968503937
20
1.8727615354330709
11
0.4069805118110236
21
1.8712520866141731
0
LINE
8
BLACK
6
CONTINUOUS
10
0.4069805118110236
20
1.8712520866141731
11
0.3930194881889764
21
1.8712520866141731
0
LINE
8
BLACK
6
CONTINUOUS
10
0.3930194881889764
20
1.8712520866141731
11
0.3791403149606299
21
1.8727615354330709
0
LINE
8
BLACK
6
CONTINUOUS
10
0.3791403149606299
20
1.8727615354330709
11
0.3655057086614173
21
1.8757627559055117
0
LINE
8
BLACK
6
CONTINUOUS
10
0.3655057086614173
20
1.8757627559055117
11
0.3522755118110236
21
1.8802205118110236
0
LINE
8
BLACK
6
CONTINUOUS
10
0.3522755118110236
20
1.8802205118110236
11
0.3396048031496063
21
1.8860825984251968
0
LINE
8
BLACK
6
CONTINUOUS
10
0.3396048031496063
20
1.8860825984251968
11
0.3276422047244094
21
1.8932802755905511
0
LINE
8
BLACK
6
CONTINUOUS
10
0.3276422047244094
20
1.8932802755905511
11
0.3165279527559055
21
1.9017290944881888
0
LINE
8
BLACK
6
CONTINUOUS
10
0.3165279527559055
20
1.9017290944881888
11
0.3063923228346457
21
1.9113300787401575
0
LINE
8
BLACK
6
CONTINUOUS
10
0.3063923228346457
20
1.9113300787401575
11
0.2973541338582677
21
1.9219706299212598
0
LINE
8
BLACK
6
CONTINUOUS
10
0.2973541338582677
20
1.9219706299212598
11
0.2895194094488189
21
1.9335260236220473
0
LINE
8
BLACK
6
CONTINUOUS
10
0.2895194094488189
20
1.9335260236220473
11
0.2829799606299213
21
1.945860748031496
0
LINE
8
BLACK
6
CONTINUOUS
10
0.2829799606299213
20
1.945860748031496
11
0.2778124409448819
21
1.9588301968503936
0
LINE
8
BLACK
6
CONTINUOUS
10
0.2778124409448819
20
1.9588301968503936
11
0.2740774803149606
21
1.9722823622047243
0
LINE
8
BLACK
6
CONTINUOUS
10
0.2740774803149606
20
1.9722823622047243
11
0.2718188188976378
21
1.9860594488188976
0
LINE
8
BLACK
6
CONTINUOUS
10
0.2718188188976378
20
1.9860594488188976
11
0.2710629921259842
21
2.
0
LINE
8
BLACK
6
CONTINUOUS
10
0.2710629921259842
20
2.
11
0.2718188188976378
21
2.0139405511811024
0
LINE
8
BLACK
6
CONTINUOUS
10
0.2718188188976378
20
2.0139405511811024
11
0.2740774803149606
21
2.0277176377952757
0
LINE
8
BLACK
6
CONTINUOUS
10
0.2740774803149606
20
2.0277176377952757
11
0.2778124409448819
21
2.0411698031496064
0
LINE
8
BLACK
6
CONTINUOUS
10
0.2778124409448819
20
2.0411698031496064
11
0.2829799606299213
21
2.054139251968504
0
LINE
8
BLACK
6
CONTINUOUS
10
0.2829799606299213
20
2.054139251968504
11
0.2895194094488189
21
2.0664739763779525
0
LINE
8
BLACK
6
CONTINUOUS
10
0.2895194094488189
20
2.0664739763779525
11
0.2973541338582677
21
2.07802937007874
0
LINE
8
BLACK
6
CONTINUOUS
10
0.2973541338582677
20
2.07802937007874
11
0.3063923228346457
21
2.0886699212598425
0
LINE
8
BLACK
6
CONTINUOUS
10
0.3063923228346457
20
2.0886699212598425
11
0.3165279527559055
21
2.0982709055118112
0
LINE
8
BLACK
6
CONTINUOUS
10
0.3165279527559055
20
2.0982709055118112
11
0.3276422047244094
21
2.1067197244094489
0
LINE
8
BLACK
6
CONTINUOUS
10
0.3276422047244094
20
2.1067197244094489
11
0.3396048031496063
21
2.113917401574803
0
LINE
8
BLACK
6
CONTINUOUS
10
0.3396048031496063
20
2.113917401574803
11
0.3522755118110236
21
2.1197794881889762
0
LINE
8
BLACK
6
CONTINUOUS
10
0.3522755118110236
20
2.1197794881889762
11
0.3655057086614173
21
2.1242372440944881
0
LINE
8
BLACK
6
CONTINUOUS
10
0.3655057086614173
20
2.1242372440944881
11
0.3791403149606299
21
2.1272384645669291
0
LINE
8
BLACK
6
CONTINUOUS
10
0.3791403149606299
20
2.1272384645669291
11
0.3930194881889764
21
2.1287479133858267
0
LINE
8
BLACK
6
CONTINUOUS
10
0.3930194881889764
20
2.1287479133858267
11
0.4069805118110236
21
2.1287479133858267
0
LINE
8
BLACK
6
CONTINUOUS
10
0.4069805118110236
20
2.1287479133858267
11
0.42085968503937
21
2.1272384645669291
0
LINE
8
BLACK
6
CONTINUOUS
10
0.2775494488188976
20
1.9862031496062991
11
0.2798641732283464
21
1.9725797637795275
0
LINE
8
BLACK
6
CONTINUOUS
10
0.2798641732283464
20
1.9725797637795275
11
0.2836896456692913
21
1.9593012598425197
0
LINE
8
BLACK
6
CONTINUOUS
10
0.2836896456692913
20
1.9593012598425197
11
0.2889777952755905
21
1.9465345275590551
0
LINE
8
BLACK
6
CONTINUOUS
10
0.2889777952755905
20
1.9465345275590551
11
0.295662125984252
21
1.9344401574803149
0
LINE
8
BLACK
6
CONTINUOUS
10
0.295662125984252
20
1.9344401574803149
11
0.3036585433070866
21
1.9231702362204723
0
LINE
8
BLACK
6
CONTINUOUS
10
0.3036585433070866
20
1.9231702362204723
11
0.3128665354330709
21
1.9128665354330707
0
LINE
8
BLACK
6
CONTINUOUS
10
0.3128665354330709
20
1.9128665354330707
11
0.3231702362204724
21
1.9036585433070865
0
LINE
8
BLACK
6
CONTINUOUS
10
0.3231702362204724
20
1.9036585433070865
11
0.334440157480315
21
1.8956621259842519
0
LINE
8
BLACK
6
CONTINUOUS
10
0.334440157480315
20
1.8956621259842519
11
0.3465345275590551
21
1.8889777952755904
0
LINE
8
BLACK
6
CONTINUOUS
10
0.3465345275590551
20
1.8889777952755904
11
0.3593012598425197
21
1.8836896456692913
0
LINE
8
BLACK
6
CONTINUOUS
10
0.3593012598425197
20
1.8836896456692913
11
0.3725797637795276
21
1.8798641732283463
0
LINE
8
BLACK
6
CONTINUOUS
10
0.3725797637795276
20
1.8798641732283463
11
0.3862031496062992
21
1.8775494488188975
0
LINE
8
BLACK
6
CONTINUOUS
10
0.3862031496062992
20
1.8775494488188975
11
0.4
21
1.8767746456692913
0
LINE
8
BLACK
6
CONTINUOUS
10
0.4
20
1.8767746456692913
11
0.4137968503937008
21
1.8775494488188975
0
LINE
8
BLACK
6
CONTINUOUS
10
0.4137968503937008
20
1.8775494488188975
11
0.4274202362204724
21
1.8798641732283463
0
LINE
8
BLACK
6
CONTINUOUS
10
0.4274202362204724
20
1.8798641732283463
11
0.4406987401574803
21
1.8836896456692913
0
LINE
8
BLACK
6
CONTINUOUS
10
0.4406987401574803
20
1.8836896456692913
11
0.4534654724409449
21
1.8889777952755904
0
LINE
8
BLACK
6
CONTINUOUS
10
0.4534654724409449
20
1.8889777952755904
11
0.465559842519685
21
1.8956621259842519
0
LINE
8
BLACK
6
CONTINUOUS
10
0.465559842519685
20
1.8956621259842519
11
0.4768297637795276
21
1.9036585433070865
0
LINE
8
BLACK
6
CONTINUOUS
10
0.4768297637795276
20
1.9036585433070865
11
0.4871334645669291
21
1.9128665354330707
0
LINE
8
BLACK
6
CONTINUOUS
10
0.4871334645669291
20
1.9128665354330707
11
0.4963414566929134
21
1.9231702362204723
0
LINE
8
BLACK
6
CONTINUOUS
10
0.4963414566929134
20
1.9231702362204723
11
0.504337874015748
21
1.9344401574803149
0
LINE
8
BLACK
6
CONTINUOUS
10
0.504337874015748
20
1.9344401574803149
11
0.5110222047244094
21
1.9465345275590551
0
LINE
8
BLACK
6
CONTINUOUS
10
0.5110222047244094
20
1.9465345275590551
11
0.5163103543307086
21
1.9593012598425197
0
LINE
8
BLACK
6
CONTINUOUS
10
0.5163103543307086
20
1.9593012598425197
11
0.5201358267716535
21
1.9725797637795275
0
LINE
8
BLACK
6
CONTINUOUS
10
0.5201358267716535
20
1.9725797637795275
11
0.5224505511811024
21
1.9862031496062991
0
LINE
8
BLACK
6
CONTINUOUS
10
0.5224505511811024
20
1.9862031496062991
11
0.5232253543307086
21
2.
0
LINE
8
BLACK
6
CONTINUOUS
10
0.5232253543307086
20
2.
11
0.5224505511811024
21
2.0137968503937009
0
LINE
8
BLACK
6
CONTINUOUS
10
0.5224505511811024
20
2.0137968503937009
11
0.5201358267716535
21
2.0274202362204723
0
LINE
8
BLACK
6
CONTINUOUS
10
0.5201358267716535
20
2.0274202362204723
11
0.5163103543307086
21
2.0406987401574801
0
LINE
8
BLACK
6
CONTINUOUS
10
0.5163103543307086
20
2.0406987401574801
11
0.5110222047244094
21
2.0534654724409447
0
LINE
8
BLACK
6
CONTINUOUS
10
0.5110222047244094
20
2.0534654724409447
11
0.504337874015748
21
2.0655598425196851
0
LINE
8
BLACK
6
CONTINUOUS
10
0.504337874015748
20
2.0655598425196851
11
0.4963414566929134
21
2.0768297637795277
0
LINE
8
BLACK
6
CONTINUOUS
10
0.4963414566929134
20
2.0768297637795277
11
0.4871334645669291
21
2.0871334645669291
0
LINE
8
BLACK
6
CONTINUOUS
10
0.4871334645669291
20
2.0871334645669291
11
0.4768297637795276
21
2.0963414566929135
0
LINE
8
BLACK
6
CONTINUOUS
10
0.4768297637795276
20
2.0963414566929135
11
0.465559842519685
21
2.1043378740157479
0
LINE
8
BLACK
6
CONTINUOUS
10
0.465559842519685
20
2.1043378740157479
11
0.4534654724409449
21
2.1110222047244096
0
LINE
8
BLACK
6
CONTINUOUS
10
0.4534654724409449
20
2.1110222047244096
11
0.4406987401574803
21
2.1163103543307087
0
LINE
8
BLACK
6
CONTINUOUS
10
0.4406987401574803
20
2.1163103543307087
11
0.4274202362204724
21
2.1201358267716537
0
LINE
8
BLACK
6
CONTINUOUS
10
0.4274202362204724
20
2.1201358267716537
11
0.4137968503937008
21
2.1224505511811023
0
LINE
8
BLACK
6
CONTINUOUS
10
0.4137968503937008
20
2.1224505511811023
11
0.4
21
2.1232253543307085
0
LINE
8
BLACK
6
CONTINUOUS
10
0.4
20
2.1232253543307085
11
0.3862031496062992
21
2.1224505511811023
0
LINE
8
BLACK
6
CONTINUOUS
10
0.3862031496062992
20
2.1224505511811023
11
0.3725797637795276
21
2.1201358267716537
0
LINE
8
BLACK
6
CONTINUOUS
10
0.3725797637795276
20
2.1201358267716537
11
0.3593012598425197
21
2.1163103543307087
0
LINE
8
BLACK
6
CONTINUOUS
10
0.3593012598425197
20
2.1163103543307087
11
0.3465345275590551
21
2.1110222047244096
0
LINE
8
BLACK
6
CONTINUOUS
10
0.3465345275590551
20
2.1110222047244096
11
0.334440157480315
21
2.1043378740157479
0
LINE
8
BLACK
6
CONTINUOUS
10
0.334440157480315
20
2.1043378740157479
11
0.3231702362204724
21
2.0963414566929135
0
LINE
8
BLACK
6
CONTINUOUS
10
0.3231702362204724
20
2.0963414566929135
11
0.3128665354330709
21
2.0871334645669291
0
LINE
8
BLACK
6
CONTINUOUS
10
0.3128665354330709
20
2.0871334645669291
11
0.3036585433070866
21
2.0768297637795277
0
LINE
8
BLACK
6
CONTINUOUS
10
0.3036585433070866
20
2.0768297637795277
11
0.295662125984252
21
2.0655598425196851
0
LINE
8
BLACK
6
CONTINUOUS
10
0.295662125984252
20
2.0655598425196851
11
0.2889777952755905
21
2.0534654724409447
0
LINE
8
BLACK
6
CONTINUOUS
10
0.2889777952755905
20
2.0534654724409447
11
0.2836896456692913
21
2.0406987401574801
0
LINE
8
BLACK
6
CONTINUOUS
10
0.2836896456692913
20
2.0406987401574801
11
0.2798641732283464
21
2.0274202362204723
0
LINE
8
BLACK
6
CONTINUOUS
10
0.2798641732283464
20
2.0274202362204723
11
0.2775494488188976
21
2.0137968503937009
0
LINE
8
BLACK
6
CONTINUOUS
10
0.2775494488188976
20
2.0137968503937009
11
0.2767746456692913
21
2.
0
LINE
8
BLACK
6
CONTINUOUS
10
0.2767746456692913
20
2.
11
0.2775494488188976
21
1.9862031496062991
0
LINE
8
BLACK
6
CONTINUOUS
10
2.0208596850393699
20
2.1272384645669291
11
2.0344942913385826
21
2.1242372440944881
0
LINE
8
BLACK
6
CONTINUOUS
10
2.0344942913385826
20
2.1242372440944881
11
2.0477244881889765
21
2.1197794881889762
0
LINE
8
BLACK
6
CONTINUOUS
10
2.0477244881889765
20
2.1197794881889762
11
2.0603951968503935
21
2.113917401574803
0
LINE
8
BLACK
6
CONTINUOUS
10
2.0603951968503935
20
2.113917401574803
11
2.0723577952755905
21
2.1067197244094489
0
LINE
8
BLACK
6
CONTINUOUS
10
2.0723577952755905
20
2.1067197244094489
11
2.0834720472440944
21
2.0982709055118112
0
LINE
8
BLACK
6
CONTINUOUS
10
2.0834720472440944
20
2.0982709055118112
11
2.0936076771653545
21
2.0886699212598425
0
LINE
8
BLACK
6
CONTINUOUS
10
2.0936076771653545
20
2.0886699212598425
11
2.1026458661417324
21
2.07802937007874
0
LINE
8
BLACK
6
CONTINUOUS
10
2.1026458661417324
20
2.07802937007874
11
2.1104805905511812
21
2.0664739763779525
0
LINE
8
BLACK
6
CONTINUOUS
10
2.1104805905511812
20
2.0664739763779525
11
2.1170200393700789
21
2.054139251968504
0
LINE
8
BLACK
6
CONTINUOUS
10
2.1170200393700789
20
2.054139251968504
11
2.122187559055118
21
2.0411698031496064
0
LINE
8
BLACK
6
CONTINUOUS
10
2.122187559055118
20
2.0411698031496064
11
2.1259225196850395
21
2.0277176377952757
0
LINE
8
BLACK
6
CONTINUOUS
10
2.1259225196850395
20
2.0277176377952757
11
2.1281811811023621
21
2.0139405511811024
0
LINE
8
BLACK
6
CONTINUOUS
10
2.1281811811023621
20
2.0139405511811024
11
2.1289370078740157
21
2.
0
LINE
8
BLACK
6
CONTINUOUS
10
2.1289370078740157
20
2.
11
2.1281811811023621
21
1.9860594488188976
0
LINE
8
BLACK
6
CONTINUOUS
10
2.1281811811023621
20
1.9860594488188976
11
2.1259225196850395
21
1.9722823622047243
0
LINE
8
BLACK
6
CONTINUOUS
10
2.1259225196850395
20
1.9722823622047243
11
2.122187559055118
21
1.9588301968503936
0
LINE
8
BLACK
6
CONTINUOUS
10
2.122187559055118
20
1.9588301968503936
11
2.1170200393700789
21
1.945860748031496
0
LINE
8
BLACK
6
CONTINUOUS
10
2.1170200393700789
20
1.945860748031496
11
2.1104805905511812
21
1.9335260236220473
0
LINE
8
BLACK
6
CONTINUOUS
10
2.1104805905511812
20
1.9335260236220473
11
2.1026458661417324
21
1.9219706299212598
0
LINE
8
BLACK
6
CONTINUOUS
10
2.1026458661417324
20
1.9219706299212598
11
2.0936076771653545
21
1.9113300787401575
0
LINE
8
BLACK
6
CONTINUOUS
10
2.0936076771653545
20
1.9113300787401575
11
2.0834720472440944
21
1.9017290944881888
0
LINE
8
BLACK
6
CONTINUOUS
10
2.0834720472440944
20
1.9017290944881888
11
2.0723577952755905
21
1.8932802755905511
0
LINE
8
BLACK
6
CONTINUOUS
10
2.0723577952755905
20
1.8932802755905511
11
2.0603951968503935
21
1.8860825984251968
0
LINE
8
BLACK
6
CONTINUOUS
10
2.0603951968503935
20
1.8860825984251968
11
2.0477244881889765
21
1.8802205118110236
0
LINE
8
BLACK
6
CONTINUOUS
10
2.0477244881889765
20
1.8802205118110236
11
2.0344942913385826
21
1.8757627559055117
0
LINE
8
BLACK
6
CONTINUOUS
10
2.0344942913385826
20
1.8757627559055117
11
2.0208596850393699
21
1.8727615354330709
0
LINE
8
BLACK
6
CONTINUOUS
10
2.0208596850393699
20
1.8727615354330709
11
2.0069805118110238
21
1.8712520866141731
0
LINE
8
BLACK
6
CONTINUOUS
10
2.0069805118110238
20
1.8712520866141731
11
1.9930194881889762
21
1.8712520866141731
0
LINE
8
BLACK
6
CONTINUOUS
10
1.9930194881889762
20
1.8712520866141731
11
1.9791403149606299
21
1.8727615354330709
0
LINE
8
BLACK
6
CONTINUOUS
10
1.9791403149606299
20
1.8727615354330709
11
1.9655057086614174
21
1.8757627559055117
0
LINE
8
BLACK
6
CONTINUOUS
10
1.9655057086614174
20
1.8757627559055117
11
1.9522755118110235
21
1.8802205118110236
0
LINE
8
BLACK
6
CONTINUOUS
10
1.9522755118110235
20
1.8802205118110236
11
1.9396048031496063
21
1.8860825984251968
0
LINE
8
BLACK
6
CONTINUOUS
10
1.9396048031496063
20
1.8860825984251968
11
1.9276422047244095
21
1.8932802755905511
0
LINE
8
BLACK
6
CONTINUOUS
10
1.9276422047244095
20
1.8932802755905511
11
1.9165279527559054
21
1.9017290944881888
0
LINE
8
BLACK
6
CONTINUOUS
10
1.9165279527559054
20
1.9017290944881888
11
1.9063923228346455
21
1.9113300787401575
0
LINE
8
BLACK
6
CONTINUOUS
10
1.9063923228346455
20
1.9113300787401575
11
1.8973541338582676
21
1.9219706299212598
0
LINE
8
BLACK
6
CONTINUOUS
10
1.8973541338582676
20
1.9219706299212598
11
1.8895194094488188
21
1.9335260236220473
0
LINE
8
BLACK
6
CONTINUOUS
10
1.8895194094488188
20
1.9335260236220473
11
1.8829799606299211
21
1.945860748031496
0
LINE
8
BLACK
6
CONTINUOUS
10
1.8829799606299211
20
1.945860748031496
11
1.8778124409448818
21
1.9588301968503936
0
LINE
8
BLACK
6
CONTINUOUS
10
1.8778124409448818
20
1.9588301968503936
11
1.8740774803149607
21
1.9722823622047243
0
LINE
8
BLACK
6
CONTINUOUS
10
1.8740774803149607
20
1.9722823622047243
11
1.8718188188976377
21
1.9860594488188976
0
LINE
8
BLACK
6
CONTINUOUS
10
1.8718188188976377
20
1.9860594488188976
11
1.8710629921259843
21
2.
0
LINE
8
BLACK
6
CONTINUOUS
10
1.8710629921259843
20
2.
11
1.8718188188976377
21
2.0139405511811024
0
LINE
8
BLACK
6
CONTINUOUS
10
1.8718188188976377
20
2.0139405511811024
11
1.8740774803149607
21
2.0277176377952757
0
LINE
8
BLACK
6
CONTINUOUS
10
1.8740774803149607
20
2.0277176377952757
11
1.8778124409448818
21
2.0411698031496064
0
LINE
8
BLACK
6
CONTINUOUS
10
1.8778124409448818
20
2.0411698031496064
11
1.8829799606299211
21
2.054139251968504
0
LINE
8
BLACK
6
CONTINUOUS
10
1.8829799606299211
20
2.054139251968504
11
1.8895194094488188
21
2.0664739763779525
0
LINE
8
BLACK
6
CONTINUOUS
10
1.8895194094488188
20
2.0664739763779525
11
1.8973541338582676
21
2.07802937007874
0
LINE
8
BLACK
6
CONTINUOUS
10
1.8973541338582676
20
2.07802937007874
11
1.9063923228346455
21
2.0886699212598425
0
LINE
8
BLACK
6
CONTINUOUS
10
1.9063923228346455
20
2.0886699212598425
11
1.9165279527559054
21
2.0982709055118112
0
LINE
8
BLACK
6
CONTINUOUS
10
1.9165279527559054
20
2.0982709055118112
11
1.9276422047244095
21
2.1067197244094489
0
LINE
8
BLACK
6
CONTINUOUS
10
1.9276422047244095
20
2.1067197244094489
11
1.9396048031496063
21
2.113917401574803
0
LINE
8
BLACK
6
CONTINUOUS
10
1.9396048031496063
20
2.113917401574803
11
1.9522755118110235
21
2.1197794881889762
0
LINE
8
BLACK
6
CONTINUOUS
10
1.9522755118110235
20
2.1197794881889762
11
1.9655057086614174
21
2.1242372440944881
0
LINE
8
BLACK
6
CONTINUOUS
10
1.9655057086614174
20
2.1242372440944881
11
1.9791403149606299
21
2.1272384645669291
0
LINE
8
BLACK
6
CONTINUOUS
10
1.9791403149606299
20
2.1272384645669291
11
1.9930194881889762
21
2.1287479133858267
0
LINE
8
BLACK
6
CONTINUOUS
10
1.9930194881889762
20
2.1287479133858267
11
2.0069805118110238
21
2.1287479133858267
0
LINE
8
BLACK
6
CONTINUOUS
10
2.0069805118110238
20
2.1287479133858267
11
2.0208596850393699
21
2.1272384645669291
0
LINE
8
BLACK
6
CONTINUOUS
10
1.8775494488188975
20
1.9862031496062991
11
1.8798641732283463
21
1.9725797637795275
0
LINE
8
BLACK
6
CONTINUOUS
10
1.8798641732283463
20
1.9725797637795275
11
1.8836896456692913
21
1.9593012598425197
0
LINE
8
BLACK
6
CONTINUOUS
10
1.8836896456692913
20
1.9593012598425197
11
1.8889777952755904
21
1.9465345275590551
0
LINE
8
BLACK
6
CONTINUOUS
10
1.8889777952755904
20
1.9465345275590551
11
1.8956621259842519
21
1.9344401574803149
0
LINE
8
BLACK
6
CONTINUOUS
10
1.8956621259842519
20
1.9344401574803149
11
1.9036585433070865
21
1.9231702362204723
0
LINE
8
BLACK
6
CONTINUOUS
10
1.9036585433070865
20
1.9231702362204723
11
1.9128665354330707
21
1.9128665354330707
0
LINE
8
BLACK
6
CONTINUOUS
10
1.9128665354330707
20
1.9128665354330707
11
1.9231702362204723
21
1.9036585433070865
0
LINE
8
BLACK
6
CONTINUOUS
10
1.9231702362204723
20
1.9036585433070865
11
1.9344401574803149
21
1.8956621259842519
0
LINE
8
BLACK
6
CONTINUOUS
10
1.9344401574803149
20
1.8956621259842519
11
1.9465345275590551
21
1.8889777952755904
0
LINE
8
BLACK
6
CONTINUOUS
10
1.9465345275590551
20
1.8889777952755904
11
1.9593012598425197
21
1.8836896456692913
0
LINE
8
BLACK
6
CONTINUOUS
10
1.9593012598425197
20
1.8836896456692913
11
1.9725797637795275
21
1.8798641732283463
0
LINE
8
BLACK
6
CONTINUOUS
10
1.9725797637795275
20
1.8798641732283463
11
1.9862031496062991
21
1.8775494488188975
0
LINE
8
BLACK
6
CONTINUOUS
10
1.9862031496062991
20
1.8775494488188975
11
2.
21
1.8767746456692913
0
LINE
8
BLACK
6
CONTINUOUS
10
2.
20
1.8767746456692913
11
2.0137968503937009
21
1.8775494488188975
0
LINE
8
BLACK
6
CONTINUOUS
10
2.0137968503937009
20
1.8775494488188975
11
2.0274202362204723
21
1.8798641732283463
0
LINE
8
BLACK
6
CONTINUOUS
10
2.0274202362204723
20
1.8798641732283463
11
2.0406987401574801
21
1.8836896456692913
0
LINE
8
BLACK
6
CONTINUOUS
10
2.0406987401574801
20
1.8836896456692913
11
2.0534654724409447
21
1.8889777952755904
0
LINE
8
BLACK
6
CONTINUOUS
10
2.0534654724409447
20
1.8889777952755904
11
2.0655598425196851
21
1.8956621259842519
0
LINE
8
BLACK
6
CONTINUOUS
10
2.0655598425196851
20
1.8956621259842519
11
2.0768297637795277
21
1.9036585433070865
0
LINE
8
BLACK
6
CONTINUOUS
10
2.0768297637795277
20
1.9036585433070865
11
2.0871334645669291
21
1.9128665354330707
0
LINE
8
BLACK
6
CONTINUOUS
10
2.0871334645669291
20
1.9128665354330707
11
2.0963414566929135
21
1.9231702362204723
0
LINE
8
BLACK
6
CONTINUOUS
10
2.0963414566929135
20
1.9231702362204723
11
2.1043378740157479
21
1.9344401574803149
0
LINE
8
BLACK
6
CONTINUOUS
10
2.1043378740157479
20
1.9344401574803149
11
2.1110222047244096
21
1.9465345275590551
0
LINE
8
BLACK
6
CONTINUOUS
10
2.1110222047244096
20
1.9465345275590551
11
2.1163103543307087
21
1.9593012598425197
0
LINE
8
BLACK
6
CONTINUOUS
10
2.1163103543307087
20
1.9593012598425197
11
2.1201358267716537
21
1.9725797637795275
0
LINE
8
BLACK
6
CONTINUOUS
10
2.1201358267716537
20
1.9725797637795275
11
2.1224505511811023
21
1.9862031496062991
0
LINE
8
BLACK
6
CONTINUOUS
10
2.1224505511811023
20
1.9862031496062991
11
2.1232253543307085
21
2.
0
LINE
8
BLACK
6
CONTINUOUS
10
2.1232253543307085
20
2.
11
2.1224505511811023
21
2.0137968503937009
0
LINE
8
BLACK
6
CONTINUOUS
10
2.1224505511811023
20
2.0137968503937009
11
2.1201358267716537
21
2.0274202362204723
0
LINE
8
BLACK
6
CONTINUOUS
10
2.1201358267716537
20
2.0274202362204723
11
2.1163103543307087
21
2.0406987401574801
0
LINE
8
BLACK
6
CONTINUOUS
10
2.1163103543307087
20
2.0406987401574801
11
2.1110222047244096
21
2.0534654724409447
0
LINE
8
BLACK
6
CONTINUOUS
10
2.1110222047244096
20
2.0534654724409447
11
2.1043378740157479
21
2.0655598425196851
0
LINE
8
BLACK
6
CONTINUOUS
10
2.1043378740157479
20
2.0655598425196851
11
2.0963414566929135
21
2.0768297637795277
0
LINE
8
BLACK
6
CONTINUOUS
10
2.0963414566929135
20
2.0768297637795277
11
2.0871334645669291
21
2.0871334645669291
0
LINE
8
BLACK
6
CONTINUOUS
10
2.0871334645669291
20
2.0871334645669291
11
2.0768297637795277
21
2.0963414566929135
0
LINE
8
BLACK
6
CONTINUOUS
10
2.0768297637795277
20
2.0963414566929135
11
2.0655598425196851
21
2.1043378740157479
0
LINE
8
BLACK
6
CONTINUOUS
10
2.0655598425196851
20
2.1043378740157479
11
2.0534654724409447
21
2.1110222047244096
0
LINE
8
BLACK
6
CONTINUOUS
10
2.0534654724409447
20
2.1110222047244096
11
2.0406987401574801
21
2.1163103543307087
0
LINE
8
BLACK
6
CONTINUOUS
10
2.0406987401574801
20
2.1163103543307087
11
2.0274202362204723
21
2.1201358267716537
0
LINE
8
BLACK
6
CONTINUOUS
10
2.0274202362204723
20
2.1201358267716537
11
2.0137968503937009
21
2.1224505511811023
0
LINE
8
BLACK
6
CONTINUOUS
10
2.0137968503937009
20
2.1224505511811023
11
2.
21
2.1232253543307085
0
LINE
8
BLACK
6
CONTINUOUS
10
2.
20
2.1232253543307085
11
1.9862031496062991
21
2.1224505511811023
0
LINE
8
BLACK
6
CONTINUOUS
10
1.9862031496062991
20
2.1224505511811023
11
1.9725797637795275
21
2.1201358267716537
0
LINE
8
BLACK
6
CONTINUOUS
10
1.9725797637795275
20
2.1201358267716537
11
1.9593012598425197
21
2.1163103543307087
0
LINE
8
BLACK
6
CONTINUOUS
10
1.9593012598425197
20
2.1163103543307087
11
1.9465345275590551
21
2.1110222047244096
0
LINE
8
BLACK
6
CONTINUOUS
10
1.9465345275590551
20
2.1110222047244096
11
1.9344401574803149
21
2.1043378740157479
0
LINE
8
BLACK
6
CONTINUOUS
10
1.9344401574803149
20
2.1043378740157479
11
1.9231702362204723
21
2.0963414566929135
0
LINE
8
BLACK
6
CONTINUOUS
10
1.9231702362204723
20
2.0963414566929135
11
1.9128665354330707
21
2.0871334645669291
0
LINE
8
BLACK
6
CONTINUOUS
10
1.9128665354330707
20
2.0871334645669291
11
1.9036585433070865
21
2.0768297637795277
0
LINE
8
BLACK
6
CONTINUOUS
10
1.9036585433070865
20
2.0768297637795277
11
1.8956621259842519
21
2.0655598425196851
0
LINE
8
BLACK
6
CONTINUOUS
10
1.8956621259842519
20
2.0655598425196851
11
1.8889777952755904
21
2.0534654724409447
0
LINE
8
BLACK
6
CONTINUOUS
10
1.8889777952755904
20
2.0534654724409447
11
1.8836896456692913
21
2.0406987401574801
0
LINE
8
BLACK
6
CONTINUOUS
10
1.8836896456692913
20
2.0406987401574801
11
1.8798641732283463
21
2.0274202362204723
0
LINE
8
BLACK
6
CONTINUOUS
10
1.8798641732283463
20
2.0274202362204723
11
1.8775494488188975
21
2.0137968503937009
0
LINE
8
BLACK
6
CONTINUOUS
10
1.8775494488188975
20
2.0137968503937009
11
1.8767746456692913
21
2.
0
LINE
8
BLACK
6
CONTINUOUS
10
1.8767746456692913
20
2.
11
1.8775494488188975
21
1.9862031496062991
  0
ENDSEC
  0
EOF
