  0
SECTION
  2
HEADER
  9
$ANGBASE
  50
0.0
  9
$ANGDIR
  70
1
  9
$MEASUREMENT
  70
0
  0
ENDSEC
  0
SECTION
  2
TABLES
  0
TABLE
  2
LTYPE
  70
4
  0
LTYPE
  5
40F
  2
CONTINUOUS
  70
0
  3
Solid line
  72
65
  73
0
  40
0.0
  0
LTYPE
  5
410
  2
DASHDOT
 70
0
  3
Dash Dot ____ _ ____ _
 72
65
 73
4
 40
2.0
 49
1.25
 49
-0.25
 49
0.25
 49
-0.25
  0
LTYPE
  5
411
  2
DASHED
 70
0
  3
Dashed __ __ __ __ __
 72
65
 73
2
 40
0.75
 49
0.5
 49
-0.25
  0
LTYPE
  5
43B
  2
DOTTED
 70
0
  3
Dotted .  .  .  .
 72
65
 73
2
 40
0.2
 49
0.0
 49
-0.2
  0
ENDTAB
  0
TABLE
  2
STYLE
  70
4
  0
STYLE
  2
KICAD
  70
0
  40
0
  41
1
  42
1
  50
0
  71
0
  3
isocp.shx
  0
STYLE
  2
KICADB
  70
0
  40
0
  41
1
  42
1
  50
0
  71
0
  3
isocp.shx
  0
STYLE
  2
KICADI
  70
0
  40
0
  41
1
  42
1
  50
15
  71
0
  3
isocp.shx
  0
STYLE
  2
KICADBI
  70
0
  40
0
  41
1
  42
1
  50
15
  71
0
  3
isocp.shx
  0
ENDTAB
  0
TABLE
  2
LAYER
  70
1
  0
LAYER
  2
BLACK
  70
0
  62
7
  6
CONTINUOUS
  0
ENDTAB
  0
ENDSEC
  0
SECTION
  2
ENTITIES
0
LINE
8
BLACK
6
CONTINUOUS
10
0.4200743307086614
20
0.5353302362204724
11
0.4332423622047244
21
0.5327109842519685
0
LINE
8
BLACK
6
CONTINUOUS
10
0.4332423622047244
20
0.5327109842519685
11
0.4460902362204724
21
0.5288136220472441
0
LINE
8
BLACK
6
CONTINUOUS
10
0.4460902362204724
20
0.5288136220472441
11
0.4584942519685039
21
0.5236757086614173
0
LINE
8
BLACK
6
CONTINUOUS
10
0.4584942519685039
20
0.5236757086614173
11
0.4703349212598425
21
0.5173467322834645
0
LINE
8
BLACK
6
CONTINUOUS
10
0.4703349212598425
20
0.5173467322834645
11
0.4814982283464567
21
0.5098876377952756
0
LINE
8
BLACK
6
CONTINUOUS
10
0.4814982283464567
20
0.5098876377952756
11
0.4918766535433071
21
0.5013702755905511
0
LINE
8
BLACK
6
CONTINUOUS
10
0.4918766535433071
20
0.5013702755905511
11
0.5013702755905511
21
0.4918766535433071
0
LINE
8
BLACK
6
CONTINUOUS
10
0.5013702755905511
20
0.4918766535433071
11
0.5098876377952756
21
0.4814982283464567
0
LINE
8
BLACK
6
CONTINUOUS
10
0.5098876377952756
20
0.4814982283464567
11
0.5173467322834645
21
0.4703349212598425
0
LINE
8
BLACK
6
CONTINUOUS
10
0.5173467322834645
20
0.4703349212598425
11
0.5236757086614173
21
0.4584942519685039
0
LINE
8
BLACK
6
CONTINUOUS
10
0.5236757086614173
20
0.4584942519685039
11
0.5288136220472441
21
0.4460902362204724
0
LINE
8
BLACK
6
CONTINUOUS
10
0.5288136220472441
20
0.4460902362204724
11
0.5327109842519685
21
0.4332423622047244
0
LINE
8
BLACK
6
CONTINUOUS
10
0.5327109842519685
20
0.4332423622047244
11
0.5353302362204724
21
0.4200743307086614
0
LINE
8
BLACK
6
CONTINUOUS
10
0.5353302362204724
20
0.4200743307086614
11
0.5366462204724409
21
0.4067129921259842
0
LINE
8
BLACK
6
CONTINUOUS
10
0.5366462204724409
20
0.4067129921259842
11
0.5366462204724409
21
0.3932870078740157
0
LINE
8
BLACK
6
CONTINUOUS
10
0.5366462204724409
20
0.3932870078740157
11
0.5353302362204724
21
0.3799256692913386
0
LINE
8
BLACK
6
CONTINUOUS
10
0.5353302362204724
20
0.3799256692913386
11
0.5327109842519685
21
0.3667576377952756
0
LINE
8
BLACK
6
CONTINUOUS
10
0.5327109842519685
20
0.3667576377952756
11
0.5288136220472441
21
0.3539097637795275
0
LINE
8
BLACK
6
CONTINUOUS
10
0.5288136220472441
20
0.3539097637795275
11
0.5236757086614173
21
0.3415057480314961
0
LINE
8
BLACK
6
CONTINUOUS
10
0.5236757086614173
20
0.3415057480314961
11
0.5173467322834645
21
0.3296650787401575
0
LINE
8
BLACK
6
CONTINUOUS
10
0.5173467322834645
20
0.3296650787401575
11
0.5098876377952756
21
0.3185017716535433
0
LINE
8
BLACK
6
CONTINUOUS
10
0.5098876377952756
20
0.3185017716535433
11
0.5013702755905511
21
0.3081233464566929
0
LINE
8
BLACK
6
CONTINUOUS
10
0.5013702755905511
20
0.3081233464566929
11
0.4918766535433071
21
0.2986297244094488
0
LINE
8
BLACK
6
CONTINUOUS
10
0.4918766535433071
20
0.2986297244094488
11
0.4814982283464567
21
0.2901123622047244
0
LINE
8
BLACK
6
CONTINUOUS
10
0.4814982283464567
20
0.2901123622047244
11
0.4703349212598425
21
0.2826532677165354
0
LINE
8
BLACK
6
CONTINUOUS
10
0.4703349212598425
20
0.2826532677165354
11
0.4584942519685039
21
0.2763242913385827
0
LINE
8
BLACK
6
CONTINUOUS
10
0.4584942519685039
20
0.2763242913385827
11
0.4460902362204724
21
0.2711863779527559
0
LINE
8
BLACK
6
CONTINUOUS
10
0.4460902362204724
20
0.2711863779527559
11
0.4332423622047244
21
0.2672890157480315
0
LINE
8
BLACK
6
CONTINUOUS
10
0.4332423622047244
20
0.2672890157480315
11
0.4200743307086614
21
0.2646697637795276
0
LINE
8
BLACK
6
CONTINUOUS
10
0.4200743307086614
20
0.2646697637795276
11
0.4067129921259842
21
0.2633537795275591
0
LINE
8
BLACK
6
CONTINUOUS
10
0.4067129921259842
20
0.2633537795275591
11
0.3932870078740157
21
0.2633537795275591
0
LINE
8
BLACK
6
CONTINUOUS
10
0.3932870078740157
20
0.2633537795275591
11
0.3799256692913386
21
0.2646697637795276
0
LINE
8
BLACK
6
CONTINUOUS
10
0.3799256692913386
20
0.2646697637795276
11
0.3667576377952756
21
0.2672890157480315
0
LINE
8
BLACK
6
CONTINUOUS
10
0.3667576377952756
20
0.2672890157480315
11
0.3539097637795275
21
0.2711863779527559
0
LINE
8
BLACK
6
CONTINUOUS
10
0.3539097637795275
20
0.2711863779527559
11
0.3415057480314961
21
0.2763242913385827
0
LINE
8
BLACK
6
CONTINUOUS
10
0.3415057480314961
20
0.2763242913385827
11
0.3296650787401575
21
0.2826532677165354
0
LINE
8
BLACK
6
CONTINUOUS
10
0.3296650787401575
20
0.2826532677165354
11
0.3185017716535433
21
0.2901123622047244
0
LINE
8
BLACK
6
CONTINUOUS
10
0.3185017716535433
20
0.2901123622047244
11
0.3081233464566929
21
0.2986297244094488
0
LINE
8
BLACK
6
CONTINUOUS
10
0.3081233464566929
20
0.2986297244094488
11
0.2986297244094488
21
0.3081233464566929
0
LINE
8
BLACK
6
CONTINUOUS
10
0.2986297244094488
20
0.3081233464566929
11
0.2901123622047244
21
0.3185017716535433
0
LINE
8
BLACK
6
CONTINUOUS
10
0.2901123622047244
20
0.3185017716535433
11
0.2826532677165354
21
0.3296650787401575
0
LINE
8
BLACK
6
CONTINUOUS
10
0.2826532677165354
20
0.3296650787401575
11
0.2763242913385827
21
0.3415057480314961
0
LINE
8
BLACK
6
CONTINUOUS
10
0.2763242913385827
20
0.3415057480314961
11
0.2711863779527559
21
0.3539097637795275
0
LINE
8
BLACK
6
CONTINUOUS
10
0.2711863779527559
20
0.3539097637795275
11
0.2672890157480315
21
0.3667576377952756
0
LINE
8
BLACK
6
CONTINUOUS
10
0.2672890157480315
20
0.3667576377952756
11
0.2646697637795276
21
0.3799256692913386
0
LINE
8
BLACK
6
CONTINUOUS
10
0.2646697637795276
20
0.3799256692913386
11
0.2633537795275591
21
0.3932870078740157
0
LINE
8
BLACK
6
CONTINUOUS
10
0.2633537795275591
20
0.3932870078740157
11
0.2633537795275591
21
0.4066243700787401
0
LINE
8
BLACK
6
CONTINUOUS
10
0.2633537795275591
20
0.4066243700787401
11
0.2633537795275591
21
0.4067129921259842
0
LINE
8
BLACK
6
CONTINUOUS
10
0.2633537795275591
20
0.4067129921259842
11
0.2646697637795276
21
0.4200743307086614
0
LINE
8
BLACK
6
CONTINUOUS
10
0.2646697637795276
20
0.4200743307086614
11
0.2672890157480315
21
0.4332423622047244
0
LINE
8
BLACK
6
CONTINUOUS
10
0.2672890157480315
20
0.4332423622047244
11
0.2711863779527559
21
0.4460902362204724
0
LINE
8
BLACK
6
CONTINUOUS
10
0.2711863779527559
20
0.4460902362204724
11
0.2763242913385827
21
0.4584942519685039
0
LINE
8
BLACK
6
CONTINUOUS
10
0.2763242913385827
20
0.4584942519685039
11
0.2826532677165354
21
0.4703349212598425
0
LINE
8
BLACK
6
CONTINUOUS
10
0.2826532677165354
20
0.4703349212598425
11
0.2901123622047244
21
0.4814982283464567
0
LINE
8
BLACK
6
CONTINUOUS
10
0.2901123622047244
20
0.4814982283464567
11
0.2986297244094488
21
0.4918766535433071
0
LINE
8
BLACK
6
CONTINUOUS
10
0.2986297244094488
20
0.4918766535433071
11
0.3081233464566929
21
0.5013702755905511
0
LINE
8
BLACK
6
CONTINUOUS
10
0.3081233464566929
20
0.5013702755905511
11
0.3185017716535433
21
0.5098876377952756
0
LINE
8
BLACK
6
CONTINUOUS
10
0.3185017716535433
20
0.5098876377952756
11
0.3296650787401575
21
0.5173467322834645
0
LINE
8
BLACK
6
CONTINUOUS
10
0.3296650787401575
20
0.5173467322834645
11
0.3415057480314961
21
0.5236757086614173
0
LINE
8
BLACK
6
CONTINUOUS
10
0.3415057480314961
20
0.5236757086614173
11
0.3539097637795275
21
0.5288136220472441
0
LINE
8
BLACK
6
CONTINUOUS
10
0.3539097637795275
20
0.5288136220472441
11
0.3667576377952756
21
0.5327109842519685
0
LINE
8
BLACK
6
CONTINUOUS
10
0.3667576377952756
20
0.5327109842519685
11
0.3799256692913386
21
0.5353302362204724
0
LINE
8
BLACK
6
CONTINUOUS
10
0.3799256692913386
20
0.5353302362204724
11
0.3932870078740157
21
0.5366462204724409
0
LINE
8
BLACK
6
CONTINUOUS
10
0.3932870078740157
20
0.5366462204724409
11
0.4067129921259842
21
0.5366462204724409
0
LINE
8
BLACK
6
CONTINUOUS
10
0.4067129921259842
20
0.5366462204724409
11
0.4200743307086614
21
0.5353302362204724
0
LINE
8
BLACK
6
CONTINUOUS
10
0.2651574803149606
20
0.3933756299212599
11
0.266456062992126
21
0.3801906299212598
0
LINE
8
BLACK
6
CONTINUOUS
10
0.266456062992126
20
0.3801906299212598
11
0.2690407874015748
21
0.3671964173228346
0
LINE
8
BLACK
6
CONTINUOUS
10
0.2690407874015748
20
0.3671964173228346
11
0.2728866929133858
21
0.3545181496062992
0
LINE
8
BLACK
6
CONTINUOUS
10
0.2728866929133858
20
0.3545181496062992
11
0.2779567716535433
21
0.342277874015748
0
LINE
8
BLACK
6
CONTINUOUS
10
0.2779567716535433
20
0.342277874015748
11
0.2842022047244094
21
0.3305934645669291
0
LINE
8
BLACK
6
CONTINUOUS
10
0.2842022047244094
20
0.3305934645669291
11
0.2915628346456693
21
0.3195775196850393
0
LINE
8
BLACK
6
CONTINUOUS
10
0.2915628346456693
20
0.3195775196850393
11
0.2999677952755905
21
0.309336062992126
0
LINE
8
BLACK
6
CONTINUOUS
10
0.2999677952755905
20
0.309336062992126
11
0.309336062992126
21
0.2999677952755905
0
LINE
8
BLACK
6
CONTINUOUS
10
0.309336062992126
20
0.2999677952755905
11
0.3195775196850393
21
0.2915628346456693
0
LINE
8
BLACK
6
CONTINUOUS
10
0.3195775196850393
20
0.2915628346456693
11
0.3305934645669291
21
0.2842022047244094
0
LINE
8
BLACK
6
CONTINUOUS
10
0.3305934645669291
20
0.2842022047244094
11
0.342277874015748
21
0.2779567716535433
0
LINE
8
BLACK
6
CONTINUOUS
10
0.342277874015748
20
0.2779567716535433
11
0.3545181496062992
21
0.2728866929133858
0
LINE
8
BLACK
6
CONTINUOUS
10
0.3545181496062992
20
0.2728866929133858
11
0.3671964173228346
21
0.2690407874015748
0
LINE
8
BLACK
6
CONTINUOUS
10
0.3671964173228346
20
0.2690407874015748
11
0.3801906299212598
21
0.266456062992126
0
LINE
8
BLACK
6
CONTINUOUS
10
0.3801906299212598
20
0.266456062992126
11
0.3933756299212599
21
0.2651574803149606
0
LINE
8
BLACK
6
CONTINUOUS
10
0.3933756299212599
20
0.2651574803149606
11
0.4066243700787401
21
0.2651574803149606
0
LINE
8
BLACK
6
CONTINUOUS
10
0.4066243700787401
20
0.2651574803149606
11
0.4198093700787401
21
0.266456062992126
0
LINE
8
BLACK
6
CONTINUOUS
10
0.4198093700787401
20
0.266456062992126
11
0.4328035826771653
21
0.2690407874015748
0
LINE
8
BLACK
6
CONTINUOUS
10
0.4328035826771653
20
0.2690407874015748
11
0.4454818503937008
21
0.2728866929133858
0
LINE
8
BLACK
6
CONTINUOUS
10
0.4454818503937008
20
0.2728866929133858
11
0.4577221259842519
21
0.2779567716535433
0
LINE
8
BLACK
6
CONTINUOUS
10
0.4577221259842519
20
0.2779567716535433
11
0.4694065354330709
21
0.2842022047244094
0
LINE
8
BLACK
6
CONTINUOUS
10
0.4694065354330709
20
0.2842022047244094
11
0.4804224803149606
21
0.2915628346456693
0
LINE
8
BLACK
6
CONTINUOUS
10
0.4804224803149606
20
0.2915628346456693
11
0.490663937007874
21
0.2999677952755905
0
LINE
8
BLACK
6
CONTINUOUS
10
0.490663937007874
20
0.2999677952755905
11
0.5000322047244095
21
0.309336062992126
0
LINE
8
BLACK
6
CONTINUOUS
10
0.5000322047244095
20
0.309336062992126
11
0.5084371653543307
21
0.3195775196850393
0
LINE
8
BLACK
6
CONTINUOUS
10
0.5084371653543307
20
0.3195775196850393
11
0.5157977952755906
21
0.3305934645669291
0
LINE
8
BLACK
6
CONTINUOUS
10
0.5157977952755906
20
0.3305934645669291
11
0.5220432283464567
21
0.342277874015748
0
LINE
8
BLACK
6
CONTINUOUS
10
0.5220432283464567
20
0.342277874015748
11
0.5271133070866142
21
0.3545181496062992
0
LINE
8
BLACK
6
CONTINUOUS
10
0.5271133070866142
20
0.3545181496062992
11
0.5309592125984252
21
0.3671964173228346
0
LINE
8
BLACK
6
CONTINUOUS
10
0.5309592125984252
20
0.3671964173228346
11
0.5335439370078741
21
0.3801906299212598
0
LINE
8
BLACK
6
CONTINUOUS
10
0.5335439370078741
20
0.3801906299212598
11
0.5348425196850394
21
0.3933756299212599
0
LINE
8
BLACK
6
CONTINUOUS
10
0.5348425196850394
20
0.3933756299212599
11
0.5348425196850394
21
0.4066243700787401
0
LINE
8
BLACK
6
CONTINUOUS
10
0.5348425196850394
20
0.4066243700787401
11
0.5335439370078741
21
0.4198093700787401
0
LINE
8
BLACK
6
CONTINUOUS
10
0.5335439370078741
20
0.4198093700787401
11
0.5309592125984252
21
0.4328035826771653
0
LINE
8
BLACK
6
CONTINUOUS
10
0.5309592125984252
20
0.4328035826771653
11
0.5271133070866142
21
0.4454818503937008
0
LINE
8
BLACK
6
CONTINUOUS
10
0.5271133070866142
20
0.4454818503937008
11
0.5220432283464567
21
0.4577221259842519
0
LINE
8
BLACK
6
CONTINUOUS
10
0.5220432283464567
20
0.4577221259842519
11
0.5157977952755906
21
0.4694065354330709
0
LINE
8
BLACK
6
CONTINUOUS
10
0.5157977952755906
20
0.4694065354330709
11
0.5084371653543307
21
0.4804224803149606
0
LINE
8
BLACK
6
CONTINUOUS
10
0.5084371653543307
20
0.4804224803149606
11
0.5000322047244095
21
0.490663937007874
0
LINE
8
BLACK
6
CONTINUOUS
10
0.5000322047244095
20
0.490663937007874
11
0.490663937007874
21
0.5000322047244095
0
LINE
8
BLACK
6
CONTINUOUS
10
0.490663937007874
20
0.5000322047244095
11
0.4804224803149606
21
0.5084371653543307
0
LINE
8
BLACK
6
CONTINUOUS
10
0.4804224803149606
20
0.5084371653543307
11
0.4694065354330709
21
0.5157977952755906
0
LINE
8
BLACK
6
CONTINUOUS
10
0.4694065354330709
20
0.5157977952755906
11
0.4577221259842519
21
0.5220432283464567
0
LINE
8
BLACK
6
CONTINUOUS
10
0.4577221259842519
20
0.5220432283464567
11
0.4454818503937008
21
0.5271133070866142
0
LINE
8
BLACK
6
CONTINUOUS
10
0.4454818503937008
20
0.5271133070866142
11
0.4328035826771653
21
0.5309592125984252
0
LINE
8
BLACK
6
CONTINUOUS
10
0.4328035826771653
20
0.5309592125984252
11
0.4198093700787401
21
0.5335439370078741
0
LINE
8
BLACK
6
CONTINUOUS
10
0.4198093700787401
20
0.5335439370078741
11
0.4066243700787401
21
0.5348425196850394
0
LINE
8
BLACK
6
CONTINUOUS
10
0.4066243700787401
20
0.5348425196850394
11
0.3933756299212599
21
0.5348425196850394
0
LINE
8
BLACK
6
CONTINUOUS
10
0.3933756299212599
20
0.5348425196850394
11
0.3801906299212598
21
0.5335439370078741
0
LINE
8
BLACK
6
CONTINUOUS
10
0.3801906299212598
20
0.5335439370078741
11
0.3671964173228346
21
0.5309592125984252
0
LINE
8
BLACK
6
CONTINUOUS
10
0.3671964173228346
20
0.5309592125984252
11
0.3545181496062992
21
0.5271133070866142
0
LINE
8
BLACK
6
CONTINUOUS
10
0.3545181496062992
20
0.5271133070866142
11
0.342277874015748
21
0.5220432283464567
0
LINE
8
BLACK
6
CONTINUOUS
10
0.342277874015748
20
0.5220432283464567
11
0.3305934645669291
21
0.5157977952755906
0
LINE
8
BLACK
6
CONTINUOUS
10
0.3305934645669291
20
0.5157977952755906
11
0.3195775196850393
21
0.5084371653543307
0
LINE
8
BLACK
6
CONTINUOUS
10
0.3195775196850393
20
0.5084371653543307
11
0.309336062992126
21
0.5000322047244095
0
LINE
8
BLACK
6
CONTINUOUS
10
0.309336062992126
20
0.5000322047244095
11
0.2999677952755905
21
0.490663937007874
0
LINE
8
BLACK
6
CONTINUOUS
10
0.2999677952755905
20
0.490663937007874
11
0.2915628346456693
21
0.4804224803149606
0
LINE
8
BLACK
6
CONTINUOUS
10
0.2915628346456693
20
0.4804224803149606
11
0.2842022047244094
21
0.4694065354330709
0
LINE
8
BLACK
6
CONTINUOUS
10
0.2842022047244094
20
0.4694065354330709
11
0.2779567716535433
21
0.4577221259842519
0
LINE
8
BLACK
6
CONTINUOUS
10
0.2779567716535433
20
0.4577221259842519
11
0.2728866929133858
21
0.4454818503937008
0
LINE
8
BLACK
6
CONTINUOUS
10
0.2728866929133858
20
0.4454818503937008
11
0.2690407874015748
21
0.4328035826771653
0
LINE
8
BLACK
6
CONTINUOUS
10
0.2690407874015748
20
0.4328035826771653
11
0.266456062992126
21
0.4198093700787401
0
LINE
8
BLACK
6
CONTINUOUS
10
0.266456062992126
20
0.4198093700787401
11
0.2651574803149606
21
0.4066243700787401
0
LINE
8
BLACK
6
CONTINUOUS
10
0.2651574803149606
20
0.4066243700787401
11
0.2651574803149606
21
0.3933756299212599
0
LINE
8
BLACK
6
CONTINUOUS
10
2.0200743307086615
20
0.5353302362204724
11
2.0332423622047244
21
0.5327109842519685
0
LINE
8
BLACK
6
CONTINUOUS
10
2.0332423622047244
20
0.5327109842519685
11
2.0460902362204725
21
0.5288136220472441
0
LINE
8
BLACK
6
CONTINUOUS
10
2.0460902362204725
20
0.5288136220472441
11
2.0584942519685039
21
0.5236757086614173
0
LINE
8
BLACK
6
CONTINUOUS
10
2.0584942519685039
20
0.5236757086614173
11
2.0703349212598425
21
0.5173467322834645
0
LINE
8
BLACK
6
CONTINUOUS
10
2.0703349212598425
20
0.5173467322834645
11
2.0814982283464567
21
0.5098876377952756
0
LINE
8
BLACK
6
CONTINUOUS
10
2.0814982283464567
20
0.5098876377952756
11
2.0918766535433071
21
0.5013702755905511
0
LINE
8
BLACK
6
CONTINUOUS
10
2.0918766535433071
20
0.5013702755905511
11
2.101370275590551
21
0.4918766535433071
0
LINE
8
BLACK
6
CONTINUOUS
10
2.101370275590551
20
0.4918766535433071
11
2.1098876377952753
21
0.4814982283464567
0
LINE
8
BLACK
6
CONTINUOUS
10
2.1098876377952753
20
0.4814982283464567
11
2.1173467322834645
21
0.4703349212598425
0
LINE
8
BLACK
6
CONTINUOUS
10
2.1173467322834645
20
0.4703349212598425
11
2.1236757086614171
21
0.4584942519685039
0
LINE
8
BLACK
6
CONTINUOUS
10
2.1236757086614171
20
0.4584942519685039
11
2.128813622047244
21
0.4460902362204724
0
LINE
8
BLACK
6
CONTINUOUS
10
2.128813622047244
20
0.4460902362204724
11
2.1327109842519683
21
0.4332423622047244
0
LINE
8
BLACK
6
CONTINUOUS
10
2.1327109842519683
20
0.4332423622047244
11
2.1353302362204722
21
0.4200743307086614
0
LINE
8
BLACK
6
CONTINUOUS
10
2.1353302362204722
20
0.4200743307086614
11
2.136646220472441
21
0.4067129921259842
0
LINE
8
BLACK
6
CONTINUOUS
10
2.136646220472441
20
0.4067129921259842
11
2.136646220472441
21
0.3932870078740157
0
LINE
8
BLACK
6
CONTINUOUS
10
2.136646220472441
20
0.3932870078740157
11
2.1353302362204722
21
0.3799256692913386
0
LINE
8
BLACK
6
CONTINUOUS
10
2.1353302362204722
20
0.3799256692913386
11
2.1327109842519683
21
0.3667576377952756
0
LINE
8
BLACK
6
CONTINUOUS
10
2.1327109842519683
20
0.3667576377952756
11
2.128813622047244
21
0.3539097637795275
0
LINE
8
BLACK
6
CONTINUOUS
10
2.128813622047244
20
0.3539097637795275
11
2.1236757086614171
21
0.3415057480314961
0
LINE
8
BLACK
6
CONTINUOUS
10
2.1236757086614171
20
0.3415057480314961
11
2.1173467322834645
21
0.3296650787401575
0
LINE
8
BLACK
6
CONTINUOUS
10
2.1173467322834645
20
0.3296650787401575
11
2.1098876377952753
21
0.3185017716535433
0
LINE
8
BLACK
6
CONTINUOUS
10
2.1098876377952753
20
0.3185017716535433
11
2.101370275590551
21
0.3081233464566929
0
LINE
8
BLACK
6
CONTINUOUS
10
2.101370275590551
20
0.3081233464566929
11
2.0918766535433071
21
0.2986297244094488
0
LINE
8
BLACK
6
CONTINUOUS
10
2.0918766535433071
20
0.2986297244094488
11
2.0814982283464567
21
0.2901123622047244
0
LINE
8
BLACK
6
CONTINUOUS
10
2.0814982283464567
20
0.2901123622047244
11
2.0703349212598425
21
0.2826532677165354
0
LINE
8
BLACK
6
CONTINUOUS
10
2.0703349212598425
20
0.2826532677165354
11
2.0584942519685039
21
0.2763242913385827
0
LINE
8
BLACK
6
CONTINUOUS
10
2.0584942519685039
20
0.2763242913385827
11
2.0460902362204725
21
0.2711863779527559
0
LINE
8
BLACK
6
CONTINUOUS
10
2.0460902362204725
20
0.2711863779527559
11
2.0332423622047244
21
0.2672890157480315
0
LINE
8
BLACK
6
CONTINUOUS
10
2.0332423622047244
20
0.2672890157480315
11
2.0200743307086615
21
0.2646697637795276
0
LINE
8
BLACK
6
CONTINUOUS
10
2.0200743307086615
20
0.2646697637795276
11
2.0067129921259843
21
0.2633537795275591
0
LINE
8
BLACK
6
CONTINUOUS
10
2.0067129921259843
20
0.2633537795275591
11
1.9932870078740157
21
0.2633537795275591
0
LINE
8
BLACK
6
CONTINUOUS
10
1.9932870078740157
20
0.2633537795275591
11
1.9799256692913385
21
0.2646697637795276
0
LINE
8
BLACK
6
CONTINUOUS
10
1.9799256692913385
20
0.2646697637795276
11
1.9667576377952756
21
0.2672890157480315
0
LINE
8
BLACK
6
CONTINUOUS
10
1.9667576377952756
20
0.2672890157480315
11
1.9539097637795275
21
0.2711863779527559
0
LINE
8
BLACK
6
CONTINUOUS
10
1.9539097637795275
20
0.2711863779527559
11
1.9415057480314961
21
0.2763242913385827
0
LINE
8
BLACK
6
CONTINUOUS
10
1.9415057480314961
20
0.2763242913385827
11
1.9296650787401575
21
0.2826532677165354
0
LINE
8
BLACK
6
CONTINUOUS
10
1.9296650787401575
20
0.2826532677165354
11
1.9185017716535433
21
0.2901123622047244
0
LINE
8
BLACK
6
CONTINUOUS
10
1.9185017716535433
20
0.2901123622047244
11
1.9081233464566929
21
0.2986297244094488
0
LINE
8
BLACK
6
CONTINUOUS
10
1.9081233464566929
20
0.2986297244094488
11
1.8986297244094488
21
0.3081233464566929
0
LINE
8
BLACK
6
CONTINUOUS
10
1.8986297244094488
20
0.3081233464566929
11
1.8901123622047244
21
0.3185017716535433
0
LINE
8
BLACK
6
CONTINUOUS
10
1.8901123622047244
20
0.3185017716535433
11
1.8826532677165353
21
0.3296650787401575
0
LINE
8
BLACK
6
CONTINUOUS
10
1.8826532677165353
20
0.3296650787401575
11
1.8763242913385827
21
0.3415057480314961
0
LINE
8
BLACK
6
CONTINUOUS
10
1.8763242913385827
20
0.3415057480314961
11
1.8711863779527558
21
0.3539097637795275
0
LINE
8
BLACK
6
CONTINUOUS
10
1.8711863779527558
20
0.3539097637795275
11
1.8672890157480315
21
0.3667576377952756
0
LINE
8
BLACK
6
CONTINUOUS
10
1.8672890157480315
20
0.3667576377952756
11
1.8646697637795275
21
0.3799256692913386
0
LINE
8
BLACK
6
CONTINUOUS
10
1.8646697637795275
20
0.3799256692913386
11
1.863353779527559
21
0.3932870078740157
0
LINE
8
BLACK
6
CONTINUOUS
10
1.863353779527559
20
0.3932870078740157
11
1.863353779527559
21
0.4066243700787401
0
LINE
8
BLACK
6
CONTINUOUS
10
1.863353779527559
20
0.4066243700787401
11
1.863353779527559
21
0.4067129921259842
0
LINE
8
BLACK
6
CONTINUOUS
10
1.863353779527559
20
0.4067129921259842
11
1.8646697637795275
21
0.4200743307086614
0
LINE
8
BLACK
6
CONTINUOUS
10
1.8646697637795275
20
0.4200743307086614
11
1.8672890157480315
21
0.4332423622047244
0
LINE
8
BLACK
6
CONTINUOUS
10
1.8672890157480315
20
0.4332423622047244
11
1.8711863779527558
21
0.4460902362204724
0
LINE
8
BLACK
6
CONTINUOUS
10
1.8711863779527558
20
0.4460902362204724
11
1.8763242913385827
21
0.4584942519685039
0
LINE
8
BLACK
6
CONTINUOUS
10
1.8763242913385827
20
0.4584942519685039
11
1.8826532677165353
21
0.4703349212598425
0
LINE
8
BLACK
6
CONTINUOUS
10
1.8826532677165353
20
0.4703349212598425
11
1.8901123622047244
21
0.4814982283464567
0
LINE
8
BLACK
6
CONTINUOUS
10
1.8901123622047244
20
0.4814982283464567
11
1.8986297244094488
21
0.4918766535433071
0
LINE
8
BLACK
6
CONTINUOUS
10
1.8986297244094488
20
0.4918766535433071
11
1.9081233464566929
21
0.5013702755905511
0
LINE
8
BLACK
6
CONTINUOUS
10
1.9081233464566929
20
0.5013702755905511
11
1.9185017716535433
21
0.5098876377952756
0
LINE
8
BLACK
6
CONTINUOUS
10
1.9185017716535433
20
0.5098876377952756
11
1.9296650787401575
21
0.5173467322834645
0
LINE
8
BLACK
6
CONTINUOUS
10
1.9296650787401575
20
0.5173467322834645
11
1.9415057480314961
21
0.5236757086614173
0
LINE
8
BLACK
6
CONTINUOUS
10
1.9415057480314961
20
0.5236757086614173
11
1.9539097637795275
21
0.5288136220472441
0
LINE
8
BLACK
6
CONTINUOUS
10
1.9539097637795275
20
0.5288136220472441
11
1.9667576377952756
21
0.5327109842519685
0
LINE
8
BLACK
6
CONTINUOUS
10
1.9667576377952756
20
0.5327109842519685
11
1.9799256692913385
21
0.5353302362204724
0
LINE
8
BLACK
6
CONTINUOUS
10
1.9799256692913385
20
0.5353302362204724
11
1.9932870078740157
21
0.5366462204724409
0
LINE
8
BLACK
6
CONTINUOUS
10
1.9932870078740157
20
0.5366462204724409
11
2.0067129921259843
21
0.5366462204724409
0
LINE
8
BLACK
6
CONTINUOUS
10
2.0067129921259843
20
0.5366462204724409
11
2.0200743307086615
21
0.5353302362204724
0
LINE
8
BLACK
6
CONTINUOUS
10
1.8651574803149606
20
0.3933756299212599
11
1.8664560629921259
21
0.3801906299212598
0
LINE
8
BLACK
6
CONTINUOUS
10
1.8664560629921259
20
0.3801906299212598
11
1.8690407874015749
21
0.3671964173228346
0
LINE
8
BLACK
6
CONTINUOUS
10
1.8690407874015749
20
0.3671964173228346
11
1.8728866929133858
21
0.3545181496062992
0
LINE
8
BLACK
6
CONTINUOUS
10
1.8728866929133858
20
0.3545181496062992
11
1.8779567716535432
21
0.342277874015748
0
LINE
8
BLACK
6
CONTINUOUS
10
1.8779567716535432
20
0.342277874015748
11
1.8842022047244094
21
0.3305934645669291
0
LINE
8
BLACK
6
CONTINUOUS
10
1.8842022047244094
20
0.3305934645669291
11
1.8915628346456692
21
0.3195775196850393
0
LINE
8
BLACK
6
CONTINUOUS
10
1.8915628346456692
20
0.3195775196850393
11
1.8999677952755905
21
0.309336062992126
0
LINE
8
BLACK
6
CONTINUOUS
10
1.8999677952755905
20
0.309336062992126
11
1.9093360629921259
21
0.2999677952755905
0
LINE
8
BLACK
6
CONTINUOUS
10
1.9093360629921259
20
0.2999677952755905
11
1.9195775196850393
21
0.2915628346456693
0
LINE
8
BLACK
6
CONTINUOUS
10
1.9195775196850393
20
0.2915628346456693
11
1.9305934645669292
21
0.2842022047244094
0
LINE
8
BLACK
6
CONTINUOUS
10
1.9305934645669292
20
0.2842022047244094
11
1.942277874015748
21
0.2779567716535433
0
LINE
8
BLACK
6
CONTINUOUS
10
1.942277874015748
20
0.2779567716535433
11
1.9545181496062991
21
0.2728866929133858
0
LINE
8
BLACK
6
CONTINUOUS
10
1.9545181496062991
20
0.2728866929133858
11
1.9671964173228347
21
0.2690407874015748
0
LINE
8
BLACK
6
CONTINUOUS
10
1.9671964173228347
20
0.2690407874015748
11
1.9801906299212597
21
0.266456062992126
0
LINE
8
BLACK
6
CONTINUOUS
10
1.9801906299212597
20
0.266456062992126
11
1.9933756299212597
21
0.2651574803149606
0
LINE
8
BLACK
6
CONTINUOUS
10
1.9933756299212597
20
0.2651574803149606
11
2.0066243700787401
21
0.2651574803149606
0
LINE
8
BLACK
6
CONTINUOUS
10
2.0066243700787401
20
0.2651574803149606
11
2.0198093700787401
21
0.266456062992126
0
LINE
8
BLACK
6
CONTINUOUS
10
2.0198093700787401
20
0.266456062992126
11
2.0328035826771651
21
0.2690407874015748
0
LINE
8
BLACK
6
CONTINUOUS
10
2.0328035826771651
20
0.2690407874015748
11
2.0454818503937009
21
0.2728866929133858
0
LINE
8
BLACK
6
CONTINUOUS
10
2.0454818503937009
20
0.2728866929133858
11
2.057722125984252
21
0.2779567716535433
0
LINE
8
BLACK
6
CONTINUOUS
10
2.057722125984252
20
0.2779567716535433
11
2.0694065354330706
21
0.2842022047244094
0
LINE
8
BLACK
6
CONTINUOUS
10
2.0694065354330706
20
0.2842022047244094
11
2.0804224803149607
21
0.2915628346456693
0
LINE
8
BLACK
6
CONTINUOUS
10
2.0804224803149607
20
0.2915628346456693
11
2.0906639370078741
21
0.2999677952755905
0
LINE
8
BLACK
6
CONTINUOUS
10
2.0906639370078741
20
0.2999677952755905
11
2.1000322047244095
21
0.309336062992126
0
LINE
8
BLACK
6
CONTINUOUS
10
2.1000322047244095
20
0.309336062992126
11
2.1084371653543306
21
0.3195775196850393
0
LINE
8
BLACK
6
CONTINUOUS
10
2.1084371653543306
20
0.3195775196850393
11
2.1157977952755904
21
0.3305934645669291
0
LINE
8
BLACK
6
CONTINUOUS
10
2.1157977952755904
20
0.3305934645669291
11
2.1220432283464565
21
0.342277874015748
0
LINE
8
BLACK
6
CONTINUOUS
10
2.1220432283464565
20
0.342277874015748
11
2.1271133070866139
21
0.3545181496062992
0
LINE
8
BLACK
6
CONTINUOUS
10
2.1271133070866139
20
0.3545181496062992
11
2.1309592125984254
21
0.3671964173228346
0
LINE
8
BLACK
6
CONTINUOUS
10
2.1309592125984254
20
0.3671964173228346
11
2.1335439370078739
21
0.3801906299212598
0
LINE
8
BLACK
6
CONTINUOUS
10
2.1335439370078739
20
0.3801906299212598
11
2.1348425196850394
21
0.3933756299212599
0
LINE
8
BLACK
6
CONTINUOUS
10
2.1348425196850394
20
0.3933756299212599
11
2.1348425196850394
21
0.4066243700787401
0
LINE
8
BLACK
6
CONTINUOUS
10
2.1348425196850394
20
0.4066243700787401
11
2.1335439370078739
21
0.4198093700787401
0
LINE
8
BLACK
6
CONTINUOUS
10
2.1335439370078739
20
0.4198093700787401
11
2.1309592125984254
21
0.4328035826771653
0
LINE
8
BLACK
6
CONTINUOUS
10
2.1309592125984254
20
0.4328035826771653
11
2.1271133070866139
21
0.4454818503937008
0
LINE
8
BLACK
6
CONTINUOUS
10
2.1271133070866139
20
0.4454818503937008
11
2.1220432283464565
21
0.4577221259842519
0
LINE
8
BLACK
6
CONTINUOUS
10
2.1220432283464565
20
0.4577221259842519
11
2.1157977952755904
21
0.4694065354330709
0
LINE
8
BLACK
6
CONTINUOUS
10
2.1157977952755904
20
0.4694065354330709
11
2.1084371653543306
21
0.4804224803149606
0
LINE
8
BLACK
6
CONTINUOUS
10
2.1084371653543306
20
0.4804224803149606
11
2.1000322047244095
21
0.490663937007874
0
LINE
8
BLACK
6
CONTINUOUS
10
2.1000322047244095
20
0.490663937007874
11
2.0906639370078741
21
0.5000322047244095
0
LINE
8
BLACK
6
CONTINUOUS
10
2.0906639370078741
20
0.5000322047244095
11
2.0804224803149607
21
0.5084371653543307
0
LINE
8
BLACK
6
CONTINUOUS
10
2.0804224803149607
20
0.5084371653543307
11
2.0694065354330706
21
0.5157977952755906
0
LINE
8
BLACK
6
CONTINUOUS
10
2.0694065354330706
20
0.5157977952755906
11
2.057722125984252
21
0.5220432283464567
0
LINE
8
BLACK
6
CONTINUOUS
10
2.057722125984252
20
0.5220432283464567
11
2.0454818503937009
21
0.5271133070866142
0
LINE
8
BLACK
6
CONTINUOUS
10
2.0454818503937009
20
0.5271133070866142
11
2.0328035826771651
21
0.5309592125984252
0
LINE
8
BLACK
6
CONTINUOUS
10
2.0328035826771651
20
0.5309592125984252
11
2.0198093700787401
21
0.5335439370078741
0
LINE
8
BLACK
6
CONTINUOUS
10
2.0198093700787401
20
0.5335439370078741
11
2.0066243700787401
21
0.5348425196850394
0
LINE
8
BLACK
6
CONTINUOUS
10
2.0066243700787401
20
0.5348425196850394
11
1.9933756299212597
21
0.5348425196850394
0
LINE
8
BLACK
6
CONTINUOUS
10
1.9933756299212597
20
0.5348425196850394
11
1.9801906299212597
21
0.5335439370078741
0
LINE
8
BLACK
6
CONTINUOUS
10
1.9801906299212597
20
0.5335439370078741
11
1.9671964173228347
21
0.5309592125984252
0
LINE
8
BLACK
6
CONTINUOUS
10
1.9671964173228347
20
0.5309592125984252
11
1.9545181496062991
21
0.5271133070866142
0
LINE
8
BLACK
6
CONTINUOUS
10
1.9545181496062991
20
0.5271133070866142
11
1.942277874015748
21
0.5220432283464567
0
LINE
8
BLACK
6
CONTINUOUS
10
1.942277874015748
20
0.5220432283464567
11
1.9305934645669292
21
0.5157977952755906
0
LINE
8
BLACK
6
CONTINUOUS
10
1.9305934645669292
20
0.5157977952755906
11
1.9195775196850393
21
0.5084371653543307
0
LINE
8
BLACK
6
CONTINUOUS
10
1.9195775196850393
20
0.5084371653543307
11
1.9093360629921259
21
0.5000322047244095
0
LINE
8
BLACK
6
CONTINUOUS
10
1.9093360629921259
20
0.5000322047244095
11
1.8999677952755905
21
0.490663937007874
0
LINE
8
BLACK
6
CONTINUOUS
10
1.8999677952755905
20
0.490663937007874
11
1.8915628346456692
21
0.4804224803149606
0
LINE
8
BLACK
6
CONTINUOUS
10
1.8915628346456692
20
0.4804224803149606
11
1.8842022047244094
21
0.4694065354330709
0
LINE
8
BLACK
6
CONTINUOUS
10
1.8842022047244094
20
0.4694065354330709
11
1.8779567716535432
21
0.4577221259842519
0
LINE
8
BLACK
6
CONTINUOUS
10
1.8779567716535432
20
0.4577221259842519
11
1.8728866929133858
21
0.4454818503937008
0
LINE
8
BLACK
6
CONTINUOUS
10
1.8728866929133858
20
0.4454818503937008
11
1.8690407874015749
21
0.4328035826771653
0
LINE
8
BLACK
6
CONTINUOUS
10
1.8690407874015749
20
0.4328035826771653
11
1.8664560629921259
21
0.4198093700787401
0
LINE
8
BLACK
6
CONTINUOUS
10
1.8664560629921259
20
0.4198093700787401
11
1.8651574803149606
21
0.4066243700787401
0
LINE
8
BLACK
6
CONTINUOUS
10
1.8651574803149606
20
0.4066243700787401
11
1.8651574803149606
21
0.3933756299212599
0
LINE
8
BLACK
6
CONTINUOUS
10
0.4944711417322835
20
0.7824053937007874
11
0.4950038188976378
21
0.781872716535433
0
LINE
8
BLACK
6
CONTINUOUS
10
0.4950038188976378
20
0.781872716535433
11
0.4950787401574803
21
0.7814960629921259
0
LINE
8
BLACK
6
CONTINUOUS
10
0.4950787401574803
20
0.7814960629921259
11
0.4950787401574803
21
0.6358267716535433
0
LINE
8
BLACK
6
CONTINUOUS
10
0.4950787401574803
20
0.6358267716535433
11
0.4950038188976378
21
0.6354501181102362
0
LINE
8
BLACK
6
CONTINUOUS
10
0.4950038188976378
20
0.6354501181102362
11
0.4944711417322835
21
0.6349174409448819
0
LINE
8
BLACK
6
CONTINUOUS
10
0.4944711417322835
20
0.6349174409448819
11
0.4940944881889764
21
0.6348425196850394
0
LINE
8
BLACK
6
CONTINUOUS
10
0.4940944881889764
20
0.6348425196850394
11
0.2696850393700788
21
0.6348425196850394
0
LINE
8
BLACK
6
CONTINUOUS
10
0.2696850393700788
20
0.6348425196850394
11
0.2693083858267716
21
0.6349174409448819
0
LINE
8
BLACK
6
CONTINUOUS
10
0.2693083858267716
20
0.6349174409448819
11
0.2687757086614173
21
0.6354501181102362
0
LINE
8
BLACK
6
CONTINUOUS
10
0.2687757086614173
20
0.6354501181102362
11
0.2687007874015748
21
0.6358267716535433
0
LINE
8
BLACK
6
CONTINUOUS
10
0.2687007874015748
20
0.6358267716535433
11
0.2687007874015748
21
0.7814960629921259
0
LINE
8
BLACK
6
CONTINUOUS
10
0.2687007874015748
20
0.7814960629921259
11
0.2687757086614173
21
0.781872716535433
0
LINE
8
BLACK
6
CONTINUOUS
10
0.2687757086614173
20
0.781872716535433
11
0.2693083858267716
21
0.7824053937007874
0
LINE
8
BLACK
6
CONTINUOUS
10
0.2693083858267716
20
0.7824053937007874
11
0.2696850393700788
21
0.7824803149606299
0
LINE
8
BLACK
6
CONTINUOUS
10
0.2696850393700788
20
0.7824803149606299
11
0.4940944881889764
21
0.7824803149606299
0
LINE
8
BLACK
6
CONTINUOUS
10
0.4940944881889764
20
0.7824803149606299
11
0.4944711417322835
21
0.7824053937007874
0
LINE
8
BLACK
6
CONTINUOUS
10
0.2706692913385827
20
0.780511811023622
11
0.2706692913385827
21
0.6368110236220472
0
LINE
8
BLACK
6
CONTINUOUS
10
0.2706692913385827
20
0.6368110236220472
11
0.4931102362204725
21
0.6368110236220472
0
LINE
8
BLACK
6
CONTINUOUS
10
0.4931102362204725
20
0.6368110236220472
11
0.4931102362204725
21
0.780511811023622
0
LINE
8
BLACK
6
CONTINUOUS
10
0.4931102362204725
20
0.780511811023622
11
0.2706692913385827
21
0.780511811023622
0
LINE
8
BLACK
6
CONTINUOUS
10
2.1283294094488188
20
0.7824053937007874
11
2.128862086614173
21
0.781872716535433
0
LINE
8
BLACK
6
CONTINUOUS
10
2.128862086614173
20
0.781872716535433
11
2.1289370078740157
21
0.7814960629921259
0
LINE
8
BLACK
6
CONTINUOUS
10
2.1289370078740157
20
0.7814960629921259
11
2.1289370078740157
21
0.6358267716535433
0
LINE
8
BLACK
6
CONTINUOUS
10
2.1289370078740157
20
0.6358267716535433
11
2.128862086614173
21
0.6354501181102362
0
LINE
8
BLACK
6
CONTINUOUS
10
2.128862086614173
20
0.6354501181102362
11
2.1283294094488188
21
0.6349174409448819
0
LINE
8
BLACK
6
CONTINUOUS
10
2.1283294094488188
20
0.6349174409448819
11
2.1279527559055116
21
0.6348425196850394
0
LINE
8
BLACK
6
CONTINUOUS
10
2.1279527559055116
20
0.6348425196850394
11
1.9035433070866141
21
0.6348425196850394
0
LINE
8
BLACK
6
CONTINUOUS
10
1.9035433070866141
20
0.6348425196850394
11
1.9031666535433069
21
0.6349174409448819
0
LINE
8
BLACK
6
CONTINUOUS
10
1.9031666535433069
20
0.6349174409448819
11
1.9026339763779527
21
0.6354501181102362
0
LINE
8
BLACK
6
CONTINUOUS
10
1.9026339763779527
20
0.6354501181102362
11
1.9025590551181102
21
0.6358267716535433
0
LINE
8
BLACK
6
CONTINUOUS
10
1.9025590551181102
20
0.6358267716535433
11
1.9025590551181102
21
0.7814960629921259
0
LINE
8
BLACK
6
CONTINUOUS
10
1.9025590551181102
20
0.7814960629921259
11
1.9026339763779527
21
0.781872716535433
0
LINE
8
BLACK
6
CONTINUOUS
10
1.9026339763779527
20
0.781872716535433
11
1.9031666535433069
21
0.7824053937007874
0
LINE
8
BLACK
6
CONTINUOUS
10
1.9031666535433069
20
0.7824053937007874
11
1.9035433070866141
21
0.7824803149606299
0
LINE
8
BLACK
6
CONTINUOUS
10
1.9035433070866141
20
0.7824803149606299
11
2.1279527559055116
21
0.7824803149606299
0
LINE
8
BLACK
6
CONTINUOUS
10
2.1279527559055116
20
0.7824803149606299
11
2.1283294094488188
21
0.7824053937007874
0
LINE
8
BLACK
6
CONTINUOUS
10
1.9045275590551181
20
0.780511811023622
11
1.9045275590551181
21
0.6368110236220472
0
LINE
8
BLACK
6
CONTINUOUS
10
1.9045275590551181
20
0.6368110236220472
11
2.1269685039370079
21
0.6368110236220472
0
LINE
8
BLACK
6
CONTINUOUS
10
2.1269685039370079
20
0.6368110236220472
11
2.1269685039370079
21
0.780511811023622
0
LINE
8
BLACK
6
CONTINUOUS
10
2.1269685039370079
20
0.780511811023622
11
1.9045275590551181
21
0.780511811023622
0
LINE
8
BLACK
6
CONTINUOUS
10
0.4200743307086614
20
2.1353302362204722
11
0.4332423622047244
21
2.1327109842519683
0
LINE
8
BLACK
6
CONTINUOUS
10
0.4332423622047244
20
2.1327109842519683
11
0.4460902362204724
21
2.128813622047244
0
LINE
8
BLACK
6
CONTINUOUS
10
0.4460902362204724
20
2.128813622047244
11
0.4584942519685039
21
2.1236757086614171
0
LINE
8
BLACK
6
CONTINUOUS
10
0.4584942519685039
20
2.1236757086614171
11
0.4703349212598425
21
2.1173467322834645
0
LINE
8
BLACK
6
CONTINUOUS
10
0.4703349212598425
20
2.1173467322834645
11
0.4814982283464567
21
2.1098876377952753
0
LINE
8
BLACK
6
CONTINUOUS
10
0.4814982283464567
20
2.1098876377952753
11
0.4918766535433071
21
2.101370275590551
0
LINE
8
BLACK
6
CONTINUOUS
10
0.4918766535433071
20
2.101370275590551
11
0.5013702755905511
21
2.0918766535433071
0
LINE
8
BLACK
6
CONTINUOUS
10
0.5013702755905511
20
2.0918766535433071
11
0.5098876377952756
21
2.0814982283464567
0
LINE
8
BLACK
6
CONTINUOUS
10
0.5098876377952756
20
2.0814982283464567
11
0.5173467322834645
21
2.0703349212598425
0
LINE
8
BLACK
6
CONTINUOUS
10
0.5173467322834645
20
2.0703349212598425
11
0.5236757086614173
21
2.0584942519685039
0
LINE
8
BLACK
6
CONTINUOUS
10
0.5236757086614173
20
2.0584942519685039
11
0.5288136220472441
21
2.0460902362204725
0
LINE
8
BLACK
6
CONTINUOUS
10
0.5288136220472441
20
2.0460902362204725
11
0.5327109842519685
21
2.0332423622047244
0
LINE
8
BLACK
6
CONTINUOUS
10
0.5327109842519685
20
2.0332423622047244
11
0.5353302362204724
21
2.0200743307086615
0
LINE
8
BLACK
6
CONTINUOUS
10
0.5353302362204724
20
2.0200743307086615
11
0.5366462204724409
21
2.0067129921259843
0
LINE
8
BLACK
6
CONTINUOUS
10
0.5366462204724409
20
2.0067129921259843
11
0.5366462204724409
21
1.9932870078740157
0
LINE
8
BLACK
6
CONTINUOUS
10
0.5366462204724409
20
1.9932870078740157
11
0.5353302362204724
21
1.9799256692913385
0
LINE
8
BLACK
6
CONTINUOUS
10
0.5353302362204724
20
1.9799256692913385
11
0.5327109842519685
21
1.9667576377952756
0
LINE
8
BLACK
6
CONTINUOUS
10
0.5327109842519685
20
1.9667576377952756
11
0.5288136220472441
21
1.9539097637795275
0
LINE
8
BLACK
6
CONTINUOUS
10
0.5288136220472441
20
1.9539097637795275
11
0.5236757086614173
21
1.9415057480314961
0
LINE
8
BLACK
6
CONTINUOUS
10
0.5236757086614173
20
1.9415057480314961
11
0.5173467322834645
21
1.9296650787401575
0
LINE
8
BLACK
6
CONTINUOUS
10
0.5173467322834645
20
1.9296650787401575
11
0.5098876377952756
21
1.9185017716535433
0
LINE
8
BLACK
6
CONTINUOUS
10
0.5098876377952756
20
1.9185017716535433
11
0.5013702755905511
21
1.9081233464566929
0
LINE
8
BLACK
6
CONTINUOUS
10
0.5013702755905511
20
1.9081233464566929
11
0.4918766535433071
21
1.8986297244094488
0
LINE
8
BLACK
6
CONTINUOUS
10
0.4918766535433071
20
1.8986297244094488
11
0.4814982283464567
21
1.8901123622047244
0
LINE
8
BLACK
6
CONTINUOUS
10
0.4814982283464567
20
1.8901123622047244
11
0.4703349212598425
21
1.8826532677165353
0
LINE
8
BLACK
6
CONTINUOUS
10
0.4703349212598425
20
1.8826532677165353
11
0.4584942519685039
21
1.8763242913385827
0
LINE
8
BLACK
6
CONTINUOUS
10
0.4584942519685039
20
1.8763242913385827
11
0.4460902362204724
21
1.8711863779527558
0
LINE
8
BLACK
6
CONTINUOUS
10
0.4460902362204724
20
1.8711863779527558
11
0.4332423622047244
21
1.8672890157480315
0
LINE
8
BLACK
6
CONTINUOUS
10
0.4332423622047244
20
1.8672890157480315
11
0.4200743307086614
21
1.8646697637795275
0
LINE
8
BLACK
6
CONTINUOUS
10
0.4200743307086614
20
1.8646697637795275
11
0.4067129921259842
21
1.863353779527559
0
LINE
8
BLACK
6
CONTINUOUS
10
0.4067129921259842
20
1.863353779527559
11
0.3932870078740157
21
1.863353779527559
0
LINE
8
BLACK
6
CONTINUOUS
10
0.3932870078740157
20
1.863353779527559
11
0.3799256692913386
21
1.8646697637795275
0
LINE
8
BLACK
6
CONTINUOUS
10
0.3799256692913386
20
1.8646697637795275
11
0.3667576377952756
21
1.8672890157480315
0
LINE
8
BLACK
6
CONTINUOUS
10
0.3667576377952756
20
1.8672890157480315
11
0.3539097637795275
21
1.8711863779527558
0
LINE
8
BLACK
6
CONTINUOUS
10
0.3539097637795275
20
1.8711863779527558
11
0.3415057480314961
21
1.8763242913385827
0
LINE
8
BLACK
6
CONTINUOUS
10
0.3415057480314961
20
1.8763242913385827
11
0.3296650787401575
21
1.8826532677165353
0
LINE
8
BLACK
6
CONTINUOUS
10
0.3296650787401575
20
1.8826532677165353
11
0.3185017716535433
21
1.8901123622047244
0
LINE
8
BLACK
6
CONTINUOUS
10
0.3185017716535433
20
1.8901123622047244
11
0.3081233464566929
21
1.8986297244094488
0
LINE
8
BLACK
6
CONTINUOUS
10
0.3081233464566929
20
1.8986297244094488
11
0.2986297244094488
21
1.9081233464566929
0
LINE
8
BLACK
6
CONTINUOUS
10
0.2986297244094488
20
1.9081233464566929
11
0.2901123622047244
21
1.9185017716535433
0
LINE
8
BLACK
6
CONTINUOUS
10
0.2901123622047244
20
1.9185017716535433
11
0.2826532677165354
21
1.9296650787401575
0
LINE
8
BLACK
6
CONTINUOUS
10
0.2826532677165354
20
1.9296650787401575
11
0.2763242913385827
21
1.9415057480314961
0
LINE
8
BLACK
6
CONTINUOUS
10
0.2763242913385827
20
1.9415057480314961
11
0.2711863779527559
21
1.9539097637795275
0
LINE
8
BLACK
6
CONTINUOUS
10
0.2711863779527559
20
1.9539097637795275
11
0.2672890157480315
21
1.9667576377952756
0
LINE
8
BLACK
6
CONTINUOUS
10
0.2672890157480315
20
1.9667576377952756
11
0.2646697637795276
21
1.9799256692913385
0
LINE
8
BLACK
6
CONTINUOUS
10
0.2646697637795276
20
1.9799256692913385
11
0.2633537795275591
21
1.9932870078740157
0
LINE
8
BLACK
6
CONTINUOUS
10
0.2633537795275591
20
1.9932870078740157
11
0.2633537795275591
21
2.0066243700787401
0
LINE
8
BLACK
6
CONTINUOUS
10
0.2633537795275591
20
2.0066243700787401
11
0.2633537795275591
21
2.0067129921259843
0
LINE
8
BLACK
6
CONTINUOUS
10
0.2633537795275591
20
2.0067129921259843
11
0.2646697637795276
21
2.0200743307086615
0
LINE
8
BLACK
6
CONTINUOUS
10
0.2646697637795276
20
2.0200743307086615
11
0.2672890157480315
21
2.0332423622047244
0
LINE
8
BLACK
6
CONTINUOUS
10
0.2672890157480315
20
2.0332423622047244
11
0.2711863779527559
21
2.0460902362204725
0
LINE
8
BLACK
6
CONTINUOUS
10
0.2711863779527559
20
2.0460902362204725
11
0.2763242913385827
21
2.0584942519685039
0
LINE
8
BLACK
6
CONTINUOUS
10
0.2763242913385827
20
2.0584942519685039
11
0.2826532677165354
21
2.0703349212598425
0
LINE
8
BLACK
6
CONTINUOUS
10
0.2826532677165354
20
2.0703349212598425
11
0.2901123622047244
21
2.0814982283464567
0
LINE
8
BLACK
6
CONTINUOUS
10
0.2901123622047244
20
2.0814982283464567
11
0.2986297244094488
21
2.0918766535433071
0
LINE
8
BLACK
6
CONTINUOUS
10
0.2986297244094488
20
2.0918766535433071
11
0.3081233464566929
21
2.101370275590551
0
LINE
8
BLACK
6
CONTINUOUS
10
0.3081233464566929
20
2.101370275590551
11
0.3185017716535433
21
2.1098876377952753
0
LINE
8
BLACK
6
CONTINUOUS
10
0.3185017716535433
20
2.1098876377952753
11
0.3296650787401575
21
2.1173467322834645
0
LINE
8
BLACK
6
CONTINUOUS
10
0.3296650787401575
20
2.1173467322834645
11
0.3415057480314961
21
2.1236757086614171
0
LINE
8
BLACK
6
CONTINUOUS
10
0.3415057480314961
20
2.1236757086614171
11
0.3539097637795275
21
2.128813622047244
0
LINE
8
BLACK
6
CONTINUOUS
10
0.3539097637795275
20
2.128813622047244
11
0.3667576377952756
21
2.1327109842519683
0
LINE
8
BLACK
6
CONTINUOUS
10
0.3667576377952756
20
2.1327109842519683
11
0.3799256692913386
21
2.1353302362204722
0
LINE
8
BLACK
6
CONTINUOUS
10
0.3799256692913386
20
2.1353302362204722
11
0.3932870078740157
21
2.136646220472441
0
LINE
8
BLACK
6
CONTINUOUS
10
0.3932870078740157
20
2.136646220472441
11
0.4067129921259842
21
2.136646220472441
0
LINE
8
BLACK
6
CONTINUOUS
10
0.4067129921259842
20
2.136646220472441
11
0.4200743307086614
21
2.1353302362204722
0
LINE
8
BLACK
6
CONTINUOUS
10
0.2651574803149606
20
1.9933756299212597
11
0.266456062992126
21
1.9801906299212597
0
LINE
8
BLACK
6
CONTINUOUS
10
0.266456062992126
20
1.9801906299212597
11
0.2690407874015748
21
1.9671964173228347
0
LINE
8
BLACK
6
CONTINUOUS
10
0.2690407874015748
20
1.9671964173228347
11
0.2728866929133858
21
1.9545181496062991
0
LINE
8
BLACK
6
CONTINUOUS
10
0.2728866929133858
20
1.9545181496062991
11
0.2779567716535433
21
1.942277874015748
0
LINE
8
BLACK
6
CONTINUOUS
10
0.2779567716535433
20
1.942277874015748
11
0.2842022047244094
21
1.9305934645669292
0
LINE
8
BLACK
6
CONTINUOUS
10
0.2842022047244094
20
1.9305934645669292
11
0.2915628346456693
21
1.9195775196850393
0
LINE
8
BLACK
6
CONTINUOUS
10
0.2915628346456693
20
1.9195775196850393
11
0.2999677952755905
21
1.9093360629921259
0
LINE
8
BLACK
6
CONTINUOUS
10
0.2999677952755905
20
1.9093360629921259
11
0.309336062992126
21
1.8999677952755905
0
LINE
8
BLACK
6
CONTINUOUS
10
0.309336062992126
20
1.8999677952755905
11
0.3195775196850393
21
1.8915628346456692
0
LINE
8
BLACK
6
CONTINUOUS
10
0.3195775196850393
20
1.8915628346456692
11
0.3305934645669291
21
1.8842022047244094
0
LINE
8
BLACK
6
CONTINUOUS
10
0.3305934645669291
20
1.8842022047244094
11
0.342277874015748
21
1.8779567716535432
0
LINE
8
BLACK
6
CONTINUOUS
10
0.342277874015748
20
1.8779567716535432
11
0.3545181496062992
21
1.8728866929133858
0
LINE
8
BLACK
6
CONTINUOUS
10
0.3545181496062992
20
1.8728866929133858
11
0.3671964173228346
21
1.8690407874015749
0
LINE
8
BLACK
6
CONTINUOUS
10
0.3671964173228346
20
1.8690407874015749
11
0.3801906299212598
21
1.8664560629921259
0
LINE
8
BLACK
6
CONTINUOUS
10
0.3801906299212598
20
1.8664560629921259
11
0.3933756299212599
21
1.8651574803149606
0
LINE
8
BLACK
6
CONTINUOUS
10
0.3933756299212599
20
1.8651574803149606
11
0.4066243700787401
21
1.8651574803149606
0
LINE
8
BLACK
6
CONTINUOUS
10
0.4066243700787401
20
1.8651574803149606
11
0.4198093700787401
21
1.8664560629921259
0
LINE
8
BLACK
6
CONTINUOUS
10
0.4198093700787401
20
1.8664560629921259
11
0.4328035826771653
21
1.8690407874015749
0
LINE
8
BLACK
6
CONTINUOUS
10
0.4328035826771653
20
1.8690407874015749
11
0.4454818503937008
21
1.8728866929133858
0
LINE
8
BLACK
6
CONTINUOUS
10
0.4454818503937008
20
1.8728866929133858
11
0.4577221259842519
21
1.8779567716535432
0
LINE
8
BLACK
6
CONTINUOUS
10
0.4577221259842519
20
1.8779567716535432
11
0.4694065354330709
21
1.8842022047244094
0
LINE
8
BLACK
6
CONTINUOUS
10
0.4694065354330709
20
1.8842022047244094
11
0.4804224803149606
21
1.8915628346456692
0
LINE
8
BLACK
6
CONTINUOUS
10
0.4804224803149606
20
1.8915628346456692
11
0.490663937007874
21
1.8999677952755905
0
LINE
8
BLACK
6
CONTINUOUS
10
0.490663937007874
20
1.8999677952755905
11
0.5000322047244095
21
1.9093360629921259
0
LINE
8
BLACK
6
CONTINUOUS
10
0.5000322047244095
20
1.9093360629921259
11
0.5084371653543307
21
1.9195775196850393
0
LINE
8
BLACK
6
CONTINUOUS
10
0.5084371653543307
20
1.9195775196850393
11
0.5157977952755906
21
1.9305934645669292
0
LINE
8
BLACK
6
CONTINUOUS
10
0.5157977952755906
20
1.9305934645669292
11
0.5220432283464567
21
1.942277874015748
0
LINE
8
BLACK
6
CONTINUOUS
10
0.5220432283464567
20
1.942277874015748
11
0.5271133070866142
21
1.9545181496062991
0
LINE
8
BLACK
6
CONTINUOUS
10
0.5271133070866142
20
1.9545181496062991
11
0.5309592125984252
21
1.9671964173228347
0
LINE
8
BLACK
6
CONTINUOUS
10
0.5309592125984252
20
1.9671964173228347
11
0.5335439370078741
21
1.9801906299212597
0
LINE
8
BLACK
6
CONTINUOUS
10
0.5335439370078741
20
1.9801906299212597
11
0.5348425196850394
21
1.9933756299212597
0
LINE
8
BLACK
6
CONTINUOUS
10
0.5348425196850394
20
1.9933756299212597
11
0.5348425196850394
21
2.0066243700787401
0
LINE
8
BLACK
6
CONTINUOUS
10
0.5348425196850394
20
2.0066243700787401
11
0.5335439370078741
21
2.0198093700787401
0
LINE
8
BLACK
6
CONTINUOUS
10
0.5335439370078741
20
2.0198093700787401
11
0.5309592125984252
21
2.0328035826771651
0
LINE
8
BLACK
6
CONTINUOUS
10
0.5309592125984252
20
2.0328035826771651
11
0.5271133070866142
21
2.0454818503937009
0
LINE
8
BLACK
6
CONTINUOUS
10
0.5271133070866142
20
2.0454818503937009
11
0.5220432283464567
21
2.057722125984252
0
LINE
8
BLACK
6
CONTINUOUS
10
0.5220432283464567
20
2.057722125984252
11
0.5157977952755906
21
2.0694065354330706
0
LINE
8
BLACK
6
CONTINUOUS
10
0.5157977952755906
20
2.0694065354330706
11
0.5084371653543307
21
2.0804224803149607
0
LINE
8
BLACK
6
CONTINUOUS
10
0.5084371653543307
20
2.0804224803149607
11
0.5000322047244095
21
2.0906639370078741
0
LINE
8
BLACK
6
CONTINUOUS
10
0.5000322047244095
20
2.0906639370078741
11
0.490663937007874
21
2.1000322047244095
0
LINE
8
BLACK
6
CONTINUOUS
10
0.490663937007874
20
2.1000322047244095
11
0.4804224803149606
21
2.1084371653543306
0
LINE
8
BLACK
6
CONTINUOUS
10
0.4804224803149606
20
2.1084371653543306
11
0.4694065354330709
21
2.1157977952755904
0
LINE
8
BLACK
6
CONTINUOUS
10
0.4694065354330709
20
2.1157977952755904
11
0.4577221259842519
21
2.1220432283464565
0
LINE
8
BLACK
6
CONTINUOUS
10
0.4577221259842519
20
2.1220432283464565
11
0.4454818503937008
21
2.1271133070866139
0
LINE
8
BLACK
6
CONTINUOUS
10
0.4454818503937008
20
2.1271133070866139
11
0.4328035826771653
21
2.1309592125984254
0
LINE
8
BLACK
6
CONTINUOUS
10
0.4328035826771653
20
2.1309592125984254
11
0.4198093700787401
21
2.1335439370078739
0
LINE
8
BLACK
6
CONTINUOUS
10
0.4198093700787401
20
2.1335439370078739
11
0.4066243700787401
21
2.1348425196850394
0
LINE
8
BLACK
6
CONTINUOUS
10
0.4066243700787401
20
2.1348425196850394
11
0.3933756299212599
21
2.1348425196850394
0
LINE
8
BLACK
6
CONTINUOUS
10
0.3933756299212599
20
2.1348425196850394
11
0.3801906299212598
21
2.1335439370078739
0
LINE
8
BLACK
6
CONTINUOUS
10
0.3801906299212598
20
2.1335439370078739
11
0.3671964173228346
21
2.1309592125984254
0
LINE
8
BLACK
6
CONTINUOUS
10
0.3671964173228346
20
2.1309592125984254
11
0.3545181496062992
21
2.1271133070866139
0
LINE
8
BLACK
6
CONTINUOUS
10
0.3545181496062992
20
2.1271133070866139
11
0.342277874015748
21
2.1220432283464565
0
LINE
8
BLACK
6
CONTINUOUS
10
0.342277874015748
20
2.1220432283464565
11
0.3305934645669291
21
2.1157977952755904
0
LINE
8
BLACK
6
CONTINUOUS
10
0.3305934645669291
20
2.1157977952755904
11
0.3195775196850393
21
2.1084371653543306
0
LINE
8
BLACK
6
CONTINUOUS
10
0.3195775196850393
20
2.1084371653543306
11
0.309336062992126
21
2.1000322047244095
0
LINE
8
BLACK
6
CONTINUOUS
10
0.309336062992126
20
2.1000322047244095
11
0.2999677952755905
21
2.0906639370078741
0
LINE
8
BLACK
6
CONTINUOUS
10
0.2999677952755905
20
2.0906639370078741
11
0.2915628346456693
21
2.0804224803149607
0
LINE
8
BLACK
6
CONTINUOUS
10
0.2915628346456693
20
2.0804224803149607
11
0.2842022047244094
21
2.0694065354330706
0
LINE
8
BLACK
6
CONTINUOUS
10
0.2842022047244094
20
2.0694065354330706
11
0.2779567716535433
21
2.057722125984252
0
LINE
8
BLACK
6
CONTINUOUS
10
0.2779567716535433
20
2.057722125984252
11
0.2728866929133858
21
2.0454818503937009
0
LINE
8
BLACK
6
CONTINUOUS
10
0.2728866929133858
20
2.0454818503937009
11
0.2690407874015748
21
2.0328035826771651
0
LINE
8
BLACK
6
CONTINUOUS
10
0.2690407874015748
20
2.0328035826771651
11
0.266456062992126
21
2.0198093700787401
0
LINE
8
BLACK
6
CONTINUOUS
10
0.266456062992126
20
2.0198093700787401
11
0.2651574803149606
21
2.0066243700787401
0
LINE
8
BLACK
6
CONTINUOUS
10
0.2651574803149606
20
2.0066243700787401
11
0.2651574803149606
21
1.9933756299212597
0
LINE
8
BLACK
6
CONTINUOUS
10
2.0200743307086615
20
2.1353302362204722
11
2.0332423622047244
21
2.1327109842519683
0
LINE
8
BLACK
6
CONTINUOUS
10
2.0332423622047244
20
2.1327109842519683
11
2.0460902362204725
21
2.128813622047244
0
LINE
8
BLACK
6
CONTINUOUS
10
2.0460902362204725
20
2.128813622047244
11
2.0584942519685039
21
2.1236757086614171
0
LINE
8
BLACK
6
CONTINUOUS
10
2.0584942519685039
20
2.1236757086614171
11
2.0703349212598425
21
2.1173467322834645
0
LINE
8
BLACK
6
CONTINUOUS
10
2.0703349212598425
20
2.1173467322834645
11
2.0814982283464567
21
2.1098876377952753
0
LINE
8
BLACK
6
CONTINUOUS
10
2.0814982283464567
20
2.1098876377952753
11
2.0918766535433071
21
2.101370275590551
0
LINE
8
BLACK
6
CONTINUOUS
10
2.0918766535433071
20
2.101370275590551
11
2.101370275590551
21
2.0918766535433071
0
LINE
8
BLACK
6
CONTINUOUS
10
2.101370275590551
20
2.0918766535433071
11
2.1098876377952753
21
2.0814982283464567
0
LINE
8
BLACK
6
CONTINUOUS
10
2.1098876377952753
20
2.0814982283464567
11
2.1173467322834645
21
2.0703349212598425
0
LINE
8
BLACK
6
CONTINUOUS
10
2.1173467322834645
20
2.0703349212598425
11
2.1236757086614171
21
2.0584942519685039
0
LINE
8
BLACK
6
CONTINUOUS
10
2.1236757086614171
20
2.0584942519685039
11
2.128813622047244
21
2.0460902362204725
0
LINE
8
BLACK
6
CONTINUOUS
10
2.128813622047244
20
2.0460902362204725
11
2.1327109842519683
21
2.0332423622047244
0
LINE
8
BLACK
6
CONTINUOUS
10
2.1327109842519683
20
2.0332423622047244
11
2.1353302362204722
21
2.0200743307086615
0
LINE
8
BLACK
6
CONTINUOUS
10
2.1353302362204722
20
2.0200743307086615
11
2.136646220472441
21
2.0067129921259843
0
LINE
8
BLACK
6
CONTINUOUS
10
2.136646220472441
20
2.0067129921259843
11
2.136646220472441
21
1.9932870078740157
0
LINE
8
BLACK
6
CONTINUOUS
10
2.136646220472441
20
1.9932870078740157
11
2.1353302362204722
21
1.9799256692913385
0
LINE
8
BLACK
6
CONTINUOUS
10
2.1353302362204722
20
1.9799256692913385
11
2.1327109842519683
21
1.9667576377952756
0
LINE
8
BLACK
6
CONTINUOUS
10
2.1327109842519683
20
1.9667576377952756
11
2.128813622047244
21
1.9539097637795275
0
LINE
8
BLACK
6
CONTINUOUS
10
2.128813622047244
20
1.9539097637795275
11
2.1236757086614171
21
1.9415057480314961
0
LINE
8
BLACK
6
CONTINUOUS
10
2.1236757086614171
20
1.9415057480314961
11
2.1173467322834645
21
1.9296650787401575
0
LINE
8
BLACK
6
CONTINUOUS
10
2.1173467322834645
20
1.9296650787401575
11
2.1098876377952753
21
1.9185017716535433
0
LINE
8
BLACK
6
CONTINUOUS
10
2.1098876377952753
20
1.9185017716535433
11
2.101370275590551
21
1.9081233464566929
0
LINE
8
BLACK
6
CONTINUOUS
10
2.101370275590551
20
1.9081233464566929
11
2.0918766535433071
21
1.8986297244094488
0
LINE
8
BLACK
6
CONTINUOUS
10
2.0918766535433071
20
1.8986297244094488
11
2.0814982283464567
21
1.8901123622047244
0
LINE
8
BLACK
6
CONTINUOUS
10
2.0814982283464567
20
1.8901123622047244
11
2.0703349212598425
21
1.8826532677165353
0
LINE
8
BLACK
6
CONTINUOUS
10
2.0703349212598425
20
1.8826532677165353
11
2.0584942519685039
21
1.8763242913385827
0
LINE
8
BLACK
6
CONTINUOUS
10
2.0584942519685039
20
1.8763242913385827
11
2.0460902362204725
21
1.8711863779527558
0
LINE
8
BLACK
6
CONTINUOUS
10
2.0460902362204725
20
1.8711863779527558
11
2.0332423622047244
21
1.8672890157480315
0
LINE
8
BLACK
6
CONTINUOUS
10
2.0332423622047244
20
1.8672890157480315
11
2.0200743307086615
21
1.8646697637795275
0
LINE
8
BLACK
6
CONTINUOUS
10
2.0200743307086615
20
1.8646697637795275
11
2.0067129921259843
21
1.863353779527559
0
LINE
8
BLACK
6
CONTINUOUS
10
2.0067129921259843
20
1.863353779527559
11
1.9932870078740157
21
1.863353779527559
0
LINE
8
BLACK
6
CONTINUOUS
10
1.9932870078740157
20
1.863353779527559
11
1.9799256692913385
21
1.8646697637795275
0
LINE
8
BLACK
6
CONTINUOUS
10
1.9799256692913385
20
1.8646697637795275
11
1.9667576377952756
21
1.8672890157480315
0
LINE
8
BLACK
6
CONTINUOUS
10
1.9667576377952756
20
1.8672890157480315
11
1.9539097637795275
21
1.8711863779527558
0
LINE
8
BLACK
6
CONTINUOUS
10
1.9539097637795275
20
1.8711863779527558
11
1.9415057480314961
21
1.8763242913385827
0
LINE
8
BLACK
6
CONTINUOUS
10
1.9415057480314961
20
1.8763242913385827
11
1.9296650787401575
21
1.8826532677165353
0
LINE
8
BLACK
6
CONTINUOUS
10
1.9296650787401575
20
1.8826532677165353
11
1.9185017716535433
21
1.8901123622047244
0
LINE
8
BLACK
6
CONTINUOUS
10
1.9185017716535433
20
1.8901123622047244
11
1.9081233464566929
21
1.8986297244094488
0
LINE
8
BLACK
6
CONTINUOUS
10
1.9081233464566929
20
1.8986297244094488
11
1.8986297244094488
21
1.9081233464566929
0
LINE
8
BLACK
6
CONTINUOUS
10
1.8986297244094488
20
1.9081233464566929
11
1.8901123622047244
21
1.9185017716535433
0
LINE
8
BLACK
6
CONTINUOUS
10
1.8901123622047244
20
1.9185017716535433
11
1.8826532677165353
21
1.9296650787401575
0
LINE
8
BLACK
6
CONTINUOUS
10
1.8826532677165353
20
1.9296650787401575
11
1.8763242913385827
21
1.9415057480314961
0
LINE
8
BLACK
6
CONTINUOUS
10
1.8763242913385827
20
1.9415057480314961
11
1.8711863779527558
21
1.9539097637795275
0
LINE
8
BLACK
6
CONTINUOUS
10
1.8711863779527558
20
1.9539097637795275
11
1.8672890157480315
21
1.9667576377952756
0
LINE
8
BLACK
6
CONTINUOUS
10
1.8672890157480315
20
1.9667576377952756
11
1.8646697637795275
21
1.9799256692913385
0
LINE
8
BLACK
6
CONTINUOUS
10
1.8646697637795275
20
1.9799256692913385
11
1.863353779527559
21
1.9932870078740157
0
LINE
8
BLACK
6
CONTINUOUS
10
1.863353779527559
20
1.9932870078740157
11
1.863353779527559
21
2.0066243700787401
0
LINE
8
BLACK
6
CONTINUOUS
10
1.863353779527559
20
2.0066243700787401
11
1.863353779527559
21
2.0067129921259843
0
LINE
8
BLACK
6
CONTINUOUS
10
1.863353779527559
20
2.0067129921259843
11
1.8646697637795275
21
2.0200743307086615
0
LINE
8
BLACK
6
CONTINUOUS
10
1.8646697637795275
20
2.0200743307086615
11
1.8672890157480315
21
2.0332423622047244
0
LINE
8
BLACK
6
CONTINUOUS
10
1.8672890157480315
20
2.0332423622047244
11
1.8711863779527558
21
2.0460902362204725
0
LINE
8
BLACK
6
CONTINUOUS
10
1.8711863779527558
20
2.0460902362204725
11
1.8763242913385827
21
2.0584942519685039
0
LINE
8
BLACK
6
CONTINUOUS
10
1.8763242913385827
20
2.0584942519685039
11
1.8826532677165353
21
2.0703349212598425
0
LINE
8
BLACK
6
CONTINUOUS
10
1.8826532677165353
20
2.0703349212598425
11
1.8901123622047244
21
2.0814982283464567
0
LINE
8
BLACK
6
CONTINUOUS
10
1.8901123622047244
20
2.0814982283464567
11
1.8986297244094488
21
2.0918766535433071
0
LINE
8
BLACK
6
CONTINUOUS
10
1.8986297244094488
20
2.0918766535433071
11
1.9081233464566929
21
2.101370275590551
0
LINE
8
BLACK
6
CONTINUOUS
10
1.9081233464566929
20
2.101370275590551
11
1.9185017716535433
21
2.1098876377952753
0
LINE
8
BLACK
6
CONTINUOUS
10
1.9185017716535433
20
2.1098876377952753
11
1.9296650787401575
21
2.1173467322834645
0
LINE
8
BLACK
6
CONTINUOUS
10
1.9296650787401575
20
2.1173467322834645
11
1.9415057480314961
21
2.1236757086614171
0
LINE
8
BLACK
6
CONTINUOUS
10
1.9415057480314961
20
2.1236757086614171
11
1.9539097637795275
21
2.128813622047244
0
LINE
8
BLACK
6
CONTINUOUS
10
1.9539097637795275
20
2.128813622047244
11
1.9667576377952756
21
2.1327109842519683
0
LINE
8
BLACK
6
CONTINUOUS
10
1.9667576377952756
20
2.1327109842519683
11
1.9799256692913385
21
2.1353302362204722
0
LINE
8
BLACK
6
CONTINUOUS
10
1.9799256692913385
20
2.1353302362204722
11
1.9932870078740157
21
2.136646220472441
0
LINE
8
BLACK
6
CONTINUOUS
10
1.9932870078740157
20
2.136646220472441
11
2.0067129921259843
21
2.136646220472441
0
LINE
8
BLACK
6
CONTINUOUS
10
2.0067129921259843
20
2.136646220472441
11
2.0200743307086615
21
2.1353302362204722
0
LINE
8
BLACK
6
CONTINUOUS
10
1.8651574803149606
20
1.9933756299212597
11
1.8664560629921259
21
1.9801906299212597
0
LINE
8
BLACK
6
CONTINUOUS
10
1.8664560629921259
20
1.9801906299212597
11
1.8690407874015749
21
1.9671964173228347
0
LINE
8
BLACK
6
CONTINUOUS
10
1.8690407874015749
20
1.9671964173228347
11
1.8728866929133858
21
1.9545181496062991
0
LINE
8
BLACK
6
CONTINUOUS
10
1.8728866929133858
20
1.9545181496062991
11
1.8779567716535432
21
1.942277874015748
0
LINE
8
BLACK
6
CONTINUOUS
10
1.8779567716535432
20
1.942277874015748
11
1.8842022047244094
21
1.9305934645669292
0
LINE
8
BLACK
6
CONTINUOUS
10
1.8842022047244094
20
1.9305934645669292
11
1.8915628346456692
21
1.9195775196850393
0
LINE
8
BLACK
6
CONTINUOUS
10
1.8915628346456692
20
1.9195775196850393
11
1.8999677952755905
21
1.9093360629921259
0
LINE
8
BLACK
6
CONTINUOUS
10
1.8999677952755905
20
1.9093360629921259
11
1.9093360629921259
21
1.8999677952755905
0
LINE
8
BLACK
6
CONTINUOUS
10
1.9093360629921259
20
1.8999677952755905
11
1.9195775196850393
21
1.8915628346456692
0
LINE
8
BLACK
6
CONTINUOUS
10
1.9195775196850393
20
1.8915628346456692
11
1.9305934645669292
21
1.8842022047244094
0
LINE
8
BLACK
6
CONTINUOUS
10
1.9305934645669292
20
1.8842022047244094
11
1.942277874015748
21
1.8779567716535432
0
LINE
8
BLACK
6
CONTINUOUS
10
1.942277874015748
20
1.8779567716535432
11
1.9545181496062991
21
1.8728866929133858
0
LINE
8
BLACK
6
CONTINUOUS
10
1.9545181496062991
20
1.8728866929133858
11
1.9671964173228347
21
1.8690407874015749
0
LINE
8
BLACK
6
CONTINUOUS
10
1.9671964173228347
20
1.8690407874015749
11
1.9801906299212597
21
1.8664560629921259
0
LINE
8
BLACK
6
CONTINUOUS
10
1.9801906299212597
20
1.8664560629921259
11
1.9933756299212597
21
1.8651574803149606
0
LINE
8
BLACK
6
CONTINUOUS
10
1.9933756299212597
20
1.8651574803149606
11
2.0066243700787401
21
1.8651574803149606
0
LINE
8
BLACK
6
CONTINUOUS
10
2.0066243700787401
20
1.8651574803149606
11
2.0198093700787401
21
1.8664560629921259
0
LINE
8
BLACK
6
CONTINUOUS
10
2.0198093700787401
20
1.8664560629921259
11
2.0328035826771651
21
1.8690407874015749
0
LINE
8
BLACK
6
CONTINUOUS
10
2.0328035826771651
20
1.8690407874015749
11
2.0454818503937009
21
1.8728866929133858
0
LINE
8
BLACK
6
CONTINUOUS
10
2.0454818503937009
20
1.8728866929133858
11
2.057722125984252
21
1.8779567716535432
0
LINE
8
BLACK
6
CONTINUOUS
10
2.057722125984252
20
1.8779567716535432
11
2.0694065354330706
21
1.8842022047244094
0
LINE
8
BLACK
6
CONTINUOUS
10
2.0694065354330706
20
1.8842022047244094
11
2.0804224803149607
21
1.8915628346456692
0
LINE
8
BLACK
6
CONTINUOUS
10
2.0804224803149607
20
1.8915628346456692
11
2.0906639370078741
21
1.8999677952755905
0
LINE
8
BLACK
6
CONTINUOUS
10
2.0906639370078741
20
1.8999677952755905
11
2.1000322047244095
21
1.9093360629921259
0
LINE
8
BLACK
6
CONTINUOUS
10
2.1000322047244095
20
1.9093360629921259
11
2.1084371653543306
21
1.9195775196850393
0
LINE
8
BLACK
6
CONTINUOUS
10
2.1084371653543306
20
1.9195775196850393
11
2.1157977952755904
21
1.9305934645669292
0
LINE
8
BLACK
6
CONTINUOUS
10
2.1157977952755904
20
1.9305934645669292
11
2.1220432283464565
21
1.942277874015748
0
LINE
8
BLACK
6
CONTINUOUS
10
2.1220432283464565
20
1.942277874015748
11
2.1271133070866139
21
1.9545181496062991
0
LINE
8
BLACK
6
CONTINUOUS
10
2.1271133070866139
20
1.9545181496062991
11
2.1309592125984254
21
1.9671964173228347
0
LINE
8
BLACK
6
CONTINUOUS
10
2.1309592125984254
20
1.9671964173228347
11
2.1335439370078739
21
1.9801906299212597
0
LINE
8
BLACK
6
CONTINUOUS
10
2.1335439370078739
20
1.9801906299212597
11
2.1348425196850394
21
1.9933756299212597
0
LINE
8
BLACK
6
CONTINUOUS
10
2.1348425196850394
20
1.9933756299212597
11
2.1348425196850394
21
2.0066243700787401
0
LINE
8
BLACK
6
CONTINUOUS
10
2.1348425196850394
20
2.0066243700787401
11
2.1335439370078739
21
2.0198093700787401
0
LINE
8
BLACK
6
CONTINUOUS
10
2.1335439370078739
20
2.0198093700787401
11
2.1309592125984254
21
2.0328035826771651
0
LINE
8
BLACK
6
CONTINUOUS
10
2.1309592125984254
20
2.0328035826771651
11
2.1271133070866139
21
2.0454818503937009
0
LINE
8
BLACK
6
CONTINUOUS
10
2.1271133070866139
20
2.0454818503937009
11
2.1220432283464565
21
2.057722125984252
0
LINE
8
BLACK
6
CONTINUOUS
10
2.1220432283464565
20
2.057722125984252
11
2.1157977952755904
21
2.0694065354330706
0
LINE
8
BLACK
6
CONTINUOUS
10
2.1157977952755904
20
2.0694065354330706
11
2.1084371653543306
21
2.0804224803149607
0
LINE
8
BLACK
6
CONTINUOUS
10
2.1084371653543306
20
2.0804224803149607
11
2.1000322047244095
21
2.0906639370078741
0
LINE
8
BLACK
6
CONTINUOUS
10
2.1000322047244095
20
2.0906639370078741
11
2.0906639370078741
21
2.1000322047244095
0
LINE
8
BLACK
6
CONTINUOUS
10
2.0906639370078741
20
2.1000322047244095
11
2.0804224803149607
21
2.1084371653543306
0
LINE
8
BLACK
6
CONTINUOUS
10
2.0804224803149607
20
2.1084371653543306
11
2.0694065354330706
21
2.1157977952755904
0
LINE
8
BLACK
6
CONTINUOUS
10
2.0694065354330706
20
2.1157977952755904
11
2.057722125984252
21
2.1220432283464565
0
LINE
8
BLACK
6
CONTINUOUS
10
2.057722125984252
20
2.1220432283464565
11
2.0454818503937009
21
2.1271133070866139
0
LINE
8
BLACK
6
CONTINUOUS
10
2.0454818503937009
20
2.1271133070866139
11
2.0328035826771651
21
2.1309592125984254
0
LINE
8
BLACK
6
CONTINUOUS
10
2.0328035826771651
20
2.1309592125984254
11
2.0198093700787401
21
2.1335439370078739
0
LINE
8
BLACK
6
CONTINUOUS
10
2.0198093700787401
20
2.1335439370078739
11
2.0066243700787401
21
2.1348425196850394
0
LINE
8
BLACK
6
CONTINUOUS
10
2.0066243700787401
20
2.1348425196850394
11
1.9933756299212597
21
2.1348425196850394
0
LINE
8
BLACK
6
CONTINUOUS
10
1.9933756299212597
20
2.1348425196850394
11
1.9801906299212597
21
2.1335439370078739
0
LINE
8
BLACK
6
CONTINUOUS
10
1.9801906299212597
20
2.1335439370078739
11
1.9671964173228347
21
2.1309592125984254
0
LINE
8
BLACK
6
CONTINUOUS
10
1.9671964173228347
20
2.1309592125984254
11
1.9545181496062991
21
2.1271133070866139
0
LINE
8
BLACK
6
CONTINUOUS
10
1.9545181496062991
20
2.1271133070866139
11
1.942277874015748
21
2.1220432283464565
0
LINE
8
BLACK
6
CONTINUOUS
10
1.942277874015748
20
2.1220432283464565
11
1.9305934645669292
21
2.1157977952755904
0
LINE
8
BLACK
6
CONTINUOUS
10
1.9305934645669292
20
2.1157977952755904
11
1.9195775196850393
21
2.1084371653543306
0
LINE
8
BLACK
6
CONTINUOUS
10
1.9195775196850393
20
2.1084371653543306
11
1.9093360629921259
21
2.1000322047244095
0
LINE
8
BLACK
6
CONTINUOUS
10
1.9093360629921259
20
2.1000322047244095
11
1.8999677952755905
21
2.0906639370078741
0
LINE
8
BLACK
6
CONTINUOUS
10
1.8999677952755905
20
2.0906639370078741
11
1.8915628346456692
21
2.0804224803149607
0
LINE
8
BLACK
6
CONTINUOUS
10
1.8915628346456692
20
2.0804224803149607
11
1.8842022047244094
21
2.0694065354330706
0
LINE
8
BLACK
6
CONTINUOUS
10
1.8842022047244094
20
2.0694065354330706
11
1.8779567716535432
21
2.057722125984252
0
LINE
8
BLACK
6
CONTINUOUS
10
1.8779567716535432
20
2.057722125984252
11
1.8728866929133858
21
2.0454818503937009
0
LINE
8
BLACK
6
CONTINUOUS
10
1.8728866929133858
20
2.0454818503937009
11
1.8690407874015749
21
2.0328035826771651
0
LINE
8
BLACK
6
CONTINUOUS
10
1.8690407874015749
20
2.0328035826771651
11
1.8664560629921259
21
2.0198093700787401
0
LINE
8
BLACK
6
CONTINUOUS
10
1.8664560629921259
20
2.0198093700787401
11
1.8651574803149606
21
2.0066243700787401
0
LINE
8
BLACK
6
CONTINUOUS
10
1.8651574803149606
20
2.0066243700787401
11
1.8651574803149606
21
1.9933756299212597
0
CIRCLE
8
BLACK
10
0.305511811023622
20
0.4
40
0.0068897637795276
0
CIRCLE
8
BLACK
10
0.3331867716535433
20
0.4668132283464567
40
0.0068897637795276
0
CIRCLE
8
BLACK
10
0.3331867716535433
20
0.3331867716535433
40
0.0068897637795276
0
CIRCLE
8
BLACK
10
0.4
20
0.4944881889763779
40
0.0068897637795276
0
CIRCLE
8
BLACK
10
0.4
20
0.4
40
0.0068897637795276
0
CIRCLE
8
BLACK
10
0.4
20
0.305511811023622
40
0.0068897637795276
0
CIRCLE
8
BLACK
10
0.4668132283464567
20
0.4668132283464567
40
0.0068897637795276
0
CIRCLE
8
BLACK
10
0.4668132283464567
20
0.3331867716535433
40
0.0068897637795276
0
CIRCLE
8
BLACK
10
0.4944881889763779
20
0.4
40
0.0068897637795276
0
CIRCLE
8
BLACK
10
1.905511811023622
20
0.4
40
0.0068897637795276
0
CIRCLE
8
BLACK
10
1.9331867716535434
20
0.4668132283464567
40
0.0068897637795276
0
CIRCLE
8
BLACK
10
1.9331867716535434
20
0.3331867716535433
40
0.0068897637795276
0
CIRCLE
8
BLACK
10
2.
20
0.4944881889763779
40
0.0068897637795276
0
CIRCLE
8
BLACK
10
2.
20
0.4
40
0.0068897637795276
0
CIRCLE
8
BLACK
10
2.
20
0.305511811023622
40
0.0068897637795276
0
CIRCLE
8
BLACK
10
2.0668132283464566
20
0.4668132283464567
40
0.0068897637795276
0
CIRCLE
8
BLACK
10
2.0668132283464566
20
0.3331867716535433
40
0.0068897637795276
0
CIRCLE
8
BLACK
10
2.0944881889763778
20
0.4
40
0.0068897637795276
0
CIRCLE
8
BLACK
10
1.5523622047244094
20
0.4858267716535433
40
0.0068897637795276
0
CIRCLE
8
BLACK
10
1.6523622047244093
20
0.4858267716535433
40
0.0068897637795276
0
CIRCLE
8
BLACK
10
1.5523622047244094
20
0.3858267716535433
40
0.0068897637795276
0
CIRCLE
8
BLACK
10
1.6523622047244093
20
0.3858267716535433
40
0.0068897637795276
0
CIRCLE
8
BLACK
10
1.5523622047244094
20
0.2858267716535433
40
0.0068897637795276
0
CIRCLE
8
BLACK
10
1.6523622047244093
20
0.2858267716535433
40
0.0068897637795276
0
CIRCLE
8
BLACK
10
1.2297244094488189
20
2.0980314960629922
40
0.0068897637795276
0
CIRCLE
8
BLACK
10
1.2297244094488189
20
1.9980314960629921
40
0.0068897637795276
0
CIRCLE
8
BLACK
10
1.1297244094488188
20
2.0980314960629922
40
0.0068897637795276
0
CIRCLE
8
BLACK
10
1.1297244094488188
20
1.9980314960629921
40
0.0068897637795276
0
CIRCLE
8
BLACK
10
1.0297244094488189
20
2.0980314960629922
40
0.0068897637795276
0
CIRCLE
8
BLACK
10
1.0297244094488189
20
1.9980314960629921
40
0.0068897637795276
0
CIRCLE
8
BLACK
10
0.9297244094488188
20
2.0980314960629922
40
0.0068897637795276
0
CIRCLE
8
BLACK
10
0.9297244094488188
20
1.9980314960629921
40
0.0068897637795276
0
CIRCLE
8
BLACK
10
0.8297244094488189
20
2.0980314960629922
40
0.0068897637795276
0
CIRCLE
8
BLACK
10
0.8297244094488189
20
1.9980314960629921
40
0.0068897637795276
0
CIRCLE
8
BLACK
10
1.9669291338582677
20
1.7811023622047244
40
0.0068897637795276
0
CIRCLE
8
BLACK
10
2.0669291338582676
20
1.7811023622047244
40
0.0068897637795276
0
CIRCLE
8
BLACK
10
1.9669291338582677
20
1.6811023622047243
40
0.0068897637795276
0
CIRCLE
8
BLACK
10
2.0669291338582676
20
1.6811023622047243
40
0.0068897637795276
0
CIRCLE
8
BLACK
10
1.9669291338582677
20
1.5811023622047244
40
0.0068897637795276
0
CIRCLE
8
BLACK
10
2.0669291338582676
20
1.5811023622047244
40
0.0068897637795276
0
CIRCLE
8
BLACK
10
1.9669291338582677
20
1.4811023622047244
40
0.0068897637795276
0
CIRCLE
8
BLACK
10
2.0669291338582676
20
1.4811023622047244
40
0.0068897637795276
0
CIRCLE
8
BLACK
10
1.9669291338582677
20
1.3811023622047245
40
0.0068897637795276
0
CIRCLE
8
BLACK
10
2.0669291338582676
20
1.3811023622047245
40
0.0068897637795276
0
CIRCLE
8
BLACK
10
1.9669291338582677
20
1.2811023622047244
40
0.0068897637795276
0
CIRCLE
8
BLACK
10
2.0669291338582676
20
1.2811023622047244
40
0.0068897637795276
0
CIRCLE
8
BLACK
10
1.9669291338582677
20
1.1811023622047243
40
0.0068897637795276
0
CIRCLE
8
BLACK
10
2.0669291338582676
20
1.1811023622047243
40
0.0068897637795276
0
CIRCLE
8
BLACK
10
1.9669291338582677
20
1.0811023622047244
40
0.0068897637795276
0
CIRCLE
8
BLACK
10
2.0669291338582676
20
1.0811023622047244
40
0.0068897637795276
0
CIRCLE
8
BLACK
10
1.9669291338582677
20
0.9811023622047244
40
0.0068897637795276
0
CIRCLE
8
BLACK
10
2.0669291338582676
20
0.9811023622047244
40
0.0068897637795276
0
CIRCLE
8
BLACK
10
1.9669291338582677
20
0.8811023622047244
40
0.0068897637795276
0
CIRCLE
8
BLACK
10
2.0669291338582676
20
0.8811023622047244
40
0.0068897637795276
0
CIRCLE
8
BLACK
10
1.905511811023622
20
2.
40
0.0068897637795276
0
CIRCLE
8
BLACK
10
1.9331867716535434
20
2.0668132283464566
40
0.0068897637795276
0
CIRCLE
8
BLACK
10
1.9331867716535434
20
1.9331867716535434
40
0.0068897637795276
0
CIRCLE
8
BLACK
10
2.
20
2.0944881889763778
40
0.0068897637795276
0
CIRCLE
8
BLACK
10
2.
20
2.
40
0.0068897637795276
0
CIRCLE
8
BLACK
10
2.
20
1.905511811023622
40
0.0068897637795276
0
CIRCLE
8
BLACK
10
2.0668132283464566
20
2.0668132283464566
40
0.0068897637795276
0
CIRCLE
8
BLACK
10
2.0668132283464566
20
1.9331867716535434
40
0.0068897637795276
0
CIRCLE
8
BLACK
10
2.0944881889763778
20
2.
40
0.0068897637795276
0
CIRCLE
8
BLACK
10
1.0523622047244094
20
0.4818897637795275
40
0.0068897637795276
0
CIRCLE
8
BLACK
10
1.1523622047244095
20
0.4818897637795275
40
0.0068897637795276
0
CIRCLE
8
BLACK
10
1.0523622047244094
20
0.3818897637795275
40
0.0068897637795276
0
CIRCLE
8
BLACK
10
1.1523622047244095
20
0.3818897637795275
40
0.0068897637795276
0
CIRCLE
8
BLACK
10
1.0523622047244094
20
0.2818897637795276
40
0.0068897637795276
0
CIRCLE
8
BLACK
10
1.1523622047244095
20
0.2818897637795276
40
0.0068897637795276
0
CIRCLE
8
BLACK
10
0.4346456692913386
20
0.879527559055118
40
0.0068897637795276
0
CIRCLE
8
BLACK
10
0.3346456692913386
20
0.879527559055118
40
0.0068897637795276
0
CIRCLE
8
BLACK
10
0.4346456692913386
20
0.9795275590551181
40
0.0068897637795276
0
CIRCLE
8
BLACK
10
0.3346456692913386
20
0.9795275590551181
40
0.0068897637795276
0
CIRCLE
8
BLACK
10
0.4346456692913386
20
1.0795275590551181
40
0.0068897637795276
0
CIRCLE
8
BLACK
10
0.3346456692913386
20
1.0795275590551181
40
0.0068897637795276
0
CIRCLE
8
BLACK
10
0.4346456692913386
20
1.1795275590551182
40
0.0068897637795276
0
CIRCLE
8
BLACK
10
0.3346456692913386
20
1.1795275590551182
40
0.0068897637795276
0
CIRCLE
8
BLACK
10
0.4346456692913386
20
1.2795275590551181
40
0.0068897637795276
0
CIRCLE
8
BLACK
10
0.3346456692913386
20
1.2795275590551181
40
0.0068897637795276
0
CIRCLE
8
BLACK
10
0.4346456692913386
20
1.3795275590551181
40
0.0068897637795276
0
CIRCLE
8
BLACK
10
0.3346456692913386
20
1.3795275590551181
40
0.0068897637795276
0
CIRCLE
8
BLACK
10
0.4346456692913386
20
1.479527559055118
40
0.0068897637795276
0
CIRCLE
8
BLACK
10
0.3346456692913386
20
1.479527559055118
40
0.0068897637795276
0
CIRCLE
8
BLACK
10
0.4346456692913386
20
1.5795275590551181
40
0.0068897637795276
0
CIRCLE
8
BLACK
10
0.3346456692913386
20
1.5795275590551181
40
0.0068897637795276
0
CIRCLE
8
BLACK
10
0.4346456692913386
20
1.679527559055118
40
0.0068897637795276
0
CIRCLE
8
BLACK
10
0.3346456692913386
20
1.679527559055118
40
0.0068897637795276
0
CIRCLE
8
BLACK
10
0.4346456692913386
20
1.7795275590551181
40
0.0068897637795276
0
CIRCLE
8
BLACK
10
0.3346456692913386
20
1.7795275590551181
40
0.0068897637795276
0
CIRCLE
8
BLACK
10
1.5816929133858266
20
1.5383858267716535
40
0.0068897637795276
0
CIRCLE
8
BLACK
10
1.4816929133858268
20
1.5383858267716535
40
0.0068897637795276
0
CIRCLE
8
BLACK
10
0.305511811023622
20
2.
40
0.0068897637795276
0
CIRCLE
8
BLACK
10
0.3331867716535433
20
2.0668132283464566
40
0.0068897637795276
0
CIRCLE
8
BLACK
10
0.3331867716535433
20
1.9331867716535434
40
0.0068897637795276
0
CIRCLE
8
BLACK
10
0.4
20
2.0944881889763778
40
0.0068897637795276
0
CIRCLE
8
BLACK
10
0.4
20
2.
40
0.0068897637795276
0
CIRCLE
8
BLACK
10
0.4
20
1.905511811023622
40
0.0068897637795276
0
CIRCLE
8
BLACK
10
0.4668132283464567
20
2.0668132283464566
40
0.0068897637795276
0
CIRCLE
8
BLACK
10
0.4668132283464567
20
1.9331867716535434
40
0.0068897637795276
0
CIRCLE
8
BLACK
10
0.4944881889763779
20
2.
40
0.0068897637795276
0
CIRCLE
8
BLACK
10
0.6765748031496063
20
1.7838582677165353
40
0.0068897637795276
0
CIRCLE
8
BLACK
10
0.6765748031496063
20
1.8838582677165354
40
0.0068897637795276
0
CIRCLE
8
BLACK
10
0.7765748031496063
20
1.7838582677165353
40
0.0068897637795276
0
CIRCLE
8
BLACK
10
0.7765748031496063
20
1.8838582677165354
40
0.0068897637795276
0
CIRCLE
8
BLACK
10
0.8765748031496062
20
1.7838582677165353
40
0.0068897637795276
0
CIRCLE
8
BLACK
10
0.8765748031496062
20
1.8838582677165354
40
0.0068897637795276
0
CIRCLE
8
BLACK
10
0.9765748031496063
20
1.7838582677165353
40
0.0068897637795276
0
CIRCLE
8
BLACK
10
0.9765748031496063
20
1.8838582677165354
40
0.0068897637795276
0
CIRCLE
8
BLACK
10
1.0765748031496063
20
1.7838582677165353
40
0.0068897637795276
0
CIRCLE
8
BLACK
10
1.0765748031496063
20
1.8838582677165354
40
0.0068897637795276
0
CIRCLE
8
BLACK
10
1.1765748031496062
20
1.7838582677165353
40
0.0068897637795276
0
CIRCLE
8
BLACK
10
1.1765748031496062
20
1.8838582677165354
40
0.0068897637795276
0
CIRCLE
8
BLACK
10
1.2765748031496063
20
1.7838582677165353
40
0.0068897637795276
0
CIRCLE
8
BLACK
10
1.2765748031496063
20
1.8838582677165354
40
0.0068897637795276
0
CIRCLE
8
BLACK
10
1.3765748031496063
20
1.7838582677165353
40
0.0068897637795276
0
CIRCLE
8
BLACK
10
1.3765748031496063
20
1.8838582677165354
40
0.0068897637795276
0
CIRCLE
8
BLACK
10
1.4765748031496062
20
1.7838582677165353
40
0.0068897637795276
0
CIRCLE
8
BLACK
10
1.4765748031496062
20
1.8838582677165354
40
0.0068897637795276
0
CIRCLE
8
BLACK
10
1.5765748031496063
20
1.7838582677165353
40
0.0068897637795276
0
CIRCLE
8
BLACK
10
1.5765748031496063
20
1.8838582677165354
40
0.0068897637795276
0
CIRCLE
8
BLACK
10
1.6765748031496062
20
1.7838582677165353
40
0.0068897637795276
0
CIRCLE
8
BLACK
10
1.6765748031496062
20
1.8838582677165354
40
0.0068897637795276
0
CIRCLE
8
BLACK
10
1.7765748031496063
20
1.7838582677165353
40
0.0068897637795276
0
CIRCLE
8
BLACK
10
1.7765748031496063
20
1.8838582677165354
40
0.0068897637795276
0
CIRCLE
8
BLACK
10
0.8854330708661418
20
0.4454724409448819
40
0.0068897637795276
0
CIRCLE
8
BLACK
10
0.6578740157480315
20
0.4454724409448819
40
0.0068897637795276
0
LINE
8
BLACK
6
CONTINUOUS
10
0.9300223228346457
20
0.3178802362204725
11
0.9308203149606299
21
0.3208584645669291
0
LINE
8
BLACK
6
CONTINUOUS
10
0.9308203149606299
20
0.3208584645669291
11
0.9323619685039369
21
0.3235286614173228
0
LINE
8
BLACK
6
CONTINUOUS
10
0.9323619685039369
20
0.3235286614173228
11
0.9345422047244094
21
0.3257088976377953
0
LINE
8
BLACK
6
CONTINUOUS
10
0.9345422047244094
20
0.3257088976377953
11
0.9372124015748031
21
0.3272505511811024
0
LINE
8
BLACK
6
CONTINUOUS
10
0.9372124015748031
20
0.3272505511811024
11
0.9401906299212598
21
0.3280485433070866
0
LINE
8
BLACK
6
CONTINUOUS
10
0.9401906299212598
20
0.3280485433070866
11
0.943273937007874
21
0.3280485433070866
0
LINE
8
BLACK
6
CONTINUOUS
10
0.943273937007874
20
0.3280485433070866
11
0.9462521653543307
21
0.3272505511811024
0
LINE
8
BLACK
6
CONTINUOUS
10
0.9462521653543307
20
0.3272505511811024
11
0.9489223622047244
21
0.3257088976377953
0
LINE
8
BLACK
6
CONTINUOUS
10
0.9489223622047244
20
0.3257088976377953
11
0.9511025984251968
21
0.3235286614173228
0
LINE
8
BLACK
6
CONTINUOUS
10
0.9511025984251968
20
0.3235286614173228
11
0.9526442519685039
21
0.3208584645669291
0
LINE
8
BLACK
6
CONTINUOUS
10
0.9526442519685039
20
0.3208584645669291
11
0.9534422440944882
21
0.3178802362204725
0
LINE
8
BLACK
6
CONTINUOUS
10
0.9534422440944882
20
0.3178802362204725
11
0.9535433070866142
21
0.3163385826771654
0
LINE
8
BLACK
6
CONTINUOUS
10
0.9535433070866142
20
0.3163385826771654
11
0.9535433070866142
21
0.2848425196850394
0
LINE
8
BLACK
6
CONTINUOUS
10
0.9535433070866142
20
0.2848425196850394
11
0.9534422440944882
21
0.2833008661417323
0
LINE
8
BLACK
6
CONTINUOUS
10
0.9534422440944882
20
0.2833008661417323
11
0.9526442519685039
21
0.2803226377952756
0
LINE
8
BLACK
6
CONTINUOUS
10
0.9526442519685039
20
0.2803226377952756
11
0.9511025984251968
21
0.2776524409448819
0
LINE
8
BLACK
6
CONTINUOUS
10
0.9511025984251968
20
0.2776524409448819
11
0.9489223622047244
21
0.2754722047244094
0
LINE
8
BLACK
6
CONTINUOUS
10
0.9489223622047244
20
0.2754722047244094
11
0.9462521653543307
21
0.2739305511811024
0
LINE
8
BLACK
6
CONTINUOUS
10
0.9462521653543307
20
0.2739305511811024
11
0.943273937007874
21
0.2731325590551181
0
LINE
8
BLACK
6
CONTINUOUS
10
0.943273937007874
20
0.2731325590551181
11
0.9401906299212598
21
0.2731325590551181
0
LINE
8
BLACK
6
CONTINUOUS
10
0.9401906299212598
20
0.2731325590551181
11
0.9372124015748031
21
0.2739305511811024
0
LINE
8
BLACK
6
CONTINUOUS
10
0.9372124015748031
20
0.2739305511811024
11
0.9345422047244094
21
0.2754722047244094
0
LINE
8
BLACK
6
CONTINUOUS
10
0.9345422047244094
20
0.2754722047244094
11
0.9323619685039369
21
0.2776524409448819
0
LINE
8
BLACK
6
CONTINUOUS
10
0.9323619685039369
20
0.2776524409448819
11
0.9308203149606299
21
0.2803226377952756
0
LINE
8
BLACK
6
CONTINUOUS
10
0.9308203149606299
20
0.2803226377952756
11
0.9300223228346457
21
0.2833008661417323
0
LINE
8
BLACK
6
CONTINUOUS
10
0.9300223228346457
20
0.2833008661417323
11
0.9299212598425196
21
0.2848425196850394
0
LINE
8
BLACK
6
CONTINUOUS
10
0.9299212598425196
20
0.2848425196850394
11
0.9299212598425196
21
0.3163385826771654
0
LINE
8
BLACK
6
CONTINUOUS
10
0.9299212598425196
20
0.3163385826771654
11
0.9300223228346457
21
0.3178802362204725
0
LINE
8
BLACK
6
CONTINUOUS
10
0.5898648425196851
20
0.3178802362204725
11
0.5906628346456693
21
0.3208584645669291
0
LINE
8
BLACK
6
CONTINUOUS
10
0.5906628346456693
20
0.3208584645669291
11
0.5922044881889764
21
0.3235286614173228
0
LINE
8
BLACK
6
CONTINUOUS
10
0.5922044881889764
20
0.3235286614173228
11
0.5943847244094488
21
0.3257088976377953
0
LINE
8
BLACK
6
CONTINUOUS
10
0.5943847244094488
20
0.3257088976377953
11
0.5970549212598425
21
0.3272505511811024
0
LINE
8
BLACK
6
CONTINUOUS
10
0.5970549212598425
20
0.3272505511811024
11
0.6000331496062992
21
0.3280485433070866
0
LINE
8
BLACK
6
CONTINUOUS
10
0.6000331496062992
20
0.3280485433070866
11
0.6031164566929134
21
0.3280485433070866
0
LINE
8
BLACK
6
CONTINUOUS
10
0.6031164566929134
20
0.3280485433070866
11
0.60609468503937
21
0.3272505511811024
0
LINE
8
BLACK
6
CONTINUOUS
10
0.60609468503937
20
0.3272505511811024
11
0.6087648818897637
21
0.3257088976377953
0
LINE
8
BLACK
6
CONTINUOUS
10
0.6087648818897637
20
0.3257088976377953
11
0.6109451181102362
21
0.3235286614173228
0
LINE
8
BLACK
6
CONTINUOUS
10
0.6109451181102362
20
0.3235286614173228
11
0.6124867716535433
21
0.3208584645669291
0
LINE
8
BLACK
6
CONTINUOUS
10
0.6124867716535433
20
0.3208584645669291
11
0.6132847637795276
21
0.3178802362204725
0
LINE
8
BLACK
6
CONTINUOUS
10
0.6132847637795276
20
0.3178802362204725
11
0.6133858267716535
21
0.3163385826771654
0
LINE
8
BLACK
6
CONTINUOUS
10
0.6133858267716535
20
0.3163385826771654
11
0.6133858267716535
21
0.2848425196850394
0
LINE
8
BLACK
6
CONTINUOUS
10
0.6133858267716535
20
0.2848425196850394
11
0.6132847637795276
21
0.2833008661417323
0
LINE
8
BLACK
6
CONTINUOUS
10
0.6132847637795276
20
0.2833008661417323
11
0.6124867716535433
21
0.2803226377952756
0
LINE
8
BLACK
6
CONTINUOUS
10
0.6124867716535433
20
0.2803226377952756
11
0.6109451181102362
21
0.2776524409448819
0
LINE
8
BLACK
6
CONTINUOUS
10
0.6109451181102362
20
0.2776524409448819
11
0.6087648818897637
21
0.2754722047244094
0
LINE
8
BLACK
6
CONTINUOUS
10
0.6087648818897637
20
0.2754722047244094
11
0.60609468503937
21
0.2739305511811024
0
LINE
8
BLACK
6
CONTINUOUS
10
0.60609468503937
20
0.2739305511811024
11
0.6031164566929134
21
0.2731325590551181
0
LINE
8
BLACK
6
CONTINUOUS
10
0.6031164566929134
20
0.2731325590551181
11
0.6000331496062992
21
0.2731325590551181
0
LINE
8
BLACK
6
CONTINUOUS
10
0.6000331496062992
20
0.2731325590551181
11
0.5970549212598425
21
0.2739305511811024
0
LINE
8
BLACK
6
CONTINUOUS
10
0.5970549212598425
20
0.2739305511811024
11
0.5943847244094488
21
0.2754722047244094
0
LINE
8
BLACK
6
CONTINUOUS
10
0.5943847244094488
20
0.2754722047244094
11
0.5922044881889764
21
0.2776524409448819
0
LINE
8
BLACK
6
CONTINUOUS
10
0.5922044881889764
20
0.2776524409448819
11
0.5906628346456693
21
0.2803226377952756
0
LINE
8
BLACK
6
CONTINUOUS
10
0.5906628346456693
20
0.2803226377952756
11
0.5898648425196851
21
0.2833008661417323
0
LINE
8
BLACK
6
CONTINUOUS
10
0.5898648425196851
20
0.2833008661417323
11
0.5897637795275591
21
0.2848425196850394
0
LINE
8
BLACK
6
CONTINUOUS
10
0.5897637795275591
20
0.2848425196850394
11
0.5897637795275591
21
0.3163385826771654
0
LINE
8
BLACK
6
CONTINUOUS
10
0.5897637795275591
20
0.3163385826771654
11
0.5898648425196851
21
0.3178802362204725
0
LINE
8
BLACK
6
CONTINUOUS
10
0.9300223228346457
20
0.4883526771653543
11
0.9308203149606299
21
0.491330905511811
0
LINE
8
BLACK
6
CONTINUOUS
10
0.9308203149606299
20
0.491330905511811
11
0.9323619685039369
21
0.4940011023622047
0
LINE
8
BLACK
6
CONTINUOUS
10
0.9323619685039369
20
0.4940011023622047
11
0.9345422047244094
21
0.4961813385826772
0
LINE
8
BLACK
6
CONTINUOUS
10
0.9345422047244094
20
0.4961813385826772
11
0.9372124015748031
21
0.4977229921259843
0
LINE
8
BLACK
6
CONTINUOUS
10
0.9372124015748031
20
0.4977229921259843
11
0.9401906299212598
21
0.4985209842519685
0
LINE
8
BLACK
6
CONTINUOUS
10
0.9401906299212598
20
0.4985209842519685
11
0.943273937007874
21
0.4985209842519685
0
LINE
8
BLACK
6
CONTINUOUS
10
0.943273937007874
20
0.4985209842519685
11
0.9462521653543307
21
0.4977229921259843
0
LINE
8
BLACK
6
CONTINUOUS
10
0.9462521653543307
20
0.4977229921259843
11
0.9489223622047244
21
0.4961813385826772
0
LINE
8
BLACK
6
CONTINUOUS
10
0.9489223622047244
20
0.4961813385826772
11
0.9511025984251968
21
0.4940011023622047
0
LINE
8
BLACK
6
CONTINUOUS
10
0.9511025984251968
20
0.4940011023622047
11
0.9526442519685039
21
0.491330905511811
0
LINE
8
BLACK
6
CONTINUOUS
10
0.9526442519685039
20
0.491330905511811
11
0.9534422440944882
21
0.4883526771653543
0
LINE
8
BLACK
6
CONTINUOUS
10
0.9534422440944882
20
0.4883526771653543
11
0.9535433070866142
21
0.4868110236220473
0
LINE
8
BLACK
6
CONTINUOUS
10
0.9535433070866142
20
0.4868110236220473
11
0.9535433070866142
21
0.443503937007874
0
LINE
8
BLACK
6
CONTINUOUS
10
0.9535433070866142
20
0.443503937007874
11
0.9534422440944882
21
0.4419622834645669
0
LINE
8
BLACK
6
CONTINUOUS
10
0.9534422440944882
20
0.4419622834645669
11
0.9526442519685039
21
0.4389840551181102
0
LINE
8
BLACK
6
CONTINUOUS
10
0.9526442519685039
20
0.4389840551181102
11
0.9511025984251968
21
0.4363138582677165
0
LINE
8
BLACK
6
CONTINUOUS
10
0.9511025984251968
20
0.4363138582677165
11
0.9489223622047244
21
0.4341336220472441
0
LINE
8
BLACK
6
CONTINUOUS
10
0.9489223622047244
20
0.4341336220472441
11
0.9462521653543307
21
0.432591968503937
0
LINE
8
BLACK
6
CONTINUOUS
10
0.9462521653543307
20
0.432591968503937
11
0.943273937007874
21
0.4317939763779527
0
LINE
8
BLACK
6
CONTINUOUS
10
0.943273937007874
20
0.4317939763779527
11
0.9401906299212598
21
0.4317939763779527
0
LINE
8
BLACK
6
CONTINUOUS
10
0.9401906299212598
20
0.4317939763779527
11
0.9372124015748031
21
0.432591968503937
0
LINE
8
BLACK
6
CONTINUOUS
10
0.9372124015748031
20
0.432591968503937
11
0.9345422047244094
21
0.4341336220472441
0
LINE
8
BLACK
6
CONTINUOUS
10
0.9345422047244094
20
0.4341336220472441
11
0.9323619685039369
21
0.4363138582677165
0
LINE
8
BLACK
6
CONTINUOUS
10
0.9323619685039369
20
0.4363138582677165
11
0.9308203149606299
21
0.4389840551181102
0
LINE
8
BLACK
6
CONTINUOUS
10
0.9308203149606299
20
0.4389840551181102
11
0.9300223228346457
21
0.4419622834645669
0
LINE
8
BLACK
6
CONTINUOUS
10
0.9300223228346457
20
0.4419622834645669
11
0.9299212598425196
21
0.443503937007874
0
LINE
8
BLACK
6
CONTINUOUS
10
0.9299212598425196
20
0.443503937007874
11
0.9299212598425196
21
0.4868110236220473
0
LINE
8
BLACK
6
CONTINUOUS
10
0.9299212598425196
20
0.4868110236220473
11
0.9300223228346457
21
0.4883526771653543
0
LINE
8
BLACK
6
CONTINUOUS
10
0.5898648425196851
20
0.4883526771653543
11
0.5906628346456693
21
0.491330905511811
0
LINE
8
BLACK
6
CONTINUOUS
10
0.5906628346456693
20
0.491330905511811
11
0.5922044881889764
21
0.4940011023622047
0
LINE
8
BLACK
6
CONTINUOUS
10
0.5922044881889764
20
0.4940011023622047
11
0.5943847244094488
21
0.4961813385826772
0
LINE
8
BLACK
6
CONTINUOUS
10
0.5943847244094488
20
0.4961813385826772
11
0.5970549212598425
21
0.4977229921259843
0
LINE
8
BLACK
6
CONTINUOUS
10
0.5970549212598425
20
0.4977229921259843
11
0.6000331496062992
21
0.4985209842519685
0
LINE
8
BLACK
6
CONTINUOUS
10
0.6000331496062992
20
0.4985209842519685
11
0.6031164566929134
21
0.4985209842519685
0
LINE
8
BLACK
6
CONTINUOUS
10
0.6031164566929134
20
0.4985209842519685
11
0.60609468503937
21
0.4977229921259843
0
LINE
8
BLACK
6
CONTINUOUS
10
0.60609468503937
20
0.4977229921259843
11
0.6087648818897637
21
0.4961813385826772
0
LINE
8
BLACK
6
CONTINUOUS
10
0.6087648818897637
20
0.4961813385826772
11
0.6109451181102362
21
0.4940011023622047
0
LINE
8
BLACK
6
CONTINUOUS
10
0.6109451181102362
20
0.4940011023622047
11
0.6124867716535433
21
0.491330905511811
0
LINE
8
BLACK
6
CONTINUOUS
10
0.6124867716535433
20
0.491330905511811
11
0.6132847637795276
21
0.4883526771653543
0
LINE
8
BLACK
6
CONTINUOUS
10
0.6132847637795276
20
0.4883526771653543
11
0.6133858267716535
21
0.4868110236220473
0
LINE
8
BLACK
6
CONTINUOUS
10
0.6133858267716535
20
0.4868110236220473
11
0.6133858267716535
21
0.443503937007874
0
LINE
8
BLACK
6
CONTINUOUS
10
0.6133858267716535
20
0.443503937007874
11
0.6132847637795276
21
0.4419622834645669
0
LINE
8
BLACK
6
CONTINUOUS
10
0.6132847637795276
20
0.4419622834645669
11
0.6124867716535433
21
0.4389840551181102
0
LINE
8
BLACK
6
CONTINUOUS
10
0.6124867716535433
20
0.4389840551181102
11
0.6109451181102362
21
0.4363138582677165
0
LINE
8
BLACK
6
CONTINUOUS
10
0.6109451181102362
20
0.4363138582677165
11
0.6087648818897637
21
0.4341336220472441
0
LINE
8
BLACK
6
CONTINUOUS
10
0.6087648818897637
20
0.4341336220472441
11
0.60609468503937
21
0.432591968503937
0
LINE
8
BLACK
6
CONTINUOUS
10
0.60609468503937
20
0.432591968503937
11
0.6031164566929134
21
0.4317939763779527
0
LINE
8
BLACK
6
CONTINUOUS
10
0.6031164566929134
20
0.4317939763779527
11
0.6000331496062992
21
0.4317939763779527
0
LINE
8
BLACK
6
CONTINUOUS
10
0.6000331496062992
20
0.4317939763779527
11
0.5970549212598425
21
0.432591968503937
0
LINE
8
BLACK
6
CONTINUOUS
10
0.5970549212598425
20
0.432591968503937
11
0.5943847244094488
21
0.4341336220472441
0
LINE
8
BLACK
6
CONTINUOUS
10
0.5943847244094488
20
0.4341336220472441
11
0.5922044881889764
21
0.4363138582677165
0
LINE
8
BLACK
6
CONTINUOUS
10
0.5922044881889764
20
0.4363138582677165
11
0.5906628346456693
21
0.4389840551181102
0
LINE
8
BLACK
6
CONTINUOUS
10
0.5906628346456693
20
0.4389840551181102
11
0.5898648425196851
21
0.4419622834645669
0
LINE
8
BLACK
6
CONTINUOUS
10
0.5898648425196851
20
0.4419622834645669
11
0.5897637795275591
21
0.443503937007874
0
LINE
8
BLACK
6
CONTINUOUS
10
0.5897637795275591
20
0.443503937007874
11
0.5897637795275591
21
0.4868110236220473
0
LINE
8
BLACK
6
CONTINUOUS
10
0.5897637795275591
20
0.4868110236220473
11
0.5898648425196851
21
0.4883526771653543
0
LINE
8
BLACK
6
CONTINUOUS
10
1.4899773622047243
20
0.6400348031496063
11
1.488546968503937
21
0.6328437007874016
0
LINE
8
BLACK
6
CONTINUOUS
10
1.488546968503937
20
0.6328437007874016
11
1.4857411417322834
21
0.6260698031496063
0
LINE
8
BLACK
6
CONTINUOUS
10
1.4857411417322834
20
0.6260698031496063
11
1.4816677165354331
21
0.6199734645669291
0
LINE
8
BLACK
6
CONTINUOUS
10
1.4816677165354331
20
0.6199734645669291
11
1.4764832283464566
21
0.6147889763779527
0
LINE
8
BLACK
6
CONTINUOUS
10
1.4764832283464566
20
0.6147889763779527
11
1.4703868897637795
21
0.6107155511811023
0
LINE
8
BLACK
6
CONTINUOUS
10
1.4703868897637795
20
0.6107155511811023
11
1.4636129921259842
21
0.6079097244094488
0
LINE
8
BLACK
6
CONTINUOUS
10
1.4636129921259842
20
0.6079097244094488
11
1.4564218897637795
21
0.6064793307086614
0
LINE
8
BLACK
6
CONTINUOUS
10
1.4564218897637795
20
0.6064793307086614
11
1.4490899212598425
21
0.6064793307086614
0
LINE
8
BLACK
6
CONTINUOUS
10
1.4490899212598425
20
0.6064793307086614
11
1.4418988188976378
21
0.6079097244094488
0
LINE
8
BLACK
6
CONTINUOUS
10
1.4418988188976378
20
0.6079097244094488
11
1.4351249212598425
21
0.6107155511811023
0
LINE
8
BLACK
6
CONTINUOUS
10
1.4351249212598425
20
0.6107155511811023
11
1.4290285826771654
21
0.6147889763779527
0
LINE
8
BLACK
6
CONTINUOUS
10
1.4290285826771654
20
0.6147889763779527
11
1.4238440944881889
21
0.6199734645669291
0
LINE
8
BLACK
6
CONTINUOUS
10
1.4238440944881889
20
0.6199734645669291
11
1.4197706692913385
21
0.6260698031496063
0
LINE
8
BLACK
6
CONTINUOUS
10
1.4197706692913385
20
0.6260698031496063
11
1.416964842519685
21
0.6328437007874016
0
LINE
8
BLACK
6
CONTINUOUS
10
1.416964842519685
20
0.6328437007874016
11
1.4155344488188977
21
0.6400348031496063
0
LINE
8
BLACK
6
CONTINUOUS
10
1.4155344488188977
20
0.6400348031496063
11
1.4153543307086613
21
0.6437007874015748
0
LINE
8
BLACK
6
CONTINUOUS
10
1.4153543307086613
20
0.6437007874015748
11
1.4153543307086613
21
0.6633858267716535
0
LINE
8
BLACK
6
CONTINUOUS
10
1.4153543307086613
20
0.6633858267716535
11
1.4155344488188977
21
0.667051811023622
0
LINE
8
BLACK
6
CONTINUOUS
10
1.4155344488188977
20
0.667051811023622
11
1.416964842519685
21
0.6742429133858268
0
LINE
8
BLACK
6
CONTINUOUS
10
1.416964842519685
20
0.6742429133858268
11
1.4197706692913385
21
0.681016811023622
0
LINE
8
BLACK
6
CONTINUOUS
10
1.4197706692913385
20
0.681016811023622
11
1.4238440944881889
21
0.6871131496062992
0
LINE
8
BLACK
6
CONTINUOUS
10
1.4238440944881889
20
0.6871131496062992
11
1.4290285826771654
21
0.6922976377952755
0
LINE
8
BLACK
6
CONTINUOUS
10
1.4290285826771654
20
0.6922976377952755
11
1.4351249212598425
21
0.6963710629921259
0
LINE
8
BLACK
6
CONTINUOUS
10
1.4351249212598425
20
0.6963710629921259
11
1.4418988188976378
21
0.6991768897637796
0
LINE
8
BLACK
6
CONTINUOUS
10
1.4418988188976378
20
0.6991768897637796
11
1.4490899212598425
21
0.7006072834645669
0
LINE
8
BLACK
6
CONTINUOUS
10
1.4490899212598425
20
0.7006072834645669
11
1.4564218897637795
21
0.7006072834645669
0
LINE
8
BLACK
6
CONTINUOUS
10
1.4564218897637795
20
0.7006072834645669
11
1.4636129921259842
21
0.6991768897637796
0
LINE
8
BLACK
6
CONTINUOUS
10
1.4636129921259842
20
0.6991768897637796
11
1.4703868897637795
21
0.6963710629921259
0
LINE
8
BLACK
6
CONTINUOUS
10
1.4703868897637795
20
0.6963710629921259
11
1.4764832283464566
21
0.6922976377952755
0
LINE
8
BLACK
6
CONTINUOUS
10
1.4764832283464566
20
0.6922976377952755
11
1.4816677165354331
21
0.6871131496062992
0
LINE
8
BLACK
6
CONTINUOUS
10
1.4816677165354331
20
0.6871131496062992
11
1.4857411417322834
21
0.681016811023622
0
LINE
8
BLACK
6
CONTINUOUS
10
1.4857411417322834
20
0.681016811023622
11
1.488546968503937
21
0.6742429133858268
0
LINE
8
BLACK
6
CONTINUOUS
10
1.488546968503937
20
0.6742429133858268
11
1.4899773622047243
21
0.667051811023622
0
LINE
8
BLACK
6
CONTINUOUS
10
1.4899773622047243
20
0.667051811023622
11
1.4901574803149606
21
0.6633858267716535
0
LINE
8
BLACK
6
CONTINUOUS
10
1.4901574803149606
20
0.6633858267716535
11
1.4901574803149606
21
0.6437007874015748
0
LINE
8
BLACK
6
CONTINUOUS
10
1.4901574803149606
20
0.6437007874015748
11
1.4899773622047243
21
0.6400348031496063
0
LINE
8
BLACK
6
CONTINUOUS
10
1.6202588582677164
20
0.667051811023622
11
1.621689251968504
21
0.6742429133858268
0
LINE
8
BLACK
6
CONTINUOUS
10
1.621689251968504
20
0.6742429133858268
11
1.6244950787401575
21
0.681016811023622
0
LINE
8
BLACK
6
CONTINUOUS
10
1.6244950787401575
20
0.681016811023622
11
1.6285685039370079
21
0.6871131496062992
0
LINE
8
BLACK
6
CONTINUOUS
10
1.6285685039370079
20
0.6871131496062992
11
1.6337529921259841
21
0.6922976377952755
0
LINE
8
BLACK
6
CONTINUOUS
10
1.6337529921259841
20
0.6922976377952755
11
1.6398493307086615
21
0.6963710629921259
0
LINE
8
BLACK
6
CONTINUOUS
10
1.6398493307086615
20
0.6963710629921259
11
1.6466232283464566
21
0.6991768897637796
0
LINE
8
BLACK
6
CONTINUOUS
10
1.6466232283464566
20
0.6991768897637796
11
1.6538143307086615
21
0.7006072834645669
0
LINE
8
BLACK
6
CONTINUOUS
10
1.6538143307086615
20
0.7006072834645669
11
1.6611462992125985
21
0.7006072834645669
0
LINE
8
BLACK
6
CONTINUOUS
10
1.6611462992125985
20
0.7006072834645669
11
1.6683374015748031
21
0.6991768897637796
0
LINE
8
BLACK
6
CONTINUOUS
10
1.6683374015748031
20
0.6991768897637796
11
1.6751112992125985
21
0.6963710629921259
0
LINE
8
BLACK
6
CONTINUOUS
10
1.6751112992125985
20
0.6963710629921259
11
1.6812076377952756
21
0.6922976377952755
0
LINE
8
BLACK
6
CONTINUOUS
10
1.6812076377952756
20
0.6922976377952755
11
1.686392125984252
21
0.6871131496062992
0
LINE
8
BLACK
6
CONTINUOUS
10
1.686392125984252
20
0.6871131496062992
11
1.6904655511811024
21
0.681016811023622
0
LINE
8
BLACK
6
CONTINUOUS
10
1.6904655511811024
20
0.681016811023622
11
1.693271377952756
21
0.6742429133858268
0
LINE
8
BLACK
6
CONTINUOUS
10
1.693271377952756
20
0.6742429133858268
11
1.6947017716535433
21
0.667051811023622
0
LINE
8
BLACK
6
CONTINUOUS
10
1.6947017716535433
20
0.667051811023622
11
1.6948818897637794
21
0.6633858267716535
0
LINE
8
BLACK
6
CONTINUOUS
10
1.6948818897637794
20
0.6633858267716535
11
1.6948818897637794
21
0.6437007874015748
0
LINE
8
BLACK
6
CONTINUOUS
10
1.6948818897637794
20
0.6437007874015748
11
1.6947017716535433
21
0.6400348031496063
0
LINE
8
BLACK
6
CONTINUOUS
10
1.6947017716535433
20
0.6400348031496063
11
1.693271377952756
21
0.6328437007874016
0
LINE
8
BLACK
6
CONTINUOUS
10
1.693271377952756
20
0.6328437007874016
11
1.6904655511811024
21
0.6260698031496063
0
LINE
8
BLACK
6
CONTINUOUS
10
1.6904655511811024
20
0.6260698031496063
11
1.686392125984252
21
0.6199734645669291
0
LINE
8
BLACK
6
CONTINUOUS
10
1.686392125984252
20
0.6199734645669291
11
1.6812076377952756
21
0.6147889763779527
0
LINE
8
BLACK
6
CONTINUOUS
10
1.6812076377952756
20
0.6147889763779527
11
1.6751112992125985
21
0.6107155511811023
0
LINE
8
BLACK
6
CONTINUOUS
10
1.6751112992125985
20
0.6107155511811023
11
1.6683374015748031
21
0.6079097244094488
0
LINE
8
BLACK
6
CONTINUOUS
10
1.6683374015748031
20
0.6079097244094488
11
1.6611462992125985
21
0.6064793307086614
0
LINE
8
BLACK
6
CONTINUOUS
10
1.6611462992125985
20
0.6064793307086614
11
1.6538143307086615
21
0.6064793307086614
0
LINE
8
BLACK
6
CONTINUOUS
10
1.6538143307086615
20
0.6064793307086614
11
1.6466232283464566
21
0.6079097244094488
0
LINE
8
BLACK
6
CONTINUOUS
10
1.6466232283464566
20
0.6079097244094488
11
1.6398493307086615
21
0.6107155511811023
0
LINE
8
BLACK
6
CONTINUOUS
10
1.6398493307086615
20
0.6107155511811023
11
1.6337529921259841
21
0.6147889763779527
0
LINE
8
BLACK
6
CONTINUOUS
10
1.6337529921259841
20
0.6147889763779527
11
1.6285685039370079
21
0.6199734645669291
0
LINE
8
BLACK
6
CONTINUOUS
10
1.6285685039370079
20
0.6199734645669291
11
1.6244950787401575
21
0.6260698031496063
0
LINE
8
BLACK
6
CONTINUOUS
10
1.6244950787401575
20
0.6260698031496063
11
1.621689251968504
21
0.6328437007874016
0
LINE
8
BLACK
6
CONTINUOUS
10
1.621689251968504
20
0.6328437007874016
11
1.6202588582677164
21
0.6400348031496063
0
LINE
8
BLACK
6
CONTINUOUS
10
1.6202588582677164
20
0.6400348031496063
11
1.6200787401574803
21
0.6437007874015748
0
LINE
8
BLACK
6
CONTINUOUS
10
1.6200787401574803
20
0.6437007874015748
11
1.6200787401574803
21
0.6633858267716535
0
LINE
8
BLACK
6
CONTINUOUS
10
1.6200787401574803
20
0.6633858267716535
11
1.6202588582677164
21
0.667051811023622
0
CIRCLE
8
BLACK
10
0.305511811023622
20
0.4
40
0.0068897637795276
0
CIRCLE
8
BLACK
10
0.3331867716535433
20
0.4668132283464567
40
0.0068897637795276
0
CIRCLE
8
BLACK
10
0.3331867716535433
20
0.3331867716535433
40
0.0068897637795276
0
CIRCLE
8
BLACK
10
0.4
20
0.4944881889763779
40
0.0068897637795276
0
CIRCLE
8
BLACK
10
0.4
20
0.4
40
0.0068897637795276
0
CIRCLE
8
BLACK
10
0.4
20
0.305511811023622
40
0.0068897637795276
0
CIRCLE
8
BLACK
10
0.4668132283464567
20
0.4668132283464567
40
0.0068897637795276
0
CIRCLE
8
BLACK
10
0.4668132283464567
20
0.3331867716535433
40
0.0068897637795276
0
CIRCLE
8
BLACK
10
0.4944881889763779
20
0.4
40
0.0068897637795276
0
CIRCLE
8
BLACK
10
1.905511811023622
20
0.4
40
0.0068897637795276
0
CIRCLE
8
BLACK
10
1.9331867716535434
20
0.4668132283464567
40
0.0068897637795276
0
CIRCLE
8
BLACK
10
1.9331867716535434
20
0.3331867716535433
40
0.0068897637795276
0
CIRCLE
8
BLACK
10
2.
20
0.4944881889763779
40
0.0068897637795276
0
CIRCLE
8
BLACK
10
2.
20
0.4
40
0.0068897637795276
0
CIRCLE
8
BLACK
10
2.
20
0.305511811023622
40
0.0068897637795276
0
CIRCLE
8
BLACK
10
2.0668132283464566
20
0.4668132283464567
40
0.0068897637795276
0
CIRCLE
8
BLACK
10
2.0668132283464566
20
0.3331867716535433
40
0.0068897637795276
0
CIRCLE
8
BLACK
10
2.0944881889763778
20
0.4
40
0.0068897637795276
0
CIRCLE
8
BLACK
10
1.5523622047244094
20
0.4858267716535433
40
0.0068897637795276
0
CIRCLE
8
BLACK
10
1.6523622047244093
20
0.4858267716535433
40
0.0068897637795276
0
CIRCLE
8
BLACK
10
1.5523622047244094
20
0.3858267716535433
40
0.0068897637795276
0
CIRCLE
8
BLACK
10
1.6523622047244093
20
0.3858267716535433
40
0.0068897637795276
0
CIRCLE
8
BLACK
10
1.5523622047244094
20
0.2858267716535433
40
0.0068897637795276
0
CIRCLE
8
BLACK
10
1.6523622047244093
20
0.2858267716535433
40
0.0068897637795276
0
CIRCLE
8
BLACK
10
1.2297244094488189
20
2.0980314960629922
40
0.0068897637795276
0
CIRCLE
8
BLACK
10
1.2297244094488189
20
1.9980314960629921
40
0.0068897637795276
0
CIRCLE
8
BLACK
10
1.1297244094488188
20
2.0980314960629922
40
0.0068897637795276
0
CIRCLE
8
BLACK
10
1.1297244094488188
20
1.9980314960629921
40
0.0068897637795276
0
CIRCLE
8
BLACK
10
1.0297244094488189
20
2.0980314960629922
40
0.0068897637795276
0
CIRCLE
8
BLACK
10
1.0297244094488189
20
1.9980314960629921
40
0.0068897637795276
0
CIRCLE
8
BLACK
10
0.9297244094488188
20
2.0980314960629922
40
0.0068897637795276
0
CIRCLE
8
BLACK
10
0.9297244094488188
20
1.9980314960629921
40
0.0068897637795276
0
CIRCLE
8
BLACK
10
0.8297244094488189
20
2.0980314960629922
40
0.0068897637795276
0
CIRCLE
8
BLACK
10
0.8297244094488189
20
1.9980314960629921
40
0.0068897637795276
0
CIRCLE
8
BLACK
10
1.9669291338582677
20
1.7811023622047244
40
0.0068897637795276
0
CIRCLE
8
BLACK
10
2.0669291338582676
20
1.7811023622047244
40
0.0068897637795276
0
CIRCLE
8
BLACK
10
1.9669291338582677
20
1.6811023622047243
40
0.0068897637795276
0
CIRCLE
8
BLACK
10
2.0669291338582676
20
1.6811023622047243
40
0.0068897637795276
0
CIRCLE
8
BLACK
10
1.9669291338582677
20
1.5811023622047244
40
0.0068897637795276
0
CIRCLE
8
BLACK
10
2.0669291338582676
20
1.5811023622047244
40
0.0068897637795276
0
CIRCLE
8
BLACK
10
1.9669291338582677
20
1.4811023622047244
40
0.0068897637795276
0
CIRCLE
8
BLACK
10
2.0669291338582676
20
1.4811023622047244
40
0.0068897637795276
0
CIRCLE
8
BLACK
10
1.9669291338582677
20
1.3811023622047245
40
0.0068897637795276
0
CIRCLE
8
BLACK
10
2.0669291338582676
20
1.3811023622047245
40
0.0068897637795276
0
CIRCLE
8
BLACK
10
1.9669291338582677
20
1.2811023622047244
40
0.0068897637795276
0
CIRCLE
8
BLACK
10
2.0669291338582676
20
1.2811023622047244
40
0.0068897637795276
0
CIRCLE
8
BLACK
10
1.9669291338582677
20
1.1811023622047243
40
0.0068897637795276
0
CIRCLE
8
BLACK
10
2.0669291338582676
20
1.1811023622047243
40
0.0068897637795276
0
CIRCLE
8
BLACK
10
1.9669291338582677
20
1.0811023622047244
40
0.0068897637795276
0
CIRCLE
8
BLACK
10
2.0669291338582676
20
1.0811023622047244
40
0.0068897637795276
0
CIRCLE
8
BLACK
10
1.9669291338582677
20
0.9811023622047244
40
0.0068897637795276
0
CIRCLE
8
BLACK
10
2.0669291338582676
20
0.9811023622047244
40
0.0068897637795276
0
CIRCLE
8
BLACK
10
1.9669291338582677
20
0.8811023622047244
40
0.0068897637795276
0
CIRCLE
8
BLACK
10
2.0669291338582676
20
0.8811023622047244
40
0.0068897637795276
0
CIRCLE
8
BLACK
10
1.905511811023622
20
2.
40
0.0068897637795276
0
CIRCLE
8
BLACK
10
1.9331867716535434
20
2.0668132283464566
40
0.0068897637795276
0
CIRCLE
8
BLACK
10
1.9331867716535434
20
1.9331867716535434
40
0.0068897637795276
0
CIRCLE
8
BLACK
10
2.
20
2.0944881889763778
40
0.0068897637795276
0
CIRCLE
8
BLACK
10
2.
20
2.
40
0.0068897637795276
0
CIRCLE
8
BLACK
10
2.
20
1.905511811023622
40
0.0068897637795276
0
CIRCLE
8
BLACK
10
2.0668132283464566
20
2.0668132283464566
40
0.0068897637795276
0
CIRCLE
8
BLACK
10
2.0668132283464566
20
1.9331867716535434
40
0.0068897637795276
0
CIRCLE
8
BLACK
10
2.0944881889763778
20
2.
40
0.0068897637795276
0
CIRCLE
8
BLACK
10
1.0523622047244094
20
0.4818897637795275
40
0.0068897637795276
0
CIRCLE
8
BLACK
10
1.1523622047244095
20
0.4818897637795275
40
0.0068897637795276
0
CIRCLE
8
BLACK
10
1.0523622047244094
20
0.3818897637795275
40
0.0068897637795276
0
CIRCLE
8
BLACK
10
1.1523622047244095
20
0.3818897637795275
40
0.0068897637795276
0
CIRCLE
8
BLACK
10
1.0523622047244094
20
0.2818897637795276
40
0.0068897637795276
0
CIRCLE
8
BLACK
10
1.1523622047244095
20
0.2818897637795276
40
0.0068897637795276
0
CIRCLE
8
BLACK
10
0.4346456692913386
20
0.879527559055118
40
0.0068897637795276
0
CIRCLE
8
BLACK
10
0.3346456692913386
20
0.879527559055118
40
0.0068897637795276
0
CIRCLE
8
BLACK
10
0.4346456692913386
20
0.9795275590551181
40
0.0068897637795276
0
CIRCLE
8
BLACK
10
0.3346456692913386
20
0.9795275590551181
40
0.0068897637795276
0
CIRCLE
8
BLACK
10
0.4346456692913386
20
1.0795275590551181
40
0.0068897637795276
0
CIRCLE
8
BLACK
10
0.3346456692913386
20
1.0795275590551181
40
0.0068897637795276
0
CIRCLE
8
BLACK
10
0.4346456692913386
20
1.1795275590551182
40
0.0068897637795276
0
CIRCLE
8
BLACK
10
0.3346456692913386
20
1.1795275590551182
40
0.0068897637795276
0
CIRCLE
8
BLACK
10
0.4346456692913386
20
1.2795275590551181
40
0.0068897637795276
0
CIRCLE
8
BLACK
10
0.3346456692913386
20
1.2795275590551181
40
0.0068897637795276
0
CIRCLE
8
BLACK
10
0.4346456692913386
20
1.3795275590551181
40
0.0068897637795276
0
CIRCLE
8
BLACK
10
0.3346456692913386
20
1.3795275590551181
40
0.0068897637795276
0
CIRCLE
8
BLACK
10
0.4346456692913386
20
1.479527559055118
40
0.0068897637795276
0
CIRCLE
8
BLACK
10
0.3346456692913386
20
1.479527559055118
40
0.0068897637795276
0
CIRCLE
8
BLACK
10
0.4346456692913386
20
1.5795275590551181
40
0.0068897637795276
0
CIRCLE
8
BLACK
10
0.3346456692913386
20
1.5795275590551181
40
0.0068897637795276
0
CIRCLE
8
BLACK
10
0.4346456692913386
20
1.679527559055118
40
0.0068897637795276
0
CIRCLE
8
BLACK
10
0.3346456692913386
20
1.679527559055118
40
0.0068897637795276
0
CIRCLE
8
BLACK
10
0.4346456692913386
20
1.7795275590551181
40
0.0068897637795276
0
CIRCLE
8
BLACK
10
0.3346456692913386
20
1.7795275590551181
40
0.0068897637795276
0
CIRCLE
8
BLACK
10
1.5816929133858266
20
1.5383858267716535
40
0.0068897637795276
0
CIRCLE
8
BLACK
10
1.4816929133858268
20
1.5383858267716535
40
0.0068897637795276
0
CIRCLE
8
BLACK
10
0.305511811023622
20
2.
40
0.0068897637795276
0
CIRCLE
8
BLACK
10
0.3331867716535433
20
2.0668132283464566
40
0.0068897637795276
0
CIRCLE
8
BLACK
10
0.3331867716535433
20
1.9331867716535434
40
0.0068897637795276
0
CIRCLE
8
BLACK
10
0.4
20
2.0944881889763778
40
0.0068897637795276
0
CIRCLE
8
BLACK
10
0.4
20
2.
40
0.0068897637795276
0
CIRCLE
8
BLACK
10
0.4
20
1.905511811023622
40
0.0068897637795276
0
CIRCLE
8
BLACK
10
0.4668132283464567
20
2.0668132283464566
40
0.0068897637795276
0
CIRCLE
8
BLACK
10
0.4668132283464567
20
1.9331867716535434
40
0.0068897637795276
0
CIRCLE
8
BLACK
10
0.4944881889763779
20
2.
40
0.0068897637795276
0
CIRCLE
8
BLACK
10
0.6765748031496063
20
1.7838582677165353
40
0.0068897637795276
0
CIRCLE
8
BLACK
10
0.6765748031496063
20
1.8838582677165354
40
0.0068897637795276
0
CIRCLE
8
BLACK
10
0.7765748031496063
20
1.7838582677165353
40
0.0068897637795276
0
CIRCLE
8
BLACK
10
0.7765748031496063
20
1.8838582677165354
40
0.0068897637795276
0
CIRCLE
8
BLACK
10
0.8765748031496062
20
1.7838582677165353
40
0.0068897637795276
0
CIRCLE
8
BLACK
10
0.8765748031496062
20
1.8838582677165354
40
0.0068897637795276
0
CIRCLE
8
BLACK
10
0.9765748031496063
20
1.7838582677165353
40
0.0068897637795276
0
CIRCLE
8
BLACK
10
0.9765748031496063
20
1.8838582677165354
40
0.0068897637795276
0
CIRCLE
8
BLACK
10
1.0765748031496063
20
1.7838582677165353
40
0.0068897637795276
0
CIRCLE
8
BLACK
10
1.0765748031496063
20
1.8838582677165354
40
0.0068897637795276
0
CIRCLE
8
BLACK
10
1.1765748031496062
20
1.7838582677165353
40
0.0068897637795276
0
CIRCLE
8
BLACK
10
1.1765748031496062
20
1.8838582677165354
40
0.0068897637795276
0
CIRCLE
8
BLACK
10
1.2765748031496063
20
1.7838582677165353
40
0.0068897637795276
0
CIRCLE
8
BLACK
10
1.2765748031496063
20
1.8838582677165354
40
0.0068897637795276
0
CIRCLE
8
BLACK
10
1.3765748031496063
20
1.7838582677165353
40
0.0068897637795276
0
CIRCLE
8
BLACK
10
1.3765748031496063
20
1.8838582677165354
40
0.0068897637795276
0
CIRCLE
8
BLACK
10
1.4765748031496062
20
1.7838582677165353
40
0.0068897637795276
0
CIRCLE
8
BLACK
10
1.4765748031496062
20
1.8838582677165354
40
0.0068897637795276
0
CIRCLE
8
BLACK
10
1.5765748031496063
20
1.7838582677165353
40
0.0068897637795276
0
CIRCLE
8
BLACK
10
1.5765748031496063
20
1.8838582677165354
40
0.0068897637795276
0
CIRCLE
8
BLACK
10
1.6765748031496062
20
1.7838582677165353
40
0.0068897637795276
0
CIRCLE
8
BLACK
10
1.6765748031496062
20
1.8838582677165354
40
0.0068897637795276
0
CIRCLE
8
BLACK
10
1.7765748031496063
20
1.7838582677165353
40
0.0068897637795276
0
CIRCLE
8
BLACK
10
1.7765748031496063
20
1.8838582677165354
40
0.0068897637795276
0
CIRCLE
8
BLACK
10
0.8854330708661418
20
0.4454724409448819
40
0.0068897637795276
0
CIRCLE
8
BLACK
10
0.6578740157480315
20
0.4454724409448819
40
0.0068897637795276
0
LINE
8
BLACK
6
CONTINUOUS
10
0.9535433070866142
20
0.2848425196850394
11
0.9535433070866142
21
0.3163385826771654
0
ARC
8
BLACK
10
0.9417322834645669
20
0.3163385826771654
40
0.0118110236220472
50
0.00000000
51
180.00000000
0
LINE
8
BLACK
6
CONTINUOUS
10
0.9299212598425196
20
0.3163385826771654
11
0.9299212598425196
21
0.2848425196850394
0
ARC
8
BLACK
10
0.9417322834645669
20
0.2848425196850394
40
0.0118110236220472
50
180.00000000
51
360.00000000
0
LINE
8
BLACK
6
CONTINUOUS
10
0.6133858267716535
20
0.2848425196850394
11
0.6133858267716535
21
0.3163385826771654
0
ARC
8
BLACK
10
0.6015748031496063
20
0.3163385826771654
40
0.0118110236220472
50
0.00000000
51
180.00000000
0
LINE
8
BLACK
6
CONTINUOUS
10
0.5897637795275591
20
0.3163385826771654
11
0.5897637795275591
21
0.2848425196850394
0
ARC
8
BLACK
10
0.6015748031496063
20
0.2848425196850394
40
0.0118110236220472
50
180.00000000
51
360.00000000
0
LINE
8
BLACK
6
CONTINUOUS
10
0.9535433070866142
20
0.443503937007874
11
0.9535433070866142
21
0.4868110236220473
0
ARC
8
BLACK
10
0.9417322834645669
20
0.4868110236220473
40
0.0118110236220472
50
0.00000000
51
180.00000000
0
LINE
8
BLACK
6
CONTINUOUS
10
0.9299212598425196
20
0.4868110236220473
11
0.9299212598425196
21
0.443503937007874
0
ARC
8
BLACK
10
0.9417322834645669
20
0.443503937007874
40
0.0118110236220472
50
180.00000000
51
360.00000000
0
LINE
8
BLACK
6
CONTINUOUS
10
0.6133858267716535
20
0.443503937007874
11
0.6133858267716535
21
0.4868110236220473
0
ARC
8
BLACK
10
0.6015748031496063
20
0.4868110236220473
40
0.0118110236220472
50
0.00000000
51
180.00000000
0
LINE
8
BLACK
6
CONTINUOUS
10
0.5897637795275591
20
0.4868110236220473
11
0.5897637795275591
21
0.443503937007874
0
ARC
8
BLACK
10
0.6015748031496063
20
0.443503937007874
40
0.0118110236220472
50
180.00000000
51
360.00000000
0
LINE
8
BLACK
6
CONTINUOUS
10
1.4153543700787401
20
0.6633858267716535
11
1.4153543700787401
21
0.6437007874015748
0
ARC
8
BLACK
10
1.4527559055118109
20
0.6437007874015748
40
0.0374015354330709
50
-180.00000000
51
0.00000000
0
LINE
8
BLACK
6
CONTINUOUS
10
1.4901574409448819
20
0.6437007874015748
11
1.4901574409448819
21
0.6633858267716535
0
ARC
8
BLACK
10
1.4527559055118109
20
0.6633858267716535
40
0.0374015354330709
50
0.00000000
51
180.00000000
0
LINE
8
BLACK
6
CONTINUOUS
10
1.6948818503937007
20
0.6437007874015748
11
1.6948818503937007
21
0.6633858267716535
0
ARC
8
BLACK
10
1.6574803149606299
20
0.6633858267716535
40
0.0374015354330709
50
0.00000000
51
180.00000000
0
LINE
8
BLACK
6
CONTINUOUS
10
1.6200787795275591
20
0.6633858267716535
11
1.6200787795275591
21
0.6437007874015748
0
ARC
8
BLACK
10
1.6574803149606299
20
0.6437007874015748
40
0.0374015354330709
50
180.00000000
51
360.00000000
  0
ENDSEC
  0
EOF
