  0
SECTION
  2
HEADER
  9
$ANGBASE
  50
0.0
  9
$ANGDIR
  70
1
  9
$MEASUREMENT
  70
0
  0
ENDSEC
  0
SECTION
  2
TABLES
  0
TABLE
  2
LTYPE
  70
4
  0
LTYPE
  5
40F
  2
CONTINUOUS
  70
0
  3
Solid line
  72
65
  73
0
  40
0.0
  0
LTYPE
  5
410
  2
DASHDOT
 70
0
  3
Dash Dot ____ _ ____ _
 72
65
 73
4
 40
2.0
 49
1.25
 49
-0.25
 49
0.25
 49
-0.25
  0
LTYPE
  5
411
  2
DASHED
 70
0
  3
Dashed __ __ __ __ __
 72
65
 73
2
 40
0.75
 49
0.5
 49
-0.25
  0
LTYPE
  5
43B
  2
DOTTED
 70
0
  3
Dotted .  .  .  .
 72
65
 73
2
 40
0.2
 49
0.0
 49
-0.2
  0
ENDTAB
  0
TABLE
  2
STYLE
  70
4
  0
STYLE
  2
KICAD
  70
0
  40
0
  41
1
  42
1
  50
0
  71
0
  3
isocp.shx
  0
STYLE
  2
KICADB
  70
0
  40
0
  41
1
  42
1
  50
0
  71
0
  3
isocp.shx
  0
STYLE
  2
KICADI
  70
0
  40
0
  41
1
  42
1
  50
15
  71
0
  3
isocp.shx
  0
STYLE
  2
KICADBI
  70
0
  40
0
  41
1
  42
1
  50
15
  71
0
  3
isocp.shx
  0
ENDTAB
  0
TABLE
  2
LAYER
  70
1
  0
LAYER
  2
BLACK
  70
0
  62
7
  6
CONTINUOUS
  0
ENDTAB
  0
ENDSEC
  0
SECTION
  2
ENTITIES
0
LINE
8
BLACK
6
CONTINUOUS
10
0.9724409448818897
20
0.521259842519685
11
0.9731369291338583
21
0.5209715748031496
0
LINE
8
BLACK
6
CONTINUOUS
10
0.9731369291338583
20
0.5209715748031496
11
0.9734251968503936
21
0.5202755905511811
0
LINE
8
BLACK
6
CONTINUOUS
10
0.9734251968503936
20
0.5202755905511811
11
0.9734251968503936
21
0.1883858267716536
0
LINE
8
BLACK
6
CONTINUOUS
10
0.9734251968503936
20
0.1883858267716536
11
0.9731369291338583
21
0.187689842519685
0
LINE
8
BLACK
6
CONTINUOUS
10
0.9731369291338583
20
0.187689842519685
11
0.9724409448818897
21
0.1874015748031496
0
LINE
8
BLACK
6
CONTINUOUS
10
0.9724409448818897
20
0.1874015748031496
11
0.5708661417322834
21
0.1874015748031496
0
LINE
8
BLACK
6
CONTINUOUS
10
0.5708661417322834
20
0.1874015748031496
11
0.570170157480315
21
0.187689842519685
0
LINE
8
BLACK
6
CONTINUOUS
10
0.570170157480315
20
0.187689842519685
11
0.5698818897637795
21
0.1883858267716536
0
LINE
8
BLACK
6
CONTINUOUS
10
0.5698818897637795
20
0.1883858267716536
11
0.5698818897637795
21
0.5202755905511811
0
LINE
8
BLACK
6
CONTINUOUS
10
0.5698818897637795
20
0.5202755905511811
11
0.570170157480315
21
0.5209715748031496
0
LINE
8
BLACK
6
CONTINUOUS
10
0.570170157480315
20
0.5209715748031496
11
0.5708661417322834
21
0.521259842519685
0
LINE
8
BLACK
6
CONTINUOUS
10
0.5708661417322834
20
0.521259842519685
11
0.9724409448818897
21
0.521259842519685
0
LINE
8
BLACK
6
CONTINUOUS
10
0.5718503937007874
20
0.5192913385826772
11
0.5718503937007874
21
0.1893700787401575
0
LINE
8
BLACK
6
CONTINUOUS
10
0.5718503937007874
20
0.1893700787401575
11
0.9714566929133858
21
0.1893700787401575
0
LINE
8
BLACK
6
CONTINUOUS
10
0.9714566929133858
20
0.1893700787401575
11
0.9714566929133858
21
0.5192913385826772
0
LINE
8
BLACK
6
CONTINUOUS
10
0.9714566929133858
20
0.5192913385826772
11
0.5718503937007874
21
0.5192913385826772
0
LINE
8
BLACK
6
CONTINUOUS
10
1.4921259842519685
20
0.5816929133858267
11
1.492821968503937
21
0.5814046456692913
0
LINE
8
BLACK
6
CONTINUOUS
10
1.492821968503937
20
0.5814046456692913
11
1.4931102362204725
21
0.5807086614173228
0
LINE
8
BLACK
6
CONTINUOUS
10
1.4931102362204725
20
0.5807086614173228
11
1.4931102362204725
21
0.234251968503937
0
LINE
8
BLACK
6
CONTINUOUS
10
1.4931102362204725
20
0.234251968503937
11
1.492821968503937
21
0.2335559842519685
0
LINE
8
BLACK
6
CONTINUOUS
10
1.492821968503937
20
0.2335559842519685
11
1.4921259842519685
21
0.2332677165354331
0
LINE
8
BLACK
6
CONTINUOUS
10
1.4921259842519685
20
0.2332677165354331
11
1.2086614173228347
21
0.2332677165354331
0
LINE
8
BLACK
6
CONTINUOUS
10
1.2086614173228347
20
0.2332677165354331
11
1.207965433070866
21
0.2335559842519685
0
LINE
8
BLACK
6
CONTINUOUS
10
1.207965433070866
20
0.2335559842519685
11
1.2076771653543308
21
0.234251968503937
0
LINE
8
BLACK
6
CONTINUOUS
10
1.2076771653543308
20
0.234251968503937
11
1.2076771653543308
21
0.5807086614173228
0
LINE
8
BLACK
6
CONTINUOUS
10
1.2076771653543308
20
0.5807086614173228
11
1.207965433070866
21
0.5814046456692913
0
LINE
8
BLACK
6
CONTINUOUS
10
1.207965433070866
20
0.5814046456692913
11
1.2086614173228347
21
0.5816929133858267
0
LINE
8
BLACK
6
CONTINUOUS
10
1.2086614173228347
20
0.5816929133858267
11
1.4921259842519685
21
0.5816929133858267
0
LINE
8
BLACK
6
CONTINUOUS
10
1.2096456692913387
20
0.5797244094488189
11
1.2096456692913387
21
0.2352362204724409
0
LINE
8
BLACK
6
CONTINUOUS
10
1.2096456692913387
20
0.2352362204724409
11
1.4911417322834646
21
0.2352362204724409
0
LINE
8
BLACK
6
CONTINUOUS
10
1.4911417322834646
20
0.2352362204724409
11
1.4911417322834646
21
0.5797244094488189
0
LINE
8
BLACK
6
CONTINUOUS
10
1.4911417322834646
20
0.5797244094488189
11
1.2096456692913387
21
0.5797244094488189
0
LINE
8
BLACK
6
CONTINUOUS
10
1.7814960629921259
20
0.6020669291338583
11
1.7821920472440944
21
0.6017786614173228
0
LINE
8
BLACK
6
CONTINUOUS
10
1.7821920472440944
20
0.6017786614173228
11
1.7824803149606299
21
0.6010826771653544
0
LINE
8
BLACK
6
CONTINUOUS
10
1.7824803149606299
20
0.6010826771653544
11
1.7824803149606299
21
0.4687992125984252
0
LINE
8
BLACK
6
CONTINUOUS
10
1.7824803149606299
20
0.4687992125984252
11
1.7821920472440944
21
0.4681032283464567
0
LINE
8
BLACK
6
CONTINUOUS
10
1.7821920472440944
20
0.4681032283464567
11
1.7814960629921259
21
0.4678149606299212
0
LINE
8
BLACK
6
CONTINUOUS
10
1.7814960629921259
20
0.4678149606299212
11
1.7066929133858266
21
0.4678149606299212
0
LINE
8
BLACK
6
CONTINUOUS
10
1.7066929133858266
20
0.4678149606299212
11
1.7059969291338581
21
0.4681032283464567
0
LINE
8
BLACK
6
CONTINUOUS
10
1.7059969291338581
20
0.4681032283464567
11
1.7057086614173227
21
0.4687992125984252
0
LINE
8
BLACK
6
CONTINUOUS
10
1.7057086614173227
20
0.4687992125984252
11
1.7057086614173227
21
0.6010826771653544
0
LINE
8
BLACK
6
CONTINUOUS
10
1.7057086614173227
20
0.6010826771653544
11
1.7059969291338581
21
0.6017786614173228
0
LINE
8
BLACK
6
CONTINUOUS
10
1.7059969291338581
20
0.6017786614173228
11
1.7066929133858266
21
0.6020669291338583
0
LINE
8
BLACK
6
CONTINUOUS
10
1.7066929133858266
20
0.6020669291338583
11
1.7814960629921259
21
0.6020669291338583
0
LINE
8
BLACK
6
CONTINUOUS
10
1.7076771653543306
20
0.6000984251968504
11
1.7076771653543306
21
0.4697834645669291
0
LINE
8
BLACK
6
CONTINUOUS
10
1.7076771653543306
20
0.4697834645669291
11
1.780511811023622
21
0.4697834645669291
0
LINE
8
BLACK
6
CONTINUOUS
10
1.780511811023622
20
0.4697834645669291
11
1.780511811023622
21
0.6000984251968504
0
LINE
8
BLACK
6
CONTINUOUS
10
1.780511811023622
20
0.6000984251968504
11
1.7076771653543306
21
0.6000984251968504
0
LINE
8
BLACK
6
CONTINUOUS
10
1.860236220472441
20
0.6030511811023622
11
1.8609322047244095
21
0.6027629133858268
0
LINE
8
BLACK
6
CONTINUOUS
10
1.8609322047244095
20
0.6027629133858268
11
1.8612204724409449
21
0.6020669291338583
0
LINE
8
BLACK
6
CONTINUOUS
10
1.8612204724409449
20
0.6020669291338583
11
1.8612204724409449
21
0.4697834645669291
0
LINE
8
BLACK
6
CONTINUOUS
10
1.8612204724409449
20
0.4697834645669291
11
1.8609322047244095
21
0.4690874803149606
0
LINE
8
BLACK
6
CONTINUOUS
10
1.8609322047244095
20
0.4690874803149606
11
1.860236220472441
21
0.4687992125984252
0
LINE
8
BLACK
6
CONTINUOUS
10
1.860236220472441
20
0.4687992125984252
11
1.7854330708661417
21
0.4687992125984252
0
LINE
8
BLACK
6
CONTINUOUS
10
1.7854330708661417
20
0.4687992125984252
11
1.7847370866141732
21
0.4690874803149606
0
LINE
8
BLACK
6
CONTINUOUS
10
1.7847370866141732
20
0.4690874803149606
11
1.7844488188976377
21
0.4697834645669291
0
LINE
8
BLACK
6
CONTINUOUS
10
1.7844488188976377
20
0.4697834645669291
11
1.7844488188976377
21
0.6020669291338583
0
LINE
8
BLACK
6
CONTINUOUS
10
1.7844488188976377
20
0.6020669291338583
11
1.7847370866141732
21
0.6027629133858268
0
LINE
8
BLACK
6
CONTINUOUS
10
1.7847370866141732
20
0.6027629133858268
11
1.7854330708661417
21
0.6030511811023622
0
LINE
8
BLACK
6
CONTINUOUS
10
1.7854330708661417
20
0.6030511811023622
11
1.860236220472441
21
0.6030511811023622
0
LINE
8
BLACK
6
CONTINUOUS
10
1.7864173228346456
20
0.6010826771653544
11
1.7864173228346456
21
0.470767716535433
0
LINE
8
BLACK
6
CONTINUOUS
10
1.7864173228346456
20
0.470767716535433
11
1.859251968503937
21
0.470767716535433
0
LINE
8
BLACK
6
CONTINUOUS
10
1.859251968503937
20
0.470767716535433
11
1.859251968503937
21
0.6010826771653544
0
LINE
8
BLACK
6
CONTINUOUS
10
1.859251968503937
20
0.6010826771653544
11
1.7864173228346456
21
0.6010826771653544
0
LINE
8
BLACK
6
CONTINUOUS
10
0.9429133858267716
20
0.6663385826771654
11
0.9436093700787401
21
0.6660503149606299
0
LINE
8
BLACK
6
CONTINUOUS
10
0.9436093700787401
20
0.6660503149606299
11
0.9438976377952756
21
0.6653543307086615
0
LINE
8
BLACK
6
CONTINUOUS
10
0.9438976377952756
20
0.6653543307086615
11
0.9438976377952756
21
0.5314960629921259
0
LINE
8
BLACK
6
CONTINUOUS
10
0.9438976377952756
20
0.5314960629921259
11
0.9436093700787401
21
0.5308000787401574
0
LINE
8
BLACK
6
CONTINUOUS
10
0.9436093700787401
20
0.5308000787401574
11
0.9429133858267716
21
0.530511811023622
0
LINE
8
BLACK
6
CONTINUOUS
10
0.9429133858267716
20
0.530511811023622
11
0.7814960629921259
21
0.530511811023622
0
LINE
8
BLACK
6
CONTINUOUS
10
0.7814960629921259
20
0.530511811023622
11
0.7808000787401574
21
0.5308000787401574
0
LINE
8
BLACK
6
CONTINUOUS
10
0.7808000787401574
20
0.5308000787401574
11
0.780511811023622
21
0.5314960629921259
0
LINE
8
BLACK
6
CONTINUOUS
10
0.780511811023622
20
0.5314960629921259
11
0.780511811023622
21
0.6653543307086615
0
LINE
8
BLACK
6
CONTINUOUS
10
0.780511811023622
20
0.6653543307086615
11
0.7808000787401574
21
0.6660503149606299
0
LINE
8
BLACK
6
CONTINUOUS
10
0.7808000787401574
20
0.6660503149606299
11
0.7814960629921259
21
0.6663385826771654
0
LINE
8
BLACK
6
CONTINUOUS
10
0.7814960629921259
20
0.6663385826771654
11
0.9429133858267716
21
0.6663385826771654
0
LINE
8
BLACK
6
CONTINUOUS
10
0.7824803149606299
20
0.6643700787401574
11
0.7824803149606299
21
0.5324803149606299
0
LINE
8
BLACK
6
CONTINUOUS
10
0.7824803149606299
20
0.5324803149606299
11
0.9419291338582677
21
0.5324803149606299
0
LINE
8
BLACK
6
CONTINUOUS
10
0.9419291338582677
20
0.5324803149606299
11
0.9419291338582677
21
0.6643700787401574
0
LINE
8
BLACK
6
CONTINUOUS
10
0.9419291338582677
20
0.6643700787401574
11
0.7824803149606299
21
0.6643700787401574
0
LINE
8
BLACK
6
CONTINUOUS
10
0.5380905511811024
20
0.6318897637795275
11
0.5387865354330709
21
0.6316014960629921
0
LINE
8
BLACK
6
CONTINUOUS
10
0.5387865354330709
20
0.6316014960629921
11
0.5390748031496063
21
0.6309055118110236
0
LINE
8
BLACK
6
CONTINUOUS
10
0.5390748031496063
20
0.6309055118110236
11
0.5390748031496063
21
0.5561023622047244
0
LINE
8
BLACK
6
CONTINUOUS
10
0.5390748031496063
20
0.5561023622047244
11
0.5387865354330709
21
0.5554063779527559
0
LINE
8
BLACK
6
CONTINUOUS
10
0.5387865354330709
20
0.5554063779527559
11
0.5380905511811024
21
0.5551181102362205
0
LINE
8
BLACK
6
CONTINUOUS
10
0.5380905511811024
20
0.5551181102362205
11
0.4058070866141732
21
0.5551181102362205
0
LINE
8
BLACK
6
CONTINUOUS
10
0.4058070866141732
20
0.5551181102362205
11
0.4051111023622047
21
0.5554063779527559
0
LINE
8
BLACK
6
CONTINUOUS
10
0.4051111023622047
20
0.5554063779527559
11
0.4048228346456693
21
0.5561023622047244
0
LINE
8
BLACK
6
CONTINUOUS
10
0.4048228346456693
20
0.5561023622047244
11
0.4048228346456693
21
0.6309055118110236
0
LINE
8
BLACK
6
CONTINUOUS
10
0.4048228346456693
20
0.6309055118110236
11
0.4051111023622047
21
0.6316014960629921
0
LINE
8
BLACK
6
CONTINUOUS
10
0.4051111023622047
20
0.6316014960629921
11
0.4058070866141732
21
0.6318897637795275
0
LINE
8
BLACK
6
CONTINUOUS
10
0.4058070866141732
20
0.6318897637795275
11
0.5380905511811024
21
0.6318897637795275
0
LINE
8
BLACK
6
CONTINUOUS
10
0.4067913385826771
20
0.6299212598425197
11
0.4067913385826771
21
0.5570866141732284
0
LINE
8
BLACK
6
CONTINUOUS
10
0.4067913385826771
20
0.5570866141732284
11
0.5371062992125984
21
0.5570866141732284
0
LINE
8
BLACK
6
CONTINUOUS
10
0.5371062992125984
20
0.5570866141732284
11
0.5371062992125984
21
0.6299212598425197
0
LINE
8
BLACK
6
CONTINUOUS
10
0.5371062992125984
20
0.6299212598425197
11
0.4067913385826771
21
0.6299212598425197
0
LINE
8
BLACK
6
CONTINUOUS
10
0.4012795275590551
20
0.6328740157480315
11
0.4019755118110236
21
0.632585748031496
0
LINE
8
BLACK
6
CONTINUOUS
10
0.4019755118110236
20
0.632585748031496
11
0.402263779527559
21
0.6318897637795275
0
LINE
8
BLACK
6
CONTINUOUS
10
0.402263779527559
20
0.6318897637795275
11
0.402263779527559
21
0.5570866141732284
0
LINE
8
BLACK
6
CONTINUOUS
10
0.402263779527559
20
0.5570866141732284
11
0.4019755118110236
21
0.5563906299212599
0
LINE
8
BLACK
6
CONTINUOUS
10
0.4019755118110236
20
0.5563906299212599
11
0.4012795275590551
21
0.5561023622047244
0
LINE
8
BLACK
6
CONTINUOUS
10
0.4012795275590551
20
0.5561023622047244
11
0.268996062992126
21
0.5561023622047244
0
LINE
8
BLACK
6
CONTINUOUS
10
0.268996062992126
20
0.5561023622047244
11
0.2683000787401575
21
0.5563906299212599
0
LINE
8
BLACK
6
CONTINUOUS
10
0.2683000787401575
20
0.5563906299212599
11
0.268011811023622
21
0.5570866141732284
0
LINE
8
BLACK
6
CONTINUOUS
10
0.268011811023622
20
0.5570866141732284
11
0.268011811023622
21
0.6318897637795275
0
LINE
8
BLACK
6
CONTINUOUS
10
0.268011811023622
20
0.6318897637795275
11
0.2683000787401575
21
0.632585748031496
0
LINE
8
BLACK
6
CONTINUOUS
10
0.2683000787401575
20
0.632585748031496
11
0.268996062992126
21
0.6328740157480315
0
LINE
8
BLACK
6
CONTINUOUS
10
0.268996062992126
20
0.6328740157480315
11
0.4012795275590551
21
0.6328740157480315
0
LINE
8
BLACK
6
CONTINUOUS
10
0.2699803149606299
20
0.6309055118110236
11
0.2699803149606299
21
0.5580708661417323
0
LINE
8
BLACK
6
CONTINUOUS
10
0.2699803149606299
20
0.5580708661417323
11
0.4002952755905512
21
0.5580708661417323
0
LINE
8
BLACK
6
CONTINUOUS
10
0.4002952755905512
20
0.5580708661417323
11
0.4002952755905512
21
0.6309055118110236
0
LINE
8
BLACK
6
CONTINUOUS
10
0.4002952755905512
20
0.6309055118110236
11
0.2699803149606299
21
0.6309055118110236
0
LINE
8
BLACK
6
CONTINUOUS
10
0.6753937007874016
20
0.6328740157480315
11
0.6760896850393701
21
0.632585748031496
0
LINE
8
BLACK
6
CONTINUOUS
10
0.6760896850393701
20
0.632585748031496
11
0.6763779527559055
21
0.6318897637795275
0
LINE
8
BLACK
6
CONTINUOUS
10
0.6763779527559055
20
0.6318897637795275
11
0.6763779527559055
21
0.5570866141732284
0
LINE
8
BLACK
6
CONTINUOUS
10
0.6763779527559055
20
0.5570866141732284
11
0.6760896850393701
21
0.5563906299212599
0
LINE
8
BLACK
6
CONTINUOUS
10
0.6760896850393701
20
0.5563906299212599
11
0.6753937007874016
21
0.5561023622047244
0
LINE
8
BLACK
6
CONTINUOUS
10
0.6753937007874016
20
0.5561023622047244
11
0.5431102362204724
21
0.5561023622047244
0
LINE
8
BLACK
6
CONTINUOUS
10
0.5431102362204724
20
0.5561023622047244
11
0.5424142519685039
21
0.5563906299212599
0
LINE
8
BLACK
6
CONTINUOUS
10
0.5424142519685039
20
0.5563906299212599
11
0.5421259842519685
21
0.5570866141732284
0
LINE
8
BLACK
6
CONTINUOUS
10
0.5421259842519685
20
0.5570866141732284
11
0.5421259842519685
21
0.6318897637795275
0
LINE
8
BLACK
6
CONTINUOUS
10
0.5421259842519685
20
0.6318897637795275
11
0.5424142519685039
21
0.632585748031496
0
LINE
8
BLACK
6
CONTINUOUS
10
0.5424142519685039
20
0.632585748031496
11
0.5431102362204724
21
0.6328740157480315
0
LINE
8
BLACK
6
CONTINUOUS
10
0.5431102362204724
20
0.6328740157480315
11
0.6753937007874016
21
0.6328740157480315
0
LINE
8
BLACK
6
CONTINUOUS
10
0.5440944881889763
20
0.6309055118110236
11
0.5440944881889763
21
0.5580708661417323
0
LINE
8
BLACK
6
CONTINUOUS
10
0.5440944881889763
20
0.5580708661417323
11
0.6744094488188976
21
0.5580708661417323
0
LINE
8
BLACK
6
CONTINUOUS
10
0.6744094488188976
20
0.5580708661417323
11
0.6744094488188976
21
0.6309055118110236
0
LINE
8
BLACK
6
CONTINUOUS
10
0.6744094488188976
20
0.6309055118110236
11
0.5440944881889763
21
0.6309055118110236
0
LINE
8
BLACK
6
CONTINUOUS
10
0.606496062992126
20
0.7726377952755905
11
0.6071920472440945
21
0.7723495275590551
0
LINE
8
BLACK
6
CONTINUOUS
10
0.6071920472440945
20
0.7723495275590551
11
0.6074803149606299
21
0.7716535433070866
0
LINE
8
BLACK
6
CONTINUOUS
10
0.6074803149606299
20
0.7716535433070866
11
0.6074803149606299
21
0.6377952755905512
0
LINE
8
BLACK
6
CONTINUOUS
10
0.6074803149606299
20
0.6377952755905512
11
0.6071920472440945
21
0.6370992913385827
0
LINE
8
BLACK
6
CONTINUOUS
10
0.6071920472440945
20
0.6370992913385827
11
0.606496062992126
21
0.6368110236220472
0
LINE
8
BLACK
6
CONTINUOUS
10
0.606496062992126
20
0.6368110236220472
11
0.5293307086614173
21
0.6368110236220472
0
LINE
8
BLACK
6
CONTINUOUS
10
0.5293307086614173
20
0.6368110236220472
11
0.5286347244094488
21
0.6370992913385827
0
LINE
8
BLACK
6
CONTINUOUS
10
0.5286347244094488
20
0.6370992913385827
11
0.5283464566929134
21
0.6377952755905512
0
LINE
8
BLACK
6
CONTINUOUS
10
0.5283464566929134
20
0.6377952755905512
11
0.5283464566929134
21
0.7716535433070866
0
LINE
8
BLACK
6
CONTINUOUS
10
0.5283464566929134
20
0.7716535433070866
11
0.5286347244094488
21
0.7723495275590551
0
LINE
8
BLACK
6
CONTINUOUS
10
0.5286347244094488
20
0.7723495275590551
11
0.5293307086614173
21
0.7726377952755905
0
LINE
8
BLACK
6
CONTINUOUS
10
0.5293307086614173
20
0.7726377952755905
11
0.606496062992126
21
0.7726377952755905
0
LINE
8
BLACK
6
CONTINUOUS
10
0.5303149606299212
20
0.7706692913385826
11
0.5303149606299212
21
0.6387795275590551
0
LINE
8
BLACK
6
CONTINUOUS
10
0.5303149606299212
20
0.6387795275590551
11
0.6055118110236221
21
0.6387795275590551
0
LINE
8
BLACK
6
CONTINUOUS
10
0.6055118110236221
20
0.6387795275590551
11
0.6055118110236221
21
0.7706692913385826
0
LINE
8
BLACK
6
CONTINUOUS
10
0.6055118110236221
20
0.7706692913385826
11
0.5303149606299212
21
0.7706692913385826
0
LINE
8
BLACK
6
CONTINUOUS
10
0.6891732283464567
20
0.7726377952755905
11
0.6898692125984252
21
0.7723495275590551
0
LINE
8
BLACK
6
CONTINUOUS
10
0.6898692125984252
20
0.7723495275590551
11
0.6901574803149606
21
0.7716535433070866
0
LINE
8
BLACK
6
CONTINUOUS
10
0.6901574803149606
20
0.7716535433070866
11
0.6901574803149606
21
0.6377952755905512
0
LINE
8
BLACK
6
CONTINUOUS
10
0.6901574803149606
20
0.6377952755905512
11
0.6898692125984252
21
0.6370992913385827
0
LINE
8
BLACK
6
CONTINUOUS
10
0.6898692125984252
20
0.6370992913385827
11
0.6891732283464567
21
0.6368110236220472
0
LINE
8
BLACK
6
CONTINUOUS
10
0.6891732283464567
20
0.6368110236220472
11
0.612007874015748
21
0.6368110236220472
0
LINE
8
BLACK
6
CONTINUOUS
10
0.612007874015748
20
0.6368110236220472
11
0.6113118897637795
21
0.6370992913385827
0
LINE
8
BLACK
6
CONTINUOUS
10
0.6113118897637795
20
0.6370992913385827
11
0.611023622047244
21
0.6377952755905512
0
LINE
8
BLACK
6
CONTINUOUS
10
0.611023622047244
20
0.6377952755905512
11
0.611023622047244
21
0.7716535433070866
0
LINE
8
BLACK
6
CONTINUOUS
10
0.611023622047244
20
0.7716535433070866
11
0.6113118897637795
21
0.7723495275590551
0
LINE
8
BLACK
6
CONTINUOUS
10
0.6113118897637795
20
0.7723495275590551
11
0.612007874015748
21
0.7726377952755905
0
LINE
8
BLACK
6
CONTINUOUS
10
0.612007874015748
20
0.7726377952755905
11
0.6891732283464567
21
0.7726377952755905
0
LINE
8
BLACK
6
CONTINUOUS
10
0.6129921259842519
20
0.7706692913385826
11
0.6129921259842519
21
0.6387795275590551
0
LINE
8
BLACK
6
CONTINUOUS
10
0.6129921259842519
20
0.6387795275590551
11
0.6881889763779527
21
0.6387795275590551
0
LINE
8
BLACK
6
CONTINUOUS
10
0.6881889763779527
20
0.6387795275590551
11
0.6881889763779527
21
0.7706692913385826
0
LINE
8
BLACK
6
CONTINUOUS
10
0.6881889763779527
20
0.7706692913385826
11
0.6129921259842519
21
0.7706692913385826
0
LINE
8
BLACK
6
CONTINUOUS
10
1.2196850393700787
20
0.7844488188976377
11
1.2203810236220471
21
0.7841605511811024
0
LINE
8
BLACK
6
CONTINUOUS
10
1.2203810236220471
20
0.7841605511811024
11
1.2206692913385826
21
0.7834645669291338
0
LINE
8
BLACK
6
CONTINUOUS
10
1.2206692913385826
20
0.7834645669291338
11
1.2206692913385826
21
0.6496062992125984
0
LINE
8
BLACK
6
CONTINUOUS
10
1.2206692913385826
20
0.6496062992125984
11
1.2203810236220471
21
0.6489103149606299
0
LINE
8
BLACK
6
CONTINUOUS
10
1.2203810236220471
20
0.6489103149606299
11
1.2196850393700787
21
0.6486220472440944
0
LINE
8
BLACK
6
CONTINUOUS
10
1.2196850393700787
20
0.6486220472440944
11
1.14251968503937
21
0.6486220472440944
0
LINE
8
BLACK
6
CONTINUOUS
10
1.14251968503937
20
0.6486220472440944
11
1.1418237007874015
21
0.6489103149606299
0
LINE
8
BLACK
6
CONTINUOUS
10
1.1418237007874015
20
0.6489103149606299
11
1.141535433070866
21
0.6496062992125984
0
LINE
8
BLACK
6
CONTINUOUS
10
1.141535433070866
20
0.6496062992125984
11
1.141535433070866
21
0.7834645669291338
0
LINE
8
BLACK
6
CONTINUOUS
10
1.141535433070866
20
0.7834645669291338
11
1.1418237007874015
21
0.7841605511811024
0
LINE
8
BLACK
6
CONTINUOUS
10
1.1418237007874015
20
0.7841605511811024
11
1.14251968503937
21
0.7844488188976377
0
LINE
8
BLACK
6
CONTINUOUS
10
1.14251968503937
20
0.7844488188976377
11
1.2196850393700787
21
0.7844488188976377
0
LINE
8
BLACK
6
CONTINUOUS
10
1.1435039370078739
20
0.7824803149606299
11
1.1435039370078739
21
0.6505905511811023
0
LINE
8
BLACK
6
CONTINUOUS
10
1.1435039370078739
20
0.6505905511811023
11
1.2187007874015747
21
0.6505905511811023
0
LINE
8
BLACK
6
CONTINUOUS
10
1.2187007874015747
20
0.6505905511811023
11
1.2187007874015747
21
0.7824803149606299
0
LINE
8
BLACK
6
CONTINUOUS
10
1.2187007874015747
20
0.7824803149606299
11
1.1435039370078739
21
0.7824803149606299
0
LINE
8
BLACK
6
CONTINUOUS
10
1.1358267716535433
20
0.9063976377952756
11
1.1365227559055118
21
0.9061093700787402
0
LINE
8
BLACK
6
CONTINUOUS
10
1.1365227559055118
20
0.9061093700787402
11
1.1368110236220472
21
0.9054133858267717
0
LINE
8
BLACK
6
CONTINUOUS
10
1.1368110236220472
20
0.9054133858267717
11
1.1368110236220472
21
0.6802165354330708
0
LINE
8
BLACK
6
CONTINUOUS
10
1.1368110236220472
20
0.6802165354330708
11
1.1365227559055118
21
0.6795205511811023
0
LINE
8
BLACK
6
CONTINUOUS
10
1.1365227559055118
20
0.6795205511811023
11
1.1358267716535433
21
0.6792322834645669
0
LINE
8
BLACK
6
CONTINUOUS
10
1.1358267716535433
20
0.6792322834645669
11
0.7696850393700787
21
0.6792322834645669
0
LINE
8
BLACK
6
CONTINUOUS
10
0.7696850393700787
20
0.6792322834645669
11
0.7689890551181102
21
0.6795205511811023
0
LINE
8
BLACK
6
CONTINUOUS
10
0.7689890551181102
20
0.6795205511811023
11
0.7687007874015748
21
0.6802165354330708
0
LINE
8
BLACK
6
CONTINUOUS
10
0.7687007874015748
20
0.6802165354330708
11
0.7687007874015748
21
0.9054133858267717
0
LINE
8
BLACK
6
CONTINUOUS
10
0.7687007874015748
20
0.9054133858267717
11
0.7689890551181102
21
0.9061093700787402
0
LINE
8
BLACK
6
CONTINUOUS
10
0.7689890551181102
20
0.9061093700787402
11
0.7696850393700787
21
0.9063976377952756
0
LINE
8
BLACK
6
CONTINUOUS
10
0.7696850393700787
20
0.9063976377952756
11
1.1358267716535433
21
0.9063976377952756
0
LINE
8
BLACK
6
CONTINUOUS
10
0.7706692913385826
20
0.9044291338582677
11
0.7706692913385826
21
0.6812007874015747
0
LINE
8
BLACK
6
CONTINUOUS
10
0.7706692913385826
20
0.6812007874015747
11
1.1348425196850394
21
0.6812007874015747
0
LINE
8
BLACK
6
CONTINUOUS
10
1.1348425196850394
20
0.6812007874015747
11
1.1348425196850394
21
0.9044291338582677
0
LINE
8
BLACK
6
CONTINUOUS
10
1.1348425196850394
20
0.9044291338582677
11
0.7706692913385826
21
0.9044291338582677
0
LINE
8
BLACK
6
CONTINUOUS
10
1.7696850393700787
20
0.838779527559055
11
1.7703810236220472
21
0.8384912598425197
0
LINE
8
BLACK
6
CONTINUOUS
10
1.7703810236220472
20
0.8384912598425197
11
1.7706692913385826
21
0.8377952755905511
0
LINE
8
BLACK
6
CONTINUOUS
10
1.7706692913385826
20
0.8377952755905511
11
1.7706692913385826
21
0.705511811023622
0
LINE
8
BLACK
6
CONTINUOUS
10
1.7706692913385826
20
0.705511811023622
11
1.7703810236220472
21
0.7048158267716536
0
LINE
8
BLACK
6
CONTINUOUS
10
1.7703810236220472
20
0.7048158267716536
11
1.7696850393700787
21
0.7045275590551181
0
LINE
8
BLACK
6
CONTINUOUS
10
1.7696850393700787
20
0.7045275590551181
11
1.6948818897637794
21
0.7045275590551181
0
LINE
8
BLACK
6
CONTINUOUS
10
1.6948818897637794
20
0.7045275590551181
11
1.6941859055118109
21
0.7048158267716536
0
LINE
8
BLACK
6
CONTINUOUS
10
1.6941859055118109
20
0.7048158267716536
11
1.6938976377952755
21
0.705511811023622
0
LINE
8
BLACK
6
CONTINUOUS
10
1.6938976377952755
20
0.705511811023622
11
1.6938976377952755
21
0.8377952755905511
0
LINE
8
BLACK
6
CONTINUOUS
10
1.6938976377952755
20
0.8377952755905511
11
1.6941859055118109
21
0.8384912598425197
0
LINE
8
BLACK
6
CONTINUOUS
10
1.6941859055118109
20
0.8384912598425197
11
1.6948818897637794
21
0.838779527559055
0
LINE
8
BLACK
6
CONTINUOUS
10
1.6948818897637794
20
0.838779527559055
11
1.7696850393700787
21
0.838779527559055
0
LINE
8
BLACK
6
CONTINUOUS
10
1.6958661417322833
20
0.8368110236220472
11
1.6958661417322833
21
0.706496062992126
0
LINE
8
BLACK
6
CONTINUOUS
10
1.6958661417322833
20
0.706496062992126
11
1.7687007874015748
21
0.706496062992126
0
LINE
8
BLACK
6
CONTINUOUS
10
1.7687007874015748
20
0.706496062992126
11
1.7687007874015748
21
0.8368110236220472
0
LINE
8
BLACK
6
CONTINUOUS
10
1.7687007874015748
20
0.8368110236220472
11
1.6958661417322833
21
0.8368110236220472
0
LINE
8
BLACK
6
CONTINUOUS
10
1.5492125984251968
20
0.8432086614173229
11
1.5499085826771652
21
0.8429203937007874
0
LINE
8
BLACK
6
CONTINUOUS
10
1.5499085826771652
20
0.8429203937007874
11
1.5501968503937007
21
0.8422244094488189
0
LINE
8
BLACK
6
CONTINUOUS
10
1.5501968503937007
20
0.8422244094488189
11
1.5501968503937007
21
0.7099409448818897
0
LINE
8
BLACK
6
CONTINUOUS
10
1.5501968503937007
20
0.7099409448818897
11
1.5499085826771652
21
0.7092449606299213
0
LINE
8
BLACK
6
CONTINUOUS
10
1.5499085826771652
20
0.7092449606299213
11
1.5492125984251968
21
0.7089566929133858
0
LINE
8
BLACK
6
CONTINUOUS
10
1.5492125984251968
20
0.7089566929133858
11
1.4744094488188977
21
0.7089566929133858
0
LINE
8
BLACK
6
CONTINUOUS
10
1.4744094488188977
20
0.7089566929133858
11
1.4737134645669292
21
0.7092449606299213
0
LINE
8
BLACK
6
CONTINUOUS
10
1.4737134645669292
20
0.7092449606299213
11
1.4734251968503937
21
0.7099409448818897
0
LINE
8
BLACK
6
CONTINUOUS
10
1.4734251968503937
20
0.7099409448818897
11
1.4734251968503937
21
0.8422244094488189
0
LINE
8
BLACK
6
CONTINUOUS
10
1.4734251968503937
20
0.8422244094488189
11
1.4737134645669292
21
0.8429203937007874
0
LINE
8
BLACK
6
CONTINUOUS
10
1.4737134645669292
20
0.8429203937007874
11
1.4744094488188977
21
0.8432086614173229
0
LINE
8
BLACK
6
CONTINUOUS
10
1.4744094488188977
20
0.8432086614173229
11
1.5492125984251968
21
0.8432086614173229
0
LINE
8
BLACK
6
CONTINUOUS
10
1.4753937007874016
20
0.8412401574803149
11
1.4753937007874016
21
0.7109251968503937
0
LINE
8
BLACK
6
CONTINUOUS
10
1.4753937007874016
20
0.7109251968503937
11
1.5482283464566928
21
0.7109251968503937
0
LINE
8
BLACK
6
CONTINUOUS
10
1.5482283464566928
20
0.7109251968503937
11
1.5482283464566928
21
0.8412401574803149
0
LINE
8
BLACK
6
CONTINUOUS
10
1.5482283464566928
20
0.8412401574803149
11
1.4753937007874016
21
0.8412401574803149
0
LINE
8
BLACK
6
CONTINUOUS
10
1.6889763779527558
20
0.8649606299212598
11
1.6896723622047243
21
0.8646723622047244
0
LINE
8
BLACK
6
CONTINUOUS
10
1.6896723622047243
20
0.8646723622047244
11
1.6899606299212597
21
0.8639763779527558
0
LINE
8
BLACK
6
CONTINUOUS
10
1.6899606299212597
20
0.8639763779527558
11
1.6899606299212597
21
0.7127952755905511
0
LINE
8
BLACK
6
CONTINUOUS
10
1.6899606299212597
20
0.7127952755905511
11
1.6896723622047243
21
0.7120992913385826
0
LINE
8
BLACK
6
CONTINUOUS
10
1.6896723622047243
20
0.7120992913385826
11
1.6889763779527558
21
0.7118110236220472
0
LINE
8
BLACK
6
CONTINUOUS
10
1.6889763779527558
20
0.7118110236220472
11
1.5551181102362204
21
0.7118110236220472
0
LINE
8
BLACK
6
CONTINUOUS
10
1.5551181102362204
20
0.7118110236220472
11
1.5544221259842519
21
0.7120992913385826
0
LINE
8
BLACK
6
CONTINUOUS
10
1.5544221259842519
20
0.7120992913385826
11
1.5541338582677164
21
0.7127952755905511
0
LINE
8
BLACK
6
CONTINUOUS
10
1.5541338582677164
20
0.7127952755905511
11
1.5541338582677164
21
0.8639763779527558
0
LINE
8
BLACK
6
CONTINUOUS
10
1.5541338582677164
20
0.8639763779527558
11
1.5544221259842519
21
0.8646723622047244
0
LINE
8
BLACK
6
CONTINUOUS
10
1.5544221259842519
20
0.8646723622047244
11
1.5551181102362204
21
0.8649606299212598
0
LINE
8
BLACK
6
CONTINUOUS
10
1.5551181102362204
20
0.8649606299212598
11
1.6889763779527558
21
0.8649606299212598
0
LINE
8
BLACK
6
CONTINUOUS
10
1.5561023622047243
20
0.8629921259842519
11
1.5561023622047243
21
0.713779527559055
0
LINE
8
BLACK
6
CONTINUOUS
10
1.5561023622047243
20
0.713779527559055
11
1.6879921259842519
21
0.713779527559055
0
LINE
8
BLACK
6
CONTINUOUS
10
1.6879921259842519
20
0.713779527559055
11
1.6879921259842519
21
0.8629921259842519
0
LINE
8
BLACK
6
CONTINUOUS
10
1.6879921259842519
20
0.8629921259842519
11
1.5561023622047243
21
0.8629921259842519
0
LINE
8
BLACK
6
CONTINUOUS
10
1.2972440944881889
20
0.8584645669291339
11
1.2979400787401574
21
0.8581762992125984
0
LINE
8
BLACK
6
CONTINUOUS
10
1.2979400787401574
20
0.8581762992125984
11
1.2982283464566928
21
0.8574803149606299
0
LINE
8
BLACK
6
CONTINUOUS
10
1.2982283464566928
20
0.8574803149606299
11
1.2982283464566928
21
0.7251968503937007
0
LINE
8
BLACK
6
CONTINUOUS
10
1.2982283464566928
20
0.7251968503937007
11
1.2979400787401574
21
0.7245008661417323
0
LINE
8
BLACK
6
CONTINUOUS
10
1.2979400787401574
20
0.7245008661417323
11
1.2972440944881889
21
0.7242125984251968
0
LINE
8
BLACK
6
CONTINUOUS
10
1.2972440944881889
20
0.7242125984251968
11
1.2224409448818898
21
0.7242125984251968
0
LINE
8
BLACK
6
CONTINUOUS
10
1.2224409448818898
20
0.7242125984251968
11
1.2217449606299213
21
0.7245008661417323
0
LINE
8
BLACK
6
CONTINUOUS
10
1.2217449606299213
20
0.7245008661417323
11
1.2214566929133859
21
0.7251968503937007
0
LINE
8
BLACK
6
CONTINUOUS
10
1.2214566929133859
20
0.7251968503937007
11
1.2214566929133859
21
0.8574803149606299
0
LINE
8
BLACK
6
CONTINUOUS
10
1.2214566929133859
20
0.8574803149606299
11
1.2217449606299213
21
0.8581762992125984
0
LINE
8
BLACK
6
CONTINUOUS
10
1.2217449606299213
20
0.8581762992125984
11
1.2224409448818898
21
0.8584645669291339
0
LINE
8
BLACK
6
CONTINUOUS
10
1.2224409448818898
20
0.8584645669291339
11
1.2972440944881889
21
0.8584645669291339
0
LINE
8
BLACK
6
CONTINUOUS
10
1.2234251968503937
20
0.856496062992126
11
1.2234251968503937
21
0.7261811023622047
0
LINE
8
BLACK
6
CONTINUOUS
10
1.2234251968503937
20
0.7261811023622047
11
1.296259842519685
21
0.7261811023622047
0
LINE
8
BLACK
6
CONTINUOUS
10
1.296259842519685
20
0.7261811023622047
11
1.296259842519685
21
0.856496062992126
0
LINE
8
BLACK
6
CONTINUOUS
10
1.296259842519685
20
0.856496062992126
11
1.2234251968503937
21
0.856496062992126
0
LINE
8
BLACK
6
CONTINUOUS
10
1.4409448818897637
20
0.9372047244094488
11
1.4416408661417321
21
0.9369164566929133
0
LINE
8
BLACK
6
CONTINUOUS
10
1.4416408661417321
20
0.9369164566929133
11
1.4419291338582676
21
0.9362204724409449
0
LINE
8
BLACK
6
CONTINUOUS
10
1.4419291338582676
20
0.9362204724409449
11
1.4419291338582676
21
0.8590551181102362
0
LINE
8
BLACK
6
CONTINUOUS
10
1.4419291338582676
20
0.8590551181102362
11
1.4416408661417321
21
0.8583591338582677
0
LINE
8
BLACK
6
CONTINUOUS
10
1.4416408661417321
20
0.8583591338582677
11
1.4409448818897637
21
0.8580708661417322
0
LINE
8
BLACK
6
CONTINUOUS
10
1.4409448818897637
20
0.8580708661417322
11
1.3767238976377953
21
0.8580708661417322
0
LINE
8
BLACK
6
CONTINUOUS
10
1.3767238976377953
20
0.8580708661417322
11
1.3769685039370079
21
0.8574803149606299
0
LINE
8
BLACK
6
CONTINUOUS
10
1.3769685039370079
20
0.8574803149606299
11
1.3769685039370079
21
0.7251968503937007
0
LINE
8
BLACK
6
CONTINUOUS
10
1.3769685039370079
20
0.7251968503937007
11
1.3766802362204724
21
0.7245008661417323
0
LINE
8
BLACK
6
CONTINUOUS
10
1.3766802362204724
20
0.7245008661417323
11
1.3759842519685039
21
0.7242125984251968
0
LINE
8
BLACK
6
CONTINUOUS
10
1.3759842519685039
20
0.7242125984251968
11
1.3011811023622046
21
0.7242125984251968
0
LINE
8
BLACK
6
CONTINUOUS
10
1.3011811023622046
20
0.7242125984251968
11
1.3004851181102361
21
0.7245008661417323
0
LINE
8
BLACK
6
CONTINUOUS
10
1.3004851181102361
20
0.7245008661417323
11
1.3001968503937007
21
0.7251968503937007
0
LINE
8
BLACK
6
CONTINUOUS
10
1.3001968503937007
20
0.7251968503937007
11
1.3001968503937007
21
0.8574803149606299
0
LINE
8
BLACK
6
CONTINUOUS
10
1.3001968503937007
20
0.8574803149606299
11
1.3004851181102361
21
0.8581762992125984
0
LINE
8
BLACK
6
CONTINUOUS
10
1.3004851181102361
20
0.8581762992125984
11
1.3011811023622046
21
0.8584645669291339
0
LINE
8
BLACK
6
CONTINUOUS
10
1.3011811023622046
20
0.8584645669291339
11
1.3063469685039371
21
0.8584645669291339
0
LINE
8
BLACK
6
CONTINUOUS
10
1.3063469685039371
20
0.8584645669291339
11
1.3061023622047243
21
0.8590551181102362
0
LINE
8
BLACK
6
CONTINUOUS
10
1.3061023622047243
20
0.8590551181102362
11
1.3061023622047243
21
0.9362204724409449
0
LINE
8
BLACK
6
CONTINUOUS
10
1.3061023622047243
20
0.9362204724409449
11
1.3063906299212598
21
0.9369164566929133
0
LINE
8
BLACK
6
CONTINUOUS
10
1.3063906299212598
20
0.9369164566929133
11
1.3070866141732282
21
0.9372047244094488
0
LINE
8
BLACK
6
CONTINUOUS
10
1.3070866141732282
20
0.9372047244094488
11
1.4409448818897637
21
0.9372047244094488
0
LINE
8
BLACK
6
CONTINUOUS
10
1.3021653543307086
20
0.856496062992126
11
1.3021653543307086
21
0.7261811023622047
0
LINE
8
BLACK
6
CONTINUOUS
10
1.3021653543307086
20
0.7261811023622047
11
1.375
21
0.7261811023622047
0
LINE
8
BLACK
6
CONTINUOUS
10
1.375
20
0.7261811023622047
11
1.375
21
0.856496062992126
0
LINE
8
BLACK
6
CONTINUOUS
10
1.375
20
0.856496062992126
11
1.3021653543307086
21
0.856496062992126
0
LINE
8
BLACK
6
CONTINUOUS
10
1.3080708661417322
20
0.9352362204724409
11
1.3080708661417322
21
0.8600393700787401
0
LINE
8
BLACK
6
CONTINUOUS
10
1.3080708661417322
20
0.8600393700787401
11
1.4399606299212597
21
0.8600393700787401
0
LINE
8
BLACK
6
CONTINUOUS
10
1.4399606299212597
20
0.8600393700787401
11
1.4399606299212597
21
0.9352362204724409
0
LINE
8
BLACK
6
CONTINUOUS
10
1.4399606299212597
20
0.9352362204724409
11
1.3080708661417322
21
0.9352362204724409
0
LINE
8
BLACK
6
CONTINUOUS
10
0.7654527559055118
20
0.8553149606299213
11
0.7661487401574802
21
0.8550266929133858
0
LINE
8
BLACK
6
CONTINUOUS
10
0.7661487401574802
20
0.8550266929133858
11
0.7664370078740157
21
0.8543307086614172
0
LINE
8
BLACK
6
CONTINUOUS
10
0.7664370078740157
20
0.8543307086614172
11
0.7664370078740157
21
0.7795275590551181
0
LINE
8
BLACK
6
CONTINUOUS
10
0.7664370078740157
20
0.7795275590551181
11
0.7661487401574802
21
0.7788315748031496
0
LINE
8
BLACK
6
CONTINUOUS
10
0.7661487401574802
20
0.7788315748031496
11
0.7654527559055118
21
0.7785433070866141
0
LINE
8
BLACK
6
CONTINUOUS
10
0.7654527559055118
20
0.7785433070866141
11
0.6331692913385827
21
0.7785433070866141
0
LINE
8
BLACK
6
CONTINUOUS
10
0.6331692913385827
20
0.7785433070866141
11
0.6324733070866142
21
0.7788315748031496
0
LINE
8
BLACK
6
CONTINUOUS
10
0.6324733070866142
20
0.7788315748031496
11
0.6321850393700787
21
0.7795275590551181
0
LINE
8
BLACK
6
CONTINUOUS
10
0.6321850393700787
20
0.7795275590551181
11
0.6321850393700787
21
0.8543307086614172
0
LINE
8
BLACK
6
CONTINUOUS
10
0.6321850393700787
20
0.8543307086614172
11
0.6324733070866142
21
0.8550266929133858
0
LINE
8
BLACK
6
CONTINUOUS
10
0.6324733070866142
20
0.8550266929133858
11
0.6331692913385827
21
0.8553149606299213
0
LINE
8
BLACK
6
CONTINUOUS
10
0.6331692913385827
20
0.8553149606299213
11
0.7654527559055118
21
0.8553149606299213
0
LINE
8
BLACK
6
CONTINUOUS
10
0.6341535433070866
20
0.8533464566929133
11
0.6341535433070866
21
0.780511811023622
0
LINE
8
BLACK
6
CONTINUOUS
10
0.6341535433070866
20
0.780511811023622
11
0.7644685039370078
21
0.780511811023622
0
LINE
8
BLACK
6
CONTINUOUS
10
0.7644685039370078
20
0.780511811023622
11
0.7644685039370078
21
0.8533464566929133
0
LINE
8
BLACK
6
CONTINUOUS
10
0.7644685039370078
20
0.8533464566929133
11
0.6341535433070866
21
0.8533464566929133
0
LINE
8
BLACK
6
CONTINUOUS
10
1.5267716535433071
20
0.9793307086614172
11
1.5274676377952756
21
0.9790424409448819
0
LINE
8
BLACK
6
CONTINUOUS
10
1.5274676377952756
20
0.9790424409448819
11
1.5277559055118111
21
0.9783464566929133
0
LINE
8
BLACK
6
CONTINUOUS
10
1.5277559055118111
20
0.9783464566929133
11
1.5277559055118111
21
0.8444881889763779
0
LINE
8
BLACK
6
CONTINUOUS
10
1.5277559055118111
20
0.8444881889763779
11
1.5274676377952756
21
0.8437922047244094
0
LINE
8
BLACK
6
CONTINUOUS
10
1.5274676377952756
20
0.8437922047244094
11
1.5267716535433071
21
0.843503937007874
0
LINE
8
BLACK
6
CONTINUOUS
10
1.5267716535433071
20
0.843503937007874
11
1.4496062992125984
21
0.843503937007874
0
LINE
8
BLACK
6
CONTINUOUS
10
1.4496062992125984
20
0.843503937007874
11
1.4489103149606299
21
0.8437922047244094
0
LINE
8
BLACK
6
CONTINUOUS
10
1.4489103149606299
20
0.8437922047244094
11
1.4486220472440945
21
0.8444881889763779
0
LINE
8
BLACK
6
CONTINUOUS
10
1.4486220472440945
20
0.8444881889763779
11
1.4486220472440945
21
0.9783464566929133
0
LINE
8
BLACK
6
CONTINUOUS
10
1.4486220472440945
20
0.9783464566929133
11
1.4489103149606299
21
0.9790424409448819
0
LINE
8
BLACK
6
CONTINUOUS
10
1.4489103149606299
20
0.9790424409448819
11
1.4496062992125984
21
0.9793307086614172
0
LINE
8
BLACK
6
CONTINUOUS
10
1.4496062992125984
20
0.9793307086614172
11
1.5267716535433071
21
0.9793307086614172
0
LINE
8
BLACK
6
CONTINUOUS
10
1.4505905511811024
20
0.9773622047244094
11
1.4505905511811024
21
0.8454724409448818
0
LINE
8
BLACK
6
CONTINUOUS
10
1.4505905511811024
20
0.8454724409448818
11
1.5257874015748032
21
0.8454724409448818
0
LINE
8
BLACK
6
CONTINUOUS
10
1.5257874015748032
20
0.8454724409448818
11
1.5257874015748032
21
0.9773622047244094
0
LINE
8
BLACK
6
CONTINUOUS
10
1.5257874015748032
20
0.9773622047244094
11
1.4505905511811024
21
0.9773622047244094
0
LINE
8
BLACK
6
CONTINUOUS
10
0.8996062992125984
20
0.9883858267716535
11
0.9003022834645669
21
0.9880975590551181
0
LINE
8
BLACK
6
CONTINUOUS
10
0.9003022834645669
20
0.9880975590551181
11
0.9005905511811023
21
0.9874015748031496
0
LINE
8
BLACK
6
CONTINUOUS
10
0.9005905511811023
20
0.9874015748031496
11
0.9005905511811023
21
0.9102362204724409
0
LINE
8
BLACK
6
CONTINUOUS
10
0.9005905511811023
20
0.9102362204724409
11
0.9003022834645669
21
0.9095402362204724
0
LINE
8
BLACK
6
CONTINUOUS
10
0.9003022834645669
20
0.9095402362204724
11
0.8996062992125984
21
0.909251968503937
0
LINE
8
BLACK
6
CONTINUOUS
10
0.8996062992125984
20
0.909251968503937
11
0.765748031496063
21
0.909251968503937
0
LINE
8
BLACK
6
CONTINUOUS
10
0.765748031496063
20
0.909251968503937
11
0.7650520472440945
21
0.9095402362204724
0
LINE
8
BLACK
6
CONTINUOUS
10
0.7650520472440945
20
0.9095402362204724
11
0.764763779527559
21
0.9102362204724409
0
LINE
8
BLACK
6
CONTINUOUS
10
0.764763779527559
20
0.9102362204724409
11
0.764763779527559
21
0.9874015748031496
0
LINE
8
BLACK
6
CONTINUOUS
10
0.764763779527559
20
0.9874015748031496
11
0.7650520472440945
21
0.9880975590551181
0
LINE
8
BLACK
6
CONTINUOUS
10
0.7650520472440945
20
0.9880975590551181
11
0.765748031496063
21
0.9883858267716535
0
LINE
8
BLACK
6
CONTINUOUS
10
0.765748031496063
20
0.9883858267716535
11
0.8996062992125984
21
0.9883858267716535
0
LINE
8
BLACK
6
CONTINUOUS
10
0.7667322834645669
20
0.9864173228346457
11
0.7667322834645669
21
0.9112204724409448
0
LINE
8
BLACK
6
CONTINUOUS
10
0.7667322834645669
20
0.9112204724409448
11
0.8986220472440944
21
0.9112204724409448
0
LINE
8
BLACK
6
CONTINUOUS
10
0.8986220472440944
20
0.9112204724409448
11
0.8986220472440944
21
0.9864173228346457
0
LINE
8
BLACK
6
CONTINUOUS
10
0.8986220472440944
20
0.9864173228346457
11
0.7667322834645669
21
0.9864173228346457
0
LINE
8
BLACK
6
CONTINUOUS
10
1.0374015748031495
20
0.9883858267716535
11
1.038097559055118
21
0.9880975590551181
0
LINE
8
BLACK
6
CONTINUOUS
10
1.038097559055118
20
0.9880975590551181
11
1.0383858267716535
21
0.9874015748031496
0
LINE
8
BLACK
6
CONTINUOUS
10
1.0383858267716535
20
0.9874015748031496
11
1.0383858267716535
21
0.9102362204724409
0
LINE
8
BLACK
6
CONTINUOUS
10
1.0383858267716535
20
0.9102362204724409
11
1.038097559055118
21
0.9095402362204724
0
LINE
8
BLACK
6
CONTINUOUS
10
1.038097559055118
20
0.9095402362204724
11
1.0374015748031495
21
0.909251968503937
0
LINE
8
BLACK
6
CONTINUOUS
10
1.0374015748031495
20
0.909251968503937
11
0.9035433070866141
21
0.909251968503937
0
LINE
8
BLACK
6
CONTINUOUS
10
0.9035433070866141
20
0.909251968503937
11
0.9028473228346456
21
0.9095402362204724
0
LINE
8
BLACK
6
CONTINUOUS
10
0.9028473228346456
20
0.9095402362204724
11
0.9025590551181102
21
0.9102362204724409
0
LINE
8
BLACK
6
CONTINUOUS
10
0.9025590551181102
20
0.9102362204724409
11
0.9025590551181102
21
0.9874015748031496
0
LINE
8
BLACK
6
CONTINUOUS
10
0.9025590551181102
20
0.9874015748031496
11
0.9028473228346456
21
0.9880975590551181
0
LINE
8
BLACK
6
CONTINUOUS
10
0.9028473228346456
20
0.9880975590551181
11
0.9035433070866141
21
0.9883858267716535
0
LINE
8
BLACK
6
CONTINUOUS
10
0.9035433070866141
20
0.9883858267716535
11
1.0374015748031495
21
0.9883858267716535
0
LINE
8
BLACK
6
CONTINUOUS
10
0.9045275590551181
20
0.9864173228346457
11
0.9045275590551181
21
0.9112204724409448
0
LINE
8
BLACK
6
CONTINUOUS
10
0.9045275590551181
20
0.9112204724409448
11
1.0364173228346456
21
0.9112204724409448
0
LINE
8
BLACK
6
CONTINUOUS
10
1.0364173228346456
20
0.9112204724409448
11
1.0364173228346456
21
0.9864173228346457
0
LINE
8
BLACK
6
CONTINUOUS
10
1.0364173228346456
20
0.9864173228346457
11
0.9045275590551181
21
0.9864173228346457
0
LINE
8
BLACK
6
CONTINUOUS
10
1.4106299212598425
20
1.2738188976377953
11
1.411325905511811
21
1.2735306299212599
0
LINE
8
BLACK
6
CONTINUOUS
10
1.411325905511811
20
1.2735306299212599
11
1.4116141732283465
21
1.2728346456692914
0
LINE
8
BLACK
6
CONTINUOUS
10
1.4116141732283465
20
1.2728346456692914
11
1.4116141732283465
21
0.9476377952755906
0
LINE
8
BLACK
6
CONTINUOUS
10
1.4116141732283465
20
0.9476377952755906
11
1.411325905511811
21
0.9469418110236221
0
LINE
8
BLACK
6
CONTINUOUS
10
1.411325905511811
20
0.9469418110236221
11
1.4106299212598425
21
0.9466535433070866
0
LINE
8
BLACK
6
CONTINUOUS
10
1.4106299212598425
20
0.9466535433070866
11
1.0854330708661417
21
0.9466535433070866
0
LINE
8
BLACK
6
CONTINUOUS
10
1.0854330708661417
20
0.9466535433070866
11
1.0847370866141732
21
0.9469418110236221
0
LINE
8
BLACK
6
CONTINUOUS
10
1.0847370866141732
20
0.9469418110236221
11
1.0844488188976378
21
0.9476377952755906
0
LINE
8
BLACK
6
CONTINUOUS
10
1.0844488188976378
20
0.9476377952755906
11
1.0844488188976378
21
1.2728346456692914
0
LINE
8
BLACK
6
CONTINUOUS
10
1.0844488188976378
20
1.2728346456692914
11
1.0847370866141732
21
1.2735306299212599
0
LINE
8
BLACK
6
CONTINUOUS
10
1.0847370866141732
20
1.2735306299212599
11
1.0854330708661417
21
1.2738188976377953
0
LINE
8
BLACK
6
CONTINUOUS
10
1.0854330708661417
20
1.2738188976377953
11
1.4106299212598425
21
1.2738188976377953
0
LINE
8
BLACK
6
CONTINUOUS
10
1.0864173228346456
20
1.2718503937007875
11
1.0864173228346456
21
0.9486220472440945
0
LINE
8
BLACK
6
CONTINUOUS
10
1.0864173228346456
20
0.9486220472440945
11
1.4096456692913386
21
0.9486220472440945
0
LINE
8
BLACK
6
CONTINUOUS
10
1.4096456692913386
20
0.9486220472440945
11
1.4096456692913386
21
1.2718503937007875
0
LINE
8
BLACK
6
CONTINUOUS
10
1.4096456692913386
20
1.2718503937007875
11
1.0864173228346456
21
1.2718503937007875
0
LINE
8
BLACK
6
CONTINUOUS
10
1.6594488188976377
20
1.2088582677165354
11
1.6601448031496062
21
1.2085699999999999
0
LINE
8
BLACK
6
CONTINUOUS
10
1.6601448031496062
20
1.2085699999999999
11
1.6604330708661417
21
1.2078740157480314
0
LINE
8
BLACK
6
CONTINUOUS
10
1.6604330708661417
20
1.2078740157480314
11
1.6604330708661417
21
1.1307086614173227
0
LINE
8
BLACK
6
CONTINUOUS
10
1.6604330708661417
20
1.1307086614173227
11
1.6601448031496062
21
1.1300126771653543
0
LINE
8
BLACK
6
CONTINUOUS
10
1.6601448031496062
20
1.1300126771653543
11
1.6594488188976377
21
1.1297244094488188
0
LINE
8
BLACK
6
CONTINUOUS
10
1.6594488188976377
20
1.1297244094488188
11
1.5255905511811023
21
1.1297244094488188
0
LINE
8
BLACK
6
CONTINUOUS
10
1.5255905511811023
20
1.1297244094488188
11
1.5248945669291338
21
1.1300126771653543
0
LINE
8
BLACK
6
CONTINUOUS
10
1.5248945669291338
20
1.1300126771653543
11
1.5246062992125984
21
1.1307086614173227
0
LINE
8
BLACK
6
CONTINUOUS
10
1.5246062992125984
20
1.1307086614173227
11
1.5246062992125984
21
1.2078740157480314
0
LINE
8
BLACK
6
CONTINUOUS
10
1.5246062992125984
20
1.2078740157480314
11
1.5248945669291338
21
1.2085699999999999
0
LINE
8
BLACK
6
CONTINUOUS
10
1.5248945669291338
20
1.2085699999999999
11
1.5255905511811023
21
1.2088582677165354
0
LINE
8
BLACK
6
CONTINUOUS
10
1.5255905511811023
20
1.2088582677165354
11
1.6594488188976377
21
1.2088582677165354
0
LINE
8
BLACK
6
CONTINUOUS
10
1.5265748031496063
20
1.2068897637795275
11
1.5265748031496063
21
1.1316929133858267
0
LINE
8
BLACK
6
CONTINUOUS
10
1.5265748031496063
20
1.1316929133858267
11
1.6584645669291338
21
1.1316929133858267
0
LINE
8
BLACK
6
CONTINUOUS
10
1.6584645669291338
20
1.1316929133858267
11
1.6584645669291338
21
1.2068897637795275
0
LINE
8
BLACK
6
CONTINUOUS
10
1.6584645669291338
20
1.2068897637795275
11
1.5265748031496063
21
1.2068897637795275
0
LINE
8
BLACK
6
CONTINUOUS
10
1.6899606299212597
20
1.2885826771653544
11
1.6906566141732282
21
1.2882944094488189
0
LINE
8
BLACK
6
CONTINUOUS
10
1.6906566141732282
20
1.2882944094488189
11
1.6909448818897637
21
1.2875984251968504
0
LINE
8
BLACK
6
CONTINUOUS
10
1.6909448818897637
20
1.2875984251968504
11
1.6909448818897637
21
1.2104330708661417
0
LINE
8
BLACK
6
CONTINUOUS
10
1.6909448818897637
20
1.2104330708661417
11
1.6906566141732282
21
1.2097370866141732
0
LINE
8
BLACK
6
CONTINUOUS
10
1.6906566141732282
20
1.2097370866141732
11
1.6899606299212597
21
1.2094488188976378
0
LINE
8
BLACK
6
CONTINUOUS
10
1.6899606299212597
20
1.2094488188976378
11
1.5561023622047243
21
1.2094488188976378
0
LINE
8
BLACK
6
CONTINUOUS
10
1.5561023622047243
20
1.2094488188976378
11
1.5554063779527558
21
1.2097370866141732
0
LINE
8
BLACK
6
CONTINUOUS
10
1.5554063779527558
20
1.2097370866141732
11
1.5551181102362204
21
1.2104330708661417
0
LINE
8
BLACK
6
CONTINUOUS
10
1.5551181102362204
20
1.2104330708661417
11
1.5551181102362204
21
1.2875984251968504
0
LINE
8
BLACK
6
CONTINUOUS
10
1.5551181102362204
20
1.2875984251968504
11
1.5554063779527558
21
1.2882944094488189
0
LINE
8
BLACK
6
CONTINUOUS
10
1.5554063779527558
20
1.2882944094488189
11
1.5561023622047243
21
1.2885826771653544
0
LINE
8
BLACK
6
CONTINUOUS
10
1.5561023622047243
20
1.2885826771653544
11
1.6899606299212597
21
1.2885826771653544
0
LINE
8
BLACK
6
CONTINUOUS
10
1.5570866141732282
20
1.2866141732283465
11
1.5570866141732282
21
1.2114173228346456
0
LINE
8
BLACK
6
CONTINUOUS
10
1.5570866141732282
20
1.2114173228346456
11
1.6889763779527558
21
1.2114173228346456
0
LINE
8
BLACK
6
CONTINUOUS
10
1.6889763779527558
20
1.2114173228346456
11
1.6889763779527558
21
1.2866141732283465
0
LINE
8
BLACK
6
CONTINUOUS
10
1.6889763779527558
20
1.2866141732283465
11
1.5570866141732282
21
1.2866141732283465
0
LINE
8
BLACK
6
CONTINUOUS
10
1.3563150393700787
20
1.5654842913385827
11
1.3563698818897638
21
1.5654615748031495
0
LINE
8
BLACK
6
CONTINUOUS
10
1.3563698818897638
20
1.5654615748031495
11
1.410933937007874
21
1.5108974803149606
0
LINE
8
BLACK
6
CONTINUOUS
10
1.410933937007874
20
1.5108974803149606
11
1.4109340157480315
21
1.5108974409448819
0
LINE
8
BLACK
6
CONTINUOUS
10
1.4109340157480315
20
1.5108974409448819
11
1.4112223228346457
21
1.5102014566929134
0
LINE
8
BLACK
6
CONTINUOUS
10
1.4112223228346457
20
1.5102014566929134
11
1.4109340157480315
21
1.5095054724409449
0
LINE
8
BLACK
6
CONTINUOUS
10
1.4109340157480315
20
1.5095054724409449
11
1.3162819291338583
21
1.4148533858267716
0
LINE
8
BLACK
6
CONTINUOUS
10
1.3162819291338583
20
1.4148533858267716
11
1.3155859448818896
21
1.4145650787401574
0
LINE
8
BLACK
6
CONTINUOUS
10
1.3155859448818896
20
1.4145650787401574
11
1.3150938188976378
21
1.4147689763779527
0
LINE
8
BLACK
6
CONTINUOUS
10
1.3150938188976378
20
1.4147689763779527
11
1.3148899606299211
21
1.4148533858267716
0
LINE
8
BLACK
6
CONTINUOUS
10
1.3148899606299211
20
1.4148533858267716
11
1.3148899212598424
21
1.4148534645669291
0
LINE
8
BLACK
6
CONTINUOUS
10
1.3148899212598424
20
1.4148534645669291
11
1.2933070866141732
21
1.4364362992125983
0
LINE
8
BLACK
6
CONTINUOUS
10
1.2933070866141732
20
1.4364362992125983
11
1.2933070866141732
21
1.3063976377952755
0
LINE
8
BLACK
6
CONTINUOUS
10
1.2933070866141732
20
1.3063976377952755
11
1.2930188188976377
21
1.305701653543307
0
LINE
8
BLACK
6
CONTINUOUS
10
1.2930188188976377
20
1.305701653543307
11
1.2923228346456692
21
1.3054133858267716
0
LINE
8
BLACK
6
CONTINUOUS
10
1.2923228346456692
20
1.3054133858267716
11
1.2175196850393701
21
1.3054133858267716
0
LINE
8
BLACK
6
CONTINUOUS
10
1.2175196850393701
20
1.3054133858267716
11
1.2168237007874017
21
1.305701653543307
0
LINE
8
BLACK
6
CONTINUOUS
10
1.2168237007874017
20
1.305701653543307
11
1.2165354330708662
21
1.3063976377952755
0
LINE
8
BLACK
6
CONTINUOUS
10
1.2165354330708662
20
1.3063976377952755
11
1.2165354330708662
21
1.4386811023622046
0
LINE
8
BLACK
6
CONTINUOUS
10
1.2165354330708662
20
1.4386811023622046
11
1.2168237007874017
21
1.4393770866141733
0
LINE
8
BLACK
6
CONTINUOUS
10
1.2168237007874017
20
1.4393770866141733
11
1.2175196850393701
21
1.4396653543307085
0
LINE
8
BLACK
6
CONTINUOUS
10
1.2175196850393701
20
1.4396653543307085
11
1.2900780314960629
21
1.4396653543307085
0
LINE
8
BLACK
6
CONTINUOUS
10
1.2900780314960629
20
1.4396653543307085
11
1.2603258267716535
21
1.4694175196850394
0
LINE
8
BLACK
6
CONTINUOUS
10
1.2603258267716535
20
1.4694175196850394
11
1.2600375590551181
21
1.4701135039370079
0
LINE
8
BLACK
6
CONTINUOUS
10
1.2600375590551181
20
1.4701135039370079
11
1.2603258267716535
21
1.4708094881889764
0
LINE
8
BLACK
6
CONTINUOUS
10
1.2603258267716535
20
1.4708094881889764
11
1.3549779133858268
21
1.5654615748031495
0
LINE
8
BLACK
6
CONTINUOUS
10
1.3549779133858268
20
1.5654615748031495
11
1.3556738976377953
21
1.5657498818897637
0
LINE
8
BLACK
6
CONTINUOUS
10
1.3556738976377953
20
1.5657498818897637
11
1.3563150393700787
21
1.5654842913385827
0
LINE
8
BLACK
6
CONTINUOUS
10
1.2185039370078741
20
1.4376968503937007
11
1.2185039370078741
21
1.3073818897637794
0
LINE
8
BLACK
6
CONTINUOUS
10
1.2185039370078741
20
1.3073818897637794
11
1.2913385826771653
21
1.3073818897637794
0
LINE
8
BLACK
6
CONTINUOUS
10
1.2913385826771653
20
1.3073818897637794
11
1.2913385826771653
21
1.4376968503937007
0
LINE
8
BLACK
6
CONTINUOUS
10
1.2913385826771653
20
1.4376968503937007
11
1.2185039370078741
21
1.4376968503937007
0
LINE
8
BLACK
6
CONTINUOUS
10
1.2624137401574802
20
1.4701135039370079
11
1.3155859055118111
21
1.4169413385826772
0
LINE
8
BLACK
6
CONTINUOUS
10
1.3155859055118111
20
1.4169413385826772
11
1.408846062992126
21
1.5102014960629921
0
LINE
8
BLACK
6
CONTINUOUS
10
1.408846062992126
20
1.5102014960629921
11
1.3556738976377953
21
1.5633736614173228
0
LINE
8
BLACK
6
CONTINUOUS
10
1.3556738976377953
20
1.5633736614173228
11
1.2624137401574802
21
1.4701135039370079
0
LINE
8
BLACK
6
CONTINUOUS
10
1.4123443307086614
20
1.5092312992125985
11
1.4669083858267715
21
1.4546672047244094
0
LINE
8
BLACK
6
CONTINUOUS
10
1.4669083858267715
20
1.4546672047244094
11
1.466908464566929
21
1.4546671653543306
0
LINE
8
BLACK
6
CONTINUOUS
10
1.466908464566929
20
1.4546671653543306
11
1.4671967716535432
21
1.4539711811023621
0
LINE
8
BLACK
6
CONTINUOUS
10
1.4671967716535432
20
1.4539711811023621
11
1.466908464566929
21
1.4532751968503936
0
LINE
8
BLACK
6
CONTINUOUS
10
1.466908464566929
20
1.4532751968503936
11
1.3722563779527559
21
1.3586231102362205
0
LINE
8
BLACK
6
CONTINUOUS
10
1.3722563779527559
20
1.3586231102362205
11
1.3715603937007874
21
1.3583348031496063
0
LINE
8
BLACK
6
CONTINUOUS
10
1.3715603937007874
20
1.3583348031496063
11
1.3710682677165353
21
1.3585387007874015
0
LINE
8
BLACK
6
CONTINUOUS
10
1.3710682677165353
20
1.3585387007874015
11
1.3708644094488189
21
1.3586231102362205
0
LINE
8
BLACK
6
CONTINUOUS
10
1.3708644094488189
20
1.3586231102362205
11
1.3708643700787402
21
1.358623188976378
0
LINE
8
BLACK
6
CONTINUOUS
10
1.3708643700787402
20
1.358623188976378
11
1.3163002755905511
21
1.4131872440944881
0
LINE
8
BLACK
6
CONTINUOUS
10
1.3163002755905511
20
1.4131872440944881
11
1.3160120078740156
21
1.4138832283464566
0
LINE
8
BLACK
6
CONTINUOUS
10
1.3160120078740156
20
1.4138832283464566
11
1.3163002755905511
21
1.4145792125984251
0
LINE
8
BLACK
6
CONTINUOUS
10
1.3163002755905511
20
1.4145792125984251
11
1.4109523622047244
21
1.5092312992125985
0
LINE
8
BLACK
6
CONTINUOUS
10
1.4109523622047244
20
1.5092312992125985
11
1.4116483464566929
21
1.5095196062992127
0
LINE
8
BLACK
6
CONTINUOUS
10
1.4116483464566929
20
1.5095196062992127
11
1.4123443307086614
21
1.5092312992125985
0
LINE
8
BLACK
6
CONTINUOUS
10
1.318388188976378
20
1.4138832283464566
11
1.3715603543307087
21
1.360711062992126
0
LINE
8
BLACK
6
CONTINUOUS
10
1.3715603543307087
20
1.360711062992126
11
1.4648205118110236
21
1.4539712204724409
0
LINE
8
BLACK
6
CONTINUOUS
10
1.4648205118110236
20
1.4539712204724409
11
1.4116483464566929
21
1.5071433858267715
0
LINE
8
BLACK
6
CONTINUOUS
10
1.4116483464566929
20
1.5071433858267715
11
1.318388188976378
21
1.4138832283464566
0
LINE
8
BLACK
6
CONTINUOUS
10
1.1216263779527558
20
1.5483061023622047
11
1.2162784645669291
21
1.4536540157480315
0
LINE
8
BLACK
6
CONTINUOUS
10
1.2162784645669291
20
1.4536540157480315
11
1.2165667716535433
21
1.4529580314960631
0
LINE
8
BLACK
6
CONTINUOUS
10
1.2165667716535433
20
1.4529580314960631
11
1.2162784645669291
21
1.4522620472440944
0
LINE
8
BLACK
6
CONTINUOUS
10
1.2162784645669291
20
1.4522620472440944
11
1.2162783858267716
21
1.4522620472440944
0
LINE
8
BLACK
6
CONTINUOUS
10
1.2162783858267716
20
1.4522620472440944
11
1.1617143307086615
21
1.3976979133858267
0
LINE
8
BLACK
6
CONTINUOUS
10
1.1617143307086615
20
1.3976979133858267
11
1.161018346456693
21
1.3974096062992125
0
LINE
8
BLACK
6
CONTINUOUS
10
1.161018346456693
20
1.3974096062992125
11
1.1603223622047243
21
1.3976979133858267
0
LINE
8
BLACK
6
CONTINUOUS
10
1.1603223622047243
20
1.3976979133858267
11
1.0656702755905512
21
1.4923500000000001
0
LINE
8
BLACK
6
CONTINUOUS
10
1.0656702755905512
20
1.4923500000000001
11
1.0653820078740157
21
1.4930459842519685
0
LINE
8
BLACK
6
CONTINUOUS
10
1.0653820078740157
20
1.4930459842519685
11
1.0656702755905512
21
1.493741968503937
0
LINE
8
BLACK
6
CONTINUOUS
10
1.0656702755905512
20
1.493741968503937
11
1.12023437007874
21
1.5483060629921259
0
LINE
8
BLACK
6
CONTINUOUS
10
1.12023437007874
20
1.5483060629921259
11
1.1202344094488188
21
1.5483061023622047
0
LINE
8
BLACK
6
CONTINUOUS
10
1.1202344094488188
20
1.5483061023622047
11
1.1204382677165354
21
1.5483905511811022
0
LINE
8
BLACK
6
CONTINUOUS
10
1.1204382677165354
20
1.5483905511811022
11
1.1209303937007873
21
1.5485944094488189
0
LINE
8
BLACK
6
CONTINUOUS
10
1.1209303937007873
20
1.5485944094488189
11
1.1216263779527558
21
1.5483061023622047
0
LINE
8
BLACK
6
CONTINUOUS
10
1.0677581889763779
20
1.4930460236220473
11
1.161018346456693
21
1.3997858661417322
0
LINE
8
BLACK
6
CONTINUOUS
10
1.161018346456693
20
1.3997858661417322
11
1.2141905118110237
21
1.4529580314960631
0
LINE
8
BLACK
6
CONTINUOUS
10
1.2141905118110237
20
1.4529580314960631
11
1.1209303543307085
21
1.546218188976378
0
LINE
8
BLACK
6
CONTINUOUS
10
1.1209303543307085
20
1.546218188976378
11
1.0677581889763779
21
1.4930460236220473
0
LINE
8
BLACK
6
CONTINUOUS
10
1.2531416535433071
20
1.6657041338582677
11
1.3533614173228345
21
1.5654843307086614
0
LINE
8
BLACK
6
CONTINUOUS
10
1.3533614173228345
20
1.5654843307086614
11
1.3533614960629921
21
1.5654842913385827
0
LINE
8
BLACK
6
CONTINUOUS
10
1.3533614960629921
20
1.5654842913385827
11
1.3536497637795275
21
1.5647883070866142
0
LINE
8
BLACK
6
CONTINUOUS
10
1.3536497637795275
20
1.5647883070866142
11
1.3533614960629921
21
1.5640923228346457
0
LINE
8
BLACK
6
CONTINUOUS
10
1.3533614960629921
20
1.5640923228346457
11
1.2308705511811022
21
1.4416013779527559
0
LINE
8
BLACK
6
CONTINUOUS
10
1.2308705511811022
20
1.4416013779527559
11
1.2301745669291337
21
1.4413131102362204
0
LINE
8
BLACK
6
CONTINUOUS
10
1.2301745669291337
20
1.4413131102362204
11
1.2294785826771653
21
1.4416013779527559
0
LINE
8
BLACK
6
CONTINUOUS
10
1.2294785826771653
20
1.4416013779527559
11
1.2294785433070865
21
1.4416014566929134
0
LINE
8
BLACK
6
CONTINUOUS
10
1.2294785433070865
20
1.4416014566929134
11
1.1292587401574803
21
1.5418212204724409
0
LINE
8
BLACK
6
CONTINUOUS
10
1.1292587401574803
20
1.5418212204724409
11
1.1289704724409448
21
1.5425172047244093
0
LINE
8
BLACK
6
CONTINUOUS
10
1.1289704724409448
20
1.5425172047244093
11
1.1292587401574803
21
1.5432131889763778
0
LINE
8
BLACK
6
CONTINUOUS
10
1.1292587401574803
20
1.5432131889763778
11
1.2517496850393701
21
1.6657041338582677
0
LINE
8
BLACK
6
CONTINUOUS
10
1.2517496850393701
20
1.6657041338582677
11
1.2524456692913386
21
1.6659924015748031
0
LINE
8
BLACK
6
CONTINUOUS
10
1.2524456692913386
20
1.6659924015748031
11
1.2531416535433071
21
1.6657041338582677
0
LINE
8
BLACK
6
CONTINUOUS
10
1.131346653543307
20
1.5425172047244093
11
1.230174527559055
21
1.4436893307086613
0
LINE
8
BLACK
6
CONTINUOUS
10
1.230174527559055
20
1.4436893307086613
11
1.3512735433070866
21
1.564788346456693
0
LINE
8
BLACK
6
CONTINUOUS
10
1.3512735433070866
20
1.564788346456693
11
1.2524456692913386
21
1.663616220472441
0
LINE
8
BLACK
6
CONTINUOUS
10
1.2524456692913386
20
1.663616220472441
11
1.131346653543307
21
1.5425172047244093
0
LINE
8
BLACK
6
CONTINUOUS
10
1.3448252362204725
20
1.6914458267716534
11
1.4394773228346456
21
1.5967937401574803
0
LINE
8
BLACK
6
CONTINUOUS
10
1.4394773228346456
20
1.5967937401574803
11
1.4397656299212598
21
1.5960977559055118
0
LINE
8
BLACK
6
CONTINUOUS
10
1.4397656299212598
20
1.5960977559055118
11
1.4394773228346456
21
1.5954017716535434
0
LINE
8
BLACK
6
CONTINUOUS
10
1.4394773228346456
20
1.5954017716535434
11
1.4394772440944881
21
1.5954017716535434
0
LINE
8
BLACK
6
CONTINUOUS
10
1.4394772440944881
20
1.5954017716535434
11
1.3849131889763779
21
1.5408376377952755
0
LINE
8
BLACK
6
CONTINUOUS
10
1.3849131889763779
20
1.5408376377952755
11
1.3842172047244095
21
1.5405493307086613
0
LINE
8
BLACK
6
CONTINUOUS
10
1.3842172047244095
20
1.5405493307086613
11
1.383521220472441
21
1.5408376377952755
0
LINE
8
BLACK
6
CONTINUOUS
10
1.383521220472441
20
1.5408376377952755
11
1.2888691338582676
21
1.6354897244094488
0
LINE
8
BLACK
6
CONTINUOUS
10
1.2888691338582676
20
1.6354897244094488
11
1.2885808661417322
21
1.6361857086614173
0
LINE
8
BLACK
6
CONTINUOUS
10
1.2885808661417322
20
1.6361857086614173
11
1.2888691338582676
21
1.6368816929133858
0
LINE
8
BLACK
6
CONTINUOUS
10
1.2888691338582676
20
1.6368816929133858
11
1.3434332283464567
21
1.6914457874015747
0
LINE
8
BLACK
6
CONTINUOUS
10
1.3434332283464567
20
1.6914457874015747
11
1.3434332677165355
21
1.6914458267716534
0
LINE
8
BLACK
6
CONTINUOUS
10
1.3434332677165355
20
1.6914458267716534
11
1.3436371259842519
21
1.6915302755905512
0
LINE
8
BLACK
6
CONTINUOUS
10
1.3436371259842519
20
1.6915302755905512
11
1.344129251968504
21
1.6917341338582677
0
LINE
8
BLACK
6
CONTINUOUS
10
1.344129251968504
20
1.6917341338582677
11
1.3448252362204725
21
1.6914458267716534
0
LINE
8
BLACK
6
CONTINUOUS
10
1.2909570472440945
20
1.6361857480314961
11
1.3842172047244095
21
1.5429255905511812
0
LINE
8
BLACK
6
CONTINUOUS
10
1.3842172047244095
20
1.5429255905511812
11
1.4373893700787401
21
1.5960977559055118
0
LINE
8
BLACK
6
CONTINUOUS
10
1.4373893700787401
20
1.5960977559055118
11
1.3441292125984252
21
1.6893579133858267
0
LINE
8
BLACK
6
CONTINUOUS
10
1.3441292125984252
20
1.6893579133858267
11
1.2909570472440945
21
1.6361857480314961
  0
ENDSEC
  0
EOF
