  0
SECTION
  2
HEADER
  9
$ANGBASE
  50
0.0
  9
$ANGDIR
  70
1
  9
$MEASUREMENT
  70
0
  0
ENDSEC
  0
SECTION
  2
TABLES
  0
TABLE
  2
LTYPE
  70
4
  0
LTYPE
  5
40F
  2
CONTINUOUS
  70
0
  3
Solid line
  72
65
  73
0
  40
0.0
  0
LTYPE
  5
410
  2
DASHDOT
 70
0
  3
Dash Dot ____ _ ____ _
 72
65
 73
4
 40
2.0
 49
1.25
 49
-0.25
 49
0.25
 49
-0.25
  0
LTYPE
  5
411
  2
DASHED
 70
0
  3
Dashed __ __ __ __ __
 72
65
 73
2
 40
0.75
 49
0.5
 49
-0.25
  0
LTYPE
  5
43B
  2
DOTTED
 70
0
  3
Dotted .  .  .  .
 72
65
 73
2
 40
0.2
 49
0.0
 49
-0.2
  0
ENDTAB
  0
TABLE
  2
STYLE
  70
4
  0
STYLE
  2
KICAD
  70
0
  40
0
  41
1
  42
1
  50
0
  71
0
  3
isocp.shx
  0
STYLE
  2
KICADB
  70
0
  40
0
  41
1
  42
1
  50
0
  71
0
  3
isocp.shx
  0
STYLE
  2
KICADI
  70
0
  40
0
  41
1
  42
1
  50
15
  71
0
  3
isocp.shx
  0
STYLE
  2
KICADBI
  70
0
  40
0
  41
1
  42
1
  50
15
  71
0
  3
isocp.shx
  0
ENDTAB
  0
TABLE
  2
LAYER
  70
1
  0
LAYER
  2
BLACK
  70
0
  62
7
  6
CONTINUOUS
  0
ENDTAB
  0
ENDSEC
  0
SECTION
  2
ENTITIES
0
LINE
8
BLACK
6
CONTINUOUS
10
1.0823622047244095
20
0.2518897637795275
11
1.0223622047244094
21
0.2518897637795275
0
LINE
8
BLACK
6
CONTINUOUS
10
1.0223622047244094
20
0.2518897637795275
11
1.0223622047244094
21
0.3118897637795275
0
LINE
8
BLACK
6
CONTINUOUS
10
1.0223622047244094
20
0.3118897637795275
11
1.0823622047244095
21
0.3118897637795275
0
LINE
8
BLACK
6
CONTINUOUS
10
1.0823622047244095
20
0.3118897637795275
11
1.0823622047244095
21
0.2518897637795275
0
LINE
8
BLACK
6
CONTINUOUS
10
1.1823622047244093
20
0.2518897637795275
11
1.1223622047244095
21
0.2518897637795275
0
LINE
8
BLACK
6
CONTINUOUS
10
1.1223622047244095
20
0.2518897637795275
11
1.1223622047244095
21
0.3118897637795275
0
LINE
8
BLACK
6
CONTINUOUS
10
1.1223622047244095
20
0.3118897637795275
11
1.1823622047244093
21
0.3118897637795275
0
LINE
8
BLACK
6
CONTINUOUS
10
1.1823622047244093
20
0.3118897637795275
11
1.1823622047244093
21
0.2518897637795275
0
LINE
8
BLACK
6
CONTINUOUS
10
1.5823622047244095
20
0.2558267716535433
11
1.5223622047244094
21
0.2558267716535433
0
LINE
8
BLACK
6
CONTINUOUS
10
1.5223622047244094
20
0.2558267716535433
11
1.5223622047244094
21
0.3158267716535433
0
LINE
8
BLACK
6
CONTINUOUS
10
1.5223622047244094
20
0.3158267716535433
11
1.5823622047244095
21
0.3158267716535433
0
LINE
8
BLACK
6
CONTINUOUS
10
1.5823622047244095
20
0.3158267716535433
11
1.5823622047244095
21
0.2558267716535433
0
LINE
8
BLACK
6
CONTINUOUS
10
1.6823622047244093
20
0.2558267716535433
11
1.6223622047244095
21
0.2558267716535433
0
LINE
8
BLACK
6
CONTINUOUS
10
1.6223622047244095
20
0.2558267716535433
11
1.6223622047244095
21
0.3158267716535433
0
LINE
8
BLACK
6
CONTINUOUS
10
1.6223622047244095
20
0.3158267716535433
11
1.6823622047244093
21
0.3158267716535433
0
LINE
8
BLACK
6
CONTINUOUS
10
1.6823622047244093
20
0.3158267716535433
11
1.6823622047244093
21
0.2558267716535433
0
LINE
8
BLACK
6
CONTINUOUS
10
0.6091079527559055
20
0.3384622047244095
11
0.6135583070866142
21
0.3358927952755905
0
LINE
8
BLACK
6
CONTINUOUS
10
0.6135583070866142
20
0.3358927952755905
11
0.6171920078740157
21
0.332259094488189
0
LINE
8
BLACK
6
CONTINUOUS
10
0.6171920078740157
20
0.332259094488189
11
0.6197614173228346
21
0.3278087401574803
0
LINE
8
BLACK
6
CONTINUOUS
10
0.6197614173228346
20
0.3278087401574803
11
0.6210914173228347
21
0.322845
0
LINE
8
BLACK
6
CONTINUOUS
10
0.6210914173228347
20
0.322845
11
0.621259842519685
21
0.2809055118110236
0
LINE
8
BLACK
6
CONTINUOUS
10
0.621259842519685
20
0.2809055118110236
11
0.6210914173228347
21
0.2783361023622047
0
LINE
8
BLACK
6
CONTINUOUS
10
0.6210914173228347
20
0.2783361023622047
11
0.6197614173228346
21
0.2733723622047244
0
LINE
8
BLACK
6
CONTINUOUS
10
0.6197614173228346
20
0.2733723622047244
11
0.6171920078740157
21
0.2689220078740158
0
LINE
8
BLACK
6
CONTINUOUS
10
0.6171920078740157
20
0.2689220078740158
11
0.6135583070866142
21
0.2652883070866142
0
LINE
8
BLACK
6
CONTINUOUS
10
0.6135583070866142
20
0.2652883070866142
11
0.6091079527559055
21
0.2627188976377953
0
LINE
8
BLACK
6
CONTINUOUS
10
0.6091079527559055
20
0.2627188976377953
11
0.6041442125984252
21
0.2613888976377953
0
LINE
8
BLACK
6
CONTINUOUS
10
0.6041442125984252
20
0.2613888976377953
11
0.5990053937007874
21
0.2613888976377953
0
LINE
8
BLACK
6
CONTINUOUS
10
0.5990053937007874
20
0.2613888976377953
11
0.5940416535433071
21
0.2627188976377953
0
LINE
8
BLACK
6
CONTINUOUS
10
0.5940416535433071
20
0.2627188976377953
11
0.5895912992125985
21
0.2652883070866142
0
LINE
8
BLACK
6
CONTINUOUS
10
0.5895912992125985
20
0.2652883070866142
11
0.5859575984251968
21
0.2689220078740158
0
LINE
8
BLACK
6
CONTINUOUS
10
0.5859575984251968
20
0.2689220078740158
11
0.5833881889763779
21
0.2733723622047244
0
LINE
8
BLACK
6
CONTINUOUS
10
0.5833881889763779
20
0.2733723622047244
11
0.582058188976378
21
0.2783361023622047
0
LINE
8
BLACK
6
CONTINUOUS
10
0.582058188976378
20
0.2783361023622047
11
0.5818897637795275
21
0.3202755905511811
0
LINE
8
BLACK
6
CONTINUOUS
10
0.5818897637795275
20
0.3202755905511811
11
0.582058188976378
21
0.322845
0
LINE
8
BLACK
6
CONTINUOUS
10
0.582058188976378
20
0.322845
11
0.5833881889763779
21
0.3278087401574803
0
LINE
8
BLACK
6
CONTINUOUS
10
0.5833881889763779
20
0.3278087401574803
11
0.5859575984251968
21
0.332259094488189
0
LINE
8
BLACK
6
CONTINUOUS
10
0.5859575984251968
20
0.332259094488189
11
0.5895912992125985
21
0.3358927952755905
0
LINE
8
BLACK
6
CONTINUOUS
10
0.5895912992125985
20
0.3358927952755905
11
0.5940416535433071
21
0.3384622047244095
0
LINE
8
BLACK
6
CONTINUOUS
10
0.5940416535433071
20
0.3384622047244095
11
0.5990053937007874
21
0.3397922047244095
0
LINE
8
BLACK
6
CONTINUOUS
10
0.5990053937007874
20
0.3397922047244095
11
0.6041442125984252
21
0.3397922047244095
0
LINE
8
BLACK
6
CONTINUOUS
10
0.6041442125984252
20
0.3397922047244095
11
0.6091079527559055
21
0.3384622047244095
0
LINE
8
BLACK
6
CONTINUOUS
10
0.9492654330708661
20
0.3384622047244095
11
0.9537157874015748
21
0.3358927952755905
0
LINE
8
BLACK
6
CONTINUOUS
10
0.9537157874015748
20
0.3358927952755905
11
0.9573494881889764
21
0.332259094488189
0
LINE
8
BLACK
6
CONTINUOUS
10
0.9573494881889764
20
0.332259094488189
11
0.9599188976377953
21
0.3278087401574803
0
LINE
8
BLACK
6
CONTINUOUS
10
0.9599188976377953
20
0.3278087401574803
11
0.9612488976377953
21
0.322845
0
LINE
8
BLACK
6
CONTINUOUS
10
0.9612488976377953
20
0.322845
11
0.9614173228346456
21
0.2809055118110236
0
LINE
8
BLACK
6
CONTINUOUS
10
0.9614173228346456
20
0.2809055118110236
11
0.9612488976377953
21
0.2783361023622047
0
LINE
8
BLACK
6
CONTINUOUS
10
0.9612488976377953
20
0.2783361023622047
11
0.9599188976377953
21
0.2733723622047244
0
LINE
8
BLACK
6
CONTINUOUS
10
0.9599188976377953
20
0.2733723622047244
11
0.9573494881889764
21
0.2689220078740158
0
LINE
8
BLACK
6
CONTINUOUS
10
0.9573494881889764
20
0.2689220078740158
11
0.9537157874015748
21
0.2652883070866142
0
LINE
8
BLACK
6
CONTINUOUS
10
0.9537157874015748
20
0.2652883070866142
11
0.9492654330708661
21
0.2627188976377953
0
LINE
8
BLACK
6
CONTINUOUS
10
0.9492654330708661
20
0.2627188976377953
11
0.9443016929133858
21
0.2613888976377953
0
LINE
8
BLACK
6
CONTINUOUS
10
0.9443016929133858
20
0.2613888976377953
11
0.9391628740157481
21
0.2613888976377953
0
LINE
8
BLACK
6
CONTINUOUS
10
0.9391628740157481
20
0.2613888976377953
11
0.9341991338582677
21
0.2627188976377953
0
LINE
8
BLACK
6
CONTINUOUS
10
0.9341991338582677
20
0.2627188976377953
11
0.9297487795275591
21
0.2652883070866142
0
LINE
8
BLACK
6
CONTINUOUS
10
0.9297487795275591
20
0.2652883070866142
11
0.9261150787401574
21
0.2689220078740158
0
LINE
8
BLACK
6
CONTINUOUS
10
0.9261150787401574
20
0.2689220078740158
11
0.9235456692913385
21
0.2733723622047244
0
LINE
8
BLACK
6
CONTINUOUS
10
0.9235456692913385
20
0.2733723622047244
11
0.9222156692913386
21
0.2783361023622047
0
LINE
8
BLACK
6
CONTINUOUS
10
0.9222156692913386
20
0.2783361023622047
11
0.9220472440944881
21
0.3202755905511811
0
LINE
8
BLACK
6
CONTINUOUS
10
0.9220472440944881
20
0.3202755905511811
11
0.9222156692913386
21
0.322845
0
LINE
8
BLACK
6
CONTINUOUS
10
0.9222156692913386
20
0.322845
11
0.9235456692913385
21
0.3278087401574803
0
LINE
8
BLACK
6
CONTINUOUS
10
0.9235456692913385
20
0.3278087401574803
11
0.9261150787401574
21
0.332259094488189
0
LINE
8
BLACK
6
CONTINUOUS
10
0.9261150787401574
20
0.332259094488189
11
0.9297487795275591
21
0.3358927952755905
0
LINE
8
BLACK
6
CONTINUOUS
10
0.9297487795275591
20
0.3358927952755905
11
0.9341991338582677
21
0.3384622047244095
0
LINE
8
BLACK
6
CONTINUOUS
10
0.9341991338582677
20
0.3384622047244095
11
0.9391628740157481
21
0.3397922047244095
0
LINE
8
BLACK
6
CONTINUOUS
10
0.9391628740157481
20
0.3397922047244095
11
0.9443016929133858
21
0.3397922047244095
0
LINE
8
BLACK
6
CONTINUOUS
10
0.9443016929133858
20
0.3397922047244095
11
0.9492654330708661
21
0.3384622047244095
0
LINE
8
BLACK
6
CONTINUOUS
10
0.4141057480314961
20
0.5251920866141733
11
0.4280341338582677
21
0.5228255511811023
0
LINE
8
BLACK
6
CONTINUOUS
10
0.4280341338582677
20
0.5228255511811023
11
0.4416099606299212
21
0.5189144488188976
0
LINE
8
BLACK
6
CONTINUOUS
10
0.4416099606299212
20
0.5189144488188976
11
0.4546625196850393
21
0.513507874015748
0
LINE
8
BLACK
6
CONTINUOUS
10
0.4546625196850393
20
0.513507874015748
11
0.4670276771653543
21
0.5066738976377952
0
LINE
8
BLACK
6
CONTINUOUS
10
0.4670276771653543
20
0.5066738976377952
11
0.4785498818897638
21
0.4984984645669291
0
LINE
8
BLACK
6
CONTINUOUS
10
0.4785498818897638
20
0.4984984645669291
11
0.4890843307086614
21
0.4890843307086614
0
LINE
8
BLACK
6
CONTINUOUS
10
0.4890843307086614
20
0.4890843307086614
11
0.4984984645669291
21
0.4785498818897638
0
LINE
8
BLACK
6
CONTINUOUS
10
0.4984984645669291
20
0.4785498818897638
11
0.5066738976377952
21
0.4670276771653543
0
LINE
8
BLACK
6
CONTINUOUS
10
0.5066738976377952
20
0.4670276771653543
11
0.513507874015748
21
0.4546625196850393
0
LINE
8
BLACK
6
CONTINUOUS
10
0.513507874015748
20
0.4546625196850393
11
0.5189144488188976
21
0.4416099606299212
0
LINE
8
BLACK
6
CONTINUOUS
10
0.5189144488188976
20
0.4416099606299212
11
0.5228255511811023
21
0.4280341338582677
0
LINE
8
BLACK
6
CONTINUOUS
10
0.5228255511811023
20
0.4280341338582677
11
0.5251920866141733
21
0.4141057480314961
0
LINE
8
BLACK
6
CONTINUOUS
10
0.5251920866141733
20
0.4141057480314961
11
0.525984251968504
21
0.4
0
LINE
8
BLACK
6
CONTINUOUS
10
0.525984251968504
20
0.4
11
0.5251920866141733
21
0.3858942519685039
0
LINE
8
BLACK
6
CONTINUOUS
10
0.5251920866141733
20
0.3858942519685039
11
0.5228255511811023
21
0.3719658661417323
0
LINE
8
BLACK
6
CONTINUOUS
10
0.5228255511811023
20
0.3719658661417323
11
0.5189144488188976
21
0.3583900393700787
0
LINE
8
BLACK
6
CONTINUOUS
10
0.5189144488188976
20
0.3583900393700787
11
0.513507874015748
21
0.3453374803149606
0
LINE
8
BLACK
6
CONTINUOUS
10
0.513507874015748
20
0.3453374803149606
11
0.5066738976377952
21
0.3329723228346457
0
LINE
8
BLACK
6
CONTINUOUS
10
0.5066738976377952
20
0.3329723228346457
11
0.4984984645669291
21
0.3214501181102362
0
LINE
8
BLACK
6
CONTINUOUS
10
0.4984984645669291
20
0.3214501181102362
11
0.4890843307086614
21
0.3109156692913386
0
LINE
8
BLACK
6
CONTINUOUS
10
0.4890843307086614
20
0.3109156692913386
11
0.4785498818897638
21
0.3015015354330708
0
LINE
8
BLACK
6
CONTINUOUS
10
0.4785498818897638
20
0.3015015354330708
11
0.4670276771653543
21
0.2933261023622047
0
LINE
8
BLACK
6
CONTINUOUS
10
0.4670276771653543
20
0.2933261023622047
11
0.4546625196850393
21
0.2864921259842519
0
LINE
8
BLACK
6
CONTINUOUS
10
0.4546625196850393
20
0.2864921259842519
11
0.4416099606299212
21
0.2810855511811023
0
LINE
8
BLACK
6
CONTINUOUS
10
0.4416099606299212
20
0.2810855511811023
11
0.4280341338582677
21
0.2771744488188976
0
LINE
8
BLACK
6
CONTINUOUS
10
0.4280341338582677
20
0.2771744488188976
11
0.4141057480314961
21
0.2748079133858268
0
LINE
8
BLACK
6
CONTINUOUS
10
0.4141057480314961
20
0.2748079133858268
11
0.4
21
0.274015748031496
0
LINE
8
BLACK
6
CONTINUOUS
10
0.4
20
0.274015748031496
11
0.3858942519685039
21
0.2748079133858268
0
LINE
8
BLACK
6
CONTINUOUS
10
0.3858942519685039
20
0.2748079133858268
11
0.3719658661417323
21
0.2771744488188976
0
LINE
8
BLACK
6
CONTINUOUS
10
0.3719658661417323
20
0.2771744488188976
11
0.3583900393700787
21
0.2810855511811023
0
LINE
8
BLACK
6
CONTINUOUS
10
0.3583900393700787
20
0.2810855511811023
11
0.3453374803149606
21
0.2864921259842519
0
LINE
8
BLACK
6
CONTINUOUS
10
0.3453374803149606
20
0.2864921259842519
11
0.3329723228346457
21
0.2933261023622047
0
LINE
8
BLACK
6
CONTINUOUS
10
0.3329723228346457
20
0.2933261023622047
11
0.3214501181102362
21
0.3015015354330708
0
LINE
8
BLACK
6
CONTINUOUS
10
0.3214501181102362
20
0.3015015354330708
11
0.3109156692913386
21
0.3109156692913386
0
LINE
8
BLACK
6
CONTINUOUS
10
0.3109156692913386
20
0.3109156692913386
11
0.3015015354330708
21
0.3214501181102362
0
LINE
8
BLACK
6
CONTINUOUS
10
0.3015015354330708
20
0.3214501181102362
11
0.2933261023622047
21
0.3329723228346457
0
LINE
8
BLACK
6
CONTINUOUS
10
0.2933261023622047
20
0.3329723228346457
11
0.2864921259842519
21
0.3453374803149606
0
LINE
8
BLACK
6
CONTINUOUS
10
0.2864921259842519
20
0.3453374803149606
11
0.2810855511811023
21
0.3583900393700787
0
LINE
8
BLACK
6
CONTINUOUS
10
0.2810855511811023
20
0.3583900393700787
11
0.2771744488188976
21
0.3719658661417323
0
LINE
8
BLACK
6
CONTINUOUS
10
0.2771744488188976
20
0.3719658661417323
11
0.2748079133858268
21
0.3858942519685039
0
LINE
8
BLACK
6
CONTINUOUS
10
0.2748079133858268
20
0.3858942519685039
11
0.274015748031496
21
0.4
0
LINE
8
BLACK
6
CONTINUOUS
10
0.274015748031496
20
0.4
11
0.2748079133858268
21
0.4141057480314961
0
LINE
8
BLACK
6
CONTINUOUS
10
0.2748079133858268
20
0.4141057480314961
11
0.2771744488188976
21
0.4280341338582677
0
LINE
8
BLACK
6
CONTINUOUS
10
0.2771744488188976
20
0.4280341338582677
11
0.2810855511811023
21
0.4416099606299212
0
LINE
8
BLACK
6
CONTINUOUS
10
0.2810855511811023
20
0.4416099606299212
11
0.2864921259842519
21
0.4546625196850393
0
LINE
8
BLACK
6
CONTINUOUS
10
0.2864921259842519
20
0.4546625196850393
11
0.2933261023622047
21
0.4670276771653543
0
LINE
8
BLACK
6
CONTINUOUS
10
0.2933261023622047
20
0.4670276771653543
11
0.3015015354330708
21
0.4785498818897638
0
LINE
8
BLACK
6
CONTINUOUS
10
0.3015015354330708
20
0.4785498818897638
11
0.3109156692913386
21
0.4890843307086614
0
LINE
8
BLACK
6
CONTINUOUS
10
0.3109156692913386
20
0.4890843307086614
11
0.3214501181102362
21
0.4984984645669291
0
LINE
8
BLACK
6
CONTINUOUS
10
0.3214501181102362
20
0.4984984645669291
11
0.3329723228346457
21
0.5066738976377952
0
LINE
8
BLACK
6
CONTINUOUS
10
0.3329723228346457
20
0.5066738976377952
11
0.3453374803149606
21
0.513507874015748
0
LINE
8
BLACK
6
CONTINUOUS
10
0.3453374803149606
20
0.513507874015748
11
0.3583900393700787
21
0.5189144488188976
0
LINE
8
BLACK
6
CONTINUOUS
10
0.3583900393700787
20
0.5189144488188976
11
0.3719658661417323
21
0.5228255511811023
0
LINE
8
BLACK
6
CONTINUOUS
10
0.3719658661417323
20
0.5228255511811023
11
0.3858942519685039
21
0.5251920866141733
0
LINE
8
BLACK
6
CONTINUOUS
10
0.3858942519685039
20
0.5251920866141733
11
0.4
21
0.525984251968504
0
LINE
8
BLACK
6
CONTINUOUS
10
0.4
20
0.525984251968504
11
0.4141057480314961
21
0.5251920866141733
0
LINE
8
BLACK
6
CONTINUOUS
10
2.0141057480314961
20
0.5251920866141733
11
2.0280341338582675
21
0.5228255511811023
0
LINE
8
BLACK
6
CONTINUOUS
10
2.0280341338582675
20
0.5228255511811023
11
2.0416099606299212
21
0.5189144488188976
0
LINE
8
BLACK
6
CONTINUOUS
10
2.0416099606299212
20
0.5189144488188976
11
2.0546625196850394
21
0.513507874015748
0
LINE
8
BLACK
6
CONTINUOUS
10
2.0546625196850394
20
0.513507874015748
11
2.0670276771653544
21
0.5066738976377952
0
LINE
8
BLACK
6
CONTINUOUS
10
2.0670276771653544
20
0.5066738976377952
11
2.0785498818897636
21
0.4984984645669291
0
LINE
8
BLACK
6
CONTINUOUS
10
2.0785498818897636
20
0.4984984645669291
11
2.0890843307086615
21
0.4890843307086614
0
LINE
8
BLACK
6
CONTINUOUS
10
2.0890843307086615
20
0.4890843307086614
11
2.0984984645669291
21
0.4785498818897638
0
LINE
8
BLACK
6
CONTINUOUS
10
2.0984984645669291
20
0.4785498818897638
11
2.1066738976377954
21
0.4670276771653543
0
LINE
8
BLACK
6
CONTINUOUS
10
2.1066738976377954
20
0.4670276771653543
11
2.113507874015748
21
0.4546625196850393
0
LINE
8
BLACK
6
CONTINUOUS
10
2.113507874015748
20
0.4546625196850393
11
2.1189144488188978
21
0.4416099606299212
0
LINE
8
BLACK
6
CONTINUOUS
10
2.1189144488188978
20
0.4416099606299212
11
2.1228255511811023
21
0.4280341338582677
0
LINE
8
BLACK
6
CONTINUOUS
10
2.1228255511811023
20
0.4280341338582677
11
2.1251920866141734
21
0.4141057480314961
0
LINE
8
BLACK
6
CONTINUOUS
10
2.1251920866141734
20
0.4141057480314961
11
2.1259842519685037
21
0.4
0
LINE
8
BLACK
6
CONTINUOUS
10
2.1259842519685037
20
0.4
11
2.1251920866141734
21
0.3858942519685039
0
LINE
8
BLACK
6
CONTINUOUS
10
2.1251920866141734
20
0.3858942519685039
11
2.1228255511811023
21
0.3719658661417323
0
LINE
8
BLACK
6
CONTINUOUS
10
2.1228255511811023
20
0.3719658661417323
11
2.1189144488188978
21
0.3583900393700787
0
LINE
8
BLACK
6
CONTINUOUS
10
2.1189144488188978
20
0.3583900393700787
11
2.113507874015748
21
0.3453374803149606
0
LINE
8
BLACK
6
CONTINUOUS
10
2.113507874015748
20
0.3453374803149606
11
2.1066738976377954
21
0.3329723228346457
0
LINE
8
BLACK
6
CONTINUOUS
10
2.1066738976377954
20
0.3329723228346457
11
2.0984984645669291
21
0.3214501181102362
0
LINE
8
BLACK
6
CONTINUOUS
10
2.0984984645669291
20
0.3214501181102362
11
2.0890843307086615
21
0.3109156692913386
0
LINE
8
BLACK
6
CONTINUOUS
10
2.0890843307086615
20
0.3109156692913386
11
2.0785498818897636
21
0.3015015354330708
0
LINE
8
BLACK
6
CONTINUOUS
10
2.0785498818897636
20
0.3015015354330708
11
2.0670276771653544
21
0.2933261023622047
0
LINE
8
BLACK
6
CONTINUOUS
10
2.0670276771653544
20
0.2933261023622047
11
2.0546625196850394
21
0.2864921259842519
0
LINE
8
BLACK
6
CONTINUOUS
10
2.0546625196850394
20
0.2864921259842519
11
2.0416099606299212
21
0.2810855511811023
0
LINE
8
BLACK
6
CONTINUOUS
10
2.0416099606299212
20
0.2810855511811023
11
2.0280341338582675
21
0.2771744488188976
0
LINE
8
BLACK
6
CONTINUOUS
10
2.0280341338582675
20
0.2771744488188976
11
2.0141057480314961
21
0.2748079133858268
0
LINE
8
BLACK
6
CONTINUOUS
10
2.0141057480314961
20
0.2748079133858268
11
2.
21
0.274015748031496
0
LINE
8
BLACK
6
CONTINUOUS
10
2.
20
0.274015748031496
11
1.9858942519685039
21
0.2748079133858268
0
LINE
8
BLACK
6
CONTINUOUS
10
1.9858942519685039
20
0.2748079133858268
11
1.9719658661417323
21
0.2771744488188976
0
LINE
8
BLACK
6
CONTINUOUS
10
1.9719658661417323
20
0.2771744488188976
11
1.9583900393700786
21
0.2810855511811023
0
LINE
8
BLACK
6
CONTINUOUS
10
1.9583900393700786
20
0.2810855511811023
11
1.9453374803149606
21
0.2864921259842519
0
LINE
8
BLACK
6
CONTINUOUS
10
1.9453374803149606
20
0.2864921259842519
11
1.9329723228346456
21
0.2933261023622047
0
LINE
8
BLACK
6
CONTINUOUS
10
1.9329723228346456
20
0.2933261023622047
11
1.9214501181102361
21
0.3015015354330708
0
LINE
8
BLACK
6
CONTINUOUS
10
1.9214501181102361
20
0.3015015354330708
11
1.9109156692913385
21
0.3109156692913386
0
LINE
8
BLACK
6
CONTINUOUS
10
1.9109156692913385
20
0.3109156692913386
11
1.9015015354330709
21
0.3214501181102362
0
LINE
8
BLACK
6
CONTINUOUS
10
1.9015015354330709
20
0.3214501181102362
11
1.8933261023622048
21
0.3329723228346457
0
LINE
8
BLACK
6
CONTINUOUS
10
1.8933261023622048
20
0.3329723228346457
11
1.886492125984252
21
0.3453374803149606
0
LINE
8
BLACK
6
CONTINUOUS
10
1.886492125984252
20
0.3453374803149606
11
1.8810855511811022
21
0.3583900393700787
0
LINE
8
BLACK
6
CONTINUOUS
10
1.8810855511811022
20
0.3583900393700787
11
1.8771744488188975
21
0.3719658661417323
0
LINE
8
BLACK
6
CONTINUOUS
10
1.8771744488188975
20
0.3719658661417323
11
1.8748079133858266
21
0.3858942519685039
0
LINE
8
BLACK
6
CONTINUOUS
10
1.8748079133858266
20
0.3858942519685039
11
1.8740157480314961
21
0.4
0
LINE
8
BLACK
6
CONTINUOUS
10
1.8740157480314961
20
0.4
11
1.8748079133858266
21
0.4141057480314961
0
LINE
8
BLACK
6
CONTINUOUS
10
1.8748079133858266
20
0.4141057480314961
11
1.8771744488188975
21
0.4280341338582677
0
LINE
8
BLACK
6
CONTINUOUS
10
1.8771744488188975
20
0.4280341338582677
11
1.8810855511811022
21
0.4416099606299212
0
LINE
8
BLACK
6
CONTINUOUS
10
1.8810855511811022
20
0.4416099606299212
11
1.886492125984252
21
0.4546625196850393
0
LINE
8
BLACK
6
CONTINUOUS
10
1.886492125984252
20
0.4546625196850393
11
1.8933261023622048
21
0.4670276771653543
0
LINE
8
BLACK
6
CONTINUOUS
10
1.8933261023622048
20
0.4670276771653543
11
1.9015015354330709
21
0.4785498818897638
0
LINE
8
BLACK
6
CONTINUOUS
10
1.9015015354330709
20
0.4785498818897638
11
1.9109156692913385
21
0.4890843307086614
0
LINE
8
BLACK
6
CONTINUOUS
10
1.9109156692913385
20
0.4890843307086614
11
1.9214501181102361
21
0.4984984645669291
0
LINE
8
BLACK
6
CONTINUOUS
10
1.9214501181102361
20
0.4984984645669291
11
1.9329723228346456
21
0.5066738976377952
0
LINE
8
BLACK
6
CONTINUOUS
10
1.9329723228346456
20
0.5066738976377952
11
1.9453374803149606
21
0.513507874015748
0
LINE
8
BLACK
6
CONTINUOUS
10
1.9453374803149606
20
0.513507874015748
11
1.9583900393700786
21
0.5189144488188976
0
LINE
8
BLACK
6
CONTINUOUS
10
1.9583900393700786
20
0.5189144488188976
11
1.9719658661417323
21
0.5228255511811023
0
LINE
8
BLACK
6
CONTINUOUS
10
1.9719658661417323
20
0.5228255511811023
11
1.9858942519685039
21
0.5251920866141733
0
LINE
8
BLACK
6
CONTINUOUS
10
1.9858942519685039
20
0.5251920866141733
11
2.
21
0.525984251968504
0
LINE
8
BLACK
6
CONTINUOUS
10
2.
20
0.525984251968504
11
2.0141057480314961
21
0.5251920866141733
0
LINE
8
BLACK
6
CONTINUOUS
10
1.0823622047244095
20
0.3518897637795276
11
1.0223622047244094
21
0.3518897637795276
0
LINE
8
BLACK
6
CONTINUOUS
10
1.0223622047244094
20
0.3518897637795276
11
1.0223622047244094
21
0.4118897637795276
0
LINE
8
BLACK
6
CONTINUOUS
10
1.0223622047244094
20
0.4118897637795276
11
1.0823622047244095
21
0.4118897637795276
0
LINE
8
BLACK
6
CONTINUOUS
10
1.0823622047244095
20
0.4118897637795276
11
1.0823622047244095
21
0.3518897637795276
0
LINE
8
BLACK
6
CONTINUOUS
10
1.1823622047244093
20
0.3518897637795276
11
1.1223622047244095
21
0.3518897637795276
0
LINE
8
BLACK
6
CONTINUOUS
10
1.1223622047244095
20
0.3518897637795276
11
1.1223622047244095
21
0.4118897637795276
0
LINE
8
BLACK
6
CONTINUOUS
10
1.1223622047244095
20
0.4118897637795276
11
1.1823622047244093
21
0.4118897637795276
0
LINE
8
BLACK
6
CONTINUOUS
10
1.1823622047244093
20
0.4118897637795276
11
1.1823622047244093
21
0.3518897637795276
0
LINE
8
BLACK
6
CONTINUOUS
10
1.5823622047244095
20
0.3558267716535433
11
1.5223622047244094
21
0.3558267716535433
0
LINE
8
BLACK
6
CONTINUOUS
10
1.5223622047244094
20
0.3558267716535433
11
1.5223622047244094
21
0.4158267716535433
0
LINE
8
BLACK
6
CONTINUOUS
10
1.5223622047244094
20
0.4158267716535433
11
1.5823622047244095
21
0.4158267716535433
0
LINE
8
BLACK
6
CONTINUOUS
10
1.5823622047244095
20
0.4158267716535433
11
1.5823622047244095
21
0.3558267716535433
0
LINE
8
BLACK
6
CONTINUOUS
10
1.6823622047244093
20
0.3558267716535433
11
1.6223622047244095
21
0.3558267716535433
0
LINE
8
BLACK
6
CONTINUOUS
10
1.6223622047244095
20
0.3558267716535433
11
1.6223622047244095
21
0.4158267716535433
0
LINE
8
BLACK
6
CONTINUOUS
10
1.6223622047244095
20
0.4158267716535433
11
1.6823622047244093
21
0.4158267716535433
0
LINE
8
BLACK
6
CONTINUOUS
10
1.6823622047244093
20
0.4158267716535433
11
1.6823622047244093
21
0.3558267716535433
0
LINE
8
BLACK
6
CONTINUOUS
10
0.6094846062992126
20
0.5049227165354331
11
0.6141574803149606
21
0.502224842519685
0
LINE
8
BLACK
6
CONTINUOUS
10
0.6141574803149606
20
0.502224842519685
11
0.617972874015748
21
0.4984094488188976
0
LINE
8
BLACK
6
CONTINUOUS
10
0.617972874015748
20
0.4984094488188976
11
0.620670748031496
21
0.4937365748031496
0
LINE
8
BLACK
6
CONTINUOUS
10
0.620670748031496
20
0.4937365748031496
11
0.622067283464567
21
0.4885246456692913
0
LINE
8
BLACK
6
CONTINUOUS
10
0.622067283464567
20
0.4885246456692913
11
0.622244094488189
21
0.4444881889763779
0
LINE
8
BLACK
6
CONTINUOUS
10
0.622244094488189
20
0.4444881889763779
11
0.622067283464567
21
0.4417903149606299
0
LINE
8
BLACK
6
CONTINUOUS
10
0.622067283464567
20
0.4417903149606299
11
0.620670748031496
21
0.4365783858267717
0
LINE
8
BLACK
6
CONTINUOUS
10
0.620670748031496
20
0.4365783858267717
11
0.617972874015748
21
0.4319055118110236
0
LINE
8
BLACK
6
CONTINUOUS
10
0.617972874015748
20
0.4319055118110236
11
0.6141574803149606
21
0.4280901181102362
0
LINE
8
BLACK
6
CONTINUOUS
10
0.6141574803149606
20
0.4280901181102362
11
0.6094846062992126
21
0.4253922440944882
0
LINE
8
BLACK
6
CONTINUOUS
10
0.6094846062992126
20
0.4253922440944882
11
0.6042726771653543
21
0.4239957086614173
0
LINE
8
BLACK
6
CONTINUOUS
10
0.6042726771653543
20
0.4239957086614173
11
0.5988769291338583
21
0.4239957086614173
0
LINE
8
BLACK
6
CONTINUOUS
10
0.5988769291338583
20
0.4239957086614173
11
0.593665
21
0.4253922440944882
0
LINE
8
BLACK
6
CONTINUOUS
10
0.593665
20
0.4253922440944882
11
0.588992125984252
21
0.4280901181102362
0
LINE
8
BLACK
6
CONTINUOUS
10
0.588992125984252
20
0.4280901181102362
11
0.5851767322834646
21
0.4319055118110236
0
LINE
8
BLACK
6
CONTINUOUS
10
0.5851767322834646
20
0.4319055118110236
11
0.5824788582677165
21
0.4365783858267717
0
LINE
8
BLACK
6
CONTINUOUS
10
0.5824788582677165
20
0.4365783858267717
11
0.5810823228346457
21
0.4417903149606299
0
LINE
8
BLACK
6
CONTINUOUS
10
0.5810823228346457
20
0.4417903149606299
11
0.5809055118110236
21
0.4858267716535433
0
LINE
8
BLACK
6
CONTINUOUS
10
0.5809055118110236
20
0.4858267716535433
11
0.5810823228346457
21
0.4885246456692913
0
LINE
8
BLACK
6
CONTINUOUS
10
0.5810823228346457
20
0.4885246456692913
11
0.5824788582677165
21
0.4937365748031496
0
LINE
8
BLACK
6
CONTINUOUS
10
0.5824788582677165
20
0.4937365748031496
11
0.5851767322834646
21
0.4984094488188976
0
LINE
8
BLACK
6
CONTINUOUS
10
0.5851767322834646
20
0.4984094488188976
11
0.588992125984252
21
0.502224842519685
0
LINE
8
BLACK
6
CONTINUOUS
10
0.588992125984252
20
0.502224842519685
11
0.593665
21
0.5049227165354331
0
LINE
8
BLACK
6
CONTINUOUS
10
0.593665
20
0.5049227165354331
11
0.5988769291338583
21
0.5063192519685039
0
LINE
8
BLACK
6
CONTINUOUS
10
0.5988769291338583
20
0.5063192519685039
11
0.6042726771653543
21
0.5063192519685039
0
LINE
8
BLACK
6
CONTINUOUS
10
0.6042726771653543
20
0.5063192519685039
11
0.6094846062992126
21
0.5049227165354331
0
LINE
8
BLACK
6
CONTINUOUS
10
0.9496420866141732
20
0.5049227165354331
11
0.9543149606299213
21
0.502224842519685
0
LINE
8
BLACK
6
CONTINUOUS
10
0.9543149606299213
20
0.502224842519685
11
0.9581303543307086
21
0.4984094488188976
0
LINE
8
BLACK
6
CONTINUOUS
10
0.9581303543307086
20
0.4984094488188976
11
0.9608282283464566
21
0.4937365748031496
0
LINE
8
BLACK
6
CONTINUOUS
10
0.9608282283464566
20
0.4937365748031496
11
0.9622247637795276
21
0.4885246456692913
0
LINE
8
BLACK
6
CONTINUOUS
10
0.9622247637795276
20
0.4885246456692913
11
0.9624015748031496
21
0.4444881889763779
0
LINE
8
BLACK
6
CONTINUOUS
10
0.9624015748031496
20
0.4444881889763779
11
0.9622247637795276
21
0.4417903149606299
0
LINE
8
BLACK
6
CONTINUOUS
10
0.9622247637795276
20
0.4417903149606299
11
0.9608282283464566
21
0.4365783858267717
0
LINE
8
BLACK
6
CONTINUOUS
10
0.9608282283464566
20
0.4365783858267717
11
0.9581303543307086
21
0.4319055118110236
0
LINE
8
BLACK
6
CONTINUOUS
10
0.9581303543307086
20
0.4319055118110236
11
0.9543149606299213
21
0.4280901181102362
0
LINE
8
BLACK
6
CONTINUOUS
10
0.9543149606299213
20
0.4280901181102362
11
0.9496420866141732
21
0.4253922440944882
0
LINE
8
BLACK
6
CONTINUOUS
10
0.9496420866141732
20
0.4253922440944882
11
0.9444301574803149
21
0.4239957086614173
0
LINE
8
BLACK
6
CONTINUOUS
10
0.9444301574803149
20
0.4239957086614173
11
0.9390344094488189
21
0.4239957086614173
0
LINE
8
BLACK
6
CONTINUOUS
10
0.9390344094488189
20
0.4239957086614173
11
0.9338224803149606
21
0.4253922440944882
0
LINE
8
BLACK
6
CONTINUOUS
10
0.9338224803149606
20
0.4253922440944882
11
0.9291496062992126
21
0.4280901181102362
0
LINE
8
BLACK
6
CONTINUOUS
10
0.9291496062992126
20
0.4280901181102362
11
0.9253342125984252
21
0.4319055118110236
0
LINE
8
BLACK
6
CONTINUOUS
10
0.9253342125984252
20
0.4319055118110236
11
0.9226363385826771
21
0.4365783858267717
0
LINE
8
BLACK
6
CONTINUOUS
10
0.9226363385826771
20
0.4365783858267717
11
0.9212398031496063
21
0.4417903149606299
0
LINE
8
BLACK
6
CONTINUOUS
10
0.9212398031496063
20
0.4417903149606299
11
0.9210629921259842
21
0.4858267716535433
0
LINE
8
BLACK
6
CONTINUOUS
10
0.9210629921259842
20
0.4858267716535433
11
0.9212398031496063
21
0.4885246456692913
0
LINE
8
BLACK
6
CONTINUOUS
10
0.9212398031496063
20
0.4885246456692913
11
0.9226363385826771
21
0.4937365748031496
0
LINE
8
BLACK
6
CONTINUOUS
10
0.9226363385826771
20
0.4937365748031496
11
0.9253342125984252
21
0.4984094488188976
0
LINE
8
BLACK
6
CONTINUOUS
10
0.9253342125984252
20
0.4984094488188976
11
0.9291496062992126
21
0.502224842519685
0
LINE
8
BLACK
6
CONTINUOUS
10
0.9291496062992126
20
0.502224842519685
11
0.9338224803149606
21
0.5049227165354331
0
LINE
8
BLACK
6
CONTINUOUS
10
0.9338224803149606
20
0.5049227165354331
11
0.9390344094488189
21
0.5063192519685039
0
LINE
8
BLACK
6
CONTINUOUS
10
0.9390344094488189
20
0.5063192519685039
11
0.9444301574803149
21
0.5063192519685039
0
LINE
8
BLACK
6
CONTINUOUS
10
0.9444301574803149
20
0.5063192519685039
11
0.9496420866141732
21
0.5049227165354331
0
LINE
8
BLACK
6
CONTINUOUS
10
0.6642716535433071
20
0.4565534645669291
11
0.6676757480314961
21
0.4536970866141732
0
LINE
8
BLACK
6
CONTINUOUS
10
0.6676757480314961
20
0.4536970866141732
11
0.6698976377952756
21
0.4498487007874016
0
LINE
8
BLACK
6
CONTINUOUS
10
0.6698976377952756
20
0.4498487007874016
11
0.6706692913385827
21
0.4454724409448819
0
LINE
8
BLACK
6
CONTINUOUS
10
0.6706692913385827
20
0.4454724409448819
11
0.6698976377952756
21
0.4410961811023622
0
LINE
8
BLACK
6
CONTINUOUS
10
0.6698976377952756
20
0.4410961811023622
11
0.6676757480314961
21
0.4372477952755905
0
LINE
8
BLACK
6
CONTINUOUS
10
0.6676757480314961
20
0.4372477952755905
11
0.6642716535433071
21
0.4343914173228346
0
LINE
8
BLACK
6
CONTINUOUS
10
0.6642716535433071
20
0.4343914173228346
11
0.660095905511811
21
0.4328715354330708
0
LINE
8
BLACK
6
CONTINUOUS
10
0.660095905511811
20
0.4328715354330708
11
0.6556521259842519
21
0.4328715354330708
0
LINE
8
BLACK
6
CONTINUOUS
10
0.6556521259842519
20
0.4328715354330708
11
0.6514763779527559
21
0.4343914173228346
0
LINE
8
BLACK
6
CONTINUOUS
10
0.6514763779527559
20
0.4343914173228346
11
0.6480722834645669
21
0.4372477952755905
0
LINE
8
BLACK
6
CONTINUOUS
10
0.6480722834645669
20
0.4372477952755905
11
0.6458503937007873
21
0.4410961811023622
0
LINE
8
BLACK
6
CONTINUOUS
10
0.6458503937007873
20
0.4410961811023622
11
0.6450787401574803
21
0.4454724409448819
0
LINE
8
BLACK
6
CONTINUOUS
10
0.6450787401574803
20
0.4454724409448819
11
0.6458503937007873
21
0.4498487007874016
0
LINE
8
BLACK
6
CONTINUOUS
10
0.6458503937007873
20
0.4498487007874016
11
0.6480722834645669
21
0.4536970866141732
0
LINE
8
BLACK
6
CONTINUOUS
10
0.6480722834645669
20
0.4536970866141732
11
0.6514763779527559
21
0.4565534645669291
0
LINE
8
BLACK
6
CONTINUOUS
10
0.6514763779527559
20
0.4565534645669291
11
0.6556521259842519
21
0.4580733464566929
0
LINE
8
BLACK
6
CONTINUOUS
10
0.6556521259842519
20
0.4580733464566929
11
0.660095905511811
21
0.4580733464566929
0
LINE
8
BLACK
6
CONTINUOUS
10
0.660095905511811
20
0.4580733464566929
11
0.6642716535433071
21
0.4565534645669291
0
LINE
8
BLACK
6
CONTINUOUS
10
0.8918307086614173
20
0.4565534645669291
11
0.8952348031496062
21
0.4536970866141732
0
LINE
8
BLACK
6
CONTINUOUS
10
0.8952348031496062
20
0.4536970866141732
11
0.8974566929133858
21
0.4498487007874016
0
LINE
8
BLACK
6
CONTINUOUS
10
0.8974566929133858
20
0.4498487007874016
11
0.8982283464566929
21
0.4454724409448819
0
LINE
8
BLACK
6
CONTINUOUS
10
0.8982283464566929
20
0.4454724409448819
11
0.8974566929133858
21
0.4410961811023622
0
LINE
8
BLACK
6
CONTINUOUS
10
0.8974566929133858
20
0.4410961811023622
11
0.8952348031496062
21
0.4372477952755905
0
LINE
8
BLACK
6
CONTINUOUS
10
0.8952348031496062
20
0.4372477952755905
11
0.8918307086614173
21
0.4343914173228346
0
LINE
8
BLACK
6
CONTINUOUS
10
0.8918307086614173
20
0.4343914173228346
11
0.8876549606299212
21
0.4328715354330708
0
LINE
8
BLACK
6
CONTINUOUS
10
0.8876549606299212
20
0.4328715354330708
11
0.8832111811023622
21
0.4328715354330708
0
LINE
8
BLACK
6
CONTINUOUS
10
0.8832111811023622
20
0.4328715354330708
11
0.8790354330708661
21
0.4343914173228346
0
LINE
8
BLACK
6
CONTINUOUS
10
0.8790354330708661
20
0.4343914173228346
11
0.8756313385826772
21
0.4372477952755905
0
LINE
8
BLACK
6
CONTINUOUS
10
0.8756313385826772
20
0.4372477952755905
11
0.8734094488188976
21
0.4410961811023622
0
LINE
8
BLACK
6
CONTINUOUS
10
0.8734094488188976
20
0.4410961811023622
11
0.8726377952755905
21
0.4454724409448819
0
LINE
8
BLACK
6
CONTINUOUS
10
0.8726377952755905
20
0.4454724409448819
11
0.8734094488188976
21
0.4498487007874016
0
LINE
8
BLACK
6
CONTINUOUS
10
0.8734094488188976
20
0.4498487007874016
11
0.8756313385826772
21
0.4536970866141732
0
LINE
8
BLACK
6
CONTINUOUS
10
0.8756313385826772
20
0.4536970866141732
11
0.8790354330708661
21
0.4565534645669291
0
LINE
8
BLACK
6
CONTINUOUS
10
0.8790354330708661
20
0.4565534645669291
11
0.8832111811023622
21
0.4580733464566929
0
LINE
8
BLACK
6
CONTINUOUS
10
0.8832111811023622
20
0.4580733464566929
11
0.8876549606299212
21
0.4580733464566929
0
LINE
8
BLACK
6
CONTINUOUS
10
0.8876549606299212
20
0.4580733464566929
11
0.8918307086614173
21
0.4565534645669291
0
LINE
8
BLACK
6
CONTINUOUS
10
1.0823622047244095
20
0.4518897637795276
11
1.0223622047244094
21
0.4518897637795276
0
LINE
8
BLACK
6
CONTINUOUS
10
1.0223622047244094
20
0.4518897637795276
11
1.0223622047244094
21
0.5118897637795276
0
LINE
8
BLACK
6
CONTINUOUS
10
1.0223622047244094
20
0.5118897637795276
11
1.0823622047244095
21
0.5118897637795276
0
LINE
8
BLACK
6
CONTINUOUS
10
1.0823622047244095
20
0.5118897637795276
11
1.0823622047244095
21
0.4518897637795276
0
LINE
8
BLACK
6
CONTINUOUS
10
1.1823622047244093
20
0.4518897637795276
11
1.1223622047244095
21
0.4518897637795276
0
LINE
8
BLACK
6
CONTINUOUS
10
1.1223622047244095
20
0.4518897637795276
11
1.1223622047244095
21
0.5118897637795276
0
LINE
8
BLACK
6
CONTINUOUS
10
1.1223622047244095
20
0.5118897637795276
11
1.1823622047244093
21
0.5118897637795276
0
LINE
8
BLACK
6
CONTINUOUS
10
1.1823622047244093
20
0.5118897637795276
11
1.1823622047244093
21
0.4518897637795276
0
LINE
8
BLACK
6
CONTINUOUS
10
1.5823622047244095
20
0.4558267716535433
11
1.5223622047244094
21
0.4558267716535433
0
LINE
8
BLACK
6
CONTINUOUS
10
1.5223622047244094
20
0.4558267716535433
11
1.5223622047244094
21
0.5158267716535433
0
LINE
8
BLACK
6
CONTINUOUS
10
1.5223622047244094
20
0.5158267716535433
11
1.5823622047244095
21
0.5158267716535433
0
LINE
8
BLACK
6
CONTINUOUS
10
1.5823622047244095
20
0.5158267716535433
11
1.5823622047244095
21
0.4558267716535433
0
LINE
8
BLACK
6
CONTINUOUS
10
1.6823622047244093
20
0.4558267716535433
11
1.6223622047244095
21
0.4558267716535433
0
LINE
8
BLACK
6
CONTINUOUS
10
1.6223622047244095
20
0.4558267716535433
11
1.6223622047244095
21
0.5158267716535433
0
LINE
8
BLACK
6
CONTINUOUS
10
1.6223622047244095
20
0.5158267716535433
11
1.6823622047244093
21
0.5158267716535433
0
LINE
8
BLACK
6
CONTINUOUS
10
1.6823622047244093
20
0.5158267716535433
11
1.6823622047244093
21
0.4558267716535433
0
LINE
8
BLACK
6
CONTINUOUS
10
1.4636129921259842
20
0.6991768897637796
11
1.4703868897637795
21
0.6963710629921259
0
LINE
8
BLACK
6
CONTINUOUS
10
1.4703868897637795
20
0.6963710629921259
11
1.4764832283464566
21
0.6922976377952755
0
LINE
8
BLACK
6
CONTINUOUS
10
1.4764832283464566
20
0.6922976377952755
11
1.4816677165354331
21
0.6871131496062992
0
LINE
8
BLACK
6
CONTINUOUS
10
1.4816677165354331
20
0.6871131496062992
11
1.4857411417322834
21
0.681016811023622
0
LINE
8
BLACK
6
CONTINUOUS
10
1.4857411417322834
20
0.681016811023622
11
1.488546968503937
21
0.6742429133858268
0
LINE
8
BLACK
6
CONTINUOUS
10
1.488546968503937
20
0.6742429133858268
11
1.4899773622047243
21
0.667051811023622
0
LINE
8
BLACK
6
CONTINUOUS
10
1.4899773622047243
20
0.667051811023622
11
1.4901574803149606
21
0.6437007874015748
0
LINE
8
BLACK
6
CONTINUOUS
10
1.4901574803149606
20
0.6437007874015748
11
1.4899773622047243
21
0.6400348031496063
0
LINE
8
BLACK
6
CONTINUOUS
10
1.4899773622047243
20
0.6400348031496063
11
1.488546968503937
21
0.6328437007874016
0
LINE
8
BLACK
6
CONTINUOUS
10
1.488546968503937
20
0.6328437007874016
11
1.4857411417322834
21
0.6260698031496063
0
LINE
8
BLACK
6
CONTINUOUS
10
1.4857411417322834
20
0.6260698031496063
11
1.4816677165354331
21
0.6199734645669291
0
LINE
8
BLACK
6
CONTINUOUS
10
1.4816677165354331
20
0.6199734645669291
11
1.4764832283464566
21
0.6147889763779527
0
LINE
8
BLACK
6
CONTINUOUS
10
1.4764832283464566
20
0.6147889763779527
11
1.4703868897637795
21
0.6107155511811023
0
LINE
8
BLACK
6
CONTINUOUS
10
1.4703868897637795
20
0.6107155511811023
11
1.4636129921259842
21
0.6079097244094488
0
LINE
8
BLACK
6
CONTINUOUS
10
1.4636129921259842
20
0.6079097244094488
11
1.4564218897637795
21
0.6064793307086614
0
LINE
8
BLACK
6
CONTINUOUS
10
1.4564218897637795
20
0.6064793307086614
11
1.4490899212598425
21
0.6064793307086614
0
LINE
8
BLACK
6
CONTINUOUS
10
1.4490899212598425
20
0.6064793307086614
11
1.4418988188976378
21
0.6079097244094488
0
LINE
8
BLACK
6
CONTINUOUS
10
1.4418988188976378
20
0.6079097244094488
11
1.4351249212598425
21
0.6107155511811023
0
LINE
8
BLACK
6
CONTINUOUS
10
1.4351249212598425
20
0.6107155511811023
11
1.4290285826771654
21
0.6147889763779527
0
LINE
8
BLACK
6
CONTINUOUS
10
1.4290285826771654
20
0.6147889763779527
11
1.4238440944881889
21
0.6199734645669291
0
LINE
8
BLACK
6
CONTINUOUS
10
1.4238440944881889
20
0.6199734645669291
11
1.4197706692913385
21
0.6260698031496063
0
LINE
8
BLACK
6
CONTINUOUS
10
1.4197706692913385
20
0.6260698031496063
11
1.416964842519685
21
0.6328437007874016
0
LINE
8
BLACK
6
CONTINUOUS
10
1.416964842519685
20
0.6328437007874016
11
1.4155344488188977
21
0.6400348031496063
0
LINE
8
BLACK
6
CONTINUOUS
10
1.4155344488188977
20
0.6400348031496063
11
1.4153543307086613
21
0.6633858267716535
0
LINE
8
BLACK
6
CONTINUOUS
10
1.4153543307086613
20
0.6633858267716535
11
1.4155344488188977
21
0.667051811023622
0
LINE
8
BLACK
6
CONTINUOUS
10
1.4155344488188977
20
0.667051811023622
11
1.416964842519685
21
0.6742429133858268
0
LINE
8
BLACK
6
CONTINUOUS
10
1.416964842519685
20
0.6742429133858268
11
1.4197706692913385
21
0.681016811023622
0
LINE
8
BLACK
6
CONTINUOUS
10
1.4197706692913385
20
0.681016811023622
11
1.4238440944881889
21
0.6871131496062992
0
LINE
8
BLACK
6
CONTINUOUS
10
1.4238440944881889
20
0.6871131496062992
11
1.4290285826771654
21
0.6922976377952755
0
LINE
8
BLACK
6
CONTINUOUS
10
1.4290285826771654
20
0.6922976377952755
11
1.4351249212598425
21
0.6963710629921259
0
LINE
8
BLACK
6
CONTINUOUS
10
1.4351249212598425
20
0.6963710629921259
11
1.4418988188976378
21
0.6991768897637796
0
LINE
8
BLACK
6
CONTINUOUS
10
1.4418988188976378
20
0.6991768897637796
11
1.4490899212598425
21
0.7006072834645669
0
LINE
8
BLACK
6
CONTINUOUS
10
1.4490899212598425
20
0.7006072834645669
11
1.4564218897637795
21
0.7006072834645669
0
LINE
8
BLACK
6
CONTINUOUS
10
1.4564218897637795
20
0.7006072834645669
11
1.4636129921259842
21
0.6991768897637796
0
LINE
8
BLACK
6
CONTINUOUS
10
1.6683374015748031
20
0.6991768897637796
11
1.6751112992125985
21
0.6963710629921259
0
LINE
8
BLACK
6
CONTINUOUS
10
1.6751112992125985
20
0.6963710629921259
11
1.6812076377952756
21
0.6922976377952755
0
LINE
8
BLACK
6
CONTINUOUS
10
1.6812076377952756
20
0.6922976377952755
11
1.686392125984252
21
0.6871131496062992
0
LINE
8
BLACK
6
CONTINUOUS
10
1.686392125984252
20
0.6871131496062992
11
1.6904655511811024
21
0.681016811023622
0
LINE
8
BLACK
6
CONTINUOUS
10
1.6904655511811024
20
0.681016811023622
11
1.693271377952756
21
0.6742429133858268
0
LINE
8
BLACK
6
CONTINUOUS
10
1.693271377952756
20
0.6742429133858268
11
1.6947017716535433
21
0.667051811023622
0
LINE
8
BLACK
6
CONTINUOUS
10
1.6947017716535433
20
0.667051811023622
11
1.6948818897637794
21
0.6437007874015748
0
LINE
8
BLACK
6
CONTINUOUS
10
1.6948818897637794
20
0.6437007874015748
11
1.6947017716535433
21
0.6400348031496063
0
LINE
8
BLACK
6
CONTINUOUS
10
1.6947017716535433
20
0.6400348031496063
11
1.693271377952756
21
0.6328437007874016
0
LINE
8
BLACK
6
CONTINUOUS
10
1.693271377952756
20
0.6328437007874016
11
1.6904655511811024
21
0.6260698031496063
0
LINE
8
BLACK
6
CONTINUOUS
10
1.6904655511811024
20
0.6260698031496063
11
1.686392125984252
21
0.6199734645669291
0
LINE
8
BLACK
6
CONTINUOUS
10
1.686392125984252
20
0.6199734645669291
11
1.6812076377952756
21
0.6147889763779527
0
LINE
8
BLACK
6
CONTINUOUS
10
1.6812076377952756
20
0.6147889763779527
11
1.6751112992125985
21
0.6107155511811023
0
LINE
8
BLACK
6
CONTINUOUS
10
1.6751112992125985
20
0.6107155511811023
11
1.6683374015748031
21
0.6079097244094488
0
LINE
8
BLACK
6
CONTINUOUS
10
1.6683374015748031
20
0.6079097244094488
11
1.6611462992125985
21
0.6064793307086614
0
LINE
8
BLACK
6
CONTINUOUS
10
1.6611462992125985
20
0.6064793307086614
11
1.6538143307086615
21
0.6064793307086614
0
LINE
8
BLACK
6
CONTINUOUS
10
1.6538143307086615
20
0.6064793307086614
11
1.6466232283464566
21
0.6079097244094488
0
LINE
8
BLACK
6
CONTINUOUS
10
1.6466232283464566
20
0.6079097244094488
11
1.6398493307086615
21
0.6107155511811023
0
LINE
8
BLACK
6
CONTINUOUS
10
1.6398493307086615
20
0.6107155511811023
11
1.6337529921259841
21
0.6147889763779527
0
LINE
8
BLACK
6
CONTINUOUS
10
1.6337529921259841
20
0.6147889763779527
11
1.6285685039370079
21
0.6199734645669291
0
LINE
8
BLACK
6
CONTINUOUS
10
1.6285685039370079
20
0.6199734645669291
11
1.6244950787401575
21
0.6260698031496063
0
LINE
8
BLACK
6
CONTINUOUS
10
1.6244950787401575
20
0.6260698031496063
11
1.621689251968504
21
0.6328437007874016
0
LINE
8
BLACK
6
CONTINUOUS
10
1.621689251968504
20
0.6328437007874016
11
1.6202588582677164
21
0.6400348031496063
0
LINE
8
BLACK
6
CONTINUOUS
10
1.6202588582677164
20
0.6400348031496063
11
1.6200787401574803
21
0.6633858267716535
0
LINE
8
BLACK
6
CONTINUOUS
10
1.6200787401574803
20
0.6633858267716535
11
1.6202588582677164
21
0.667051811023622
0
LINE
8
BLACK
6
CONTINUOUS
10
1.6202588582677164
20
0.667051811023622
11
1.621689251968504
21
0.6742429133858268
0
LINE
8
BLACK
6
CONTINUOUS
10
1.621689251968504
20
0.6742429133858268
11
1.6244950787401575
21
0.681016811023622
0
LINE
8
BLACK
6
CONTINUOUS
10
1.6244950787401575
20
0.681016811023622
11
1.6285685039370079
21
0.6871131496062992
0
LINE
8
BLACK
6
CONTINUOUS
10
1.6285685039370079
20
0.6871131496062992
11
1.6337529921259841
21
0.6922976377952755
0
LINE
8
BLACK
6
CONTINUOUS
10
1.6337529921259841
20
0.6922976377952755
11
1.6398493307086615
21
0.6963710629921259
0
LINE
8
BLACK
6
CONTINUOUS
10
1.6398493307086615
20
0.6963710629921259
11
1.6466232283464566
21
0.6991768897637796
0
LINE
8
BLACK
6
CONTINUOUS
10
1.6466232283464566
20
0.6991768897637796
11
1.6538143307086615
21
0.7006072834645669
0
LINE
8
BLACK
6
CONTINUOUS
10
1.6538143307086615
20
0.7006072834645669
11
1.6611462992125985
21
0.7006072834645669
0
LINE
8
BLACK
6
CONTINUOUS
10
1.6611462992125985
20
0.7006072834645669
11
1.6683374015748031
21
0.6991768897637796
0
LINE
8
BLACK
6
CONTINUOUS
10
0.3208661417322834
20
0.6535433070866141
11
0.2795275590551181
21
0.6535433070866141
0
LINE
8
BLACK
6
CONTINUOUS
10
0.2795275590551181
20
0.6535433070866141
11
0.2795275590551181
21
0.6791338582677166
0
LINE
8
BLACK
6
CONTINUOUS
10
0.2795275590551181
20
0.6791338582677166
11
0.3208661417322834
21
0.6791338582677166
0
LINE
8
BLACK
6
CONTINUOUS
10
0.3208661417322834
20
0.6791338582677166
11
0.3208661417322834
21
0.6535433070866141
0
LINE
8
BLACK
6
CONTINUOUS
10
0.484251968503937
20
0.6535433070866141
11
0.4429133858267716
21
0.6535433070866141
0
LINE
8
BLACK
6
CONTINUOUS
10
0.4429133858267716
20
0.6535433070866141
11
0.4429133858267716
21
0.6791338582677166
0
LINE
8
BLACK
6
CONTINUOUS
10
0.4429133858267716
20
0.6791338582677166
11
0.484251968503937
21
0.6791338582677166
0
LINE
8
BLACK
6
CONTINUOUS
10
0.484251968503937
20
0.6791338582677166
11
0.484251968503937
21
0.6535433070866141
0
LINE
8
BLACK
6
CONTINUOUS
10
1.9547244094488188
20
0.6535433070866141
11
1.9133858267716535
21
0.6535433070866141
0
LINE
8
BLACK
6
CONTINUOUS
10
1.9133858267716535
20
0.6535433070866141
11
1.9133858267716535
21
0.6791338582677166
0
LINE
8
BLACK
6
CONTINUOUS
10
1.9133858267716535
20
0.6791338582677166
11
1.9547244094488188
21
0.6791338582677166
0
LINE
8
BLACK
6
CONTINUOUS
10
1.9547244094488188
20
0.6791338582677166
11
1.9547244094488188
21
0.6535433070866141
0
LINE
8
BLACK
6
CONTINUOUS
10
2.1171259842519685
20
0.6535433070866141
11
2.0757874015748032
21
0.6535433070866141
0
LINE
8
BLACK
6
CONTINUOUS
10
2.0757874015748032
20
0.6535433070866141
11
2.0757874015748032
21
0.6791338582677166
0
LINE
8
BLACK
6
CONTINUOUS
10
2.0757874015748032
20
0.6791338582677166
11
2.1171259842519685
21
0.6791338582677166
0
LINE
8
BLACK
6
CONTINUOUS
10
2.1171259842519685
20
0.6791338582677166
11
2.1171259842519685
21
0.6535433070866141
0
LINE
8
BLACK
6
CONTINUOUS
10
0.3218503937007874
20
0.7381889763779528
11
0.280511811023622
21
0.7381889763779528
0
LINE
8
BLACK
6
CONTINUOUS
10
0.280511811023622
20
0.7381889763779528
11
0.280511811023622
21
0.7637795275590551
0
LINE
8
BLACK
6
CONTINUOUS
10
0.280511811023622
20
0.7637795275590551
11
0.3218503937007874
21
0.7637795275590551
0
LINE
8
BLACK
6
CONTINUOUS
10
0.3218503937007874
20
0.7637795275590551
11
0.3218503937007874
21
0.7381889763779528
0
LINE
8
BLACK
6
CONTINUOUS
10
0.484251968503937
20
0.7381889763779528
11
0.4429133858267716
21
0.7381889763779528
0
LINE
8
BLACK
6
CONTINUOUS
10
0.4429133858267716
20
0.7381889763779528
11
0.4429133858267716
21
0.7637795275590551
0
LINE
8
BLACK
6
CONTINUOUS
10
0.4429133858267716
20
0.7637795275590551
11
0.484251968503937
21
0.7637795275590551
0
LINE
8
BLACK
6
CONTINUOUS
10
0.484251968503937
20
0.7637795275590551
11
0.484251968503937
21
0.7381889763779528
0
LINE
8
BLACK
6
CONTINUOUS
10
1.9547244094488188
20
0.7381889763779528
11
1.9133858267716535
21
0.7381889763779528
0
LINE
8
BLACK
6
CONTINUOUS
10
1.9133858267716535
20
0.7381889763779528
11
1.9133858267716535
21
0.7637795275590551
0
LINE
8
BLACK
6
CONTINUOUS
10
1.9133858267716535
20
0.7637795275590551
11
1.9547244094488188
21
0.7637795275590551
0
LINE
8
BLACK
6
CONTINUOUS
10
1.9547244094488188
20
0.7637795275590551
11
1.9547244094488188
21
0.7381889763779528
0
LINE
8
BLACK
6
CONTINUOUS
10
2.1181102362204722
20
0.7381889763779528
11
2.076771653543307
21
0.7381889763779528
0
LINE
8
BLACK
6
CONTINUOUS
10
2.076771653543307
20
0.7381889763779528
11
2.076771653543307
21
0.7637795275590551
0
LINE
8
BLACK
6
CONTINUOUS
10
2.076771653543307
20
0.7637795275590551
11
2.1181102362204722
21
0.7637795275590551
0
LINE
8
BLACK
6
CONTINUOUS
10
2.1181102362204722
20
0.7637795275590551
11
2.1181102362204722
21
0.7381889763779528
0
LINE
8
BLACK
6
CONTINUOUS
10
0.3646456692913386
20
0.8495275590551181
11
0.3046456692913386
21
0.8495275590551181
0
LINE
8
BLACK
6
CONTINUOUS
10
0.3046456692913386
20
0.8495275590551181
11
0.3046456692913386
21
0.9095275590551181
0
LINE
8
BLACK
6
CONTINUOUS
10
0.3046456692913386
20
0.9095275590551181
11
0.3646456692913386
21
0.9095275590551181
0
LINE
8
BLACK
6
CONTINUOUS
10
0.3646456692913386
20
0.9095275590551181
11
0.3646456692913386
21
0.8495275590551181
0
LINE
8
BLACK
6
CONTINUOUS
10
0.4646456692913385
20
0.8495275590551181
11
0.4046456692913385
21
0.8495275590551181
0
LINE
8
BLACK
6
CONTINUOUS
10
0.4046456692913385
20
0.8495275590551181
11
0.4046456692913385
21
0.9095275590551181
0
LINE
8
BLACK
6
CONTINUOUS
10
0.4046456692913385
20
0.9095275590551181
11
0.4646456692913385
21
0.9095275590551181
0
LINE
8
BLACK
6
CONTINUOUS
10
0.4646456692913385
20
0.9095275590551181
11
0.4646456692913385
21
0.8495275590551181
0
LINE
8
BLACK
6
CONTINUOUS
10
1.9969291338582678
20
0.8511023622047243
11
1.9369291338582677
21
0.8511023622047243
0
LINE
8
BLACK
6
CONTINUOUS
10
1.9369291338582677
20
0.8511023622047243
11
1.9369291338582677
21
0.9111023622047244
0
LINE
8
BLACK
6
CONTINUOUS
10
1.9369291338582677
20
0.9111023622047244
11
1.9969291338582678
21
0.9111023622047244
0
LINE
8
BLACK
6
CONTINUOUS
10
1.9969291338582678
20
0.9111023622047244
11
1.9969291338582678
21
0.8511023622047243
0
LINE
8
BLACK
6
CONTINUOUS
10
2.0969291338582678
20
0.8511023622047243
11
2.0369291338582678
21
0.8511023622047243
0
LINE
8
BLACK
6
CONTINUOUS
10
2.0369291338582678
20
0.8511023622047243
11
2.0369291338582678
21
0.9111023622047244
0
LINE
8
BLACK
6
CONTINUOUS
10
2.0369291338582678
20
0.9111023622047244
11
2.0969291338582678
21
0.9111023622047244
0
LINE
8
BLACK
6
CONTINUOUS
10
2.0969291338582678
20
0.9111023622047244
11
2.0969291338582678
21
0.8511023622047243
0
LINE
8
BLACK
6
CONTINUOUS
10
0.3646456692913386
20
0.9495275590551181
11
0.3046456692913386
21
0.9495275590551181
0
LINE
8
BLACK
6
CONTINUOUS
10
0.3046456692913386
20
0.9495275590551181
11
0.3046456692913386
21
1.009527559055118
0
LINE
8
BLACK
6
CONTINUOUS
10
0.3046456692913386
20
1.009527559055118
11
0.3646456692913386
21
1.009527559055118
0
LINE
8
BLACK
6
CONTINUOUS
10
0.3646456692913386
20
1.009527559055118
11
0.3646456692913386
21
0.9495275590551181
0
LINE
8
BLACK
6
CONTINUOUS
10
0.4646456692913385
20
0.9495275590551181
11
0.4046456692913385
21
0.9495275590551181
0
LINE
8
BLACK
6
CONTINUOUS
10
0.4046456692913385
20
0.9495275590551181
11
0.4046456692913385
21
1.009527559055118
0
LINE
8
BLACK
6
CONTINUOUS
10
0.4046456692913385
20
1.009527559055118
11
0.4646456692913385
21
1.009527559055118
0
LINE
8
BLACK
6
CONTINUOUS
10
0.4646456692913385
20
1.009527559055118
11
0.4646456692913385
21
0.9495275590551181
0
LINE
8
BLACK
6
CONTINUOUS
10
1.9969291338582678
20
0.9511023622047244
11
1.9369291338582677
21
0.9511023622047244
0
LINE
8
BLACK
6
CONTINUOUS
10
1.9369291338582677
20
0.9511023622047244
11
1.9369291338582677
21
1.0111023622047244
0
LINE
8
BLACK
6
CONTINUOUS
10
1.9369291338582677
20
1.0111023622047244
11
1.9969291338582678
21
1.0111023622047244
0
LINE
8
BLACK
6
CONTINUOUS
10
1.9969291338582678
20
1.0111023622047244
11
1.9969291338582678
21
0.9511023622047244
0
LINE
8
BLACK
6
CONTINUOUS
10
2.0969291338582678
20
0.9511023622047244
11
2.0369291338582678
21
0.9511023622047244
0
LINE
8
BLACK
6
CONTINUOUS
10
2.0369291338582678
20
0.9511023622047244
11
2.0369291338582678
21
1.0111023622047244
0
LINE
8
BLACK
6
CONTINUOUS
10
2.0369291338582678
20
1.0111023622047244
11
2.0969291338582678
21
1.0111023622047244
0
LINE
8
BLACK
6
CONTINUOUS
10
2.0969291338582678
20
1.0111023622047244
11
2.0969291338582678
21
0.9511023622047244
0
LINE
8
BLACK
6
CONTINUOUS
10
0.3646456692913386
20
1.0495275590551181
11
0.3046456692913386
21
1.0495275590551181
0
LINE
8
BLACK
6
CONTINUOUS
10
0.3046456692913386
20
1.0495275590551181
11
0.3046456692913386
21
1.1095275590551181
0
LINE
8
BLACK
6
CONTINUOUS
10
0.3046456692913386
20
1.1095275590551181
11
0.3646456692913386
21
1.1095275590551181
0
LINE
8
BLACK
6
CONTINUOUS
10
0.3646456692913386
20
1.1095275590551181
11
0.3646456692913386
21
1.0495275590551181
0
LINE
8
BLACK
6
CONTINUOUS
10
0.4646456692913385
20
1.0495275590551181
11
0.4046456692913385
21
1.0495275590551181
0
LINE
8
BLACK
6
CONTINUOUS
10
0.4046456692913385
20
1.0495275590551181
11
0.4046456692913385
21
1.1095275590551181
0
LINE
8
BLACK
6
CONTINUOUS
10
0.4046456692913385
20
1.1095275590551181
11
0.4646456692913385
21
1.1095275590551181
0
LINE
8
BLACK
6
CONTINUOUS
10
0.4646456692913385
20
1.1095275590551181
11
0.4646456692913385
21
1.0495275590551181
0
LINE
8
BLACK
6
CONTINUOUS
10
1.9969291338582678
20
1.0511023622047244
11
1.9369291338582677
21
1.0511023622047244
0
LINE
8
BLACK
6
CONTINUOUS
10
1.9369291338582677
20
1.0511023622047244
11
1.9369291338582677
21
1.1111023622047245
0
LINE
8
BLACK
6
CONTINUOUS
10
1.9369291338582677
20
1.1111023622047245
11
1.9969291338582678
21
1.1111023622047245
0
LINE
8
BLACK
6
CONTINUOUS
10
1.9969291338582678
20
1.1111023622047245
11
1.9969291338582678
21
1.0511023622047244
0
LINE
8
BLACK
6
CONTINUOUS
10
2.0969291338582678
20
1.0511023622047244
11
2.0369291338582678
21
1.0511023622047244
0
LINE
8
BLACK
6
CONTINUOUS
10
2.0369291338582678
20
1.0511023622047244
11
2.0369291338582678
21
1.1111023622047245
0
LINE
8
BLACK
6
CONTINUOUS
10
2.0369291338582678
20
1.1111023622047245
11
2.0969291338582678
21
1.1111023622047245
0
LINE
8
BLACK
6
CONTINUOUS
10
2.0969291338582678
20
1.1111023622047245
11
2.0969291338582678
21
1.0511023622047244
0
LINE
8
BLACK
6
CONTINUOUS
10
0.3646456692913386
20
1.1495275590551182
11
0.3046456692913386
21
1.1495275590551182
0
LINE
8
BLACK
6
CONTINUOUS
10
0.3046456692913386
20
1.1495275590551182
11
0.3046456692913386
21
1.209527559055118
0
LINE
8
BLACK
6
CONTINUOUS
10
0.3046456692913386
20
1.209527559055118
11
0.3646456692913386
21
1.209527559055118
0
LINE
8
BLACK
6
CONTINUOUS
10
0.3646456692913386
20
1.209527559055118
11
0.3646456692913386
21
1.1495275590551182
0
LINE
8
BLACK
6
CONTINUOUS
10
0.4646456692913385
20
1.1495275590551182
11
0.4046456692913385
21
1.1495275590551182
0
LINE
8
BLACK
6
CONTINUOUS
10
0.4046456692913385
20
1.1495275590551182
11
0.4046456692913385
21
1.209527559055118
0
LINE
8
BLACK
6
CONTINUOUS
10
0.4046456692913385
20
1.209527559055118
11
0.4646456692913385
21
1.209527559055118
0
LINE
8
BLACK
6
CONTINUOUS
10
0.4646456692913385
20
1.209527559055118
11
0.4646456692913385
21
1.1495275590551182
0
LINE
8
BLACK
6
CONTINUOUS
10
1.9969291338582678
20
1.1511023622047243
11
1.9369291338582677
21
1.1511023622047243
0
LINE
8
BLACK
6
CONTINUOUS
10
1.9369291338582677
20
1.1511023622047243
11
1.9369291338582677
21
1.2111023622047243
0
LINE
8
BLACK
6
CONTINUOUS
10
1.9369291338582677
20
1.2111023622047243
11
1.9969291338582678
21
1.2111023622047243
0
LINE
8
BLACK
6
CONTINUOUS
10
1.9969291338582678
20
1.2111023622047243
11
1.9969291338582678
21
1.1511023622047243
0
LINE
8
BLACK
6
CONTINUOUS
10
2.0969291338582678
20
1.1511023622047243
11
2.0369291338582678
21
1.1511023622047243
0
LINE
8
BLACK
6
CONTINUOUS
10
2.0369291338582678
20
1.1511023622047243
11
2.0369291338582678
21
1.2111023622047243
0
LINE
8
BLACK
6
CONTINUOUS
10
2.0369291338582678
20
1.2111023622047243
11
2.0969291338582678
21
1.2111023622047243
0
LINE
8
BLACK
6
CONTINUOUS
10
2.0969291338582678
20
1.2111023622047243
11
2.0969291338582678
21
1.1511023622047243
0
LINE
8
BLACK
6
CONTINUOUS
10
0.3646456692913386
20
1.249527559055118
11
0.3046456692913386
21
1.249527559055118
0
LINE
8
BLACK
6
CONTINUOUS
10
0.3046456692913386
20
1.249527559055118
11
0.3046456692913386
21
1.3095275590551181
0
LINE
8
BLACK
6
CONTINUOUS
10
0.3046456692913386
20
1.3095275590551181
11
0.3646456692913386
21
1.3095275590551181
0
LINE
8
BLACK
6
CONTINUOUS
10
0.3646456692913386
20
1.3095275590551181
11
0.3646456692913386
21
1.249527559055118
0
LINE
8
BLACK
6
CONTINUOUS
10
0.4646456692913385
20
1.249527559055118
11
0.4046456692913385
21
1.249527559055118
0
LINE
8
BLACK
6
CONTINUOUS
10
0.4046456692913385
20
1.249527559055118
11
0.4046456692913385
21
1.3095275590551181
0
LINE
8
BLACK
6
CONTINUOUS
10
0.4046456692913385
20
1.3095275590551181
11
0.4646456692913385
21
1.3095275590551181
0
LINE
8
BLACK
6
CONTINUOUS
10
0.4646456692913385
20
1.3095275590551181
11
0.4646456692913385
21
1.249527559055118
0
LINE
8
BLACK
6
CONTINUOUS
10
1.9969291338582678
20
1.2511023622047244
11
1.9369291338582677
21
1.2511023622047244
0
LINE
8
BLACK
6
CONTINUOUS
10
1.9369291338582677
20
1.2511023622047244
11
1.9369291338582677
21
1.3111023622047244
0
LINE
8
BLACK
6
CONTINUOUS
10
1.9369291338582677
20
1.3111023622047244
11
1.9969291338582678
21
1.3111023622047244
0
LINE
8
BLACK
6
CONTINUOUS
10
1.9969291338582678
20
1.3111023622047244
11
1.9969291338582678
21
1.2511023622047244
0
LINE
8
BLACK
6
CONTINUOUS
10
2.0969291338582678
20
1.2511023622047244
11
2.0369291338582678
21
1.2511023622047244
0
LINE
8
BLACK
6
CONTINUOUS
10
2.0369291338582678
20
1.2511023622047244
11
2.0369291338582678
21
1.3111023622047244
0
LINE
8
BLACK
6
CONTINUOUS
10
2.0369291338582678
20
1.3111023622047244
11
2.0969291338582678
21
1.3111023622047244
0
LINE
8
BLACK
6
CONTINUOUS
10
2.0969291338582678
20
1.3111023622047244
11
2.0969291338582678
21
1.2511023622047244
0
LINE
8
BLACK
6
CONTINUOUS
10
0.3646456692913386
20
1.3495275590551181
11
0.3046456692913386
21
1.3495275590551181
0
LINE
8
BLACK
6
CONTINUOUS
10
0.3046456692913386
20
1.3495275590551181
11
0.3046456692913386
21
1.4095275590551182
0
LINE
8
BLACK
6
CONTINUOUS
10
0.3046456692913386
20
1.4095275590551182
11
0.3646456692913386
21
1.4095275590551182
0
LINE
8
BLACK
6
CONTINUOUS
10
0.3646456692913386
20
1.4095275590551182
11
0.3646456692913386
21
1.3495275590551181
0
LINE
8
BLACK
6
CONTINUOUS
10
0.4646456692913385
20
1.3495275590551181
11
0.4046456692913385
21
1.3495275590551181
0
LINE
8
BLACK
6
CONTINUOUS
10
0.4046456692913385
20
1.3495275590551181
11
0.4046456692913385
21
1.4095275590551182
0
LINE
8
BLACK
6
CONTINUOUS
10
0.4046456692913385
20
1.4095275590551182
11
0.4646456692913385
21
1.4095275590551182
0
LINE
8
BLACK
6
CONTINUOUS
10
0.4646456692913385
20
1.4095275590551182
11
0.4646456692913385
21
1.3495275590551181
0
LINE
8
BLACK
6
CONTINUOUS
10
1.9969291338582678
20
1.3511023622047245
11
1.9369291338582677
21
1.3511023622047245
0
LINE
8
BLACK
6
CONTINUOUS
10
1.9369291338582677
20
1.3511023622047245
11
1.9369291338582677
21
1.4111023622047243
0
LINE
8
BLACK
6
CONTINUOUS
10
1.9369291338582677
20
1.4111023622047243
11
1.9969291338582678
21
1.4111023622047243
0
LINE
8
BLACK
6
CONTINUOUS
10
1.9969291338582678
20
1.4111023622047243
11
1.9969291338582678
21
1.3511023622047245
0
LINE
8
BLACK
6
CONTINUOUS
10
2.0969291338582678
20
1.3511023622047245
11
2.0369291338582678
21
1.3511023622047245
0
LINE
8
BLACK
6
CONTINUOUS
10
2.0369291338582678
20
1.3511023622047245
11
2.0369291338582678
21
1.4111023622047243
0
LINE
8
BLACK
6
CONTINUOUS
10
2.0369291338582678
20
1.4111023622047243
11
2.0969291338582678
21
1.4111023622047243
0
LINE
8
BLACK
6
CONTINUOUS
10
2.0969291338582678
20
1.4111023622047243
11
2.0969291338582678
21
1.3511023622047245
0
LINE
8
BLACK
6
CONTINUOUS
10
0.3646456692913386
20
1.449527559055118
11
0.3046456692913386
21
1.449527559055118
0
LINE
8
BLACK
6
CONTINUOUS
10
0.3046456692913386
20
1.449527559055118
11
0.3046456692913386
21
1.509527559055118
0
LINE
8
BLACK
6
CONTINUOUS
10
0.3046456692913386
20
1.509527559055118
11
0.3646456692913386
21
1.509527559055118
0
LINE
8
BLACK
6
CONTINUOUS
10
0.3646456692913386
20
1.509527559055118
11
0.3646456692913386
21
1.449527559055118
0
LINE
8
BLACK
6
CONTINUOUS
10
0.4646456692913385
20
1.449527559055118
11
0.4046456692913385
21
1.449527559055118
0
LINE
8
BLACK
6
CONTINUOUS
10
0.4046456692913385
20
1.449527559055118
11
0.4046456692913385
21
1.509527559055118
0
LINE
8
BLACK
6
CONTINUOUS
10
0.4046456692913385
20
1.509527559055118
11
0.4646456692913385
21
1.509527559055118
0
LINE
8
BLACK
6
CONTINUOUS
10
0.4646456692913385
20
1.509527559055118
11
0.4646456692913385
21
1.449527559055118
0
LINE
8
BLACK
6
CONTINUOUS
10
1.9969291338582678
20
1.4511023622047243
11
1.9369291338582677
21
1.4511023622047243
0
LINE
8
BLACK
6
CONTINUOUS
10
1.9369291338582677
20
1.4511023622047243
11
1.9369291338582677
21
1.5111023622047244
0
LINE
8
BLACK
6
CONTINUOUS
10
1.9369291338582677
20
1.5111023622047244
11
1.9969291338582678
21
1.5111023622047244
0
LINE
8
BLACK
6
CONTINUOUS
10
1.9969291338582678
20
1.5111023622047244
11
1.9969291338582678
21
1.4511023622047243
0
LINE
8
BLACK
6
CONTINUOUS
10
2.0969291338582678
20
1.4511023622047243
11
2.0369291338582678
21
1.4511023622047243
0
LINE
8
BLACK
6
CONTINUOUS
10
2.0369291338582678
20
1.4511023622047243
11
2.0369291338582678
21
1.5111023622047244
0
LINE
8
BLACK
6
CONTINUOUS
10
2.0369291338582678
20
1.5111023622047244
11
2.0969291338582678
21
1.5111023622047244
0
LINE
8
BLACK
6
CONTINUOUS
10
2.0969291338582678
20
1.5111023622047244
11
2.0969291338582678
21
1.4511023622047243
0
LINE
8
BLACK
6
CONTINUOUS
10
1.5116929133858268
20
1.5083858267716534
11
1.4516929133858267
21
1.5083858267716534
0
LINE
8
BLACK
6
CONTINUOUS
10
1.4516929133858267
20
1.5083858267716534
11
1.4516929133858267
21
1.5683858267716535
0
LINE
8
BLACK
6
CONTINUOUS
10
1.4516929133858267
20
1.5683858267716535
11
1.5116929133858268
21
1.5683858267716535
0
LINE
8
BLACK
6
CONTINUOUS
10
1.5116929133858268
20
1.5683858267716535
11
1.5116929133858268
21
1.5083858267716534
0
LINE
8
BLACK
6
CONTINUOUS
10
1.6116929133858267
20
1.5083858267716534
11
1.5516929133858268
21
1.5083858267716534
0
LINE
8
BLACK
6
CONTINUOUS
10
1.5516929133858268
20
1.5083858267716534
11
1.5516929133858268
21
1.5683858267716535
0
LINE
8
BLACK
6
CONTINUOUS
10
1.5516929133858268
20
1.5683858267716535
11
1.6116929133858267
21
1.5683858267716535
0
LINE
8
BLACK
6
CONTINUOUS
10
1.6116929133858267
20
1.5683858267716535
11
1.6116929133858267
21
1.5083858267716534
0
LINE
8
BLACK
6
CONTINUOUS
10
0.3646456692913386
20
1.5495275590551181
11
0.3046456692913386
21
1.5495275590551181
0
LINE
8
BLACK
6
CONTINUOUS
10
0.3046456692913386
20
1.5495275590551181
11
0.3046456692913386
21
1.6095275590551181
0
LINE
8
BLACK
6
CONTINUOUS
10
0.3046456692913386
20
1.6095275590551181
11
0.3646456692913386
21
1.6095275590551181
0
LINE
8
BLACK
6
CONTINUOUS
10
0.3646456692913386
20
1.6095275590551181
11
0.3646456692913386
21
1.5495275590551181
0
LINE
8
BLACK
6
CONTINUOUS
10
0.4646456692913385
20
1.5495275590551181
11
0.4046456692913385
21
1.5495275590551181
0
LINE
8
BLACK
6
CONTINUOUS
10
0.4046456692913385
20
1.5495275590551181
11
0.4046456692913385
21
1.6095275590551181
0
LINE
8
BLACK
6
CONTINUOUS
10
0.4046456692913385
20
1.6095275590551181
11
0.4646456692913385
21
1.6095275590551181
0
LINE
8
BLACK
6
CONTINUOUS
10
0.4646456692913385
20
1.6095275590551181
11
0.4646456692913385
21
1.5495275590551181
0
LINE
8
BLACK
6
CONTINUOUS
10
1.9969291338582678
20
1.5511023622047244
11
1.9369291338582677
21
1.5511023622047244
0
LINE
8
BLACK
6
CONTINUOUS
10
1.9369291338582677
20
1.5511023622047244
11
1.9369291338582677
21
1.6111023622047245
0
LINE
8
BLACK
6
CONTINUOUS
10
1.9369291338582677
20
1.6111023622047245
11
1.9969291338582678
21
1.6111023622047245
0
LINE
8
BLACK
6
CONTINUOUS
10
1.9969291338582678
20
1.6111023622047245
11
1.9969291338582678
21
1.5511023622047244
0
LINE
8
BLACK
6
CONTINUOUS
10
2.0969291338582678
20
1.5511023622047244
11
2.0369291338582678
21
1.5511023622047244
0
LINE
8
BLACK
6
CONTINUOUS
10
2.0369291338582678
20
1.5511023622047244
11
2.0369291338582678
21
1.6111023622047245
0
LINE
8
BLACK
6
CONTINUOUS
10
2.0369291338582678
20
1.6111023622047245
11
2.0969291338582678
21
1.6111023622047245
0
LINE
8
BLACK
6
CONTINUOUS
10
2.0969291338582678
20
1.6111023622047245
11
2.0969291338582678
21
1.5511023622047244
0
LINE
8
BLACK
6
CONTINUOUS
10
0.3646456692913386
20
1.6495275590551182
11
0.3046456692913386
21
1.6495275590551182
0
LINE
8
BLACK
6
CONTINUOUS
10
0.3046456692913386
20
1.6495275590551182
11
0.3046456692913386
21
1.709527559055118
0
LINE
8
BLACK
6
CONTINUOUS
10
0.3046456692913386
20
1.709527559055118
11
0.3646456692913386
21
1.709527559055118
0
LINE
8
BLACK
6
CONTINUOUS
10
0.3646456692913386
20
1.709527559055118
11
0.3646456692913386
21
1.6495275590551182
0
LINE
8
BLACK
6
CONTINUOUS
10
0.4646456692913385
20
1.6495275590551182
11
0.4046456692913385
21
1.6495275590551182
0
LINE
8
BLACK
6
CONTINUOUS
10
0.4046456692913385
20
1.6495275590551182
11
0.4046456692913385
21
1.709527559055118
0
LINE
8
BLACK
6
CONTINUOUS
10
0.4046456692913385
20
1.709527559055118
11
0.4646456692913385
21
1.709527559055118
0
LINE
8
BLACK
6
CONTINUOUS
10
0.4646456692913385
20
1.709527559055118
11
0.4646456692913385
21
1.6495275590551182
0
LINE
8
BLACK
6
CONTINUOUS
10
1.9969291338582678
20
1.6511023622047243
11
1.9369291338582677
21
1.6511023622047243
0
LINE
8
BLACK
6
CONTINUOUS
10
1.9369291338582677
20
1.6511023622047243
11
1.9369291338582677
21
1.7111023622047243
0
LINE
8
BLACK
6
CONTINUOUS
10
1.9369291338582677
20
1.7111023622047243
11
1.9969291338582678
21
1.7111023622047243
0
LINE
8
BLACK
6
CONTINUOUS
10
1.9969291338582678
20
1.7111023622047243
11
1.9969291338582678
21
1.6511023622047243
0
LINE
8
BLACK
6
CONTINUOUS
10
2.0969291338582678
20
1.6511023622047243
11
2.0369291338582678
21
1.6511023622047243
0
LINE
8
BLACK
6
CONTINUOUS
10
2.0369291338582678
20
1.6511023622047243
11
2.0369291338582678
21
1.7111023622047243
0
LINE
8
BLACK
6
CONTINUOUS
10
2.0369291338582678
20
1.7111023622047243
11
2.0969291338582678
21
1.7111023622047243
0
LINE
8
BLACK
6
CONTINUOUS
10
2.0969291338582678
20
1.7111023622047243
11
2.0969291338582678
21
1.6511023622047243
0
LINE
8
BLACK
6
CONTINUOUS
10
0.3646456692913386
20
1.749527559055118
11
0.3046456692913386
21
1.749527559055118
0
LINE
8
BLACK
6
CONTINUOUS
10
0.3046456692913386
20
1.749527559055118
11
0.3046456692913386
21
1.8095275590551181
0
LINE
8
BLACK
6
CONTINUOUS
10
0.3046456692913386
20
1.8095275590551181
11
0.3646456692913386
21
1.8095275590551181
0
LINE
8
BLACK
6
CONTINUOUS
10
0.3646456692913386
20
1.8095275590551181
11
0.3646456692913386
21
1.749527559055118
0
LINE
8
BLACK
6
CONTINUOUS
10
0.4646456692913385
20
1.749527559055118
11
0.4046456692913385
21
1.749527559055118
0
LINE
8
BLACK
6
CONTINUOUS
10
0.4046456692913385
20
1.749527559055118
11
0.4046456692913385
21
1.8095275590551181
0
LINE
8
BLACK
6
CONTINUOUS
10
0.4046456692913385
20
1.8095275590551181
11
0.4646456692913385
21
1.8095275590551181
0
LINE
8
BLACK
6
CONTINUOUS
10
0.4646456692913385
20
1.8095275590551181
11
0.4646456692913385
21
1.749527559055118
0
LINE
8
BLACK
6
CONTINUOUS
10
1.9969291338582678
20
1.7511023622047244
11
1.9369291338582677
21
1.7511023622047244
0
LINE
8
BLACK
6
CONTINUOUS
10
1.9369291338582677
20
1.7511023622047244
11
1.9369291338582677
21
1.8111023622047244
0
LINE
8
BLACK
6
CONTINUOUS
10
1.9369291338582677
20
1.8111023622047244
11
1.9969291338582678
21
1.8111023622047244
0
LINE
8
BLACK
6
CONTINUOUS
10
1.9969291338582678
20
1.8111023622047244
11
1.9969291338582678
21
1.7511023622047244
0
LINE
8
BLACK
6
CONTINUOUS
10
2.0969291338582678
20
1.7511023622047244
11
2.0369291338582678
21
1.7511023622047244
0
LINE
8
BLACK
6
CONTINUOUS
10
2.0369291338582678
20
1.7511023622047244
11
2.0369291338582678
21
1.8111023622047244
0
LINE
8
BLACK
6
CONTINUOUS
10
2.0369291338582678
20
1.8111023622047244
11
2.0969291338582678
21
1.8111023622047244
0
LINE
8
BLACK
6
CONTINUOUS
10
2.0969291338582678
20
1.8111023622047244
11
2.0969291338582678
21
1.7511023622047244
0
LINE
8
BLACK
6
CONTINUOUS
10
0.7065748031496063
20
1.7538582677165353
11
0.6465748031496062
21
1.7538582677165353
0
LINE
8
BLACK
6
CONTINUOUS
10
0.6465748031496062
20
1.7538582677165353
11
0.6465748031496062
21
1.8138582677165354
0
LINE
8
BLACK
6
CONTINUOUS
10
0.6465748031496062
20
1.8138582677165354
11
0.7065748031496063
21
1.8138582677165354
0
LINE
8
BLACK
6
CONTINUOUS
10
0.7065748031496063
20
1.8138582677165354
11
0.7065748031496063
21
1.7538582677165353
0
LINE
8
BLACK
6
CONTINUOUS
10
0.8065748031496063
20
1.7538582677165353
11
0.7465748031496063
21
1.7538582677165353
0
LINE
8
BLACK
6
CONTINUOUS
10
0.7465748031496063
20
1.7538582677165353
11
0.7465748031496063
21
1.8138582677165354
0
LINE
8
BLACK
6
CONTINUOUS
10
0.7465748031496063
20
1.8138582677165354
11
0.8065748031496063
21
1.8138582677165354
0
LINE
8
BLACK
6
CONTINUOUS
10
0.8065748031496063
20
1.8138582677165354
11
0.8065748031496063
21
1.7538582677165353
0
LINE
8
BLACK
6
CONTINUOUS
10
0.9065748031496063
20
1.7538582677165353
11
0.8465748031496063
21
1.7538582677165353
0
LINE
8
BLACK
6
CONTINUOUS
10
0.8465748031496063
20
1.7538582677165353
11
0.8465748031496063
21
1.8138582677165354
0
LINE
8
BLACK
6
CONTINUOUS
10
0.8465748031496063
20
1.8138582677165354
11
0.9065748031496063
21
1.8138582677165354
0
LINE
8
BLACK
6
CONTINUOUS
10
0.9065748031496063
20
1.8138582677165354
11
0.9065748031496063
21
1.7538582677165353
0
LINE
8
BLACK
6
CONTINUOUS
10
1.0065748031496062
20
1.7538582677165353
11
0.9465748031496063
21
1.7538582677165353
0
LINE
8
BLACK
6
CONTINUOUS
10
0.9465748031496063
20
1.7538582677165353
11
0.9465748031496063
21
1.8138582677165354
0
LINE
8
BLACK
6
CONTINUOUS
10
0.9465748031496063
20
1.8138582677165354
11
1.0065748031496062
21
1.8138582677165354
0
LINE
8
BLACK
6
CONTINUOUS
10
1.0065748031496062
20
1.8138582677165354
11
1.0065748031496062
21
1.7538582677165353
0
LINE
8
BLACK
6
CONTINUOUS
10
1.1065748031496063
20
1.7538582677165353
11
1.0465748031496063
21
1.7538582677165353
0
LINE
8
BLACK
6
CONTINUOUS
10
1.0465748031496063
20
1.7538582677165353
11
1.0465748031496063
21
1.8138582677165354
0
LINE
8
BLACK
6
CONTINUOUS
10
1.0465748031496063
20
1.8138582677165354
11
1.1065748031496063
21
1.8138582677165354
0
LINE
8
BLACK
6
CONTINUOUS
10
1.1065748031496063
20
1.8138582677165354
11
1.1065748031496063
21
1.7538582677165353
0
LINE
8
BLACK
6
CONTINUOUS
10
1.2065748031496062
20
1.7538582677165353
11
1.1465748031496064
21
1.7538582677165353
0
LINE
8
BLACK
6
CONTINUOUS
10
1.1465748031496064
20
1.7538582677165353
11
1.1465748031496064
21
1.8138582677165354
0
LINE
8
BLACK
6
CONTINUOUS
10
1.1465748031496064
20
1.8138582677165354
11
1.2065748031496062
21
1.8138582677165354
0
LINE
8
BLACK
6
CONTINUOUS
10
1.2065748031496062
20
1.8138582677165354
11
1.2065748031496062
21
1.7538582677165353
0
LINE
8
BLACK
6
CONTINUOUS
10
1.3065748031496063
20
1.7538582677165353
11
1.2465748031496062
21
1.7538582677165353
0
LINE
8
BLACK
6
CONTINUOUS
10
1.2465748031496062
20
1.7538582677165353
11
1.2465748031496062
21
1.8138582677165354
0
LINE
8
BLACK
6
CONTINUOUS
10
1.2465748031496062
20
1.8138582677165354
11
1.3065748031496063
21
1.8138582677165354
0
LINE
8
BLACK
6
CONTINUOUS
10
1.3065748031496063
20
1.8138582677165354
11
1.3065748031496063
21
1.7538582677165353
0
LINE
8
BLACK
6
CONTINUOUS
10
1.4065748031496064
20
1.7538582677165353
11
1.3465748031496063
21
1.7538582677165353
0
LINE
8
BLACK
6
CONTINUOUS
10
1.3465748031496063
20
1.7538582677165353
11
1.3465748031496063
21
1.8138582677165354
0
LINE
8
BLACK
6
CONTINUOUS
10
1.3465748031496063
20
1.8138582677165354
11
1.4065748031496064
21
1.8138582677165354
0
LINE
8
BLACK
6
CONTINUOUS
10
1.4065748031496064
20
1.8138582677165354
11
1.4065748031496064
21
1.7538582677165353
0
LINE
8
BLACK
6
CONTINUOUS
10
1.5065748031496062
20
1.7538582677165353
11
1.4465748031496062
21
1.7538582677165353
0
LINE
8
BLACK
6
CONTINUOUS
10
1.4465748031496062
20
1.7538582677165353
11
1.4465748031496062
21
1.8138582677165354
0
LINE
8
BLACK
6
CONTINUOUS
10
1.4465748031496062
20
1.8138582677165354
11
1.5065748031496062
21
1.8138582677165354
0
LINE
8
BLACK
6
CONTINUOUS
10
1.5065748031496062
20
1.8138582677165354
11
1.5065748031496062
21
1.7538582677165353
0
LINE
8
BLACK
6
CONTINUOUS
10
1.6065748031496063
20
1.7538582677165353
11
1.5465748031496063
21
1.7538582677165353
0
LINE
8
BLACK
6
CONTINUOUS
10
1.5465748031496063
20
1.7538582677165353
11
1.5465748031496063
21
1.8138582677165354
0
LINE
8
BLACK
6
CONTINUOUS
10
1.5465748031496063
20
1.8138582677165354
11
1.6065748031496063
21
1.8138582677165354
0
LINE
8
BLACK
6
CONTINUOUS
10
1.6065748031496063
20
1.8138582677165354
11
1.6065748031496063
21
1.7538582677165353
0
LINE
8
BLACK
6
CONTINUOUS
10
1.7065748031496062
20
1.7538582677165353
11
1.6465748031496064
21
1.7538582677165353
0
LINE
8
BLACK
6
CONTINUOUS
10
1.6465748031496064
20
1.7538582677165353
11
1.6465748031496064
21
1.8138582677165354
0
LINE
8
BLACK
6
CONTINUOUS
10
1.6465748031496064
20
1.8138582677165354
11
1.7065748031496062
21
1.8138582677165354
0
LINE
8
BLACK
6
CONTINUOUS
10
1.7065748031496062
20
1.8138582677165354
11
1.7065748031496062
21
1.7538582677165353
0
LINE
8
BLACK
6
CONTINUOUS
10
1.8065748031496063
20
1.7538582677165353
11
1.7465748031496062
21
1.7538582677165353
0
LINE
8
BLACK
6
CONTINUOUS
10
1.7465748031496062
20
1.7538582677165353
11
1.7465748031496062
21
1.8138582677165354
0
LINE
8
BLACK
6
CONTINUOUS
10
1.7465748031496062
20
1.8138582677165354
11
1.8065748031496063
21
1.8138582677165354
0
LINE
8
BLACK
6
CONTINUOUS
10
1.8065748031496063
20
1.8138582677165354
11
1.8065748031496063
21
1.7538582677165353
0
LINE
8
BLACK
6
CONTINUOUS
10
0.7065748031496063
20
1.8538582677165354
11
0.6465748031496062
21
1.8538582677165354
0
LINE
8
BLACK
6
CONTINUOUS
10
0.6465748031496062
20
1.8538582677165354
11
0.6465748031496062
21
1.9138582677165354
0
LINE
8
BLACK
6
CONTINUOUS
10
0.6465748031496062
20
1.9138582677165354
11
0.7065748031496063
21
1.9138582677165354
0
LINE
8
BLACK
6
CONTINUOUS
10
0.7065748031496063
20
1.9138582677165354
11
0.7065748031496063
21
1.8538582677165354
0
LINE
8
BLACK
6
CONTINUOUS
10
0.8065748031496063
20
1.8538582677165354
11
0.7465748031496063
21
1.8538582677165354
0
LINE
8
BLACK
6
CONTINUOUS
10
0.7465748031496063
20
1.8538582677165354
11
0.7465748031496063
21
1.9138582677165354
0
LINE
8
BLACK
6
CONTINUOUS
10
0.7465748031496063
20
1.9138582677165354
11
0.8065748031496063
21
1.9138582677165354
0
LINE
8
BLACK
6
CONTINUOUS
10
0.8065748031496063
20
1.9138582677165354
11
0.8065748031496063
21
1.8538582677165354
0
LINE
8
BLACK
6
CONTINUOUS
10
0.9065748031496063
20
1.8538582677165354
11
0.8465748031496063
21
1.8538582677165354
0
LINE
8
BLACK
6
CONTINUOUS
10
0.8465748031496063
20
1.8538582677165354
11
0.8465748031496063
21
1.9138582677165354
0
LINE
8
BLACK
6
CONTINUOUS
10
0.8465748031496063
20
1.9138582677165354
11
0.9065748031496063
21
1.9138582677165354
0
LINE
8
BLACK
6
CONTINUOUS
10
0.9065748031496063
20
1.9138582677165354
11
0.9065748031496063
21
1.8538582677165354
0
LINE
8
BLACK
6
CONTINUOUS
10
1.0065748031496062
20
1.8538582677165354
11
0.9465748031496063
21
1.8538582677165354
0
LINE
8
BLACK
6
CONTINUOUS
10
0.9465748031496063
20
1.8538582677165354
11
0.9465748031496063
21
1.9138582677165354
0
LINE
8
BLACK
6
CONTINUOUS
10
0.9465748031496063
20
1.9138582677165354
11
1.0065748031496062
21
1.9138582677165354
0
LINE
8
BLACK
6
CONTINUOUS
10
1.0065748031496062
20
1.9138582677165354
11
1.0065748031496062
21
1.8538582677165354
0
LINE
8
BLACK
6
CONTINUOUS
10
1.1065748031496063
20
1.8538582677165354
11
1.0465748031496063
21
1.8538582677165354
0
LINE
8
BLACK
6
CONTINUOUS
10
1.0465748031496063
20
1.8538582677165354
11
1.0465748031496063
21
1.9138582677165354
0
LINE
8
BLACK
6
CONTINUOUS
10
1.0465748031496063
20
1.9138582677165354
11
1.1065748031496063
21
1.9138582677165354
0
LINE
8
BLACK
6
CONTINUOUS
10
1.1065748031496063
20
1.9138582677165354
11
1.1065748031496063
21
1.8538582677165354
0
LINE
8
BLACK
6
CONTINUOUS
10
1.2065748031496062
20
1.8538582677165354
11
1.1465748031496064
21
1.8538582677165354
0
LINE
8
BLACK
6
CONTINUOUS
10
1.1465748031496064
20
1.8538582677165354
11
1.1465748031496064
21
1.9138582677165354
0
LINE
8
BLACK
6
CONTINUOUS
10
1.1465748031496064
20
1.9138582677165354
11
1.2065748031496062
21
1.9138582677165354
0
LINE
8
BLACK
6
CONTINUOUS
10
1.2065748031496062
20
1.9138582677165354
11
1.2065748031496062
21
1.8538582677165354
0
LINE
8
BLACK
6
CONTINUOUS
10
1.3065748031496063
20
1.8538582677165354
11
1.2465748031496062
21
1.8538582677165354
0
LINE
8
BLACK
6
CONTINUOUS
10
1.2465748031496062
20
1.8538582677165354
11
1.2465748031496062
21
1.9138582677165354
0
LINE
8
BLACK
6
CONTINUOUS
10
1.2465748031496062
20
1.9138582677165354
11
1.3065748031496063
21
1.9138582677165354
0
LINE
8
BLACK
6
CONTINUOUS
10
1.3065748031496063
20
1.9138582677165354
11
1.3065748031496063
21
1.8538582677165354
0
LINE
8
BLACK
6
CONTINUOUS
10
1.4065748031496064
20
1.8538582677165354
11
1.3465748031496063
21
1.8538582677165354
0
LINE
8
BLACK
6
CONTINUOUS
10
1.3465748031496063
20
1.8538582677165354
11
1.3465748031496063
21
1.9138582677165354
0
LINE
8
BLACK
6
CONTINUOUS
10
1.3465748031496063
20
1.9138582677165354
11
1.4065748031496064
21
1.9138582677165354
0
LINE
8
BLACK
6
CONTINUOUS
10
1.4065748031496064
20
1.9138582677165354
11
1.4065748031496064
21
1.8538582677165354
0
LINE
8
BLACK
6
CONTINUOUS
10
1.5065748031496062
20
1.8538582677165354
11
1.4465748031496062
21
1.8538582677165354
0
LINE
8
BLACK
6
CONTINUOUS
10
1.4465748031496062
20
1.8538582677165354
11
1.4465748031496062
21
1.9138582677165354
0
LINE
8
BLACK
6
CONTINUOUS
10
1.4465748031496062
20
1.9138582677165354
11
1.5065748031496062
21
1.9138582677165354
0
LINE
8
BLACK
6
CONTINUOUS
10
1.5065748031496062
20
1.9138582677165354
11
1.5065748031496062
21
1.8538582677165354
0
LINE
8
BLACK
6
CONTINUOUS
10
1.6065748031496063
20
1.8538582677165354
11
1.5465748031496063
21
1.8538582677165354
0
LINE
8
BLACK
6
CONTINUOUS
10
1.5465748031496063
20
1.8538582677165354
11
1.5465748031496063
21
1.9138582677165354
0
LINE
8
BLACK
6
CONTINUOUS
10
1.5465748031496063
20
1.9138582677165354
11
1.6065748031496063
21
1.9138582677165354
0
LINE
8
BLACK
6
CONTINUOUS
10
1.6065748031496063
20
1.9138582677165354
11
1.6065748031496063
21
1.8538582677165354
0
LINE
8
BLACK
6
CONTINUOUS
10
1.7065748031496062
20
1.8538582677165354
11
1.6465748031496064
21
1.8538582677165354
0
LINE
8
BLACK
6
CONTINUOUS
10
1.6465748031496064
20
1.8538582677165354
11
1.6465748031496064
21
1.9138582677165354
0
LINE
8
BLACK
6
CONTINUOUS
10
1.6465748031496064
20
1.9138582677165354
11
1.7065748031496062
21
1.9138582677165354
0
LINE
8
BLACK
6
CONTINUOUS
10
1.7065748031496062
20
1.9138582677165354
11
1.7065748031496062
21
1.8538582677165354
0
LINE
8
BLACK
6
CONTINUOUS
10
1.8065748031496063
20
1.8538582677165354
11
1.7465748031496062
21
1.8538582677165354
0
LINE
8
BLACK
6
CONTINUOUS
10
1.7465748031496062
20
1.8538582677165354
11
1.7465748031496062
21
1.9138582677165354
0
LINE
8
BLACK
6
CONTINUOUS
10
1.7465748031496062
20
1.9138582677165354
11
1.8065748031496063
21
1.9138582677165354
0
LINE
8
BLACK
6
CONTINUOUS
10
1.8065748031496063
20
1.9138582677165354
11
1.8065748031496063
21
1.8538582677165354
0
LINE
8
BLACK
6
CONTINUOUS
10
0.4141057480314961
20
2.1251920866141734
11
0.4280341338582677
21
2.1228255511811023
0
LINE
8
BLACK
6
CONTINUOUS
10
0.4280341338582677
20
2.1228255511811023
11
0.4416099606299212
21
2.1189144488188978
0
LINE
8
BLACK
6
CONTINUOUS
10
0.4416099606299212
20
2.1189144488188978
11
0.4546625196850393
21
2.113507874015748
0
LINE
8
BLACK
6
CONTINUOUS
10
0.4546625196850393
20
2.113507874015748
11
0.4670276771653543
21
2.1066738976377954
0
LINE
8
BLACK
6
CONTINUOUS
10
0.4670276771653543
20
2.1066738976377954
11
0.4785498818897638
21
2.0984984645669291
0
LINE
8
BLACK
6
CONTINUOUS
10
0.4785498818897638
20
2.0984984645669291
11
0.4890843307086614
21
2.0890843307086615
0
LINE
8
BLACK
6
CONTINUOUS
10
0.4890843307086614
20
2.0890843307086615
11
0.4984984645669291
21
2.0785498818897636
0
LINE
8
BLACK
6
CONTINUOUS
10
0.4984984645669291
20
2.0785498818897636
11
0.5066738976377952
21
2.0670276771653544
0
LINE
8
BLACK
6
CONTINUOUS
10
0.5066738976377952
20
2.0670276771653544
11
0.513507874015748
21
2.0546625196850394
0
LINE
8
BLACK
6
CONTINUOUS
10
0.513507874015748
20
2.0546625196850394
11
0.5189144488188976
21
2.0416099606299212
0
LINE
8
BLACK
6
CONTINUOUS
10
0.5189144488188976
20
2.0416099606299212
11
0.5228255511811023
21
2.0280341338582675
0
LINE
8
BLACK
6
CONTINUOUS
10
0.5228255511811023
20
2.0280341338582675
11
0.5251920866141733
21
2.0141057480314961
0
LINE
8
BLACK
6
CONTINUOUS
10
0.5251920866141733
20
2.0141057480314961
11
0.525984251968504
21
2.
0
LINE
8
BLACK
6
CONTINUOUS
10
0.525984251968504
20
2.
11
0.5251920866141733
21
1.9858942519685039
0
LINE
8
BLACK
6
CONTINUOUS
10
0.5251920866141733
20
1.9858942519685039
11
0.5228255511811023
21
1.9719658661417323
0
LINE
8
BLACK
6
CONTINUOUS
10
0.5228255511811023
20
1.9719658661417323
11
0.5189144488188976
21
1.9583900393700786
0
LINE
8
BLACK
6
CONTINUOUS
10
0.5189144488188976
20
1.9583900393700786
11
0.513507874015748
21
1.9453374803149606
0
LINE
8
BLACK
6
CONTINUOUS
10
0.513507874015748
20
1.9453374803149606
11
0.5066738976377952
21
1.9329723228346456
0
LINE
8
BLACK
6
CONTINUOUS
10
0.5066738976377952
20
1.9329723228346456
11
0.4984984645669291
21
1.9214501181102361
0
LINE
8
BLACK
6
CONTINUOUS
10
0.4984984645669291
20
1.9214501181102361
11
0.4890843307086614
21
1.9109156692913385
0
LINE
8
BLACK
6
CONTINUOUS
10
0.4890843307086614
20
1.9109156692913385
11
0.4785498818897638
21
1.9015015354330709
0
LINE
8
BLACK
6
CONTINUOUS
10
0.4785498818897638
20
1.9015015354330709
11
0.4670276771653543
21
1.8933261023622048
0
LINE
8
BLACK
6
CONTINUOUS
10
0.4670276771653543
20
1.8933261023622048
11
0.4546625196850393
21
1.886492125984252
0
LINE
8
BLACK
6
CONTINUOUS
10
0.4546625196850393
20
1.886492125984252
11
0.4416099606299212
21
1.8810855511811022
0
LINE
8
BLACK
6
CONTINUOUS
10
0.4416099606299212
20
1.8810855511811022
11
0.4280341338582677
21
1.8771744488188975
0
LINE
8
BLACK
6
CONTINUOUS
10
0.4280341338582677
20
1.8771744488188975
11
0.4141057480314961
21
1.8748079133858266
0
LINE
8
BLACK
6
CONTINUOUS
10
0.4141057480314961
20
1.8748079133858266
11
0.4
21
1.8740157480314961
0
LINE
8
BLACK
6
CONTINUOUS
10
0.4
20
1.8740157480314961
11
0.3858942519685039
21
1.8748079133858266
0
LINE
8
BLACK
6
CONTINUOUS
10
0.3858942519685039
20
1.8748079133858266
11
0.3719658661417323
21
1.8771744488188975
0
LINE
8
BLACK
6
CONTINUOUS
10
0.3719658661417323
20
1.8771744488188975
11
0.3583900393700787
21
1.8810855511811022
0
LINE
8
BLACK
6
CONTINUOUS
10
0.3583900393700787
20
1.8810855511811022
11
0.3453374803149606
21
1.886492125984252
0
LINE
8
BLACK
6
CONTINUOUS
10
0.3453374803149606
20
1.886492125984252
11
0.3329723228346457
21
1.8933261023622048
0
LINE
8
BLACK
6
CONTINUOUS
10
0.3329723228346457
20
1.8933261023622048
11
0.3214501181102362
21
1.9015015354330709
0
LINE
8
BLACK
6
CONTINUOUS
10
0.3214501181102362
20
1.9015015354330709
11
0.3109156692913386
21
1.9109156692913385
0
LINE
8
BLACK
6
CONTINUOUS
10
0.3109156692913386
20
1.9109156692913385
11
0.3015015354330708
21
1.9214501181102361
0
LINE
8
BLACK
6
CONTINUOUS
10
0.3015015354330708
20
1.9214501181102361
11
0.2933261023622047
21
1.9329723228346456
0
LINE
8
BLACK
6
CONTINUOUS
10
0.2933261023622047
20
1.9329723228346456
11
0.2864921259842519
21
1.9453374803149606
0
LINE
8
BLACK
6
CONTINUOUS
10
0.2864921259842519
20
1.9453374803149606
11
0.2810855511811023
21
1.9583900393700786
0
LINE
8
BLACK
6
CONTINUOUS
10
0.2810855511811023
20
1.9583900393700786
11
0.2771744488188976
21
1.9719658661417323
0
LINE
8
BLACK
6
CONTINUOUS
10
0.2771744488188976
20
1.9719658661417323
11
0.2748079133858268
21
1.9858942519685039
0
LINE
8
BLACK
6
CONTINUOUS
10
0.2748079133858268
20
1.9858942519685039
11
0.274015748031496
21
2.
0
LINE
8
BLACK
6
CONTINUOUS
10
0.274015748031496
20
2.
11
0.2748079133858268
21
2.0141057480314961
0
LINE
8
BLACK
6
CONTINUOUS
10
0.2748079133858268
20
2.0141057480314961
11
0.2771744488188976
21
2.0280341338582675
0
LINE
8
BLACK
6
CONTINUOUS
10
0.2771744488188976
20
2.0280341338582675
11
0.2810855511811023
21
2.0416099606299212
0
LINE
8
BLACK
6
CONTINUOUS
10
0.2810855511811023
20
2.0416099606299212
11
0.2864921259842519
21
2.0546625196850394
0
LINE
8
BLACK
6
CONTINUOUS
10
0.2864921259842519
20
2.0546625196850394
11
0.2933261023622047
21
2.0670276771653544
0
LINE
8
BLACK
6
CONTINUOUS
10
0.2933261023622047
20
2.0670276771653544
11
0.3015015354330708
21
2.0785498818897636
0
LINE
8
BLACK
6
CONTINUOUS
10
0.3015015354330708
20
2.0785498818897636
11
0.3109156692913386
21
2.0890843307086615
0
LINE
8
BLACK
6
CONTINUOUS
10
0.3109156692913386
20
2.0890843307086615
11
0.3214501181102362
21
2.0984984645669291
0
LINE
8
BLACK
6
CONTINUOUS
10
0.3214501181102362
20
2.0984984645669291
11
0.3329723228346457
21
2.1066738976377954
0
LINE
8
BLACK
6
CONTINUOUS
10
0.3329723228346457
20
2.1066738976377954
11
0.3453374803149606
21
2.113507874015748
0
LINE
8
BLACK
6
CONTINUOUS
10
0.3453374803149606
20
2.113507874015748
11
0.3583900393700787
21
2.1189144488188978
0
LINE
8
BLACK
6
CONTINUOUS
10
0.3583900393700787
20
2.1189144488188978
11
0.3719658661417323
21
2.1228255511811023
0
LINE
8
BLACK
6
CONTINUOUS
10
0.3719658661417323
20
2.1228255511811023
11
0.3858942519685039
21
2.1251920866141734
0
LINE
8
BLACK
6
CONTINUOUS
10
0.3858942519685039
20
2.1251920866141734
11
0.4
21
2.1259842519685037
0
LINE
8
BLACK
6
CONTINUOUS
10
0.4
20
2.1259842519685037
11
0.4141057480314961
21
2.1251920866141734
0
LINE
8
BLACK
6
CONTINUOUS
10
2.0141057480314961
20
2.1251920866141734
11
2.0280341338582675
21
2.1228255511811023
0
LINE
8
BLACK
6
CONTINUOUS
10
2.0280341338582675
20
2.1228255511811023
11
2.0416099606299212
21
2.1189144488188978
0
LINE
8
BLACK
6
CONTINUOUS
10
2.0416099606299212
20
2.1189144488188978
11
2.0546625196850394
21
2.113507874015748
0
LINE
8
BLACK
6
CONTINUOUS
10
2.0546625196850394
20
2.113507874015748
11
2.0670276771653544
21
2.1066738976377954
0
LINE
8
BLACK
6
CONTINUOUS
10
2.0670276771653544
20
2.1066738976377954
11
2.0785498818897636
21
2.0984984645669291
0
LINE
8
BLACK
6
CONTINUOUS
10
2.0785498818897636
20
2.0984984645669291
11
2.0890843307086615
21
2.0890843307086615
0
LINE
8
BLACK
6
CONTINUOUS
10
2.0890843307086615
20
2.0890843307086615
11
2.0984984645669291
21
2.0785498818897636
0
LINE
8
BLACK
6
CONTINUOUS
10
2.0984984645669291
20
2.0785498818897636
11
2.1066738976377954
21
2.0670276771653544
0
LINE
8
BLACK
6
CONTINUOUS
10
2.1066738976377954
20
2.0670276771653544
11
2.113507874015748
21
2.0546625196850394
0
LINE
8
BLACK
6
CONTINUOUS
10
2.113507874015748
20
2.0546625196850394
11
2.1189144488188978
21
2.0416099606299212
0
LINE
8
BLACK
6
CONTINUOUS
10
2.1189144488188978
20
2.0416099606299212
11
2.1228255511811023
21
2.0280341338582675
0
LINE
8
BLACK
6
CONTINUOUS
10
2.1228255511811023
20
2.0280341338582675
11
2.1251920866141734
21
2.0141057480314961
0
LINE
8
BLACK
6
CONTINUOUS
10
2.1251920866141734
20
2.0141057480314961
11
2.1259842519685037
21
2.
0
LINE
8
BLACK
6
CONTINUOUS
10
2.1259842519685037
20
2.
11
2.1251920866141734
21
1.9858942519685039
0
LINE
8
BLACK
6
CONTINUOUS
10
2.1251920866141734
20
1.9858942519685039
11
2.1228255511811023
21
1.9719658661417323
0
LINE
8
BLACK
6
CONTINUOUS
10
2.1228255511811023
20
1.9719658661417323
11
2.1189144488188978
21
1.9583900393700786
0
LINE
8
BLACK
6
CONTINUOUS
10
2.1189144488188978
20
1.9583900393700786
11
2.113507874015748
21
1.9453374803149606
0
LINE
8
BLACK
6
CONTINUOUS
10
2.113507874015748
20
1.9453374803149606
11
2.1066738976377954
21
1.9329723228346456
0
LINE
8
BLACK
6
CONTINUOUS
10
2.1066738976377954
20
1.9329723228346456
11
2.0984984645669291
21
1.9214501181102361
0
LINE
8
BLACK
6
CONTINUOUS
10
2.0984984645669291
20
1.9214501181102361
11
2.0890843307086615
21
1.9109156692913385
0
LINE
8
BLACK
6
CONTINUOUS
10
2.0890843307086615
20
1.9109156692913385
11
2.0785498818897636
21
1.9015015354330709
0
LINE
8
BLACK
6
CONTINUOUS
10
2.0785498818897636
20
1.9015015354330709
11
2.0670276771653544
21
1.8933261023622048
0
LINE
8
BLACK
6
CONTINUOUS
10
2.0670276771653544
20
1.8933261023622048
11
2.0546625196850394
21
1.886492125984252
0
LINE
8
BLACK
6
CONTINUOUS
10
2.0546625196850394
20
1.886492125984252
11
2.0416099606299212
21
1.8810855511811022
0
LINE
8
BLACK
6
CONTINUOUS
10
2.0416099606299212
20
1.8810855511811022
11
2.0280341338582675
21
1.8771744488188975
0
LINE
8
BLACK
6
CONTINUOUS
10
2.0280341338582675
20
1.8771744488188975
11
2.0141057480314961
21
1.8748079133858266
0
LINE
8
BLACK
6
CONTINUOUS
10
2.0141057480314961
20
1.8748079133858266
11
2.
21
1.8740157480314961
0
LINE
8
BLACK
6
CONTINUOUS
10
2.
20
1.8740157480314961
11
1.9858942519685039
21
1.8748079133858266
0
LINE
8
BLACK
6
CONTINUOUS
10
1.9858942519685039
20
1.8748079133858266
11
1.9719658661417323
21
1.8771744488188975
0
LINE
8
BLACK
6
CONTINUOUS
10
1.9719658661417323
20
1.8771744488188975
11
1.9583900393700786
21
1.8810855511811022
0
LINE
8
BLACK
6
CONTINUOUS
10
1.9583900393700786
20
1.8810855511811022
11
1.9453374803149606
21
1.886492125984252
0
LINE
8
BLACK
6
CONTINUOUS
10
1.9453374803149606
20
1.886492125984252
11
1.9329723228346456
21
1.8933261023622048
0
LINE
8
BLACK
6
CONTINUOUS
10
1.9329723228346456
20
1.8933261023622048
11
1.9214501181102361
21
1.9015015354330709
0
LINE
8
BLACK
6
CONTINUOUS
10
1.9214501181102361
20
1.9015015354330709
11
1.9109156692913385
21
1.9109156692913385
0
LINE
8
BLACK
6
CONTINUOUS
10
1.9109156692913385
20
1.9109156692913385
11
1.9015015354330709
21
1.9214501181102361
0
LINE
8
BLACK
6
CONTINUOUS
10
1.9015015354330709
20
1.9214501181102361
11
1.8933261023622048
21
1.9329723228346456
0
LINE
8
BLACK
6
CONTINUOUS
10
1.8933261023622048
20
1.9329723228346456
11
1.886492125984252
21
1.9453374803149606
0
LINE
8
BLACK
6
CONTINUOUS
10
1.886492125984252
20
1.9453374803149606
11
1.8810855511811022
21
1.9583900393700786
0
LINE
8
BLACK
6
CONTINUOUS
10
1.8810855511811022
20
1.9583900393700786
11
1.8771744488188975
21
1.9719658661417323
0
LINE
8
BLACK
6
CONTINUOUS
10
1.8771744488188975
20
1.9719658661417323
11
1.8748079133858266
21
1.9858942519685039
0
LINE
8
BLACK
6
CONTINUOUS
10
1.8748079133858266
20
1.9858942519685039
11
1.8740157480314961
21
2.
0
LINE
8
BLACK
6
CONTINUOUS
10
1.8740157480314961
20
2.
11
1.8748079133858266
21
2.0141057480314961
0
LINE
8
BLACK
6
CONTINUOUS
10
1.8748079133858266
20
2.0141057480314961
11
1.8771744488188975
21
2.0280341338582675
0
LINE
8
BLACK
6
CONTINUOUS
10
1.8771744488188975
20
2.0280341338582675
11
1.8810855511811022
21
2.0416099606299212
0
LINE
8
BLACK
6
CONTINUOUS
10
1.8810855511811022
20
2.0416099606299212
11
1.886492125984252
21
2.0546625196850394
0
LINE
8
BLACK
6
CONTINUOUS
10
1.886492125984252
20
2.0546625196850394
11
1.8933261023622048
21
2.0670276771653544
0
LINE
8
BLACK
6
CONTINUOUS
10
1.8933261023622048
20
2.0670276771653544
11
1.9015015354330709
21
2.0785498818897636
0
LINE
8
BLACK
6
CONTINUOUS
10
1.9015015354330709
20
2.0785498818897636
11
1.9109156692913385
21
2.0890843307086615
0
LINE
8
BLACK
6
CONTINUOUS
10
1.9109156692913385
20
2.0890843307086615
11
1.9214501181102361
21
2.0984984645669291
0
LINE
8
BLACK
6
CONTINUOUS
10
1.9214501181102361
20
2.0984984645669291
11
1.9329723228346456
21
2.1066738976377954
0
LINE
8
BLACK
6
CONTINUOUS
10
1.9329723228346456
20
2.1066738976377954
11
1.9453374803149606
21
2.113507874015748
0
LINE
8
BLACK
6
CONTINUOUS
10
1.9453374803149606
20
2.113507874015748
11
1.9583900393700786
21
2.1189144488188978
0
LINE
8
BLACK
6
CONTINUOUS
10
1.9583900393700786
20
2.1189144488188978
11
1.9719658661417323
21
2.1228255511811023
0
LINE
8
BLACK
6
CONTINUOUS
10
1.9719658661417323
20
2.1228255511811023
11
1.9858942519685039
21
2.1251920866141734
0
LINE
8
BLACK
6
CONTINUOUS
10
1.9858942519685039
20
2.1251920866141734
11
2.
21
2.1259842519685037
0
LINE
8
BLACK
6
CONTINUOUS
10
2.
20
2.1259842519685037
11
2.0141057480314961
21
2.1251920866141734
0
LINE
8
BLACK
6
CONTINUOUS
10
0.8597244094488189
20
1.9680314960629921
11
0.7997244094488188
21
1.9680314960629921
0
LINE
8
BLACK
6
CONTINUOUS
10
0.7997244094488188
20
1.9680314960629921
11
0.7997244094488188
21
2.0280314960629919
0
LINE
8
BLACK
6
CONTINUOUS
10
0.7997244094488188
20
2.0280314960629919
11
0.8597244094488189
21
2.0280314960629919
0
LINE
8
BLACK
6
CONTINUOUS
10
0.8597244094488189
20
2.0280314960629919
11
0.8597244094488189
21
1.9680314960629921
0
LINE
8
BLACK
6
CONTINUOUS
10
0.9597244094488189
20
1.9680314960629921
11
0.8997244094488189
21
1.9680314960629921
0
LINE
8
BLACK
6
CONTINUOUS
10
0.8997244094488189
20
1.9680314960629921
11
0.8997244094488189
21
2.0280314960629919
0
LINE
8
BLACK
6
CONTINUOUS
10
0.8997244094488189
20
2.0280314960629919
11
0.9597244094488189
21
2.0280314960629919
0
LINE
8
BLACK
6
CONTINUOUS
10
0.9597244094488189
20
2.0280314960629919
11
0.9597244094488189
21
1.9680314960629921
0
LINE
8
BLACK
6
CONTINUOUS
10
1.059724409448819
20
1.9680314960629921
11
0.9997244094488189
21
1.9680314960629921
0
LINE
8
BLACK
6
CONTINUOUS
10
0.9997244094488189
20
1.9680314960629921
11
0.9997244094488189
21
2.0280314960629919
0
LINE
8
BLACK
6
CONTINUOUS
10
0.9997244094488189
20
2.0280314960629919
11
1.059724409448819
21
2.0280314960629919
0
LINE
8
BLACK
6
CONTINUOUS
10
1.059724409448819
20
2.0280314960629919
11
1.059724409448819
21
1.9680314960629921
0
LINE
8
BLACK
6
CONTINUOUS
10
1.1597244094488188
20
1.9680314960629921
11
1.0997244094488188
21
1.9680314960629921
0
LINE
8
BLACK
6
CONTINUOUS
10
1.0997244094488188
20
1.9680314960629921
11
1.0997244094488188
21
2.0280314960629919
0
LINE
8
BLACK
6
CONTINUOUS
10
1.0997244094488188
20
2.0280314960629919
11
1.1597244094488188
21
2.0280314960629919
0
LINE
8
BLACK
6
CONTINUOUS
10
1.1597244094488188
20
2.0280314960629919
11
1.1597244094488188
21
1.9680314960629921
0
LINE
8
BLACK
6
CONTINUOUS
10
1.2597244094488189
20
1.9680314960629921
11
1.1997244094488189
21
1.9680314960629921
0
LINE
8
BLACK
6
CONTINUOUS
10
1.1997244094488189
20
1.9680314960629921
11
1.1997244094488189
21
2.0280314960629919
0
LINE
8
BLACK
6
CONTINUOUS
10
1.1997244094488189
20
2.0280314960629919
11
1.2597244094488189
21
2.0280314960629919
0
LINE
8
BLACK
6
CONTINUOUS
10
1.2597244094488189
20
2.0280314960629919
11
1.2597244094488189
21
1.9680314960629921
0
LINE
8
BLACK
6
CONTINUOUS
10
0.8597244094488189
20
2.068031496062992
11
0.7997244094488188
21
2.068031496062992
0
LINE
8
BLACK
6
CONTINUOUS
10
0.7997244094488188
20
2.068031496062992
11
0.7997244094488188
21
2.128031496062992
0
LINE
8
BLACK
6
CONTINUOUS
10
0.7997244094488188
20
2.128031496062992
11
0.8597244094488189
21
2.128031496062992
0
LINE
8
BLACK
6
CONTINUOUS
10
0.8597244094488189
20
2.128031496062992
11
0.8597244094488189
21
2.068031496062992
0
LINE
8
BLACK
6
CONTINUOUS
10
0.9597244094488189
20
2.068031496062992
11
0.8997244094488189
21
2.068031496062992
0
LINE
8
BLACK
6
CONTINUOUS
10
0.8997244094488189
20
2.068031496062992
11
0.8997244094488189
21
2.128031496062992
0
LINE
8
BLACK
6
CONTINUOUS
10
0.8997244094488189
20
2.128031496062992
11
0.9597244094488189
21
2.128031496062992
0
LINE
8
BLACK
6
CONTINUOUS
10
0.9597244094488189
20
2.128031496062992
11
0.9597244094488189
21
2.068031496062992
0
LINE
8
BLACK
6
CONTINUOUS
10
1.059724409448819
20
2.068031496062992
11
0.9997244094488189
21
2.068031496062992
0
LINE
8
BLACK
6
CONTINUOUS
10
0.9997244094488189
20
2.068031496062992
11
0.9997244094488189
21
2.128031496062992
0
LINE
8
BLACK
6
CONTINUOUS
10
0.9997244094488189
20
2.128031496062992
11
1.059724409448819
21
2.128031496062992
0
LINE
8
BLACK
6
CONTINUOUS
10
1.059724409448819
20
2.128031496062992
11
1.059724409448819
21
2.068031496062992
0
LINE
8
BLACK
6
CONTINUOUS
10
1.1597244094488188
20
2.068031496062992
11
1.0997244094488188
21
2.068031496062992
0
LINE
8
BLACK
6
CONTINUOUS
10
1.0997244094488188
20
2.068031496062992
11
1.0997244094488188
21
2.128031496062992
0
LINE
8
BLACK
6
CONTINUOUS
10
1.0997244094488188
20
2.128031496062992
11
1.1597244094488188
21
2.128031496062992
0
LINE
8
BLACK
6
CONTINUOUS
10
1.1597244094488188
20
2.128031496062992
11
1.1597244094488188
21
2.068031496062992
0
LINE
8
BLACK
6
CONTINUOUS
10
1.2597244094488189
20
2.068031496062992
11
1.1997244094488189
21
2.068031496062992
0
LINE
8
BLACK
6
CONTINUOUS
10
1.1997244094488189
20
2.068031496062992
11
1.1997244094488189
21
2.128031496062992
0
LINE
8
BLACK
6
CONTINUOUS
10
1.1997244094488189
20
2.128031496062992
11
1.2597244094488189
21
2.128031496062992
0
LINE
8
BLACK
6
CONTINUOUS
10
1.2597244094488189
20
2.128031496062992
11
1.2597244094488189
21
2.068031496062992
  0
ENDSEC
  0
EOF
