  0
SECTION
  2
HEADER
  9
$ANGBASE
  50
0.0
  9
$ANGDIR
  70
1
  9
$MEASUREMENT
  70
0
  0
ENDSEC
  0
SECTION
  2
TABLES
  0
TABLE
  2
LTYPE
  70
4
  0
LTYPE
  5
40F
  2
CONTINUOUS
  70
0
  3
Solid line
  72
65
  73
0
  40
0.0
  0
LTYPE
  5
410
  2
DASHDOT
 70
0
  3
Dash Dot ____ _ ____ _
 72
65
 73
4
 40
2.0
 49
1.25
 49
-0.25
 49
0.25
 49
-0.25
  0
LTYPE
  5
411
  2
DASHED
 70
0
  3
Dashed __ __ __ __ __
 72
65
 73
2
 40
0.75
 49
0.5
 49
-0.25
  0
LTYPE
  5
43B
  2
DOTTED
 70
0
  3
Dotted .  .  .  .
 72
65
 73
2
 40
0.2
 49
0.0
 49
-0.2
  0
ENDTAB
  0
TABLE
  2
STYLE
  70
4
  0
STYLE
  2
KICAD
  70
0
  40
0
  41
1
  42
1
  50
0
  71
0
  3
isocp.shx
  0
STYLE
  2
KICADB
  70
0
  40
0
  41
1
  42
1
  50
0
  71
0
  3
isocp.shx
  0
STYLE
  2
KICADI
  70
0
  40
0
  41
1
  42
1
  50
15
  71
0
  3
isocp.shx
  0
STYLE
  2
KICADBI
  70
0
  40
0
  41
1
  42
1
  50
15
  71
0
  3
isocp.shx
  0
ENDTAB
  0
TABLE
  2
LAYER
  70
1
  0
LAYER
  2
BLACK
  70
0
  62
7
  6
CONTINUOUS
  0
ENDTAB
  0
ENDSEC
  0
SECTION
  2
ENTITIES
0
CIRCLE
8
BLACK
10
0.305511811023622
20
0.4
40
0.0068897637795276
0
CIRCLE
8
BLACK
10
0.3331867716535433
20
0.4668132283464567
40
0.0068897637795276
0
CIRCLE
8
BLACK
10
0.3331867716535433
20
0.3331867716535433
40
0.0068897637795276
0
CIRCLE
8
BLACK
10
0.4
20
0.4944881889763779
40
0.0068897637795276
0
CIRCLE
8
BLACK
10
0.4
20
0.4
40
0.0068897637795276
0
CIRCLE
8
BLACK
10
0.4
20
0.305511811023622
40
0.0068897637795276
0
CIRCLE
8
BLACK
10
0.4668132283464567
20
0.4668132283464567
40
0.0068897637795276
0
CIRCLE
8
BLACK
10
0.4668132283464567
20
0.3331867716535433
40
0.0068897637795276
0
CIRCLE
8
BLACK
10
0.4944881889763779
20
0.4
40
0.0068897637795276
0
CIRCLE
8
BLACK
10
1.905511811023622
20
0.4
40
0.0068897637795276
0
CIRCLE
8
BLACK
10
1.9331867716535434
20
0.4668132283464567
40
0.0068897637795276
0
CIRCLE
8
BLACK
10
1.9331867716535434
20
0.3331867716535433
40
0.0068897637795276
0
CIRCLE
8
BLACK
10
2.
20
0.4944881889763779
40
0.0068897637795276
0
CIRCLE
8
BLACK
10
2.
20
0.4
40
0.0068897637795276
0
CIRCLE
8
BLACK
10
2.
20
0.305511811023622
40
0.0068897637795276
0
CIRCLE
8
BLACK
10
2.0668132283464566
20
0.4668132283464567
40
0.0068897637795276
0
CIRCLE
8
BLACK
10
2.0668132283464566
20
0.3331867716535433
40
0.0068897637795276
0
CIRCLE
8
BLACK
10
2.0944881889763778
20
0.4
40
0.0068897637795276
0
CIRCLE
8
BLACK
10
1.5523622047244094
20
0.4858267716535433
40
0.0068897637795276
0
CIRCLE
8
BLACK
10
1.6523622047244093
20
0.4858267716535433
40
0.0068897637795276
0
CIRCLE
8
BLACK
10
1.5523622047244094
20
0.3858267716535433
40
0.0068897637795276
0
CIRCLE
8
BLACK
10
1.6523622047244093
20
0.3858267716535433
40
0.0068897637795276
0
CIRCLE
8
BLACK
10
1.5523622047244094
20
0.2858267716535433
40
0.0068897637795276
0
CIRCLE
8
BLACK
10
1.6523622047244093
20
0.2858267716535433
40
0.0068897637795276
0
CIRCLE
8
BLACK
10
1.2297244094488189
20
2.0980314960629922
40
0.0068897637795276
0
CIRCLE
8
BLACK
10
1.2297244094488189
20
1.9980314960629921
40
0.0068897637795276
0
CIRCLE
8
BLACK
10
1.1297244094488188
20
2.0980314960629922
40
0.0068897637795276
0
CIRCLE
8
BLACK
10
1.1297244094488188
20
1.9980314960629921
40
0.0068897637795276
0
CIRCLE
8
BLACK
10
1.0297244094488189
20
2.0980314960629922
40
0.0068897637795276
0
CIRCLE
8
BLACK
10
1.0297244094488189
20
1.9980314960629921
40
0.0068897637795276
0
CIRCLE
8
BLACK
10
0.9297244094488188
20
2.0980314960629922
40
0.0068897637795276
0
CIRCLE
8
BLACK
10
0.9297244094488188
20
1.9980314960629921
40
0.0068897637795276
0
CIRCLE
8
BLACK
10
0.8297244094488189
20
2.0980314960629922
40
0.0068897637795276
0
CIRCLE
8
BLACK
10
0.8297244094488189
20
1.9980314960629921
40
0.0068897637795276
0
CIRCLE
8
BLACK
10
1.9669291338582677
20
1.7811023622047244
40
0.0068897637795276
0
CIRCLE
8
BLACK
10
2.0669291338582676
20
1.7811023622047244
40
0.0068897637795276
0
CIRCLE
8
BLACK
10
1.9669291338582677
20
1.6811023622047243
40
0.0068897637795276
0
CIRCLE
8
BLACK
10
2.0669291338582676
20
1.6811023622047243
40
0.0068897637795276
0
CIRCLE
8
BLACK
10
1.9669291338582677
20
1.5811023622047244
40
0.0068897637795276
0
CIRCLE
8
BLACK
10
2.0669291338582676
20
1.5811023622047244
40
0.0068897637795276
0
CIRCLE
8
BLACK
10
1.9669291338582677
20
1.4811023622047244
40
0.0068897637795276
0
CIRCLE
8
BLACK
10
2.0669291338582676
20
1.4811023622047244
40
0.0068897637795276
0
CIRCLE
8
BLACK
10
1.9669291338582677
20
1.3811023622047245
40
0.0068897637795276
0
CIRCLE
8
BLACK
10
2.0669291338582676
20
1.3811023622047245
40
0.0068897637795276
0
CIRCLE
8
BLACK
10
1.9669291338582677
20
1.2811023622047244
40
0.0068897637795276
0
CIRCLE
8
BLACK
10
2.0669291338582676
20
1.2811023622047244
40
0.0068897637795276
0
CIRCLE
8
BLACK
10
1.9669291338582677
20
1.1811023622047243
40
0.0068897637795276
0
CIRCLE
8
BLACK
10
2.0669291338582676
20
1.1811023622047243
40
0.0068897637795276
0
CIRCLE
8
BLACK
10
1.9669291338582677
20
1.0811023622047244
40
0.0068897637795276
0
CIRCLE
8
BLACK
10
2.0669291338582676
20
1.0811023622047244
40
0.0068897637795276
0
CIRCLE
8
BLACK
10
1.9669291338582677
20
0.9811023622047244
40
0.0068897637795276
0
CIRCLE
8
BLACK
10
2.0669291338582676
20
0.9811023622047244
40
0.0068897637795276
0
CIRCLE
8
BLACK
10
1.9669291338582677
20
0.8811023622047244
40
0.0068897637795276
0
CIRCLE
8
BLACK
10
2.0669291338582676
20
0.8811023622047244
40
0.0068897637795276
0
CIRCLE
8
BLACK
10
1.905511811023622
20
2.
40
0.0068897637795276
0
CIRCLE
8
BLACK
10
1.9331867716535434
20
2.0668132283464566
40
0.0068897637795276
0
CIRCLE
8
BLACK
10
1.9331867716535434
20
1.9331867716535434
40
0.0068897637795276
0
CIRCLE
8
BLACK
10
2.
20
2.0944881889763778
40
0.0068897637795276
0
CIRCLE
8
BLACK
10
2.
20
2.
40
0.0068897637795276
0
CIRCLE
8
BLACK
10
2.
20
1.905511811023622
40
0.0068897637795276
0
CIRCLE
8
BLACK
10
2.0668132283464566
20
2.0668132283464566
40
0.0068897637795276
0
CIRCLE
8
BLACK
10
2.0668132283464566
20
1.9331867716535434
40
0.0068897637795276
0
CIRCLE
8
BLACK
10
2.0944881889763778
20
2.
40
0.0068897637795276
0
CIRCLE
8
BLACK
10
1.0523622047244094
20
0.4818897637795275
40
0.0068897637795276
0
CIRCLE
8
BLACK
10
1.1523622047244095
20
0.4818897637795275
40
0.0068897637795276
0
CIRCLE
8
BLACK
10
1.0523622047244094
20
0.3818897637795275
40
0.0068897637795276
0
CIRCLE
8
BLACK
10
1.1523622047244095
20
0.3818897637795275
40
0.0068897637795276
0
CIRCLE
8
BLACK
10
1.0523622047244094
20
0.2818897637795276
40
0.0068897637795276
0
CIRCLE
8
BLACK
10
1.1523622047244095
20
0.2818897637795276
40
0.0068897637795276
0
CIRCLE
8
BLACK
10
0.4346456692913386
20
0.879527559055118
40
0.0068897637795276
0
CIRCLE
8
BLACK
10
0.3346456692913386
20
0.879527559055118
40
0.0068897637795276
0
CIRCLE
8
BLACK
10
0.4346456692913386
20
0.9795275590551181
40
0.0068897637795276
0
CIRCLE
8
BLACK
10
0.3346456692913386
20
0.9795275590551181
40
0.0068897637795276
0
CIRCLE
8
BLACK
10
0.4346456692913386
20
1.0795275590551181
40
0.0068897637795276
0
CIRCLE
8
BLACK
10
0.3346456692913386
20
1.0795275590551181
40
0.0068897637795276
0
CIRCLE
8
BLACK
10
0.4346456692913386
20
1.1795275590551182
40
0.0068897637795276
0
CIRCLE
8
BLACK
10
0.3346456692913386
20
1.1795275590551182
40
0.0068897637795276
0
CIRCLE
8
BLACK
10
0.4346456692913386
20
1.2795275590551181
40
0.0068897637795276
0
CIRCLE
8
BLACK
10
0.3346456692913386
20
1.2795275590551181
40
0.0068897637795276
0
CIRCLE
8
BLACK
10
0.4346456692913386
20
1.3795275590551181
40
0.0068897637795276
0
CIRCLE
8
BLACK
10
0.3346456692913386
20
1.3795275590551181
40
0.0068897637795276
0
CIRCLE
8
BLACK
10
0.4346456692913386
20
1.479527559055118
40
0.0068897637795276
0
CIRCLE
8
BLACK
10
0.3346456692913386
20
1.479527559055118
40
0.0068897637795276
0
CIRCLE
8
BLACK
10
0.4346456692913386
20
1.5795275590551181
40
0.0068897637795276
0
CIRCLE
8
BLACK
10
0.3346456692913386
20
1.5795275590551181
40
0.0068897637795276
0
CIRCLE
8
BLACK
10
0.4346456692913386
20
1.679527559055118
40
0.0068897637795276
0
CIRCLE
8
BLACK
10
0.3346456692913386
20
1.679527559055118
40
0.0068897637795276
0
CIRCLE
8
BLACK
10
0.4346456692913386
20
1.7795275590551181
40
0.0068897637795276
0
CIRCLE
8
BLACK
10
0.3346456692913386
20
1.7795275590551181
40
0.0068897637795276
0
CIRCLE
8
BLACK
10
1.5816929133858266
20
1.5383858267716535
40
0.0068897637795276
0
CIRCLE
8
BLACK
10
1.4816929133858268
20
1.5383858267716535
40
0.0068897637795276
0
CIRCLE
8
BLACK
10
0.305511811023622
20
2.
40
0.0068897637795276
0
CIRCLE
8
BLACK
10
0.3331867716535433
20
2.0668132283464566
40
0.0068897637795276
0
CIRCLE
8
BLACK
10
0.3331867716535433
20
1.9331867716535434
40
0.0068897637795276
0
CIRCLE
8
BLACK
10
0.4
20
2.0944881889763778
40
0.0068897637795276
0
CIRCLE
8
BLACK
10
0.4
20
2.
40
0.0068897637795276
0
CIRCLE
8
BLACK
10
0.4
20
1.905511811023622
40
0.0068897637795276
0
CIRCLE
8
BLACK
10
0.4668132283464567
20
2.0668132283464566
40
0.0068897637795276
0
CIRCLE
8
BLACK
10
0.4668132283464567
20
1.9331867716535434
40
0.0068897637795276
0
CIRCLE
8
BLACK
10
0.4944881889763779
20
2.
40
0.0068897637795276
0
CIRCLE
8
BLACK
10
0.6765748031496063
20
1.7838582677165353
40
0.0068897637795276
0
CIRCLE
8
BLACK
10
0.6765748031496063
20
1.8838582677165354
40
0.0068897637795276
0
CIRCLE
8
BLACK
10
0.7765748031496063
20
1.7838582677165353
40
0.0068897637795276
0
CIRCLE
8
BLACK
10
0.7765748031496063
20
1.8838582677165354
40
0.0068897637795276
0
CIRCLE
8
BLACK
10
0.8765748031496062
20
1.7838582677165353
40
0.0068897637795276
0
CIRCLE
8
BLACK
10
0.8765748031496062
20
1.8838582677165354
40
0.0068897637795276
0
CIRCLE
8
BLACK
10
0.9765748031496063
20
1.7838582677165353
40
0.0068897637795276
0
CIRCLE
8
BLACK
10
0.9765748031496063
20
1.8838582677165354
40
0.0068897637795276
0
CIRCLE
8
BLACK
10
1.0765748031496063
20
1.7838582677165353
40
0.0068897637795276
0
CIRCLE
8
BLACK
10
1.0765748031496063
20
1.8838582677165354
40
0.0068897637795276
0
CIRCLE
8
BLACK
10
1.1765748031496062
20
1.7838582677165353
40
0.0068897637795276
0
CIRCLE
8
BLACK
10
1.1765748031496062
20
1.8838582677165354
40
0.0068897637795276
0
CIRCLE
8
BLACK
10
1.2765748031496063
20
1.7838582677165353
40
0.0068897637795276
0
CIRCLE
8
BLACK
10
1.2765748031496063
20
1.8838582677165354
40
0.0068897637795276
0
CIRCLE
8
BLACK
10
1.3765748031496063
20
1.7838582677165353
40
0.0068897637795276
0
CIRCLE
8
BLACK
10
1.3765748031496063
20
1.8838582677165354
40
0.0068897637795276
0
CIRCLE
8
BLACK
10
1.4765748031496062
20
1.7838582677165353
40
0.0068897637795276
0
CIRCLE
8
BLACK
10
1.4765748031496062
20
1.8838582677165354
40
0.0068897637795276
0
CIRCLE
8
BLACK
10
1.5765748031496063
20
1.7838582677165353
40
0.0068897637795276
0
CIRCLE
8
BLACK
10
1.5765748031496063
20
1.8838582677165354
40
0.0068897637795276
0
CIRCLE
8
BLACK
10
1.6765748031496062
20
1.7838582677165353
40
0.0068897637795276
0
CIRCLE
8
BLACK
10
1.6765748031496062
20
1.8838582677165354
40
0.0068897637795276
0
CIRCLE
8
BLACK
10
1.7765748031496063
20
1.7838582677165353
40
0.0068897637795276
0
CIRCLE
8
BLACK
10
1.7765748031496063
20
1.8838582677165354
40
0.0068897637795276
0
CIRCLE
8
BLACK
10
0.8854330708661418
20
0.4454724409448819
40
0.0068897637795276
0
CIRCLE
8
BLACK
10
0.6578740157480315
20
0.4454724409448819
40
0.0068897637795276
0
LINE
8
BLACK
6
CONTINUOUS
10
0.9535433070866142
20
0.2848425196850394
11
0.9535433070866142
21
0.3163385826771654
0
ARC
8
BLACK
10
0.9417322834645669
20
0.3163385826771654
40
0.0118110236220472
50
0.00000000
51
180.00000000
0
LINE
8
BLACK
6
CONTINUOUS
10
0.9299212598425196
20
0.3163385826771654
11
0.9299212598425196
21
0.2848425196850394
0
ARC
8
BLACK
10
0.9417322834645669
20
0.2848425196850394
40
0.0118110236220472
50
180.00000000
51
360.00000000
0
LINE
8
BLACK
6
CONTINUOUS
10
0.6133858267716535
20
0.2848425196850394
11
0.6133858267716535
21
0.3163385826771654
0
ARC
8
BLACK
10
0.6015748031496063
20
0.3163385826771654
40
0.0118110236220472
50
0.00000000
51
180.00000000
0
LINE
8
BLACK
6
CONTINUOUS
10
0.5897637795275591
20
0.3163385826771654
11
0.5897637795275591
21
0.2848425196850394
0
ARC
8
BLACK
10
0.6015748031496063
20
0.2848425196850394
40
0.0118110236220472
50
180.00000000
51
360.00000000
0
LINE
8
BLACK
6
CONTINUOUS
10
0.9535433070866142
20
0.443503937007874
11
0.9535433070866142
21
0.4868110236220473
0
ARC
8
BLACK
10
0.9417322834645669
20
0.4868110236220473
40
0.0118110236220472
50
0.00000000
51
180.00000000
0
LINE
8
BLACK
6
CONTINUOUS
10
0.9299212598425196
20
0.4868110236220473
11
0.9299212598425196
21
0.443503937007874
0
ARC
8
BLACK
10
0.9417322834645669
20
0.443503937007874
40
0.0118110236220472
50
180.00000000
51
360.00000000
0
LINE
8
BLACK
6
CONTINUOUS
10
0.6133858267716535
20
0.443503937007874
11
0.6133858267716535
21
0.4868110236220473
0
ARC
8
BLACK
10
0.6015748031496063
20
0.4868110236220473
40
0.0118110236220472
50
0.00000000
51
180.00000000
0
LINE
8
BLACK
6
CONTINUOUS
10
0.5897637795275591
20
0.4868110236220473
11
0.5897637795275591
21
0.443503937007874
0
ARC
8
BLACK
10
0.6015748031496063
20
0.443503937007874
40
0.0118110236220472
50
180.00000000
51
360.00000000
0
LINE
8
BLACK
6
CONTINUOUS
10
1.4153543700787401
20
0.6633858267716535
11
1.4153543700787401
21
0.6437007874015748
0
ARC
8
BLACK
10
1.4527559055118109
20
0.6437007874015748
40
0.0374015354330709
50
-180.00000000
51
0.00000000
0
LINE
8
BLACK
6
CONTINUOUS
10
1.4901574409448819
20
0.6437007874015748
11
1.4901574409448819
21
0.6633858267716535
0
ARC
8
BLACK
10
1.4527559055118109
20
0.6633858267716535
40
0.0374015354330709
50
0.00000000
51
180.00000000
0
LINE
8
BLACK
6
CONTINUOUS
10
1.6948818503937007
20
0.6437007874015748
11
1.6948818503937007
21
0.6633858267716535
0
ARC
8
BLACK
10
1.6574803149606299
20
0.6633858267716535
40
0.0374015354330709
50
0.00000000
51
180.00000000
0
LINE
8
BLACK
6
CONTINUOUS
10
1.6200787795275591
20
0.6633858267716535
11
1.6200787795275591
21
0.6437007874015748
0
ARC
8
BLACK
10
1.6574803149606299
20
0.6437007874015748
40
0.0374015354330709
50
180.00000000
51
360.00000000
  0
ENDSEC
  0
EOF
