  0
SECTION
  2
HEADER
  9
$ANGBASE
  50
0.0
  9
$ANGDIR
  70
1
  9
$MEASUREMENT
  70
0
  0
ENDSEC
  0
SECTION
  2
TABLES
  0
TABLE
  2
LTYPE
  70
4
  0
LTYPE
  5
40F
  2
CONTINUOUS
  70
0
  3
Solid line
  72
65
  73
0
  40
0.0
  0
LTYPE
  5
410
  2
DASHDOT
 70
0
  3
Dash Dot ____ _ ____ _
 72
65
 73
4
 40
2.0
 49
1.25
 49
-0.25
 49
0.25
 49
-0.25
  0
LTYPE
  5
411
  2
DASHED
 70
0
  3
Dashed __ __ __ __ __
 72
65
 73
2
 40
0.75
 49
0.5
 49
-0.25
  0
LTYPE
  5
43B
  2
DOTTED
 70
0
  3
Dotted .  .  .  .
 72
65
 73
2
 40
0.2
 49
0.0
 49
-0.2
  0
ENDTAB
  0
TABLE
  2
STYLE
  70
4
  0
STYLE
  2
KICAD
  70
0
  40
0
  41
1
  42
1
  50
0
  71
0
  3
isocp.shx
  0
STYLE
  2
KICADB
  70
0
  40
0
  41
1
  42
1
  50
0
  71
0
  3
isocp.shx
  0
STYLE
  2
KICADI
  70
0
  40
0
  41
1
  42
1
  50
15
  71
0
  3
isocp.shx
  0
STYLE
  2
KICADBI
  70
0
  40
0
  41
1
  42
1
  50
15
  71
0
  3
isocp.shx
  0
ENDTAB
  0
TABLE
  2
LAYER
  70
1
  0
LAYER
  2
BLACK
  70
0
  62
7
  6
CONTINUOUS
  0
ENDTAB
  0
ENDSEC
  0
SECTION
  2
ENTITIES
0
LINE
8
BLACK
6
CONTINUOUS
10
0.9728175984251969
20
0.5211849212598425
11
0.9733502755905512
21
0.5206522440944882
0
LINE
8
BLACK
6
CONTINUOUS
10
0.9733502755905512
20
0.5206522440944882
11
0.9734251968503936
21
0.1883858267716536
0
LINE
8
BLACK
6
CONTINUOUS
10
0.9734251968503936
20
0.1883858267716536
11
0.9733502755905512
21
0.1880091732283465
0
LINE
8
BLACK
6
CONTINUOUS
10
0.9733502755905512
20
0.1880091732283465
11
0.9728175984251969
21
0.1874764960629921
0
LINE
8
BLACK
6
CONTINUOUS
10
0.9728175984251969
20
0.1874764960629921
11
0.5708661417322834
21
0.1874015748031496
0
LINE
8
BLACK
6
CONTINUOUS
10
0.5708661417322834
20
0.1874015748031496
11
0.5704894881889764
21
0.1874764960629921
0
LINE
8
BLACK
6
CONTINUOUS
10
0.5704894881889764
20
0.1874764960629921
11
0.5699568110236221
21
0.1880091732283465
0
LINE
8
BLACK
6
CONTINUOUS
10
0.5699568110236221
20
0.1880091732283465
11
0.5698818897637795
21
0.5202755905511811
0
LINE
8
BLACK
6
CONTINUOUS
10
0.5698818897637795
20
0.5202755905511811
11
0.5699568110236221
21
0.5206522440944882
0
LINE
8
BLACK
6
CONTINUOUS
10
0.5699568110236221
20
0.5206522440944882
11
0.5704894881889764
21
0.5211849212598425
0
LINE
8
BLACK
6
CONTINUOUS
10
0.5704894881889764
20
0.5211849212598425
11
0.9724409448818897
21
0.521259842519685
0
LINE
8
BLACK
6
CONTINUOUS
10
0.9724409448818897
20
0.521259842519685
11
0.9728175984251969
21
0.5211849212598425
0
LINE
8
BLACK
6
CONTINUOUS
10
0.571775748031496
20
0.5192915354330708
11
0.571850157480315
21
0.1892954330708661
0
LINE
8
BLACK
6
CONTINUOUS
10
0.571850157480315
20
0.1892954330708661
11
0.9715312992125984
21
0.1893699212598425
0
LINE
8
BLACK
6
CONTINUOUS
10
0.9715312992125984
20
0.1893699212598425
11
0.9714568897637795
21
0.5193660236220472
0
LINE
8
BLACK
6
CONTINUOUS
10
0.9714568897637795
20
0.5193660236220472
11
0.571775748031496
21
0.5192915354330708
0
LINE
8
BLACK
6
CONTINUOUS
10
1.4925026377952755
20
0.5816179921259842
11
1.4930353149606299
21
0.5810853149606299
0
LINE
8
BLACK
6
CONTINUOUS
10
1.4930353149606299
20
0.5810853149606299
11
1.4931102362204725
21
0.234251968503937
0
LINE
8
BLACK
6
CONTINUOUS
10
1.4931102362204725
20
0.234251968503937
11
1.4930353149606299
21
0.2338753149606299
0
LINE
8
BLACK
6
CONTINUOUS
10
1.4930353149606299
20
0.2338753149606299
11
1.4925026377952755
21
0.2333426377952756
0
LINE
8
BLACK
6
CONTINUOUS
10
1.4925026377952755
20
0.2333426377952756
11
1.2086614173228347
21
0.2332677165354331
0
LINE
8
BLACK
6
CONTINUOUS
10
1.2086614173228347
20
0.2332677165354331
11
1.2082847637795275
21
0.2333426377952756
0
LINE
8
BLACK
6
CONTINUOUS
10
1.2082847637795275
20
0.2333426377952756
11
1.2077520866141731
21
0.2338753149606299
0
LINE
8
BLACK
6
CONTINUOUS
10
1.2077520866141731
20
0.2338753149606299
11
1.2076771653543308
21
0.5807086614173228
0
LINE
8
BLACK
6
CONTINUOUS
10
1.2076771653543308
20
0.5807086614173228
11
1.2077520866141731
21
0.5810853149606299
0
LINE
8
BLACK
6
CONTINUOUS
10
1.2077520866141731
20
0.5810853149606299
11
1.2082847637795275
21
0.5816179921259842
0
LINE
8
BLACK
6
CONTINUOUS
10
1.2082847637795275
20
0.5816179921259842
11
1.4921259842519685
21
0.5816929133858267
0
LINE
8
BLACK
6
CONTINUOUS
10
1.4921259842519685
20
0.5816929133858267
11
1.4925026377952755
21
0.5816179921259842
0
LINE
8
BLACK
6
CONTINUOUS
10
1.2095710236220472
20
0.57972468503937
11
1.2096454724409449
21
0.2351616929133858
0
LINE
8
BLACK
6
CONTINUOUS
10
1.2096454724409449
20
0.2351616929133858
11
1.4912163385826771
21
0.2352359842519685
0
LINE
8
BLACK
6
CONTINUOUS
10
1.4912163385826771
20
0.2352359842519685
11
1.4911418897637796
21
0.5797989763779527
0
LINE
8
BLACK
6
CONTINUOUS
10
1.4911418897637796
20
0.5797989763779527
11
1.2095710236220472
21
0.57972468503937
0
LINE
8
BLACK
6
CONTINUOUS
10
1.7818727165354331
20
0.6019920078740157
11
1.7824053937007873
21
0.6014593307086614
0
LINE
8
BLACK
6
CONTINUOUS
10
1.7824053937007873
20
0.6014593307086614
11
1.7824803149606299
21
0.4687992125984252
0
LINE
8
BLACK
6
CONTINUOUS
10
1.7824803149606299
20
0.4687992125984252
11
1.7824053937007873
21
0.4684225590551181
0
LINE
8
BLACK
6
CONTINUOUS
10
1.7824053937007873
20
0.4684225590551181
11
1.7818727165354331
21
0.4678898818897638
0
LINE
8
BLACK
6
CONTINUOUS
10
1.7818727165354331
20
0.4678898818897638
11
1.7066929133858266
21
0.4678149606299212
0
LINE
8
BLACK
6
CONTINUOUS
10
1.7066929133858266
20
0.4678149606299212
11
1.7063162598425197
21
0.4678898818897638
0
LINE
8
BLACK
6
CONTINUOUS
10
1.7063162598425197
20
0.4678898818897638
11
1.7057835826771652
21
0.4684225590551181
0
LINE
8
BLACK
6
CONTINUOUS
10
1.7057835826771652
20
0.4684225590551181
11
1.7057086614173227
21
0.6010826771653544
0
LINE
8
BLACK
6
CONTINUOUS
10
1.7057086614173227
20
0.6010826771653544
11
1.7057835826771652
21
0.6014593307086614
0
LINE
8
BLACK
6
CONTINUOUS
10
1.7057835826771652
20
0.6014593307086614
11
1.7063162598425197
21
0.6019920078740157
0
LINE
8
BLACK
6
CONTINUOUS
10
1.7063162598425197
20
0.6019920078740157
11
1.7814960629921259
21
0.6020669291338583
0
LINE
8
BLACK
6
CONTINUOUS
10
1.7814960629921259
20
0.6020669291338583
11
1.7818727165354331
21
0.6019920078740157
0
LINE
8
BLACK
6
CONTINUOUS
10
1.7076029921259843
20
0.6000993700787401
11
1.7076766141732282
21
0.4697099212598425
0
LINE
8
BLACK
6
CONTINUOUS
10
1.7076766141732282
20
0.4697099212598425
11
1.7805859448818897
21
0.4697825590551181
0
LINE
8
BLACK
6
CONTINUOUS
10
1.7805859448818897
20
0.4697825590551181
11
1.7805123228346456
21
0.6001720078740157
0
LINE
8
BLACK
6
CONTINUOUS
10
1.7805123228346456
20
0.6001720078740157
11
1.7076029921259843
21
0.6000993700787401
0
LINE
8
BLACK
6
CONTINUOUS
10
1.8606128740157479
20
0.6029762598425197
11
1.8611455511811024
21
0.6024435826771654
0
LINE
8
BLACK
6
CONTINUOUS
10
1.8611455511811024
20
0.6024435826771654
11
1.8612204724409449
21
0.4697834645669291
0
LINE
8
BLACK
6
CONTINUOUS
10
1.8612204724409449
20
0.4697834645669291
11
1.8611455511811024
21
0.469406811023622
0
LINE
8
BLACK
6
CONTINUOUS
10
1.8611455511811024
20
0.469406811023622
11
1.8606128740157479
21
0.4688741338582677
0
LINE
8
BLACK
6
CONTINUOUS
10
1.8606128740157479
20
0.4688741338582677
11
1.7854330708661417
21
0.4687992125984252
0
LINE
8
BLACK
6
CONTINUOUS
10
1.7854330708661417
20
0.4687992125984252
11
1.7850564173228347
21
0.4688741338582677
0
LINE
8
BLACK
6
CONTINUOUS
10
1.7850564173228347
20
0.4688741338582677
11
1.7845237401574803
21
0.469406811023622
0
LINE
8
BLACK
6
CONTINUOUS
10
1.7845237401574803
20
0.469406811023622
11
1.7844488188976377
21
0.6020669291338583
0
LINE
8
BLACK
6
CONTINUOUS
10
1.7844488188976377
20
0.6020669291338583
11
1.7845237401574803
21
0.6024435826771654
0
LINE
8
BLACK
6
CONTINUOUS
10
1.7845237401574803
20
0.6024435826771654
11
1.7850564173228347
21
0.6029762598425197
0
LINE
8
BLACK
6
CONTINUOUS
10
1.7850564173228347
20
0.6029762598425197
11
1.860236220472441
21
0.6030511811023622
0
LINE
8
BLACK
6
CONTINUOUS
10
1.860236220472441
20
0.6030511811023622
11
1.8606128740157479
21
0.6029762598425197
0
LINE
8
BLACK
6
CONTINUOUS
10
1.7863431496062991
20
0.6010836220472441
11
1.7864167716535433
21
0.4706941732283464
0
LINE
8
BLACK
6
CONTINUOUS
10
1.7864167716535433
20
0.4706941732283464
11
1.8593261023622047
21
0.4707668110236221
0
LINE
8
BLACK
6
CONTINUOUS
10
1.8593261023622047
20
0.4707668110236221
11
1.8592524803149606
21
0.6011562598425196
0
LINE
8
BLACK
6
CONTINUOUS
10
1.8592524803149606
20
0.6011562598425196
11
1.7863431496062991
21
0.6010836220472441
0
LINE
8
BLACK
6
CONTINUOUS
10
0.9432900393700787
20
0.6662636614173228
11
0.943822716535433
21
0.6657309842519685
0
LINE
8
BLACK
6
CONTINUOUS
10
0.943822716535433
20
0.6657309842519685
11
0.9438976377952756
21
0.5314960629921259
0
LINE
8
BLACK
6
CONTINUOUS
10
0.9438976377952756
20
0.5314960629921259
11
0.943822716535433
21
0.5311194094488189
0
LINE
8
BLACK
6
CONTINUOUS
10
0.943822716535433
20
0.5311194094488189
11
0.9432900393700787
21
0.5305867322834645
0
LINE
8
BLACK
6
CONTINUOUS
10
0.9432900393700787
20
0.5305867322834645
11
0.7814960629921259
21
0.530511811023622
0
LINE
8
BLACK
6
CONTINUOUS
10
0.7814960629921259
20
0.530511811023622
11
0.7811194094488189
21
0.5305867322834645
0
LINE
8
BLACK
6
CONTINUOUS
10
0.7811194094488189
20
0.5305867322834645
11
0.7805867322834645
21
0.5311194094488189
0
LINE
8
BLACK
6
CONTINUOUS
10
0.7805867322834645
20
0.5311194094488189
11
0.780511811023622
21
0.6653543307086615
0
LINE
8
BLACK
6
CONTINUOUS
10
0.780511811023622
20
0.6653543307086615
11
0.7805867322834645
21
0.6657309842519685
0
LINE
8
BLACK
6
CONTINUOUS
10
0.7805867322834645
20
0.6657309842519685
11
0.7811194094488189
21
0.6662636614173228
0
LINE
8
BLACK
6
CONTINUOUS
10
0.7811194094488189
20
0.6662636614173228
11
0.9429133858267716
21
0.6663385826771654
0
LINE
8
BLACK
6
CONTINUOUS
10
0.9429133858267716
20
0.6663385826771654
11
0.9432900393700787
21
0.6662636614173228
0
LINE
8
BLACK
6
CONTINUOUS
10
0.7824061417322834
20
0.6643705118110236
11
0.7824798031496063
21
0.532406062992126
0
LINE
8
BLACK
6
CONTINUOUS
10
0.7824798031496063
20
0.532406062992126
11
0.9420032677165354
21
0.5324799212598426
0
LINE
8
BLACK
6
CONTINUOUS
10
0.9420032677165354
20
0.5324799212598426
11
0.9419296062992126
21
0.6644443700787401
0
LINE
8
BLACK
6
CONTINUOUS
10
0.9419296062992126
20
0.6644443700787401
11
0.7824061417322834
21
0.6643705118110236
0
LINE
8
BLACK
6
CONTINUOUS
10
0.5384672047244095
20
0.631814842519685
11
0.5389998818897638
21
0.6312821653543307
0
LINE
8
BLACK
6
CONTINUOUS
10
0.5389998818897638
20
0.6312821653543307
11
0.5390748031496063
21
0.5561023622047244
0
LINE
8
BLACK
6
CONTINUOUS
10
0.5390748031496063
20
0.5561023622047244
11
0.5389998818897638
21
0.5557257086614174
0
LINE
8
BLACK
6
CONTINUOUS
10
0.5389998818897638
20
0.5557257086614174
11
0.5384672047244095
21
0.555193031496063
0
LINE
8
BLACK
6
CONTINUOUS
10
0.5384672047244095
20
0.555193031496063
11
0.4058070866141732
21
0.5551181102362205
0
LINE
8
BLACK
6
CONTINUOUS
10
0.4058070866141732
20
0.5551181102362205
11
0.4054304330708661
21
0.555193031496063
0
LINE
8
BLACK
6
CONTINUOUS
10
0.4054304330708661
20
0.555193031496063
11
0.4048977559055118
21
0.5557257086614174
0
LINE
8
BLACK
6
CONTINUOUS
10
0.4048977559055118
20
0.5557257086614174
11
0.4048228346456693
21
0.6309055118110236
0
LINE
8
BLACK
6
CONTINUOUS
10
0.4048228346456693
20
0.6309055118110236
11
0.4048977559055118
21
0.6312821653543307
0
LINE
8
BLACK
6
CONTINUOUS
10
0.4048977559055118
20
0.6312821653543307
11
0.4054304330708661
21
0.631814842519685
0
LINE
8
BLACK
6
CONTINUOUS
10
0.4054304330708661
20
0.631814842519685
11
0.5380905511811024
21
0.6318897637795275
0
LINE
8
BLACK
6
CONTINUOUS
10
0.5380905511811024
20
0.6318897637795275
11
0.5384672047244095
21
0.631814842519685
0
LINE
8
BLACK
6
CONTINUOUS
10
0.4067177559055118
20
0.629921811023622
11
0.4067903937007874
21
0.5570124803149606
0
LINE
8
BLACK
6
CONTINUOUS
10
0.4067903937007874
20
0.5570124803149606
11
0.537179842519685
21
0.5570861023622047
0
LINE
8
BLACK
6
CONTINUOUS
10
0.537179842519685
20
0.5570861023622047
11
0.5371072047244094
21
0.6299954330708661
0
LINE
8
BLACK
6
CONTINUOUS
10
0.5371072047244094
20
0.6299954330708661
11
0.4067177559055118
21
0.629921811023622
0
LINE
8
BLACK
6
CONTINUOUS
10
0.4016561811023622
20
0.6327990944881889
11
0.4021888582677166
21
0.6322664173228346
0
LINE
8
BLACK
6
CONTINUOUS
10
0.4021888582677166
20
0.6322664173228346
11
0.402263779527559
21
0.5570866141732284
0
LINE
8
BLACK
6
CONTINUOUS
10
0.402263779527559
20
0.5570866141732284
11
0.4021888582677166
21
0.5567099606299213
0
LINE
8
BLACK
6
CONTINUOUS
10
0.4021888582677166
20
0.5567099606299213
11
0.4016561811023622
21
0.556177283464567
0
LINE
8
BLACK
6
CONTINUOUS
10
0.4016561811023622
20
0.556177283464567
11
0.268996062992126
21
0.5561023622047244
0
LINE
8
BLACK
6
CONTINUOUS
10
0.268996062992126
20
0.5561023622047244
11
0.2686194094488189
21
0.556177283464567
0
LINE
8
BLACK
6
CONTINUOUS
10
0.2686194094488189
20
0.556177283464567
11
0.2680867322834646
21
0.5567099606299213
0
LINE
8
BLACK
6
CONTINUOUS
10
0.2680867322834646
20
0.5567099606299213
11
0.268011811023622
21
0.6318897637795275
0
LINE
8
BLACK
6
CONTINUOUS
10
0.268011811023622
20
0.6318897637795275
11
0.2680867322834646
21
0.6322664173228346
0
LINE
8
BLACK
6
CONTINUOUS
10
0.2680867322834646
20
0.6322664173228346
11
0.2686194094488189
21
0.6327990944881889
0
LINE
8
BLACK
6
CONTINUOUS
10
0.2686194094488189
20
0.6327990944881889
11
0.4012795275590551
21
0.6328740157480315
0
LINE
8
BLACK
6
CONTINUOUS
10
0.4012795275590551
20
0.6328740157480315
11
0.4016561811023622
21
0.6327990944881889
0
LINE
8
BLACK
6
CONTINUOUS
10
0.2699067322834646
20
0.6309060629921259
11
0.2699793700787402
21
0.5579967322834646
0
LINE
8
BLACK
6
CONTINUOUS
10
0.2699793700787402
20
0.5579967322834646
11
0.4003688188976378
21
0.5580703543307086
0
LINE
8
BLACK
6
CONTINUOUS
10
0.4003688188976378
20
0.5580703543307086
11
0.4002961811023622
21
0.6309796850393701
0
LINE
8
BLACK
6
CONTINUOUS
10
0.4002961811023622
20
0.6309796850393701
11
0.2699067322834646
21
0.6309060629921259
0
LINE
8
BLACK
6
CONTINUOUS
10
0.6757703543307086
20
0.6327990944881889
11
0.676303031496063
21
0.6322664173228346
0
LINE
8
BLACK
6
CONTINUOUS
10
0.676303031496063
20
0.6322664173228346
11
0.6763779527559055
21
0.5570866141732284
0
LINE
8
BLACK
6
CONTINUOUS
10
0.6763779527559055
20
0.5570866141732284
11
0.676303031496063
21
0.5567099606299213
0
LINE
8
BLACK
6
CONTINUOUS
10
0.676303031496063
20
0.5567099606299213
11
0.6757703543307086
21
0.556177283464567
0
LINE
8
BLACK
6
CONTINUOUS
10
0.6757703543307086
20
0.556177283464567
11
0.5431102362204724
21
0.5561023622047244
0
LINE
8
BLACK
6
CONTINUOUS
10
0.5431102362204724
20
0.5561023622047244
11
0.5427335826771653
21
0.556177283464567
0
LINE
8
BLACK
6
CONTINUOUS
10
0.5427335826771653
20
0.556177283464567
11
0.542200905511811
21
0.5567099606299213
0
LINE
8
BLACK
6
CONTINUOUS
10
0.542200905511811
20
0.5567099606299213
11
0.5421259842519685
21
0.6318897637795275
0
LINE
8
BLACK
6
CONTINUOUS
10
0.5421259842519685
20
0.6318897637795275
11
0.542200905511811
21
0.6322664173228346
0
LINE
8
BLACK
6
CONTINUOUS
10
0.542200905511811
20
0.6322664173228346
11
0.5427335826771653
21
0.6327990944881889
0
LINE
8
BLACK
6
CONTINUOUS
10
0.5427335826771653
20
0.6327990944881889
11
0.6753937007874016
21
0.6328740157480315
0
LINE
8
BLACK
6
CONTINUOUS
10
0.6753937007874016
20
0.6328740157480315
11
0.6757703543307086
21
0.6327990944881889
0
LINE
8
BLACK
6
CONTINUOUS
10
0.544020905511811
20
0.6309060629921259
11
0.5440935433070866
21
0.5579967322834646
0
LINE
8
BLACK
6
CONTINUOUS
10
0.5440935433070866
20
0.5579967322834646
11
0.6744829921259843
21
0.5580703543307086
0
LINE
8
BLACK
6
CONTINUOUS
10
0.6744829921259843
20
0.5580703543307086
11
0.6744103543307086
21
0.6309796850393701
0
LINE
8
BLACK
6
CONTINUOUS
10
0.6744103543307086
20
0.6309796850393701
11
0.544020905511811
21
0.6309060629921259
0
LINE
8
BLACK
6
CONTINUOUS
10
0.6068727165354331
20
0.772562874015748
11
0.6074053937007874
21
0.7720301968503936
0
LINE
8
BLACK
6
CONTINUOUS
10
0.6074053937007874
20
0.7720301968503936
11
0.6074803149606299
21
0.6377952755905512
0
LINE
8
BLACK
6
CONTINUOUS
10
0.6074803149606299
20
0.6377952755905512
11
0.6074053937007874
21
0.6374186220472441
0
LINE
8
BLACK
6
CONTINUOUS
10
0.6074053937007874
20
0.6374186220472441
11
0.6068727165354331
21
0.6368859448818898
0
LINE
8
BLACK
6
CONTINUOUS
10
0.6068727165354331
20
0.6368859448818898
11
0.5293307086614173
21
0.6368110236220472
0
LINE
8
BLACK
6
CONTINUOUS
10
0.5293307086614173
20
0.6368110236220472
11
0.5289540551181102
21
0.6368859448818898
0
LINE
8
BLACK
6
CONTINUOUS
10
0.5289540551181102
20
0.6368859448818898
11
0.5284213779527559
21
0.6374186220472441
0
LINE
8
BLACK
6
CONTINUOUS
10
0.5284213779527559
20
0.6374186220472441
11
0.5283464566929134
21
0.7716535433070866
0
LINE
8
BLACK
6
CONTINUOUS
10
0.5283464566929134
20
0.7716535433070866
11
0.5284213779527559
21
0.7720301968503936
0
LINE
8
BLACK
6
CONTINUOUS
10
0.5284213779527559
20
0.7720301968503936
11
0.5289540551181102
21
0.772562874015748
0
LINE
8
BLACK
6
CONTINUOUS
10
0.5289540551181102
20
0.772562874015748
11
0.606496062992126
21
0.7726377952755905
0
LINE
8
BLACK
6
CONTINUOUS
10
0.606496062992126
20
0.7726377952755905
11
0.6068727165354331
21
0.772562874015748
0
LINE
8
BLACK
6
CONTINUOUS
10
0.5302407874015748
20
0.7706701968503937
11
0.5303144488188977
21
0.6387059448818897
0
LINE
8
BLACK
6
CONTINUOUS
10
0.5303144488188977
20
0.6387059448818897
11
0.6055859448818898
21
0.6387786614173229
0
LINE
8
BLACK
6
CONTINUOUS
10
0.6055859448818898
20
0.6387786614173229
11
0.6055122834645669
21
0.7707429133858268
0
LINE
8
BLACK
6
CONTINUOUS
10
0.6055122834645669
20
0.7707429133858268
11
0.5302407874015748
21
0.7706701968503937
0
LINE
8
BLACK
6
CONTINUOUS
10
0.6895498818897637
20
0.772562874015748
11
0.6900825590551181
21
0.7720301968503936
0
LINE
8
BLACK
6
CONTINUOUS
10
0.6900825590551181
20
0.7720301968503936
11
0.6901574803149606
21
0.6377952755905512
0
LINE
8
BLACK
6
CONTINUOUS
10
0.6901574803149606
20
0.6377952755905512
11
0.6900825590551181
21
0.6374186220472441
0
LINE
8
BLACK
6
CONTINUOUS
10
0.6900825590551181
20
0.6374186220472441
11
0.6895498818897637
21
0.6368859448818898
0
LINE
8
BLACK
6
CONTINUOUS
10
0.6895498818897637
20
0.6368859448818898
11
0.612007874015748
21
0.6368110236220472
0
LINE
8
BLACK
6
CONTINUOUS
10
0.612007874015748
20
0.6368110236220472
11
0.6116312204724409
21
0.6368859448818898
0
LINE
8
BLACK
6
CONTINUOUS
10
0.6116312204724409
20
0.6368859448818898
11
0.6110985433070866
21
0.6374186220472441
0
LINE
8
BLACK
6
CONTINUOUS
10
0.6110985433070866
20
0.6374186220472441
11
0.611023622047244
21
0.7716535433070866
0
LINE
8
BLACK
6
CONTINUOUS
10
0.611023622047244
20
0.7716535433070866
11
0.6110985433070866
21
0.7720301968503936
0
LINE
8
BLACK
6
CONTINUOUS
10
0.6110985433070866
20
0.7720301968503936
11
0.6116312204724409
21
0.772562874015748
0
LINE
8
BLACK
6
CONTINUOUS
10
0.6116312204724409
20
0.772562874015748
11
0.6891732283464567
21
0.7726377952755905
0
LINE
8
BLACK
6
CONTINUOUS
10
0.6891732283464567
20
0.7726377952755905
11
0.6895498818897637
21
0.772562874015748
0
LINE
8
BLACK
6
CONTINUOUS
10
0.6129179527559055
20
0.7706701968503937
11
0.6129916141732283
21
0.6387059448818897
0
LINE
8
BLACK
6
CONTINUOUS
10
0.6129916141732283
20
0.6387059448818897
11
0.6882631102362204
21
0.6387786614173229
0
LINE
8
BLACK
6
CONTINUOUS
10
0.6882631102362204
20
0.6387786614173229
11
0.6881894488188977
21
0.7707429133858268
0
LINE
8
BLACK
6
CONTINUOUS
10
0.6881894488188977
20
0.7707429133858268
11
0.6129179527559055
21
0.7706701968503937
0
LINE
8
BLACK
6
CONTINUOUS
10
1.2200616929133858
20
0.7843738976377953
11
1.2205943700787401
21
0.783841220472441
0
LINE
8
BLACK
6
CONTINUOUS
10
1.2205943700787401
20
0.783841220472441
11
1.2206692913385826
21
0.6496062992125984
0
LINE
8
BLACK
6
CONTINUOUS
10
1.2206692913385826
20
0.6496062992125984
11
1.2205943700787401
21
0.6492296456692913
0
LINE
8
BLACK
6
CONTINUOUS
10
1.2205943700787401
20
0.6492296456692913
11
1.2200616929133858
21
0.648696968503937
0
LINE
8
BLACK
6
CONTINUOUS
10
1.2200616929133858
20
0.648696968503937
11
1.14251968503937
21
0.6486220472440944
0
LINE
8
BLACK
6
CONTINUOUS
10
1.14251968503937
20
0.6486220472440944
11
1.142143031496063
21
0.648696968503937
0
LINE
8
BLACK
6
CONTINUOUS
10
1.142143031496063
20
0.648696968503937
11
1.1416103543307086
21
0.6492296456692913
0
LINE
8
BLACK
6
CONTINUOUS
10
1.1416103543307086
20
0.6492296456692913
11
1.141535433070866
21
0.7834645669291338
0
LINE
8
BLACK
6
CONTINUOUS
10
1.141535433070866
20
0.7834645669291338
11
1.1416103543307086
21
0.783841220472441
0
LINE
8
BLACK
6
CONTINUOUS
10
1.1416103543307086
20
0.783841220472441
11
1.142143031496063
21
0.7843738976377953
0
LINE
8
BLACK
6
CONTINUOUS
10
1.142143031496063
20
0.7843738976377953
11
1.2196850393700787
21
0.7844488188976377
0
LINE
8
BLACK
6
CONTINUOUS
10
1.2196850393700787
20
0.7844488188976377
11
1.2200616929133858
21
0.7843738976377953
0
LINE
8
BLACK
6
CONTINUOUS
10
1.1434297637795274
20
0.782481220472441
11
1.1435034251968503
21
0.650516968503937
0
LINE
8
BLACK
6
CONTINUOUS
10
1.1435034251968503
20
0.650516968503937
11
1.2187749212598424
21
0.6505896850393701
0
LINE
8
BLACK
6
CONTINUOUS
10
1.2187749212598424
20
0.6505896850393701
11
1.2187012598425198
21
0.782553937007874
0
LINE
8
BLACK
6
CONTINUOUS
10
1.2187012598425198
20
0.782553937007874
11
1.1434297637795274
21
0.782481220472441
0
LINE
8
BLACK
6
CONTINUOUS
10
1.1362034251968505
20
0.9063227165354331
11
1.1367361023622047
21
0.9057900393700787
0
LINE
8
BLACK
6
CONTINUOUS
10
1.1367361023622047
20
0.9057900393700787
11
1.1368110236220472
21
0.6802165354330708
0
LINE
8
BLACK
6
CONTINUOUS
10
1.1368110236220472
20
0.6802165354330708
11
1.1367361023622047
21
0.6798398818897637
0
LINE
8
BLACK
6
CONTINUOUS
10
1.1367361023622047
20
0.6798398818897637
11
1.1362034251968505
21
0.6793072047244094
0
LINE
8
BLACK
6
CONTINUOUS
10
1.1362034251968505
20
0.6793072047244094
11
0.7696850393700787
21
0.6792322834645669
0
LINE
8
BLACK
6
CONTINUOUS
10
0.7696850393700787
20
0.6792322834645669
11
0.7693083858267716
21
0.6793072047244094
0
LINE
8
BLACK
6
CONTINUOUS
10
0.7693083858267716
20
0.6793072047244094
11
0.7687757086614173
21
0.6798398818897637
0
LINE
8
BLACK
6
CONTINUOUS
10
0.7687757086614173
20
0.6798398818897637
11
0.7687007874015748
21
0.9054133858267717
0
LINE
8
BLACK
6
CONTINUOUS
10
0.7687007874015748
20
0.9054133858267717
11
0.7687757086614173
21
0.9057900393700787
0
LINE
8
BLACK
6
CONTINUOUS
10
0.7687757086614173
20
0.9057900393700787
11
0.7693083858267716
21
0.9063227165354331
0
LINE
8
BLACK
6
CONTINUOUS
10
0.7693083858267716
20
0.9063227165354331
11
1.1358267716535433
21
0.9063976377952756
0
LINE
8
BLACK
6
CONTINUOUS
10
1.1358267716535433
20
0.9063976377952756
11
1.1362034251968505
21
0.9063227165354331
0
LINE
8
BLACK
6
CONTINUOUS
10
0.7705948031496063
20
0.9044293307086614
11
0.7706689763779527
21
0.6811261811023622
0
LINE
8
BLACK
6
CONTINUOUS
10
0.7706689763779527
20
0.6811261811023622
11
1.1349169685039371
21
0.6812006299212598
0
LINE
8
BLACK
6
CONTINUOUS
10
1.1349169685039371
20
0.6812006299212598
11
1.1348427952755906
21
0.904503779527559
0
LINE
8
BLACK
6
CONTINUOUS
10
1.1348427952755906
20
0.904503779527559
11
0.7705948031496063
21
0.9044293307086614
0
LINE
8
BLACK
6
CONTINUOUS
10
1.7700616929133859
20
0.8387046062992126
11
1.7705943700787401
21
0.8381719291338583
0
LINE
8
BLACK
6
CONTINUOUS
10
1.7705943700787401
20
0.8381719291338583
11
1.7706692913385826
21
0.705511811023622
0
LINE
8
BLACK
6
CONTINUOUS
10
1.7706692913385826
20
0.705511811023622
11
1.7705943700787401
21
0.705135157480315
0
LINE
8
BLACK
6
CONTINUOUS
10
1.7705943700787401
20
0.705135157480315
11
1.7700616929133859
21
0.7046024803149606
0
LINE
8
BLACK
6
CONTINUOUS
10
1.7700616929133859
20
0.7046024803149606
11
1.6948818897637794
21
0.7045275590551181
0
LINE
8
BLACK
6
CONTINUOUS
10
1.6948818897637794
20
0.7045275590551181
11
1.6945052362204724
21
0.7046024803149606
0
LINE
8
BLACK
6
CONTINUOUS
10
1.6945052362204724
20
0.7046024803149606
11
1.693972559055118
21
0.705135157480315
0
LINE
8
BLACK
6
CONTINUOUS
10
1.693972559055118
20
0.705135157480315
11
1.6938976377952755
21
0.8377952755905511
0
LINE
8
BLACK
6
CONTINUOUS
10
1.6938976377952755
20
0.8377952755905511
11
1.693972559055118
21
0.8381719291338583
0
LINE
8
BLACK
6
CONTINUOUS
10
1.693972559055118
20
0.8381719291338583
11
1.6945052362204724
21
0.8387046062992126
0
LINE
8
BLACK
6
CONTINUOUS
10
1.6945052362204724
20
0.8387046062992126
11
1.7696850393700787
21
0.838779527559055
0
LINE
8
BLACK
6
CONTINUOUS
10
1.7696850393700787
20
0.838779527559055
11
1.7700616929133859
21
0.8387046062992126
0
LINE
8
BLACK
6
CONTINUOUS
10
1.6957919685039369
20
0.836811968503937
11
1.695865590551181
21
0.7064225196850393
0
LINE
8
BLACK
6
CONTINUOUS
10
1.695865590551181
20
0.7064225196850393
11
1.7687749212598425
21
0.706495157480315
0
LINE
8
BLACK
6
CONTINUOUS
10
1.7687749212598425
20
0.706495157480315
11
1.7687012992125983
21
0.8368846062992126
0
LINE
8
BLACK
6
CONTINUOUS
10
1.7687012992125983
20
0.8368846062992126
11
1.6957919685039369
21
0.836811968503937
0
LINE
8
BLACK
6
CONTINUOUS
10
1.5495892519685039
20
0.8431337401574803
11
1.5501219291338582
21
0.842601062992126
0
LINE
8
BLACK
6
CONTINUOUS
10
1.5501219291338582
20
0.842601062992126
11
1.5501968503937007
21
0.7099409448818897
0
LINE
8
BLACK
6
CONTINUOUS
10
1.5501968503937007
20
0.7099409448818897
11
1.5501219291338582
21
0.7095642913385827
0
LINE
8
BLACK
6
CONTINUOUS
10
1.5501219291338582
20
0.7095642913385827
11
1.5495892519685039
21
0.7090316141732284
0
LINE
8
BLACK
6
CONTINUOUS
10
1.5495892519685039
20
0.7090316141732284
11
1.4744094488188977
21
0.7089566929133858
0
LINE
8
BLACK
6
CONTINUOUS
10
1.4744094488188977
20
0.7089566929133858
11
1.4740327952755905
21
0.7090316141732284
0
LINE
8
BLACK
6
CONTINUOUS
10
1.4740327952755905
20
0.7090316141732284
11
1.4735001181102363
21
0.7095642913385827
0
LINE
8
BLACK
6
CONTINUOUS
10
1.4735001181102363
20
0.7095642913385827
11
1.4734251968503937
21
0.8422244094488189
0
LINE
8
BLACK
6
CONTINUOUS
10
1.4734251968503937
20
0.8422244094488189
11
1.4735001181102363
21
0.842601062992126
0
LINE
8
BLACK
6
CONTINUOUS
10
1.4735001181102363
20
0.842601062992126
11
1.4740327952755905
21
0.8431337401574803
0
LINE
8
BLACK
6
CONTINUOUS
10
1.4740327952755905
20
0.8431337401574803
11
1.5492125984251968
21
0.8432086614173229
0
LINE
8
BLACK
6
CONTINUOUS
10
1.5492125984251968
20
0.8432086614173229
11
1.5495892519685039
21
0.8431337401574803
0
LINE
8
BLACK
6
CONTINUOUS
10
1.4753195275590552
20
0.8412411023622047
11
1.4753931496062991
21
0.710851653543307
0
LINE
8
BLACK
6
CONTINUOUS
10
1.4753931496062991
20
0.710851653543307
11
1.5483024803149605
21
0.7109242913385827
0
LINE
8
BLACK
6
CONTINUOUS
10
1.5483024803149605
20
0.7109242913385827
11
1.5482288582677164
21
0.8413137401574803
0
LINE
8
BLACK
6
CONTINUOUS
10
1.5482288582677164
20
0.8413137401574803
11
1.4753195275590552
21
0.8412411023622047
0
LINE
8
BLACK
6
CONTINUOUS
10
1.689353031496063
20
0.8648857086614173
11
1.6898857086614172
21
0.864353031496063
0
LINE
8
BLACK
6
CONTINUOUS
10
1.6898857086614172
20
0.864353031496063
11
1.6899606299212597
21
0.7127952755905511
0
LINE
8
BLACK
6
CONTINUOUS
10
1.6899606299212597
20
0.7127952755905511
11
1.6898857086614172
21
0.712418622047244
0
LINE
8
BLACK
6
CONTINUOUS
10
1.6898857086614172
20
0.712418622047244
11
1.689353031496063
21
0.7118859448818897
0
LINE
8
BLACK
6
CONTINUOUS
10
1.689353031496063
20
0.7118859448818897
11
1.5551181102362204
21
0.7118110236220472
0
LINE
8
BLACK
6
CONTINUOUS
10
1.5551181102362204
20
0.7118110236220472
11
1.5547414566929134
21
0.7118859448818897
0
LINE
8
BLACK
6
CONTINUOUS
10
1.5547414566929134
20
0.7118859448818897
11
1.554208779527559
21
0.712418622047244
0
LINE
8
BLACK
6
CONTINUOUS
10
1.554208779527559
20
0.712418622047244
11
1.5541338582677164
21
0.8639763779527558
0
LINE
8
BLACK
6
CONTINUOUS
10
1.5541338582677164
20
0.8639763779527558
11
1.554208779527559
21
0.864353031496063
0
LINE
8
BLACK
6
CONTINUOUS
10
1.554208779527559
20
0.864353031496063
11
1.5547414566929134
21
0.8648857086614173
0
LINE
8
BLACK
6
CONTINUOUS
10
1.5547414566929134
20
0.8648857086614173
11
1.6889763779527558
21
0.8649606299212598
0
LINE
8
BLACK
6
CONTINUOUS
10
1.6889763779527558
20
0.8649606299212598
11
1.689353031496063
21
0.8648857086614173
0
LINE
8
BLACK
6
CONTINUOUS
10
1.5560281102362203
20
0.8629926377952756
11
1.5561018897637795
21
0.7137053937007873
0
LINE
8
BLACK
6
CONTINUOUS
10
1.5561018897637795
20
0.7137053937007873
11
1.6880663385826771
21
0.7137790551181102
0
LINE
8
BLACK
6
CONTINUOUS
10
1.6880663385826771
20
0.7137790551181102
11
1.6879925590551181
21
0.8630662992125984
0
LINE
8
BLACK
6
CONTINUOUS
10
1.6879925590551181
20
0.8630662992125984
11
1.5560281102362203
21
0.8629926377952756
0
LINE
8
BLACK
6
CONTINUOUS
10
1.2976207480314961
20
0.8583896456692913
11
1.2981534251968503
21
0.857856968503937
0
LINE
8
BLACK
6
CONTINUOUS
10
1.2981534251968503
20
0.857856968503937
11
1.2982283464566928
21
0.7251968503937007
0
LINE
8
BLACK
6
CONTINUOUS
10
1.2982283464566928
20
0.7251968503937007
11
1.2981534251968503
21
0.7248201968503937
0
LINE
8
BLACK
6
CONTINUOUS
10
1.2981534251968503
20
0.7248201968503937
11
1.2976207480314961
21
0.7242875196850393
0
LINE
8
BLACK
6
CONTINUOUS
10
1.2976207480314961
20
0.7242875196850393
11
1.2224409448818898
21
0.7242125984251968
0
LINE
8
BLACK
6
CONTINUOUS
10
1.2224409448818898
20
0.7242125984251968
11
1.2220642913385826
21
0.7242875196850393
0
LINE
8
BLACK
6
CONTINUOUS
10
1.2220642913385826
20
0.7242875196850393
11
1.2215316141732284
21
0.7248201968503937
0
LINE
8
BLACK
6
CONTINUOUS
10
1.2215316141732284
20
0.7248201968503937
11
1.2214566929133859
21
0.8574803149606299
0
LINE
8
BLACK
6
CONTINUOUS
10
1.2214566929133859
20
0.8574803149606299
11
1.2215316141732284
21
0.857856968503937
0
LINE
8
BLACK
6
CONTINUOUS
10
1.2215316141732284
20
0.857856968503937
11
1.2220642913385826
21
0.8583896456692913
0
LINE
8
BLACK
6
CONTINUOUS
10
1.2220642913385826
20
0.8583896456692913
11
1.2972440944881889
21
0.8584645669291339
0
LINE
8
BLACK
6
CONTINUOUS
10
1.2972440944881889
20
0.8584645669291339
11
1.2976207480314961
21
0.8583896456692913
0
LINE
8
BLACK
6
CONTINUOUS
10
1.2233510236220473
20
0.8564970078740157
11
1.2234246456692912
21
0.7261075590551181
0
LINE
8
BLACK
6
CONTINUOUS
10
1.2234246456692912
20
0.7261075590551181
11
1.2963339763779527
21
0.7261801968503937
0
LINE
8
BLACK
6
CONTINUOUS
10
1.2963339763779527
20
0.7261801968503937
11
1.2962603543307087
21
0.8565696456692913
0
LINE
8
BLACK
6
CONTINUOUS
10
1.2962603543307087
20
0.8565696456692913
11
1.2233510236220473
21
0.8564970078740157
0
LINE
8
BLACK
6
CONTINUOUS
10
1.4413215354330708
20
0.9371298031496063
11
1.4418542125984251
21
0.9365971259842519
0
LINE
8
BLACK
6
CONTINUOUS
10
1.4418542125984251
20
0.9365971259842519
11
1.4419291338582676
21
0.8590551181102362
0
LINE
8
BLACK
6
CONTINUOUS
10
1.4419291338582676
20
0.8590551181102362
11
1.4418542125984251
21
0.8586784645669291
0
LINE
8
BLACK
6
CONTINUOUS
10
1.4418542125984251
20
0.8586784645669291
11
1.4413215354330708
21
0.8581457874015748
0
LINE
8
BLACK
6
CONTINUOUS
10
1.4413215354330708
20
0.8581457874015748
11
1.3766408267716534
21
0.8581097244094488
0
LINE
8
BLACK
6
CONTINUOUS
10
1.3766408267716534
20
0.8581097244094488
11
1.3768935826771653
21
0.857856968503937
0
LINE
8
BLACK
6
CONTINUOUS
10
1.3768935826771653
20
0.857856968503937
11
1.3769685039370079
21
0.7251968503937007
0
LINE
8
BLACK
6
CONTINUOUS
10
1.3769685039370079
20
0.7251968503937007
11
1.3768935826771653
21
0.7248201968503937
0
LINE
8
BLACK
6
CONTINUOUS
10
1.3768935826771653
20
0.7248201968503937
11
1.3763609055118109
21
0.7242875196850393
0
LINE
8
BLACK
6
CONTINUOUS
10
1.3763609055118109
20
0.7242875196850393
11
1.3011811023622046
21
0.7242125984251968
0
LINE
8
BLACK
6
CONTINUOUS
10
1.3011811023622046
20
0.7242125984251968
11
1.3008044488188977
21
0.7242875196850393
0
LINE
8
BLACK
6
CONTINUOUS
10
1.3008044488188977
20
0.7242875196850393
11
1.3002717716535432
21
0.7248201968503937
0
LINE
8
BLACK
6
CONTINUOUS
10
1.3002717716535432
20
0.7248201968503937
11
1.3001968503937007
21
0.8574803149606299
0
LINE
8
BLACK
6
CONTINUOUS
10
1.3001968503937007
20
0.8574803149606299
11
1.3002717716535432
21
0.857856968503937
0
LINE
8
BLACK
6
CONTINUOUS
10
1.3002717716535432
20
0.857856968503937
11
1.3008044488188977
21
0.8583896456692913
0
LINE
8
BLACK
6
CONTINUOUS
10
1.3008044488188977
20
0.8583896456692913
11
1.306460433070866
21
0.8583953149606299
0
LINE
8
BLACK
6
CONTINUOUS
10
1.306460433070866
20
0.8583953149606299
11
1.3061772834645669
21
0.8586784645669291
0
LINE
8
BLACK
6
CONTINUOUS
10
1.3061772834645669
20
0.8586784645669291
11
1.3061023622047243
21
0.9362204724409449
0
LINE
8
BLACK
6
CONTINUOUS
10
1.3061023622047243
20
0.9362204724409449
11
1.3061772834645669
21
0.9365971259842519
0
LINE
8
BLACK
6
CONTINUOUS
10
1.3061772834645669
20
0.9365971259842519
11
1.3067099606299213
21
0.9371298031496063
0
LINE
8
BLACK
6
CONTINUOUS
10
1.3067099606299213
20
0.9371298031496063
11
1.4409448818897637
21
0.9372047244094488
0
LINE
8
BLACK
6
CONTINUOUS
10
1.4409448818897637
20
0.9372047244094488
11
1.4413215354330708
21
0.9371298031496063
0
LINE
8
BLACK
6
CONTINUOUS
10
1.3020911811023621
20
0.8564970078740157
11
1.3021648031496063
21
0.7261075590551181
0
LINE
8
BLACK
6
CONTINUOUS
10
1.3021648031496063
20
0.7261075590551181
11
1.3750741338582677
21
0.7261801968503937
0
LINE
8
BLACK
6
CONTINUOUS
10
1.3750741338582677
20
0.7261801968503937
11
1.3750005118110236
21
0.8565696456692913
0
LINE
8
BLACK
6
CONTINUOUS
10
1.3750005118110236
20
0.8565696456692913
11
1.3020911811023621
21
0.8564970078740157
0
LINE
8
BLACK
6
CONTINUOUS
10
1.3079972440944883
20
0.9352367322834646
11
1.3080699606299213
21
0.8599652362204724
0
LINE
8
BLACK
6
CONTINUOUS
10
1.3080699606299213
20
0.8599652362204724
11
1.4400342125984251
21
0.8600388976377953
0
LINE
8
BLACK
6
CONTINUOUS
10
1.4400342125984251
20
0.8600388976377953
11
1.4399614960629921
21
0.9353103937007874
0
LINE
8
BLACK
6
CONTINUOUS
10
1.4399614960629921
20
0.9353103937007874
11
1.3079972440944883
21
0.9352367322834646
0
LINE
8
BLACK
6
CONTINUOUS
10
0.7658294094488188
20
0.8552400393700788
11
0.7663620866141733
21
0.8547073622047244
0
LINE
8
BLACK
6
CONTINUOUS
10
0.7663620866141733
20
0.8547073622047244
11
0.7664370078740157
21
0.7795275590551181
0
LINE
8
BLACK
6
CONTINUOUS
10
0.7664370078740157
20
0.7795275590551181
11
0.7663620866141733
21
0.779150905511811
0
LINE
8
BLACK
6
CONTINUOUS
10
0.7663620866141733
20
0.779150905511811
11
0.7658294094488188
21
0.7786182283464567
0
LINE
8
BLACK
6
CONTINUOUS
10
0.7658294094488188
20
0.7786182283464567
11
0.6331692913385827
21
0.7785433070866141
0
LINE
8
BLACK
6
CONTINUOUS
10
0.6331692913385827
20
0.7785433070866141
11
0.6327926377952756
21
0.7786182283464567
0
LINE
8
BLACK
6
CONTINUOUS
10
0.6327926377952756
20
0.7786182283464567
11
0.6322599606299213
21
0.779150905511811
0
LINE
8
BLACK
6
CONTINUOUS
10
0.6322599606299213
20
0.779150905511811
11
0.6321850393700787
21
0.8543307086614172
0
LINE
8
BLACK
6
CONTINUOUS
10
0.6321850393700787
20
0.8543307086614172
11
0.6322599606299213
21
0.8547073622047244
0
LINE
8
BLACK
6
CONTINUOUS
10
0.6322599606299213
20
0.8547073622047244
11
0.6327926377952756
21
0.8552400393700788
0
LINE
8
BLACK
6
CONTINUOUS
10
0.6327926377952756
20
0.8552400393700788
11
0.7654527559055118
21
0.8553149606299213
0
LINE
8
BLACK
6
CONTINUOUS
10
0.7654527559055118
20
0.8553149606299213
11
0.7658294094488188
21
0.8552400393700788
0
LINE
8
BLACK
6
CONTINUOUS
10
0.6340799606299212
20
0.8533470078740157
11
0.6341525984251969
21
0.7804376771653543
0
LINE
8
BLACK
6
CONTINUOUS
10
0.6341525984251969
20
0.7804376771653543
11
0.7645420472440945
21
0.7805112992125984
0
LINE
8
BLACK
6
CONTINUOUS
10
0.7645420472440945
20
0.7805112992125984
11
0.7644694094488189
21
0.8534206299212598
0
LINE
8
BLACK
6
CONTINUOUS
10
0.7644694094488189
20
0.8534206299212598
11
0.6340799606299212
21
0.8533470078740157
0
LINE
8
BLACK
6
CONTINUOUS
10
1.5271483070866141
20
0.9792557874015748
11
1.5276809842519685
21
0.9787231102362205
0
LINE
8
BLACK
6
CONTINUOUS
10
1.5276809842519685
20
0.9787231102362205
11
1.5277559055118111
21
0.8444881889763779
0
LINE
8
BLACK
6
CONTINUOUS
10
1.5277559055118111
20
0.8444881889763779
11
1.5276809842519685
21
0.8441115354330708
0
LINE
8
BLACK
6
CONTINUOUS
10
1.5276809842519685
20
0.8441115354330708
11
1.5271483070866141
21
0.8435788582677165
0
LINE
8
BLACK
6
CONTINUOUS
10
1.5271483070866141
20
0.8435788582677165
11
1.4496062992125984
21
0.843503937007874
0
LINE
8
BLACK
6
CONTINUOUS
10
1.4496062992125984
20
0.843503937007874
11
1.4492296456692912
21
0.8435788582677165
0
LINE
8
BLACK
6
CONTINUOUS
10
1.4492296456692912
20
0.8435788582677165
11
1.448696968503937
21
0.8441115354330708
0
LINE
8
BLACK
6
CONTINUOUS
10
1.448696968503937
20
0.8441115354330708
11
1.4486220472440945
21
0.9783464566929133
0
LINE
8
BLACK
6
CONTINUOUS
10
1.4486220472440945
20
0.9783464566929133
11
1.448696968503937
21
0.9787231102362205
0
LINE
8
BLACK
6
CONTINUOUS
10
1.448696968503937
20
0.9787231102362205
11
1.4492296456692912
21
0.9792557874015748
0
LINE
8
BLACK
6
CONTINUOUS
10
1.4492296456692912
20
0.9792557874015748
11
1.5267716535433071
21
0.9793307086614172
0
LINE
8
BLACK
6
CONTINUOUS
10
1.5267716535433071
20
0.9793307086614172
11
1.5271483070866141
21
0.9792557874015748
0
LINE
8
BLACK
6
CONTINUOUS
10
1.4505163779527559
20
0.9773631102362205
11
1.4505900393700788
21
0.8453988582677165
0
LINE
8
BLACK
6
CONTINUOUS
10
1.4505900393700788
20
0.8453988582677165
11
1.5258615354330709
21
0.8454715748031496
0
LINE
8
BLACK
6
CONTINUOUS
10
1.5258615354330709
20
0.8454715748031496
11
1.525787874015748
21
0.9774358267716535
0
LINE
8
BLACK
6
CONTINUOUS
10
1.525787874015748
20
0.9774358267716535
11
1.4505163779527559
21
0.9773631102362205
0
LINE
8
BLACK
6
CONTINUOUS
10
0.8999829527559055
20
0.988310905511811
11
0.9005156299212598
21
0.9877782283464567
0
LINE
8
BLACK
6
CONTINUOUS
10
0.9005156299212598
20
0.9877782283464567
11
0.9005905511811023
21
0.9102362204724409
0
LINE
8
BLACK
6
CONTINUOUS
10
0.9005905511811023
20
0.9102362204724409
11
0.9005156299212598
21
0.9098595669291338
0
LINE
8
BLACK
6
CONTINUOUS
10
0.9005156299212598
20
0.9098595669291338
11
0.8999829527559055
21
0.9093268897637795
0
LINE
8
BLACK
6
CONTINUOUS
10
0.8999829527559055
20
0.9093268897637795
11
0.765748031496063
21
0.909251968503937
0
LINE
8
BLACK
6
CONTINUOUS
10
0.765748031496063
20
0.909251968503937
11
0.7653713779527559
21
0.9093268897637795
0
LINE
8
BLACK
6
CONTINUOUS
10
0.7653713779527559
20
0.9093268897637795
11
0.7648387007874016
21
0.9098595669291338
0
LINE
8
BLACK
6
CONTINUOUS
10
0.7648387007874016
20
0.9098595669291338
11
0.764763779527559
21
0.9874015748031496
0
LINE
8
BLACK
6
CONTINUOUS
10
0.764763779527559
20
0.9874015748031496
11
0.7648387007874016
21
0.9877782283464567
0
LINE
8
BLACK
6
CONTINUOUS
10
0.7648387007874016
20
0.9877782283464567
11
0.7653713779527559
21
0.988310905511811
0
LINE
8
BLACK
6
CONTINUOUS
10
0.7653713779527559
20
0.988310905511811
11
0.8996062992125984
21
0.9883858267716535
0
LINE
8
BLACK
6
CONTINUOUS
10
0.8996062992125984
20
0.9883858267716535
11
0.8999829527559055
21
0.988310905511811
0
LINE
8
BLACK
6
CONTINUOUS
10
0.7666586614173229
20
0.9864178346456692
11
0.7667313779527559
21
0.9111463385826771
0
LINE
8
BLACK
6
CONTINUOUS
10
0.7667313779527559
20
0.9111463385826771
11
0.8986956299212598
21
0.91122
0
LINE
8
BLACK
6
CONTINUOUS
10
0.8986956299212598
20
0.91122
11
0.8986229133858268
21
0.9864914960629921
0
LINE
8
BLACK
6
CONTINUOUS
10
0.8986229133858268
20
0.9864914960629921
11
0.7666586614173229
21
0.9864178346456692
0
LINE
8
BLACK
6
CONTINUOUS
10
1.0377782283464567
20
0.988310905511811
11
1.0383109055118109
21
0.9877782283464567
0
LINE
8
BLACK
6
CONTINUOUS
10
1.0383109055118109
20
0.9877782283464567
11
1.0383858267716535
21
0.9102362204724409
0
LINE
8
BLACK
6
CONTINUOUS
10
1.0383858267716535
20
0.9102362204724409
11
1.0383109055118109
21
0.9098595669291338
0
LINE
8
BLACK
6
CONTINUOUS
10
1.0383109055118109
20
0.9098595669291338
11
1.0377782283464567
21
0.9093268897637795
0
LINE
8
BLACK
6
CONTINUOUS
10
1.0377782283464567
20
0.9093268897637795
11
0.9035433070866141
21
0.909251968503937
0
LINE
8
BLACK
6
CONTINUOUS
10
0.9035433070866141
20
0.909251968503937
11
0.9031666535433071
21
0.9093268897637795
0
LINE
8
BLACK
6
CONTINUOUS
10
0.9031666535433071
20
0.9093268897637795
11
0.9026339763779527
21
0.9098595669291338
0
LINE
8
BLACK
6
CONTINUOUS
10
0.9026339763779527
20
0.9098595669291338
11
0.9025590551181102
21
0.9874015748031496
0
LINE
8
BLACK
6
CONTINUOUS
10
0.9025590551181102
20
0.9874015748031496
11
0.9026339763779527
21
0.9877782283464567
0
LINE
8
BLACK
6
CONTINUOUS
10
0.9026339763779527
20
0.9877782283464567
11
0.9031666535433071
21
0.988310905511811
0
LINE
8
BLACK
6
CONTINUOUS
10
0.9031666535433071
20
0.988310905511811
11
1.0374015748031495
21
0.9883858267716535
0
LINE
8
BLACK
6
CONTINUOUS
10
1.0374015748031495
20
0.9883858267716535
11
1.0377782283464567
21
0.988310905511811
0
LINE
8
BLACK
6
CONTINUOUS
10
0.904453937007874
20
0.9864178346456692
11
0.9045266535433071
21
0.9111463385826771
0
LINE
8
BLACK
6
CONTINUOUS
10
0.9045266535433071
20
0.9111463385826771
11
1.036490905511811
21
0.91122
0
LINE
8
BLACK
6
CONTINUOUS
10
1.036490905511811
20
0.91122
11
1.0364181889763779
21
0.9864914960629921
0
LINE
8
BLACK
6
CONTINUOUS
10
1.0364181889763779
20
0.9864914960629921
11
0.904453937007874
21
0.9864178346456692
0
LINE
8
BLACK
6
CONTINUOUS
10
1.4110065748031495
20
1.2737439763779528
11
1.4115392519685039
21
1.2732112992125983
0
LINE
8
BLACK
6
CONTINUOUS
10
1.4115392519685039
20
1.2732112992125983
11
1.4116141732283465
21
0.9476377952755906
0
LINE
8
BLACK
6
CONTINUOUS
10
1.4116141732283465
20
0.9476377952755906
11
1.4115392519685039
21
0.9472611417322835
0
LINE
8
BLACK
6
CONTINUOUS
10
1.4115392519685039
20
0.9472611417322835
11
1.4110065748031495
21
0.9467284645669292
0
LINE
8
BLACK
6
CONTINUOUS
10
1.4110065748031495
20
0.9467284645669292
11
1.0854330708661417
21
0.9466535433070866
0
LINE
8
BLACK
6
CONTINUOUS
10
1.0854330708661417
20
0.9466535433070866
11
1.0850564173228345
21
0.9467284645669292
0
LINE
8
BLACK
6
CONTINUOUS
10
1.0850564173228345
20
0.9467284645669292
11
1.0845237401574803
21
0.9472611417322835
0
LINE
8
BLACK
6
CONTINUOUS
10
1.0845237401574803
20
0.9472611417322835
11
1.0844488188976378
21
1.2728346456692914
0
LINE
8
BLACK
6
CONTINUOUS
10
1.0844488188976378
20
1.2728346456692914
11
1.0845237401574803
21
1.2732112992125983
0
LINE
8
BLACK
6
CONTINUOUS
10
1.0845237401574803
20
1.2732112992125983
11
1.0850564173228345
21
1.2737439763779528
0
LINE
8
BLACK
6
CONTINUOUS
10
1.0850564173228345
20
1.2737439763779528
11
1.4106299212598425
21
1.2738188976377953
0
LINE
8
BLACK
6
CONTINUOUS
10
1.4106299212598425
20
1.2738188976377953
11
1.4110065748031495
21
1.2737439763779528
0
LINE
8
BLACK
6
CONTINUOUS
10
1.0863426771653544
20
1.2718506299212597
11
1.0864170866141731
21
0.9485474409448819
0
LINE
8
BLACK
6
CONTINUOUS
10
1.0864170866141731
20
0.9485474409448819
11
1.4097202755905511
21
0.9486218503937007
0
LINE
8
BLACK
6
CONTINUOUS
10
1.4097202755905511
20
0.9486218503937007
11
1.4096458661417322
21
1.2719250393700787
0
LINE
8
BLACK
6
CONTINUOUS
10
1.4096458661417322
20
1.2719250393700787
11
1.0863426771653544
21
1.2718506299212597
0
LINE
8
BLACK
6
CONTINUOUS
10
1.6598254724409449
20
1.2087833464566928
11
1.6603581496062991
21
1.2082506692913386
0
LINE
8
BLACK
6
CONTINUOUS
10
1.6603581496062991
20
1.2082506692913386
11
1.6604330708661417
21
1.1307086614173227
0
LINE
8
BLACK
6
CONTINUOUS
10
1.6604330708661417
20
1.1307086614173227
11
1.6603581496062991
21
1.1303320078740158
0
LINE
8
BLACK
6
CONTINUOUS
10
1.6603581496062991
20
1.1303320078740158
11
1.6598254724409449
21
1.1297993307086613
0
LINE
8
BLACK
6
CONTINUOUS
10
1.6598254724409449
20
1.1297993307086613
11
1.5255905511811023
21
1.1297244094488188
0
LINE
8
BLACK
6
CONTINUOUS
10
1.5255905511811023
20
1.1297244094488188
11
1.5252138976377951
21
1.1297993307086613
0
LINE
8
BLACK
6
CONTINUOUS
10
1.5252138976377951
20
1.1297993307086613
11
1.5246812204724409
21
1.1303320078740158
0
LINE
8
BLACK
6
CONTINUOUS
10
1.5246812204724409
20
1.1303320078740158
11
1.5246062992125984
21
1.2078740157480314
0
LINE
8
BLACK
6
CONTINUOUS
10
1.5246062992125984
20
1.2078740157480314
11
1.5246812204724409
21
1.2082506692913386
0
LINE
8
BLACK
6
CONTINUOUS
10
1.5246812204724409
20
1.2082506692913386
11
1.5252138976377951
21
1.2087833464566928
0
LINE
8
BLACK
6
CONTINUOUS
10
1.5252138976377951
20
1.2087833464566928
11
1.6594488188976377
21
1.2088582677165354
0
LINE
8
BLACK
6
CONTINUOUS
10
1.6594488188976377
20
1.2088582677165354
11
1.6598254724409449
21
1.2087833464566928
0
LINE
8
BLACK
6
CONTINUOUS
10
1.5265011811023621
20
1.2068902755905511
11
1.5265738976377952
21
1.131618779527559
0
LINE
8
BLACK
6
CONTINUOUS
10
1.5265738976377952
20
1.131618779527559
11
1.6585381496062992
21
1.1316924409448819
0
LINE
8
BLACK
6
CONTINUOUS
10
1.6585381496062992
20
1.1316924409448819
11
1.6584654330708661
21
1.206963937007874
0
LINE
8
BLACK
6
CONTINUOUS
10
1.6584654330708661
20
1.206963937007874
11
1.5265011811023621
21
1.2068902755905511
0
LINE
8
BLACK
6
CONTINUOUS
10
1.6903372834645669
20
1.2885077559055118
11
1.6908699606299211
21
1.2879750787401574
0
LINE
8
BLACK
6
CONTINUOUS
10
1.6908699606299211
20
1.2879750787401574
11
1.6909448818897637
21
1.2104330708661417
0
LINE
8
BLACK
6
CONTINUOUS
10
1.6909448818897637
20
1.2104330708661417
11
1.6908699606299211
21
1.2100564173228345
0
LINE
8
BLACK
6
CONTINUOUS
10
1.6908699606299211
20
1.2100564173228345
11
1.6903372834645669
21
1.2095237401574803
0
LINE
8
BLACK
6
CONTINUOUS
10
1.6903372834645669
20
1.2095237401574803
11
1.5561023622047243
21
1.2094488188976378
0
LINE
8
BLACK
6
CONTINUOUS
10
1.5561023622047243
20
1.2094488188976378
11
1.5557257086614174
21
1.2095237401574803
0
LINE
8
BLACK
6
CONTINUOUS
10
1.5557257086614174
20
1.2095237401574803
11
1.5551930314960629
21
1.2100564173228345
0
LINE
8
BLACK
6
CONTINUOUS
10
1.5551930314960629
20
1.2100564173228345
11
1.5551181102362204
21
1.2875984251968504
0
LINE
8
BLACK
6
CONTINUOUS
10
1.5551181102362204
20
1.2875984251968504
11
1.5551930314960629
21
1.2879750787401574
0
LINE
8
BLACK
6
CONTINUOUS
10
1.5551930314960629
20
1.2879750787401574
11
1.5557257086614174
21
1.2885077559055118
0
LINE
8
BLACK
6
CONTINUOUS
10
1.5557257086614174
20
1.2885077559055118
11
1.6899606299212597
21
1.2885826771653544
0
LINE
8
BLACK
6
CONTINUOUS
10
1.6899606299212597
20
1.2885826771653544
11
1.6903372834645669
21
1.2885077559055118
0
LINE
8
BLACK
6
CONTINUOUS
10
1.5570129921259843
20
1.28661468503937
11
1.5570857086614174
21
1.2113431889763779
0
LINE
8
BLACK
6
CONTINUOUS
10
1.5570857086614174
20
1.2113431889763779
11
1.6890499606299212
21
1.2114168503937008
0
LINE
8
BLACK
6
CONTINUOUS
10
1.6890499606299212
20
1.2114168503937008
11
1.6889772440944881
21
1.2866883464566929
0
LINE
8
BLACK
6
CONTINUOUS
10
1.6889772440944881
20
1.2866883464566929
11
1.5570129921259843
21
1.28661468503937
0
LINE
8
BLACK
6
CONTINUOUS
10
1.3560505511811023
20
1.5656749212598424
11
1.4109340157480315
21
1.5108974015748031
0
LINE
8
BLACK
6
CONTINUOUS
10
1.4109340157480315
20
1.5108974015748031
11
1.4111473622047244
21
1.5105781102362204
0
LINE
8
BLACK
6
CONTINUOUS
10
1.4111473622047244
20
1.5105781102362204
11
1.4111473622047244
21
1.5098248031496062
0
LINE
8
BLACK
6
CONTINUOUS
10
1.4111473622047244
20
1.5098248031496062
11
1.3162819291338583
21
1.4148533858267716
0
LINE
8
BLACK
6
CONTINUOUS
10
1.3162819291338583
20
1.4148533858267716
11
1.3159625984251968
21
1.4146400393700787
0
LINE
8
BLACK
6
CONTINUOUS
10
1.3159625984251968
20
1.4146400393700787
11
1.3152092913385827
21
1.4146400393700787
0
LINE
8
BLACK
6
CONTINUOUS
10
1.3152092913385827
20
1.4146400393700787
11
1.2932335433070865
21
1.436573346456693
0
LINE
8
BLACK
6
CONTINUOUS
10
1.2932335433070865
20
1.436573346456693
11
1.2933070866141732
21
1.3063976377952755
0
LINE
8
BLACK
6
CONTINUOUS
10
1.2933070866141732
20
1.3063976377952755
11
1.2932321653543306
21
1.3060209842519686
0
LINE
8
BLACK
6
CONTINUOUS
10
1.2932321653543306
20
1.3060209842519686
11
1.2926994881889764
21
1.3054883070866141
0
LINE
8
BLACK
6
CONTINUOUS
10
1.2926994881889764
20
1.3054883070866141
11
1.2175196850393701
21
1.3054133858267716
0
LINE
8
BLACK
6
CONTINUOUS
10
1.2175196850393701
20
1.3054133858267716
11
1.217143031496063
21
1.3054883070866141
0
LINE
8
BLACK
6
CONTINUOUS
10
1.217143031496063
20
1.3054883070866141
11
1.2166103543307087
21
1.3060209842519686
0
LINE
8
BLACK
6
CONTINUOUS
10
1.2166103543307087
20
1.3060209842519686
11
1.2165354330708662
21
1.4386811023622046
0
LINE
8
BLACK
6
CONTINUOUS
10
1.2165354330708662
20
1.4386811023622046
11
1.2166103543307087
21
1.4390577559055118
0
LINE
8
BLACK
6
CONTINUOUS
10
1.2166103543307087
20
1.4390577559055118
11
1.217143031496063
21
1.4395904330708662
0
LINE
8
BLACK
6
CONTINUOUS
10
1.217143031496063
20
1.4395904330708662
11
1.2901377165354331
21
1.439663188976378
0
LINE
8
BLACK
6
CONTINUOUS
10
1.2901377165354331
20
1.439663188976378
11
1.2603258267716535
21
1.4694175196850394
0
LINE
8
BLACK
6
CONTINUOUS
10
1.2603258267716535
20
1.4694175196850394
11
1.2601124803149606
21
1.4697368503937007
0
LINE
8
BLACK
6
CONTINUOUS
10
1.2601124803149606
20
1.4697368503937007
11
1.2601124803149606
21
1.4704901574803149
0
LINE
8
BLACK
6
CONTINUOUS
10
1.2601124803149606
20
1.4704901574803149
11
1.3549779133858268
21
1.5654615748031495
0
LINE
8
BLACK
6
CONTINUOUS
10
1.3549779133858268
20
1.5654615748031495
11
1.3552972440944882
21
1.5656749212598424
0
LINE
8
BLACK
6
CONTINUOUS
10
1.3552972440944882
20
1.5656749212598424
11
1.3560505511811023
21
1.5656749212598424
0
LINE
8
BLACK
6
CONTINUOUS
10
1.2184297637795276
20
1.4376977952755905
11
1.2185033858267715
21
1.3073083464566928
0
LINE
8
BLACK
6
CONTINUOUS
10
1.2185033858267715
20
1.3073083464566928
11
1.291412716535433
21
1.3073809842519686
0
LINE
8
BLACK
6
CONTINUOUS
10
1.291412716535433
20
1.3073809842519686
11
1.2913390944881888
21
1.437770433070866
0
LINE
8
BLACK
6
CONTINUOUS
10
1.2913390944881888
20
1.437770433070866
11
1.2184297637795276
21
1.4376977952755905
0
LINE
8
BLACK
6
CONTINUOUS
10
1.2623613385826771
20
1.4700618110236221
11
1.3156377559055117
21
1.4168882677165353
0
LINE
8
BLACK
6
CONTINUOUS
10
1.3156377559055117
20
1.4168882677165353
11
1.4088984645669291
21
1.5102531889763779
0
LINE
8
BLACK
6
CONTINUOUS
10
1.4088984645669291
20
1.5102531889763779
11
1.3556220472440945
21
1.5634267322834645
0
LINE
8
BLACK
6
CONTINUOUS
10
1.3556220472440945
20
1.5634267322834645
11
1.2623613385826771
21
1.4700618110236221
0
LINE
8
BLACK
6
CONTINUOUS
10
1.4120249999999999
20
1.5094446456692914
11
1.466908464566929
21
1.4546671259842519
0
LINE
8
BLACK
6
CONTINUOUS
10
1.466908464566929
20
1.4546671259842519
11
1.4671218110236219
21
1.4543478346456693
0
LINE
8
BLACK
6
CONTINUOUS
10
1.4671218110236219
20
1.4543478346456693
11
1.4671218110236219
21
1.4535945275590552
0
LINE
8
BLACK
6
CONTINUOUS
10
1.4671218110236219
20
1.4535945275590552
11
1.3722563779527559
21
1.3586231102362205
0
LINE
8
BLACK
6
CONTINUOUS
10
1.3722563779527559
20
1.3586231102362205
11
1.3719370472440944
21
1.3584097637795276
0
LINE
8
BLACK
6
CONTINUOUS
10
1.3719370472440944
20
1.3584097637795276
11
1.3711837401574802
21
1.3584097637795276
0
LINE
8
BLACK
6
CONTINUOUS
10
1.3711837401574802
20
1.3584097637795276
11
1.3163002755905511
21
1.4131872440944881
0
LINE
8
BLACK
6
CONTINUOUS
10
1.3163002755905511
20
1.4131872440944881
11
1.3160869291338582
21
1.4135065748031497
0
LINE
8
BLACK
6
CONTINUOUS
10
1.3160869291338582
20
1.4135065748031497
11
1.3160869291338582
21
1.4142598818897638
0
LINE
8
BLACK
6
CONTINUOUS
10
1.3160869291338582
20
1.4142598818897638
11
1.4109523622047244
21
1.5092312992125985
0
LINE
8
BLACK
6
CONTINUOUS
10
1.4109523622047244
20
1.5092312992125985
11
1.4112716929133857
21
1.5094446456692914
0
LINE
8
BLACK
6
CONTINUOUS
10
1.4112716929133857
20
1.5094446456692914
11
1.4120249999999999
21
1.5094446456692914
0
LINE
8
BLACK
6
CONTINUOUS
10
1.3183357874015749
20
1.4138315354330708
11
1.3716122047244095
21
1.3606579921259843
0
LINE
8
BLACK
6
CONTINUOUS
10
1.3716122047244095
20
1.3606579921259843
11
1.4648729133858267
21
1.4540229133858267
0
LINE
8
BLACK
6
CONTINUOUS
10
1.4648729133858267
20
1.4540229133858267
11
1.4115964960629921
21
1.5071964566929132
0
LINE
8
BLACK
6
CONTINUOUS
10
1.4115964960629921
20
1.5071964566929132
11
1.3183357874015749
21
1.4138315354330708
0
LINE
8
BLACK
6
CONTINUOUS
10
1.1213070472440945
20
1.5485194488188976
11
1.2162784645669291
21
1.4536540157480315
0
LINE
8
BLACK
6
CONTINUOUS
10
1.2162784645669291
20
1.4536540157480315
11
1.216491811023622
21
1.45333468503937
0
LINE
8
BLACK
6
CONTINUOUS
10
1.216491811023622
20
1.45333468503937
11
1.216491811023622
21
1.4525813779527559
0
LINE
8
BLACK
6
CONTINUOUS
10
1.216491811023622
20
1.4525813779527559
11
1.1617143307086615
21
1.3976979133858267
0
LINE
8
BLACK
6
CONTINUOUS
10
1.1617143307086615
20
1.3976979133858267
11
1.161395
21
1.3974845669291338
0
LINE
8
BLACK
6
CONTINUOUS
10
1.161395
20
1.3974845669291338
11
1.1606416929133858
21
1.3974845669291338
0
LINE
8
BLACK
6
CONTINUOUS
10
1.1606416929133858
20
1.3974845669291338
11
1.0656702755905512
21
1.4923500000000001
0
LINE
8
BLACK
6
CONTINUOUS
10
1.0656702755905512
20
1.4923500000000001
11
1.0654569291338583
21
1.4926693307086614
0
LINE
8
BLACK
6
CONTINUOUS
10
1.0654569291338583
20
1.4926693307086614
11
1.0654569291338583
21
1.4934226377952755
0
LINE
8
BLACK
6
CONTINUOUS
10
1.0654569291338583
20
1.4934226377952755
11
1.1202344488188976
21
1.5483061023622047
0
LINE
8
BLACK
6
CONTINUOUS
10
1.1202344488188976
20
1.5483061023622047
11
1.1205537401574803
21
1.5485194488188976
0
LINE
8
BLACK
6
CONTINUOUS
10
1.1205537401574803
20
1.5485194488188976
11
1.1213070472440945
21
1.5485194488188976
0
LINE
8
BLACK
6
CONTINUOUS
10
1.0677051181102362
20
1.4929941732283465
11
1.1610700393700788
21
1.399733464566929
0
LINE
8
BLACK
6
CONTINUOUS
10
1.1610700393700788
20
1.399733464566929
11
1.2142435826771654
21
1.4530098818897637
0
LINE
8
BLACK
6
CONTINUOUS
10
1.2142435826771654
20
1.4530098818897637
11
1.1208786614173227
21
1.5462705905511811
0
LINE
8
BLACK
6
CONTINUOUS
10
1.1208786614173227
20
1.5462705905511811
11
1.0677051181102362
21
1.4929941732283465
0
LINE
8
BLACK
6
CONTINUOUS
10
1.2528223228346456
20
1.6659174803149606
11
1.3533614566929133
21
1.5654842913385827
0
LINE
8
BLACK
6
CONTINUOUS
10
1.3533614566929133
20
1.5654842913385827
11
1.353574842519685
21
1.5651649606299212
0
LINE
8
BLACK
6
CONTINUOUS
10
1.353574842519685
20
1.5651649606299212
11
1.353574842519685
21
1.564411653543307
0
LINE
8
BLACK
6
CONTINUOUS
10
1.353574842519685
20
1.564411653543307
11
1.2308705511811022
21
1.4416013779527559
0
LINE
8
BLACK
6
CONTINUOUS
10
1.2308705511811022
20
1.4416013779527559
11
1.2305512204724409
21
1.441388031496063
0
LINE
8
BLACK
6
CONTINUOUS
10
1.2305512204724409
20
1.441388031496063
11
1.2297979133858268
21
1.441388031496063
0
LINE
8
BLACK
6
CONTINUOUS
10
1.2297979133858268
20
1.441388031496063
11
1.1292587401574803
21
1.5418212204724409
0
LINE
8
BLACK
6
CONTINUOUS
10
1.1292587401574803
20
1.5418212204724409
11
1.1290453937007874
21
1.5421405511811024
0
LINE
8
BLACK
6
CONTINUOUS
10
1.1290453937007874
20
1.5421405511811024
11
1.1290453937007874
21
1.5428938582677165
0
LINE
8
BLACK
6
CONTINUOUS
10
1.1290453937007874
20
1.5428938582677165
11
1.2517496850393701
21
1.6657041338582677
0
LINE
8
BLACK
6
CONTINUOUS
10
1.2517496850393701
20
1.6657041338582677
11
1.2520690157480314
21
1.6659174803149606
0
LINE
8
BLACK
6
CONTINUOUS
10
1.2520690157480314
20
1.6659174803149606
11
1.2528223228346456
21
1.6659174803149606
0
LINE
8
BLACK
6
CONTINUOUS
10
1.1312938976377953
20
1.542465
11
1.2302267716535433
21
1.4436364173228347
0
LINE
8
BLACK
6
CONTINUOUS
10
1.2302267716535433
20
1.4436364173228347
11
1.3513262992125985
21
1.5648405511811023
0
LINE
8
BLACK
6
CONTINUOUS
10
1.3513262992125985
20
1.5648405511811023
11
1.2523934251968503
21
1.6636691338582676
0
LINE
8
BLACK
6
CONTINUOUS
10
1.2523934251968503
20
1.6636691338582676
11
1.1312938976377953
21
1.542465
0
LINE
8
BLACK
6
CONTINUOUS
10
1.3445059055118109
20
1.6916591732283464
11
1.4394773228346456
21
1.5967937401574803
0
LINE
8
BLACK
6
CONTINUOUS
10
1.4394773228346456
20
1.5967937401574803
11
1.4396906692913385
21
1.5964744094488188
0
LINE
8
BLACK
6
CONTINUOUS
10
1.4396906692913385
20
1.5964744094488188
11
1.4396906692913385
21
1.5957211023622047
0
LINE
8
BLACK
6
CONTINUOUS
10
1.4396906692913385
20
1.5957211023622047
11
1.3849131889763779
21
1.5408376377952755
0
LINE
8
BLACK
6
CONTINUOUS
10
1.3849131889763779
20
1.5408376377952755
11
1.3845938582677164
21
1.5406242913385826
0
LINE
8
BLACK
6
CONTINUOUS
10
1.3845938582677164
20
1.5406242913385826
11
1.3838405511811023
21
1.5406242913385826
0
LINE
8
BLACK
6
CONTINUOUS
10
1.3838405511811023
20
1.5406242913385826
11
1.2888691338582676
21
1.6354897244094488
0
LINE
8
BLACK
6
CONTINUOUS
10
1.2888691338582676
20
1.6354897244094488
11
1.2886557874015747
21
1.6358090551181101
0
LINE
8
BLACK
6
CONTINUOUS
10
1.2886557874015747
20
1.6358090551181101
11
1.2886557874015747
21
1.6365623622047243
0
LINE
8
BLACK
6
CONTINUOUS
10
1.2886557874015747
20
1.6365623622047243
11
1.3434333070866142
21
1.6914458267716534
0
LINE
8
BLACK
6
CONTINUOUS
10
1.3434333070866142
20
1.6914458267716534
11
1.3437525984251968
21
1.6916591732283464
0
LINE
8
BLACK
6
CONTINUOUS
10
1.3437525984251968
20
1.6916591732283464
11
1.3445059055118109
21
1.6916591732283464
0
LINE
8
BLACK
6
CONTINUOUS
10
1.2909039763779526
20
1.6361338976377953
11
1.3842688976377953
21
1.5428731889763778
0
LINE
8
BLACK
6
CONTINUOUS
10
1.3842688976377953
20
1.5428731889763778
11
1.4374424409448818
21
1.5961496062992127
0
LINE
8
BLACK
6
CONTINUOUS
10
1.4374424409448818
20
1.5961496062992127
11
1.3440775196850394
21
1.6894103149606299
0
LINE
8
BLACK
6
CONTINUOUS
10
1.3440775196850394
20
1.6894103149606299
11
1.2909039763779526
21
1.6361338976377953
  0
ENDSEC
  0
EOF
