  0
SECTION
  2
HEADER
  9
$ANGBASE
  50
0.0
  9
$ANGDIR
  70
1
  9
$MEASUREMENT
  70
0
  0
ENDSEC
  0
SECTION
  2
TABLES
  0
TABLE
  2
LTYPE
  70
4
  0
LTYPE
  5
40F
  2
CONTINUOUS
  70
0
  3
Solid line
  72
65
  73
0
  40
0.0
  0
LTYPE
  5
410
  2
DASHDOT
 70
0
  3
Dash Dot ____ _ ____ _
 72
65
 73
4
 40
2.0
 49
1.25
 49
-0.25
 49
0.25
 49
-0.25
  0
LTYPE
  5
411
  2
DASHED
 70
0
  3
Dashed __ __ __ __ __
 72
65
 73
2
 40
0.75
 49
0.5
 49
-0.25
  0
LTYPE
  5
43B
  2
DOTTED
 70
0
  3
Dotted .  .  .  .
 72
65
 73
2
 40
0.2
 49
0.0
 49
-0.2
  0
ENDTAB
  0
TABLE
  2
STYLE
  70
4
  0
STYLE
  2
KICAD
  70
0
  40
0
  41
1
  42
1
  50
0
  71
0
  3
isocp.shx
  0
STYLE
  2
KICADB
  70
0
  40
0
  41
1
  42
1
  50
0
  71
0
  3
isocp.shx
  0
STYLE
  2
KICADI
  70
0
  40
0
  41
1
  42
1
  50
15
  71
0
  3
isocp.shx
  0
STYLE
  2
KICADBI
  70
0
  40
0
  41
1
  42
1
  50
15
  71
0
  3
isocp.shx
  0
ENDTAB
  0
TABLE
  2
LAYER
  70
1
  0
LAYER
  2
BLACK
  70
0
  62
7
  6
CONTINUOUS
  0
ENDTAB
  0
ENDSEC
  0
SECTION
  2
ENTITIES
0
LINE
8
BLACK
6
CONTINUOUS
10
0.3208661417322834
20
0.6535433070866141
11
0.2795275590551181
21
0.6535433070866141
0
LINE
8
BLACK
6
CONTINUOUS
10
0.2795275590551181
20
0.6535433070866141
11
0.2795275590551181
21
0.6791338582677166
0
LINE
8
BLACK
6
CONTINUOUS
10
0.2795275590551181
20
0.6791338582677166
11
0.3208661417322834
21
0.6791338582677166
0
LINE
8
BLACK
6
CONTINUOUS
10
0.3208661417322834
20
0.6791338582677166
11
0.3208661417322834
21
0.6535433070866141
0
LINE
8
BLACK
6
CONTINUOUS
10
0.484251968503937
20
0.6535433070866141
11
0.4429133858267716
21
0.6535433070866141
0
LINE
8
BLACK
6
CONTINUOUS
10
0.4429133858267716
20
0.6535433070866141
11
0.4429133858267716
21
0.6791338582677166
0
LINE
8
BLACK
6
CONTINUOUS
10
0.4429133858267716
20
0.6791338582677166
11
0.484251968503937
21
0.6791338582677166
0
LINE
8
BLACK
6
CONTINUOUS
10
0.484251968503937
20
0.6791338582677166
11
0.484251968503937
21
0.6535433070866141
0
LINE
8
BLACK
6
CONTINUOUS
10
1.9547244094488188
20
0.6535433070866141
11
1.9133858267716535
21
0.6535433070866141
0
LINE
8
BLACK
6
CONTINUOUS
10
1.9133858267716535
20
0.6535433070866141
11
1.9133858267716535
21
0.6791338582677166
0
LINE
8
BLACK
6
CONTINUOUS
10
1.9133858267716535
20
0.6791338582677166
11
1.9547244094488188
21
0.6791338582677166
0
LINE
8
BLACK
6
CONTINUOUS
10
1.9547244094488188
20
0.6791338582677166
11
1.9547244094488188
21
0.6535433070866141
0
LINE
8
BLACK
6
CONTINUOUS
10
2.1171259842519685
20
0.6535433070866141
11
2.0757874015748032
21
0.6535433070866141
0
LINE
8
BLACK
6
CONTINUOUS
10
2.0757874015748032
20
0.6535433070866141
11
2.0757874015748032
21
0.6791338582677166
0
LINE
8
BLACK
6
CONTINUOUS
10
2.0757874015748032
20
0.6791338582677166
11
2.1171259842519685
21
0.6791338582677166
0
LINE
8
BLACK
6
CONTINUOUS
10
2.1171259842519685
20
0.6791338582677166
11
2.1171259842519685
21
0.6535433070866141
0
LINE
8
BLACK
6
CONTINUOUS
10
0.3218503937007874
20
0.7381889763779528
11
0.280511811023622
21
0.7381889763779528
0
LINE
8
BLACK
6
CONTINUOUS
10
0.280511811023622
20
0.7381889763779528
11
0.280511811023622
21
0.7637795275590551
0
LINE
8
BLACK
6
CONTINUOUS
10
0.280511811023622
20
0.7637795275590551
11
0.3218503937007874
21
0.7637795275590551
0
LINE
8
BLACK
6
CONTINUOUS
10
0.3218503937007874
20
0.7637795275590551
11
0.3218503937007874
21
0.7381889763779528
0
LINE
8
BLACK
6
CONTINUOUS
10
0.484251968503937
20
0.7381889763779528
11
0.4429133858267716
21
0.7381889763779528
0
LINE
8
BLACK
6
CONTINUOUS
10
0.4429133858267716
20
0.7381889763779528
11
0.4429133858267716
21
0.7637795275590551
0
LINE
8
BLACK
6
CONTINUOUS
10
0.4429133858267716
20
0.7637795275590551
11
0.484251968503937
21
0.7637795275590551
0
LINE
8
BLACK
6
CONTINUOUS
10
0.484251968503937
20
0.7637795275590551
11
0.484251968503937
21
0.7381889763779528
0
LINE
8
BLACK
6
CONTINUOUS
10
1.9547244094488188
20
0.7381889763779528
11
1.9133858267716535
21
0.7381889763779528
0
LINE
8
BLACK
6
CONTINUOUS
10
1.9133858267716535
20
0.7381889763779528
11
1.9133858267716535
21
0.7637795275590551
0
LINE
8
BLACK
6
CONTINUOUS
10
1.9133858267716535
20
0.7637795275590551
11
1.9547244094488188
21
0.7637795275590551
0
LINE
8
BLACK
6
CONTINUOUS
10
1.9547244094488188
20
0.7637795275590551
11
1.9547244094488188
21
0.7381889763779528
0
LINE
8
BLACK
6
CONTINUOUS
10
2.1181102362204722
20
0.7381889763779528
11
2.076771653543307
21
0.7381889763779528
0
LINE
8
BLACK
6
CONTINUOUS
10
2.076771653543307
20
0.7381889763779528
11
2.076771653543307
21
0.7637795275590551
0
LINE
8
BLACK
6
CONTINUOUS
10
2.076771653543307
20
0.7637795275590551
11
2.1181102362204722
21
0.7637795275590551
0
LINE
8
BLACK
6
CONTINUOUS
10
2.1181102362204722
20
0.7637795275590551
11
2.1181102362204722
21
0.7381889763779528
  0
ENDSEC
  0
EOF
