  0
SECTION
  2
HEADER
  9
$ANGBASE
  50
0.0
  9
$ANGDIR
  70
1
  9
$MEASUREMENT
  70
0
  0
ENDSEC
  0
SECTION
  2
TABLES
  0
TABLE
  2
LTYPE
  70
4
  0
LTYPE
  5
40F
  2
CONTINUOUS
  70
0
  3
Solid line
  72
65
  73
0
  40
0.0
  0
LTYPE
  5
410
  2
DASHDOT
 70
0
  3
Dash Dot ____ _ ____ _
 72
65
 73
4
 40
2.0
 49
1.25
 49
-0.25
 49
0.25
 49
-0.25
  0
LTYPE
  5
411
  2
DASHED
 70
0
  3
Dashed __ __ __ __ __
 72
65
 73
2
 40
0.75
 49
0.5
 49
-0.25
  0
LTYPE
  5
43B
  2
DOTTED
 70
0
  3
Dotted .  .  .  .
 72
65
 73
2
 40
0.2
 49
0.0
 49
-0.2
  0
ENDTAB
  0
TABLE
  2
STYLE
  70
4
  0
STYLE
  2
KICAD
  70
0
  40
0
  41
1
  42
1
  50
0
  71
0
  3
isocp.shx
  0
STYLE
  2
KICADB
  70
0
  40
0
  41
1
  42
1
  50
0
  71
0
  3
isocp.shx
  0
STYLE
  2
KICADI
  70
0
  40
0
  41
1
  42
1
  50
15
  71
0
  3
isocp.shx
  0
STYLE
  2
KICADBI
  70
0
  40
0
  41
1
  42
1
  50
15
  71
0
  3
isocp.shx
  0
ENDTAB
  0
TABLE
  2
LAYER
  70
1
  0
LAYER
  2
BLACK
  70
0
  62
7
  6
CONTINUOUS
  0
ENDTAB
  0
ENDSEC
  0
SECTION
  2
ENTITIES
0
LINE
8
BLACK
6
CONTINUOUS
10
0.4143006299212598
20
0.5360615748031496
11
0.4284446062992126
21
0.5338213779527559
0
LINE
8
BLACK
6
CONTINUOUS
10
0.4284446062992126
20
0.5338213779527559
11
0.4422769291338582
21
0.530115
0
LINE
8
BLACK
6
CONTINUOUS
10
0.4422769291338582
20
0.530115
11
0.455646062992126
21
0.5249830708661417
0
LINE
8
BLACK
6
CONTINUOUS
10
0.455646062992126
20
0.5249830708661417
11
0.4684055118110236
21
0.518481811023622
0
LINE
8
BLACK
6
CONTINUOUS
10
0.4684055118110236
20
0.518481811023622
11
0.4804155118110236
21
0.5106824409448819
0
LINE
8
BLACK
6
CONTINUOUS
10
0.4804155118110236
20
0.5106824409448819
11
0.4915444488188976
21
0.5016703937007874
0
LINE
8
BLACK
6
CONTINUOUS
10
0.4915444488188976
20
0.5016703937007874
11
0.5016703937007874
21
0.4915444488188976
0
LINE
8
BLACK
6
CONTINUOUS
10
0.5016703937007874
20
0.4915444488188976
11
0.5106824409448819
21
0.4804155118110236
0
LINE
8
BLACK
6
CONTINUOUS
10
0.5106824409448819
20
0.4804155118110236
11
0.518481811023622
21
0.4684055118110236
0
LINE
8
BLACK
6
CONTINUOUS
10
0.518481811023622
20
0.4684055118110236
11
0.5249830708661417
21
0.455646062992126
0
LINE
8
BLACK
6
CONTINUOUS
10
0.5249830708661417
20
0.455646062992126
11
0.530115
21
0.4422769291338582
0
LINE
8
BLACK
6
CONTINUOUS
10
0.530115
20
0.4422769291338582
11
0.5338213779527559
21
0.4284446062992126
0
LINE
8
BLACK
6
CONTINUOUS
10
0.5338213779527559
20
0.4284446062992126
11
0.5360615748031496
21
0.4143006299212598
0
LINE
8
BLACK
6
CONTINUOUS
10
0.5360615748031496
20
0.4143006299212598
11
0.5368110236220472
21
0.4
0
LINE
8
BLACK
6
CONTINUOUS
10
0.5368110236220472
20
0.4
11
0.5360615748031496
21
0.3856993700787402
0
LINE
8
BLACK
6
CONTINUOUS
10
0.5360615748031496
20
0.3856993700787402
11
0.5338213779527559
21
0.3715553937007874
0
LINE
8
BLACK
6
CONTINUOUS
10
0.5338213779527559
20
0.3715553937007874
11
0.530115
21
0.3577230708661417
0
LINE
8
BLACK
6
CONTINUOUS
10
0.530115
20
0.3577230708661417
11
0.5249830708661417
21
0.344353937007874
0
LINE
8
BLACK
6
CONTINUOUS
10
0.5249830708661417
20
0.344353937007874
11
0.518481811023622
21
0.3315944881889764
0
LINE
8
BLACK
6
CONTINUOUS
10
0.518481811023622
20
0.3315944881889764
11
0.5106824409448819
21
0.3195844881889764
0
LINE
8
BLACK
6
CONTINUOUS
10
0.5106824409448819
20
0.3195844881889764
11
0.5016703937007874
21
0.3084555511811023
0
LINE
8
BLACK
6
CONTINUOUS
10
0.5016703937007874
20
0.3084555511811023
11
0.4915444488188976
21
0.2983296062992126
0
LINE
8
BLACK
6
CONTINUOUS
10
0.4915444488188976
20
0.2983296062992126
11
0.4804155118110236
21
0.2893175590551181
0
LINE
8
BLACK
6
CONTINUOUS
10
0.4804155118110236
20
0.2893175590551181
11
0.4684055118110236
21
0.2815181889763779
0
LINE
8
BLACK
6
CONTINUOUS
10
0.4684055118110236
20
0.2815181889763779
11
0.455646062992126
21
0.2750169291338583
0
LINE
8
BLACK
6
CONTINUOUS
10
0.455646062992126
20
0.2750169291338583
11
0.4422769291338582
21
0.269885
0
LINE
8
BLACK
6
CONTINUOUS
10
0.4422769291338582
20
0.269885
11
0.4284446062992126
21
0.2661786220472441
0
LINE
8
BLACK
6
CONTINUOUS
10
0.4284446062992126
20
0.2661786220472441
11
0.4143006299212598
21
0.2639384251968504
0
LINE
8
BLACK
6
CONTINUOUS
10
0.4143006299212598
20
0.2639384251968504
11
0.4
21
0.2631889763779527
0
LINE
8
BLACK
6
CONTINUOUS
10
0.4
20
0.2631889763779527
11
0.3856993700787402
21
0.2639384251968504
0
LINE
8
BLACK
6
CONTINUOUS
10
0.3856993700787402
20
0.2639384251968504
11
0.3715553937007874
21
0.2661786220472441
0
LINE
8
BLACK
6
CONTINUOUS
10
0.3715553937007874
20
0.2661786220472441
11
0.3577230708661417
21
0.269885
0
LINE
8
BLACK
6
CONTINUOUS
10
0.3577230708661417
20
0.269885
11
0.344353937007874
21
0.2750169291338583
0
LINE
8
BLACK
6
CONTINUOUS
10
0.344353937007874
20
0.2750169291338583
11
0.3315944881889764
21
0.2815181889763779
0
LINE
8
BLACK
6
CONTINUOUS
10
0.3315944881889764
20
0.2815181889763779
11
0.3195844881889764
21
0.2893175590551181
0
LINE
8
BLACK
6
CONTINUOUS
10
0.3195844881889764
20
0.2893175590551181
11
0.3084555511811023
21
0.2983296062992126
0
LINE
8
BLACK
6
CONTINUOUS
10
0.3084555511811023
20
0.2983296062992126
11
0.2983296062992126
21
0.3084555511811023
0
LINE
8
BLACK
6
CONTINUOUS
10
0.2983296062992126
20
0.3084555511811023
11
0.2893175590551181
21
0.3195844881889764
0
LINE
8
BLACK
6
CONTINUOUS
10
0.2893175590551181
20
0.3195844881889764
11
0.2815181889763779
21
0.3315944881889764
0
LINE
8
BLACK
6
CONTINUOUS
10
0.2815181889763779
20
0.3315944881889764
11
0.2750169291338583
21
0.344353937007874
0
LINE
8
BLACK
6
CONTINUOUS
10
0.2750169291338583
20
0.344353937007874
11
0.269885
21
0.3577230708661417
0
LINE
8
BLACK
6
CONTINUOUS
10
0.269885
20
0.3577230708661417
11
0.2661786220472441
21
0.3715553937007874
0
LINE
8
BLACK
6
CONTINUOUS
10
0.2661786220472441
20
0.3715553937007874
11
0.2639384251968504
21
0.3856993700787402
0
LINE
8
BLACK
6
CONTINUOUS
10
0.2639384251968504
20
0.3856993700787402
11
0.2631889763779527
21
0.4
0
LINE
8
BLACK
6
CONTINUOUS
10
0.2631889763779527
20
0.4
11
0.2639384251968504
21
0.4143006299212598
0
LINE
8
BLACK
6
CONTINUOUS
10
0.2639384251968504
20
0.4143006299212598
11
0.2661786220472441
21
0.4284446062992126
0
LINE
8
BLACK
6
CONTINUOUS
10
0.2661786220472441
20
0.4284446062992126
11
0.269885
21
0.4422769291338582
0
LINE
8
BLACK
6
CONTINUOUS
10
0.269885
20
0.4422769291338582
11
0.2750169291338583
21
0.455646062992126
0
LINE
8
BLACK
6
CONTINUOUS
10
0.2750169291338583
20
0.455646062992126
11
0.2815181889763779
21
0.4684055118110236
0
LINE
8
BLACK
6
CONTINUOUS
10
0.2815181889763779
20
0.4684055118110236
11
0.2893175590551181
21
0.4804155118110236
0
LINE
8
BLACK
6
CONTINUOUS
10
0.2893175590551181
20
0.4804155118110236
11
0.2983296062992126
21
0.4915444488188976
0
LINE
8
BLACK
6
CONTINUOUS
10
0.2983296062992126
20
0.4915444488188976
11
0.3084555511811023
21
0.5016703937007874
0
LINE
8
BLACK
6
CONTINUOUS
10
0.3084555511811023
20
0.5016703937007874
11
0.3195844881889764
21
0.5106824409448819
0
LINE
8
BLACK
6
CONTINUOUS
10
0.3195844881889764
20
0.5106824409448819
11
0.3315944881889764
21
0.518481811023622
0
LINE
8
BLACK
6
CONTINUOUS
10
0.3315944881889764
20
0.518481811023622
11
0.344353937007874
21
0.5249830708661417
0
LINE
8
BLACK
6
CONTINUOUS
10
0.344353937007874
20
0.5249830708661417
11
0.3577230708661417
21
0.530115
0
LINE
8
BLACK
6
CONTINUOUS
10
0.3577230708661417
20
0.530115
11
0.3715553937007874
21
0.5338213779527559
0
LINE
8
BLACK
6
CONTINUOUS
10
0.3715553937007874
20
0.5338213779527559
11
0.3856993700787402
21
0.5360615748031496
0
LINE
8
BLACK
6
CONTINUOUS
10
0.3856993700787402
20
0.5360615748031496
11
0.4
21
0.5368110236220472
0
LINE
8
BLACK
6
CONTINUOUS
10
0.4
20
0.5368110236220472
11
0.4143006299212598
21
0.5360615748031496
0
LINE
8
BLACK
6
CONTINUOUS
10
0.265751062992126
20
0.3853995669291339
11
0.2681166141732284
21
0.3709702755905512
0
LINE
8
BLACK
6
CONTINUOUS
10
0.2681166141732284
20
0.3709702755905512
11
0.2720283858267716
21
0.3568813385826772
0
LINE
8
BLACK
6
CONTINUOUS
10
0.2720283858267716
20
0.3568813385826772
11
0.2774405118110236
21
0.3432979527559055
0
LINE
8
BLACK
6
CONTINUOUS
10
0.2774405118110236
20
0.3432979527559055
11
0.2842895275590551
21
0.3303793307086614
0
LINE
8
BLACK
6
CONTINUOUS
10
0.2842895275590551
20
0.3303793307086614
11
0.292495157480315
21
0.3182769291338582
0
LINE
8
BLACK
6
CONTINUOUS
10
0.292495157480315
20
0.3182769291338582
11
0.3019611811023622
21
0.3071326771653543
0
LINE
8
BLACK
6
CONTINUOUS
10
0.3019611811023622
20
0.3071326771653543
11
0.3125766141732284
21
0.2970772047244095
0
LINE
8
BLACK
6
CONTINUOUS
10
0.3125766141732284
20
0.2970772047244095
11
0.3242170078740158
21
0.2882284251968504
0
LINE
8
BLACK
6
CONTINUOUS
10
0.3242170078740158
20
0.2882284251968504
11
0.3367458661417323
21
0.2806900393700787
0
LINE
8
BLACK
6
CONTINUOUS
10
0.3367458661417323
20
0.2806900393700787
11
0.3500163385826772
21
0.2745504724409449
0
LINE
8
BLACK
6
CONTINUOUS
10
0.3500163385826772
20
0.2745504724409449
11
0.3638728346456693
21
0.2698816929133858
0
LINE
8
BLACK
6
CONTINUOUS
10
0.3638728346456693
20
0.2698816929133858
11
0.378152874015748
21
0.2667383858267717
0
LINE
8
BLACK
6
CONTINUOUS
10
0.378152874015748
20
0.2667383858267717
11
0.3926890551181103
21
0.2651574803149606
0
LINE
8
BLACK
6
CONTINUOUS
10
0.3926890551181103
20
0.2651574803149606
11
0.4073109448818897
21
0.2651574803149606
0
LINE
8
BLACK
6
CONTINUOUS
10
0.4073109448818897
20
0.2651574803149606
11
0.4218471259842519
21
0.2667383858267717
0
LINE
8
BLACK
6
CONTINUOUS
10
0.4218471259842519
20
0.2667383858267717
11
0.4361271653543307
21
0.2698816929133858
0
LINE
8
BLACK
6
CONTINUOUS
10
0.4361271653543307
20
0.2698816929133858
11
0.4499836614173228
21
0.2745504724409449
0
LINE
8
BLACK
6
CONTINUOUS
10
0.4499836614173228
20
0.2745504724409449
11
0.4632541338582677
21
0.2806900393700787
0
LINE
8
BLACK
6
CONTINUOUS
10
0.4632541338582677
20
0.2806900393700787
11
0.4757829921259842
21
0.2882284251968504
0
LINE
8
BLACK
6
CONTINUOUS
10
0.4757829921259842
20
0.2882284251968504
11
0.4874233858267716
21
0.2970772047244095
0
LINE
8
BLACK
6
CONTINUOUS
10
0.4874233858267716
20
0.2970772047244095
11
0.4980388188976378
21
0.3071326771653543
0
LINE
8
BLACK
6
CONTINUOUS
10
0.4980388188976378
20
0.3071326771653543
11
0.507504842519685
21
0.3182769291338582
0
LINE
8
BLACK
6
CONTINUOUS
10
0.507504842519685
20
0.3182769291338582
11
0.5157104724409449
21
0.3303793307086614
0
LINE
8
BLACK
6
CONTINUOUS
10
0.5157104724409449
20
0.3303793307086614
11
0.5225594881889764
21
0.3432979527559055
0
LINE
8
BLACK
6
CONTINUOUS
10
0.5225594881889764
20
0.3432979527559055
11
0.5279716141732284
21
0.3568813385826772
0
LINE
8
BLACK
6
CONTINUOUS
10
0.5279716141732284
20
0.3568813385826772
11
0.5318833858267716
21
0.3709702755905512
0
LINE
8
BLACK
6
CONTINUOUS
10
0.5318833858267716
20
0.3709702755905512
11
0.534248937007874
21
0.3853995669291339
0
LINE
8
BLACK
6
CONTINUOUS
10
0.534248937007874
20
0.3853995669291339
11
0.5350405511811024
21
0.4
0
LINE
8
BLACK
6
CONTINUOUS
10
0.5350405511811024
20
0.4
11
0.534248937007874
21
0.4146004330708661
0
LINE
8
BLACK
6
CONTINUOUS
10
0.534248937007874
20
0.4146004330708661
11
0.5318833858267716
21
0.4290297244094488
0
LINE
8
BLACK
6
CONTINUOUS
10
0.5318833858267716
20
0.4290297244094488
11
0.5279716141732284
21
0.4431186614173228
0
LINE
8
BLACK
6
CONTINUOUS
10
0.5279716141732284
20
0.4431186614173228
11
0.5225594881889764
21
0.4567020472440945
0
LINE
8
BLACK
6
CONTINUOUS
10
0.5225594881889764
20
0.4567020472440945
11
0.5157104724409449
21
0.4696206692913386
0
LINE
8
BLACK
6
CONTINUOUS
10
0.5157104724409449
20
0.4696206692913386
11
0.507504842519685
21
0.4817230708661417
0
LINE
8
BLACK
6
CONTINUOUS
10
0.507504842519685
20
0.4817230708661417
11
0.4980388188976378
21
0.4928673228346457
0
LINE
8
BLACK
6
CONTINUOUS
10
0.4980388188976378
20
0.4928673228346457
11
0.4874233858267716
21
0.5029227952755906
0
LINE
8
BLACK
6
CONTINUOUS
10
0.4874233858267716
20
0.5029227952755906
11
0.4757829921259842
21
0.5117715748031496
0
LINE
8
BLACK
6
CONTINUOUS
10
0.4757829921259842
20
0.5117715748031496
11
0.4632541338582677
21
0.5193099606299213
0
LINE
8
BLACK
6
CONTINUOUS
10
0.4632541338582677
20
0.5193099606299213
11
0.4499836614173228
21
0.5254495275590551
0
LINE
8
BLACK
6
CONTINUOUS
10
0.4499836614173228
20
0.5254495275590551
11
0.4361271653543307
21
0.5301183070866141
0
LINE
8
BLACK
6
CONTINUOUS
10
0.4361271653543307
20
0.5301183070866141
11
0.4218471259842519
21
0.5332616141732284
0
LINE
8
BLACK
6
CONTINUOUS
10
0.4218471259842519
20
0.5332616141732284
11
0.4073109448818897
21
0.5348425196850394
0
LINE
8
BLACK
6
CONTINUOUS
10
0.4073109448818897
20
0.5348425196850394
11
0.3926890551181103
21
0.5348425196850394
0
LINE
8
BLACK
6
CONTINUOUS
10
0.3926890551181103
20
0.5348425196850394
11
0.378152874015748
21
0.5332616141732284
0
LINE
8
BLACK
6
CONTINUOUS
10
0.378152874015748
20
0.5332616141732284
11
0.3638728346456693
21
0.5301183070866141
0
LINE
8
BLACK
6
CONTINUOUS
10
0.3638728346456693
20
0.5301183070866141
11
0.3500163385826772
21
0.5254495275590551
0
LINE
8
BLACK
6
CONTINUOUS
10
0.3500163385826772
20
0.5254495275590551
11
0.3367458661417323
21
0.5193099606299213
0
LINE
8
BLACK
6
CONTINUOUS
10
0.3367458661417323
20
0.5193099606299213
11
0.3242170078740158
21
0.5117715748031496
0
LINE
8
BLACK
6
CONTINUOUS
10
0.3242170078740158
20
0.5117715748031496
11
0.3125766141732284
21
0.5029227952755906
0
LINE
8
BLACK
6
CONTINUOUS
10
0.3125766141732284
20
0.5029227952755906
11
0.3019611811023622
21
0.4928673228346457
0
LINE
8
BLACK
6
CONTINUOUS
10
0.3019611811023622
20
0.4928673228346457
11
0.292495157480315
21
0.4817230708661417
0
LINE
8
BLACK
6
CONTINUOUS
10
0.292495157480315
20
0.4817230708661417
11
0.2842895275590551
21
0.4696206692913386
0
LINE
8
BLACK
6
CONTINUOUS
10
0.2842895275590551
20
0.4696206692913386
11
0.2774405118110236
21
0.4567020472440945
0
LINE
8
BLACK
6
CONTINUOUS
10
0.2774405118110236
20
0.4567020472440945
11
0.2720283858267716
21
0.4431186614173228
0
LINE
8
BLACK
6
CONTINUOUS
10
0.2720283858267716
20
0.4431186614173228
11
0.2681166141732284
21
0.4290297244094488
0
LINE
8
BLACK
6
CONTINUOUS
10
0.2681166141732284
20
0.4290297244094488
11
0.265751062992126
21
0.4146004330708661
0
LINE
8
BLACK
6
CONTINUOUS
10
0.265751062992126
20
0.4146004330708661
11
0.2649594488188977
21
0.4
0
LINE
8
BLACK
6
CONTINUOUS
10
0.2649594488188977
20
0.4
11
0.265751062992126
21
0.3853995669291339
0
LINE
8
BLACK
6
CONTINUOUS
10
2.0143006299212596
20
0.5360615748031496
11
2.0284446062992125
21
0.5338213779527559
0
LINE
8
BLACK
6
CONTINUOUS
10
2.0284446062992125
20
0.5338213779527559
11
2.0422769291338581
21
0.530115
0
LINE
8
BLACK
6
CONTINUOUS
10
2.0422769291338581
20
0.530115
11
2.055646062992126
21
0.5249830708661417
0
LINE
8
BLACK
6
CONTINUOUS
10
2.055646062992126
20
0.5249830708661417
11
2.0684055118110236
21
0.518481811023622
0
LINE
8
BLACK
6
CONTINUOUS
10
2.0684055118110236
20
0.518481811023622
11
2.0804155118110237
21
0.5106824409448819
0
LINE
8
BLACK
6
CONTINUOUS
10
2.0804155118110237
20
0.5106824409448819
11
2.0915444488188975
21
0.5016703937007874
0
LINE
8
BLACK
6
CONTINUOUS
10
2.0915444488188975
20
0.5016703937007874
11
2.1016703937007875
21
0.4915444488188976
0
LINE
8
BLACK
6
CONTINUOUS
10
2.1016703937007875
20
0.4915444488188976
11
2.1106824409448817
21
0.4804155118110236
0
LINE
8
BLACK
6
CONTINUOUS
10
2.1106824409448817
20
0.4804155118110236
11
2.1184818110236221
21
0.4684055118110236
0
LINE
8
BLACK
6
CONTINUOUS
10
2.1184818110236221
20
0.4684055118110236
11
2.1249830708661417
21
0.455646062992126
0
LINE
8
BLACK
6
CONTINUOUS
10
2.1249830708661417
20
0.455646062992126
11
2.130115
21
0.4422769291338582
0
LINE
8
BLACK
6
CONTINUOUS
10
2.130115
20
0.4422769291338582
11
2.1338213779527559
21
0.4284446062992126
0
LINE
8
BLACK
6
CONTINUOUS
10
2.1338213779527559
20
0.4284446062992126
11
2.1360615748031497
21
0.4143006299212598
0
LINE
8
BLACK
6
CONTINUOUS
10
2.1360615748031497
20
0.4143006299212598
11
2.1368110236220472
21
0.4
0
LINE
8
BLACK
6
CONTINUOUS
10
2.1368110236220472
20
0.4
11
2.1360615748031497
21
0.3856993700787402
0
LINE
8
BLACK
6
CONTINUOUS
10
2.1360615748031497
20
0.3856993700787402
11
2.1338213779527559
21
0.3715553937007874
0
LINE
8
BLACK
6
CONTINUOUS
10
2.1338213779527559
20
0.3715553937007874
11
2.130115
21
0.3577230708661417
0
LINE
8
BLACK
6
CONTINUOUS
10
2.130115
20
0.3577230708661417
11
2.1249830708661417
21
0.344353937007874
0
LINE
8
BLACK
6
CONTINUOUS
10
2.1249830708661417
20
0.344353937007874
11
2.1184818110236221
21
0.3315944881889764
0
LINE
8
BLACK
6
CONTINUOUS
10
2.1184818110236221
20
0.3315944881889764
11
2.1106824409448817
21
0.3195844881889764
0
LINE
8
BLACK
6
CONTINUOUS
10
2.1106824409448817
20
0.3195844881889764
11
2.1016703937007875
21
0.3084555511811023
0
LINE
8
BLACK
6
CONTINUOUS
10
2.1016703937007875
20
0.3084555511811023
11
2.0915444488188975
21
0.2983296062992126
0
LINE
8
BLACK
6
CONTINUOUS
10
2.0915444488188975
20
0.2983296062992126
11
2.0804155118110237
21
0.2893175590551181
0
LINE
8
BLACK
6
CONTINUOUS
10
2.0804155118110237
20
0.2893175590551181
11
2.0684055118110236
21
0.2815181889763779
0
LINE
8
BLACK
6
CONTINUOUS
10
2.0684055118110236
20
0.2815181889763779
11
2.055646062992126
21
0.2750169291338583
0
LINE
8
BLACK
6
CONTINUOUS
10
2.055646062992126
20
0.2750169291338583
11
2.0422769291338581
21
0.269885
0
LINE
8
BLACK
6
CONTINUOUS
10
2.0422769291338581
20
0.269885
11
2.0284446062992125
21
0.2661786220472441
0
LINE
8
BLACK
6
CONTINUOUS
10
2.0284446062992125
20
0.2661786220472441
11
2.0143006299212596
21
0.2639384251968504
0
LINE
8
BLACK
6
CONTINUOUS
10
2.0143006299212596
20
0.2639384251968504
11
2.
21
0.2631889763779527
0
LINE
8
BLACK
6
CONTINUOUS
10
2.
20
0.2631889763779527
11
1.9856993700787402
21
0.2639384251968504
0
LINE
8
BLACK
6
CONTINUOUS
10
1.9856993700787402
20
0.2639384251968504
11
1.9715553937007873
21
0.2661786220472441
0
LINE
8
BLACK
6
CONTINUOUS
10
1.9715553937007873
20
0.2661786220472441
11
1.9577230708661417
21
0.269885
0
LINE
8
BLACK
6
CONTINUOUS
10
1.9577230708661417
20
0.269885
11
1.944353937007874
21
0.2750169291338583
0
LINE
8
BLACK
6
CONTINUOUS
10
1.944353937007874
20
0.2750169291338583
11
1.9315944881889764
21
0.2815181889763779
0
LINE
8
BLACK
6
CONTINUOUS
10
1.9315944881889764
20
0.2815181889763779
11
1.9195844881889763
21
0.2893175590551181
0
LINE
8
BLACK
6
CONTINUOUS
10
1.9195844881889763
20
0.2893175590551181
11
1.9084555511811023
21
0.2983296062992126
0
LINE
8
BLACK
6
CONTINUOUS
10
1.9084555511811023
20
0.2983296062992126
11
1.8983296062992125
21
0.3084555511811023
0
LINE
8
BLACK
6
CONTINUOUS
10
1.8983296062992125
20
0.3084555511811023
11
1.8893175590551181
21
0.3195844881889764
0
LINE
8
BLACK
6
CONTINUOUS
10
1.8893175590551181
20
0.3195844881889764
11
1.8815181889763779
21
0.3315944881889764
0
LINE
8
BLACK
6
CONTINUOUS
10
1.8815181889763779
20
0.3315944881889764
11
1.8750169291338583
21
0.344353937007874
0
LINE
8
BLACK
6
CONTINUOUS
10
1.8750169291338583
20
0.344353937007874
11
1.869885
21
0.3577230708661417
0
LINE
8
BLACK
6
CONTINUOUS
10
1.869885
20
0.3577230708661417
11
1.8661786220472441
21
0.3715553937007874
0
LINE
8
BLACK
6
CONTINUOUS
10
1.8661786220472441
20
0.3715553937007874
11
1.8639384251968503
21
0.3856993700787402
0
LINE
8
BLACK
6
CONTINUOUS
10
1.8639384251968503
20
0.3856993700787402
11
1.8631889763779528
21
0.4
0
LINE
8
BLACK
6
CONTINUOUS
10
1.8631889763779528
20
0.4
11
1.8639384251968503
21
0.4143006299212598
0
LINE
8
BLACK
6
CONTINUOUS
10
1.8639384251968503
20
0.4143006299212598
11
1.8661786220472441
21
0.4284446062992126
0
LINE
8
BLACK
6
CONTINUOUS
10
1.8661786220472441
20
0.4284446062992126
11
1.869885
21
0.4422769291338582
0
LINE
8
BLACK
6
CONTINUOUS
10
1.869885
20
0.4422769291338582
11
1.8750169291338583
21
0.455646062992126
0
LINE
8
BLACK
6
CONTINUOUS
10
1.8750169291338583
20
0.455646062992126
11
1.8815181889763779
21
0.4684055118110236
0
LINE
8
BLACK
6
CONTINUOUS
10
1.8815181889763779
20
0.4684055118110236
11
1.8893175590551181
21
0.4804155118110236
0
LINE
8
BLACK
6
CONTINUOUS
10
1.8893175590551181
20
0.4804155118110236
11
1.8983296062992125
21
0.4915444488188976
0
LINE
8
BLACK
6
CONTINUOUS
10
1.8983296062992125
20
0.4915444488188976
11
1.9084555511811023
21
0.5016703937007874
0
LINE
8
BLACK
6
CONTINUOUS
10
1.9084555511811023
20
0.5016703937007874
11
1.9195844881889763
21
0.5106824409448819
0
LINE
8
BLACK
6
CONTINUOUS
10
1.9195844881889763
20
0.5106824409448819
11
1.9315944881889764
21
0.518481811023622
0
LINE
8
BLACK
6
CONTINUOUS
10
1.9315944881889764
20
0.518481811023622
11
1.944353937007874
21
0.5249830708661417
0
LINE
8
BLACK
6
CONTINUOUS
10
1.944353937007874
20
0.5249830708661417
11
1.9577230708661417
21
0.530115
0
LINE
8
BLACK
6
CONTINUOUS
10
1.9577230708661417
20
0.530115
11
1.9715553937007873
21
0.5338213779527559
0
LINE
8
BLACK
6
CONTINUOUS
10
1.9715553937007873
20
0.5338213779527559
11
1.9856993700787402
21
0.5360615748031496
0
LINE
8
BLACK
6
CONTINUOUS
10
1.9856993700787402
20
0.5360615748031496
11
2.
21
0.5368110236220472
0
LINE
8
BLACK
6
CONTINUOUS
10
2.
20
0.5368110236220472
11
2.0143006299212596
21
0.5360615748031496
0
LINE
8
BLACK
6
CONTINUOUS
10
1.8657510629921259
20
0.3853995669291339
11
1.8681166141732284
21
0.3709702755905512
0
LINE
8
BLACK
6
CONTINUOUS
10
1.8681166141732284
20
0.3709702755905512
11
1.8720283858267717
21
0.3568813385826772
0
LINE
8
BLACK
6
CONTINUOUS
10
1.8720283858267717
20
0.3568813385826772
11
1.8774405118110236
21
0.3432979527559055
0
LINE
8
BLACK
6
CONTINUOUS
10
1.8774405118110236
20
0.3432979527559055
11
1.884289527559055
21
0.3303793307086614
0
LINE
8
BLACK
6
CONTINUOUS
10
1.884289527559055
20
0.3303793307086614
11
1.8924951574803148
21
0.3182769291338582
0
LINE
8
BLACK
6
CONTINUOUS
10
1.8924951574803148
20
0.3182769291338582
11
1.9019611811023622
21
0.3071326771653543
0
LINE
8
BLACK
6
CONTINUOUS
10
1.9019611811023622
20
0.3071326771653543
11
1.9125766141732283
21
0.2970772047244095
0
LINE
8
BLACK
6
CONTINUOUS
10
1.9125766141732283
20
0.2970772047244095
11
1.9242170078740157
21
0.2882284251968504
0
LINE
8
BLACK
6
CONTINUOUS
10
1.9242170078740157
20
0.2882284251968504
11
1.9367458661417323
21
0.2806900393700787
0
LINE
8
BLACK
6
CONTINUOUS
10
1.9367458661417323
20
0.2806900393700787
11
1.9500163385826772
21
0.2745504724409449
0
LINE
8
BLACK
6
CONTINUOUS
10
1.9500163385826772
20
0.2745504724409449
11
1.9638728346456693
21
0.2698816929133858
0
LINE
8
BLACK
6
CONTINUOUS
10
1.9638728346456693
20
0.2698816929133858
11
1.9781528740157479
21
0.2667383858267717
0
LINE
8
BLACK
6
CONTINUOUS
10
1.9781528740157479
20
0.2667383858267717
11
1.9926890551181102
21
0.2651574803149606
0
LINE
8
BLACK
6
CONTINUOUS
10
1.9926890551181102
20
0.2651574803149606
11
2.0073109448818895
21
0.2651574803149606
0
LINE
8
BLACK
6
CONTINUOUS
10
2.0073109448818895
20
0.2651574803149606
11
2.0218471259842521
21
0.2667383858267717
0
LINE
8
BLACK
6
CONTINUOUS
10
2.0218471259842521
20
0.2667383858267717
11
2.0361271653543307
21
0.2698816929133858
0
LINE
8
BLACK
6
CONTINUOUS
10
2.0361271653543307
20
0.2698816929133858
11
2.0499836614173228
21
0.2745504724409449
0
LINE
8
BLACK
6
CONTINUOUS
10
2.0499836614173228
20
0.2745504724409449
11
2.0632541338582677
21
0.2806900393700787
0
LINE
8
BLACK
6
CONTINUOUS
10
2.0632541338582677
20
0.2806900393700787
11
2.0757829921259843
21
0.2882284251968504
0
LINE
8
BLACK
6
CONTINUOUS
10
2.0757829921259843
20
0.2882284251968504
11
2.0874233858267717
21
0.2970772047244095
0
LINE
8
BLACK
6
CONTINUOUS
10
2.0874233858267717
20
0.2970772047244095
11
2.0980388188976375
21
0.3071326771653543
0
LINE
8
BLACK
6
CONTINUOUS
10
2.0980388188976375
20
0.3071326771653543
11
2.1075048425196852
21
0.3182769291338582
0
LINE
8
BLACK
6
CONTINUOUS
10
2.1075048425196852
20
0.3182769291338582
11
2.115710472440945
21
0.3303793307086614
0
LINE
8
BLACK
6
CONTINUOUS
10
2.115710472440945
20
0.3303793307086614
11
2.1225594881889762
21
0.3432979527559055
0
LINE
8
BLACK
6
CONTINUOUS
10
2.1225594881889762
20
0.3432979527559055
11
2.1279716141732283
21
0.3568813385826772
0
LINE
8
BLACK
6
CONTINUOUS
10
2.1279716141732283
20
0.3568813385826772
11
2.1318833858267716
21
0.3709702755905512
0
LINE
8
BLACK
6
CONTINUOUS
10
2.1318833858267716
20
0.3709702755905512
11
2.1342489370078739
21
0.3853995669291339
0
LINE
8
BLACK
6
CONTINUOUS
10
2.1342489370078739
20
0.3853995669291339
11
2.1350405511811021
21
0.4
0
LINE
8
BLACK
6
CONTINUOUS
10
2.1350405511811021
20
0.4
11
2.1342489370078739
21
0.4146004330708661
0
LINE
8
BLACK
6
CONTINUOUS
10
2.1342489370078739
20
0.4146004330708661
11
2.1318833858267716
21
0.4290297244094488
0
LINE
8
BLACK
6
CONTINUOUS
10
2.1318833858267716
20
0.4290297244094488
11
2.1279716141732283
21
0.4431186614173228
0
LINE
8
BLACK
6
CONTINUOUS
10
2.1279716141732283
20
0.4431186614173228
11
2.1225594881889762
21
0.4567020472440945
0
LINE
8
BLACK
6
CONTINUOUS
10
2.1225594881889762
20
0.4567020472440945
11
2.115710472440945
21
0.4696206692913386
0
LINE
8
BLACK
6
CONTINUOUS
10
2.115710472440945
20
0.4696206692913386
11
2.1075048425196852
21
0.4817230708661417
0
LINE
8
BLACK
6
CONTINUOUS
10
2.1075048425196852
20
0.4817230708661417
11
2.0980388188976375
21
0.4928673228346457
0
LINE
8
BLACK
6
CONTINUOUS
10
2.0980388188976375
20
0.4928673228346457
11
2.0874233858267717
21
0.5029227952755906
0
LINE
8
BLACK
6
CONTINUOUS
10
2.0874233858267717
20
0.5029227952755906
11
2.0757829921259843
21
0.5117715748031496
0
LINE
8
BLACK
6
CONTINUOUS
10
2.0757829921259843
20
0.5117715748031496
11
2.0632541338582677
21
0.5193099606299213
0
LINE
8
BLACK
6
CONTINUOUS
10
2.0632541338582677
20
0.5193099606299213
11
2.0499836614173228
21
0.5254495275590551
0
LINE
8
BLACK
6
CONTINUOUS
10
2.0499836614173228
20
0.5254495275590551
11
2.0361271653543307
21
0.5301183070866141
0
LINE
8
BLACK
6
CONTINUOUS
10
2.0361271653543307
20
0.5301183070866141
11
2.0218471259842521
21
0.5332616141732284
0
LINE
8
BLACK
6
CONTINUOUS
10
2.0218471259842521
20
0.5332616141732284
11
2.0073109448818895
21
0.5348425196850394
0
LINE
8
BLACK
6
CONTINUOUS
10
2.0073109448818895
20
0.5348425196850394
11
1.9926890551181102
21
0.5348425196850394
0
LINE
8
BLACK
6
CONTINUOUS
10
1.9926890551181102
20
0.5348425196850394
11
1.9781528740157479
21
0.5332616141732284
0
LINE
8
BLACK
6
CONTINUOUS
10
1.9781528740157479
20
0.5332616141732284
11
1.9638728346456693
21
0.5301183070866141
0
LINE
8
BLACK
6
CONTINUOUS
10
1.9638728346456693
20
0.5301183070866141
11
1.9500163385826772
21
0.5254495275590551
0
LINE
8
BLACK
6
CONTINUOUS
10
1.9500163385826772
20
0.5254495275590551
11
1.9367458661417323
21
0.5193099606299213
0
LINE
8
BLACK
6
CONTINUOUS
10
1.9367458661417323
20
0.5193099606299213
11
1.9242170078740157
21
0.5117715748031496
0
LINE
8
BLACK
6
CONTINUOUS
10
1.9242170078740157
20
0.5117715748031496
11
1.9125766141732283
21
0.5029227952755906
0
LINE
8
BLACK
6
CONTINUOUS
10
1.9125766141732283
20
0.5029227952755906
11
1.9019611811023622
21
0.4928673228346457
0
LINE
8
BLACK
6
CONTINUOUS
10
1.9019611811023622
20
0.4928673228346457
11
1.8924951574803148
21
0.4817230708661417
0
LINE
8
BLACK
6
CONTINUOUS
10
1.8924951574803148
20
0.4817230708661417
11
1.884289527559055
21
0.4696206692913386
0
LINE
8
BLACK
6
CONTINUOUS
10
1.884289527559055
20
0.4696206692913386
11
1.8774405118110236
21
0.4567020472440945
0
LINE
8
BLACK
6
CONTINUOUS
10
1.8774405118110236
20
0.4567020472440945
11
1.8720283858267717
21
0.4431186614173228
0
LINE
8
BLACK
6
CONTINUOUS
10
1.8720283858267717
20
0.4431186614173228
11
1.8681166141732284
21
0.4290297244094488
0
LINE
8
BLACK
6
CONTINUOUS
10
1.8681166141732284
20
0.4290297244094488
11
1.8657510629921259
21
0.4146004330708661
0
LINE
8
BLACK
6
CONTINUOUS
10
1.8657510629921259
20
0.4146004330708661
11
1.8649594488188976
21
0.4
0
LINE
8
BLACK
6
CONTINUOUS
10
1.8649594488188976
20
0.4
11
1.8657510629921259
21
0.3853995669291339
0
LINE
8
BLACK
6
CONTINUOUS
10
0.4940944881889764
20
0.7824803149606299
11
0.4947904724409449
21
0.7821920472440945
0
LINE
8
BLACK
6
CONTINUOUS
10
0.4947904724409449
20
0.7821920472440945
11
0.4950787401574803
21
0.7814960629921259
0
LINE
8
BLACK
6
CONTINUOUS
10
0.4950787401574803
20
0.7814960629921259
11
0.4950787401574803
21
0.6358267716535433
0
LINE
8
BLACK
6
CONTINUOUS
10
0.4950787401574803
20
0.6358267716535433
11
0.4947904724409449
21
0.6351307874015748
0
LINE
8
BLACK
6
CONTINUOUS
10
0.4947904724409449
20
0.6351307874015748
11
0.4940944881889764
21
0.6348425196850394
0
LINE
8
BLACK
6
CONTINUOUS
10
0.4940944881889764
20
0.6348425196850394
11
0.2696850393700788
21
0.6348425196850394
0
LINE
8
BLACK
6
CONTINUOUS
10
0.2696850393700788
20
0.6348425196850394
11
0.2689890551181102
21
0.6351307874015748
0
LINE
8
BLACK
6
CONTINUOUS
10
0.2689890551181102
20
0.6351307874015748
11
0.2687007874015748
21
0.6358267716535433
0
LINE
8
BLACK
6
CONTINUOUS
10
0.2687007874015748
20
0.6358267716535433
11
0.2687007874015748
21
0.7814960629921259
0
LINE
8
BLACK
6
CONTINUOUS
10
0.2687007874015748
20
0.7814960629921259
11
0.2689890551181102
21
0.7821920472440945
0
LINE
8
BLACK
6
CONTINUOUS
10
0.2689890551181102
20
0.7821920472440945
11
0.2696850393700788
21
0.7824803149606299
0
LINE
8
BLACK
6
CONTINUOUS
10
0.2696850393700788
20
0.7824803149606299
11
0.4940944881889764
21
0.7824803149606299
0
LINE
8
BLACK
6
CONTINUOUS
10
0.2706692913385827
20
0.780511811023622
11
0.2706692913385827
21
0.6368110236220472
0
LINE
8
BLACK
6
CONTINUOUS
10
0.2706692913385827
20
0.6368110236220472
11
0.4931102362204725
21
0.6368110236220472
0
LINE
8
BLACK
6
CONTINUOUS
10
0.4931102362204725
20
0.6368110236220472
11
0.4931102362204725
21
0.780511811023622
0
LINE
8
BLACK
6
CONTINUOUS
10
0.4931102362204725
20
0.780511811023622
11
0.2706692913385827
21
0.780511811023622
0
LINE
8
BLACK
6
CONTINUOUS
10
2.1279527559055116
20
0.7824803149606299
11
2.1286487401574803
21
0.7821920472440945
0
LINE
8
BLACK
6
CONTINUOUS
10
2.1286487401574803
20
0.7821920472440945
11
2.1289370078740157
21
0.7814960629921259
0
LINE
8
BLACK
6
CONTINUOUS
10
2.1289370078740157
20
0.7814960629921259
11
2.1289370078740157
21
0.6358267716535433
0
LINE
8
BLACK
6
CONTINUOUS
10
2.1289370078740157
20
0.6358267716535433
11
2.1286487401574803
21
0.6351307874015748
0
LINE
8
BLACK
6
CONTINUOUS
10
2.1286487401574803
20
0.6351307874015748
11
2.1279527559055116
21
0.6348425196850394
0
LINE
8
BLACK
6
CONTINUOUS
10
2.1279527559055116
20
0.6348425196850394
11
1.9035433070866141
21
0.6348425196850394
0
LINE
8
BLACK
6
CONTINUOUS
10
1.9035433070866141
20
0.6348425196850394
11
1.9028473228346456
21
0.6351307874015748
0
LINE
8
BLACK
6
CONTINUOUS
10
1.9028473228346456
20
0.6351307874015748
11
1.9025590551181102
21
0.6358267716535433
0
LINE
8
BLACK
6
CONTINUOUS
10
1.9025590551181102
20
0.6358267716535433
11
1.9025590551181102
21
0.7814960629921259
0
LINE
8
BLACK
6
CONTINUOUS
10
1.9025590551181102
20
0.7814960629921259
11
1.9028473228346456
21
0.7821920472440945
0
LINE
8
BLACK
6
CONTINUOUS
10
1.9028473228346456
20
0.7821920472440945
11
1.9035433070866141
21
0.7824803149606299
0
LINE
8
BLACK
6
CONTINUOUS
10
1.9035433070866141
20
0.7824803149606299
11
2.1279527559055116
21
0.7824803149606299
0
LINE
8
BLACK
6
CONTINUOUS
10
1.9045275590551181
20
0.780511811023622
11
1.9045275590551181
21
0.6368110236220472
0
LINE
8
BLACK
6
CONTINUOUS
10
1.9045275590551181
20
0.6368110236220472
11
2.1269685039370079
21
0.6368110236220472
0
LINE
8
BLACK
6
CONTINUOUS
10
2.1269685039370079
20
0.6368110236220472
11
2.1269685039370079
21
0.780511811023622
0
LINE
8
BLACK
6
CONTINUOUS
10
2.1269685039370079
20
0.780511811023622
11
1.9045275590551181
21
0.780511811023622
0
LINE
8
BLACK
6
CONTINUOUS
10
0.4143006299212598
20
2.1360615748031497
11
0.4284446062992126
21
2.1338213779527559
0
LINE
8
BLACK
6
CONTINUOUS
10
0.4284446062992126
20
2.1338213779527559
11
0.4422769291338582
21
2.130115
0
LINE
8
BLACK
6
CONTINUOUS
10
0.4422769291338582
20
2.130115
11
0.455646062992126
21
2.1249830708661417
0
LINE
8
BLACK
6
CONTINUOUS
10
0.455646062992126
20
2.1249830708661417
11
0.4684055118110236
21
2.1184818110236221
0
LINE
8
BLACK
6
CONTINUOUS
10
0.4684055118110236
20
2.1184818110236221
11
0.4804155118110236
21
2.1106824409448817
0
LINE
8
BLACK
6
CONTINUOUS
10
0.4804155118110236
20
2.1106824409448817
11
0.4915444488188976
21
2.1016703937007875
0
LINE
8
BLACK
6
CONTINUOUS
10
0.4915444488188976
20
2.1016703937007875
11
0.5016703937007874
21
2.0915444488188975
0
LINE
8
BLACK
6
CONTINUOUS
10
0.5016703937007874
20
2.0915444488188975
11
0.5106824409448819
21
2.0804155118110237
0
LINE
8
BLACK
6
CONTINUOUS
10
0.5106824409448819
20
2.0804155118110237
11
0.518481811023622
21
2.0684055118110236
0
LINE
8
BLACK
6
CONTINUOUS
10
0.518481811023622
20
2.0684055118110236
11
0.5249830708661417
21
2.055646062992126
0
LINE
8
BLACK
6
CONTINUOUS
10
0.5249830708661417
20
2.055646062992126
11
0.530115
21
2.0422769291338581
0
LINE
8
BLACK
6
CONTINUOUS
10
0.530115
20
2.0422769291338581
11
0.5338213779527559
21
2.0284446062992125
0
LINE
8
BLACK
6
CONTINUOUS
10
0.5338213779527559
20
2.0284446062992125
11
0.5360615748031496
21
2.0143006299212596
0
LINE
8
BLACK
6
CONTINUOUS
10
0.5360615748031496
20
2.0143006299212596
11
0.5368110236220472
21
2.
0
LINE
8
BLACK
6
CONTINUOUS
10
0.5368110236220472
20
2.
11
0.5360615748031496
21
1.9856993700787402
0
LINE
8
BLACK
6
CONTINUOUS
10
0.5360615748031496
20
1.9856993700787402
11
0.5338213779527559
21
1.9715553937007873
0
LINE
8
BLACK
6
CONTINUOUS
10
0.5338213779527559
20
1.9715553937007873
11
0.530115
21
1.9577230708661417
0
LINE
8
BLACK
6
CONTINUOUS
10
0.530115
20
1.9577230708661417
11
0.5249830708661417
21
1.944353937007874
0
LINE
8
BLACK
6
CONTINUOUS
10
0.5249830708661417
20
1.944353937007874
11
0.518481811023622
21
1.9315944881889764
0
LINE
8
BLACK
6
CONTINUOUS
10
0.518481811023622
20
1.9315944881889764
11
0.5106824409448819
21
1.9195844881889763
0
LINE
8
BLACK
6
CONTINUOUS
10
0.5106824409448819
20
1.9195844881889763
11
0.5016703937007874
21
1.9084555511811023
0
LINE
8
BLACK
6
CONTINUOUS
10
0.5016703937007874
20
1.9084555511811023
11
0.4915444488188976
21
1.8983296062992125
0
LINE
8
BLACK
6
CONTINUOUS
10
0.4915444488188976
20
1.8983296062992125
11
0.4804155118110236
21
1.8893175590551181
0
LINE
8
BLACK
6
CONTINUOUS
10
0.4804155118110236
20
1.8893175590551181
11
0.4684055118110236
21
1.8815181889763779
0
LINE
8
BLACK
6
CONTINUOUS
10
0.4684055118110236
20
1.8815181889763779
11
0.455646062992126
21
1.8750169291338583
0
LINE
8
BLACK
6
CONTINUOUS
10
0.455646062992126
20
1.8750169291338583
11
0.4422769291338582
21
1.869885
0
LINE
8
BLACK
6
CONTINUOUS
10
0.4422769291338582
20
1.869885
11
0.4284446062992126
21
1.8661786220472441
0
LINE
8
BLACK
6
CONTINUOUS
10
0.4284446062992126
20
1.8661786220472441
11
0.4143006299212598
21
1.8639384251968503
0
LINE
8
BLACK
6
CONTINUOUS
10
0.4143006299212598
20
1.8639384251968503
11
0.4
21
1.8631889763779528
0
LINE
8
BLACK
6
CONTINUOUS
10
0.4
20
1.8631889763779528
11
0.3856993700787402
21
1.8639384251968503
0
LINE
8
BLACK
6
CONTINUOUS
10
0.3856993700787402
20
1.8639384251968503
11
0.3715553937007874
21
1.8661786220472441
0
LINE
8
BLACK
6
CONTINUOUS
10
0.3715553937007874
20
1.8661786220472441
11
0.3577230708661417
21
1.869885
0
LINE
8
BLACK
6
CONTINUOUS
10
0.3577230708661417
20
1.869885
11
0.344353937007874
21
1.8750169291338583
0
LINE
8
BLACK
6
CONTINUOUS
10
0.344353937007874
20
1.8750169291338583
11
0.3315944881889764
21
1.8815181889763779
0
LINE
8
BLACK
6
CONTINUOUS
10
0.3315944881889764
20
1.8815181889763779
11
0.3195844881889764
21
1.8893175590551181
0
LINE
8
BLACK
6
CONTINUOUS
10
0.3195844881889764
20
1.8893175590551181
11
0.3084555511811023
21
1.8983296062992125
0
LINE
8
BLACK
6
CONTINUOUS
10
0.3084555511811023
20
1.8983296062992125
11
0.2983296062992126
21
1.9084555511811023
0
LINE
8
BLACK
6
CONTINUOUS
10
0.2983296062992126
20
1.9084555511811023
11
0.2893175590551181
21
1.9195844881889763
0
LINE
8
BLACK
6
CONTINUOUS
10
0.2893175590551181
20
1.9195844881889763
11
0.2815181889763779
21
1.9315944881889764
0
LINE
8
BLACK
6
CONTINUOUS
10
0.2815181889763779
20
1.9315944881889764
11
0.2750169291338583
21
1.944353937007874
0
LINE
8
BLACK
6
CONTINUOUS
10
0.2750169291338583
20
1.944353937007874
11
0.269885
21
1.9577230708661417
0
LINE
8
BLACK
6
CONTINUOUS
10
0.269885
20
1.9577230708661417
11
0.2661786220472441
21
1.9715553937007873
0
LINE
8
BLACK
6
CONTINUOUS
10
0.2661786220472441
20
1.9715553937007873
11
0.2639384251968504
21
1.9856993700787402
0
LINE
8
BLACK
6
CONTINUOUS
10
0.2639384251968504
20
1.9856993700787402
11
0.2631889763779527
21
2.
0
LINE
8
BLACK
6
CONTINUOUS
10
0.2631889763779527
20
2.
11
0.2639384251968504
21
2.0143006299212596
0
LINE
8
BLACK
6
CONTINUOUS
10
0.2639384251968504
20
2.0143006299212596
11
0.2661786220472441
21
2.0284446062992125
0
LINE
8
BLACK
6
CONTINUOUS
10
0.2661786220472441
20
2.0284446062992125
11
0.269885
21
2.0422769291338581
0
LINE
8
BLACK
6
CONTINUOUS
10
0.269885
20
2.0422769291338581
11
0.2750169291338583
21
2.055646062992126
0
LINE
8
BLACK
6
CONTINUOUS
10
0.2750169291338583
20
2.055646062992126
11
0.2815181889763779
21
2.0684055118110236
0
LINE
8
BLACK
6
CONTINUOUS
10
0.2815181889763779
20
2.0684055118110236
11
0.2893175590551181
21
2.0804155118110237
0
LINE
8
BLACK
6
CONTINUOUS
10
0.2893175590551181
20
2.0804155118110237
11
0.2983296062992126
21
2.0915444488188975
0
LINE
8
BLACK
6
CONTINUOUS
10
0.2983296062992126
20
2.0915444488188975
11
0.3084555511811023
21
2.1016703937007875
0
LINE
8
BLACK
6
CONTINUOUS
10
0.3084555511811023
20
2.1016703937007875
11
0.3195844881889764
21
2.1106824409448817
0
LINE
8
BLACK
6
CONTINUOUS
10
0.3195844881889764
20
2.1106824409448817
11
0.3315944881889764
21
2.1184818110236221
0
LINE
8
BLACK
6
CONTINUOUS
10
0.3315944881889764
20
2.1184818110236221
11
0.344353937007874
21
2.1249830708661417
0
LINE
8
BLACK
6
CONTINUOUS
10
0.344353937007874
20
2.1249830708661417
11
0.3577230708661417
21
2.130115
0
LINE
8
BLACK
6
CONTINUOUS
10
0.3577230708661417
20
2.130115
11
0.3715553937007874
21
2.1338213779527559
0
LINE
8
BLACK
6
CONTINUOUS
10
0.3715553937007874
20
2.1338213779527559
11
0.3856993700787402
21
2.1360615748031497
0
LINE
8
BLACK
6
CONTINUOUS
10
0.3856993700787402
20
2.1360615748031497
11
0.4
21
2.1368110236220472
0
LINE
8
BLACK
6
CONTINUOUS
10
0.4
20
2.1368110236220472
11
0.4143006299212598
21
2.1360615748031497
0
LINE
8
BLACK
6
CONTINUOUS
10
0.265751062992126
20
1.9853995669291338
11
0.2681166141732284
21
1.9709702755905512
0
LINE
8
BLACK
6
CONTINUOUS
10
0.2681166141732284
20
1.9709702755905512
11
0.2720283858267716
21
1.9568813385826771
0
LINE
8
BLACK
6
CONTINUOUS
10
0.2720283858267716
20
1.9568813385826771
11
0.2774405118110236
21
1.9432979527559056
0
LINE
8
BLACK
6
CONTINUOUS
10
0.2774405118110236
20
1.9432979527559056
11
0.2842895275590551
21
1.9303793307086614
0
LINE
8
BLACK
6
CONTINUOUS
10
0.2842895275590551
20
1.9303793307086614
11
0.292495157480315
21
1.9182769291338582
0
LINE
8
BLACK
6
CONTINUOUS
10
0.292495157480315
20
1.9182769291338582
11
0.3019611811023622
21
1.9071326771653543
0
LINE
8
BLACK
6
CONTINUOUS
10
0.3019611811023622
20
1.9071326771653543
11
0.3125766141732284
21
1.8970772047244093
0
LINE
8
BLACK
6
CONTINUOUS
10
0.3125766141732284
20
1.8970772047244093
11
0.3242170078740158
21
1.8882284251968504
0
LINE
8
BLACK
6
CONTINUOUS
10
0.3242170078740158
20
1.8882284251968504
11
0.3367458661417323
21
1.8806900393700787
0
LINE
8
BLACK
6
CONTINUOUS
10
0.3367458661417323
20
1.8806900393700787
11
0.3500163385826772
21
1.8745504724409447
0
LINE
8
BLACK
6
CONTINUOUS
10
0.3500163385826772
20
1.8745504724409447
11
0.3638728346456693
21
1.8698816929133857
0
LINE
8
BLACK
6
CONTINUOUS
10
0.3638728346456693
20
1.8698816929133857
11
0.378152874015748
21
1.8667383858267717
0
LINE
8
BLACK
6
CONTINUOUS
10
0.378152874015748
20
1.8667383858267717
11
0.3926890551181103
21
1.8651574803149606
0
LINE
8
BLACK
6
CONTINUOUS
10
0.3926890551181103
20
1.8651574803149606
11
0.4073109448818897
21
1.8651574803149606
0
LINE
8
BLACK
6
CONTINUOUS
10
0.4073109448818897
20
1.8651574803149606
11
0.4218471259842519
21
1.8667383858267717
0
LINE
8
BLACK
6
CONTINUOUS
10
0.4218471259842519
20
1.8667383858267717
11
0.4361271653543307
21
1.8698816929133857
0
LINE
8
BLACK
6
CONTINUOUS
10
0.4361271653543307
20
1.8698816929133857
11
0.4499836614173228
21
1.8745504724409447
0
LINE
8
BLACK
6
CONTINUOUS
10
0.4499836614173228
20
1.8745504724409447
11
0.4632541338582677
21
1.8806900393700787
0
LINE
8
BLACK
6
CONTINUOUS
10
0.4632541338582677
20
1.8806900393700787
11
0.4757829921259842
21
1.8882284251968504
0
LINE
8
BLACK
6
CONTINUOUS
10
0.4757829921259842
20
1.8882284251968504
11
0.4874233858267716
21
1.8970772047244093
0
LINE
8
BLACK
6
CONTINUOUS
10
0.4874233858267716
20
1.8970772047244093
11
0.4980388188976378
21
1.9071326771653543
0
LINE
8
BLACK
6
CONTINUOUS
10
0.4980388188976378
20
1.9071326771653543
11
0.507504842519685
21
1.9182769291338582
0
LINE
8
BLACK
6
CONTINUOUS
10
0.507504842519685
20
1.9182769291338582
11
0.5157104724409449
21
1.9303793307086614
0
LINE
8
BLACK
6
CONTINUOUS
10
0.5157104724409449
20
1.9303793307086614
11
0.5225594881889764
21
1.9432979527559056
0
LINE
8
BLACK
6
CONTINUOUS
10
0.5225594881889764
20
1.9432979527559056
11
0.5279716141732284
21
1.9568813385826771
0
LINE
8
BLACK
6
CONTINUOUS
10
0.5279716141732284
20
1.9568813385826771
11
0.5318833858267716
21
1.9709702755905512
0
LINE
8
BLACK
6
CONTINUOUS
10
0.5318833858267716
20
1.9709702755905512
11
0.534248937007874
21
1.9853995669291338
0
LINE
8
BLACK
6
CONTINUOUS
10
0.534248937007874
20
1.9853995669291338
11
0.5350405511811024
21
2.
0
LINE
8
BLACK
6
CONTINUOUS
10
0.5350405511811024
20
2.
11
0.534248937007874
21
2.014600433070866
0
LINE
8
BLACK
6
CONTINUOUS
10
0.534248937007874
20
2.014600433070866
11
0.5318833858267716
21
2.0290297244094488
0
LINE
8
BLACK
6
CONTINUOUS
10
0.5318833858267716
20
2.0290297244094488
11
0.5279716141732284
21
2.0431186614173229
0
LINE
8
BLACK
6
CONTINUOUS
10
0.5279716141732284
20
2.0431186614173229
11
0.5225594881889764
21
2.0567020472440944
0
LINE
8
BLACK
6
CONTINUOUS
10
0.5225594881889764
20
2.0567020472440944
11
0.5157104724409449
21
2.0696206692913384
0
LINE
8
BLACK
6
CONTINUOUS
10
0.5157104724409449
20
2.0696206692913384
11
0.507504842519685
21
2.0817230708661416
0
LINE
8
BLACK
6
CONTINUOUS
10
0.507504842519685
20
2.0817230708661416
11
0.4980388188976378
21
2.0928673228346457
0
LINE
8
BLACK
6
CONTINUOUS
10
0.4980388188976378
20
2.0928673228346457
11
0.4874233858267716
21
2.1029227952755907
0
LINE
8
BLACK
6
CONTINUOUS
10
0.4874233858267716
20
2.1029227952755907
11
0.4757829921259842
21
2.1117715748031496
0
LINE
8
BLACK
6
CONTINUOUS
10
0.4757829921259842
20
2.1117715748031496
11
0.4632541338582677
21
2.1193099606299213
0
LINE
8
BLACK
6
CONTINUOUS
10
0.4632541338582677
20
2.1193099606299213
11
0.4499836614173228
21
2.1254495275590553
0
LINE
8
BLACK
6
CONTINUOUS
10
0.4499836614173228
20
2.1254495275590553
11
0.4361271653543307
21
2.1301183070866143
0
LINE
8
BLACK
6
CONTINUOUS
10
0.4361271653543307
20
2.1301183070866143
11
0.4218471259842519
21
2.1332616141732283
0
LINE
8
BLACK
6
CONTINUOUS
10
0.4218471259842519
20
2.1332616141732283
11
0.4073109448818897
21
2.1348425196850394
0
LINE
8
BLACK
6
CONTINUOUS
10
0.4073109448818897
20
2.1348425196850394
11
0.3926890551181103
21
2.1348425196850394
0
LINE
8
BLACK
6
CONTINUOUS
10
0.3926890551181103
20
2.1348425196850394
11
0.378152874015748
21
2.1332616141732283
0
LINE
8
BLACK
6
CONTINUOUS
10
0.378152874015748
20
2.1332616141732283
11
0.3638728346456693
21
2.1301183070866143
0
LINE
8
BLACK
6
CONTINUOUS
10
0.3638728346456693
20
2.1301183070866143
11
0.3500163385826772
21
2.1254495275590553
0
LINE
8
BLACK
6
CONTINUOUS
10
0.3500163385826772
20
2.1254495275590553
11
0.3367458661417323
21
2.1193099606299213
0
LINE
8
BLACK
6
CONTINUOUS
10
0.3367458661417323
20
2.1193099606299213
11
0.3242170078740158
21
2.1117715748031496
0
LINE
8
BLACK
6
CONTINUOUS
10
0.3242170078740158
20
2.1117715748031496
11
0.3125766141732284
21
2.1029227952755907
0
LINE
8
BLACK
6
CONTINUOUS
10
0.3125766141732284
20
2.1029227952755907
11
0.3019611811023622
21
2.0928673228346457
0
LINE
8
BLACK
6
CONTINUOUS
10
0.3019611811023622
20
2.0928673228346457
11
0.292495157480315
21
2.0817230708661416
0
LINE
8
BLACK
6
CONTINUOUS
10
0.292495157480315
20
2.0817230708661416
11
0.2842895275590551
21
2.0696206692913384
0
LINE
8
BLACK
6
CONTINUOUS
10
0.2842895275590551
20
2.0696206692913384
11
0.2774405118110236
21
2.0567020472440944
0
LINE
8
BLACK
6
CONTINUOUS
10
0.2774405118110236
20
2.0567020472440944
11
0.2720283858267716
21
2.0431186614173229
0
LINE
8
BLACK
6
CONTINUOUS
10
0.2720283858267716
20
2.0431186614173229
11
0.2681166141732284
21
2.0290297244094488
0
LINE
8
BLACK
6
CONTINUOUS
10
0.2681166141732284
20
2.0290297244094488
11
0.265751062992126
21
2.014600433070866
0
LINE
8
BLACK
6
CONTINUOUS
10
0.265751062992126
20
2.014600433070866
11
0.2649594488188977
21
2.
0
LINE
8
BLACK
6
CONTINUOUS
10
0.2649594488188977
20
2.
11
0.265751062992126
21
1.9853995669291338
0
LINE
8
BLACK
6
CONTINUOUS
10
2.0143006299212596
20
2.1360615748031497
11
2.0284446062992125
21
2.1338213779527559
0
LINE
8
BLACK
6
CONTINUOUS
10
2.0284446062992125
20
2.1338213779527559
11
2.0422769291338581
21
2.130115
0
LINE
8
BLACK
6
CONTINUOUS
10
2.0422769291338581
20
2.130115
11
2.055646062992126
21
2.1249830708661417
0
LINE
8
BLACK
6
CONTINUOUS
10
2.055646062992126
20
2.1249830708661417
11
2.0684055118110236
21
2.1184818110236221
0
LINE
8
BLACK
6
CONTINUOUS
10
2.0684055118110236
20
2.1184818110236221
11
2.0804155118110237
21
2.1106824409448817
0
LINE
8
BLACK
6
CONTINUOUS
10
2.0804155118110237
20
2.1106824409448817
11
2.0915444488188975
21
2.1016703937007875
0
LINE
8
BLACK
6
CONTINUOUS
10
2.0915444488188975
20
2.1016703937007875
11
2.1016703937007875
21
2.0915444488188975
0
LINE
8
BLACK
6
CONTINUOUS
10
2.1016703937007875
20
2.0915444488188975
11
2.1106824409448817
21
2.0804155118110237
0
LINE
8
BLACK
6
CONTINUOUS
10
2.1106824409448817
20
2.0804155118110237
11
2.1184818110236221
21
2.0684055118110236
0
LINE
8
BLACK
6
CONTINUOUS
10
2.1184818110236221
20
2.0684055118110236
11
2.1249830708661417
21
2.055646062992126
0
LINE
8
BLACK
6
CONTINUOUS
10
2.1249830708661417
20
2.055646062992126
11
2.130115
21
2.0422769291338581
0
LINE
8
BLACK
6
CONTINUOUS
10
2.130115
20
2.0422769291338581
11
2.1338213779527559
21
2.0284446062992125
0
LINE
8
BLACK
6
CONTINUOUS
10
2.1338213779527559
20
2.0284446062992125
11
2.1360615748031497
21
2.0143006299212596
0
LINE
8
BLACK
6
CONTINUOUS
10
2.1360615748031497
20
2.0143006299212596
11
2.1368110236220472
21
2.
0
LINE
8
BLACK
6
CONTINUOUS
10
2.1368110236220472
20
2.
11
2.1360615748031497
21
1.9856993700787402
0
LINE
8
BLACK
6
CONTINUOUS
10
2.1360615748031497
20
1.9856993700787402
11
2.1338213779527559
21
1.9715553937007873
0
LINE
8
BLACK
6
CONTINUOUS
10
2.1338213779527559
20
1.9715553937007873
11
2.130115
21
1.9577230708661417
0
LINE
8
BLACK
6
CONTINUOUS
10
2.130115
20
1.9577230708661417
11
2.1249830708661417
21
1.944353937007874
0
LINE
8
BLACK
6
CONTINUOUS
10
2.1249830708661417
20
1.944353937007874
11
2.1184818110236221
21
1.9315944881889764
0
LINE
8
BLACK
6
CONTINUOUS
10
2.1184818110236221
20
1.9315944881889764
11
2.1106824409448817
21
1.9195844881889763
0
LINE
8
BLACK
6
CONTINUOUS
10
2.1106824409448817
20
1.9195844881889763
11
2.1016703937007875
21
1.9084555511811023
0
LINE
8
BLACK
6
CONTINUOUS
10
2.1016703937007875
20
1.9084555511811023
11
2.0915444488188975
21
1.8983296062992125
0
LINE
8
BLACK
6
CONTINUOUS
10
2.0915444488188975
20
1.8983296062992125
11
2.0804155118110237
21
1.8893175590551181
0
LINE
8
BLACK
6
CONTINUOUS
10
2.0804155118110237
20
1.8893175590551181
11
2.0684055118110236
21
1.8815181889763779
0
LINE
8
BLACK
6
CONTINUOUS
10
2.0684055118110236
20
1.8815181889763779
11
2.055646062992126
21
1.8750169291338583
0
LINE
8
BLACK
6
CONTINUOUS
10
2.055646062992126
20
1.8750169291338583
11
2.0422769291338581
21
1.869885
0
LINE
8
BLACK
6
CONTINUOUS
10
2.0422769291338581
20
1.869885
11
2.0284446062992125
21
1.8661786220472441
0
LINE
8
BLACK
6
CONTINUOUS
10
2.0284446062992125
20
1.8661786220472441
11
2.0143006299212596
21
1.8639384251968503
0
LINE
8
BLACK
6
CONTINUOUS
10
2.0143006299212596
20
1.8639384251968503
11
2.
21
1.8631889763779528
0
LINE
8
BLACK
6
CONTINUOUS
10
2.
20
1.8631889763779528
11
1.9856993700787402
21
1.8639384251968503
0
LINE
8
BLACK
6
CONTINUOUS
10
1.9856993700787402
20
1.8639384251968503
11
1.9715553937007873
21
1.8661786220472441
0
LINE
8
BLACK
6
CONTINUOUS
10
1.9715553937007873
20
1.8661786220472441
11
1.9577230708661417
21
1.869885
0
LINE
8
BLACK
6
CONTINUOUS
10
1.9577230708661417
20
1.869885
11
1.944353937007874
21
1.8750169291338583
0
LINE
8
BLACK
6
CONTINUOUS
10
1.944353937007874
20
1.8750169291338583
11
1.9315944881889764
21
1.8815181889763779
0
LINE
8
BLACK
6
CONTINUOUS
10
1.9315944881889764
20
1.8815181889763779
11
1.9195844881889763
21
1.8893175590551181
0
LINE
8
BLACK
6
CONTINUOUS
10
1.9195844881889763
20
1.8893175590551181
11
1.9084555511811023
21
1.8983296062992125
0
LINE
8
BLACK
6
CONTINUOUS
10
1.9084555511811023
20
1.8983296062992125
11
1.8983296062992125
21
1.9084555511811023
0
LINE
8
BLACK
6
CONTINUOUS
10
1.8983296062992125
20
1.9084555511811023
11
1.8893175590551181
21
1.9195844881889763
0
LINE
8
BLACK
6
CONTINUOUS
10
1.8893175590551181
20
1.9195844881889763
11
1.8815181889763779
21
1.9315944881889764
0
LINE
8
BLACK
6
CONTINUOUS
10
1.8815181889763779
20
1.9315944881889764
11
1.8750169291338583
21
1.944353937007874
0
LINE
8
BLACK
6
CONTINUOUS
10
1.8750169291338583
20
1.944353937007874
11
1.869885
21
1.9577230708661417
0
LINE
8
BLACK
6
CONTINUOUS
10
1.869885
20
1.9577230708661417
11
1.8661786220472441
21
1.9715553937007873
0
LINE
8
BLACK
6
CONTINUOUS
10
1.8661786220472441
20
1.9715553937007873
11
1.8639384251968503
21
1.9856993700787402
0
LINE
8
BLACK
6
CONTINUOUS
10
1.8639384251968503
20
1.9856993700787402
11
1.8631889763779528
21
2.
0
LINE
8
BLACK
6
CONTINUOUS
10
1.8631889763779528
20
2.
11
1.8639384251968503
21
2.0143006299212596
0
LINE
8
BLACK
6
CONTINUOUS
10
1.8639384251968503
20
2.0143006299212596
11
1.8661786220472441
21
2.0284446062992125
0
LINE
8
BLACK
6
CONTINUOUS
10
1.8661786220472441
20
2.0284446062992125
11
1.869885
21
2.0422769291338581
0
LINE
8
BLACK
6
CONTINUOUS
10
1.869885
20
2.0422769291338581
11
1.8750169291338583
21
2.055646062992126
0
LINE
8
BLACK
6
CONTINUOUS
10
1.8750169291338583
20
2.055646062992126
11
1.8815181889763779
21
2.0684055118110236
0
LINE
8
BLACK
6
CONTINUOUS
10
1.8815181889763779
20
2.0684055118110236
11
1.8893175590551181
21
2.0804155118110237
0
LINE
8
BLACK
6
CONTINUOUS
10
1.8893175590551181
20
2.0804155118110237
11
1.8983296062992125
21
2.0915444488188975
0
LINE
8
BLACK
6
CONTINUOUS
10
1.8983296062992125
20
2.0915444488188975
11
1.9084555511811023
21
2.1016703937007875
0
LINE
8
BLACK
6
CONTINUOUS
10
1.9084555511811023
20
2.1016703937007875
11
1.9195844881889763
21
2.1106824409448817
0
LINE
8
BLACK
6
CONTINUOUS
10
1.9195844881889763
20
2.1106824409448817
11
1.9315944881889764
21
2.1184818110236221
0
LINE
8
BLACK
6
CONTINUOUS
10
1.9315944881889764
20
2.1184818110236221
11
1.944353937007874
21
2.1249830708661417
0
LINE
8
BLACK
6
CONTINUOUS
10
1.944353937007874
20
2.1249830708661417
11
1.9577230708661417
21
2.130115
0
LINE
8
BLACK
6
CONTINUOUS
10
1.9577230708661417
20
2.130115
11
1.9715553937007873
21
2.1338213779527559
0
LINE
8
BLACK
6
CONTINUOUS
10
1.9715553937007873
20
2.1338213779527559
11
1.9856993700787402
21
2.1360615748031497
0
LINE
8
BLACK
6
CONTINUOUS
10
1.9856993700787402
20
2.1360615748031497
11
2.
21
2.1368110236220472
0
LINE
8
BLACK
6
CONTINUOUS
10
2.
20
2.1368110236220472
11
2.0143006299212596
21
2.1360615748031497
0
LINE
8
BLACK
6
CONTINUOUS
10
1.8657510629921259
20
1.9853995669291338
11
1.8681166141732284
21
1.9709702755905512
0
LINE
8
BLACK
6
CONTINUOUS
10
1.8681166141732284
20
1.9709702755905512
11
1.8720283858267717
21
1.9568813385826771
0
LINE
8
BLACK
6
CONTINUOUS
10
1.8720283858267717
20
1.9568813385826771
11
1.8774405118110236
21
1.9432979527559056
0
LINE
8
BLACK
6
CONTINUOUS
10
1.8774405118110236
20
1.9432979527559056
11
1.884289527559055
21
1.9303793307086614
0
LINE
8
BLACK
6
CONTINUOUS
10
1.884289527559055
20
1.9303793307086614
11
1.8924951574803148
21
1.9182769291338582
0
LINE
8
BLACK
6
CONTINUOUS
10
1.8924951574803148
20
1.9182769291338582
11
1.9019611811023622
21
1.9071326771653543
0
LINE
8
BLACK
6
CONTINUOUS
10
1.9019611811023622
20
1.9071326771653543
11
1.9125766141732283
21
1.8970772047244093
0
LINE
8
BLACK
6
CONTINUOUS
10
1.9125766141732283
20
1.8970772047244093
11
1.9242170078740157
21
1.8882284251968504
0
LINE
8
BLACK
6
CONTINUOUS
10
1.9242170078740157
20
1.8882284251968504
11
1.9367458661417323
21
1.8806900393700787
0
LINE
8
BLACK
6
CONTINUOUS
10
1.9367458661417323
20
1.8806900393700787
11
1.9500163385826772
21
1.8745504724409447
0
LINE
8
BLACK
6
CONTINUOUS
10
1.9500163385826772
20
1.8745504724409447
11
1.9638728346456693
21
1.8698816929133857
0
LINE
8
BLACK
6
CONTINUOUS
10
1.9638728346456693
20
1.8698816929133857
11
1.9781528740157479
21
1.8667383858267717
0
LINE
8
BLACK
6
CONTINUOUS
10
1.9781528740157479
20
1.8667383858267717
11
1.9926890551181102
21
1.8651574803149606
0
LINE
8
BLACK
6
CONTINUOUS
10
1.9926890551181102
20
1.8651574803149606
11
2.0073109448818895
21
1.8651574803149606
0
LINE
8
BLACK
6
CONTINUOUS
10
2.0073109448818895
20
1.8651574803149606
11
2.0218471259842521
21
1.8667383858267717
0
LINE
8
BLACK
6
CONTINUOUS
10
2.0218471259842521
20
1.8667383858267717
11
2.0361271653543307
21
1.8698816929133857
0
LINE
8
BLACK
6
CONTINUOUS
10
2.0361271653543307
20
1.8698816929133857
11
2.0499836614173228
21
1.8745504724409447
0
LINE
8
BLACK
6
CONTINUOUS
10
2.0499836614173228
20
1.8745504724409447
11
2.0632541338582677
21
1.8806900393700787
0
LINE
8
BLACK
6
CONTINUOUS
10
2.0632541338582677
20
1.8806900393700787
11
2.0757829921259843
21
1.8882284251968504
0
LINE
8
BLACK
6
CONTINUOUS
10
2.0757829921259843
20
1.8882284251968504
11
2.0874233858267717
21
1.8970772047244093
0
LINE
8
BLACK
6
CONTINUOUS
10
2.0874233858267717
20
1.8970772047244093
11
2.0980388188976375
21
1.9071326771653543
0
LINE
8
BLACK
6
CONTINUOUS
10
2.0980388188976375
20
1.9071326771653543
11
2.1075048425196852
21
1.9182769291338582
0
LINE
8
BLACK
6
CONTINUOUS
10
2.1075048425196852
20
1.9182769291338582
11
2.115710472440945
21
1.9303793307086614
0
LINE
8
BLACK
6
CONTINUOUS
10
2.115710472440945
20
1.9303793307086614
11
2.1225594881889762
21
1.9432979527559056
0
LINE
8
BLACK
6
CONTINUOUS
10
2.1225594881889762
20
1.9432979527559056
11
2.1279716141732283
21
1.9568813385826771
0
LINE
8
BLACK
6
CONTINUOUS
10
2.1279716141732283
20
1.9568813385826771
11
2.1318833858267716
21
1.9709702755905512
0
LINE
8
BLACK
6
CONTINUOUS
10
2.1318833858267716
20
1.9709702755905512
11
2.1342489370078739
21
1.9853995669291338
0
LINE
8
BLACK
6
CONTINUOUS
10
2.1342489370078739
20
1.9853995669291338
11
2.1350405511811021
21
2.
0
LINE
8
BLACK
6
CONTINUOUS
10
2.1350405511811021
20
2.
11
2.1342489370078739
21
2.014600433070866
0
LINE
8
BLACK
6
CONTINUOUS
10
2.1342489370078739
20
2.014600433070866
11
2.1318833858267716
21
2.0290297244094488
0
LINE
8
BLACK
6
CONTINUOUS
10
2.1318833858267716
20
2.0290297244094488
11
2.1279716141732283
21
2.0431186614173229
0
LINE
8
BLACK
6
CONTINUOUS
10
2.1279716141732283
20
2.0431186614173229
11
2.1225594881889762
21
2.0567020472440944
0
LINE
8
BLACK
6
CONTINUOUS
10
2.1225594881889762
20
2.0567020472440944
11
2.115710472440945
21
2.0696206692913384
0
LINE
8
BLACK
6
CONTINUOUS
10
2.115710472440945
20
2.0696206692913384
11
2.1075048425196852
21
2.0817230708661416
0
LINE
8
BLACK
6
CONTINUOUS
10
2.1075048425196852
20
2.0817230708661416
11
2.0980388188976375
21
2.0928673228346457
0
LINE
8
BLACK
6
CONTINUOUS
10
2.0980388188976375
20
2.0928673228346457
11
2.0874233858267717
21
2.1029227952755907
0
LINE
8
BLACK
6
CONTINUOUS
10
2.0874233858267717
20
2.1029227952755907
11
2.0757829921259843
21
2.1117715748031496
0
LINE
8
BLACK
6
CONTINUOUS
10
2.0757829921259843
20
2.1117715748031496
11
2.0632541338582677
21
2.1193099606299213
0
LINE
8
BLACK
6
CONTINUOUS
10
2.0632541338582677
20
2.1193099606299213
11
2.0499836614173228
21
2.1254495275590553
0
LINE
8
BLACK
6
CONTINUOUS
10
2.0499836614173228
20
2.1254495275590553
11
2.0361271653543307
21
2.1301183070866143
0
LINE
8
BLACK
6
CONTINUOUS
10
2.0361271653543307
20
2.1301183070866143
11
2.0218471259842521
21
2.1332616141732283
0
LINE
8
BLACK
6
CONTINUOUS
10
2.0218471259842521
20
2.1332616141732283
11
2.0073109448818895
21
2.1348425196850394
0
LINE
8
BLACK
6
CONTINUOUS
10
2.0073109448818895
20
2.1348425196850394
11
1.9926890551181102
21
2.1348425196850394
0
LINE
8
BLACK
6
CONTINUOUS
10
1.9926890551181102
20
2.1348425196850394
11
1.9781528740157479
21
2.1332616141732283
0
LINE
8
BLACK
6
CONTINUOUS
10
1.9781528740157479
20
2.1332616141732283
11
1.9638728346456693
21
2.1301183070866143
0
LINE
8
BLACK
6
CONTINUOUS
10
1.9638728346456693
20
2.1301183070866143
11
1.9500163385826772
21
2.1254495275590553
0
LINE
8
BLACK
6
CONTINUOUS
10
1.9500163385826772
20
2.1254495275590553
11
1.9367458661417323
21
2.1193099606299213
0
LINE
8
BLACK
6
CONTINUOUS
10
1.9367458661417323
20
2.1193099606299213
11
1.9242170078740157
21
2.1117715748031496
0
LINE
8
BLACK
6
CONTINUOUS
10
1.9242170078740157
20
2.1117715748031496
11
1.9125766141732283
21
2.1029227952755907
0
LINE
8
BLACK
6
CONTINUOUS
10
1.9125766141732283
20
2.1029227952755907
11
1.9019611811023622
21
2.0928673228346457
0
LINE
8
BLACK
6
CONTINUOUS
10
1.9019611811023622
20
2.0928673228346457
11
1.8924951574803148
21
2.0817230708661416
0
LINE
8
BLACK
6
CONTINUOUS
10
1.8924951574803148
20
2.0817230708661416
11
1.884289527559055
21
2.0696206692913384
0
LINE
8
BLACK
6
CONTINUOUS
10
1.884289527559055
20
2.0696206692913384
11
1.8774405118110236
21
2.0567020472440944
0
LINE
8
BLACK
6
CONTINUOUS
10
1.8774405118110236
20
2.0567020472440944
11
1.8720283858267717
21
2.0431186614173229
0
LINE
8
BLACK
6
CONTINUOUS
10
1.8720283858267717
20
2.0431186614173229
11
1.8681166141732284
21
2.0290297244094488
0
LINE
8
BLACK
6
CONTINUOUS
10
1.8681166141732284
20
2.0290297244094488
11
1.8657510629921259
21
2.014600433070866
0
LINE
8
BLACK
6
CONTINUOUS
10
1.8657510629921259
20
2.014600433070866
11
1.8649594488188976
21
2.
0
LINE
8
BLACK
6
CONTINUOUS
10
1.8649594488188976
20
2.
11
1.8657510629921259
21
1.9853995669291338
  0
ENDSEC
  0
EOF
