  0
SECTION
  2
HEADER
  9
$ANGBASE
  50
0.0
  9
$ANGDIR
  70
1
  9
$MEASUREMENT
  70
0
  0
ENDSEC
  0
SECTION
  2
TABLES
  0
TABLE
  2
LTYPE
  70
4
  0
LTYPE
  5
40F
  2
CONTINUOUS
  70
0
  3
Solid line
  72
65
  73
0
  40
0.0
  0
LTYPE
  5
410
  2
DASHDOT
 70
0
  3
Dash Dot ____ _ ____ _
 72
65
 73
4
 40
2.0
 49
1.25
 49
-0.25
 49
0.25
 49
-0.25
  0
LTYPE
  5
411
  2
DASHED
 70
0
  3
Dashed __ __ __ __ __
 72
65
 73
2
 40
0.75
 49
0.5
 49
-0.25
  0
LTYPE
  5
43B
  2
DOTTED
 70
0
  3
Dotted .  .  .  .
 72
65
 73
2
 40
0.2
 49
0.0
 49
-0.2
  0
ENDTAB
  0
TABLE
  2
STYLE
  70
4
  0
STYLE
  2
KICAD
  70
0
  40
0
  41
1
  42
1
  50
0
  71
0
  3
isocp.shx
  0
STYLE
  2
KICADB
  70
0
  40
0
  41
1
  42
1
  50
0
  71
0
  3
isocp.shx
  0
STYLE
  2
KICADI
  70
0
  40
0
  41
1
  42
1
  50
15
  71
0
  3
isocp.shx
  0
STYLE
  2
KICADBI
  70
0
  40
0
  41
1
  42
1
  50
15
  71
0
  3
isocp.shx
  0
ENDTAB
  0
TABLE
  2
LAYER
  70
1
  0
LAYER
  2
BLACK
  70
0
  62
7
  6
CONTINUOUS
  0
ENDTAB
  0
ENDSEC
  0
SECTION
  2
ENTITIES
0
LINE
8
BLACK
6
CONTINUOUS
10
2.1903835039370079
20
2.192885157480315
11
2.190512755905512
21
2.1929079133858269
0
LINE
8
BLACK
6
CONTINUOUS
10
2.190512755905512
20
2.1929079133858269
11
2.190626338582677
21
2.1928423228346454
0
LINE
8
BLACK
6
CONTINUOUS
10
2.190626338582677
20
2.1928423228346454
11
2.1910099212598424
21
2.1927746850393701
0
LINE
8
BLACK
6
CONTINUOUS
10
2.1910099212598424
20
2.1927746850393701
11
2.1915975984251967
21
2.1922815748031494
0
LINE
8
BLACK
6
CONTINUOUS
10
2.1915975984251967
20
2.1922815748031494
11
2.1922619291338581
21
2.191897992125984
0
LINE
8
BLACK
6
CONTINUOUS
10
2.1922619291338581
20
2.191897992125984
11
2.1923530314960629
21
2.1916476771653541
0
LINE
8
BLACK
6
CONTINUOUS
10
2.1923530314960629
20
2.1916476771653541
11
2.1925571653543305
21
2.191476377952756
0
LINE
8
BLACK
6
CONTINUOUS
10
2.1925571653543305
20
2.191476377952756
11
2.1926903937007873
21
2.1907208267716536
0
LINE
8
BLACK
6
CONTINUOUS
10
2.1926903937007873
20
2.1907208267716536
11
2.192952755905512
21
2.1899999999999999
0
LINE
8
BLACK
6
CONTINUOUS
10
2.192952755905512
20
2.1899999999999999
11
2.192952755905512
21
0.2100000393700787
0
LINE
8
BLACK
6
CONTINUOUS
10
2.192952755905512
20
0.2100000393700787
11
2.1928851181102362
21
0.2096165354330708
0
LINE
8
BLACK
6
CONTINUOUS
10
2.1928851181102362
20
0.2096165354330708
11
2.1929079133858269
21
0.2094872834645669
0
LINE
8
BLACK
6
CONTINUOUS
10
2.1929079133858269
20
0.2094872834645669
11
2.1928422834645667
21
0.2093737007874016
0
LINE
8
BLACK
6
CONTINUOUS
10
2.1928422834645667
20
0.2093737007874016
11
2.1927746850393701
21
0.2089901181102362
0
LINE
8
BLACK
6
CONTINUOUS
10
2.1927746850393701
20
0.2089901181102362
11
2.1922815354330707
21
0.2084024409448819
0
LINE
8
BLACK
6
CONTINUOUS
10
2.1922815354330707
20
0.2084024409448819
11
2.191897992125984
21
0.2077381102362205
0
LINE
8
BLACK
6
CONTINUOUS
10
2.191897992125984
20
0.2077381102362205
11
2.1916476377952754
21
0.2076470078740157
0
LINE
8
BLACK
6
CONTINUOUS
10
2.1916476377952754
20
0.2076470078740157
11
2.191476377952756
21
0.207442874015748
0
LINE
8
BLACK
6
CONTINUOUS
10
2.191476377952756
20
0.207442874015748
11
2.1907207874015748
21
0.2073096456692913
0
LINE
8
BLACK
6
CONTINUOUS
10
2.1907207874015748
20
0.2073096456692913
11
2.1899999999999999
21
0.2070472834645669
0
LINE
8
BLACK
6
CONTINUOUS
10
2.1899999999999999
20
0.2070472834645669
11
0.21
21
0.2070472834645669
0
LINE
8
BLACK
6
CONTINUOUS
10
0.21
20
0.2070472834645669
11
0.2096164566929134
21
0.2071149212598425
0
LINE
8
BLACK
6
CONTINUOUS
10
0.2096164566929134
20
0.2071149212598425
11
0.2094872440944882
21
0.207092125984252
0
LINE
8
BLACK
6
CONTINUOUS
10
0.2094872440944882
20
0.207092125984252
11
0.2093736220472441
21
0.2071577559055118
0
LINE
8
BLACK
6
CONTINUOUS
10
0.2093736220472441
20
0.2071577559055118
11
0.2089900787401575
21
0.2072253543307087
0
LINE
8
BLACK
6
CONTINUOUS
10
0.2089900787401575
20
0.2072253543307087
11
0.2084023622047244
21
0.2077185039370079
0
LINE
8
BLACK
6
CONTINUOUS
10
0.2084023622047244
20
0.2077185039370079
11
0.2077380708661417
21
0.2081020472440945
0
LINE
8
BLACK
6
CONTINUOUS
10
0.2077380708661417
20
0.2081020472440945
11
0.2076469291338583
21
0.2083524015748031
0
LINE
8
BLACK
6
CONTINUOUS
10
0.2076469291338583
20
0.2083524015748031
11
0.2074428346456693
21
0.2085236614173228
0
LINE
8
BLACK
6
CONTINUOUS
10
0.2074428346456693
20
0.2085236614173228
11
0.2073095669291339
21
0.2092792519685039
0
LINE
8
BLACK
6
CONTINUOUS
10
0.2073095669291339
20
0.2092792519685039
11
0.2070472440944882
21
0.2100000393700787
0
LINE
8
BLACK
6
CONTINUOUS
10
0.2070472440944882
20
0.2100000393700787
11
0.2070472440944882
21
2.1899999999999999
0
LINE
8
BLACK
6
CONTINUOUS
10
0.2070472440944882
20
2.1899999999999999
11
0.207114842519685
21
2.1903835433070866
0
LINE
8
BLACK
6
CONTINUOUS
10
0.207114842519685
20
2.1903835433070866
11
0.2070920866141732
21
2.190512755905512
0
LINE
8
BLACK
6
CONTINUOUS
10
0.2070920866141732
20
2.190512755905512
11
0.2071576771653543
21
2.1906263779527557
0
LINE
8
BLACK
6
CONTINUOUS
10
0.2071576771653543
20
2.1906263779527557
11
0.2072253149606299
21
2.1910099212598424
0
LINE
8
BLACK
6
CONTINUOUS
10
0.2072253149606299
20
2.1910099212598424
11
0.2077184251968504
21
2.1915976377952755
0
LINE
8
BLACK
6
CONTINUOUS
10
0.2077184251968504
20
2.1915976377952755
11
0.2081020078740158
21
2.1922619291338581
0
LINE
8
BLACK
6
CONTINUOUS
10
0.2081020078740158
20
2.1922619291338581
11
0.2083523228346457
21
2.1923530708661416
0
LINE
8
BLACK
6
CONTINUOUS
10
0.2083523228346457
20
2.1923530708661416
11
0.2085236220472441
21
2.1925571653543305
0
LINE
8
BLACK
6
CONTINUOUS
10
0.2085236220472441
20
2.1925571653543305
11
0.2092791732283465
21
2.1926904330708661
0
LINE
8
BLACK
6
CONTINUOUS
10
0.2092791732283465
20
2.1926904330708661
11
0.21
21
2.192952755905512
0
LINE
8
BLACK
6
CONTINUOUS
10
0.21
20
2.192952755905512
11
2.1899999999999999
21
2.192952755905512
0
LINE
8
BLACK
6
CONTINUOUS
10
2.1899999999999999
20
2.192952755905512
11
2.1903835039370079
21
2.192885157480315
0
LINE
8
BLACK
6
CONTINUOUS
10
0.2129527559055118
20
2.1870472440944879
11
0.2129527559055118
21
0.2129527952755906
0
LINE
8
BLACK
6
CONTINUOUS
10
0.2129527559055118
20
0.2129527952755906
11
2.1870472440944879
21
0.2129527952755906
0
LINE
8
BLACK
6
CONTINUOUS
10
2.1870472440944879
20
0.2129527952755906
11
2.1870472440944879
21
2.1870472440944879
0
LINE
8
BLACK
6
CONTINUOUS
10
2.1870472440944879
20
2.1870472440944879
11
0.2129527559055118
21
2.1870472440944879
  0
ENDSEC
  0
EOF
