  0
SECTION
  2
HEADER
  9
$ANGBASE
  50
0.0
  9
$ANGDIR
  70
1
  9
$MEASUREMENT
  70
0
  0
ENDSEC
  0
SECTION
  2
TABLES
  0
TABLE
  2
LTYPE
  70
4
  0
LTYPE
  5
40F
  2
CONTINUOUS
  70
0
  3
Solid line
  72
65
  73
0
  40
0.0
  0
LTYPE
  5
410
  2
DASHDOT
 70
0
  3
Dash Dot ____ _ ____ _
 72
65
 73
4
 40
2.0
 49
1.25
 49
-0.25
 49
0.25
 49
-0.25
  0
LTYPE
  5
411
  2
DASHED
 70
0
  3
Dashed __ __ __ __ __
 72
65
 73
2
 40
0.75
 49
0.5
 49
-0.25
  0
LTYPE
  5
43B
  2
DOTTED
 70
0
  3
Dotted .  .  .  .
 72
65
 73
2
 40
0.2
 49
0.0
 49
-0.2
  0
ENDTAB
  0
TABLE
  2
STYLE
  70
4
  0
STYLE
  2
KICAD
  70
0
  40
0
  41
1
  42
1
  50
0
  71
0
  3
isocp.shx
  0
STYLE
  2
KICADB
  70
0
  40
0
  41
1
  42
1
  50
0
  71
0
  3
isocp.shx
  0
STYLE
  2
KICADI
  70
0
  40
0
  41
1
  42
1
  50
15
  71
0
  3
isocp.shx
  0
STYLE
  2
KICADBI
  70
0
  40
0
  41
1
  42
1
  50
15
  71
0
  3
isocp.shx
  0
ENDTAB
  0
TABLE
  2
LAYER
  70
1
  0
LAYER
  2
BLACK
  70
0
  62
7
  6
CONTINUOUS
  0
ENDTAB
  0
ENDSEC
  0
SECTION
  2
ENTITIES
0
LINE
8
BLACK
6
CONTINUOUS
10
1.2027457086614173
20
0.5347749212598425
11
1.2028749606299212
21
0.5347976771653543
0
LINE
8
BLACK
6
CONTINUOUS
10
1.2028749606299212
20
0.5347976771653543
11
1.2029885433070866
21
0.5347320866141733
0
LINE
8
BLACK
6
CONTINUOUS
10
1.2029885433070866
20
0.5347320866141733
11
1.203372125984252
21
0.5346644488188976
0
LINE
8
BLACK
6
CONTINUOUS
10
1.203372125984252
20
0.5346644488188976
11
1.2039598031496064
21
0.5341713385826772
0
LINE
8
BLACK
6
CONTINUOUS
10
1.2039598031496064
20
0.5341713385826772
11
1.2046241338582677
21
0.5337877559055118
0
LINE
8
BLACK
6
CONTINUOUS
10
1.2046241338582677
20
0.5337877559055118
11
1.2047152362204725
21
0.5335374409448819
0
LINE
8
BLACK
6
CONTINUOUS
10
1.2047152362204725
20
0.5335374409448819
11
1.2049193700787402
21
0.5333661417322835
0
LINE
8
BLACK
6
CONTINUOUS
10
1.2049193700787402
20
0.5333661417322835
11
1.2050525984251967
21
0.5326105905511811
0
LINE
8
BLACK
6
CONTINUOUS
10
1.2050525984251967
20
0.5326105905511811
11
1.2053149606299212
21
0.5318897637795276
0
LINE
8
BLACK
6
CONTINUOUS
10
1.2053149606299212
20
0.5318897637795276
11
1.2053149606299212
21
0.2318897637795276
0
LINE
8
BLACK
6
CONTINUOUS
10
1.2053149606299212
20
0.2318897637795276
11
1.2052473228346456
21
0.2315062598425197
0
LINE
8
BLACK
6
CONTINUOUS
10
1.2052473228346456
20
0.2315062598425197
11
1.2052701181102361
21
0.2313770078740157
0
LINE
8
BLACK
6
CONTINUOUS
10
1.2052701181102361
20
0.2313770078740157
11
1.2052044881889763
21
0.2312634251968504
0
LINE
8
BLACK
6
CONTINUOUS
10
1.2052044881889763
20
0.2312634251968504
11
1.2051368897637795
21
0.230879842519685
0
LINE
8
BLACK
6
CONTINUOUS
10
1.2051368897637795
20
0.230879842519685
11
1.2046437401574803
21
0.2302921653543307
0
LINE
8
BLACK
6
CONTINUOUS
10
1.2046437401574803
20
0.2302921653543307
11
1.2042601968503936
21
0.2296278346456693
0
LINE
8
BLACK
6
CONTINUOUS
10
1.2042601968503936
20
0.2296278346456693
11
1.204009842519685
21
0.2295367322834646
0
LINE
8
BLACK
6
CONTINUOUS
10
1.204009842519685
20
0.2295367322834646
11
1.2038385826771654
21
0.2293325984251968
0
LINE
8
BLACK
6
CONTINUOUS
10
1.2038385826771654
20
0.2293325984251968
11
1.2030829921259842
21
0.2291993700787401
0
LINE
8
BLACK
6
CONTINUOUS
10
1.2030829921259842
20
0.2291993700787401
11
1.2023622047244094
21
0.2289370078740157
0
LINE
8
BLACK
6
CONTINUOUS
10
1.2023622047244094
20
0.2289370078740157
11
1.0023622047244094
21
0.2289370078740157
0
LINE
8
BLACK
6
CONTINUOUS
10
1.0023622047244094
20
0.2289370078740157
11
1.0019786614173227
21
0.2290046456692913
0
LINE
8
BLACK
6
CONTINUOUS
10
1.0019786614173227
20
0.2290046456692913
11
1.0018494488188976
21
0.2289818503937008
0
LINE
8
BLACK
6
CONTINUOUS
10
1.0018494488188976
20
0.2289818503937008
11
1.0017358267716536
21
0.2290474803149606
0
LINE
8
BLACK
6
CONTINUOUS
10
1.0017358267716536
20
0.2290474803149606
11
1.001352283464567
21
0.2291150787401575
0
LINE
8
BLACK
6
CONTINUOUS
10
1.001352283464567
20
0.2291150787401575
11
1.0007645669291338
21
0.2296082283464567
0
LINE
8
BLACK
6
CONTINUOUS
10
1.0007645669291338
20
0.2296082283464567
11
1.0001002755905513
21
0.2299917716535433
0
LINE
8
BLACK
6
CONTINUOUS
10
1.0001002755905513
20
0.2299917716535433
11
1.0000091338582677
21
0.2302421259842519
0
LINE
8
BLACK
6
CONTINUOUS
10
1.0000091338582677
20
0.2302421259842519
11
0.9998050393700787
21
0.2304133858267716
0
LINE
8
BLACK
6
CONTINUOUS
10
0.9998050393700787
20
0.2304133858267716
11
0.9996717716535433
21
0.2311689763779528
0
LINE
8
BLACK
6
CONTINUOUS
10
0.9996717716535433
20
0.2311689763779528
11
0.9994094488188976
21
0.2318897637795276
0
LINE
8
BLACK
6
CONTINUOUS
10
0.9994094488188976
20
0.2318897637795276
11
0.9994094488188976
21
0.5318897637795276
0
LINE
8
BLACK
6
CONTINUOUS
10
0.9994094488188976
20
0.5318897637795276
11
0.9994770472440945
21
0.5322733070866141
0
LINE
8
BLACK
6
CONTINUOUS
10
0.9994770472440945
20
0.5322733070866141
11
0.9994542913385827
21
0.5324025196850394
0
LINE
8
BLACK
6
CONTINUOUS
10
0.9994542913385827
20
0.5324025196850394
11
0.9995198818897637
21
0.5325161417322835
0
LINE
8
BLACK
6
CONTINUOUS
10
0.9995198818897637
20
0.5325161417322835
11
0.9995875196850393
21
0.53289968503937
0
LINE
8
BLACK
6
CONTINUOUS
10
0.9995875196850393
20
0.53289968503937
11
1.0000806299212599
21
0.5334874015748031
0
LINE
8
BLACK
6
CONTINUOUS
10
1.0000806299212599
20
0.5334874015748031
11
1.0004642125984251
21
0.5341516929133858
0
LINE
8
BLACK
6
CONTINUOUS
10
1.0004642125984251
20
0.5341516929133858
11
1.000714527559055
21
0.5342428346456692
0
LINE
8
BLACK
6
CONTINUOUS
10
1.000714527559055
20
0.5342428346456692
11
1.0008858267716536
21
0.5344469291338583
0
LINE
8
BLACK
6
CONTINUOUS
10
1.0008858267716536
20
0.5344469291338583
11
1.001641377952756
21
0.5345801968503937
0
LINE
8
BLACK
6
CONTINUOUS
10
1.001641377952756
20
0.5345801968503937
11
1.0023622047244094
21
0.5348425196850394
0
LINE
8
BLACK
6
CONTINUOUS
10
1.0023622047244094
20
0.5348425196850394
11
1.2023622047244094
21
0.5348425196850394
0
LINE
8
BLACK
6
CONTINUOUS
10
1.2023622047244094
20
0.5348425196850394
11
1.2027457086614173
21
0.5347749212598425
0
LINE
8
BLACK
6
CONTINUOUS
10
1.0053149606299212
20
0.5289370078740158
11
1.0053149606299212
21
0.2348425196850394
0
LINE
8
BLACK
6
CONTINUOUS
10
1.0053149606299212
20
0.2348425196850394
11
1.1994094488188976
21
0.2348425196850394
0
LINE
8
BLACK
6
CONTINUOUS
10
1.1994094488188976
20
0.2348425196850394
11
1.1994094488188976
21
0.5289370078740158
0
LINE
8
BLACK
6
CONTINUOUS
10
1.1994094488188976
20
0.5289370078740158
11
1.0053149606299212
21
0.5289370078740158
0
LINE
8
BLACK
6
CONTINUOUS
10
1.7027457086614173
20
0.5387119291338582
11
1.7028749606299212
21
0.5387346850393701
0
LINE
8
BLACK
6
CONTINUOUS
10
1.7028749606299212
20
0.5387346850393701
11
1.7029885433070866
21
0.538669094488189
0
LINE
8
BLACK
6
CONTINUOUS
10
1.7029885433070866
20
0.538669094488189
11
1.703372125984252
21
0.5386014566929134
0
LINE
8
BLACK
6
CONTINUOUS
10
1.703372125984252
20
0.5386014566929134
11
1.7039598031496062
21
0.5381083464566929
0
LINE
8
BLACK
6
CONTINUOUS
10
1.7039598031496062
20
0.5381083464566929
11
1.7046241338582677
21
0.5377247637795275
0
LINE
8
BLACK
6
CONTINUOUS
10
1.7046241338582677
20
0.5377247637795275
11
1.7047152362204725
21
0.5374744488188976
0
LINE
8
BLACK
6
CONTINUOUS
10
1.7047152362204725
20
0.5374744488188976
11
1.7049193700787402
21
0.5373031496062992
0
LINE
8
BLACK
6
CONTINUOUS
10
1.7049193700787402
20
0.5373031496062992
11
1.7050525984251967
21
0.5365475984251968
0
LINE
8
BLACK
6
CONTINUOUS
10
1.7050525984251967
20
0.5365475984251968
11
1.7053149606299212
21
0.5358267716535433
0
LINE
8
BLACK
6
CONTINUOUS
10
1.7053149606299212
20
0.5358267716535433
11
1.7053149606299212
21
0.2358267716535433
0
LINE
8
BLACK
6
CONTINUOUS
10
1.7053149606299212
20
0.2358267716535433
11
1.7052473228346456
21
0.2354432677165354
0
LINE
8
BLACK
6
CONTINUOUS
10
1.7052473228346456
20
0.2354432677165354
11
1.7052701181102361
21
0.2353140157480315
0
LINE
8
BLACK
6
CONTINUOUS
10
1.7052701181102361
20
0.2353140157480315
11
1.7052044881889763
21
0.2352004330708661
0
LINE
8
BLACK
6
CONTINUOUS
10
1.7052044881889763
20
0.2352004330708661
11
1.7051368897637795
21
0.2348168503937008
0
LINE
8
BLACK
6
CONTINUOUS
10
1.7051368897637795
20
0.2348168503937008
11
1.7046437401574803
21
0.2342291732283464
0
LINE
8
BLACK
6
CONTINUOUS
10
1.7046437401574803
20
0.2342291732283464
11
1.7042601968503936
21
0.233564842519685
0
LINE
8
BLACK
6
CONTINUOUS
10
1.7042601968503936
20
0.233564842519685
11
1.704009842519685
21
0.2334737401574803
0
LINE
8
BLACK
6
CONTINUOUS
10
1.704009842519685
20
0.2334737401574803
11
1.7038385826771654
21
0.2332696062992126
0
LINE
8
BLACK
6
CONTINUOUS
10
1.7038385826771654
20
0.2332696062992126
11
1.7030829921259842
21
0.2331363779527559
0
LINE
8
BLACK
6
CONTINUOUS
10
1.7030829921259842
20
0.2331363779527559
11
1.7023622047244094
21
0.2328740157480315
0
LINE
8
BLACK
6
CONTINUOUS
10
1.7023622047244094
20
0.2328740157480315
11
1.5023622047244094
21
0.2328740157480315
0
LINE
8
BLACK
6
CONTINUOUS
10
1.5023622047244094
20
0.2328740157480315
11
1.5019786614173227
21
0.2329416535433071
0
LINE
8
BLACK
6
CONTINUOUS
10
1.5019786614173227
20
0.2329416535433071
11
1.5018494488188976
21
0.2329188582677165
0
LINE
8
BLACK
6
CONTINUOUS
10
1.5018494488188976
20
0.2329188582677165
11
1.5017358267716534
21
0.2329844881889764
0
LINE
8
BLACK
6
CONTINUOUS
10
1.5017358267716534
20
0.2329844881889764
11
1.501352283464567
21
0.2330520866141732
0
LINE
8
BLACK
6
CONTINUOUS
10
1.501352283464567
20
0.2330520866141732
11
1.5007645669291338
21
0.2335452362204724
0
LINE
8
BLACK
6
CONTINUOUS
10
1.5007645669291338
20
0.2335452362204724
11
1.5001002755905513
21
0.2339287795275591
0
LINE
8
BLACK
6
CONTINUOUS
10
1.5001002755905513
20
0.2339287795275591
11
1.5000091338582677
21
0.2341791338582677
0
LINE
8
BLACK
6
CONTINUOUS
10
1.5000091338582677
20
0.2341791338582677
11
1.4998050393700788
21
0.2343503937007874
0
LINE
8
BLACK
6
CONTINUOUS
10
1.4998050393700788
20
0.2343503937007874
11
1.4996717716535433
21
0.2351059842519685
0
LINE
8
BLACK
6
CONTINUOUS
10
1.4996717716535433
20
0.2351059842519685
11
1.4994094488188976
21
0.2358267716535433
0
LINE
8
BLACK
6
CONTINUOUS
10
1.4994094488188976
20
0.2358267716535433
11
1.4994094488188976
21
0.5358267716535433
0
LINE
8
BLACK
6
CONTINUOUS
10
1.4994094488188976
20
0.5358267716535433
11
1.4994770472440944
21
0.5362103149606299
0
LINE
8
BLACK
6
CONTINUOUS
10
1.4994770472440944
20
0.5362103149606299
11
1.4994542913385827
21
0.5363395275590551
0
LINE
8
BLACK
6
CONTINUOUS
10
1.4994542913385827
20
0.5363395275590551
11
1.4995198818897637
21
0.5364531496062992
0
LINE
8
BLACK
6
CONTINUOUS
10
1.4995198818897637
20
0.5364531496062992
11
1.4995875196850392
21
0.5368366929133858
0
LINE
8
BLACK
6
CONTINUOUS
10
1.4995875196850392
20
0.5368366929133858
11
1.5000806299212599
21
0.5374244094488189
0
LINE
8
BLACK
6
CONTINUOUS
10
1.5000806299212599
20
0.5374244094488189
11
1.5004642125984251
21
0.5380887007874016
0
LINE
8
BLACK
6
CONTINUOUS
10
1.5004642125984251
20
0.5380887007874016
11
1.500714527559055
21
0.538179842519685
0
LINE
8
BLACK
6
CONTINUOUS
10
1.500714527559055
20
0.538179842519685
11
1.5008858267716536
21
0.538383937007874
0
LINE
8
BLACK
6
CONTINUOUS
10
1.5008858267716536
20
0.538383937007874
11
1.5016413779527558
21
0.5385172047244094
0
LINE
8
BLACK
6
CONTINUOUS
10
1.5016413779527558
20
0.5385172047244094
11
1.5023622047244094
21
0.5387795275590551
0
LINE
8
BLACK
6
CONTINUOUS
10
1.5023622047244094
20
0.5387795275590551
11
1.7023622047244094
21
0.5387795275590551
0
LINE
8
BLACK
6
CONTINUOUS
10
1.7023622047244094
20
0.5387795275590551
11
1.7027457086614173
21
0.5387119291338582
0
LINE
8
BLACK
6
CONTINUOUS
10
1.5053149606299212
20
0.5328740157480315
11
1.5053149606299212
21
0.2387795275590551
0
LINE
8
BLACK
6
CONTINUOUS
10
1.5053149606299212
20
0.2387795275590551
11
1.6994094488188976
21
0.2387795275590551
0
LINE
8
BLACK
6
CONTINUOUS
10
1.6994094488188976
20
0.2387795275590551
11
1.6994094488188976
21
0.5328740157480315
0
LINE
8
BLACK
6
CONTINUOUS
10
1.6994094488188976
20
0.5328740157480315
11
1.5053149606299212
21
0.5328740157480315
0
LINE
8
BLACK
6
CONTINUOUS
10
0.4323083070866142
20
0.4243394881889764
11
0.4324438188976378
21
0.4243604724409449
0
LINE
8
BLACK
6
CONTINUOUS
10
0.4324438188976378
20
0.4243604724409449
11
0.4325484645669291
21
0.424297125984252
0
LINE
8
BLACK
6
CONTINUOUS
10
0.4325484645669291
20
0.424297125984252
11
0.432880905511811
21
0.4242385039370078
0
LINE
8
BLACK
6
CONTINUOUS
10
0.432880905511811
20
0.4242385039370078
11
0.4334906692913386
21
0.4237268503937008
0
LINE
8
BLACK
6
CONTINUOUS
10
0.4334906692913386
20
0.4237268503937008
11
0.4341717322834646
21
0.4233146062992126
0
LINE
8
BLACK
6
CONTINUOUS
10
0.4341717322834646
20
0.4233146062992126
11
0.4342476771653543
21
0.4230916141732283
0
LINE
8
BLACK
6
CONTINUOUS
10
0.4342476771653543
20
0.4230916141732283
11
0.4344281496062992
21
0.4229401968503937
0
LINE
8
BLACK
6
CONTINUOUS
10
0.4344281496062992
20
0.4229401968503937
11
0.4345663779527559
21
0.4221562598425197
0
LINE
8
BLACK
6
CONTINUOUS
10
0.4345663779527559
20
0.4221562598425197
11
0.4348231102362204
21
0.421402716535433
0
LINE
8
BLACK
6
CONTINUOUS
10
0.4348231102362204
20
0.421402716535433
11
0.4347379527559055
21
0.4211831102362205
0
LINE
8
BLACK
6
CONTINUOUS
10
0.4347379527559055
20
0.4211831102362205
11
0.4347788976377953
21
0.420951062992126
0
LINE
8
BLACK
6
CONTINUOUS
10
0.4347788976377953
20
0.420951062992126
11
0.4343807874015748
21
0.4202616141732283
0
LINE
8
BLACK
6
CONTINUOUS
10
0.4343807874015748
20
0.4202616141732283
11
0.4340931496062992
21
0.4195194094488189
0
LINE
8
BLACK
6
CONTINUOUS
10
0.4340931496062992
20
0.4195194094488189
11
0.4251368110236221
21
0.4092836220472441
0
LINE
8
BLACK
6
CONTINUOUS
10
0.4251368110236221
20
0.4092836220472441
11
0.4253818503937008
21
0.4092403937007874
0
LINE
8
BLACK
6
CONTINUOUS
10
0.4253818503937008
20
0.4092403937007874
11
0.4255170866141732
21
0.4091269291338583
0
LINE
8
BLACK
6
CONTINUOUS
10
0.4255170866141732
20
0.4091269291338583
11
0.4256924409448819
21
0.4091067322834646
0
LINE
8
BLACK
6
CONTINUOUS
10
0.4256924409448819
20
0.4091067322834646
11
0.429441968503937
21
0.407231968503937
0
LINE
8
BLACK
6
CONTINUOUS
10
0.429441968503937
20
0.407231968503937
11
0.4301510236220472
21
0.406706062992126
0
LINE
8
BLACK
6
CONTINUOUS
10
0.4301510236220472
20
0.406706062992126
11
0.4302093700787402
21
0.4066788582677165
0
LINE
8
BLACK
6
CONTINUOUS
10
0.4302093700787402
20
0.4066788582677165
11
0.4320841338582677
21
0.404804094488189
0
LINE
8
BLACK
6
CONTINUOUS
10
0.4320841338582677
20
0.404804094488189
11
0.4325903937007874
21
0.4040810236220472
0
LINE
8
BLACK
6
CONTINUOUS
10
0.4325903937007874
20
0.4040810236220472
11
0.4326372440944882
21
0.4040366929133858
0
LINE
8
BLACK
6
CONTINUOUS
10
0.4326372440944882
20
0.4040366929133858
11
0.4345120078740157
21
0.4002871653543307
0
LINE
8
BLACK
6
CONTINUOUS
10
0.4345120078740157
20
0.4002871653543307
11
0.4348043700787401
21
0.3993042519685039
0
LINE
8
BLACK
6
CONTINUOUS
10
0.4348043700787401
20
0.3993042519685039
11
0.4347633464566929
21
0.3991325590551181
0
LINE
8
BLACK
6
CONTINUOUS
10
0.4347633464566929
20
0.3991325590551181
11
0.4348237401574803
21
0.3989666535433071
0
LINE
8
BLACK
6
CONTINUOUS
10
0.4348237401574803
20
0.3989666535433071
11
0.4348237401574803
21
0.3895928346456693
0
LINE
8
BLACK
6
CONTINUOUS
10
0.4348237401574803
20
0.3895928346456693
11
0.4346456692913386
21
0.3885829133858268
0
LINE
8
BLACK
6
CONTINUOUS
10
0.4346456692913386
20
0.3885829133858268
11
0.4345321653543307
21
0.3884476771653543
0
LINE
8
BLACK
6
CONTINUOUS
10
0.4345321653543307
20
0.3884476771653543
11
0.4345120078740157
21
0.3882723228346456
0
LINE
8
BLACK
6
CONTINUOUS
10
0.4345120078740157
20
0.3882723228346456
11
0.4326372440944882
21
0.3845227952755905
0
LINE
8
BLACK
6
CONTINUOUS
10
0.4326372440944882
20
0.3845227952755905
11
0.4321112992125984
21
0.3838137401574803
0
LINE
8
BLACK
6
CONTINUOUS
10
0.4321112992125984
20
0.3838137401574803
11
0.4320841338582677
21
0.3837553937007874
0
LINE
8
BLACK
6
CONTINUOUS
10
0.4320841338582677
20
0.3837553937007874
11
0.4302094094488189
21
0.3818806299212598
0
LINE
8
BLACK
6
CONTINUOUS
10
0.4302094094488189
20
0.3818806299212598
11
0.4294862204724409
21
0.3813742519685039
0
LINE
8
BLACK
6
CONTINUOUS
10
0.4294862204724409
20
0.3813742519685039
11
0.429441968503937
21
0.3813274803149606
0
LINE
8
BLACK
6
CONTINUOUS
10
0.429441968503937
20
0.3813274803149606
11
0.4256924409448819
21
0.3794527165354331
0
LINE
8
BLACK
6
CONTINUOUS
10
0.4256924409448819
20
0.3794527165354331
11
0.4247094881889764
21
0.3791603543307087
0
LINE
8
BLACK
6
CONTINUOUS
10
0.4247094881889764
20
0.3791603543307087
11
0.4245377952755905
21
0.3792013779527559
0
LINE
8
BLACK
6
CONTINUOUS
10
0.4245377952755905
20
0.3792013779527559
11
0.4243719291338582
21
0.3791409842519685
0
LINE
8
BLACK
6
CONTINUOUS
10
0.4243719291338582
20
0.3791409842519685
11
0.4131233464566929
21
0.3791409842519685
0
LINE
8
BLACK
6
CONTINUOUS
10
0.4131233464566929
20
0.3791409842519685
11
0.4121134251968504
21
0.3793190551181102
0
LINE
8
BLACK
6
CONTINUOUS
10
0.4121134251968504
20
0.3793190551181102
11
0.4119781496062992
21
0.3794325590551181
0
LINE
8
BLACK
6
CONTINUOUS
10
0.4119781496062992
20
0.3794325590551181
11
0.4118028346456693
21
0.3794527165354331
0
LINE
8
BLACK
6
CONTINUOUS
10
0.4118028346456693
20
0.3794527165354331
11
0.4080533070866141
21
0.3813274803149606
0
LINE
8
BLACK
6
CONTINUOUS
10
0.4080533070866141
20
0.3813274803149606
11
0.4073441732283464
21
0.3818534645669291
0
LINE
8
BLACK
6
CONTINUOUS
10
0.4073441732283464
20
0.3818534645669291
11
0.4072858661417323
21
0.3818806299212598
0
LINE
8
BLACK
6
CONTINUOUS
10
0.4072858661417323
20
0.3818806299212598
11
0.4054111023622047
21
0.3837554330708661
0
LINE
8
BLACK
6
CONTINUOUS
10
0.4054111023622047
20
0.3837554330708661
11
0.4048229133858268
21
0.3845954724409449
0
LINE
8
BLACK
6
CONTINUOUS
10
0.4048229133858268
20
0.3845954724409449
11
0.4046469291338582
21
0.3866075590551181
0
LINE
8
BLACK
6
CONTINUOUS
10
0.4046469291338582
20
0.3866075590551181
11
0.4058054330708661
21
0.3882620866141732
0
LINE
8
BLACK
6
CONTINUOUS
10
0.4058054330708661
20
0.3882620866141732
11
0.4077564173228346
21
0.3887848031496063
0
LINE
8
BLACK
6
CONTINUOUS
10
0.4077564173228346
20
0.3887848031496063
11
0.4095870078740158
21
0.3879311811023622
0
LINE
8
BLACK
6
CONTINUOUS
10
0.4095870078740158
20
0.3879311811023622
11
0.4111229133858267
21
0.3863952362204724
0
LINE
8
BLACK
6
CONTINUOUS
10
0.4111229133858267
20
0.3863952362204724
11
0.4138203937007874
21
0.3850464960629921
0
LINE
8
BLACK
6
CONTINUOUS
10
0.4138203937007874
20
0.3850464960629921
11
0.4236748818897638
21
0.3850464960629921
0
LINE
8
BLACK
6
CONTINUOUS
10
0.4236748818897638
20
0.3850464960629921
11
0.4263723228346457
21
0.3863952362204724
0
LINE
8
BLACK
6
CONTINUOUS
10
0.4263723228346457
20
0.3863952362204724
11
0.4275694488188976
21
0.3875924015748031
0
LINE
8
BLACK
6
CONTINUOUS
10
0.4275694488188976
20
0.3875924015748031
11
0.4289182283464567
21
0.3902898818897638
0
LINE
8
BLACK
6
CONTINUOUS
10
0.4289182283464567
20
0.3902898818897638
11
0.4289182283464567
21
0.3982696062992126
0
LINE
8
BLACK
6
CONTINUOUS
10
0.4289182283464567
20
0.3982696062992126
11
0.4275694881889764
21
0.4009670866141732
0
LINE
8
BLACK
6
CONTINUOUS
10
0.4275694881889764
20
0.4009670866141732
11
0.4263723622047244
21
0.4021642125984252
0
LINE
8
BLACK
6
CONTINUOUS
10
0.4263723622047244
20
0.4021642125984252
11
0.4236748818897638
21
0.4035129527559055
0
LINE
8
BLACK
6
CONTINUOUS
10
0.4236748818897638
20
0.4035129527559055
11
0.4187476377952756
21
0.4035129527559055
0
LINE
8
BLACK
6
CONTINUOUS
10
0.4187476377952756
20
0.4035129527559055
11
0.4183102755905512
21
0.4035900787401575
0
LINE
8
BLACK
6
CONTINUOUS
10
0.4183102755905512
20
0.4035900787401575
11
0.4181748031496063
21
0.4035690551181103
0
LINE
8
BLACK
6
CONTINUOUS
10
0.4181748031496063
20
0.4035690551181103
11
0.4180701181102362
21
0.4036324409448819
0
LINE
8
BLACK
6
CONTINUOUS
10
0.4180701181102362
20
0.4036324409448819
11
0.4177377165354331
21
0.4036910236220472
0
LINE
8
BLACK
6
CONTINUOUS
10
0.4177377165354331
20
0.4036910236220472
11
0.4171279133858268
21
0.404202716535433
0
LINE
8
BLACK
6
CONTINUOUS
10
0.4171279133858268
20
0.404202716535433
11
0.4164468897637795
21
0.4046149212598425
0
LINE
8
BLACK
6
CONTINUOUS
10
0.4164468897637795
20
0.4046149212598425
11
0.416370905511811
21
0.4048379527559055
0
LINE
8
BLACK
6
CONTINUOUS
10
0.416370905511811
20
0.4048379527559055
11
0.4161904724409449
21
0.4049893307086614
0
LINE
8
BLACK
6
CONTINUOUS
10
0.4161904724409449
20
0.4049893307086614
11
0.4160522047244095
21
0.4057733070866142
0
LINE
8
BLACK
6
CONTINUOUS
10
0.4160522047244095
20
0.4057733070866142
11
0.4157955118110236
21
0.406526811023622
0
LINE
8
BLACK
6
CONTINUOUS
10
0.4157955118110236
20
0.406526811023622
11
0.4158806299212598
21
0.4067464566929134
0
LINE
8
BLACK
6
CONTINUOUS
10
0.4158806299212598
20
0.4067464566929134
11
0.4158397244094488
21
0.4069784645669291
0
LINE
8
BLACK
6
CONTINUOUS
10
0.4158397244094488
20
0.4069784645669291
11
0.4162377952755905
21
0.4076679527559055
0
LINE
8
BLACK
6
CONTINUOUS
10
0.4162377952755905
20
0.4076679527559055
11
0.4165254724409449
21
0.4084101181102362
0
LINE
8
BLACK
6
CONTINUOUS
10
0.4165254724409449
20
0.4084101181102362
11
0.4253638188976378
21
0.418511062992126
0
LINE
8
BLACK
6
CONTINUOUS
10
0.4253638188976378
20
0.418511062992126
11
0.4074990551181102
21
0.418511062992126
0
LINE
8
BLACK
6
CONTINUOUS
10
0.4074990551181102
20
0.418511062992126
11
0.4064891338582677
21
0.4186891338582677
0
LINE
8
BLACK
6
CONTINUOUS
10
0.4064891338582677
20
0.4186891338582677
11
0.4049418897637795
21
0.4199874409448819
0
LINE
8
BLACK
6
CONTINUOUS
10
0.4049418897637795
20
0.4199874409448819
11
0.4045911417322834
21
0.4219765748031496
0
LINE
8
BLACK
6
CONTINUOUS
10
0.4045911417322834
20
0.4219765748031496
11
0.4056010629921259
21
0.423725748031496
0
LINE
8
BLACK
6
CONTINUOUS
10
0.4056010629921259
20
0.423725748031496
11
0.4074990551181102
21
0.4244165748031496
0
LINE
8
BLACK
6
CONTINUOUS
10
0.4074990551181102
20
0.4244165748031496
11
0.4318709842519685
21
0.4244165748031496
0
LINE
8
BLACK
6
CONTINUOUS
10
0.4318709842519685
20
0.4244165748031496
11
0.4323083070866142
21
0.4243394881889764
0
LINE
8
BLACK
6
CONTINUOUS
10
0.3947628346456693
20
0.423361811023622
11
0.3954536614173228
21
0.4214638188976378
0
LINE
8
BLACK
6
CONTINUOUS
10
0.3954536614173228
20
0.4214638188976378
11
0.3954536614173228
21
0.3820937401574803
0
LINE
8
BLACK
6
CONTINUOUS
10
0.3954536614173228
20
0.3820937401574803
11
0.3952755905511811
21
0.3810838188976378
0
LINE
8
BLACK
6
CONTINUOUS
10
0.3952755905511811
20
0.3810838188976378
11
0.3939772834645669
21
0.3795365748031496
0
LINE
8
BLACK
6
CONTINUOUS
10
0.3939772834645669
20
0.3795365748031496
11
0.3919881496062992
21
0.3791858267716535
0
LINE
8
BLACK
6
CONTINUOUS
10
0.3919881496062992
20
0.3791858267716535
11
0.3902389763779527
21
0.380195748031496
0
LINE
8
BLACK
6
CONTINUOUS
10
0.3902389763779527
20
0.380195748031496
11
0.3895481496062992
21
0.3820937401574803
0
LINE
8
BLACK
6
CONTINUOUS
10
0.3895481496062992
20
0.3820937401574803
11
0.3895481496062992
21
0.3997634251968504
0
LINE
8
BLACK
6
CONTINUOUS
10
0.3895481496062992
20
0.3997634251968504
11
0.3729564960629921
21
0.3997634251968504
0
LINE
8
BLACK
6
CONTINUOUS
10
0.3729564960629921
20
0.3997634251968504
11
0.3729564960629921
21
0.3820937401574803
0
LINE
8
BLACK
6
CONTINUOUS
10
0.3729564960629921
20
0.3820937401574803
11
0.3727784251968504
21
0.3810838188976378
0
LINE
8
BLACK
6
CONTINUOUS
10
0.3727784251968504
20
0.3810838188976378
11
0.3714801181102362
21
0.3795365748031496
0
LINE
8
BLACK
6
CONTINUOUS
10
0.3714801181102362
20
0.3795365748031496
11
0.3694909842519685
21
0.3791858267716535
0
LINE
8
BLACK
6
CONTINUOUS
10
0.3694909842519685
20
0.3791858267716535
11
0.367741811023622
21
0.380195748031496
0
LINE
8
BLACK
6
CONTINUOUS
10
0.367741811023622
20
0.380195748031496
11
0.3670509842519685
21
0.3820937401574803
0
LINE
8
BLACK
6
CONTINUOUS
10
0.3670509842519685
20
0.3820937401574803
11
0.3670509842519685
21
0.4214638188976378
0
LINE
8
BLACK
6
CONTINUOUS
10
0.3670509842519685
20
0.4214638188976378
11
0.3672290551181102
21
0.4224737401574803
0
LINE
8
BLACK
6
CONTINUOUS
10
0.3672290551181102
20
0.4224737401574803
11
0.3685273622047244
21
0.4240209842519685
0
LINE
8
BLACK
6
CONTINUOUS
10
0.3685273622047244
20
0.4240209842519685
11
0.3705164960629921
21
0.4243717322834645
0
LINE
8
BLACK
6
CONTINUOUS
10
0.3705164960629921
20
0.4243717322834645
11
0.3722656692913386
21
0.423361811023622
0
LINE
8
BLACK
6
CONTINUOUS
10
0.3722656692913386
20
0.423361811023622
11
0.3729564960629921
21
0.4214638188976378
0
LINE
8
BLACK
6
CONTINUOUS
10
0.3729564960629921
20
0.4214638188976378
11
0.3729564960629921
21
0.405668937007874
0
LINE
8
BLACK
6
CONTINUOUS
10
0.3729564960629921
20
0.405668937007874
11
0.3895481496062992
21
0.405668937007874
0
LINE
8
BLACK
6
CONTINUOUS
10
0.3895481496062992
20
0.405668937007874
11
0.3895481496062992
21
0.4214638188976378
0
LINE
8
BLACK
6
CONTINUOUS
10
0.3895481496062992
20
0.4214638188976378
11
0.3897262204724409
21
0.4224737401574803
0
LINE
8
BLACK
6
CONTINUOUS
10
0.3897262204724409
20
0.4224737401574803
11
0.3910245275590551
21
0.4240209842519685
0
LINE
8
BLACK
6
CONTINUOUS
10
0.3910245275590551
20
0.4240209842519685
11
0.3930136614173228
21
0.4243717322834645
0
LINE
8
BLACK
6
CONTINUOUS
10
0.3930136614173228
20
0.4243717322834645
11
0.3947628346456693
21
0.423361811023622
0
LINE
8
BLACK
6
CONTINUOUS
10
1.9947628346456692
20
0.423361811023622
11
1.9954536614173228
21
0.4214638188976378
0
LINE
8
BLACK
6
CONTINUOUS
10
1.9954536614173228
20
0.4214638188976378
11
1.9954536614173228
21
0.3820937401574803
0
LINE
8
BLACK
6
CONTINUOUS
10
1.9954536614173228
20
0.3820937401574803
11
1.995275590551181
21
0.3810838188976378
0
LINE
8
BLACK
6
CONTINUOUS
10
1.995275590551181
20
0.3810838188976378
11
1.9939772834645668
21
0.3795365748031496
0
LINE
8
BLACK
6
CONTINUOUS
10
1.9939772834645668
20
0.3795365748031496
11
1.9919881496062992
21
0.3791858267716535
0
LINE
8
BLACK
6
CONTINUOUS
10
1.9919881496062992
20
0.3791858267716535
11
1.9902389763779527
21
0.380195748031496
0
LINE
8
BLACK
6
CONTINUOUS
10
1.9902389763779527
20
0.380195748031496
11
1.9895481496062992
21
0.3820937401574803
0
LINE
8
BLACK
6
CONTINUOUS
10
1.9895481496062992
20
0.3820937401574803
11
1.9895481496062992
21
0.3997634251968504
0
LINE
8
BLACK
6
CONTINUOUS
10
1.9895481496062992
20
0.3997634251968504
11
1.9729564960629922
21
0.3997634251968504
0
LINE
8
BLACK
6
CONTINUOUS
10
1.9729564960629922
20
0.3997634251968504
11
1.9729564960629922
21
0.3820937401574803
0
LINE
8
BLACK
6
CONTINUOUS
10
1.9729564960629922
20
0.3820937401574803
11
1.9727784251968503
21
0.3810838188976378
0
LINE
8
BLACK
6
CONTINUOUS
10
1.9727784251968503
20
0.3810838188976378
11
1.9714801181102362
21
0.3795365748031496
0
LINE
8
BLACK
6
CONTINUOUS
10
1.9714801181102362
20
0.3795365748031496
11
1.9694909842519686
21
0.3791858267716535
0
LINE
8
BLACK
6
CONTINUOUS
10
1.9694909842519686
20
0.3791858267716535
11
1.967741811023622
21
0.380195748031496
0
LINE
8
BLACK
6
CONTINUOUS
10
1.967741811023622
20
0.380195748031496
11
1.9670509842519686
21
0.3820937401574803
0
LINE
8
BLACK
6
CONTINUOUS
10
1.9670509842519686
20
0.3820937401574803
11
1.9670509842519686
21
0.4214638188976378
0
LINE
8
BLACK
6
CONTINUOUS
10
1.9670509842519686
20
0.4214638188976378
11
1.9672290551181102
21
0.4224737401574803
0
LINE
8
BLACK
6
CONTINUOUS
10
1.9672290551181102
20
0.4224737401574803
11
1.9685273622047244
21
0.4240209842519685
0
LINE
8
BLACK
6
CONTINUOUS
10
1.9685273622047244
20
0.4240209842519685
11
1.9705164960629922
21
0.4243717322834645
0
LINE
8
BLACK
6
CONTINUOUS
10
1.9705164960629922
20
0.4243717322834645
11
1.9722656692913385
21
0.423361811023622
0
LINE
8
BLACK
6
CONTINUOUS
10
1.9722656692913385
20
0.423361811023622
11
1.9729564960629922
21
0.4214638188976378
0
LINE
8
BLACK
6
CONTINUOUS
10
1.9729564960629922
20
0.4214638188976378
11
1.9729564960629922
21
0.405668937007874
0
LINE
8
BLACK
6
CONTINUOUS
10
1.9729564960629922
20
0.405668937007874
11
1.9895481496062992
21
0.405668937007874
0
LINE
8
BLACK
6
CONTINUOUS
10
1.9895481496062992
20
0.405668937007874
11
1.9895481496062992
21
0.4214638188976378
0
LINE
8
BLACK
6
CONTINUOUS
10
1.9895481496062992
20
0.4214638188976378
11
1.9897262204724409
21
0.4224737401574803
0
LINE
8
BLACK
6
CONTINUOUS
10
1.9897262204724409
20
0.4224737401574803
11
1.991024527559055
21
0.4240209842519685
0
LINE
8
BLACK
6
CONTINUOUS
10
1.991024527559055
20
0.4240209842519685
11
1.9930136614173228
21
0.4243717322834645
0
LINE
8
BLACK
6
CONTINUOUS
10
1.9930136614173228
20
0.4243717322834645
11
1.9947628346456692
21
0.423361811023622
0
LINE
8
BLACK
6
CONTINUOUS
10
2.020153622047244
20
0.4259351181102362
11
2.0214937007874014
21
0.4244238582677165
0
LINE
8
BLACK
6
CONTINUOUS
10
2.0214937007874014
20
0.4244238582677165
11
2.0215488582677166
21
0.4224048031496063
0
LINE
8
BLACK
6
CONTINUOUS
10
2.0215488582677166
20
0.4224048031496063
11
2.0134705511811024
21
0.3981698818897638
0
LINE
8
BLACK
6
CONTINUOUS
10
2.0134705511811024
20
0.3981698818897638
11
2.0251687007874017
21
0.3981698818897638
0
LINE
8
BLACK
6
CONTINUOUS
10
2.0251687007874017
20
0.3981698818897638
11
2.0251687007874017
21
0.4083404724409448
0
LINE
8
BLACK
6
CONTINUOUS
10
2.0251687007874017
20
0.4083404724409448
11
2.0253467716535432
21
0.4093503937007874
0
LINE
8
BLACK
6
CONTINUOUS
10
2.0253467716535432
20
0.4093503937007874
11
2.0266450787401573
21
0.4108976377952756
0
LINE
8
BLACK
6
CONTINUOUS
10
2.0266450787401573
20
0.4108976377952756
11
2.0286342125984254
21
0.4112483858267716
0
LINE
8
BLACK
6
CONTINUOUS
10
2.0286342125984254
20
0.4112483858267716
11
2.0303833858267715
21
0.4102384645669291
0
LINE
8
BLACK
6
CONTINUOUS
10
2.0303833858267715
20
0.4102384645669291
11
2.0310742125984254
21
0.4083404724409448
0
LINE
8
BLACK
6
CONTINUOUS
10
2.0310742125984254
20
0.4083404724409448
11
2.0310742125984254
21
0.3981698818897638
0
LINE
8
BLACK
6
CONTINUOUS
10
2.0310742125984254
20
0.3981698818897638
11
2.033745748031496
21
0.3981698818897638
0
LINE
8
BLACK
6
CONTINUOUS
10
2.033745748031496
20
0.3981698818897638
11
2.0347556692913384
21
0.397991811023622
0
LINE
8
BLACK
6
CONTINUOUS
10
2.0347556692913384
20
0.397991811023622
11
2.0363029133858266
21
0.3966935039370079
0
LINE
8
BLACK
6
CONTINUOUS
10
2.0363029133858266
20
0.3966935039370079
11
2.036653661417323
21
0.3947043700787402
0
LINE
8
BLACK
6
CONTINUOUS
10
2.036653661417323
20
0.3947043700787402
11
2.0356437401574801
21
0.3929551968503937
0
LINE
8
BLACK
6
CONTINUOUS
10
2.0356437401574801
20
0.3929551968503937
11
2.033745748031496
21
0.3922643700787402
0
LINE
8
BLACK
6
CONTINUOUS
10
2.033745748031496
20
0.3922643700787402
11
2.0310742125984254
21
0.3922643700787402
0
LINE
8
BLACK
6
CONTINUOUS
10
2.0310742125984254
20
0.3922643700787402
11
2.0310742125984254
21
0.3820937401574803
0
LINE
8
BLACK
6
CONTINUOUS
10
2.0310742125984254
20
0.3820937401574803
11
2.0308961417322835
21
0.3810838188976378
0
LINE
8
BLACK
6
CONTINUOUS
10
2.0308961417322835
20
0.3810838188976378
11
2.0295978346456693
21
0.3795365748031496
0
LINE
8
BLACK
6
CONTINUOUS
10
2.0295978346456693
20
0.3795365748031496
11
2.0276087007874017
21
0.3791858267716535
0
LINE
8
BLACK
6
CONTINUOUS
10
2.0276087007874017
20
0.3791858267716535
11
2.0258595275590552
21
0.380195748031496
0
LINE
8
BLACK
6
CONTINUOUS
10
2.0258595275590552
20
0.380195748031496
11
2.0251687007874017
21
0.3820937401574803
0
LINE
8
BLACK
6
CONTINUOUS
10
2.0251687007874017
20
0.3820937401574803
11
2.0251687007874017
21
0.3922643700787402
0
LINE
8
BLACK
6
CONTINUOUS
10
2.0251687007874017
20
0.3922643700787402
11
2.0093738188976378
21
0.3922643700787402
0
LINE
8
BLACK
6
CONTINUOUS
10
2.0093738188976378
20
0.3922643700787402
11
2.0083638976377953
21
0.3924424409448819
0
LINE
8
BLACK
6
CONTINUOUS
10
2.0083638976377953
20
0.3924424409448819
11
2.008191023622047
21
0.3925875196850394
0
LINE
8
BLACK
6
CONTINUOUS
10
2.008191023622047
20
0.3925875196850394
11
2.0079677952755906
21
0.3926205905511811
0
LINE
8
BLACK
6
CONTINUOUS
10
2.0079677952755906
20
0.3926205905511811
11
2.0074334645669292
21
0.3932231889763779
0
LINE
8
BLACK
6
CONTINUOUS
10
2.0074334645669292
20
0.3932231889763779
11
2.0068166535433072
21
0.3937407480314961
0
LINE
8
BLACK
6
CONTINUOUS
10
2.0068166535433072
20
0.3937407480314961
11
2.006777440944882
21
0.3939629921259842
0
LINE
8
BLACK
6
CONTINUOUS
10
2.006777440944882
20
0.3939629921259842
11
2.0066277559055119
21
0.394131811023622
0
LINE
8
BLACK
6
CONTINUOUS
10
2.0066277559055119
20
0.394131811023622
11
2.0066057480314958
21
0.3949367322834645
0
LINE
8
BLACK
6
CONTINUOUS
10
2.0066057480314958
20
0.3949367322834645
11
2.0064659055118108
21
0.3957298818897638
0
LINE
8
BLACK
6
CONTINUOUS
10
2.0064659055118108
20
0.3957298818897638
11
2.0065787401574804
21
0.3959253543307086
0
LINE
8
BLACK
6
CONTINUOUS
10
2.0065787401574804
20
0.3959253543307086
11
2.0065725984251968
21
0.3961508661417323
0
LINE
8
BLACK
6
CONTINUOUS
10
2.0065725984251968
20
0.3961508661417323
11
2.0159464173228345
21
0.4242723228346457
0
LINE
8
BLACK
6
CONTINUOUS
10
2.0159464173228345
20
0.4242723228346457
11
2.01643468503937
21
0.425174094488189
0
LINE
8
BLACK
6
CONTINUOUS
10
2.01643468503937
20
0.425174094488189
11
2.0181556692913385
21
0.4262313779527559
0
LINE
8
BLACK
6
CONTINUOUS
10
2.0181556692913385
20
0.4262313779527559
11
2.020153622047244
21
0.4259351181102362
0
LINE
8
BLACK
6
CONTINUOUS
10
1.5673822440944882
20
0.6750950393700788
11
1.5848387401574804
21
0.6576385433070866
0
LINE
8
BLACK
6
CONTINUOUS
10
1.5848387401574804
20
0.6576385433070866
11
1.5848387401574804
21
0.6730071259842519
0
LINE
8
BLACK
6
CONTINUOUS
10
1.5848387401574804
20
0.6730071259842519
11
1.585016811023622
21
0.6740170472440945
0
LINE
8
BLACK
6
CONTINUOUS
10
1.585016811023622
20
0.6740170472440945
11
1.5863151181102362
21
0.6755642913385826
0
LINE
8
BLACK
6
CONTINUOUS
10
1.5863151181102362
20
0.6755642913385826
11
1.588304251968504
21
0.6759150393700787
0
LINE
8
BLACK
6
CONTINUOUS
10
1.588304251968504
20
0.6759150393700787
11
1.5900534251968503
21
0.6749051181102362
0
LINE
8
BLACK
6
CONTINUOUS
10
1.5900534251968503
20
0.6749051181102362
11
1.590744251968504
21
0.6730071259842519
0
LINE
8
BLACK
6
CONTINUOUS
10
1.590744251968504
20
0.6730071259842519
11
1.590744251968504
21
0.6336370472440944
0
LINE
8
BLACK
6
CONTINUOUS
10
1.590744251968504
20
0.6336370472440944
11
1.5905661811023621
21
0.632627125984252
0
LINE
8
BLACK
6
CONTINUOUS
10
1.5905661811023621
20
0.632627125984252
11
1.589267874015748
21
0.6310798818897637
0
LINE
8
BLACK
6
CONTINUOUS
10
1.589267874015748
20
0.6310798818897637
11
1.5872787401574804
21
0.6307291338582677
0
LINE
8
BLACK
6
CONTINUOUS
10
1.5872787401574804
20
0.6307291338582677
11
1.5855295669291338
21
0.6317390551181102
0
LINE
8
BLACK
6
CONTINUOUS
10
1.5855295669291338
20
0.6317390551181102
11
1.5848387401574804
21
0.6336370472440944
0
LINE
8
BLACK
6
CONTINUOUS
10
1.5848387401574804
20
0.6336370472440944
11
1.5848387401574804
21
0.6492868897637795
0
LINE
8
BLACK
6
CONTINUOUS
10
1.5848387401574804
20
0.6492868897637795
11
1.5824866535433071
21
0.6516389763779528
0
LINE
8
BLACK
6
CONTINUOUS
10
1.5824866535433071
20
0.6516389763779528
11
1.5676565354330709
21
0.6318653937007874
0
LINE
8
BLACK
6
CONTINUOUS
10
1.5676565354330709
20
0.6318653937007874
11
1.5669081102362203
21
0.6311642913385827
0
LINE
8
BLACK
6
CONTINUOUS
10
1.5669081102362203
20
0.6311642913385827
11
1.5649411417322834
21
0.6307054724409449
0
LINE
8
BLACK
6
CONTINUOUS
10
1.5649411417322834
20
0.6307054724409449
11
1.5631393700787402
21
0.6316183858267717
0
LINE
8
BLACK
6
CONTINUOUS
10
1.5631393700787402
20
0.6316183858267717
11
1.5623459842519685
21
0.6334758267716535
0
LINE
8
BLACK
6
CONTINUOUS
10
1.5623459842519685
20
0.6334758267716535
11
1.5629321259842519
21
0.6354087007874015
0
LINE
8
BLACK
6
CONTINUOUS
10
1.5629321259842519
20
0.6354087007874015
11
1.5782684251968504
21
0.6558572047244094
0
LINE
8
BLACK
6
CONTINUOUS
10
1.5782684251968504
20
0.6558572047244094
11
1.5632064173228346
21
0.6709192125984251
0
LINE
8
BLACK
6
CONTINUOUS
10
1.5632064173228346
20
0.6709192125984251
11
1.5626182283464567
21
0.6717592519685039
0
LINE
8
BLACK
6
CONTINUOUS
10
1.5626182283464567
20
0.6717592519685039
11
1.5624421653543308
21
0.6737713385826771
0
LINE
8
BLACK
6
CONTINUOUS
10
1.5624421653543308
20
0.6737713385826771
11
1.5636007086614172
21
0.675425905511811
0
LINE
8
BLACK
6
CONTINUOUS
10
1.5636007086614172
20
0.675425905511811
11
1.5655516535433069
21
0.675948622047244
0
LINE
8
BLACK
6
CONTINUOUS
10
1.5655516535433069
20
0.675948622047244
11
1.5673822440944882
21
0.6750950393700788
0
LINE
8
BLACK
6
CONTINUOUS
10
1.5470968110236221
20
0.6754683070866142
11
1.5478901968503938
21
0.6736108661417323
0
LINE
8
BLACK
6
CONTINUOUS
10
1.5478901968503938
20
0.6736108661417323
11
1.5473040551181103
21
0.6716779527559055
0
LINE
8
BLACK
6
CONTINUOUS
10
1.5473040551181103
20
0.6716779527559055
11
1.5319677165354331
21
0.6512294881889764
0
LINE
8
BLACK
6
CONTINUOUS
10
1.5319677165354331
20
0.6512294881889764
11
1.5470297637795276
21
0.6361674409448819
0
LINE
8
BLACK
6
CONTINUOUS
10
1.5470297637795276
20
0.6361674409448819
11
1.5476179527559055
21
0.6353274015748032
0
LINE
8
BLACK
6
CONTINUOUS
10
1.5476179527559055
20
0.6353274015748032
11
1.5477939763779527
21
0.6333153149606299
0
LINE
8
BLACK
6
CONTINUOUS
10
1.5477939763779527
20
0.6333153149606299
11
1.5466354724409448
21
0.6316607480314961
0
LINE
8
BLACK
6
CONTINUOUS
10
1.5466354724409448
20
0.6316607480314961
11
1.5446844881889763
21
0.631138031496063
0
LINE
8
BLACK
6
CONTINUOUS
10
1.5446844881889763
20
0.631138031496063
11
1.542853937007874
21
0.6319916141732284
0
LINE
8
BLACK
6
CONTINUOUS
10
1.542853937007874
20
0.6319916141732284
11
1.5253974409448818
21
0.6494481102362205
0
LINE
8
BLACK
6
CONTINUOUS
10
1.5253974409448818
20
0.6494481102362205
11
1.5253974409448818
21
0.6340795275590551
0
LINE
8
BLACK
6
CONTINUOUS
10
1.5253974409448818
20
0.6340795275590551
11
1.5252193700787402
21
0.6330696062992126
0
LINE
8
BLACK
6
CONTINUOUS
10
1.5252193700787402
20
0.6330696062992126
11
1.523921062992126
21
0.6315223622047244
0
LINE
8
BLACK
6
CONTINUOUS
10
1.523921062992126
20
0.6315223622047244
11
1.5219319291338582
21
0.6311716141732283
0
LINE
8
BLACK
6
CONTINUOUS
10
1.5219319291338582
20
0.6311716141732283
11
1.5201827559055119
21
0.6321815354330709
0
LINE
8
BLACK
6
CONTINUOUS
10
1.5201827559055119
20
0.6321815354330709
11
1.5194919291338582
21
0.6340795275590551
0
LINE
8
BLACK
6
CONTINUOUS
10
1.5194919291338582
20
0.6340795275590551
11
1.5194919291338582
21
0.6734496062992126
0
LINE
8
BLACK
6
CONTINUOUS
10
1.5194919291338582
20
0.6734496062992126
11
1.5196700000000001
21
0.6744595275590551
0
LINE
8
BLACK
6
CONTINUOUS
10
1.5196700000000001
20
0.6744595275590551
11
1.5209683070866142
21
0.6760067716535433
0
LINE
8
BLACK
6
CONTINUOUS
10
1.5209683070866142
20
0.6760067716535433
11
1.5229574409448818
21
0.6763575196850393
0
LINE
8
BLACK
6
CONTINUOUS
10
1.5229574409448818
20
0.6763575196850393
11
1.5247066141732284
21
0.6753475984251969
0
LINE
8
BLACK
6
CONTINUOUS
10
1.5247066141732284
20
0.6753475984251969
11
1.5253974409448818
21
0.6734496062992126
0
LINE
8
BLACK
6
CONTINUOUS
10
1.5253974409448818
20
0.6734496062992126
11
1.5253974409448818
21
0.6577997637795275
0
LINE
8
BLACK
6
CONTINUOUS
10
1.5253974409448818
20
0.6577997637795275
11
1.5277494881889764
21
0.6554477165354331
0
LINE
8
BLACK
6
CONTINUOUS
10
1.5277494881889764
20
0.6554477165354331
11
1.5425796456692913
21
0.6752212598425197
0
LINE
8
BLACK
6
CONTINUOUS
10
1.5425796456692913
20
0.6752212598425197
11
1.5433280708661417
21
0.6759223622047243
0
LINE
8
BLACK
6
CONTINUOUS
10
1.5433280708661417
20
0.6759223622047243
11
1.5452950393700786
21
0.6763811811023622
0
LINE
8
BLACK
6
CONTINUOUS
10
1.5452950393700786
20
0.6763811811023622
11
1.5470968110236221
21
0.6754683070866142
0
LINE
8
BLACK
6
CONTINUOUS
10
0.3648091732283464
20
0.7324955118110236
11
0.3659208267716536
21
0.7308091732283465
0
LINE
8
BLACK
6
CONTINUOUS
10
0.3659208267716536
20
0.7308091732283465
11
0.3725842519685039
21
0.702822716535433
0
LINE
8
BLACK
6
CONTINUOUS
10
0.3725842519685039
20
0.702822716535433
11
0.3770681889763779
21
0.7196374803149607
0
LINE
8
BLACK
6
CONTINUOUS
10
0.3770681889763779
20
0.7196374803149607
11
0.3775004724409449
21
0.7205674015748031
0
LINE
8
BLACK
6
CONTINUOUS
10
0.3775004724409449
20
0.7205674015748031
11
0.3777214566929134
21
0.7207225590551181
0
LINE
8
BLACK
6
CONTINUOUS
10
0.3777214566929134
20
0.7207225590551181
11
0.3778358661417323
21
0.7209670866141732
0
LINE
8
BLACK
6
CONTINUOUS
10
0.3778358661417323
20
0.7209670866141732
11
0.3785284251968504
21
0.7212890551181103
0
LINE
8
BLACK
6
CONTINUOUS
10
0.3785284251968504
20
0.7212890551181103
11
0.3791536220472441
21
0.7217279133858268
0
LINE
8
BLACK
6
CONTINUOUS
10
0.3791536220472441
20
0.7217279133858268
11
0.3794225984251968
21
0.7217047244094488
0
LINE
8
BLACK
6
CONTINUOUS
10
0.3794225984251968
20
0.7217047244094488
11
0.3796674409448819
21
0.7218185039370079
0
LINE
8
BLACK
6
CONTINUOUS
10
0.3796674409448819
20
0.7218185039370079
11
0.3804048031496063
21
0.7216199999999999
0
LINE
8
BLACK
6
CONTINUOUS
10
0.3804048031496063
20
0.7216199999999999
11
0.3811659842519685
21
0.7215542913385826
0
LINE
8
BLACK
6
CONTINUOUS
10
0.3811659842519685
20
0.7215542913385826
11
0.3813571653543307
21
0.7213635826771654
0
LINE
8
BLACK
6
CONTINUOUS
10
0.3813571653543307
20
0.7213635826771654
11
0.3816177559055118
21
0.7212933858267716
0
LINE
8
BLACK
6
CONTINUOUS
10
0.3816177559055118
20
0.7212933858267716
11
0.382055
21
0.7206673622047244
0
LINE
8
BLACK
6
CONTINUOUS
10
0.382055
20
0.7206673622047244
11
0.3825958661417323
21
0.7201277559055118
0
LINE
8
BLACK
6
CONTINUOUS
10
0.3825958661417323
20
0.7201277559055118
11
0.38261968503937
21
0.7198588582677166
0
LINE
8
BLACK
6
CONTINUOUS
10
0.38261968503937
20
0.7198588582677166
11
0.3827743307086614
21
0.7196374803149607
0
LINE
8
BLACK
6
CONTINUOUS
10
0.3827743307086614
20
0.7196374803149607
11
0.3872582283464567
21
0.702822716535433
0
LINE
8
BLACK
6
CONTINUOUS
10
0.3872582283464567
20
0.702822716535433
11
0.3939217322834646
21
0.7308091338582677
0
LINE
8
BLACK
6
CONTINUOUS
10
0.3939217322834646
20
0.7308091338582677
11
0.3943288582677165
21
0.7317503543307087
0
LINE
8
BLACK
6
CONTINUOUS
10
0.3943288582677165
20
0.7317503543307087
11
0.3959502362204724
21
0.7329548031496063
0
LINE
8
BLACK
6
CONTINUOUS
10
0.3959502362204724
20
0.7329548031496063
11
0.3979665354330709
21
0.7328353149606299
0
LINE
8
BLACK
6
CONTINUOUS
10
0.3979665354330709
20
0.7328353149606299
11
0.3994342125984252
21
0.7314477165354331
0
LINE
8
BLACK
6
CONTINUOUS
10
0.3994342125984252
20
0.7314477165354331
11
0.3996666141732284
21
0.7294412992125984
0
LINE
8
BLACK
6
CONTINUOUS
10
0.3996666141732284
20
0.7294412992125984
11
0.3902927559055118
21
0.690071220472441
0
LINE
8
BLACK
6
CONTINUOUS
10
0.3902927559055118
20
0.690071220472441
11
0.3898856299212599
21
0.6891300393700788
0
LINE
8
BLACK
6
CONTINUOUS
10
0.3898856299212599
20
0.6891300393700788
11
0.3896370078740157
21
0.6889453937007873
0
LINE
8
BLACK
6
CONTINUOUS
10
0.3896370078740157
20
0.6889453937007873
11
0.3895057480314961
21
0.6886647244094488
0
LINE
8
BLACK
6
CONTINUOUS
10
0.3895057480314961
20
0.6886647244094488
11
0.3888470472440945
21
0.6883585433070866
0
LINE
8
BLACK
6
CONTINUOUS
10
0.3888470472440945
20
0.6883585433070866
11
0.3882642519685039
21
0.6879255905511811
0
LINE
8
BLACK
6
CONTINUOUS
10
0.3882642519685039
20
0.6879255905511811
11
0.3879550787401574
21
0.687943937007874
0
LINE
8
BLACK
6
CONTINUOUS
10
0.3879550787401574
20
0.687943937007874
11
0.3876741338582677
21
0.6878133070866141
0
LINE
8
BLACK
6
CONTINUOUS
10
0.3876741338582677
20
0.6878133070866141
11
0.386972874015748
21
0.6880021259842519
0
LINE
8
BLACK
6
CONTINUOUS
10
0.386972874015748
20
0.6880021259842519
11
0.3862479527559055
21
0.6880450787401574
0
LINE
8
BLACK
6
CONTINUOUS
10
0.3862479527559055
20
0.6880450787401574
11
0.3860227952755905
21
0.6882579527559055
0
LINE
8
BLACK
6
CONTINUOUS
10
0.3860227952755905
20
0.6882579527559055
11
0.3857238188976378
21
0.6883384251968504
0
LINE
8
BLACK
6
CONTINUOUS
10
0.3857238188976378
20
0.6883384251968504
11
0.385308031496063
21
0.6889337401574803
0
LINE
8
BLACK
6
CONTINUOUS
10
0.385308031496063
20
0.6889337401574803
11
0.3847802755905512
21
0.6894326771653543
0
LINE
8
BLACK
6
CONTINUOUS
10
0.3847802755905512
20
0.6894326771653543
11
0.3847446062992126
21
0.6897403543307087
0
LINE
8
BLACK
6
CONTINUOUS
10
0.3847446062992126
20
0.6897403543307087
11
0.3845672440944882
21
0.6899943307086615
0
LINE
8
BLACK
6
CONTINUOUS
10
0.3845672440944882
20
0.6899943307086615
11
0.3799212204724409
21
0.7074168110236221
0
LINE
8
BLACK
6
CONTINUOUS
10
0.3799212204724409
20
0.7074168110236221
11
0.3752752755905512
21
0.6899943307086615
0
LINE
8
BLACK
6
CONTINUOUS
10
0.3752752755905512
20
0.6899943307086615
11
0.3748429921259843
21
0.6890644094488189
0
LINE
8
BLACK
6
CONTINUOUS
10
0.3748429921259843
20
0.6890644094488189
11
0.3745894094488189
21
0.6888864566929134
0
LINE
8
BLACK
6
CONTINUOUS
10
0.3745894094488189
20
0.6888864566929134
11
0.3744507086614173
21
0.6886094881889764
0
LINE
8
BLACK
6
CONTINUOUS
10
0.3744507086614173
20
0.6886094881889764
11
0.3737841732283465
21
0.6883211811023622
0
LINE
8
BLACK
6
CONTINUOUS
10
0.3737841732283465
20
0.6883211811023622
11
0.373189842519685
21
0.687903937007874
0
LINE
8
BLACK
6
CONTINUOUS
10
0.373189842519685
20
0.687903937007874
11
0.3728812598425197
21
0.6879305905511811
0
LINE
8
BLACK
6
CONTINUOUS
10
0.3728812598425197
20
0.6879305905511811
11
0.3725969291338583
21
0.6878075590551181
0
LINE
8
BLACK
6
CONTINUOUS
10
0.3725969291338583
20
0.6878075590551181
11
0.3719009842519685
21
0.6880151574803149
0
LINE
8
BLACK
6
CONTINUOUS
10
0.3719009842519685
20
0.6880151574803149
11
0.3711775196850394
21
0.6880775590551181
0
LINE
8
BLACK
6
CONTINUOUS
10
0.3711775196850394
20
0.6880775590551181
11
0.3709581889763779
21
0.6882963779527559
0
LINE
8
BLACK
6
CONTINUOUS
10
0.3709581889763779
20
0.6882963779527559
11
0.3706614173228346
21
0.6883848818897638
0
LINE
8
BLACK
6
CONTINUOUS
10
0.3706614173228346
20
0.6883848818897638
11
0.3702617716535433
21
0.6889911023622047
0
LINE
8
BLACK
6
CONTINUOUS
10
0.3702617716535433
20
0.6889911023622047
11
0.3697475984251968
21
0.6895040551181102
0
LINE
8
BLACK
6
CONTINUOUS
10
0.3697475984251968
20
0.6895040551181102
11
0.3697201968503937
21
0.6898126377952756
0
LINE
8
BLACK
6
CONTINUOUS
10
0.3697201968503937
20
0.6898126377952756
11
0.3695497637795275
21
0.690071220472441
0
LINE
8
BLACK
6
CONTINUOUS
10
0.3695497637795275
20
0.690071220472441
11
0.3601759448818898
21
0.7294412992125984
0
LINE
8
BLACK
6
CONTINUOUS
10
0.3601759448818898
20
0.7294412992125984
11
0.3601152362204724
21
0.7304650393700787
0
LINE
8
BLACK
6
CONTINUOUS
10
0.3601152362204724
20
0.7304650393700787
11
0.3610198818897637
21
0.732270905511811
0
LINE
8
BLACK
6
CONTINUOUS
10
0.3610198818897637
20
0.732270905511811
11
0.3628736614173228
21
0.7330728346456693
0
LINE
8
BLACK
6
CONTINUOUS
10
0.3628736614173228
20
0.7330728346456693
11
0.3648091732283464
21
0.7324955118110236
0
LINE
8
BLACK
6
CONTINUOUS
10
0.4173232677165354
20
0.7539368503937007
11
0.4173237795275591
21
0.753936968503937
0
LINE
8
BLACK
6
CONTINUOUS
10
0.4173237795275591
20
0.753936968503937
11
0.4184806692913386
21
0.7535604724409448
0
LINE
8
BLACK
6
CONTINUOUS
10
0.4184806692913386
20
0.7535604724409448
11
0.4184806299212598
21
0.7535604724409448
0
LINE
8
BLACK
6
CONTINUOUS
10
0.4184806299212598
20
0.7535604724409448
11
0.4187144881889764
21
0.7533605511811023
0
LINE
8
BLACK
6
CONTINUOUS
10
0.4187144881889764
20
0.7533605511811023
11
0.4187147637795275
21
0.7533604330708661
0
LINE
8
BLACK
6
CONTINUOUS
10
0.4187147637795275
20
0.7533604330708661
11
0.4187148031496063
21
0.7533602755905512
0
LINE
8
BLACK
6
CONTINUOUS
10
0.4187148031496063
20
0.7533602755905512
11
0.425099251968504
21
0.7479025984251968
0
LINE
8
BLACK
6
CONTINUOUS
10
0.425099251968504
20
0.7479025984251968
11
0.430751811023622
21
0.7412794881889764
0
LINE
8
BLACK
6
CONTINUOUS
10
0.430751811023622
20
0.7412794881889764
11
0.4352992913385827
21
0.7338540157480314
0
LINE
8
BLACK
6
CONTINUOUS
10
0.4352992913385827
20
0.7338540157480314
11
0.438629842519685
21
0.7258088582677166
0
LINE
8
BLACK
6
CONTINUOUS
10
0.438629842519685
20
0.7258088582677166
11
0.4406614960629921
21
0.7173418897637795
0
LINE
8
BLACK
6
CONTINUOUS
10
0.4406614960629921
20
0.7173418897637795
11
0.4413443307086614
21
0.7086614173228346
0
LINE
8
BLACK
6
CONTINUOUS
10
0.4413443307086614
20
0.7086614173228346
11
0.4406614960629921
21
0.6999809448818898
0
LINE
8
BLACK
6
CONTINUOUS
10
0.4406614960629921
20
0.6999809448818898
11
0.438629842519685
21
0.6915139763779528
0
LINE
8
BLACK
6
CONTINUOUS
10
0.438629842519685
20
0.6915139763779528
11
0.4352992913385827
21
0.6834688188976378
0
LINE
8
BLACK
6
CONTINUOUS
10
0.4352992913385827
20
0.6834688188976378
11
0.430751811023622
21
0.676043346456693
0
LINE
8
BLACK
6
CONTINUOUS
10
0.430751811023622
20
0.676043346456693
11
0.425099251968504
21
0.6694202362204724
0
LINE
8
BLACK
6
CONTINUOUS
10
0.425099251968504
20
0.6694202362204724
11
0.4187148031496063
21
0.6639625984251968
0
LINE
8
BLACK
6
CONTINUOUS
10
0.4187148031496063
20
0.6639625984251968
11
0.4187147637795275
21
0.6639624015748031
0
LINE
8
BLACK
6
CONTINUOUS
10
0.4187147637795275
20
0.6639624015748031
11
0.4187144881889764
21
0.6639623228346456
0
LINE
8
BLACK
6
CONTINUOUS
10
0.4187144881889764
20
0.6639623228346456
11
0.4184806299212598
21
0.6637623622047244
0
LINE
8
BLACK
6
CONTINUOUS
10
0.4184806299212598
20
0.6637623622047244
11
0.4184806692913386
21
0.6637623622047244
0
LINE
8
BLACK
6
CONTINUOUS
10
0.4184806692913386
20
0.6637623622047244
11
0.4173237795275591
21
0.6633858661417322
0
LINE
8
BLACK
6
CONTINUOUS
10
0.4173237795275591
20
0.6633858661417322
11
0.4173232677165354
21
0.6633860236220472
0
LINE
8
BLACK
6
CONTINUOUS
10
0.4173232677165354
20
0.6633860236220472
11
0.4173228346456693
21
0.6633858267716535
0
LINE
8
BLACK
6
CONTINUOUS
10
0.4173228346456693
20
0.6633858267716535
11
0.3503937007874016
21
0.6633858267716535
0
LINE
8
BLACK
6
CONTINUOUS
10
0.3503937007874016
20
0.6633858267716535
11
0.3501692519685039
21
0.6634788188976378
0
LINE
8
BLACK
6
CONTINUOUS
10
0.3501692519685039
20
0.6634788188976378
11
0.3493368503937008
21
0.663693622047244
0
LINE
8
BLACK
6
CONTINUOUS
10
0.3493368503937008
20
0.663693622047244
11
0.3493368897637795
21
0.663693622047244
0
LINE
8
BLACK
6
CONTINUOUS
10
0.3493368897637795
20
0.663693622047244
11
0.342758937007874
21
0.6686318503937008
0
LINE
8
BLACK
6
CONTINUOUS
10
0.342758937007874
20
0.6686318503937008
11
0.3370191338582677
21
0.6745233464566929
0
LINE
8
BLACK
6
CONTINUOUS
10
0.3370191338582677
20
0.6745233464566929
11
0.332254094488189
21
0.6812278346456693
0
LINE
8
BLACK
6
CONTINUOUS
10
0.332254094488189
20
0.6812278346456693
11
0.3285773622047244
21
0.6885855905511811
0
LINE
8
BLACK
6
CONTINUOUS
10
0.3285773622047244
20
0.6885855905511811
11
0.3283813779527559
21
0.6891996062992126
0
LINE
8
BLACK
6
CONTINUOUS
10
0.3283813779527559
20
0.6891996062992126
11
0.3264940944881889
21
0.6898287007874015
0
LINE
8
BLACK
6
CONTINUOUS
10
0.3264940944881889
20
0.6898287007874015
11
0.3255923228346457
21
0.6903170078740157
0
LINE
8
BLACK
6
CONTINUOUS
10
0.3255923228346457
20
0.6903170078740157
11
0.3245350393700787
21
0.6920379527559055
0
LINE
8
BLACK
6
CONTINUOUS
10
0.3245350393700787
20
0.6920379527559055
11
0.3248312992125984
21
0.6940359448818898
0
LINE
8
BLACK
6
CONTINUOUS
10
0.3248312992125984
20
0.6940359448818898
11
0.3263425196850394
21
0.6953759842519684
0
LINE
8
BLACK
6
CONTINUOUS
10
0.3263425196850394
20
0.6953759842519684
11
0.3264094881889764
21
0.6953778346456693
0
LINE
8
BLACK
6
CONTINUOUS
10
0.3264094881889764
20
0.6953778346456693
11
0.3260764173228347
21
0.6964214566929133
0
LINE
8
BLACK
6
CONTINUOUS
10
0.3260764173228347
20
0.6964214566929133
11
0.324810905511811
21
0.704548779527559
0
LINE
8
BLACK
6
CONTINUOUS
10
0.324810905511811
20
0.704548779527559
11
0.324810905511811
21
0.712774094488189
0
LINE
8
BLACK
6
CONTINUOUS
10
0.324810905511811
20
0.712774094488189
11
0.3253729527559055
21
0.7163838188976378
0
LINE
8
BLACK
6
CONTINUOUS
10
0.3253729527559055
20
0.7163838188976378
11
0.3247868110236221
21
0.7175561417322834
0
LINE
8
BLACK
6
CONTINUOUS
10
0.3247868110236221
20
0.7175561417322834
11
0.3244944488188976
21
0.718539094488189
0
LINE
8
BLACK
6
CONTINUOUS
10
0.3244944488188976
20
0.718539094488189
11
0.3245354330708661
21
0.7187107874015748
0
LINE
8
BLACK
6
CONTINUOUS
10
0.3245354330708661
20
0.7187107874015748
11
0.3244750787401575
21
0.7188766535433071
0
LINE
8
BLACK
6
CONTINUOUS
10
0.3244750787401575
20
0.7188766535433071
11
0.3244750787401575
21
0.7226261811023622
0
LINE
8
BLACK
6
CONTINUOUS
10
0.3244750787401575
20
0.7226261811023622
11
0.3246531496062992
21
0.7236361023622047
0
LINE
8
BLACK
6
CONTINUOUS
10
0.3246531496062992
20
0.7236361023622047
11
0.3247666141732283
21
0.7237713779527559
0
LINE
8
BLACK
6
CONTINUOUS
10
0.3247666141732283
20
0.7237713779527559
11
0.3247868110236221
21
0.7239466929133858
0
LINE
8
BLACK
6
CONTINUOUS
10
0.3247868110236221
20
0.7239466929133858
11
0.3266615748031496
21
0.727696220472441
0
LINE
8
BLACK
6
CONTINUOUS
10
0.3266615748031496
20
0.727696220472441
11
0.3271874803149606
21
0.7284053149606299
0
LINE
8
BLACK
6
CONTINUOUS
10
0.3271874803149606
20
0.7284053149606299
11
0.3272146850393701
21
0.7284636220472441
0
LINE
8
BLACK
6
CONTINUOUS
10
0.3272146850393701
20
0.7284636220472441
11
0.3290894488188976
21
0.7303383858267717
0
LINE
8
BLACK
6
CONTINUOUS
10
0.3290894488188976
20
0.7303383858267717
11
0.3295324409448819
21
0.7306485826771654
0
LINE
8
BLACK
6
CONTINUOUS
10
0.3295324409448819
20
0.7306485826771654
11
0.332254094488189
21
0.7360950393700787
0
LINE
8
BLACK
6
CONTINUOUS
10
0.332254094488189
20
0.7360950393700787
11
0.3370191338582677
21
0.7427994881889763
0
LINE
8
BLACK
6
CONTINUOUS
10
0.3370191338582677
20
0.7427994881889763
11
0.3427589763779528
21
0.7486909842519684
0
LINE
8
BLACK
6
CONTINUOUS
10
0.3427589763779528
20
0.7486909842519684
11
0.3493368897637795
21
0.7536292125984252
0
LINE
8
BLACK
6
CONTINUOUS
10
0.3493368897637795
20
0.7536292125984252
11
0.3501691338582677
21
0.7538440157480315
0
LINE
8
BLACK
6
CONTINUOUS
10
0.3501691338582677
20
0.7538440157480315
11
0.3503937007874016
21
0.7539370078740157
0
LINE
8
BLACK
6
CONTINUOUS
10
0.3503937007874016
20
0.7539370078740157
11
0.4173228346456693
21
0.7539370078740157
0
LINE
8
BLACK
6
CONTINUOUS
10
0.4173228346456693
20
0.7539370078740157
11
0.4173232677165354
21
0.7539368503937007
0
LINE
8
BLACK
6
CONTINUOUS
10
0.3509681102362205
20
0.75
11
0.3479602755905511
21
0.7480817322834645
0
LINE
8
BLACK
6
CONTINUOUS
10
0.3479602755905511
20
0.7480817322834645
11
0.3418132283464567
21
0.7425353937007874
0
LINE
8
BLACK
6
CONTINUOUS
10
0.3418132283464567
20
0.7425353937007874
11
0.336675905511811
21
0.7360425984251968
0
LINE
8
BLACK
6
CONTINUOUS
10
0.336675905511811
20
0.7360425984251968
11
0.3350485039370079
21
0.7330779921259842
0
LINE
8
BLACK
6
CONTINUOUS
10
0.3350485039370079
20
0.7330779921259842
11
0.3443007086614173
21
0.7330779921259842
0
LINE
8
BLACK
6
CONTINUOUS
10
0.3443007086614173
20
0.7330779921259842
11
0.3451700787401575
21
0.7329247244094488
0
LINE
8
BLACK
6
CONTINUOUS
10
0.3451700787401575
20
0.7329247244094488
11
0.3452344488188976
21
0.7329264566929133
0
LINE
8
BLACK
6
CONTINUOUS
10
0.3452344488188976
20
0.7329264566929133
11
0.3508587401574803
21
0.7310516929133858
0
LINE
8
BLACK
6
CONTINUOUS
10
0.3508587401574803
20
0.7310516929133858
11
0.3517605118110236
21
0.7305634251968504
0
LINE
8
BLACK
6
CONTINUOUS
10
0.3517605118110236
20
0.7305634251968504
11
0.3528177952755905
21
0.7288424409448818
0
LINE
8
BLACK
6
CONTINUOUS
10
0.3528177952755905
20
0.7288424409448818
11
0.3525215354330709
21
0.7268444881889764
0
LINE
8
BLACK
6
CONTINUOUS
10
0.3525215354330709
20
0.7268444881889764
11
0.3510102755905511
21
0.7255044094488189
0
LINE
8
BLACK
6
CONTINUOUS
10
0.3510102755905511
20
0.7255044094488189
11
0.3489912204724409
21
0.725449251968504
0
LINE
8
BLACK
6
CONTINUOUS
10
0.3489912204724409
20
0.725449251968504
11
0.3438215748031496
21
0.7271724803149606
0
LINE
8
BLACK
6
CONTINUOUS
10
0.3438215748031496
20
0.7271724803149606
11
0.335623937007874
21
0.7271724803149606
0
LINE
8
BLACK
6
CONTINUOUS
10
0.335623937007874
20
0.7271724803149606
11
0.3329264566929134
21
0.7258237401574803
0
LINE
8
BLACK
6
CONTINUOUS
10
0.3329264566929134
20
0.7258237401574803
11
0.3317293307086614
21
0.7246266141732284
0
LINE
8
BLACK
6
CONTINUOUS
10
0.3317293307086614
20
0.7246266141732284
11
0.3303805905511811
21
0.7219291338582677
0
LINE
8
BLACK
6
CONTINUOUS
10
0.3303805905511811
20
0.7219291338582677
11
0.3303805905511811
21
0.7195737007874016
0
LINE
8
BLACK
6
CONTINUOUS
10
0.3303805905511811
20
0.7195737007874016
11
0.3317293307086614
21
0.7168762204724409
0
LINE
8
BLACK
6
CONTINUOUS
10
0.3317293307086614
20
0.7168762204724409
11
0.3329264566929134
21
0.715679094488189
0
LINE
8
BLACK
6
CONTINUOUS
10
0.3329264566929134
20
0.715679094488189
11
0.3359574409448819
21
0.714163622047244
0
LINE
8
BLACK
6
CONTINUOUS
10
0.3359574409448819
20
0.714163622047244
11
0.3431420866141732
21
0.7123674409448819
0
LINE
8
BLACK
6
CONTINUOUS
10
0.3431420866141732
20
0.7123674409448819
11
0.3436075196850394
21
0.7121598818897638
0
LINE
8
BLACK
6
CONTINUOUS
10
0.3436075196850394
20
0.7121598818897638
11
0.3437464566929134
21
0.7121438582677165
0
LINE
8
BLACK
6
CONTINUOUS
10
0.3437464566929134
20
0.7121438582677165
11
0.3474959842519685
21
0.710269094488189
0
LINE
8
BLACK
6
CONTINUOUS
10
0.3474959842519685
20
0.710269094488189
11
0.3482050393700787
21
0.7097431889763779
0
LINE
8
BLACK
6
CONTINUOUS
10
0.3482050393700787
20
0.7097431889763779
11
0.3482633858267716
21
0.7097159842519685
0
LINE
8
BLACK
6
CONTINUOUS
10
0.3482633858267716
20
0.7097159842519685
11
0.3501381496062992
21
0.7078412204724409
0
LINE
8
BLACK
6
CONTINUOUS
10
0.3501381496062992
20
0.7078412204724409
11
0.3506444094488189
21
0.7071181496062992
0
LINE
8
BLACK
6
CONTINUOUS
10
0.3506444094488189
20
0.7071181496062992
11
0.3506912598425197
21
0.7070738188976378
0
LINE
8
BLACK
6
CONTINUOUS
10
0.3506912598425197
20
0.7070738188976378
11
0.3525660236220473
21
0.7033242913385827
0
LINE
8
BLACK
6
CONTINUOUS
10
0.3525660236220473
20
0.7033242913385827
11
0.3528583858267716
21
0.7023413779527559
0
LINE
8
BLACK
6
CONTINUOUS
10
0.3528583858267716
20
0.7023413779527559
11
0.3528173622047244
21
0.7021696850393701
0
LINE
8
BLACK
6
CONTINUOUS
10
0.3528173622047244
20
0.7021696850393701
11
0.3528777559055118
21
0.702003779527559
0
LINE
8
BLACK
6
CONTINUOUS
10
0.3528777559055118
20
0.702003779527559
11
0.3528777559055118
21
0.6982542519685039
0
LINE
8
BLACK
6
CONTINUOUS
10
0.3528777559055118
20
0.6982542519685039
11
0.35269968503937
21
0.6972443307086614
0
LINE
8
BLACK
6
CONTINUOUS
10
0.35269968503937
20
0.6972443307086614
11
0.3525861811023622
21
0.6971090944881889
0
LINE
8
BLACK
6
CONTINUOUS
10
0.3525861811023622
20
0.6971090944881889
11
0.3525660236220473
21
0.6969337401574803
0
LINE
8
BLACK
6
CONTINUOUS
10
0.3525660236220473
20
0.6969337401574803
11
0.3506912598425197
21
0.6931842125984252
0
LINE
8
BLACK
6
CONTINUOUS
10
0.3506912598425197
20
0.6931842125984252
11
0.3501653149606299
21
0.692475157480315
0
LINE
8
BLACK
6
CONTINUOUS
10
0.3501653149606299
20
0.692475157480315
11
0.3501381496062992
21
0.6924168110236221
0
LINE
8
BLACK
6
CONTINUOUS
10
0.3501381496062992
20
0.6924168110236221
11
0.3482634251968504
21
0.6905420472440945
0
LINE
8
BLACK
6
CONTINUOUS
10
0.3482634251968504
20
0.6905420472440945
11
0.3475402362204724
21
0.6900356692913385
0
LINE
8
BLACK
6
CONTINUOUS
10
0.3475402362204724
20
0.6900356692913385
11
0.3474959842519685
21
0.6899888976377953
0
LINE
8
BLACK
6
CONTINUOUS
10
0.3474959842519685
20
0.6899888976377953
11
0.3437464566929134
21
0.6881141338582677
0
LINE
8
BLACK
6
CONTINUOUS
10
0.3437464566929134
20
0.6881141338582677
11
0.3427635039370079
21
0.6878217716535433
0
LINE
8
BLACK
6
CONTINUOUS
10
0.3427635039370079
20
0.6878217716535433
11
0.342591811023622
21
0.6878627952755906
0
LINE
8
BLACK
6
CONTINUOUS
10
0.342591811023622
20
0.6878627952755906
11
0.3424259448818898
21
0.6878024015748031
0
LINE
8
BLACK
6
CONTINUOUS
10
0.3424259448818898
20
0.6878024015748031
11
0.3330955905511811
21
0.6878024015748031
0
LINE
8
BLACK
6
CONTINUOUS
10
0.3330955905511811
20
0.6878024015748031
11
0.3366758661417323
21
0.6812802362204724
0
LINE
8
BLACK
6
CONTINUOUS
10
0.3366758661417323
20
0.6812802362204724
11
0.3418132283464567
21
0.6747874803149606
0
LINE
8
BLACK
6
CONTINUOUS
10
0.3418132283464567
20
0.6747874803149606
11
0.3479602755905511
21
0.6692411023622047
0
LINE
8
BLACK
6
CONTINUOUS
10
0.3479602755905511
20
0.6692411023622047
11
0.3509681102362205
21
0.6673228346456693
0
LINE
8
BLACK
6
CONTINUOUS
10
0.3509681102362205
20
0.6673228346456693
11
0.4166826771653543
21
0.6673228346456693
0
LINE
8
BLACK
6
CONTINUOUS
10
0.4166826771653543
20
0.6673228346456693
11
0.4194464960629921
21
0.669332716535433
0
LINE
8
BLACK
6
CONTINUOUS
10
0.4194464960629921
20
0.669332716535433
11
0.4251822440944882
21
0.6750730708661418
0
LINE
8
BLACK
6
CONTINUOUS
10
0.4251822440944882
20
0.6750730708661418
11
0.4299499606299212
21
0.6816396456692914
0
LINE
8
BLACK
6
CONTINUOUS
10
0.4299499606299212
20
0.6816396456692914
11
0.4332413779527559
21
0.6881033464566929
0
LINE
8
BLACK
6
CONTINUOUS
10
0.4332413779527559
20
0.6881033464566929
11
0.4324146850393701
21
0.6878024015748031
0
LINE
8
BLACK
6
CONTINUOUS
10
0.4324146850393701
20
0.6878024015748031
11
0.4099175196850394
21
0.6878024015748031
0
LINE
8
BLACK
6
CONTINUOUS
10
0.4099175196850394
20
0.6878024015748031
11
0.4089075984251969
21
0.6879804724409448
0
LINE
8
BLACK
6
CONTINUOUS
10
0.4089075984251969
20
0.6879804724409448
11
0.4073603543307087
21
0.689278779527559
0
LINE
8
BLACK
6
CONTINUOUS
10
0.4073603543307087
20
0.689278779527559
11
0.4070096062992126
21
0.6912679133858267
0
LINE
8
BLACK
6
CONTINUOUS
10
0.4070096062992126
20
0.6912679133858267
11
0.4080195275590551
21
0.6930170866141732
0
LINE
8
BLACK
6
CONTINUOUS
10
0.4080195275590551
20
0.6930170866141732
11
0.4099175196850394
21
0.6937079133858267
0
LINE
8
BLACK
6
CONTINUOUS
10
0.4099175196850394
20
0.6937079133858267
11
0.4182133464566929
21
0.6937079133858267
0
LINE
8
BLACK
6
CONTINUOUS
10
0.4182133464566929
20
0.6937079133858267
11
0.4182133464566929
21
0.7211218897637796
0
LINE
8
BLACK
6
CONTINUOUS
10
0.4182133464566929
20
0.7211218897637796
11
0.4157549606299212
21
0.7186635039370078
0
LINE
8
BLACK
6
CONTINUOUS
10
0.4157549606299212
20
0.7186635039370078
11
0.4150318503937008
21
0.7181572440944882
0
LINE
8
BLACK
6
CONTINUOUS
10
0.4150318503937008
20
0.7181572440944882
11
0.4149875590551181
21
0.7181103937007873
0
LINE
8
BLACK
6
CONTINUOUS
10
0.4149875590551181
20
0.7181103937007873
11
0.411238031496063
21
0.7162356299212598
0
LINE
8
BLACK
6
CONTINUOUS
10
0.411238031496063
20
0.7162356299212598
11
0.4102550787401575
21
0.7159432677165354
0
LINE
8
BLACK
6
CONTINUOUS
10
0.4102550787401575
20
0.7159432677165354
11
0.4082905905511811
21
0.7164125590551181
0
LINE
8
BLACK
6
CONTINUOUS
10
0.4082905905511811
20
0.7164125590551181
11
0.4070872834645669
21
0.7180348031496063
0
LINE
8
BLACK
6
CONTINUOUS
10
0.4070872834645669
20
0.7180348031496063
11
0.4072083464566929
21
0.7200509842519685
0
LINE
8
BLACK
6
CONTINUOUS
10
0.4072083464566929
20
0.7200509842519685
11
0.4085970078740158
21
0.7215176771653543
0
LINE
8
BLACK
6
CONTINUOUS
10
0.4085970078740158
20
0.7215176771653543
11
0.4119179527559055
21
0.7231781496062992
0
LINE
8
BLACK
6
CONTINUOUS
10
0.4119179527559055
20
0.7231781496062992
11
0.4151218503937008
21
0.7263820472440945
0
LINE
8
BLACK
6
CONTINUOUS
10
0.4151218503937008
20
0.7263820472440945
11
0.4187092519685039
21
0.7317631496062992
0
LINE
8
BLACK
6
CONTINUOUS
10
0.4187092519685039
20
0.7317631496062992
11
0.4194176377952756
21
0.7325046850393701
0
LINE
8
BLACK
6
CONTINUOUS
10
0.4194176377952756
20
0.7325046850393701
11
0.4195805905511811
21
0.7325524015748032
0
LINE
8
BLACK
6
CONTINUOUS
10
0.4195805905511811
20
0.7325524015748032
11
0.4196897244094488
21
0.7326824015748031
0
LINE
8
BLACK
6
CONTINUOUS
10
0.4196897244094488
20
0.7326824015748031
11
0.4205335039370079
21
0.732831220472441
0
LINE
8
BLACK
6
CONTINUOUS
10
0.4205335039370079
20
0.732831220472441
11
0.4213561417322835
21
0.7330718897637795
0
LINE
8
BLACK
6
CONTINUOUS
10
0.4213561417322835
20
0.7330718897637795
11
0.4215116141732284
21
0.7330037007874015
0
LINE
8
BLACK
6
CONTINUOUS
10
0.4215116141732284
20
0.7330037007874015
11
0.4216788582677165
21
0.7330331496062992
0
LINE
8
BLACK
6
CONTINUOUS
10
0.4216788582677165
20
0.7330331496062992
11
0.422420905511811
21
0.7326047244094488
0
LINE
8
BLACK
6
CONTINUOUS
10
0.422420905511811
20
0.7326047244094488
11
0.4232057480314961
21
0.7322603543307087
0
LINE
8
BLACK
6
CONTINUOUS
10
0.4232057480314961
20
0.7322603543307087
11
0.4232809842519685
21
0.7321081102362205
0
LINE
8
BLACK
6
CONTINUOUS
10
0.4232809842519685
20
0.7321081102362205
11
0.423428031496063
21
0.7320232283464567
0
LINE
8
BLACK
6
CONTINUOUS
10
0.423428031496063
20
0.7320232283464567
11
0.4237211023622047
21
0.7312179921259843
0
LINE
8
BLACK
6
CONTINUOUS
10
0.4237211023622047
20
0.7312179921259843
11
0.4241009448818898
21
0.7304497637795275
0
LINE
8
BLACK
6
CONTINUOUS
10
0.4241009448818898
20
0.7304497637795275
11
0.4240607480314961
21
0.7302848425196851
0
LINE
8
BLACK
6
CONTINUOUS
10
0.4240607480314961
20
0.7302848425196851
11
0.4241188582677165
21
0.7301252362204724
0
LINE
8
BLACK
6
CONTINUOUS
10
0.4241188582677165
20
0.7301252362204724
11
0.4241188582677165
21
0.6937079133858267
0
LINE
8
BLACK
6
CONTINUOUS
10
0.4241188582677165
20
0.6937079133858267
11
0.4324146850393701
21
0.6937079133858267
0
LINE
8
BLACK
6
CONTINUOUS
10
0.4324146850393701
20
0.6937079133858267
11
0.4334246062992126
21
0.693529842519685
0
LINE
8
BLACK
6
CONTINUOUS
10
0.4334246062992126
20
0.693529842519685
11
0.4347767716535433
21
0.6923952362204724
0
LINE
8
BLACK
6
CONTINUOUS
10
0.4347767716535433
20
0.6923952362204724
11
0.4361386614173228
21
0.6965889763779527
0
LINE
8
BLACK
6
CONTINUOUS
10
0.4361386614173228
20
0.6965889763779527
11
0.4374074803149606
21
0.7046039763779527
0
LINE
8
BLACK
6
CONTINUOUS
10
0.4374074803149606
20
0.7046039763779527
11
0.4374074803149606
21
0.7127188582677165
0
LINE
8
BLACK
6
CONTINUOUS
10
0.4374074803149606
20
0.7127188582677165
11
0.4361386614173228
21
0.7207338582677165
0
LINE
8
BLACK
6
CONTINUOUS
10
0.4361386614173228
20
0.7207338582677165
11
0.4336322834645669
21
0.7284519291338583
0
LINE
8
BLACK
6
CONTINUOUS
10
0.4336322834645669
20
0.7284519291338583
11
0.4299499606299212
21
0.735683188976378
0
LINE
8
BLACK
6
CONTINUOUS
10
0.4299499606299212
20
0.735683188976378
11
0.4251822440944882
21
0.7422497637795276
0
LINE
8
BLACK
6
CONTINUOUS
10
0.4251822440944882
20
0.7422497637795276
11
0.4194464960629921
21
0.7479901181102362
0
LINE
8
BLACK
6
CONTINUOUS
10
0.4194464960629921
20
0.7479901181102362
11
0.4166826771653543
21
0.75
0
LINE
8
BLACK
6
CONTINUOUS
10
0.4166826771653543
20
0.75
11
0.3509681102362205
21
0.75
0
LINE
8
BLACK
6
CONTINUOUS
10
0.3285931496062992
20
0.7045217322834646
11
0.3299721653543307
21
0.6963579921259843
0
LINE
8
BLACK
6
CONTINUOUS
10
0.3299721653543307
20
0.6963579921259843
11
0.3305479527559055
21
0.6947023622047244
0
LINE
8
BLACK
6
CONTINUOUS
10
0.3305479527559055
20
0.6947023622047244
11
0.3335312598425197
21
0.6937079133858267
0
LINE
8
BLACK
6
CONTINUOUS
10
0.3335312598425197
20
0.6937079133858267
11
0.3417288976377953
21
0.6937079133858267
0
LINE
8
BLACK
6
CONTINUOUS
10
0.3417288976377953
20
0.6937079133858267
11
0.3444263385826772
21
0.695056653543307
0
LINE
8
BLACK
6
CONTINUOUS
10
0.3444263385826772
20
0.695056653543307
11
0.3456234645669291
21
0.6962538188976378
0
LINE
8
BLACK
6
CONTINUOUS
10
0.3456234645669291
20
0.6962538188976378
11
0.3469722440944882
21
0.6989512992125985
0
LINE
8
BLACK
6
CONTINUOUS
10
0.3469722440944882
20
0.6989512992125985
11
0.3469722440944882
21
0.7013067322834645
0
LINE
8
BLACK
6
CONTINUOUS
10
0.3469722440944882
20
0.7013067322834645
11
0.3456235039370079
21
0.7040042125984252
0
LINE
8
BLACK
6
CONTINUOUS
10
0.3456235039370079
20
0.7040042125984252
11
0.3444263779527559
21
0.7052013385826772
0
LINE
8
BLACK
6
CONTINUOUS
10
0.3444263779527559
20
0.7052013385826772
11
0.3413953937007874
21
0.7067168503937008
0
LINE
8
BLACK
6
CONTINUOUS
10
0.3413953937007874
20
0.7067168503937008
11
0.334210748031496
21
0.7085129921259843
0
LINE
8
BLACK
6
CONTINUOUS
10
0.334210748031496
20
0.7085129921259843
11
0.3337452755905512
21
0.7087205905511811
0
LINE
8
BLACK
6
CONTINUOUS
10
0.3337452755905512
20
0.7087205905511811
11
0.3336063779527559
21
0.7087365748031496
0
LINE
8
BLACK
6
CONTINUOUS
10
0.3336063779527559
20
0.7087365748031496
11
0.3298568503937008
21
0.7106113385826771
0
LINE
8
BLACK
6
CONTINUOUS
10
0.3298568503937008
20
0.7106113385826771
11
0.3291477559055118
21
0.7111372440944882
0
LINE
8
BLACK
6
CONTINUOUS
10
0.3291477559055118
20
0.7111372440944882
11
0.3290894488188976
21
0.7111644488188976
0
LINE
8
BLACK
6
CONTINUOUS
10
0.3290894488188976
20
0.7111644488188976
11
0.3285931496062992
21
0.711660748031496
0
LINE
8
BLACK
6
CONTINUOUS
10
0.3285931496062992
20
0.711660748031496
11
0.3285931496062992
21
0.7045217322834646
0
LINE
8
BLACK
6
CONTINUOUS
10
0.4645669291338583
20
0.7736220472440944
11
0.4659588582677165
21
0.7730454724409449
0
LINE
8
BLACK
6
CONTINUOUS
10
0.4659588582677165
20
0.7730454724409449
11
0.4665354330708661
21
0.7716535433070866
0
LINE
8
BLACK
6
CONTINUOUS
10
0.4665354330708661
20
0.7716535433070866
11
0.4665354330708661
21
0.6456692913385826
0
LINE
8
BLACK
6
CONTINUOUS
10
0.4665354330708661
20
0.6456692913385826
11
0.4659588582677165
21
0.6442773622047244
0
LINE
8
BLACK
6
CONTINUOUS
10
0.4659588582677165
20
0.6442773622047244
11
0.4645669291338583
21
0.6437007874015748
0
LINE
8
BLACK
6
CONTINUOUS
10
0.4645669291338583
20
0.6437007874015748
11
0.4448818897637795
21
0.6437007874015748
0
LINE
8
BLACK
6
CONTINUOUS
10
0.4448818897637795
20
0.6437007874015748
11
0.3188976377952756
21
0.6437007874015748
0
LINE
8
BLACK
6
CONTINUOUS
10
0.3188976377952756
20
0.6437007874015748
11
0.2992125984251968
21
0.6437007874015748
0
LINE
8
BLACK
6
CONTINUOUS
10
0.2992125984251968
20
0.6437007874015748
11
0.2978206692913386
21
0.6442773622047244
0
LINE
8
BLACK
6
CONTINUOUS
10
0.2978206692913386
20
0.6442773622047244
11
0.2972440944881889
21
0.6456692913385826
0
LINE
8
BLACK
6
CONTINUOUS
10
0.2972440944881889
20
0.6456692913385826
11
0.2972440944881889
21
0.7716535433070866
0
LINE
8
BLACK
6
CONTINUOUS
10
0.2972440944881889
20
0.7716535433070866
11
0.2978206692913386
21
0.7730454724409449
0
LINE
8
BLACK
6
CONTINUOUS
10
0.2978206692913386
20
0.7730454724409449
11
0.2992125984251968
21
0.7736220472440944
0
LINE
8
BLACK
6
CONTINUOUS
10
0.2992125984251968
20
0.7736220472440944
11
0.4645669291338583
21
0.7736220472440944
0
LINE
8
BLACK
6
CONTINUOUS
10
0.3011811023622047
20
0.6476377952755905
11
0.3141452755905512
21
0.6476377952755905
0
LINE
8
BLACK
6
CONTINUOUS
10
0.3141452755905512
20
0.6476377952755905
11
0.3011811023622047
21
0.660601968503937
0
LINE
8
BLACK
6
CONTINUOUS
10
0.3011811023622047
20
0.660601968503937
11
0.3011811023622047
21
0.6476377952755905
0
LINE
8
BLACK
6
CONTINUOUS
10
0.3197129921259843
20
0.7696850393700787
11
0.3011811023622047
21
0.7511531496062992
0
LINE
8
BLACK
6
CONTINUOUS
10
0.3011811023622047
20
0.7511531496062992
11
0.3011811023622047
21
0.66616968503937
0
LINE
8
BLACK
6
CONTINUOUS
10
0.3011811023622047
20
0.66616968503937
11
0.3197129921259843
21
0.6476377952755905
0
LINE
8
BLACK
6
CONTINUOUS
10
0.3197129921259843
20
0.6476377952755905
11
0.4440665354330708
21
0.6476377952755905
0
LINE
8
BLACK
6
CONTINUOUS
10
0.4440665354330708
20
0.6476377952755905
11
0.4625984251968504
21
0.66616968503937
0
LINE
8
BLACK
6
CONTINUOUS
10
0.4625984251968504
20
0.66616968503937
11
0.4625984251968504
21
0.7511531496062992
0
LINE
8
BLACK
6
CONTINUOUS
10
0.4625984251968504
20
0.7511531496062992
11
0.4440665354330708
21
0.7696850393700787
0
LINE
8
BLACK
6
CONTINUOUS
10
0.4440665354330708
20
0.7696850393700787
11
0.3197129921259843
21
0.7696850393700787
0
LINE
8
BLACK
6
CONTINUOUS
10
0.4496342519685039
20
0.6476377952755905
11
0.4625984251968504
21
0.6476377952755905
0
LINE
8
BLACK
6
CONTINUOUS
10
0.4625984251968504
20
0.6476377952755905
11
0.4625984251968504
21
0.660601968503937
0
LINE
8
BLACK
6
CONTINUOUS
10
0.4625984251968504
20
0.660601968503937
11
0.4496342519685039
21
0.6476377952755905
0
LINE
8
BLACK
6
CONTINUOUS
10
0.3011811023622047
20
0.7696850393700787
11
0.3011811023622047
21
0.7567208661417323
0
LINE
8
BLACK
6
CONTINUOUS
10
0.3011811023622047
20
0.7567208661417323
11
0.3141452755905512
21
0.7696850393700787
0
LINE
8
BLACK
6
CONTINUOUS
10
0.3141452755905512
20
0.7696850393700787
11
0.3011811023622047
21
0.7696850393700787
0
LINE
8
BLACK
6
CONTINUOUS
10
0.4496342519685039
20
0.7696850393700787
11
0.4625984251968504
21
0.7567208661417323
0
LINE
8
BLACK
6
CONTINUOUS
10
0.4625984251968504
20
0.7567208661417323
11
0.4625984251968504
21
0.7696850393700787
0
LINE
8
BLACK
6
CONTINUOUS
10
0.4625984251968504
20
0.7696850393700787
11
0.4496342519685039
21
0.7696850393700787
0
LINE
8
BLACK
6
CONTINUOUS
10
2.0026044488188974
20
0.7324955118110236
11
2.0037161023622048
21
0.7308091732283465
0
LINE
8
BLACK
6
CONTINUOUS
10
2.0037161023622048
20
0.7308091732283465
11
2.010379527559055
21
0.702822716535433
0
LINE
8
BLACK
6
CONTINUOUS
10
2.010379527559055
20
0.702822716535433
11
2.014863464566929
21
0.7196374803149607
0
LINE
8
BLACK
6
CONTINUOUS
10
2.014863464566929
20
0.7196374803149607
11
2.0152957480314959
21
0.7205674015748031
0
LINE
8
BLACK
6
CONTINUOUS
10
2.0152957480314959
20
0.7205674015748031
11
2.0155167322834644
21
0.7207225590551181
0
LINE
8
BLACK
6
CONTINUOUS
10
2.0155167322834644
20
0.7207225590551181
11
2.0156311417322836
21
0.7209670866141732
0
LINE
8
BLACK
6
CONTINUOUS
10
2.0156311417322836
20
0.7209670866141732
11
2.0163237007874013
21
0.7212890551181103
0
LINE
8
BLACK
6
CONTINUOUS
10
2.0163237007874013
20
0.7212890551181103
11
2.0169488976377954
21
0.7217279133858268
0
LINE
8
BLACK
6
CONTINUOUS
10
2.0169488976377954
20
0.7217279133858268
11
2.0172178740157478
21
0.7217047244094488
0
LINE
8
BLACK
6
CONTINUOUS
10
2.0172178740157478
20
0.7217047244094488
11
2.0174627165354329
21
0.7218185039370079
0
LINE
8
BLACK
6
CONTINUOUS
10
2.0174627165354329
20
0.7218185039370079
11
2.0182000787401573
21
0.7216199999999999
0
LINE
8
BLACK
6
CONTINUOUS
10
2.0182000787401573
20
0.7216199999999999
11
2.0189612598425195
21
0.7215542913385826
0
LINE
8
BLACK
6
CONTINUOUS
10
2.0189612598425195
20
0.7215542913385826
11
2.019152440944882
21
0.7213635826771654
0
LINE
8
BLACK
6
CONTINUOUS
10
2.019152440944882
20
0.7213635826771654
11
2.0194130314960628
21
0.7212933858267716
0
LINE
8
BLACK
6
CONTINUOUS
10
2.0194130314960628
20
0.7212933858267716
11
2.0198502755905512
21
0.7206673622047244
0
LINE
8
BLACK
6
CONTINUOUS
10
2.0198502755905512
20
0.7206673622047244
11
2.0203911417322833
21
0.7201277559055118
0
LINE
8
BLACK
6
CONTINUOUS
10
2.0203911417322833
20
0.7201277559055118
11
2.0204149606299211
21
0.7198588582677166
0
LINE
8
BLACK
6
CONTINUOUS
10
2.0204149606299211
20
0.7198588582677166
11
2.0205696062992127
21
0.7196374803149607
0
LINE
8
BLACK
6
CONTINUOUS
10
2.0205696062992127
20
0.7196374803149607
11
2.0250535039370079
21
0.702822716535433
0
LINE
8
BLACK
6
CONTINUOUS
10
2.0250535039370079
20
0.702822716535433
11
2.0317170078740157
21
0.7308091338582677
0
LINE
8
BLACK
6
CONTINUOUS
10
2.0317170078740157
20
0.7308091338582677
11
2.0321241338582676
21
0.7317503543307087
0
LINE
8
BLACK
6
CONTINUOUS
10
2.0321241338582676
20
0.7317503543307087
11
2.0337455118110235
21
0.7329548031496063
0
LINE
8
BLACK
6
CONTINUOUS
10
2.0337455118110235
20
0.7329548031496063
11
2.035761811023622
21
0.7328353149606299
0
LINE
8
BLACK
6
CONTINUOUS
10
2.035761811023622
20
0.7328353149606299
11
2.0372294881889763
21
0.7314477165354331
0
LINE
8
BLACK
6
CONTINUOUS
10
2.0372294881889763
20
0.7314477165354331
11
2.0374618897637795
21
0.7294412992125984
0
LINE
8
BLACK
6
CONTINUOUS
10
2.0374618897637795
20
0.7294412992125984
11
2.028088031496063
21
0.690071220472441
0
LINE
8
BLACK
6
CONTINUOUS
10
2.028088031496063
20
0.690071220472441
11
2.027680905511811
21
0.6891300393700788
0
LINE
8
BLACK
6
CONTINUOUS
10
2.027680905511811
20
0.6891300393700788
11
2.0274322834645671
21
0.6889453937007873
0
LINE
8
BLACK
6
CONTINUOUS
10
2.0274322834645671
20
0.6889453937007873
11
2.027301023622047
21
0.6886647244094488
0
LINE
8
BLACK
6
CONTINUOUS
10
2.027301023622047
20
0.6886647244094488
11
2.0266423228346455
21
0.6883585433070866
0
LINE
8
BLACK
6
CONTINUOUS
10
2.0266423228346455
20
0.6883585433070866
11
2.0260595275590552
21
0.6879255905511811
0
LINE
8
BLACK
6
CONTINUOUS
10
2.0260595275590552
20
0.6879255905511811
11
2.0257503543307087
21
0.687943937007874
0
LINE
8
BLACK
6
CONTINUOUS
10
2.0257503543307087
20
0.687943937007874
11
2.025469409448819
21
0.6878133070866141
0
LINE
8
BLACK
6
CONTINUOUS
10
2.025469409448819
20
0.6878133070866141
11
2.0247681496062993
21
0.6880021259842519
0
LINE
8
BLACK
6
CONTINUOUS
10
2.0247681496062993
20
0.6880021259842519
11
2.0240432283464567
21
0.6880450787401574
0
LINE
8
BLACK
6
CONTINUOUS
10
2.0240432283464567
20
0.6880450787401574
11
2.0238180708661417
21
0.6882579527559055
0
LINE
8
BLACK
6
CONTINUOUS
10
2.0238180708661417
20
0.6882579527559055
11
2.0235190944881891
21
0.6883384251968504
0
LINE
8
BLACK
6
CONTINUOUS
10
2.0235190944881891
20
0.6883384251968504
11
2.0231033070866142
21
0.6889337401574803
0
LINE
8
BLACK
6
CONTINUOUS
10
2.0231033070866142
20
0.6889337401574803
11
2.0225755511811023
21
0.6894326771653543
0
LINE
8
BLACK
6
CONTINUOUS
10
2.0225755511811023
20
0.6894326771653543
11
2.0225398818897635
21
0.6897403543307087
0
LINE
8
BLACK
6
CONTINUOUS
10
2.0225398818897635
20
0.6897403543307087
11
2.0223625196850392
21
0.6899943307086615
0
LINE
8
BLACK
6
CONTINUOUS
10
2.0223625196850392
20
0.6899943307086615
11
2.0177164960629921
21
0.7074168110236221
0
LINE
8
BLACK
6
CONTINUOUS
10
2.0177164960629921
20
0.7074168110236221
11
2.0130705511811025
21
0.6899943307086615
0
LINE
8
BLACK
6
CONTINUOUS
10
2.0130705511811025
20
0.6899943307086615
11
2.0126382677165355
21
0.6890644094488189
0
LINE
8
BLACK
6
CONTINUOUS
10
2.0126382677165355
20
0.6890644094488189
11
2.0123846850393701
21
0.6888864566929134
0
LINE
8
BLACK
6
CONTINUOUS
10
2.0123846850393701
20
0.6888864566929134
11
2.0122459842519684
21
0.6886094881889764
0
LINE
8
BLACK
6
CONTINUOUS
10
2.0122459842519684
20
0.6886094881889764
11
2.0115794488188974
21
0.6883211811023622
0
LINE
8
BLACK
6
CONTINUOUS
10
2.0115794488188974
20
0.6883211811023622
11
2.0109851181102361
21
0.687903937007874
0
LINE
8
BLACK
6
CONTINUOUS
10
2.0109851181102361
20
0.687903937007874
11
2.0106765354330709
21
0.6879305905511811
0
LINE
8
BLACK
6
CONTINUOUS
10
2.0106765354330709
20
0.6879305905511811
11
2.0103922047244094
21
0.6878075590551181
0
LINE
8
BLACK
6
CONTINUOUS
10
2.0103922047244094
20
0.6878075590551181
11
2.0096962598425194
21
0.6880151574803149
0
LINE
8
BLACK
6
CONTINUOUS
10
2.0096962598425194
20
0.6880151574803149
11
2.0089727952755907
21
0.6880775590551181
0
LINE
8
BLACK
6
CONTINUOUS
10
2.0089727952755907
20
0.6880775590551181
11
2.0087534645669289
21
0.6882963779527559
0
LINE
8
BLACK
6
CONTINUOUS
10
2.0087534645669289
20
0.6882963779527559
11
2.0084566929133856
21
0.6883848818897638
0
LINE
8
BLACK
6
CONTINUOUS
10
2.0084566929133856
20
0.6883848818897638
11
2.0080570472440944
21
0.6889911023622047
0
LINE
8
BLACK
6
CONTINUOUS
10
2.0080570472440944
20
0.6889911023622047
11
2.0075428740157482
21
0.6895040551181102
0
LINE
8
BLACK
6
CONTINUOUS
10
2.0075428740157482
20
0.6895040551181102
11
2.0075154724409447
21
0.6898126377952756
0
LINE
8
BLACK
6
CONTINUOUS
10
2.0075154724409447
20
0.6898126377952756
11
2.0073450393700787
21
0.690071220472441
0
LINE
8
BLACK
6
CONTINUOUS
10
2.0073450393700787
20
0.690071220472441
11
1.9979712204724409
21
0.7294412992125984
0
LINE
8
BLACK
6
CONTINUOUS
10
1.9979712204724409
20
0.7294412992125984
11
1.9979105118110236
21
0.7304650393700787
0
LINE
8
BLACK
6
CONTINUOUS
10
1.9979105118110236
20
0.7304650393700787
11
1.998815157480315
21
0.732270905511811
0
LINE
8
BLACK
6
CONTINUOUS
10
1.998815157480315
20
0.732270905511811
11
2.0006689370078741
21
0.7330728346456693
0
LINE
8
BLACK
6
CONTINUOUS
10
2.0006689370078741
20
0.7330728346456693
11
2.0026044488188974
21
0.7324955118110236
0
LINE
8
BLACK
6
CONTINUOUS
10
2.047468503937008
20
0.7538440551181103
11
2.0483009448818899
21
0.7536292125984252
0
LINE
8
BLACK
6
CONTINUOUS
10
2.0483009448818899
20
0.7536292125984252
11
2.0483009055118111
21
0.7536292125984252
0
LINE
8
BLACK
6
CONTINUOUS
10
2.0483009055118111
20
0.7536292125984252
11
2.0548788582677164
21
0.7486909842519684
0
LINE
8
BLACK
6
CONTINUOUS
10
2.0548788582677164
20
0.7486909842519684
11
2.060618661417323
21
0.7427994881889763
0
LINE
8
BLACK
6
CONTINUOUS
10
2.060618661417323
20
0.7427994881889763
11
2.0653837007874016
21
0.7360949999999999
0
LINE
8
BLACK
6
CONTINUOUS
10
2.0653837007874016
20
0.7360949999999999
11
2.0681034645669292
21
0.7306522834645669
0
LINE
8
BLACK
6
CONTINUOUS
10
2.0681034645669292
20
0.7306522834645669
11
2.0684900000000002
21
0.7303655905511811
0
LINE
8
BLACK
6
CONTINUOUS
10
2.0684900000000002
20
0.7303655905511811
11
2.0685483464566929
21
0.7303383858267717
0
LINE
8
BLACK
6
CONTINUOUS
10
2.0685483464566929
20
0.7303383858267717
11
2.0704231102362205
21
0.7284636220472441
0
LINE
8
BLACK
6
CONTINUOUS
10
2.0704231102362205
20
0.7284636220472441
11
2.0709293700787401
21
0.7277405511811024
0
LINE
8
BLACK
6
CONTINUOUS
10
2.0709293700787401
20
0.7277405511811024
11
2.0709762204724407
21
0.727696220472441
0
LINE
8
BLACK
6
CONTINUOUS
10
2.0709762204724407
20
0.727696220472441
11
2.0728509842519687
21
0.7239466929133858
0
LINE
8
BLACK
6
CONTINUOUS
10
2.0728509842519687
20
0.7239466929133858
11
2.0731433464566931
21
0.7229637795275591
0
LINE
8
BLACK
6
CONTINUOUS
10
2.0731433464566931
20
0.7229637795275591
11
2.0731023228346457
21
0.7227920866141732
0
LINE
8
BLACK
6
CONTINUOUS
10
2.0731023228346457
20
0.7227920866141732
11
2.0731627165354332
21
0.7226261811023622
0
LINE
8
BLACK
6
CONTINUOUS
10
2.0731627165354332
20
0.7226261811023622
11
2.0731627165354332
21
0.7188766535433071
0
LINE
8
BLACK
6
CONTINUOUS
10
2.0731627165354332
20
0.7188766535433071
11
2.0730094094488187
21
0.7180072834645669
0
LINE
8
BLACK
6
CONTINUOUS
10
2.0730094094488187
20
0.7180072834645669
11
2.0730111811023622
21
0.717942874015748
0
LINE
8
BLACK
6
CONTINUOUS
10
2.0730111811023622
20
0.717942874015748
11
2.072336968503937
21
0.7159203149606299
0
LINE
8
BLACK
6
CONTINUOUS
10
2.072336968503937
20
0.7159203149606299
11
2.0728268897637796
21
0.7127740551181102
0
LINE
8
BLACK
6
CONTINUOUS
10
2.0728268897637796
20
0.7127740551181102
11
2.0728268897637796
21
0.7045487401574803
0
LINE
8
BLACK
6
CONTINUOUS
10
2.0728268897637796
20
0.7045487401574803
11
2.071561338582677
21
0.6964214173228346
0
LINE
8
BLACK
6
CONTINUOUS
10
2.071561338582677
20
0.6964214173228346
11
2.0706694094488189
21
0.6936269291338583
0
LINE
8
BLACK
6
CONTINUOUS
10
2.0706694094488189
20
0.6936269291338583
11
2.0712198818897636
21
0.693529842519685
0
LINE
8
BLACK
6
CONTINUOUS
10
2.0712198818897636
20
0.693529842519685
11
2.0727671259842517
21
0.6922315354330708
0
LINE
8
BLACK
6
CONTINUOUS
10
2.0727671259842517
20
0.6922315354330708
11
2.0731178740157481
21
0.6902424015748031
0
LINE
8
BLACK
6
CONTINUOUS
10
2.0731178740157481
20
0.6902424015748031
11
2.0721079527559056
21
0.6884932283464567
0
LINE
8
BLACK
6
CONTINUOUS
10
2.0721079527559056
20
0.6884932283464567
11
2.0702099606299211
21
0.6878024015748031
0
LINE
8
BLACK
6
CONTINUOUS
10
2.0702099606299211
20
0.6878024015748031
11
2.0686690944881891
21
0.6878024015748031
0
LINE
8
BLACK
6
CONTINUOUS
10
2.0686690944881891
20
0.6878024015748031
11
2.0653837007874016
21
0.6812277952755905
0
LINE
8
BLACK
6
CONTINUOUS
10
2.0653837007874016
20
0.6812277952755905
11
2.060618661417323
21
0.6745233464566929
0
LINE
8
BLACK
6
CONTINUOUS
10
2.060618661417323
20
0.6745233464566929
11
2.0548788188976377
21
0.6686318503937008
0
LINE
8
BLACK
6
CONTINUOUS
10
2.0548788188976377
20
0.6686318503937008
11
2.0483009055118111
21
0.663693622047244
0
LINE
8
BLACK
6
CONTINUOUS
10
2.0483009055118111
20
0.663693622047244
11
2.0474686220472442
21
0.6634788582677166
0
LINE
8
BLACK
6
CONTINUOUS
10
2.0474686220472442
20
0.6634788582677166
11
2.0472440944881889
21
0.6633858267716535
0
LINE
8
BLACK
6
CONTINUOUS
10
2.0472440944881889
20
0.6633858267716535
11
1.9803149606299213
21
0.6633858267716535
0
LINE
8
BLACK
6
CONTINUOUS
10
1.9803149606299213
20
0.6633858267716535
11
1.9803144881889763
21
0.6633860236220472
0
LINE
8
BLACK
6
CONTINUOUS
10
1.9803144881889763
20
0.6633860236220472
11
1.9803140157480315
21
0.6633858661417322
0
LINE
8
BLACK
6
CONTINUOUS
10
1.9803140157480315
20
0.6633858661417322
11
1.979157125984252
21
0.6637623622047244
0
LINE
8
BLACK
6
CONTINUOUS
10
1.979157125984252
20
0.6637623622047244
11
1.9791571653543307
21
0.6637623622047244
0
LINE
8
BLACK
6
CONTINUOUS
10
1.9791571653543307
20
0.6637623622047244
11
1.9789232677165354
21
0.6639623228346456
0
LINE
8
BLACK
6
CONTINUOUS
10
1.9789232677165354
20
0.6639623228346456
11
1.9789230314960629
21
0.6639624015748031
0
LINE
8
BLACK
6
CONTINUOUS
10
1.9789230314960629
20
0.6639624015748031
11
1.9789229527559056
21
0.6639625984251968
0
LINE
8
BLACK
6
CONTINUOUS
10
1.9789229527559056
20
0.6639625984251968
11
1.9725385433070866
21
0.6694202362204724
0
LINE
8
BLACK
6
CONTINUOUS
10
1.9725385433070866
20
0.6694202362204724
11
1.9668859842519684
21
0.676043346456693
0
LINE
8
BLACK
6
CONTINUOUS
10
1.9668859842519684
20
0.676043346456693
11
1.9623385039370078
21
0.6834688188976378
0
LINE
8
BLACK
6
CONTINUOUS
10
1.9623385039370078
20
0.6834688188976378
11
1.9590079527559054
21
0.6915139763779528
0
LINE
8
BLACK
6
CONTINUOUS
10
1.9590079527559054
20
0.6915139763779528
11
1.9569762992125983
21
0.6999809448818898
0
LINE
8
BLACK
6
CONTINUOUS
10
1.9569762992125983
20
0.6999809448818898
11
1.956293464566929
21
0.7086614173228346
0
LINE
8
BLACK
6
CONTINUOUS
10
1.956293464566929
20
0.7086614173228346
11
1.9569762992125983
21
0.7173418897637795
0
LINE
8
BLACK
6
CONTINUOUS
10
1.9569762992125983
20
0.7173418897637795
11
1.9590079527559054
21
0.7258088582677166
0
LINE
8
BLACK
6
CONTINUOUS
10
1.9590079527559054
20
0.7258088582677166
11
1.9623385039370078
21
0.7338540157480314
0
LINE
8
BLACK
6
CONTINUOUS
10
1.9623385039370078
20
0.7338540157480314
11
1.9668859842519684
21
0.7412794881889764
0
LINE
8
BLACK
6
CONTINUOUS
10
1.9668859842519684
20
0.7412794881889764
11
1.9725385433070866
21
0.7479025984251968
0
LINE
8
BLACK
6
CONTINUOUS
10
1.9725385433070866
20
0.7479025984251968
11
1.9789229527559056
21
0.7533602755905512
0
LINE
8
BLACK
6
CONTINUOUS
10
1.9789229527559056
20
0.7533602755905512
11
1.9789230314960629
21
0.7533604330708661
0
LINE
8
BLACK
6
CONTINUOUS
10
1.9789230314960629
20
0.7533604330708661
11
1.9789232677165354
21
0.7533605511811023
0
LINE
8
BLACK
6
CONTINUOUS
10
1.9789232677165354
20
0.7533605511811023
11
1.9791571653543307
21
0.7535604724409448
0
LINE
8
BLACK
6
CONTINUOUS
10
1.9791571653543307
20
0.7535604724409448
11
1.979157125984252
21
0.7535604724409448
0
LINE
8
BLACK
6
CONTINUOUS
10
1.979157125984252
20
0.7535604724409448
11
1.9803140157480315
21
0.753936968503937
0
LINE
8
BLACK
6
CONTINUOUS
10
1.9803140157480315
20
0.753936968503937
11
1.9803144881889763
21
0.7539368503937007
0
LINE
8
BLACK
6
CONTINUOUS
10
1.9803144881889763
20
0.7539368503937007
11
1.9803149606299213
21
0.7539370078740157
0
LINE
8
BLACK
6
CONTINUOUS
10
1.9803149606299213
20
0.7539370078740157
11
2.0472440944881889
21
0.7539370078740157
0
LINE
8
BLACK
6
CONTINUOUS
10
2.0472440944881889
20
0.7539370078740157
11
2.047468503937008
21
0.7538440551181103
0
LINE
8
BLACK
6
CONTINUOUS
10
1.9809551181102363
20
0.75
11
1.9781912992125983
21
0.7479901181102362
0
LINE
8
BLACK
6
CONTINUOUS
10
1.9781912992125983
20
0.7479901181102362
11
1.9724555511811024
21
0.7422497637795276
0
LINE
8
BLACK
6
CONTINUOUS
10
1.9724555511811024
20
0.7422497637795276
11
1.9676878346456692
21
0.735683188976378
0
LINE
8
BLACK
6
CONTINUOUS
10
1.9676878346456692
20
0.735683188976378
11
1.9640055118110236
21
0.7284519291338583
0
LINE
8
BLACK
6
CONTINUOUS
10
1.9640055118110236
20
0.7284519291338583
11
1.9614991338582677
21
0.7207338582677165
0
LINE
8
BLACK
6
CONTINUOUS
10
1.9614991338582677
20
0.7207338582677165
11
1.9602303149606299
21
0.7127188582677165
0
LINE
8
BLACK
6
CONTINUOUS
10
1.9602303149606299
20
0.7127188582677165
11
1.9602303149606299
21
0.7046039763779527
0
LINE
8
BLACK
6
CONTINUOUS
10
1.9602303149606299
20
0.7046039763779527
11
1.9614991338582677
21
0.6965889763779527
0
LINE
8
BLACK
6
CONTINUOUS
10
1.9614991338582677
20
0.6965889763779527
11
1.962533031496063
21
0.6934051968503937
0
LINE
8
BLACK
6
CONTINUOUS
10
1.962533031496063
20
0.6934051968503937
11
1.9626265748031495
21
0.6940359448818898
0
LINE
8
BLACK
6
CONTINUOUS
10
1.9626265748031495
20
0.6940359448818898
11
1.9641377952755905
21
0.6953759842519684
0
LINE
8
BLACK
6
CONTINUOUS
10
1.9641377952755905
20
0.6953759842519684
11
1.9661568503937008
21
0.6954311417322835
0
LINE
8
BLACK
6
CONTINUOUS
10
1.9661568503937008
20
0.6954311417322835
11
1.9713265354330709
21
0.6937079133858267
0
LINE
8
BLACK
6
CONTINUOUS
10
1.9713265354330709
20
0.6937079133858267
11
1.9795241732283464
21
0.6937079133858267
0
LINE
8
BLACK
6
CONTINUOUS
10
1.9795241732283464
20
0.6937079133858267
11
1.9822216141732283
21
0.695056653543307
0
LINE
8
BLACK
6
CONTINUOUS
10
1.9822216141732283
20
0.695056653543307
11
1.9834187401574803
21
0.6962538188976378
0
LINE
8
BLACK
6
CONTINUOUS
10
1.9834187401574803
20
0.6962538188976378
11
1.9847675196850394
21
0.6989512992125985
0
LINE
8
BLACK
6
CONTINUOUS
10
1.9847675196850394
20
0.6989512992125985
11
1.9847675196850394
21
0.7013067322834645
0
LINE
8
BLACK
6
CONTINUOUS
10
1.9847675196850394
20
0.7013067322834645
11
1.9834187795275591
21
0.7040042125984252
0
LINE
8
BLACK
6
CONTINUOUS
10
1.9834187795275591
20
0.7040042125984252
11
1.982221653543307
21
0.7052013385826772
0
LINE
8
BLACK
6
CONTINUOUS
10
1.982221653543307
20
0.7052013385826772
11
1.9791906692913386
21
0.7067168503937008
0
LINE
8
BLACK
6
CONTINUOUS
10
1.9791906692913386
20
0.7067168503937008
11
1.9720060236220471
21
0.7085129921259843
0
LINE
8
BLACK
6
CONTINUOUS
10
1.9720060236220471
20
0.7085129921259843
11
1.9715405511811024
21
0.7087205905511811
0
LINE
8
BLACK
6
CONTINUOUS
10
1.9715405511811024
20
0.7087205905511811
11
1.971401653543307
21
0.7087365748031496
0
LINE
8
BLACK
6
CONTINUOUS
10
1.971401653543307
20
0.7087365748031496
11
1.9676521259842519
21
0.7106113385826771
0
LINE
8
BLACK
6
CONTINUOUS
10
1.9676521259842519
20
0.7106113385826771
11
1.966943031496063
21
0.7111372440944882
0
LINE
8
BLACK
6
CONTINUOUS
10
1.966943031496063
20
0.7111372440944882
11
1.9668847244094487
21
0.7111644488188976
0
LINE
8
BLACK
6
CONTINUOUS
10
1.9668847244094487
20
0.7111644488188976
11
1.9650099606299212
21
0.7130392125984252
0
LINE
8
BLACK
6
CONTINUOUS
10
1.9650099606299212
20
0.7130392125984252
11
1.9645036614173228
21
0.7137623228346457
0
LINE
8
BLACK
6
CONTINUOUS
10
1.9645036614173228
20
0.7137623228346457
11
1.9644568503937008
21
0.7138066141732283
0
LINE
8
BLACK
6
CONTINUOUS
10
1.9644568503937008
20
0.7138066141732283
11
1.9625820866141732
21
0.7175561417322834
0
LINE
8
BLACK
6
CONTINUOUS
10
1.9625820866141732
20
0.7175561417322834
11
1.9622897244094488
21
0.718539094488189
0
LINE
8
BLACK
6
CONTINUOUS
10
1.9622897244094488
20
0.718539094488189
11
1.9623307086614172
21
0.7187107874015748
0
LINE
8
BLACK
6
CONTINUOUS
10
1.9623307086614172
20
0.7187107874015748
11
1.9622703543307085
21
0.7188766535433071
0
LINE
8
BLACK
6
CONTINUOUS
10
1.9622703543307085
20
0.7188766535433071
11
1.9622703543307085
21
0.7226261811023622
0
LINE
8
BLACK
6
CONTINUOUS
10
1.9622703543307085
20
0.7226261811023622
11
1.9624484251968504
21
0.7236361023622047
0
LINE
8
BLACK
6
CONTINUOUS
10
1.9624484251968504
20
0.7236361023622047
11
1.9625618897637795
21
0.7237713779527559
0
LINE
8
BLACK
6
CONTINUOUS
10
1.9625618897637795
20
0.7237713779527559
11
1.9625820866141732
21
0.7239466929133858
0
LINE
8
BLACK
6
CONTINUOUS
10
1.9625820866141732
20
0.7239466929133858
11
1.9644568503937008
21
0.727696220472441
0
LINE
8
BLACK
6
CONTINUOUS
10
1.9644568503937008
20
0.727696220472441
11
1.9649827559055117
21
0.7284053149606299
0
LINE
8
BLACK
6
CONTINUOUS
10
1.9649827559055117
20
0.7284053149606299
11
1.9650099606299212
21
0.7284636220472441
0
LINE
8
BLACK
6
CONTINUOUS
10
1.9650099606299212
20
0.7284636220472441
11
1.9668847244094487
21
0.7303383858267717
0
LINE
8
BLACK
6
CONTINUOUS
10
1.9668847244094487
20
0.7303383858267717
11
1.9676077952755906
21
0.7308446850393701
0
LINE
8
BLACK
6
CONTINUOUS
10
1.9676077952755906
20
0.7308446850393701
11
1.9676521259842519
21
0.7308914960629921
0
LINE
8
BLACK
6
CONTINUOUS
10
1.9676521259842519
20
0.7308914960629921
11
1.971401653543307
21
0.7327662598425196
0
LINE
8
BLACK
6
CONTINUOUS
10
1.971401653543307
20
0.7327662598425196
11
1.9723845669291338
21
0.733058622047244
0
LINE
8
BLACK
6
CONTINUOUS
10
1.9723845669291338
20
0.733058622047244
11
1.9725562598425197
21
0.7330176377952756
0
LINE
8
BLACK
6
CONTINUOUS
10
1.9725562598425197
20
0.7330176377952756
11
1.9727221653543308
21
0.7330779921259842
0
LINE
8
BLACK
6
CONTINUOUS
10
1.9727221653543308
20
0.7330779921259842
11
1.9820959842519685
21
0.7330779921259842
0
LINE
8
BLACK
6
CONTINUOUS
10
1.9820959842519685
20
0.7330779921259842
11
1.9829653543307086
21
0.7329247244094488
0
LINE
8
BLACK
6
CONTINUOUS
10
1.9829653543307086
20
0.7329247244094488
11
1.9830297244094488
21
0.7329264566929133
0
LINE
8
BLACK
6
CONTINUOUS
10
1.9830297244094488
20
0.7329264566929133
11
1.9886540157480315
21
0.7310516929133858
0
LINE
8
BLACK
6
CONTINUOUS
10
1.9886540157480315
20
0.7310516929133858
11
1.9895557874015748
21
0.7305634251968504
0
LINE
8
BLACK
6
CONTINUOUS
10
1.9895557874015748
20
0.7305634251968504
11
1.9906130708661416
21
0.7288424409448818
0
LINE
8
BLACK
6
CONTINUOUS
10
1.9906130708661416
20
0.7288424409448818
11
1.990316811023622
21
0.7268444881889764
0
LINE
8
BLACK
6
CONTINUOUS
10
1.990316811023622
20
0.7268444881889764
11
1.9888055511811022
21
0.7255044094488189
0
LINE
8
BLACK
6
CONTINUOUS
10
1.9888055511811022
20
0.7255044094488189
11
1.9867864960629922
21
0.725449251968504
0
LINE
8
BLACK
6
CONTINUOUS
10
1.9867864960629922
20
0.725449251968504
11
1.9816168503937008
21
0.7271724803149606
0
LINE
8
BLACK
6
CONTINUOUS
10
1.9816168503937008
20
0.7271724803149606
11
1.9734192125984251
21
0.7271724803149606
0
LINE
8
BLACK
6
CONTINUOUS
10
1.9734192125984251
20
0.7271724803149606
11
1.9707217322834645
21
0.7258237401574803
0
LINE
8
BLACK
6
CONTINUOUS
10
1.9707217322834645
20
0.7258237401574803
11
1.9695246062992124
21
0.7246266141732284
0
LINE
8
BLACK
6
CONTINUOUS
10
1.9695246062992124
20
0.7246266141732284
11
1.9681758661417323
21
0.7219291338582677
0
LINE
8
BLACK
6
CONTINUOUS
10
1.9681758661417323
20
0.7219291338582677
11
1.9681758661417323
21
0.7195737007874016
0
LINE
8
BLACK
6
CONTINUOUS
10
1.9681758661417323
20
0.7195737007874016
11
1.9695246062992124
21
0.7168762204724409
0
LINE
8
BLACK
6
CONTINUOUS
10
1.9695246062992124
20
0.7168762204724409
11
1.9707217322834645
21
0.715679094488189
0
LINE
8
BLACK
6
CONTINUOUS
10
1.9707217322834645
20
0.715679094488189
11
1.9737527165354329
21
0.714163622047244
0
LINE
8
BLACK
6
CONTINUOUS
10
1.9737527165354329
20
0.714163622047244
11
1.9809373622047244
21
0.7123674409448819
0
LINE
8
BLACK
6
CONTINUOUS
10
1.9809373622047244
20
0.7123674409448819
11
1.9814027952755906
21
0.7121598818897638
0
LINE
8
BLACK
6
CONTINUOUS
10
1.9814027952755906
20
0.7121598818897638
11
1.9815417322834645
21
0.7121438582677165
0
LINE
8
BLACK
6
CONTINUOUS
10
1.9815417322834645
20
0.7121438582677165
11
1.9852912598425196
21
0.710269094488189
0
LINE
8
BLACK
6
CONTINUOUS
10
1.9852912598425196
20
0.710269094488189
11
1.9860003149606298
21
0.7097431889763779
0
LINE
8
BLACK
6
CONTINUOUS
10
1.9860003149606298
20
0.7097431889763779
11
1.9860586614173228
21
0.7097159842519685
0
LINE
8
BLACK
6
CONTINUOUS
10
1.9860586614173228
20
0.7097159842519685
11
1.9879334251968503
21
0.7078412204724409
0
LINE
8
BLACK
6
CONTINUOUS
10
1.9879334251968503
20
0.7078412204724409
11
1.98843968503937
21
0.7071181496062992
0
LINE
8
BLACK
6
CONTINUOUS
10
1.98843968503937
20
0.7071181496062992
11
1.9884865354330707
21
0.7070738188976378
0
LINE
8
BLACK
6
CONTINUOUS
10
1.9884865354330707
20
0.7070738188976378
11
1.9903612992125983
21
0.7033242913385827
0
LINE
8
BLACK
6
CONTINUOUS
10
1.9903612992125983
20
0.7033242913385827
11
1.9906536614173227
21
0.7023413779527559
0
LINE
8
BLACK
6
CONTINUOUS
10
1.9906536614173227
20
0.7023413779527559
11
1.9906126377952755
21
0.7021696850393701
0
LINE
8
BLACK
6
CONTINUOUS
10
1.9906126377952755
20
0.7021696850393701
11
1.990673031496063
21
0.702003779527559
0
LINE
8
BLACK
6
CONTINUOUS
10
1.990673031496063
20
0.702003779527559
11
1.990673031496063
21
0.6982542519685039
0
LINE
8
BLACK
6
CONTINUOUS
10
1.990673031496063
20
0.6982542519685039
11
1.9904949606299212
21
0.6972443307086614
0
LINE
8
BLACK
6
CONTINUOUS
10
1.9904949606299212
20
0.6972443307086614
11
1.9903814566929134
21
0.6971090944881889
0
LINE
8
BLACK
6
CONTINUOUS
10
1.9903814566929134
20
0.6971090944881889
11
1.9903612992125983
21
0.6969337401574803
0
LINE
8
BLACK
6
CONTINUOUS
10
1.9903612992125983
20
0.6969337401574803
11
1.9884865354330707
21
0.6931842125984252
0
LINE
8
BLACK
6
CONTINUOUS
10
1.9884865354330707
20
0.6931842125984252
11
1.987960590551181
21
0.692475157480315
0
LINE
8
BLACK
6
CONTINUOUS
10
1.987960590551181
20
0.692475157480315
11
1.9879334251968503
21
0.6924168110236221
0
LINE
8
BLACK
6
CONTINUOUS
10
1.9879334251968503
20
0.6924168110236221
11
1.9860587007874015
21
0.6905420472440945
0
LINE
8
BLACK
6
CONTINUOUS
10
1.9860587007874015
20
0.6905420472440945
11
1.9853355118110236
21
0.6900356692913385
0
LINE
8
BLACK
6
CONTINUOUS
10
1.9853355118110236
20
0.6900356692913385
11
1.9852912598425196
21
0.6899888976377953
0
LINE
8
BLACK
6
CONTINUOUS
10
1.9852912598425196
20
0.6899888976377953
11
1.9815417322834645
21
0.6881141338582677
0
LINE
8
BLACK
6
CONTINUOUS
10
1.9815417322834645
20
0.6881141338582677
11
1.980558779527559
21
0.6878217716535433
0
LINE
8
BLACK
6
CONTINUOUS
10
1.980558779527559
20
0.6878217716535433
11
1.9803870866141733
21
0.6878627952755906
0
LINE
8
BLACK
6
CONTINUOUS
10
1.9803870866141733
20
0.6878627952755906
11
1.980221220472441
21
0.6878024015748031
0
LINE
8
BLACK
6
CONTINUOUS
10
1.980221220472441
20
0.6878024015748031
11
1.9708474015748032
21
0.6878024015748031
0
LINE
8
BLACK
6
CONTINUOUS
10
1.9708474015748032
20
0.6878024015748031
11
1.9699779921259841
21
0.6879557086614173
0
LINE
8
BLACK
6
CONTINUOUS
10
1.9699779921259841
20
0.6879557086614173
11
1.969913622047244
21
0.687953937007874
0
LINE
8
BLACK
6
CONTINUOUS
10
1.969913622047244
20
0.687953937007874
11
1.96428937007874
21
0.6898287007874015
0
LINE
8
BLACK
6
CONTINUOUS
10
1.96428937007874
20
0.6898287007874015
11
1.9635675196850393
21
0.6902196062992125
0
LINE
8
BLACK
6
CONTINUOUS
10
1.9635675196850393
20
0.6902196062992125
11
1.9640055118110236
21
0.688870905511811
0
LINE
8
BLACK
6
CONTINUOUS
10
1.9640055118110236
20
0.688870905511811
11
1.9676878346456692
21
0.6816396456692914
0
LINE
8
BLACK
6
CONTINUOUS
10
1.9676878346456692
20
0.6816396456692914
11
1.9724555511811024
21
0.6750730708661418
0
LINE
8
BLACK
6
CONTINUOUS
10
1.9724555511811024
20
0.6750730708661418
11
1.9781912992125983
21
0.669332716535433
0
LINE
8
BLACK
6
CONTINUOUS
10
1.9781912992125983
20
0.669332716535433
11
1.9809551181102363
21
0.6673228346456693
0
LINE
8
BLACK
6
CONTINUOUS
10
1.9809551181102363
20
0.6673228346456693
11
2.0466696850393702
21
0.6673228346456693
0
LINE
8
BLACK
6
CONTINUOUS
10
2.0466696850393702
20
0.6673228346456693
11
2.0496775196850394
21
0.6692411023622047
0
LINE
8
BLACK
6
CONTINUOUS
10
2.0496775196850394
20
0.6692411023622047
11
2.0558245669291337
21
0.6747874409448819
0
LINE
8
BLACK
6
CONTINUOUS
10
2.0558245669291337
20
0.6747874409448819
11
2.0609618897637794
21
0.6812802362204724
0
LINE
8
BLACK
6
CONTINUOUS
10
2.0609618897637794
20
0.6812802362204724
11
2.0645422047244093
21
0.6878024015748031
0
LINE
8
BLACK
6
CONTINUOUS
10
2.0645422047244093
20
0.6878024015748031
11
2.0458380314960629
21
0.6878024015748031
0
LINE
8
BLACK
6
CONTINUOUS
10
2.0458380314960629
20
0.6878024015748031
11
2.0452032677165355
21
0.6879143307086614
0
LINE
8
BLACK
6
CONTINUOUS
10
2.0452032677165355
20
0.6879143307086614
11
2.0450738188976376
21
0.6879029921259843
0
LINE
8
BLACK
6
CONTINUOUS
10
2.0450738188976376
20
0.6879029921259843
11
2.0450085826771653
21
0.6879486614173228
0
LINE
8
BLACK
6
CONTINUOUS
10
2.0450085826771653
20
0.6879486614173228
11
2.0448281102362205
21
0.6879804724409448
0
LINE
8
BLACK
6
CONTINUOUS
10
2.0448281102362205
20
0.6879804724409448
11
2.0441472440944883
21
0.6885517716535433
0
LINE
8
BLACK
6
CONTINUOUS
10
2.0441472440944883
20
0.6885517716535433
11
2.0434192519685039
21
0.6890615354330708
0
LINE
8
BLACK
6
CONTINUOUS
10
2.0434192519685039
20
0.6890615354330708
11
2.0433842913385827
21
0.6891920078740157
0
LINE
8
BLACK
6
CONTINUOUS
10
2.0433842913385827
20
0.6891920078740157
11
2.0432808661417323
21
0.689278779527559
0
LINE
8
BLACK
6
CONTINUOUS
10
2.0432808661417323
20
0.689278779527559
11
2.043126496062992
21
0.6901541338582677
0
LINE
8
BLACK
6
CONTINUOUS
10
2.043126496062992
20
0.6901541338582677
11
2.042896535433071
21
0.6910124803149607
0
LINE
8
BLACK
6
CONTINUOUS
10
2.042896535433071
20
0.6910124803149607
11
2.0429535826771654
21
0.691134842519685
0
LINE
8
BLACK
6
CONTINUOUS
10
2.0429535826771654
20
0.691134842519685
11
2.0429301181102364
21
0.6912679133858267
0
LINE
8
BLACK
6
CONTINUOUS
10
2.0429301181102364
20
0.6912679133858267
11
2.0433746062992126
21
0.6920378346456693
0
LINE
8
BLACK
6
CONTINUOUS
10
2.0433746062992126
20
0.6920378346456693
11
2.043750118110236
21
0.6928430708661417
0
LINE
8
BLACK
6
CONTINUOUS
10
2.043750118110236
20
0.6928430708661417
11
2.0657543700787402
21
0.7148474015748031
0
LINE
8
BLACK
6
CONTINUOUS
10
2.0657543700787402
20
0.7148474015748031
11
2.0672572047244095
21
0.7193557874015748
0
LINE
8
BLACK
6
CONTINUOUS
10
2.0672572047244095
20
0.7193557874015748
11
2.0672572047244095
21
0.7219291338582677
0
LINE
8
BLACK
6
CONTINUOUS
10
2.0672572047244095
20
0.7219291338582677
11
2.0659084645669292
21
0.7246266141732284
0
LINE
8
BLACK
6
CONTINUOUS
10
2.0659084645669292
20
0.7246266141732284
11
2.064711338582677
21
0.7258237401574803
0
LINE
8
BLACK
6
CONTINUOUS
10
2.064711338582677
20
0.7258237401574803
11
2.0620138582677163
21
0.7271724803149606
0
LINE
8
BLACK
6
CONTINUOUS
10
2.0620138582677163
20
0.7271724803149606
11
2.0540341338582677
21
0.7271724803149606
0
LINE
8
BLACK
6
CONTINUOUS
10
2.0540341338582677
20
0.7271724803149606
11
2.0513366535433071
21
0.7258237401574803
0
LINE
8
BLACK
6
CONTINUOUS
10
2.0513366535433071
20
0.7258237401574803
11
2.0498007086614174
21
0.7242877952755905
0
LINE
8
BLACK
6
CONTINUOUS
10
2.0498007086614174
20
0.7242877952755905
11
2.0489606692913385
21
0.7236996062992126
0
LINE
8
BLACK
6
CONTINUOUS
10
2.0489606692913385
20
0.7236996062992126
11
2.0469485826771652
21
0.7235235433070866
0
LINE
8
BLACK
6
CONTINUOUS
10
2.0469485826771652
20
0.7235235433070866
11
2.0452940157480315
21
0.7246820866141732
0
LINE
8
BLACK
6
CONTINUOUS
10
2.0452940157480315
20
0.7246820866141732
11
2.0447712992125986
21
0.726633031496063
0
LINE
8
BLACK
6
CONTINUOUS
10
2.0447712992125986
20
0.726633031496063
11
2.0456248818897635
21
0.7284636220472441
0
LINE
8
BLACK
6
CONTINUOUS
10
2.0456248818897635
20
0.7284636220472441
11
2.0474996456692911
21
0.7303383858267717
0
LINE
8
BLACK
6
CONTINUOUS
10
2.0474996456692911
20
0.7303383858267717
11
2.0482227165354332
21
0.7308446850393701
0
LINE
8
BLACK
6
CONTINUOUS
10
2.0482227165354332
20
0.7308446850393701
11
2.0482670472440945
21
0.7308914960629921
0
LINE
8
BLACK
6
CONTINUOUS
10
2.0482670472440945
20
0.7308914960629921
11
2.0520165748031496
21
0.7327662598425196
0
LINE
8
BLACK
6
CONTINUOUS
10
2.0520165748031496
20
0.7327662598425196
11
2.0529994881889762
21
0.733058622047244
0
LINE
8
BLACK
6
CONTINUOUS
10
2.0529994881889762
20
0.733058622047244
11
2.0531711811023623
21
0.7330176377952756
0
LINE
8
BLACK
6
CONTINUOUS
10
2.0531711811023623
20
0.7330176377952756
11
2.0533370866141731
21
0.7330779921259842
0
LINE
8
BLACK
6
CONTINUOUS
10
2.0533370866141731
20
0.7330779921259842
11
2.0625893307086614
21
0.7330779921259842
0
LINE
8
BLACK
6
CONTINUOUS
10
2.0625893307086614
20
0.7330779921259842
11
2.0609619291338581
21
0.7360425984251968
0
LINE
8
BLACK
6
CONTINUOUS
10
2.0609619291338581
20
0.7360425984251968
11
2.0558245669291337
21
0.7425353543307086
0
LINE
8
BLACK
6
CONTINUOUS
10
2.0558245669291337
20
0.7425353543307086
11
2.0496775196850394
21
0.7480817322834645
0
LINE
8
BLACK
6
CONTINUOUS
10
2.0496775196850394
20
0.7480817322834645
11
2.0466696850393702
21
0.75
0
LINE
8
BLACK
6
CONTINUOUS
10
2.0466696850393702
20
0.75
11
1.9809551181102363
21
0.75
0
LINE
8
BLACK
6
CONTINUOUS
10
2.0529666141732283
20
0.6937079133858267
11
2.0667439763779529
21
0.6937079133858267
0
LINE
8
BLACK
6
CONTINUOUS
10
2.0667439763779529
20
0.6937079133858267
11
2.0676655905511812
21
0.6963579527559055
0
LINE
8
BLACK
6
CONTINUOUS
10
2.0676655905511812
20
0.6963579527559055
11
2.0690446456692912
21
0.7045216929133858
0
LINE
8
BLACK
6
CONTINUOUS
10
2.0690446456692912
20
0.7045216929133858
11
2.0690446456692912
21
0.7097859842519685
0
LINE
8
BLACK
6
CONTINUOUS
10
2.0690446456692912
20
0.7097859842519685
11
2.0529666141732283
21
0.6937079133858267
0
LINE
8
BLACK
6
CONTINUOUS
10
2.0984251968503935
20
0.7736220472440944
11
2.0998171259842517
21
0.7730454724409449
0
LINE
8
BLACK
6
CONTINUOUS
10
2.0998171259842517
20
0.7730454724409449
11
2.1003937007874014
21
0.7716535433070866
0
LINE
8
BLACK
6
CONTINUOUS
10
2.1003937007874014
20
0.7716535433070866
11
2.1003937007874014
21
0.6456692913385826
0
LINE
8
BLACK
6
CONTINUOUS
10
2.1003937007874014
20
0.6456692913385826
11
2.0998171259842517
21
0.6442773622047244
0
LINE
8
BLACK
6
CONTINUOUS
10
2.0998171259842517
20
0.6442773622047244
11
2.0984251968503935
21
0.6437007874015748
0
LINE
8
BLACK
6
CONTINUOUS
10
2.0984251968503935
20
0.6437007874015748
11
2.0787401574803148
21
0.6437007874015748
0
LINE
8
BLACK
6
CONTINUOUS
10
2.0787401574803148
20
0.6437007874015748
11
1.9527559055118109
21
0.6437007874015748
0
LINE
8
BLACK
6
CONTINUOUS
10
1.9527559055118109
20
0.6437007874015748
11
1.9330708661417322
21
0.6437007874015748
0
LINE
8
BLACK
6
CONTINUOUS
10
1.9330708661417322
20
0.6437007874015748
11
1.931678937007874
21
0.6442773622047244
0
LINE
8
BLACK
6
CONTINUOUS
10
1.931678937007874
20
0.6442773622047244
11
1.9311023622047243
21
0.6456692913385826
0
LINE
8
BLACK
6
CONTINUOUS
10
1.9311023622047243
20
0.6456692913385826
11
1.9311023622047243
21
0.7716535433070866
0
LINE
8
BLACK
6
CONTINUOUS
10
1.9311023622047243
20
0.7716535433070866
11
1.931678937007874
21
0.7730454724409449
0
LINE
8
BLACK
6
CONTINUOUS
10
1.931678937007874
20
0.7730454724409449
11
1.9330708661417322
21
0.7736220472440944
0
LINE
8
BLACK
6
CONTINUOUS
10
1.9330708661417322
20
0.7736220472440944
11
2.0984251968503935
21
0.7736220472440944
0
LINE
8
BLACK
6
CONTINUOUS
10
1.9350393700787401
20
0.6476377952755905
11
1.9480035433070866
21
0.6476377952755905
0
LINE
8
BLACK
6
CONTINUOUS
10
1.9480035433070866
20
0.6476377952755905
11
1.9350393700787401
21
0.660601968503937
0
LINE
8
BLACK
6
CONTINUOUS
10
1.9350393700787401
20
0.660601968503937
11
1.9350393700787401
21
0.6476377952755905
0
LINE
8
BLACK
6
CONTINUOUS
10
1.9535712598425197
20
0.7696850393700787
11
1.9350393700787401
21
0.7511531496062992
0
LINE
8
BLACK
6
CONTINUOUS
10
1.9350393700787401
20
0.7511531496062992
11
1.9350393700787401
21
0.66616968503937
0
LINE
8
BLACK
6
CONTINUOUS
10
1.9350393700787401
20
0.66616968503937
11
1.9535712598425197
21
0.6476377952755905
0
LINE
8
BLACK
6
CONTINUOUS
10
1.9535712598425197
20
0.6476377952755905
11
2.0779248031496063
21
0.6476377952755905
0
LINE
8
BLACK
6
CONTINUOUS
10
2.0779248031496063
20
0.6476377952755905
11
2.0964566929133857
21
0.66616968503937
0
LINE
8
BLACK
6
CONTINUOUS
10
2.0964566929133857
20
0.66616968503937
11
2.0964566929133857
21
0.7511531496062992
0
LINE
8
BLACK
6
CONTINUOUS
10
2.0964566929133857
20
0.7511531496062992
11
2.0779248031496063
21
0.7696850393700787
0
LINE
8
BLACK
6
CONTINUOUS
10
2.0779248031496063
20
0.7696850393700787
11
1.9535712598425197
21
0.7696850393700787
0
LINE
8
BLACK
6
CONTINUOUS
10
2.0834925196850391
20
0.6476377952755905
11
2.0964566929133857
21
0.6476377952755905
0
LINE
8
BLACK
6
CONTINUOUS
10
2.0964566929133857
20
0.6476377952755905
11
2.0964566929133857
21
0.660601968503937
0
LINE
8
BLACK
6
CONTINUOUS
10
2.0964566929133857
20
0.660601968503937
11
2.0834925196850391
21
0.6476377952755905
0
LINE
8
BLACK
6
CONTINUOUS
10
1.9350393700787401
20
0.7696850393700787
11
1.9350393700787401
21
0.7567208661417323
0
LINE
8
BLACK
6
CONTINUOUS
10
1.9350393700787401
20
0.7567208661417323
11
1.9480035433070866
21
0.7696850393700787
0
LINE
8
BLACK
6
CONTINUOUS
10
1.9480035433070866
20
0.7696850393700787
11
1.9350393700787401
21
0.7696850393700787
0
LINE
8
BLACK
6
CONTINUOUS
10
2.0834925196850391
20
0.7696850393700787
11
2.0964566929133857
21
0.7567208661417323
0
LINE
8
BLACK
6
CONTINUOUS
10
2.0964566929133857
20
0.7567208661417323
11
2.0964566929133857
21
0.7696850393700787
0
LINE
8
BLACK
6
CONTINUOUS
10
2.0964566929133857
20
0.7696850393700787
11
2.0834925196850391
21
0.7696850393700787
0
LINE
8
BLACK
6
CONTINUOUS
10
0.653435905511811
20
0.6838252755905512
11
0.6541267322834645
21
0.6819272834645669
0
LINE
8
BLACK
6
CONTINUOUS
10
0.6541267322834645
20
0.6819272834645669
11
0.6541267322834645
21
0.6594301181102362
0
LINE
8
BLACK
6
CONTINUOUS
10
0.6541267322834645
20
0.6594301181102362
11
0.6539486614173228
21
0.6584201968503937
0
LINE
8
BLACK
6
CONTINUOUS
10
0.6539486614173228
20
0.6584201968503937
11
0.6526503543307086
21
0.6568729527559055
0
LINE
8
BLACK
6
CONTINUOUS
10
0.6526503543307086
20
0.6568729527559055
11
0.6506612204724409
21
0.6565222047244095
0
LINE
8
BLACK
6
CONTINUOUS
10
0.6506612204724409
20
0.6565222047244095
11
0.6489120472440945
21
0.6575321259842519
0
LINE
8
BLACK
6
CONTINUOUS
10
0.6489120472440945
20
0.6575321259842519
11
0.6482212204724409
21
0.6594301181102362
0
LINE
8
BLACK
6
CONTINUOUS
10
0.6482212204724409
20
0.6594301181102362
11
0.6482212204724409
21
0.6677259448818897
0
LINE
8
BLACK
6
CONTINUOUS
10
0.6482212204724409
20
0.6677259448818897
11
0.6208072440944882
21
0.6677259448818897
0
LINE
8
BLACK
6
CONTINUOUS
10
0.6208072440944882
20
0.6677259448818897
11
0.6232656299212598
21
0.6652675590551181
0
LINE
8
BLACK
6
CONTINUOUS
10
0.6232656299212598
20
0.6652675590551181
11
0.6237720078740158
21
0.6645444094488189
0
LINE
8
BLACK
6
CONTINUOUS
10
0.6237720078740158
20
0.6645444094488189
11
0.6238187401574803
21
0.664500157480315
0
LINE
8
BLACK
6
CONTINUOUS
10
0.6238187401574803
20
0.664500157480315
11
0.6256935039370078
21
0.6607506299212599
0
LINE
8
BLACK
6
CONTINUOUS
10
0.6256935039370078
20
0.6607506299212599
11
0.6259858661417322
21
0.6597677165354331
0
LINE
8
BLACK
6
CONTINUOUS
10
0.6259858661417322
20
0.6597677165354331
11
0.6255165748031496
21
0.6578031889763779
0
LINE
8
BLACK
6
CONTINUOUS
10
0.6255165748031496
20
0.6578031889763779
11
0.6238942913385827
21
0.6565998818897638
0
LINE
8
BLACK
6
CONTINUOUS
10
0.6238942913385827
20
0.6565998818897638
11
0.6218781496062992
21
0.6567209448818897
0
LINE
8
BLACK
6
CONTINUOUS
10
0.6218781496062992
20
0.6567209448818897
11
0.6204114566929134
21
0.6581096062992126
0
LINE
8
BLACK
6
CONTINUOUS
10
0.6204114566929134
20
0.6581096062992126
11
0.6187509842519685
21
0.6614305511811024
0
LINE
8
BLACK
6
CONTINUOUS
10
0.6187509842519685
20
0.6614305511811024
11
0.6155470078740157
21
0.6646345275590551
0
LINE
8
BLACK
6
CONTINUOUS
10
0.6155470078740157
20
0.6646345275590551
11
0.6101659842519684
21
0.6682218503937007
0
LINE
8
BLACK
6
CONTINUOUS
10
0.6101659842519684
20
0.6682218503937007
11
0.6094244881889763
21
0.6689302362204724
0
LINE
8
BLACK
6
CONTINUOUS
10
0.6094244881889763
20
0.6689302362204724
11
0.6093767716535433
21
0.6690931889763779
0
LINE
8
BLACK
6
CONTINUOUS
10
0.6093767716535433
20
0.6690931889763779
11
0.6092467322834646
21
0.6692023228346456
0
LINE
8
BLACK
6
CONTINUOUS
10
0.6092467322834646
20
0.6692023228346456
11
0.6090979133858268
21
0.6700462598425196
0
LINE
8
BLACK
6
CONTINUOUS
10
0.6090979133858268
20
0.6700462598425196
11
0.6088572440944882
21
0.6708687401574803
0
LINE
8
BLACK
6
CONTINUOUS
10
0.6088572440944882
20
0.6708687401574803
11
0.6089254330708661
21
0.6710242519685039
0
LINE
8
BLACK
6
CONTINUOUS
10
0.6089254330708661
20
0.6710242519685039
11
0.6088959842519684
21
0.6711914566929134
0
LINE
8
BLACK
6
CONTINUOUS
10
0.6088959842519684
20
0.6711914566929134
11
0.6093244094488189
21
0.6719335433070865
0
LINE
8
BLACK
6
CONTINUOUS
10
0.6093244094488189
20
0.6719335433070865
11
0.609668779527559
21
0.6727183464566929
0
LINE
8
BLACK
6
CONTINUOUS
10
0.609668779527559
20
0.6727183464566929
11
0.6098210236220473
21
0.6727936220472441
0
LINE
8
BLACK
6
CONTINUOUS
10
0.6098210236220473
20
0.6727936220472441
11
0.609905905511811
21
0.6729406299212598
0
LINE
8
BLACK
6
CONTINUOUS
10
0.609905905511811
20
0.6729406299212598
11
0.6107111417322835
21
0.6732337401574803
0
LINE
8
BLACK
6
CONTINUOUS
10
0.6107111417322835
20
0.6732337401574803
11
0.6114793700787401
21
0.6736135433070866
0
LINE
8
BLACK
6
CONTINUOUS
10
0.6114793700787401
20
0.6736135433070866
11
0.6116442913385827
21
0.6735733858267716
0
LINE
8
BLACK
6
CONTINUOUS
10
0.6116442913385827
20
0.6735733858267716
11
0.6118038976377953
21
0.6736314566929134
0
LINE
8
BLACK
6
CONTINUOUS
10
0.6118038976377953
20
0.6736314566929134
11
0.6482212204724409
21
0.6736314566929134
0
LINE
8
BLACK
6
CONTINUOUS
10
0.6482212204724409
20
0.6736314566929134
11
0.6482212204724409
21
0.6819272834645669
0
LINE
8
BLACK
6
CONTINUOUS
10
0.6482212204724409
20
0.6819272834645669
11
0.6483992913385827
21
0.6829372047244094
0
LINE
8
BLACK
6
CONTINUOUS
10
0.6483992913385827
20
0.6829372047244094
11
0.6496975984251968
21
0.6844844488188976
0
LINE
8
BLACK
6
CONTINUOUS
10
0.6496975984251968
20
0.6844844488188976
11
0.6516867322834645
21
0.6848351968503937
0
LINE
8
BLACK
6
CONTINUOUS
10
0.6516867322834645
20
0.6848351968503937
11
0.653435905511811
21
0.6838252755905512
0
LINE
8
BLACK
6
CONTINUOUS
10
0.6367561811023622
20
0.7222730314960629
11
0.636891968503937
21
0.7222872047244094
0
LINE
8
BLACK
6
CONTINUOUS
10
0.636891968503937
20
0.7222872047244094
11
0.6443910236220473
21
0.7204124409448819
0
LINE
8
BLACK
6
CONTINUOUS
10
0.6443910236220473
20
0.7204124409448819
11
0.6448564566929134
21
0.7202048818897637
0
LINE
8
BLACK
6
CONTINUOUS
10
0.6448564566929134
20
0.7202048818897637
11
0.6449953937007874
21
0.7201888582677165
0
LINE
8
BLACK
6
CONTINUOUS
10
0.6449953937007874
20
0.7201888582677165
11
0.6487449212598425
21
0.7183140944881889
0
LINE
8
BLACK
6
CONTINUOUS
10
0.6487449212598425
20
0.7183140944881889
11
0.6494538976377953
21
0.7177882677165354
0
LINE
8
BLACK
6
CONTINUOUS
10
0.6494538976377953
20
0.7177882677165354
11
0.6495122834645669
21
0.7177610236220472
0
LINE
8
BLACK
6
CONTINUOUS
10
0.6495122834645669
20
0.7177610236220472
11
0.6513870866141732
21
0.7158862598425196
0
LINE
8
BLACK
6
CONTINUOUS
10
0.6513870866141732
20
0.7158862598425196
11
0.6518934645669291
21
0.7151631102362205
0
LINE
8
BLACK
6
CONTINUOUS
10
0.6518934645669291
20
0.7151631102362205
11
0.6519402362204725
21
0.7151188188976377
0
LINE
8
BLACK
6
CONTINUOUS
10
0.6519402362204725
20
0.7151188188976377
11
0.653815
21
0.7113692913385826
0
LINE
8
BLACK
6
CONTINUOUS
10
0.653815
20
0.7113692913385826
11
0.6541073622047244
21
0.7103863779527559
0
LINE
8
BLACK
6
CONTINUOUS
10
0.6541073622047244
20
0.7103863779527559
11
0.6540663385826772
21
0.71021468503937
0
LINE
8
BLACK
6
CONTINUOUS
10
0.6540663385826772
20
0.71021468503937
11
0.6541267322834645
21
0.7100487795275591
0
LINE
8
BLACK
6
CONTINUOUS
10
0.6541267322834645
20
0.7100487795275591
11
0.6541267322834645
21
0.706299251968504
0
LINE
8
BLACK
6
CONTINUOUS
10
0.6541267322834645
20
0.706299251968504
11
0.6539486614173228
21
0.7052893307086614
0
LINE
8
BLACK
6
CONTINUOUS
10
0.6539486614173228
20
0.7052893307086614
11
0.653835157480315
21
0.705154094488189
0
LINE
8
BLACK
6
CONTINUOUS
10
0.653835157480315
20
0.705154094488189
11
0.653815
21
0.7049787401574803
0
LINE
8
BLACK
6
CONTINUOUS
10
0.653815
20
0.7049787401574803
11
0.6519402362204725
21
0.7012292125984252
0
LINE
8
BLACK
6
CONTINUOUS
10
0.6519402362204725
20
0.7012292125984252
11
0.6514142519685039
21
0.7005201181102362
0
LINE
8
BLACK
6
CONTINUOUS
10
0.6514142519685039
20
0.7005201181102362
11
0.6513870866141732
21
0.7004617716535433
0
LINE
8
BLACK
6
CONTINUOUS
10
0.6513870866141732
20
0.7004617716535433
11
0.6495122834645669
21
0.6985870078740157
0
LINE
8
BLACK
6
CONTINUOUS
10
0.6495122834645669
20
0.6985870078740157
11
0.6487892125984251
21
0.698080748031496
0
LINE
8
BLACK
6
CONTINUOUS
10
0.6487892125984251
20
0.698080748031496
11
0.6487449212598425
21
0.698033937007874
0
LINE
8
BLACK
6
CONTINUOUS
10
0.6487449212598425
20
0.698033937007874
11
0.6449953937007874
21
0.6961591732283464
0
LINE
8
BLACK
6
CONTINUOUS
10
0.6449953937007874
20
0.6961591732283464
11
0.6445069291338582
21
0.6960138976377953
0
LINE
8
BLACK
6
CONTINUOUS
10
0.6445069291338582
20
0.6960138976377953
11
0.6443910236220473
21
0.695935590551181
0
LINE
8
BLACK
6
CONTINUOUS
10
0.6443910236220473
20
0.695935590551181
11
0.636891968503937
21
0.6940608267716535
0
LINE
8
BLACK
6
CONTINUOUS
10
0.636891968503937
20
0.6940608267716535
11
0.6363040551181102
21
0.6940193700787401
0
LINE
8
BLACK
6
CONTINUOUS
10
0.6363040551181102
20
0.6940193700787401
11
0.6361758267716535
21
0.6939726771653543
0
LINE
8
BLACK
6
CONTINUOUS
10
0.6361758267716535
20
0.6939726771653543
11
0.6268020078740157
21
0.6939726771653543
0
LINE
8
BLACK
6
CONTINUOUS
10
0.6268020078740157
20
0.6939726771653543
11
0.6262216141732283
21
0.6940750393700788
0
LINE
8
BLACK
6
CONTINUOUS
10
0.6262216141732283
20
0.6940750393700788
11
0.6260858661417322
21
0.6940608267716535
0
LINE
8
BLACK
6
CONTINUOUS
10
0.6260858661417322
20
0.6940608267716535
11
0.618586811023622
21
0.695935590551181
0
LINE
8
BLACK
6
CONTINUOUS
10
0.618586811023622
20
0.695935590551181
11
0.6181213385826771
21
0.6961431889763779
0
LINE
8
BLACK
6
CONTINUOUS
10
0.6181213385826771
20
0.6961431889763779
11
0.6179824409448819
21
0.6961591732283464
0
LINE
8
BLACK
6
CONTINUOUS
10
0.6179824409448819
20
0.6961591732283464
11
0.6142329133858268
21
0.698033937007874
0
LINE
8
BLACK
6
CONTINUOUS
10
0.6142329133858268
20
0.698033937007874
11
0.6135238188976377
21
0.6985598425196851
0
LINE
8
BLACK
6
CONTINUOUS
10
0.6135238188976377
20
0.6985598425196851
11
0.6134655118110236
21
0.6985870472440945
0
LINE
8
BLACK
6
CONTINUOUS
10
0.6134655118110236
20
0.6985870472440945
11
0.611590748031496
21
0.700461811023622
0
LINE
8
BLACK
6
CONTINUOUS
10
0.611590748031496
20
0.700461811023622
11
0.6110844488188977
21
0.7011849212598426
0
LINE
8
BLACK
6
CONTINUOUS
10
0.6110844488188977
20
0.7011849212598426
11
0.6110376377952755
21
0.7012292125984252
0
LINE
8
BLACK
6
CONTINUOUS
10
0.6110376377952755
20
0.7012292125984252
11
0.609162874015748
21
0.7049787401574803
0
LINE
8
BLACK
6
CONTINUOUS
10
0.609162874015748
20
0.7049787401574803
11
0.6088705118110236
21
0.7059616929133858
0
LINE
8
BLACK
6
CONTINUOUS
10
0.6088705118110236
20
0.7059616929133858
11
0.6089114960629921
21
0.7061333858267717
0
LINE
8
BLACK
6
CONTINUOUS
10
0.6089114960629921
20
0.7061333858267717
11
0.6088511417322835
21
0.706299251968504
0
LINE
8
BLACK
6
CONTINUOUS
10
0.6088511417322835
20
0.706299251968504
11
0.6088511417322835
21
0.7100487795275591
0
LINE
8
BLACK
6
CONTINUOUS
10
0.6088511417322835
20
0.7100487795275591
11
0.6090292125984251
21
0.7110587007874015
0
LINE
8
BLACK
6
CONTINUOUS
10
0.6090292125984251
20
0.7110587007874015
11
0.6091426771653543
21
0.7111939763779528
0
LINE
8
BLACK
6
CONTINUOUS
10
0.6091426771653543
20
0.7111939763779528
11
0.609162874015748
21
0.7113692913385826
0
LINE
8
BLACK
6
CONTINUOUS
10
0.609162874015748
20
0.7113692913385826
11
0.6110376377952755
21
0.7151188188976377
0
LINE
8
BLACK
6
CONTINUOUS
10
0.6110376377952755
20
0.7151188188976377
11
0.6115635433070866
21
0.7158279133858267
0
LINE
8
BLACK
6
CONTINUOUS
10
0.6115635433070866
20
0.7158279133858267
11
0.611590748031496
21
0.7158862204724409
0
LINE
8
BLACK
6
CONTINUOUS
10
0.611590748031496
20
0.7158862204724409
11
0.6134655118110236
21
0.7177609842519684
0
LINE
8
BLACK
6
CONTINUOUS
10
0.6134655118110236
20
0.7177609842519684
11
0.6141885826771654
21
0.7182672834645669
0
LINE
8
BLACK
6
CONTINUOUS
10
0.6141885826771654
20
0.7182672834645669
11
0.6142329133858268
21
0.7183140944881889
0
LINE
8
BLACK
6
CONTINUOUS
10
0.6142329133858268
20
0.7183140944881889
11
0.6179824409448819
21
0.7201888582677165
0
LINE
8
BLACK
6
CONTINUOUS
10
0.6179824409448819
20
0.7201888582677165
11
0.6184708661417323
21
0.7203341732283465
0
LINE
8
BLACK
6
CONTINUOUS
10
0.6184708661417323
20
0.7203341732283465
11
0.618586811023622
21
0.7204124409448819
0
LINE
8
BLACK
6
CONTINUOUS
10
0.618586811023622
20
0.7204124409448819
11
0.6260858661417322
21
0.7222872047244094
0
LINE
8
BLACK
6
CONTINUOUS
10
0.6260858661417322
20
0.7222872047244094
11
0.6266737401574803
21
0.7223287007874015
0
LINE
8
BLACK
6
CONTINUOUS
10
0.6266737401574803
20
0.7223287007874015
11
0.6268020078740157
21
0.7223753543307087
0
LINE
8
BLACK
6
CONTINUOUS
10
0.6268020078740157
20
0.7223753543307087
11
0.6361758267716535
21
0.7223753543307087
0
LINE
8
BLACK
6
CONTINUOUS
10
0.6361758267716535
20
0.7223753543307087
11
0.6367561811023622
21
0.7222730314960629
0
LINE
8
BLACK
6
CONTINUOUS
10
0.6203335039370078
20
0.7147618503937008
11
0.6173025196850394
21
0.7132463385826772
0
LINE
8
BLACK
6
CONTINUOUS
10
0.6173025196850394
20
0.7132463385826772
11
0.6161053937007874
21
0.7120492125984251
0
LINE
8
BLACK
6
CONTINUOUS
10
0.6161053937007874
20
0.7120492125984251
11
0.6147566535433071
21
0.7093517322834646
0
LINE
8
BLACK
6
CONTINUOUS
10
0.6147566535433071
20
0.7093517322834646
11
0.6147566535433071
21
0.7069962992125984
0
LINE
8
BLACK
6
CONTINUOUS
10
0.6147566535433071
20
0.7069962992125984
11
0.6161053937007874
21
0.7042988188976378
0
LINE
8
BLACK
6
CONTINUOUS
10
0.6161053937007874
20
0.7042988188976378
11
0.6173025196850394
21
0.7031016929133858
0
LINE
8
BLACK
6
CONTINUOUS
10
0.6173025196850394
20
0.7031016929133858
11
0.6203335039370078
21
0.7015862204724409
0
LINE
8
BLACK
6
CONTINUOUS
10
0.6203335039370078
20
0.7015862204724409
11
0.6271655511811024
21
0.699878188976378
0
LINE
8
BLACK
6
CONTINUOUS
10
0.6271655511811024
20
0.699878188976378
11
0.6358122834645669
21
0.699878188976378
0
LINE
8
BLACK
6
CONTINUOUS
10
0.6358122834645669
20
0.699878188976378
11
0.6426443307086614
21
0.7015862204724409
0
LINE
8
BLACK
6
CONTINUOUS
10
0.6426443307086614
20
0.7015862204724409
11
0.6456753149606299
21
0.7031017322834645
0
LINE
8
BLACK
6
CONTINUOUS
10
0.6456753149606299
20
0.7031017322834645
11
0.6468724803149606
21
0.7042988582677165
0
LINE
8
BLACK
6
CONTINUOUS
10
0.6468724803149606
20
0.7042988582677165
11
0.6482212204724409
21
0.7069962992125984
0
LINE
8
BLACK
6
CONTINUOUS
10
0.6482212204724409
20
0.7069962992125984
11
0.6482212204724409
21
0.7093517322834646
0
LINE
8
BLACK
6
CONTINUOUS
10
0.6482212204724409
20
0.7093517322834646
11
0.6468724803149606
21
0.7120492125984251
0
LINE
8
BLACK
6
CONTINUOUS
10
0.6468724803149606
20
0.7120492125984251
11
0.6456753149606299
21
0.7132463385826772
0
LINE
8
BLACK
6
CONTINUOUS
10
0.6456753149606299
20
0.7132463385826772
11
0.6426443307086614
21
0.7147618503937008
0
LINE
8
BLACK
6
CONTINUOUS
10
0.6426443307086614
20
0.7147618503937008
11
0.6358122834645669
21
0.716469842519685
0
LINE
8
BLACK
6
CONTINUOUS
10
0.6358122834645669
20
0.716469842519685
11
0.6271655511811024
21
0.716469842519685
0
LINE
8
BLACK
6
CONTINUOUS
10
0.6271655511811024
20
0.716469842519685
11
0.6203335039370078
21
0.7147618503937008
0
LINE
8
BLACK
6
CONTINUOUS
10
0.6521838976377953
20
0.7559430708661418
11
0.6537311417322834
21
0.7546447637795275
0
LINE
8
BLACK
6
CONTINUOUS
10
0.6537311417322834
20
0.7546447637795275
11
0.6540818897637796
21
0.7526556299212598
0
LINE
8
BLACK
6
CONTINUOUS
10
0.6540818897637796
20
0.7526556299212598
11
0.653071968503937
21
0.7509064566929133
0
LINE
8
BLACK
6
CONTINUOUS
10
0.653071968503937
20
0.7509064566929133
11
0.6528368503937008
21
0.750820905511811
0
LINE
8
BLACK
6
CONTINUOUS
10
0.6528368503937008
20
0.750820905511811
11
0.653815
21
0.7488646062992126
0
LINE
8
BLACK
6
CONTINUOUS
10
0.653815
20
0.7488646062992126
11
0.6541073622047244
21
0.7478816929133858
0
LINE
8
BLACK
6
CONTINUOUS
10
0.6541073622047244
20
0.7478816929133858
11
0.6540663385826772
21
0.74771
0
LINE
8
BLACK
6
CONTINUOUS
10
0.6540663385826772
20
0.74771
11
0.6541267322834645
21
0.7475440944881889
0
LINE
8
BLACK
6
CONTINUOUS
10
0.6541267322834645
20
0.7475440944881889
11
0.6541267322834645
21
0.7419198031496063
0
LINE
8
BLACK
6
CONTINUOUS
10
0.6541267322834645
20
0.7419198031496063
11
0.6539486614173228
21
0.7409098818897638
0
LINE
8
BLACK
6
CONTINUOUS
10
0.6539486614173228
20
0.7409098818897638
11
0.653835157480315
21
0.7407746456692913
0
LINE
8
BLACK
6
CONTINUOUS
10
0.653835157480315
20
0.7407746456692913
11
0.653815
21
0.7405992913385827
0
LINE
8
BLACK
6
CONTINUOUS
10
0.653815
20
0.7405992913385827
11
0.6519402362204725
21
0.7368497637795275
0
LINE
8
BLACK
6
CONTINUOUS
10
0.6519402362204725
20
0.7368497637795275
11
0.6513293307086614
21
0.7360261023622047
0
LINE
8
BLACK
6
CONTINUOUS
10
0.6513293307086614
20
0.7360261023622047
11
0.6509236220472441
21
0.7358502755905512
0
LINE
8
BLACK
6
CONTINUOUS
10
0.6509236220472441
20
0.7358502755905512
11
0.6506197244094488
21
0.7355292519685039
0
LINE
8
BLACK
6
CONTINUOUS
10
0.6506197244094488
20
0.7355292519685039
11
0.646870157480315
21
0.7336544881889764
0
LINE
8
BLACK
6
CONTINUOUS
10
0.646870157480315
20
0.7336544881889764
11
0.6458872047244094
21
0.7333620866141732
0
LINE
8
BLACK
6
CONTINUOUS
10
0.6458872047244094
20
0.7333620866141732
11
0.6457154724409448
21
0.7334031496062992
0
LINE
8
BLACK
6
CONTINUOUS
10
0.6457154724409448
20
0.7334031496062992
11
0.6455496456692913
21
0.7333427559055118
0
LINE
8
BLACK
6
CONTINUOUS
10
0.6455496456692913
20
0.7333427559055118
11
0.6249272440944882
21
0.7333427559055118
0
LINE
8
BLACK
6
CONTINUOUS
10
0.6249272440944882
20
0.7333427559055118
11
0.6239173228346456
21
0.7335208267716535
0
LINE
8
BLACK
6
CONTINUOUS
10
0.6239173228346456
20
0.7335208267716535
11
0.6223700787401575
21
0.7348191338582677
0
LINE
8
BLACK
6
CONTINUOUS
10
0.6223700787401575
20
0.7348191338582677
11
0.6220193307086614
21
0.7368082677165354
0
LINE
8
BLACK
6
CONTINUOUS
10
0.6220193307086614
20
0.7368082677165354
11
0.6230292519685039
21
0.7385574409448818
0
LINE
8
BLACK
6
CONTINUOUS
10
0.6230292519685039
20
0.7385574409448818
11
0.6249272440944882
21
0.7392482677165354
0
LINE
8
BLACK
6
CONTINUOUS
10
0.6249272440944882
20
0.7392482677165354
11
0.6448525984251968
21
0.7392482677165354
0
LINE
8
BLACK
6
CONTINUOUS
10
0.6448525984251968
20
0.7392482677165354
11
0.647098346456693
21
0.7403711417322835
0
LINE
8
BLACK
6
CONTINUOUS
10
0.647098346456693
20
0.7403711417322835
11
0.6482212204724409
21
0.7426168503937007
0
LINE
8
BLACK
6
CONTINUOUS
10
0.6482212204724409
20
0.7426168503937007
11
0.6482212204724409
21
0.7468470472440945
0
LINE
8
BLACK
6
CONTINUOUS
10
0.6482212204724409
20
0.7468470472440945
11
0.6468724803149606
21
0.7495445275590551
0
LINE
8
BLACK
6
CONTINUOUS
10
0.6468724803149606
20
0.7495445275590551
11
0.6462013385826771
21
0.7502156299212598
0
LINE
8
BLACK
6
CONTINUOUS
10
0.6462013385826771
20
0.7502156299212598
11
0.6249272440944882
21
0.7502156299212598
0
LINE
8
BLACK
6
CONTINUOUS
10
0.6249272440944882
20
0.7502156299212598
11
0.6239173228346456
21
0.7503937007874015
0
LINE
8
BLACK
6
CONTINUOUS
10
0.6239173228346456
20
0.7503937007874015
11
0.6223700787401575
21
0.7516920078740157
0
LINE
8
BLACK
6
CONTINUOUS
10
0.6223700787401575
20
0.7516920078740157
11
0.6220193307086614
21
0.7536811417322834
0
LINE
8
BLACK
6
CONTINUOUS
10
0.6220193307086614
20
0.7536811417322834
11
0.6230292519685039
21
0.75543031496063
0
LINE
8
BLACK
6
CONTINUOUS
10
0.6230292519685039
20
0.75543031496063
11
0.6249272440944882
21
0.7561211417322834
0
LINE
8
BLACK
6
CONTINUOUS
10
0.6249272440944882
20
0.7561211417322834
11
0.6511739763779527
21
0.7561211417322834
0
LINE
8
BLACK
6
CONTINUOUS
10
0.6511739763779527
20
0.7561211417322834
11
0.6521838976377953
21
0.7559430708661418
0
LINE
8
BLACK
6
CONTINUOUS
10
1.3365244094488189
20
1.5739544488188977
11
1.337047125984252
21
1.5720034645669292
0
LINE
8
BLACK
6
CONTINUOUS
10
1.337047125984252
20
1.5720034645669292
11
1.3361935433070866
21
1.5701729133858267
0
LINE
8
BLACK
6
CONTINUOUS
10
1.3361935433070866
20
1.5701729133858267
11
1.3221041732283465
21
1.5560835826771653
0
LINE
8
BLACK
6
CONTINUOUS
10
1.3221041732283465
20
1.5560835826771653
11
1.321310157480315
21
1.5537016141732283
0
LINE
8
BLACK
6
CONTINUOUS
10
1.321310157480315
20
1.5537016141732283
11
1.3221041732283465
21
1.55131968503937
0
LINE
8
BLACK
6
CONTINUOUS
10
1.3221041732283465
20
1.55131968503937
11
1.3250953937007874
21
1.5483284251968503
0
LINE
8
BLACK
6
CONTINUOUS
10
1.3250953937007874
20
1.5483284251968503
11
1.3279564960629922
21
1.5473747637795274
0
LINE
8
BLACK
6
CONTINUOUS
10
1.3279564960629922
20
1.5473747637795274
11
1.3289056299212598
21
1.5473747637795274
0
LINE
8
BLACK
6
CONTINUOUS
10
1.3289056299212598
20
1.5473747637795274
11
1.3439486614173228
21
1.5624178346456692
0
LINE
8
BLACK
6
CONTINUOUS
10
1.3439486614173228
20
1.5624178346456692
11
1.3447887007874015
21
1.5630060629921259
0
LINE
8
BLACK
6
CONTINUOUS
10
1.3447887007874015
20
1.5630060629921259
11
1.3468008267716536
21
1.5631820866141732
0
LINE
8
BLACK
6
CONTINUOUS
10
1.3468008267716536
20
1.5631820866141732
11
1.3484553543307087
21
1.5620235826771653
0
LINE
8
BLACK
6
CONTINUOUS
10
1.3484553543307087
20
1.5620235826771653
11
1.3489781102362204
21
1.5600725984251969
0
LINE
8
BLACK
6
CONTINUOUS
10
1.3489781102362204
20
1.5600725984251969
11
1.3481244881889765
21
1.5582420078740158
0
LINE
8
BLACK
6
CONTINUOUS
10
1.3481244881889765
20
1.5582420078740158
11
1.3295652755905512
21
1.5396827559055117
0
LINE
8
BLACK
6
CONTINUOUS
10
1.3295652755905512
20
1.5396827559055117
11
1.3287252362204724
21
1.5390945669291338
0
LINE
8
BLACK
6
CONTINUOUS
10
1.3287252362204724
20
1.5390945669291338
11
1.3267131496062992
21
1.5389185039370079
0
LINE
8
BLACK
6
CONTINUOUS
10
1.3267131496062992
20
1.5389185039370079
11
1.3250585826771653
21
1.5400770472440946
0
LINE
8
BLACK
6
CONTINUOUS
10
1.3250585826771653
20
1.5400770472440946
11
1.3245358661417324
21
1.5420279921259843
0
LINE
8
BLACK
6
CONTINUOUS
10
1.3245358661417324
20
1.5420279921259843
11
1.3246416141732282
21
1.5422548031496062
0
LINE
8
BLACK
6
CONTINUOUS
10
1.3246416141732282
20
1.5422548031496062
11
1.3225666535433072
21
1.5429464173228347
0
LINE
8
BLACK
6
CONTINUOUS
10
1.3225666535433072
20
1.5429464173228347
11
1.3216648425196851
21
1.5434346850393701
0
LINE
8
BLACK
6
CONTINUOUS
10
1.3216648425196851
20
1.5434346850393701
11
1.3215723622047244
21
1.543585157480315
0
LINE
8
BLACK
6
CONTINUOUS
10
1.3215723622047244
20
1.543585157480315
11
1.3214124015748032
21
1.5436597637795275
0
LINE
8
BLACK
6
CONTINUOUS
10
1.3214124015748032
20
1.5436597637795275
11
1.3174354724409449
21
1.5476367322834645
0
LINE
8
BLACK
6
CONTINUOUS
10
1.3174354724409449
20
1.5476367322834645
11
1.3168472440944881
21
1.5484767716535432
0
LINE
8
BLACK
6
CONTINUOUS
10
1.3168472440944881
20
1.5484767716535432
11
1.3168318503937007
21
1.5486527165354331
0
LINE
8
BLACK
6
CONTINUOUS
10
1.3168318503937007
20
1.5486527165354331
11
1.3167221653543306
21
1.548790905511811
0
LINE
8
BLACK
6
CONTINUOUS
10
1.3167221653543306
20
1.548790905511811
11
1.315396496062992
21
1.552767874015748
0
LINE
8
BLACK
6
CONTINUOUS
10
1.315396496062992
20
1.552767874015748
11
1.3152460629921259
21
1.5537822834645669
0
LINE
8
BLACK
6
CONTINUOUS
10
1.3152460629921259
20
1.5537822834645669
11
1.3154085433070866
21
1.5541934645669291
0
LINE
8
BLACK
6
CONTINUOUS
10
1.3154085433070866
20
1.5541934645669291
11
1.315396496062992
21
1.5546353543307085
0
LINE
8
BLACK
6
CONTINUOUS
10
1.315396496062992
20
1.5546353543307085
11
1.3167221653543306
21
1.5586123228346456
0
LINE
8
BLACK
6
CONTINUOUS
10
1.3167221653543306
20
1.5586123228346456
11
1.3172104724409448
21
1.5595140944881889
0
LINE
8
BLACK
6
CONTINUOUS
10
1.3172104724409448
20
1.5595140944881889
11
1.3173608267716534
21
1.5596064960629921
0
LINE
8
BLACK
6
CONTINUOUS
10
1.3173608267716534
20
1.5596064960629921
11
1.3174354724409449
21
1.559766496062992
0
LINE
8
BLACK
6
CONTINUOUS
10
1.3174354724409449
20
1.559766496062992
11
1.332017716535433
21
1.5743487401574803
0
LINE
8
BLACK
6
CONTINUOUS
10
1.332017716535433
20
1.5743487401574803
11
1.3328577559055117
21
1.5749369291338582
0
LINE
8
BLACK
6
CONTINUOUS
10
1.3328577559055117
20
1.5749369291338582
11
1.334869842519685
21
1.5751129527559056
0
LINE
8
BLACK
6
CONTINUOUS
10
1.334869842519685
20
1.5751129527559056
11
1.3365244094488189
21
1.5739544488188977
0
LINE
8
BLACK
6
CONTINUOUS
10
1.3240953937007873
20
1.6042627559055118
11
1.3242646062992125
21
1.6042775196850394
0
LINE
8
BLACK
6
CONTINUOUS
10
1.3242646062992125
20
1.6042775196850394
11
1.3249668110236221
21
1.6037858267716536
0
LINE
8
BLACK
6
CONTINUOUS
10
1.3249668110236221
20
1.6037858267716536
11
1.3257183070866141
21
1.6033745669291337
0
LINE
8
BLACK
6
CONTINUOUS
10
1.3257183070866141
20
1.6033745669291337
11
1.3257799606299212
21
1.6032164566929132
0
LINE
8
BLACK
6
CONTINUOUS
10
1.3257799606299212
20
1.6032164566929132
11
1.3259191338582677
21
1.6031190157480315
0
LINE
8
BLACK
6
CONTINUOUS
10
1.3259191338582677
20
1.6031190157480315
11
1.3261409842519685
21
1.6022910629921259
0
LINE
8
BLACK
6
CONTINUOUS
10
1.3261409842519685
20
1.6022910629921259
11
1.3264523622047244
21
1.6014928346456692
0
LINE
8
BLACK
6
CONTINUOUS
10
1.3264523622047244
20
1.6014928346456692
11
1.3263979527559056
21
1.6013320472440944
0
LINE
8
BLACK
6
CONTINUOUS
10
1.3263979527559056
20
1.6013320472440944
11
1.3264418897637795
21
1.601168031496063
0
LINE
8
BLACK
6
CONTINUOUS
10
1.3264418897637795
20
1.601168031496063
11
1.3260796850393701
21
1.6003913779527559
0
LINE
8
BLACK
6
CONTINUOUS
10
1.3260796850393701
20
1.6003913779527559
11
1.3258050787401574
21
1.5995795669291337
0
LINE
8
BLACK
6
CONTINUOUS
10
1.3258050787401574
20
1.5995795669291337
11
1.3256600000000001
21
1.599491377952756
0
LINE
8
BLACK
6
CONTINUOUS
10
1.3256600000000001
20
1.599491377952756
11
1.3255882677165354
21
1.5993374409448819
0
LINE
8
BLACK
6
CONTINUOUS
10
1.3255882677165354
20
1.5993374409448819
11
1.2998373228346456
21
1.5735865354330709
0
LINE
8
BLACK
6
CONTINUOUS
10
1.2998373228346456
20
1.5735865354330709
11
1.3057033858267717
21
1.5677204724409448
0
LINE
8
BLACK
6
CONTINUOUS
10
1.3057033858267717
20
1.5677204724409448
11
1.3062916141732284
21
1.5668804330708661
0
LINE
8
BLACK
6
CONTINUOUS
10
1.3062916141732284
20
1.5668804330708661
11
1.3064676377952755
21
1.5648683070866141
0
LINE
8
BLACK
6
CONTINUOUS
10
1.3064676377952755
20
1.5648683070866141
11
1.3053091338582676
21
1.5632137795275589
0
LINE
8
BLACK
6
CONTINUOUS
10
1.3053091338582676
20
1.5632137795275589
11
1.3033581496062991
21
1.5626910236220473
0
LINE
8
BLACK
6
CONTINUOUS
10
1.3033581496062991
20
1.5626910236220473
11
1.3015275590551181
21
1.5635446456692914
0
LINE
8
BLACK
6
CONTINUOUS
10
1.3015275590551181
20
1.5635446456692914
11
1.2856196456692912
21
1.5794525590551181
0
LINE
8
BLACK
6
CONTINUOUS
10
1.2856196456692912
20
1.5794525590551181
11
1.2850314566929133
21
1.5802925984251968
0
LINE
8
BLACK
6
CONTINUOUS
10
1.2850314566929133
20
1.5802925984251968
11
1.2848553937007874
21
1.5823046850393701
0
LINE
8
BLACK
6
CONTINUOUS
10
1.2848553937007874
20
1.5823046850393701
11
1.286013937007874
21
1.583959251968504
0
LINE
8
BLACK
6
CONTINUOUS
10
1.286013937007874
20
1.583959251968504
11
1.2879648818897638
21
1.5844819685039371
0
LINE
8
BLACK
6
CONTINUOUS
10
1.2879648818897638
20
1.5844819685039371
11
1.2897954724409448
21
1.5836283858267717
0
LINE
8
BLACK
6
CONTINUOUS
10
1.2897954724409448
20
1.5836283858267717
11
1.2956614960629922
21
1.5777623622047243
0
LINE
8
BLACK
6
CONTINUOUS
10
1.2956614960629922
20
1.5777623622047243
11
1.3150461023622046
21
1.5971469291338583
0
LINE
8
BLACK
6
CONTINUOUS
10
1.3150461023622046
20
1.5971469291338583
11
1.3115694488188976
21
1.5971469291338583
0
LINE
8
BLACK
6
CONTINUOUS
10
1.3115694488188976
20
1.5971469291338583
11
1.3107000393700787
21
1.5973002362204725
0
LINE
8
BLACK
6
CONTINUOUS
10
1.3107000393700787
20
1.5973002362204725
11
1.3106357086614173
21
1.597298464566929
0
LINE
8
BLACK
6
CONTINUOUS
10
1.3106357086614173
20
1.597298464566929
11
1.3066587007874015
21
1.5986241338582676
0
LINE
8
BLACK
6
CONTINUOUS
10
1.3066587007874015
20
1.5986241338582676
11
1.3057569291338582
21
1.5991124409448818
0
LINE
8
BLACK
6
CONTINUOUS
10
1.3057569291338582
20
1.5991124409448818
11
1.3046996456692914
21
1.6008333858267716
0
LINE
8
BLACK
6
CONTINUOUS
10
1.3046996456692914
20
1.6008333858267716
11
1.304995905511811
21
1.6028313779527559
0
LINE
8
BLACK
6
CONTINUOUS
10
1.304995905511811
20
1.6028313779527559
11
1.306507125984252
21
1.6041714173228345
0
LINE
8
BLACK
6
CONTINUOUS
10
1.306507125984252
20
1.6041714173228345
11
1.3085261811023621
21
1.6042265748031497
0
LINE
8
BLACK
6
CONTINUOUS
10
1.3085261811023621
20
1.6042265748031497
11
1.3120485826771653
21
1.6030524409448819
0
LINE
8
BLACK
6
CONTINUOUS
10
1.3120485826771653
20
1.6030524409448819
11
1.3165796062992126
21
1.6030524409448819
0
LINE
8
BLACK
6
CONTINUOUS
10
1.3165796062992126
20
1.6030524409448819
11
1.3229212598425197
21
1.604320748031496
0
LINE
8
BLACK
6
CONTINUOUS
10
1.3229212598425197
20
1.604320748031496
11
1.3239464960629921
21
1.6043442125984251
0
LINE
8
BLACK
6
CONTINUOUS
10
1.3239464960629921
20
1.6043442125984251
11
1.3240953937007873
21
1.6042627559055118
0
LINE
8
BLACK
6
CONTINUOUS
10
0.4209679133858268
20
2.0243422834645668
11
0.4211351574803149
21
2.0243717322834645
0
LINE
8
BLACK
6
CONTINUOUS
10
0.4211351574803149
20
2.0243717322834645
11
0.4218772047244094
21
2.023943307086614
0
LINE
8
BLACK
6
CONTINUOUS
10
0.4218772047244094
20
2.023943307086614
11
0.4226620472440945
21
2.0235989370078742
0
LINE
8
BLACK
6
CONTINUOUS
10
0.4226620472440945
20
2.0235989370078742
11
0.4227372834645669
21
2.0234466929133856
0
LINE
8
BLACK
6
CONTINUOUS
10
0.4227372834645669
20
2.0234466929133856
11
0.4228843307086614
21
2.023361811023622
0
LINE
8
BLACK
6
CONTINUOUS
10
0.4228843307086614
20
2.023361811023622
11
0.4231774015748032
21
2.0225565748031498
0
LINE
8
BLACK
6
CONTINUOUS
10
0.4231774015748032
20
2.0225565748031498
11
0.4235572440944882
21
2.021788346456693
0
LINE
8
BLACK
6
CONTINUOUS
10
0.4235572440944882
20
2.021788346456693
11
0.4235170472440945
21
2.0216234251968506
0
LINE
8
BLACK
6
CONTINUOUS
10
0.4235170472440945
20
2.0216234251968506
11
0.4235751574803149
21
2.0214638188976379
0
LINE
8
BLACK
6
CONTINUOUS
10
0.4235751574803149
20
2.0214638188976379
11
0.4235751574803149
21
1.9850464960629921
0
LINE
8
BLACK
6
CONTINUOUS
10
0.4235751574803149
20
1.9850464960629921
11
0.4318709842519685
21
1.9850464960629921
0
LINE
8
BLACK
6
CONTINUOUS
10
0.4318709842519685
20
1.9850464960629921
11
0.432880905511811
21
1.9848684251968503
0
LINE
8
BLACK
6
CONTINUOUS
10
0.432880905511811
20
1.9848684251968503
11
0.4344281496062992
21
1.9835701181102361
0
LINE
8
BLACK
6
CONTINUOUS
10
0.4344281496062992
20
1.9835701181102361
11
0.4347788976377953
21
1.9815809842519685
0
LINE
8
BLACK
6
CONTINUOUS
10
0.4347788976377953
20
1.9815809842519685
11
0.4337689763779528
21
1.9798318110236219
0
LINE
8
BLACK
6
CONTINUOUS
10
0.4337689763779528
20
1.9798318110236219
11
0.4318709842519685
21
1.9791409842519685
0
LINE
8
BLACK
6
CONTINUOUS
10
0.4318709842519685
20
1.9791409842519685
11
0.4093738188976378
21
1.9791409842519685
0
LINE
8
BLACK
6
CONTINUOUS
10
0.4093738188976378
20
1.9791409842519685
11
0.4083638976377953
21
1.9793190551181101
0
LINE
8
BLACK
6
CONTINUOUS
10
0.4083638976377953
20
1.9793190551181101
11
0.4068166535433071
21
1.9806173622047243
0
LINE
8
BLACK
6
CONTINUOUS
10
0.4068166535433071
20
1.9806173622047243
11
0.406465905511811
21
1.9826064960629921
0
LINE
8
BLACK
6
CONTINUOUS
10
0.406465905511811
20
1.9826064960629921
11
0.4074758267716536
21
1.9843556692913384
0
LINE
8
BLACK
6
CONTINUOUS
10
0.4074758267716536
20
1.9843556692913384
11
0.4093738188976378
21
1.9850464960629921
0
LINE
8
BLACK
6
CONTINUOUS
10
0.4093738188976378
20
1.9850464960629921
11
0.4176696456692913
21
1.9850464960629921
0
LINE
8
BLACK
6
CONTINUOUS
10
0.4176696456692913
20
1.9850464960629921
11
0.4176696456692913
21
2.0124604724409449
0
LINE
8
BLACK
6
CONTINUOUS
10
0.4176696456692913
20
2.0124604724409449
11
0.4152112598425197
21
2.0100020866141732
0
LINE
8
BLACK
6
CONTINUOUS
10
0.4152112598425197
20
2.0100020866141732
11
0.4144881496062992
21
2.0094958267716536
0
LINE
8
BLACK
6
CONTINUOUS
10
0.4144881496062992
20
2.0094958267716536
11
0.4144438582677165
21
2.0094489763779526
0
LINE
8
BLACK
6
CONTINUOUS
10
0.4144438582677165
20
2.0094489763779526
11
0.4106943307086614
21
2.0075742125984251
0
LINE
8
BLACK
6
CONTINUOUS
10
0.4106943307086614
20
2.0075742125984251
11
0.4097113779527559
21
2.0072818503937007
0
LINE
8
BLACK
6
CONTINUOUS
10
0.4097113779527559
20
2.0072818503937007
11
0.4077468897637795
21
2.0077511417322835
0
LINE
8
BLACK
6
CONTINUOUS
10
0.4077468897637795
20
2.0077511417322835
11
0.4065435826771653
21
2.0093733858267715
0
LINE
8
BLACK
6
CONTINUOUS
10
0.4065435826771653
20
2.0093733858267715
11
0.4066646456692913
21
2.0113895669291337
0
LINE
8
BLACK
6
CONTINUOUS
10
0.4066646456692913
20
2.0113895669291337
11
0.4080533070866141
21
2.0128562598425197
0
LINE
8
BLACK
6
CONTINUOUS
10
0.4080533070866141
20
2.0128562598425197
11
0.4113742519685039
21
2.0145167322834645
0
LINE
8
BLACK
6
CONTINUOUS
10
0.4113742519685039
20
2.0145167322834645
11
0.4145781496062992
21
2.0177206299212598
0
LINE
8
BLACK
6
CONTINUOUS
10
0.4145781496062992
20
2.0177206299212598
11
0.4181655511811024
21
2.0231017322834646
0
LINE
8
BLACK
6
CONTINUOUS
10
0.4181655511811024
20
2.0231017322834646
11
0.418873937007874
21
2.0238432677165354
0
LINE
8
BLACK
6
CONTINUOUS
10
0.418873937007874
20
2.0238432677165354
11
0.4190368897637795
21
2.0238909842519686
0
LINE
8
BLACK
6
CONTINUOUS
10
0.4190368897637795
20
2.0238909842519686
11
0.4191460236220472
21
2.0240209842519685
0
LINE
8
BLACK
6
CONTINUOUS
10
0.4191460236220472
20
2.0240209842519685
11
0.4199898031496063
21
2.024169803149606
0
LINE
8
BLACK
6
CONTINUOUS
10
0.4199898031496063
20
2.024169803149606
11
0.4208124409448819
21
2.0244104724409446
0
LINE
8
BLACK
6
CONTINUOUS
10
0.4208124409448819
20
2.0244104724409446
11
0.4209679133858268
21
2.0243422834645668
0
LINE
8
BLACK
6
CONTINUOUS
10
2.0253818503937007
20
2.0242385039370077
11
2.0255170866141734
21
2.0241250393700785
0
LINE
8
BLACK
6
CONTINUOUS
10
2.0255170866141734
20
2.0241250393700785
11
2.0256924409448818
21
2.024104842519685
0
LINE
8
BLACK
6
CONTINUOUS
10
2.0256924409448818
20
2.024104842519685
11
2.0294419685039369
21
2.0222300787401575
0
LINE
8
BLACK
6
CONTINUOUS
10
2.0294419685039369
20
2.0222300787401575
11
2.030151023622047
21
2.0217041732283465
0
LINE
8
BLACK
6
CONTINUOUS
10
2.030151023622047
20
2.0217041732283465
11
2.0302093700787402
21
2.0216769685039369
0
LINE
8
BLACK
6
CONTINUOUS
10
2.0302093700787402
20
2.0216769685039369
11
2.0320841338582678
21
2.0198022047244093
0
LINE
8
BLACK
6
CONTINUOUS
10
2.0320841338582678
20
2.0198022047244093
11
2.0325903937007874
21
2.0190791338582676
0
LINE
8
BLACK
6
CONTINUOUS
10
2.0325903937007874
20
2.0190791338582676
11
2.032637244094488
21
2.0190348031496064
0
LINE
8
BLACK
6
CONTINUOUS
10
2.032637244094488
20
2.0190348031496064
11
2.0345120078740155
21
2.0152852755905513
0
LINE
8
BLACK
6
CONTINUOUS
10
2.0345120078740155
20
2.0152852755905513
11
2.0348043700787399
21
2.0143023622047243
0
LINE
8
BLACK
6
CONTINUOUS
10
2.0348043700787399
20
2.0143023622047243
11
2.034763346456693
21
2.0141306692913385
0
LINE
8
BLACK
6
CONTINUOUS
10
2.034763346456693
20
2.0141306692913385
11
2.0348237401574805
21
2.0139647637795277
0
LINE
8
BLACK
6
CONTINUOUS
10
2.0348237401574805
20
2.0139647637795277
11
2.0348237401574805
21
2.0102152362204726
0
LINE
8
BLACK
6
CONTINUOUS
10
2.0348237401574805
20
2.0102152362204726
11
2.034670433070866
21
2.0093458661417323
0
LINE
8
BLACK
6
CONTINUOUS
10
2.034670433070866
20
2.0093458661417323
11
2.0346722047244095
21
2.0092814566929134
0
LINE
8
BLACK
6
CONTINUOUS
10
2.0346722047244095
20
2.0092814566929134
11
2.0327974409448819
21
2.0036572047244094
0
LINE
8
BLACK
6
CONTINUOUS
10
2.0327974409448819
20
2.0036572047244094
11
2.0323091338582677
21
2.0027554330708659
0
LINE
8
BLACK
6
CONTINUOUS
10
2.0323091338582677
20
2.0027554330708659
11
2.0321587401574801
21
2.0026630708661415
0
LINE
8
BLACK
6
CONTINUOUS
10
2.0321587401574801
20
2.0026630708661415
11
2.0320841338582678
21
2.002503031496063
0
LINE
8
BLACK
6
CONTINUOUS
10
2.0320841338582678
20
2.002503031496063
11
2.0146276377952756
21
1.9850464960629921
0
LINE
8
BLACK
6
CONTINUOUS
10
2.0146276377952756
20
1.9850464960629921
11
2.0318709842519684
21
1.9850464960629921
0
LINE
8
BLACK
6
CONTINUOUS
10
2.0318709842519684
20
1.9850464960629921
11
2.0328809055118109
21
1.9848684251968503
0
LINE
8
BLACK
6
CONTINUOUS
10
2.0328809055118109
20
1.9848684251968503
11
2.034428149606299
21
1.9835701181102361
0
LINE
8
BLACK
6
CONTINUOUS
10
2.034428149606299
20
1.9835701181102361
11
2.0347788976377954
21
1.9815809842519685
0
LINE
8
BLACK
6
CONTINUOUS
10
2.0347788976377954
20
1.9815809842519685
11
2.0337689763779525
21
1.9798318110236219
0
LINE
8
BLACK
6
CONTINUOUS
10
2.0337689763779525
20
1.9798318110236219
11
2.0318709842519684
21
1.9791409842519685
0
LINE
8
BLACK
6
CONTINUOUS
10
2.0318709842519684
20
1.9791409842519685
11
2.0074990551181102
21
1.9791409842519685
0
LINE
8
BLACK
6
CONTINUOUS
10
2.0074990551181102
20
1.9791409842519685
11
2.0068642913385828
21
1.9792529133858268
0
LINE
8
BLACK
6
CONTINUOUS
10
2.0068642913385828
20
1.9792529133858268
11
2.0067348425196849
21
1.9792415748031496
0
LINE
8
BLACK
6
CONTINUOUS
10
2.0067348425196849
20
1.9792415748031496
11
2.0066696062992126
21
1.9792872440944882
0
LINE
8
BLACK
6
CONTINUOUS
10
2.0066696062992126
20
1.9792872440944882
11
2.0064891338582678
21
1.9793190551181101
0
LINE
8
BLACK
6
CONTINUOUS
10
2.0064891338582678
20
1.9793190551181101
11
2.0058082677165352
21
1.9798903543307087
0
LINE
8
BLACK
6
CONTINUOUS
10
2.0058082677165352
20
1.9798903543307087
11
2.0050802755905512
21
1.9804001181102362
0
LINE
8
BLACK
6
CONTINUOUS
10
2.0050802755905512
20
1.9804001181102362
11
2.00504531496063
21
1.980530590551181
0
LINE
8
BLACK
6
CONTINUOUS
10
2.00504531496063
20
1.980530590551181
11
2.0049418897637796
21
1.9806173622047243
0
LINE
8
BLACK
6
CONTINUOUS
10
2.0049418897637796
20
1.9806173622047243
11
2.0047875196850393
21
1.981492716535433
0
LINE
8
BLACK
6
CONTINUOUS
10
2.0047875196850393
20
1.981492716535433
11
2.0045575590551179
21
1.9823510629921259
0
LINE
8
BLACK
6
CONTINUOUS
10
2.0045575590551179
20
1.9823510629921259
11
2.0046146062992127
21
1.9824734251968503
0
LINE
8
BLACK
6
CONTINUOUS
10
2.0046146062992127
20
1.9824734251968503
11
2.0045911417322833
21
1.9826064960629921
0
LINE
8
BLACK
6
CONTINUOUS
10
2.0045911417322833
20
1.9826064960629921
11
2.0050356299212599
21
1.9833764173228345
0
LINE
8
BLACK
6
CONTINUOUS
10
2.0050356299212599
20
1.9833764173228345
11
2.0054111417322833
21
1.984181653543307
0
LINE
8
BLACK
6
CONTINUOUS
10
2.0054111417322833
20
1.984181653543307
11
2.0274153937007875
21
2.0061859842519683
0
LINE
8
BLACK
6
CONTINUOUS
10
2.0274153937007875
20
2.0061859842519683
11
2.0289182283464569
21
2.0106943700787401
0
LINE
8
BLACK
6
CONTINUOUS
10
2.0289182283464569
20
2.0106943700787401
11
2.0289182283464569
21
2.0132677165354331
0
LINE
8
BLACK
6
CONTINUOUS
10
2.0289182283464569
20
2.0132677165354331
11
2.0275694881889765
21
2.0159651968503938
0
LINE
8
BLACK
6
CONTINUOUS
10
2.0275694881889765
20
2.0159651968503938
11
2.0263723622047243
21
2.0171623228346456
0
LINE
8
BLACK
6
CONTINUOUS
10
2.0263723622047243
20
2.0171623228346456
11
2.0236748818897636
21
2.0185110629921259
0
LINE
8
BLACK
6
CONTINUOUS
10
2.0236748818897636
20
2.0185110629921259
11
2.015695157480315
21
2.0185110629921259
0
LINE
8
BLACK
6
CONTINUOUS
10
2.015695157480315
20
2.0185110629921259
11
2.0129976771653544
21
2.0171623228346456
0
LINE
8
BLACK
6
CONTINUOUS
10
2.0129976771653544
20
2.0171623228346456
11
2.0114617322834647
21
2.0156263779527559
0
LINE
8
BLACK
6
CONTINUOUS
10
2.0114617322834647
20
2.0156263779527559
11
2.0106216929133858
21
2.0150381889763778
0
LINE
8
BLACK
6
CONTINUOUS
10
2.0106216929133858
20
2.0150381889763778
11
2.0086096062992125
21
2.0148621259842519
0
LINE
8
BLACK
6
CONTINUOUS
10
2.0086096062992125
20
2.0148621259842519
11
2.0069550393700788
21
2.0160206692913385
0
LINE
8
BLACK
6
CONTINUOUS
10
2.0069550393700788
20
2.0160206692913385
11
2.0064323228346455
21
2.0179716141732285
0
LINE
8
BLACK
6
CONTINUOUS
10
2.0064323228346455
20
2.0179716141732285
11
2.0072859055118109
21
2.0198022047244093
0
LINE
8
BLACK
6
CONTINUOUS
10
2.0072859055118109
20
2.0198022047244093
11
2.0091606692913384
21
2.0216769685039369
0
LINE
8
BLACK
6
CONTINUOUS
10
2.0091606692913384
20
2.0216769685039369
11
2.0098837401574801
21
2.0221832677165352
0
LINE
8
BLACK
6
CONTINUOUS
10
2.0098837401574801
20
2.0221832677165352
11
2.0099280708661418
21
2.0222300787401575
0
LINE
8
BLACK
6
CONTINUOUS
10
2.0099280708661418
20
2.0222300787401575
11
2.0136775984251969
21
2.024104842519685
0
LINE
8
BLACK
6
CONTINUOUS
10
2.0136775984251969
20
2.024104842519685
11
2.0146605118110235
21
2.0243972047244094
0
LINE
8
BLACK
6
CONTINUOUS
10
2.0146605118110235
20
2.0243972047244094
11
2.0148322047244096
21
2.0243562204724408
0
LINE
8
BLACK
6
CONTINUOUS
10
2.0148322047244096
20
2.0243562204724408
11
2.0149981102362204
21
2.0244165748031495
0
LINE
8
BLACK
6
CONTINUOUS
10
2.0149981102362204
20
2.0244165748031495
11
2.0243719291338582
21
2.0244165748031495
0
LINE
8
BLACK
6
CONTINUOUS
10
2.0243719291338582
20
2.0244165748031495
11
2.0253818503937007
21
2.0242385039370077
0
LINE
8
BLACK
6
CONTINUOUS
10
0.3947628346456693
20
2.023361811023622
11
0.3954536614173228
21
2.0214638188976379
0
LINE
8
BLACK
6
CONTINUOUS
10
0.3954536614173228
20
2.0214638188976379
11
0.3954536614173228
21
1.9820937401574803
0
LINE
8
BLACK
6
CONTINUOUS
10
0.3954536614173228
20
1.9820937401574803
11
0.3952755905511811
21
1.9810838188976378
0
LINE
8
BLACK
6
CONTINUOUS
10
0.3952755905511811
20
1.9810838188976378
11
0.3939772834645669
21
1.9795365748031495
0
LINE
8
BLACK
6
CONTINUOUS
10
0.3939772834645669
20
1.9795365748031495
11
0.3919881496062992
21
1.9791858267716536
0
LINE
8
BLACK
6
CONTINUOUS
10
0.3919881496062992
20
1.9791858267716536
11
0.3902389763779527
21
1.980195748031496
0
LINE
8
BLACK
6
CONTINUOUS
10
0.3902389763779527
20
1.980195748031496
11
0.3895481496062992
21
1.9820937401574803
0
LINE
8
BLACK
6
CONTINUOUS
10
0.3895481496062992
20
1.9820937401574803
11
0.3895481496062992
21
1.9997634251968504
0
LINE
8
BLACK
6
CONTINUOUS
10
0.3895481496062992
20
1.9997634251968504
11
0.3729564960629921
21
1.9997634251968504
0
LINE
8
BLACK
6
CONTINUOUS
10
0.3729564960629921
20
1.9997634251968504
11
0.3729564960629921
21
1.9820937401574803
0
LINE
8
BLACK
6
CONTINUOUS
10
0.3729564960629921
20
1.9820937401574803
11
0.3727784251968504
21
1.9810838188976378
0
LINE
8
BLACK
6
CONTINUOUS
10
0.3727784251968504
20
1.9810838188976378
11
0.3714801181102362
21
1.9795365748031495
0
LINE
8
BLACK
6
CONTINUOUS
10
0.3714801181102362
20
1.9795365748031495
11
0.3694909842519685
21
1.9791858267716536
0
LINE
8
BLACK
6
CONTINUOUS
10
0.3694909842519685
20
1.9791858267716536
11
0.367741811023622
21
1.980195748031496
0
LINE
8
BLACK
6
CONTINUOUS
10
0.367741811023622
20
1.980195748031496
11
0.3670509842519685
21
1.9820937401574803
0
LINE
8
BLACK
6
CONTINUOUS
10
0.3670509842519685
20
1.9820937401574803
11
0.3670509842519685
21
2.0214638188976379
0
LINE
8
BLACK
6
CONTINUOUS
10
0.3670509842519685
20
2.0214638188976379
11
0.3672290551181102
21
2.0224737401574804
0
LINE
8
BLACK
6
CONTINUOUS
10
0.3672290551181102
20
2.0224737401574804
11
0.3685273622047244
21
2.0240209842519685
0
LINE
8
BLACK
6
CONTINUOUS
10
0.3685273622047244
20
2.0240209842519685
11
0.3705164960629921
21
2.0243717322834645
0
LINE
8
BLACK
6
CONTINUOUS
10
0.3705164960629921
20
2.0243717322834645
11
0.3722656692913386
21
2.023361811023622
0
LINE
8
BLACK
6
CONTINUOUS
10
0.3722656692913386
20
2.023361811023622
11
0.3729564960629921
21
2.0214638188976379
0
LINE
8
BLACK
6
CONTINUOUS
10
0.3729564960629921
20
2.0214638188976379
11
0.3729564960629921
21
2.005668937007874
0
LINE
8
BLACK
6
CONTINUOUS
10
0.3729564960629921
20
2.005668937007874
11
0.3895481496062992
21
2.005668937007874
0
LINE
8
BLACK
6
CONTINUOUS
10
0.3895481496062992
20
2.005668937007874
11
0.3895481496062992
21
2.0214638188976379
0
LINE
8
BLACK
6
CONTINUOUS
10
0.3895481496062992
20
2.0214638188976379
11
0.3897262204724409
21
2.0224737401574804
0
LINE
8
BLACK
6
CONTINUOUS
10
0.3897262204724409
20
2.0224737401574804
11
0.3910245275590551
21
2.0240209842519685
0
LINE
8
BLACK
6
CONTINUOUS
10
0.3910245275590551
20
2.0240209842519685
11
0.3930136614173228
21
2.0243717322834645
0
LINE
8
BLACK
6
CONTINUOUS
10
0.3930136614173228
20
2.0243717322834645
11
0.3947628346456693
21
2.023361811023622
0
LINE
8
BLACK
6
CONTINUOUS
10
1.9947628346456692
20
2.023361811023622
11
1.9954536614173228
21
2.0214638188976379
0
LINE
8
BLACK
6
CONTINUOUS
10
1.9954536614173228
20
2.0214638188976379
11
1.9954536614173228
21
1.9820937401574803
0
LINE
8
BLACK
6
CONTINUOUS
10
1.9954536614173228
20
1.9820937401574803
11
1.995275590551181
21
1.9810838188976378
0
LINE
8
BLACK
6
CONTINUOUS
10
1.995275590551181
20
1.9810838188976378
11
1.9939772834645668
21
1.9795365748031495
0
LINE
8
BLACK
6
CONTINUOUS
10
1.9939772834645668
20
1.9795365748031495
11
1.9919881496062992
21
1.9791858267716536
0
LINE
8
BLACK
6
CONTINUOUS
10
1.9919881496062992
20
1.9791858267716536
11
1.9902389763779527
21
1.980195748031496
0
LINE
8
BLACK
6
CONTINUOUS
10
1.9902389763779527
20
1.980195748031496
11
1.9895481496062992
21
1.9820937401574803
0
LINE
8
BLACK
6
CONTINUOUS
10
1.9895481496062992
20
1.9820937401574803
11
1.9895481496062992
21
1.9997634251968504
0
LINE
8
BLACK
6
CONTINUOUS
10
1.9895481496062992
20
1.9997634251968504
11
1.9729564960629922
21
1.9997634251968504
0
LINE
8
BLACK
6
CONTINUOUS
10
1.9729564960629922
20
1.9997634251968504
11
1.9729564960629922
21
1.9820937401574803
0
LINE
8
BLACK
6
CONTINUOUS
10
1.9729564960629922
20
1.9820937401574803
11
1.9727784251968503
21
1.9810838188976378
0
LINE
8
BLACK
6
CONTINUOUS
10
1.9727784251968503
20
1.9810838188976378
11
1.9714801181102362
21
1.9795365748031495
0
LINE
8
BLACK
6
CONTINUOUS
10
1.9714801181102362
20
1.9795365748031495
11
1.9694909842519686
21
1.9791858267716536
0
LINE
8
BLACK
6
CONTINUOUS
10
1.9694909842519686
20
1.9791858267716536
11
1.967741811023622
21
1.980195748031496
0
LINE
8
BLACK
6
CONTINUOUS
10
1.967741811023622
20
1.980195748031496
11
1.9670509842519686
21
1.9820937401574803
0
LINE
8
BLACK
6
CONTINUOUS
10
1.9670509842519686
20
1.9820937401574803
11
1.9670509842519686
21
2.0214638188976379
0
LINE
8
BLACK
6
CONTINUOUS
10
1.9670509842519686
20
2.0214638188976379
11
1.9672290551181102
21
2.0224737401574804
0
LINE
8
BLACK
6
CONTINUOUS
10
1.9672290551181102
20
2.0224737401574804
11
1.9685273622047244
21
2.0240209842519685
0
LINE
8
BLACK
6
CONTINUOUS
10
1.9685273622047244
20
2.0240209842519685
11
1.9705164960629922
21
2.0243717322834645
0
LINE
8
BLACK
6
CONTINUOUS
10
1.9705164960629922
20
2.0243717322834645
11
1.9722656692913385
21
2.023361811023622
0
LINE
8
BLACK
6
CONTINUOUS
10
1.9722656692913385
20
2.023361811023622
11
1.9729564960629922
21
2.0214638188976379
0
LINE
8
BLACK
6
CONTINUOUS
10
1.9729564960629922
20
2.0214638188976379
11
1.9729564960629922
21
2.005668937007874
0
LINE
8
BLACK
6
CONTINUOUS
10
1.9729564960629922
20
2.005668937007874
11
1.9895481496062992
21
2.005668937007874
0
LINE
8
BLACK
6
CONTINUOUS
10
1.9895481496062992
20
2.005668937007874
11
1.9895481496062992
21
2.0214638188976379
0
LINE
8
BLACK
6
CONTINUOUS
10
1.9895481496062992
20
2.0214638188976379
11
1.9897262204724409
21
2.0224737401574804
0
LINE
8
BLACK
6
CONTINUOUS
10
1.9897262204724409
20
2.0224737401574804
11
1.991024527559055
21
2.0240209842519685
0
LINE
8
BLACK
6
CONTINUOUS
10
1.991024527559055
20
2.0240209842519685
11
1.9930136614173228
21
2.0243717322834645
0
LINE
8
BLACK
6
CONTINUOUS
10
1.9930136614173228
20
2.0243717322834645
11
1.9947628346456692
21
2.023361811023622
  0
ENDSEC
  0
EOF
