  0
SECTION
  2
HEADER
  9
$ANGBASE
  50
0.0
  9
$ANGDIR
  70
1
  9
$MEASUREMENT
  70
0
  0
ENDSEC
  0
SECTION
  2
TABLES
  0
TABLE
  2
LTYPE
  70
4
  0
LTYPE
  5
40F
  2
CONTINUOUS
  70
0
  3
Solid line
  72
65
  73
0
  40
0.0
  0
LTYPE
  5
410
  2
DASHDOT
 70
0
  3
Dash Dot ____ _ ____ _
 72
65
 73
4
 40
2.0
 49
1.25
 49
-0.25
 49
0.25
 49
-0.25
  0
LTYPE
  5
411
  2
DASHED
 70
0
  3
Dashed __ __ __ __ __
 72
65
 73
2
 40
0.75
 49
0.5
 49
-0.25
  0
LTYPE
  5
43B
  2
DOTTED
 70
0
  3
Dotted .  .  .  .
 72
65
 73
2
 40
0.2
 49
0.0
 49
-0.2
  0
ENDTAB
  0
TABLE
  2
STYLE
  70
4
  0
STYLE
  2
KICAD
  70
0
  40
0
  41
1
  42
1
  50
0
  71
0
  3
isocp.shx
  0
STYLE
  2
KICADB
  70
0
  40
0
  41
1
  42
1
  50
0
  71
0
  3
isocp.shx
  0
STYLE
  2
KICADI
  70
0
  40
0
  41
1
  42
1
  50
15
  71
0
  3
isocp.shx
  0
STYLE
  2
KICADBI
  70
0
  40
0
  41
1
  42
1
  50
15
  71
0
  3
isocp.shx
  0
ENDTAB
  0
TABLE
  2
LAYER
  70
1
  0
LAYER
  2
BLACK
  70
0
  62
7
  6
CONTINUOUS
  0
ENDTAB
  0
ENDSEC
  0
SECTION
  2
ENTITIES
0
LINE
8
BLACK
6
CONTINUOUS
10
1.2029382677165354
20
0.5347857874015748
11
1.2040026771653543
21
0.5343448818897638
0
LINE
8
BLACK
6
CONTINUOUS
10
1.2040026771653543
20
0.5343448818897638
11
1.2048173228346457
21
0.5335302362204725
0
LINE
8
BLACK
6
CONTINUOUS
10
1.2048173228346457
20
0.5335302362204725
11
1.2052582283464566
21
0.5324658267716535
0
LINE
8
BLACK
6
CONTINUOUS
10
1.2052582283464566
20
0.5324658267716535
11
1.2053149606299212
21
0.5318897637795276
0
LINE
8
BLACK
6
CONTINUOUS
10
1.2053149606299212
20
0.5318897637795276
11
1.2053149606299212
21
0.2318897637795276
0
LINE
8
BLACK
6
CONTINUOUS
10
1.2053149606299212
20
0.2318897637795276
11
1.2052582283464566
21
0.2313137007874016
0
LINE
8
BLACK
6
CONTINUOUS
10
1.2052582283464566
20
0.2313137007874016
11
1.2048173228346457
21
0.2302492913385827
0
LINE
8
BLACK
6
CONTINUOUS
10
1.2048173228346457
20
0.2302492913385827
11
1.2040026771653543
21
0.2294346456692913
0
LINE
8
BLACK
6
CONTINUOUS
10
1.2040026771653543
20
0.2294346456692913
11
1.2029382677165354
21
0.2289937401574803
0
LINE
8
BLACK
6
CONTINUOUS
10
1.2029382677165354
20
0.2289937401574803
11
1.2023622047244094
21
0.2289370078740157
0
LINE
8
BLACK
6
CONTINUOUS
10
1.2023622047244094
20
0.2289370078740157
11
1.0023622047244094
21
0.2289370078740157
0
LINE
8
BLACK
6
CONTINUOUS
10
1.0023622047244094
20
0.2289370078740157
11
1.0017861417322835
21
0.2289937401574803
0
LINE
8
BLACK
6
CONTINUOUS
10
1.0017861417322835
20
0.2289937401574803
11
1.0007217322834645
21
0.2294346456692913
0
LINE
8
BLACK
6
CONTINUOUS
10
1.0007217322834645
20
0.2294346456692913
11
0.9999070866141732
21
0.2302492913385827
0
LINE
8
BLACK
6
CONTINUOUS
10
0.9999070866141732
20
0.2302492913385827
11
0.9994661811023622
21
0.2313137007874016
0
LINE
8
BLACK
6
CONTINUOUS
10
0.9994661811023622
20
0.2313137007874016
11
0.9994094488188976
21
0.2318897637795276
0
LINE
8
BLACK
6
CONTINUOUS
10
0.9994094488188976
20
0.2318897637795276
11
0.9994094488188976
21
0.5318897637795276
0
LINE
8
BLACK
6
CONTINUOUS
10
0.9994094488188976
20
0.5318897637795276
11
0.9994661811023622
21
0.5324658267716535
0
LINE
8
BLACK
6
CONTINUOUS
10
0.9994661811023622
20
0.5324658267716535
11
0.9999070866141732
21
0.5335302362204725
0
LINE
8
BLACK
6
CONTINUOUS
10
0.9999070866141732
20
0.5335302362204725
11
1.0007217322834645
21
0.5343448818897638
0
LINE
8
BLACK
6
CONTINUOUS
10
1.0007217322834645
20
0.5343448818897638
11
1.0017861417322835
21
0.5347857874015748
0
LINE
8
BLACK
6
CONTINUOUS
10
1.0017861417322835
20
0.5347857874015748
11
1.0023622047244094
21
0.5348425196850394
0
LINE
8
BLACK
6
CONTINUOUS
10
1.0023622047244094
20
0.5348425196850394
11
1.2023622047244094
21
0.5348425196850394
0
LINE
8
BLACK
6
CONTINUOUS
10
1.2023622047244094
20
0.5348425196850394
11
1.2029382677165354
21
0.5347857874015748
0
LINE
8
BLACK
6
CONTINUOUS
10
1.0053149606299212
20
0.5289370078740158
11
1.0053149606299212
21
0.2348425196850394
0
LINE
8
BLACK
6
CONTINUOUS
10
1.0053149606299212
20
0.2348425196850394
11
1.1994094488188976
21
0.2348425196850394
0
LINE
8
BLACK
6
CONTINUOUS
10
1.1994094488188976
20
0.2348425196850394
11
1.1994094488188976
21
0.5289370078740158
0
LINE
8
BLACK
6
CONTINUOUS
10
1.1994094488188976
20
0.5289370078740158
11
1.0053149606299212
21
0.5289370078740158
0
LINE
8
BLACK
6
CONTINUOUS
10
1.7029382677165354
20
0.5387227952755905
11
1.7040026771653543
21
0.5382818897637796
0
LINE
8
BLACK
6
CONTINUOUS
10
1.7040026771653543
20
0.5382818897637796
11
1.7048173228346457
21
0.5374672440944882
0
LINE
8
BLACK
6
CONTINUOUS
10
1.7048173228346457
20
0.5374672440944882
11
1.7052582283464566
21
0.5364028346456693
0
LINE
8
BLACK
6
CONTINUOUS
10
1.7052582283464566
20
0.5364028346456693
11
1.7053149606299212
21
0.5358267716535433
0
LINE
8
BLACK
6
CONTINUOUS
10
1.7053149606299212
20
0.5358267716535433
11
1.7053149606299212
21
0.2358267716535433
0
LINE
8
BLACK
6
CONTINUOUS
10
1.7053149606299212
20
0.2358267716535433
11
1.7052582283464566
21
0.2352507086614173
0
LINE
8
BLACK
6
CONTINUOUS
10
1.7052582283464566
20
0.2352507086614173
11
1.7048173228346457
21
0.2341862992125984
0
LINE
8
BLACK
6
CONTINUOUS
10
1.7048173228346457
20
0.2341862992125984
11
1.7040026771653543
21
0.2333716535433071
0
LINE
8
BLACK
6
CONTINUOUS
10
1.7040026771653543
20
0.2333716535433071
11
1.7029382677165354
21
0.232930748031496
0
LINE
8
BLACK
6
CONTINUOUS
10
1.7029382677165354
20
0.232930748031496
11
1.7023622047244094
21
0.2328740157480315
0
LINE
8
BLACK
6
CONTINUOUS
10
1.7023622047244094
20
0.2328740157480315
11
1.5023622047244094
21
0.2328740157480315
0
LINE
8
BLACK
6
CONTINUOUS
10
1.5023622047244094
20
0.2328740157480315
11
1.5017861417322835
21
0.232930748031496
0
LINE
8
BLACK
6
CONTINUOUS
10
1.5017861417322835
20
0.232930748031496
11
1.5007217322834645
21
0.2333716535433071
0
LINE
8
BLACK
6
CONTINUOUS
10
1.5007217322834645
20
0.2333716535433071
11
1.4999070866141733
21
0.2341862992125984
0
LINE
8
BLACK
6
CONTINUOUS
10
1.4999070866141733
20
0.2341862992125984
11
1.4994661811023622
21
0.2352507086614173
0
LINE
8
BLACK
6
CONTINUOUS
10
1.4994661811023622
20
0.2352507086614173
11
1.4994094488188976
21
0.2358267716535433
0
LINE
8
BLACK
6
CONTINUOUS
10
1.4994094488188976
20
0.2358267716535433
11
1.4994094488188976
21
0.5358267716535433
0
LINE
8
BLACK
6
CONTINUOUS
10
1.4994094488188976
20
0.5358267716535433
11
1.4994661811023622
21
0.5364028346456693
0
LINE
8
BLACK
6
CONTINUOUS
10
1.4994661811023622
20
0.5364028346456693
11
1.4999070866141733
21
0.5374672440944882
0
LINE
8
BLACK
6
CONTINUOUS
10
1.4999070866141733
20
0.5374672440944882
11
1.5007217322834645
21
0.5382818897637796
0
LINE
8
BLACK
6
CONTINUOUS
10
1.5007217322834645
20
0.5382818897637796
11
1.5017861417322835
21
0.5387227952755905
0
LINE
8
BLACK
6
CONTINUOUS
10
1.5017861417322835
20
0.5387227952755905
11
1.5023622047244094
21
0.5387795275590551
0
LINE
8
BLACK
6
CONTINUOUS
10
1.5023622047244094
20
0.5387795275590551
11
1.7023622047244094
21
0.5387795275590551
0
LINE
8
BLACK
6
CONTINUOUS
10
1.7023622047244094
20
0.5387795275590551
11
1.7029382677165354
21
0.5387227952755905
0
LINE
8
BLACK
6
CONTINUOUS
10
1.5053149606299212
20
0.5328740157480315
11
1.5053149606299212
21
0.2387795275590551
0
LINE
8
BLACK
6
CONTINUOUS
10
1.5053149606299212
20
0.2387795275590551
11
1.6994094488188976
21
0.2387795275590551
0
LINE
8
BLACK
6
CONTINUOUS
10
1.6994094488188976
20
0.2387795275590551
11
1.6994094488188976
21
0.5328740157480315
0
LINE
8
BLACK
6
CONTINUOUS
10
1.6994094488188976
20
0.5328740157480315
11
1.5053149606299212
21
0.5328740157480315
0
LINE
8
BLACK
6
CONTINUOUS
10
1.5669348031496062
20
0.6754622440944882
11
1.5673822440944882
21
0.6750950393700788
0
LINE
8
BLACK
6
CONTINUOUS
10
1.5673822440944882
20
0.6750950393700788
11
1.5848387401574804
21
0.6576385433070866
0
LINE
8
BLACK
6
CONTINUOUS
10
1.5848387401574804
20
0.6576385433070866
11
1.5848387401574804
21
0.6730071259842519
0
LINE
8
BLACK
6
CONTINUOUS
10
1.5848387401574804
20
0.6730071259842519
11
1.5848954724409448
21
0.6735831889763779
0
LINE
8
BLACK
6
CONTINUOUS
10
1.5848954724409448
20
0.6735831889763779
11
1.5853363779527558
21
0.6746475984251968
0
LINE
8
BLACK
6
CONTINUOUS
10
1.5853363779527558
20
0.6746475984251968
11
1.5861510236220473
21
0.6754622440944882
0
LINE
8
BLACK
6
CONTINUOUS
10
1.5861510236220473
20
0.6754622440944882
11
1.5872154330708661
21
0.6759031496062992
0
LINE
8
BLACK
6
CONTINUOUS
10
1.5872154330708661
20
0.6759031496062992
11
1.5883675590551181
21
0.6759031496062992
0
LINE
8
BLACK
6
CONTINUOUS
10
1.5883675590551181
20
0.6759031496062992
11
1.5894319685039369
21
0.6754622440944882
0
LINE
8
BLACK
6
CONTINUOUS
10
1.5894319685039369
20
0.6754622440944882
11
1.5902466141732283
21
0.6746475984251968
0
LINE
8
BLACK
6
CONTINUOUS
10
1.5902466141732283
20
0.6746475984251968
11
1.5906875196850394
21
0.6735831889763779
0
LINE
8
BLACK
6
CONTINUOUS
10
1.5906875196850394
20
0.6735831889763779
11
1.590744251968504
21
0.6730071259842519
0
LINE
8
BLACK
6
CONTINUOUS
10
1.590744251968504
20
0.6730071259842519
11
1.590744251968504
21
0.6336370472440944
0
LINE
8
BLACK
6
CONTINUOUS
10
1.590744251968504
20
0.6336370472440944
11
1.5906875196850394
21
0.6330609842519684
0
LINE
8
BLACK
6
CONTINUOUS
10
1.5906875196850394
20
0.6330609842519684
11
1.5902466141732283
21
0.6319965748031496
0
LINE
8
BLACK
6
CONTINUOUS
10
1.5902466141732283
20
0.6319965748031496
11
1.5894319685039369
21
0.6311819291338583
0
LINE
8
BLACK
6
CONTINUOUS
10
1.5894319685039369
20
0.6311819291338583
11
1.5883675590551181
21
0.6307410236220472
0
LINE
8
BLACK
6
CONTINUOUS
10
1.5883675590551181
20
0.6307410236220472
11
1.5872154330708661
21
0.6307410236220472
0
LINE
8
BLACK
6
CONTINUOUS
10
1.5872154330708661
20
0.6307410236220472
11
1.5861510236220473
21
0.6311819291338583
0
LINE
8
BLACK
6
CONTINUOUS
10
1.5861510236220473
20
0.6311819291338583
11
1.5853363779527558
21
0.6319965748031496
0
LINE
8
BLACK
6
CONTINUOUS
10
1.5853363779527558
20
0.6319965748031496
11
1.5848954724409448
21
0.6330609842519684
0
LINE
8
BLACK
6
CONTINUOUS
10
1.5848954724409448
20
0.6330609842519684
11
1.5848387401574804
21
0.6336370472440944
0
LINE
8
BLACK
6
CONTINUOUS
10
1.5848387401574804
20
0.6336370472440944
11
1.5848387401574804
21
0.6492868897637795
0
LINE
8
BLACK
6
CONTINUOUS
10
1.5848387401574804
20
0.6492868897637795
11
1.5824866535433071
21
0.6516389763779528
0
LINE
8
BLACK
6
CONTINUOUS
10
1.5824866535433071
20
0.6516389763779528
11
1.5676565354330709
21
0.6318653937007874
0
LINE
8
BLACK
6
CONTINUOUS
10
1.5676565354330709
20
0.6318653937007874
11
1.5672655118110237
21
0.6314385826771653
0
LINE
8
BLACK
6
CONTINUOUS
10
1.5672655118110237
20
0.6314385826771653
11
1.5662741338582677
21
0.6308516141732283
0
LINE
8
BLACK
6
CONTINUOUS
10
1.5662741338582677
20
0.6308516141732283
11
1.565133622047244
21
0.6306886614173228
0
LINE
8
BLACK
6
CONTINUOUS
10
1.565133622047244
20
0.6306886614173228
11
1.564017559055118
21
0.6309746062992125
0
LINE
8
BLACK
6
CONTINUOUS
10
1.564017559055118
20
0.6309746062992125
11
1.5630958661417322
21
0.6316658661417323
0
LINE
8
BLACK
6
CONTINUOUS
10
1.5630958661417322
20
0.6316658661417323
11
1.5625088976377952
21
0.6326572440944882
0
LINE
8
BLACK
6
CONTINUOUS
10
1.5625088976377952
20
0.6326572440944882
11
1.5623459448818897
21
0.6337977559055118
0
LINE
8
BLACK
6
CONTINUOUS
10
1.5623459448818897
20
0.6337977559055118
11
1.5626318897637794
21
0.6349138188976378
0
LINE
8
BLACK
6
CONTINUOUS
10
1.5626318897637794
20
0.6349138188976378
11
1.5629321259842519
21
0.6354087007874015
0
LINE
8
BLACK
6
CONTINUOUS
10
1.5629321259842519
20
0.6354087007874015
11
1.5782684251968504
21
0.6558572047244094
0
LINE
8
BLACK
6
CONTINUOUS
10
1.5782684251968504
20
0.6558572047244094
11
1.5632064173228346
21
0.6709192125984251
0
LINE
8
BLACK
6
CONTINUOUS
10
1.5632064173228346
20
0.6709192125984251
11
1.5628392125984252
21
0.671366653543307
0
LINE
8
BLACK
6
CONTINUOUS
10
1.5628392125984252
20
0.671366653543307
11
1.5623983070866141
21
0.6724311023622047
0
LINE
8
BLACK
6
CONTINUOUS
10
1.5623983070866141
20
0.6724311023622047
11
1.5623983070866141
21
0.6735831496062992
0
LINE
8
BLACK
6
CONTINUOUS
10
1.5623983070866141
20
0.6735831496062992
11
1.5628392125984252
21
0.6746475984251968
0
LINE
8
BLACK
6
CONTINUOUS
10
1.5628392125984252
20
0.6746475984251968
11
1.5636538582677164
21
0.6754622440944882
0
LINE
8
BLACK
6
CONTINUOUS
10
1.5636538582677164
20
0.6754622440944882
11
1.5647183070866142
21
0.6759031496062992
0
LINE
8
BLACK
6
CONTINUOUS
10
1.5647183070866142
20
0.6759031496062992
11
1.5658703543307086
21
0.6759031496062992
0
LINE
8
BLACK
6
CONTINUOUS
10
1.5658703543307086
20
0.6759031496062992
11
1.5669348031496062
21
0.6754622440944882
0
LINE
8
BLACK
6
CONTINUOUS
10
1.546218622047244
20
0.6761120866141732
11
1.54714031496063
21
0.6754207874015747
0
LINE
8
BLACK
6
CONTINUOUS
10
1.54714031496063
20
0.6754207874015747
11
1.5477272834645668
21
0.6744294094488189
0
LINE
8
BLACK
6
CONTINUOUS
10
1.5477272834645668
20
0.6744294094488189
11
1.5478902362204725
21
0.673288937007874
0
LINE
8
BLACK
6
CONTINUOUS
10
1.5478902362204725
20
0.673288937007874
11
1.5476043307086613
21
0.6721728346456692
0
LINE
8
BLACK
6
CONTINUOUS
10
1.5476043307086613
20
0.6721728346456692
11
1.5473040551181103
21
0.6716779527559055
0
LINE
8
BLACK
6
CONTINUOUS
10
1.5473040551181103
20
0.6716779527559055
11
1.5319677165354331
21
0.6512294881889764
0
LINE
8
BLACK
6
CONTINUOUS
10
1.5319677165354331
20
0.6512294881889764
11
1.5470297637795276
21
0.6361674409448819
0
LINE
8
BLACK
6
CONTINUOUS
10
1.5470297637795276
20
0.6361674409448819
11
1.547396968503937
21
0.63572
0
LINE
8
BLACK
6
CONTINUOUS
10
1.547396968503937
20
0.63572
11
1.5478378740157479
21
0.634655590551181
0
LINE
8
BLACK
6
CONTINUOUS
10
1.5478378740157479
20
0.634655590551181
11
1.5478378740157479
21
0.6335035039370078
0
LINE
8
BLACK
6
CONTINUOUS
10
1.5478378740157479
20
0.6335035039370078
11
1.547396968503937
21
0.6324390551181103
0
LINE
8
BLACK
6
CONTINUOUS
10
1.547396968503937
20
0.6324390551181103
11
1.5465823228346456
21
0.6316244094488189
0
LINE
8
BLACK
6
CONTINUOUS
10
1.5465823228346456
20
0.6316244094488189
11
1.545517874015748
21
0.6311835039370078
0
LINE
8
BLACK
6
CONTINUOUS
10
1.545517874015748
20
0.6311835039370078
11
1.5443657874015748
21
0.6311835039370078
0
LINE
8
BLACK
6
CONTINUOUS
10
1.5443657874015748
20
0.6311835039370078
11
1.5433013779527558
21
0.6316244094488189
0
LINE
8
BLACK
6
CONTINUOUS
10
1.5433013779527558
20
0.6316244094488189
11
1.542853937007874
21
0.6319916141732284
0
LINE
8
BLACK
6
CONTINUOUS
10
1.542853937007874
20
0.6319916141732284
11
1.5253974409448818
21
0.6494481102362205
0
LINE
8
BLACK
6
CONTINUOUS
10
1.5253974409448818
20
0.6494481102362205
11
1.5253974409448818
21
0.6340795275590551
0
LINE
8
BLACK
6
CONTINUOUS
10
1.5253974409448818
20
0.6340795275590551
11
1.5253407086614172
21
0.6335034645669291
0
LINE
8
BLACK
6
CONTINUOUS
10
1.5253407086614172
20
0.6335034645669291
11
1.5248998031496062
21
0.6324390551181103
0
LINE
8
BLACK
6
CONTINUOUS
10
1.5248998031496062
20
0.6324390551181103
11
1.5240851574803149
21
0.6316244094488189
0
LINE
8
BLACK
6
CONTINUOUS
10
1.5240851574803149
20
0.6316244094488189
11
1.5230207480314961
21
0.6311835039370078
0
LINE
8
BLACK
6
CONTINUOUS
10
1.5230207480314961
20
0.6311835039370078
11
1.5218686220472442
21
0.6311835039370078
0
LINE
8
BLACK
6
CONTINUOUS
10
1.5218686220472442
20
0.6311835039370078
11
1.5208042125984251
21
0.6316244094488189
0
LINE
8
BLACK
6
CONTINUOUS
10
1.5208042125984251
20
0.6316244094488189
11
1.5199895669291339
21
0.6324390551181103
0
LINE
8
BLACK
6
CONTINUOUS
10
1.5199895669291339
20
0.6324390551181103
11
1.5195486614173228
21
0.6335034645669291
0
LINE
8
BLACK
6
CONTINUOUS
10
1.5195486614173228
20
0.6335034645669291
11
1.5194919291338582
21
0.6340795275590551
0
LINE
8
BLACK
6
CONTINUOUS
10
1.5194919291338582
20
0.6340795275590551
11
1.5194919291338582
21
0.6734496062992126
0
LINE
8
BLACK
6
CONTINUOUS
10
1.5194919291338582
20
0.6734496062992126
11
1.5195486614173228
21
0.6740256692913386
0
LINE
8
BLACK
6
CONTINUOUS
10
1.5195486614173228
20
0.6740256692913386
11
1.5199895669291339
21
0.6750900787401575
0
LINE
8
BLACK
6
CONTINUOUS
10
1.5199895669291339
20
0.6750900787401575
11
1.5208042125984251
21
0.6759047244094488
0
LINE
8
BLACK
6
CONTINUOUS
10
1.5208042125984251
20
0.6759047244094488
11
1.5218686220472442
21
0.6763456299212598
0
LINE
8
BLACK
6
CONTINUOUS
10
1.5218686220472442
20
0.6763456299212598
11
1.5230207480314961
21
0.6763456299212598
0
LINE
8
BLACK
6
CONTINUOUS
10
1.5230207480314961
20
0.6763456299212598
11
1.5240851574803149
21
0.6759047244094488
0
LINE
8
BLACK
6
CONTINUOUS
10
1.5240851574803149
20
0.6759047244094488
11
1.5248998031496062
21
0.6750900787401575
0
LINE
8
BLACK
6
CONTINUOUS
10
1.5248998031496062
20
0.6750900787401575
11
1.5253407086614172
21
0.6740256692913386
0
LINE
8
BLACK
6
CONTINUOUS
10
1.5253407086614172
20
0.6740256692913386
11
1.5253974409448818
21
0.6734496062992126
0
LINE
8
BLACK
6
CONTINUOUS
10
1.5253974409448818
20
0.6734496062992126
11
1.5253974409448818
21
0.6577997637795275
0
LINE
8
BLACK
6
CONTINUOUS
10
1.5253974409448818
20
0.6577997637795275
11
1.5277494881889764
21
0.6554477165354331
0
LINE
8
BLACK
6
CONTINUOUS
10
1.5277494881889764
20
0.6554477165354331
11
1.5425796456692913
21
0.6752212598425197
0
LINE
8
BLACK
6
CONTINUOUS
10
1.5425796456692913
20
0.6752212598425197
11
1.5429706692913385
21
0.6756480708661418
0
LINE
8
BLACK
6
CONTINUOUS
10
1.5429706692913385
20
0.6756480708661418
11
1.5439620472440945
21
0.6762350787401574
0
LINE
8
BLACK
6
CONTINUOUS
10
1.5439620472440945
20
0.6762350787401574
11
1.5451025590551182
21
0.6763979921259843
0
LINE
8
BLACK
6
CONTINUOUS
10
1.5451025590551182
20
0.6763979921259843
11
1.546218622047244
21
0.6761120866141732
0
LINE
8
BLACK
6
CONTINUOUS
10
0.4173234645669291
20
0.7539368897637795
11
0.4173237795275591
21
0.753936968503937
0
LINE
8
BLACK
6
CONTINUOUS
10
0.4173237795275591
20
0.753936968503937
11
0.4173249212598425
21
0.7539366141732283
0
LINE
8
BLACK
6
CONTINUOUS
10
0.4173249212598425
20
0.7539366141732283
11
0.4180761417322835
21
0.7537871653543307
0
LINE
8
BLACK
6
CONTINUOUS
10
0.4180761417322835
20
0.7537871653543307
11
0.4182170078740157
21
0.7536462992125984
0
LINE
8
BLACK
6
CONTINUOUS
10
0.4182170078740157
20
0.7536462992125984
11
0.4184806692913386
21
0.7535604724409448
0
LINE
8
BLACK
6
CONTINUOUS
10
0.4184806692913386
20
0.7535604724409448
11
0.4184806299212598
21
0.7535604724409448
0
LINE
8
BLACK
6
CONTINUOUS
10
0.4184806299212598
20
0.7535604724409448
11
0.425099251968504
21
0.7479025984251968
0
LINE
8
BLACK
6
CONTINUOUS
10
0.425099251968504
20
0.7479025984251968
11
0.430751811023622
21
0.7412794881889764
0
LINE
8
BLACK
6
CONTINUOUS
10
0.430751811023622
20
0.7412794881889764
11
0.4352992913385827
21
0.7338540157480314
0
LINE
8
BLACK
6
CONTINUOUS
10
0.4352992913385827
20
0.7338540157480314
11
0.438629842519685
21
0.7258088582677166
0
LINE
8
BLACK
6
CONTINUOUS
10
0.438629842519685
20
0.7258088582677166
11
0.4406614960629921
21
0.7173418897637795
0
LINE
8
BLACK
6
CONTINUOUS
10
0.4406614960629921
20
0.7173418897637795
11
0.4413443307086614
21
0.7086614173228346
0
LINE
8
BLACK
6
CONTINUOUS
10
0.4413443307086614
20
0.7086614173228346
11
0.4406614960629921
21
0.6999809448818898
0
LINE
8
BLACK
6
CONTINUOUS
10
0.4406614960629921
20
0.6999809448818898
11
0.438629842519685
21
0.6915139763779528
0
LINE
8
BLACK
6
CONTINUOUS
10
0.438629842519685
20
0.6915139763779528
11
0.4352992913385827
21
0.6834688188976378
0
LINE
8
BLACK
6
CONTINUOUS
10
0.4352992913385827
20
0.6834688188976378
11
0.430751811023622
21
0.676043346456693
0
LINE
8
BLACK
6
CONTINUOUS
10
0.430751811023622
20
0.676043346456693
11
0.425099251968504
21
0.6694202362204724
0
LINE
8
BLACK
6
CONTINUOUS
10
0.425099251968504
20
0.6694202362204724
11
0.4184806299212598
21
0.6637623622047244
0
LINE
8
BLACK
6
CONTINUOUS
10
0.4184806299212598
20
0.6637623622047244
11
0.4184806692913386
21
0.6637623622047244
0
LINE
8
BLACK
6
CONTINUOUS
10
0.4184806692913386
20
0.6637623622047244
11
0.4182170078740157
21
0.6636765748031496
0
LINE
8
BLACK
6
CONTINUOUS
10
0.4182170078740157
20
0.6636765748031496
11
0.4180761417322835
21
0.6635356692913386
0
LINE
8
BLACK
6
CONTINUOUS
10
0.4180761417322835
20
0.6635356692913386
11
0.4173249212598425
21
0.6633862598425196
0
LINE
8
BLACK
6
CONTINUOUS
10
0.4173249212598425
20
0.6633862598425196
11
0.4173237795275591
21
0.6633858661417322
0
LINE
8
BLACK
6
CONTINUOUS
10
0.4173237795275591
20
0.6633858661417322
11
0.4173234645669291
21
0.6633859842519685
0
LINE
8
BLACK
6
CONTINUOUS
10
0.4173234645669291
20
0.6633859842519685
11
0.4173228346456693
21
0.6633858267716535
0
LINE
8
BLACK
6
CONTINUOUS
10
0.4173228346456693
20
0.6633858267716535
11
0.3503937007874016
21
0.6633858267716535
0
LINE
8
BLACK
6
CONTINUOUS
10
0.3503937007874016
20
0.6633858267716535
11
0.3496403937007874
21
0.6635356692913386
0
LINE
8
BLACK
6
CONTINUOUS
10
0.3496403937007874
20
0.6635356692913386
11
0.3495330708661417
21
0.6636429921259842
0
LINE
8
BLACK
6
CONTINUOUS
10
0.3495330708661417
20
0.6636429921259842
11
0.3493368503937008
21
0.663693622047244
0
LINE
8
BLACK
6
CONTINUOUS
10
0.3493368503937008
20
0.663693622047244
11
0.3493368897637795
21
0.663693622047244
0
LINE
8
BLACK
6
CONTINUOUS
10
0.3493368897637795
20
0.663693622047244
11
0.342758937007874
21
0.6686318503937008
0
LINE
8
BLACK
6
CONTINUOUS
10
0.342758937007874
20
0.6686318503937008
11
0.3370191338582677
21
0.6745233464566929
0
LINE
8
BLACK
6
CONTINUOUS
10
0.3370191338582677
20
0.6745233464566929
11
0.332254094488189
21
0.6812278346456693
0
LINE
8
BLACK
6
CONTINUOUS
10
0.332254094488189
20
0.6812278346456693
11
0.3285773622047244
21
0.6885855905511811
0
LINE
8
BLACK
6
CONTINUOUS
10
0.3285773622047244
20
0.6885855905511811
11
0.3260764173228347
21
0.6964214566929133
0
LINE
8
BLACK
6
CONTINUOUS
10
0.3260764173228347
20
0.6964214566929133
11
0.324810905511811
21
0.704548779527559
0
LINE
8
BLACK
6
CONTINUOUS
10
0.324810905511811
20
0.704548779527559
11
0.324810905511811
21
0.712774094488189
0
LINE
8
BLACK
6
CONTINUOUS
10
0.324810905511811
20
0.712774094488189
11
0.3260764566929134
21
0.7209014173228346
0
LINE
8
BLACK
6
CONTINUOUS
10
0.3260764566929134
20
0.7209014173228346
11
0.3285773622047244
21
0.7287372834645669
0
LINE
8
BLACK
6
CONTINUOUS
10
0.3285773622047244
20
0.7287372834645669
11
0.332254094488189
21
0.7360950393700787
0
LINE
8
BLACK
6
CONTINUOUS
10
0.332254094488189
20
0.7360950393700787
11
0.3370191338582677
21
0.7427994881889763
0
LINE
8
BLACK
6
CONTINUOUS
10
0.3370191338582677
20
0.7427994881889763
11
0.3427589763779528
21
0.7486909842519684
0
LINE
8
BLACK
6
CONTINUOUS
10
0.3427589763779528
20
0.7486909842519684
11
0.3493368897637795
21
0.7536292125984252
0
LINE
8
BLACK
6
CONTINUOUS
10
0.3493368897637795
20
0.7536292125984252
11
0.349533031496063
21
0.753679842519685
0
LINE
8
BLACK
6
CONTINUOUS
10
0.349533031496063
20
0.753679842519685
11
0.3496403937007874
21
0.7537871653543307
0
LINE
8
BLACK
6
CONTINUOUS
10
0.3496403937007874
20
0.7537871653543307
11
0.3503937007874016
21
0.7539370078740157
0
LINE
8
BLACK
6
CONTINUOUS
10
0.3503937007874016
20
0.7539370078740157
11
0.4173228346456693
21
0.7539370078740157
0
LINE
8
BLACK
6
CONTINUOUS
10
0.4173228346456693
20
0.7539370078740157
11
0.4173234645669291
21
0.7539368897637795
0
LINE
8
BLACK
6
CONTINUOUS
10
0.3509681102362205
20
0.75
11
0.3479602755905511
21
0.7480817322834645
0
LINE
8
BLACK
6
CONTINUOUS
10
0.3479602755905511
20
0.7480817322834645
11
0.3418132283464567
21
0.7425353937007874
0
LINE
8
BLACK
6
CONTINUOUS
10
0.3418132283464567
20
0.7425353937007874
11
0.336675905511811
21
0.7360425984251968
0
LINE
8
BLACK
6
CONTINUOUS
10
0.336675905511811
20
0.7360425984251968
11
0.3326917716535433
21
0.728784842519685
0
LINE
8
BLACK
6
CONTINUOUS
10
0.3326917716535433
20
0.728784842519685
11
0.3299722047244095
21
0.7209648818897637
0
LINE
8
BLACK
6
CONTINUOUS
10
0.3299722047244095
20
0.7209648818897637
11
0.3285931496062992
21
0.7128011417322835
0
LINE
8
BLACK
6
CONTINUOUS
10
0.3285931496062992
20
0.7128011417322835
11
0.3285931496062992
21
0.7045217322834646
0
LINE
8
BLACK
6
CONTINUOUS
10
0.3285931496062992
20
0.7045217322834646
11
0.3299721653543307
21
0.6963579921259843
0
LINE
8
BLACK
6
CONTINUOUS
10
0.3299721653543307
20
0.6963579921259843
11
0.3326917716535433
21
0.688538031496063
0
LINE
8
BLACK
6
CONTINUOUS
10
0.3326917716535433
20
0.688538031496063
11
0.3366758661417323
21
0.6812802362204724
0
LINE
8
BLACK
6
CONTINUOUS
10
0.3366758661417323
20
0.6812802362204724
11
0.3418132283464567
21
0.6747874803149606
0
LINE
8
BLACK
6
CONTINUOUS
10
0.3418132283464567
20
0.6747874803149606
11
0.3479602755905511
21
0.6692411023622047
0
LINE
8
BLACK
6
CONTINUOUS
10
0.3479602755905511
20
0.6692411023622047
11
0.3509681102362205
21
0.6673228346456693
0
LINE
8
BLACK
6
CONTINUOUS
10
0.3509681102362205
20
0.6673228346456693
11
0.4166826771653543
21
0.6673228346456693
0
LINE
8
BLACK
6
CONTINUOUS
10
0.4166826771653543
20
0.6673228346456693
11
0.4194464960629921
21
0.669332716535433
0
LINE
8
BLACK
6
CONTINUOUS
10
0.4194464960629921
20
0.669332716535433
11
0.4251822440944882
21
0.6750730708661418
0
LINE
8
BLACK
6
CONTINUOUS
10
0.4251822440944882
20
0.6750730708661418
11
0.4299499606299212
21
0.6816396456692914
0
LINE
8
BLACK
6
CONTINUOUS
10
0.4299499606299212
20
0.6816396456692914
11
0.4336322834645669
21
0.688870905511811
0
LINE
8
BLACK
6
CONTINUOUS
10
0.4336322834645669
20
0.688870905511811
11
0.4361386614173228
21
0.6965889763779527
0
LINE
8
BLACK
6
CONTINUOUS
10
0.4361386614173228
20
0.6965889763779527
11
0.4374074803149606
21
0.7046039763779527
0
LINE
8
BLACK
6
CONTINUOUS
10
0.4374074803149606
20
0.7046039763779527
11
0.4374074803149606
21
0.7127188582677165
0
LINE
8
BLACK
6
CONTINUOUS
10
0.4374074803149606
20
0.7127188582677165
11
0.4361386614173228
21
0.7207338582677165
0
LINE
8
BLACK
6
CONTINUOUS
10
0.4361386614173228
20
0.7207338582677165
11
0.4336322834645669
21
0.7284519291338583
0
LINE
8
BLACK
6
CONTINUOUS
10
0.4336322834645669
20
0.7284519291338583
11
0.4299499606299212
21
0.735683188976378
0
LINE
8
BLACK
6
CONTINUOUS
10
0.4299499606299212
20
0.735683188976378
11
0.4251822440944882
21
0.7422497637795276
0
LINE
8
BLACK
6
CONTINUOUS
10
0.4251822440944882
20
0.7422497637795276
11
0.4194464960629921
21
0.7479901181102362
0
LINE
8
BLACK
6
CONTINUOUS
10
0.4194464960629921
20
0.7479901181102362
11
0.4166826771653543
21
0.75
0
LINE
8
BLACK
6
CONTINUOUS
10
0.4166826771653543
20
0.75
11
0.3509681102362205
21
0.75
0
LINE
8
BLACK
6
CONTINUOUS
10
0.4653202362204724
20
0.7734722047244095
11
0.4663855905511811
21
0.7724068503937007
0
LINE
8
BLACK
6
CONTINUOUS
10
0.4663855905511811
20
0.7724068503937007
11
0.4665354330708661
21
0.7716535433070866
0
LINE
8
BLACK
6
CONTINUOUS
10
0.4665354330708661
20
0.7716535433070866
11
0.4665354330708661
21
0.6456692913385826
0
LINE
8
BLACK
6
CONTINUOUS
10
0.4665354330708661
20
0.6456692913385826
11
0.4663855905511811
21
0.6449159842519685
0
LINE
8
BLACK
6
CONTINUOUS
10
0.4663855905511811
20
0.6449159842519685
11
0.4653202362204724
21
0.6438506299212599
0
LINE
8
BLACK
6
CONTINUOUS
10
0.4653202362204724
20
0.6438506299212599
11
0.4645669291338583
21
0.6437007874015748
0
LINE
8
BLACK
6
CONTINUOUS
10
0.4645669291338583
20
0.6437007874015748
11
0.2992125984251968
21
0.6437007874015748
0
LINE
8
BLACK
6
CONTINUOUS
10
0.2992125984251968
20
0.6437007874015748
11
0.2984592913385827
21
0.6438506299212599
0
LINE
8
BLACK
6
CONTINUOUS
10
0.2984592913385827
20
0.6438506299212599
11
0.297393937007874
21
0.6449159842519685
0
LINE
8
BLACK
6
CONTINUOUS
10
0.297393937007874
20
0.6449159842519685
11
0.2972440944881889
21
0.6456692913385826
0
LINE
8
BLACK
6
CONTINUOUS
10
0.2972440944881889
20
0.6456692913385826
11
0.2972440944881889
21
0.7716535433070866
0
LINE
8
BLACK
6
CONTINUOUS
10
0.2972440944881889
20
0.7716535433070866
11
0.297393937007874
21
0.7724068503937007
0
LINE
8
BLACK
6
CONTINUOUS
10
0.297393937007874
20
0.7724068503937007
11
0.2984592913385827
21
0.7734722047244095
0
LINE
8
BLACK
6
CONTINUOUS
10
0.2984592913385827
20
0.7734722047244095
11
0.2992125984251968
21
0.7736220472440944
0
LINE
8
BLACK
6
CONTINUOUS
10
0.2992125984251968
20
0.7736220472440944
11
0.4645669291338583
21
0.7736220472440944
0
LINE
8
BLACK
6
CONTINUOUS
10
0.4645669291338583
20
0.7736220472440944
11
0.4653202362204724
21
0.7734722047244095
0
LINE
8
BLACK
6
CONTINUOUS
10
0.3011811023622047
20
0.6476377952755905
11
0.3141452755905512
21
0.6476377952755905
0
LINE
8
BLACK
6
CONTINUOUS
10
0.3141452755905512
20
0.6476377952755905
11
0.3011811023622047
21
0.660601968503937
0
LINE
8
BLACK
6
CONTINUOUS
10
0.3011811023622047
20
0.660601968503937
11
0.3011811023622047
21
0.6476377952755905
0
LINE
8
BLACK
6
CONTINUOUS
10
0.3197129921259843
20
0.7696850393700787
11
0.3011811023622047
21
0.7511531496062992
0
LINE
8
BLACK
6
CONTINUOUS
10
0.3011811023622047
20
0.7511531496062992
11
0.3011811023622047
21
0.66616968503937
0
LINE
8
BLACK
6
CONTINUOUS
10
0.3011811023622047
20
0.66616968503937
11
0.3197129921259843
21
0.6476377952755905
0
LINE
8
BLACK
6
CONTINUOUS
10
0.3197129921259843
20
0.6476377952755905
11
0.4440665354330708
21
0.6476377952755905
0
LINE
8
BLACK
6
CONTINUOUS
10
0.4440665354330708
20
0.6476377952755905
11
0.4625984251968504
21
0.66616968503937
0
LINE
8
BLACK
6
CONTINUOUS
10
0.4625984251968504
20
0.66616968503937
11
0.4625984251968504
21
0.7511531496062992
0
LINE
8
BLACK
6
CONTINUOUS
10
0.4625984251968504
20
0.7511531496062992
11
0.4440665354330708
21
0.7696850393700787
0
LINE
8
BLACK
6
CONTINUOUS
10
0.4440665354330708
20
0.7696850393700787
11
0.3197129921259843
21
0.7696850393700787
0
LINE
8
BLACK
6
CONTINUOUS
10
0.4496342519685039
20
0.6476377952755905
11
0.4625984251968504
21
0.6476377952755905
0
LINE
8
BLACK
6
CONTINUOUS
10
0.4625984251968504
20
0.6476377952755905
11
0.4625984251968504
21
0.660601968503937
0
LINE
8
BLACK
6
CONTINUOUS
10
0.4625984251968504
20
0.660601968503937
11
0.4496342519685039
21
0.6476377952755905
0
LINE
8
BLACK
6
CONTINUOUS
10
0.3011811023622047
20
0.7696850393700787
11
0.3011811023622047
21
0.7567208661417323
0
LINE
8
BLACK
6
CONTINUOUS
10
0.3011811023622047
20
0.7567208661417323
11
0.3141452755905512
21
0.7696850393700787
0
LINE
8
BLACK
6
CONTINUOUS
10
0.3141452755905512
20
0.7696850393700787
11
0.3011811023622047
21
0.7696850393700787
0
LINE
8
BLACK
6
CONTINUOUS
10
0.4496342519685039
20
0.7696850393700787
11
0.4625984251968504
21
0.7567208661417323
0
LINE
8
BLACK
6
CONTINUOUS
10
0.4625984251968504
20
0.7567208661417323
11
0.4625984251968504
21
0.7696850393700787
0
LINE
8
BLACK
6
CONTINUOUS
10
0.4625984251968504
20
0.7696850393700787
11
0.4496342519685039
21
0.7696850393700787
0
LINE
8
BLACK
6
CONTINUOUS
10
2.0479974015748033
20
0.7537871653543307
11
2.04810468503937
21
0.7536798818897638
0
LINE
8
BLACK
6
CONTINUOUS
10
2.04810468503937
20
0.7536798818897638
11
2.0483009448818899
21
0.7536292125984252
0
LINE
8
BLACK
6
CONTINUOUS
10
2.0483009448818899
20
0.7536292125984252
11
2.0483009055118111
21
0.7536292125984252
0
LINE
8
BLACK
6
CONTINUOUS
10
2.0483009055118111
20
0.7536292125984252
11
2.0548788582677164
21
0.7486909842519684
0
LINE
8
BLACK
6
CONTINUOUS
10
2.0548788582677164
20
0.7486909842519684
11
2.060618661417323
21
0.7427994881889763
0
LINE
8
BLACK
6
CONTINUOUS
10
2.060618661417323
20
0.7427994881889763
11
2.0653837007874016
21
0.7360949999999999
0
LINE
8
BLACK
6
CONTINUOUS
10
2.0653837007874016
20
0.7360949999999999
11
2.0690604330708662
21
0.7287372440944881
0
LINE
8
BLACK
6
CONTINUOUS
10
2.0690604330708662
20
0.7287372440944881
11
2.0715613779527557
21
0.7209013779527559
0
LINE
8
BLACK
6
CONTINUOUS
10
2.0715613779527557
20
0.7209013779527559
11
2.0728268897637796
21
0.7127740551181102
0
LINE
8
BLACK
6
CONTINUOUS
10
2.0728268897637796
20
0.7127740551181102
11
2.0728268897637796
21
0.7045487401574803
0
LINE
8
BLACK
6
CONTINUOUS
10
2.0728268897637796
20
0.7045487401574803
11
2.071561338582677
21
0.6964214173228346
0
LINE
8
BLACK
6
CONTINUOUS
10
2.071561338582677
20
0.6964214173228346
11
2.0690604330708662
21
0.6885855511811023
0
LINE
8
BLACK
6
CONTINUOUS
10
2.0690604330708662
20
0.6885855511811023
11
2.0653837007874016
21
0.6812277952755905
0
LINE
8
BLACK
6
CONTINUOUS
10
2.0653837007874016
20
0.6812277952755905
11
2.060618661417323
21
0.6745233464566929
0
LINE
8
BLACK
6
CONTINUOUS
10
2.060618661417323
20
0.6745233464566929
11
2.0548788188976377
21
0.6686318503937008
0
LINE
8
BLACK
6
CONTINUOUS
10
2.0548788188976377
20
0.6686318503937008
11
2.0483009055118111
21
0.663693622047244
0
LINE
8
BLACK
6
CONTINUOUS
10
2.0483009055118111
20
0.663693622047244
11
2.0481047244094488
21
0.663643031496063
0
LINE
8
BLACK
6
CONTINUOUS
10
2.0481047244094488
20
0.663643031496063
11
2.0479974015748033
21
0.6635356692913386
0
LINE
8
BLACK
6
CONTINUOUS
10
2.0479974015748033
20
0.6635356692913386
11
2.0472440944881889
21
0.6633858267716535
0
LINE
8
BLACK
6
CONTINUOUS
10
2.0472440944881889
20
0.6633858267716535
11
1.9803149606299213
21
0.6633858267716535
0
LINE
8
BLACK
6
CONTINUOUS
10
1.9803149606299213
20
0.6633858267716535
11
1.9803142913385827
21
0.6633859842519685
0
LINE
8
BLACK
6
CONTINUOUS
10
1.9803142913385827
20
0.6633859842519685
11
1.9803140157480315
21
0.6633858661417322
0
LINE
8
BLACK
6
CONTINUOUS
10
1.9803140157480315
20
0.6633858661417322
11
1.9803128346456693
21
0.6633862598425196
0
LINE
8
BLACK
6
CONTINUOUS
10
1.9803128346456693
20
0.6633862598425196
11
1.9795616535433069
21
0.6635356692913386
0
LINE
8
BLACK
6
CONTINUOUS
10
1.9795616535433069
20
0.6635356692913386
11
1.979420748031496
21
0.6636765748031496
0
LINE
8
BLACK
6
CONTINUOUS
10
1.979420748031496
20
0.6636765748031496
11
1.979157125984252
21
0.6637623622047244
0
LINE
8
BLACK
6
CONTINUOUS
10
1.979157125984252
20
0.6637623622047244
11
1.9791571653543307
21
0.6637623622047244
0
LINE
8
BLACK
6
CONTINUOUS
10
1.9791571653543307
20
0.6637623622047244
11
1.9725385433070866
21
0.6694202362204724
0
LINE
8
BLACK
6
CONTINUOUS
10
1.9725385433070866
20
0.6694202362204724
11
1.9668859842519684
21
0.676043346456693
0
LINE
8
BLACK
6
CONTINUOUS
10
1.9668859842519684
20
0.676043346456693
11
1.9623385039370078
21
0.6834688188976378
0
LINE
8
BLACK
6
CONTINUOUS
10
1.9623385039370078
20
0.6834688188976378
11
1.9590079527559054
21
0.6915139763779528
0
LINE
8
BLACK
6
CONTINUOUS
10
1.9590079527559054
20
0.6915139763779528
11
1.9569762992125983
21
0.6999809448818898
0
LINE
8
BLACK
6
CONTINUOUS
10
1.9569762992125983
20
0.6999809448818898
11
1.956293464566929
21
0.7086614173228346
0
LINE
8
BLACK
6
CONTINUOUS
10
1.956293464566929
20
0.7086614173228346
11
1.9569762992125983
21
0.7173418897637795
0
LINE
8
BLACK
6
CONTINUOUS
10
1.9569762992125983
20
0.7173418897637795
11
1.9590079527559054
21
0.7258088582677166
0
LINE
8
BLACK
6
CONTINUOUS
10
1.9590079527559054
20
0.7258088582677166
11
1.9623385039370078
21
0.7338540157480314
0
LINE
8
BLACK
6
CONTINUOUS
10
1.9623385039370078
20
0.7338540157480314
11
1.9668859842519684
21
0.7412794881889764
0
LINE
8
BLACK
6
CONTINUOUS
10
1.9668859842519684
20
0.7412794881889764
11
1.9725385433070866
21
0.7479025984251968
0
LINE
8
BLACK
6
CONTINUOUS
10
1.9725385433070866
20
0.7479025984251968
11
1.9791571653543307
21
0.7535604724409448
0
LINE
8
BLACK
6
CONTINUOUS
10
1.9791571653543307
20
0.7535604724409448
11
1.979157125984252
21
0.7535604724409448
0
LINE
8
BLACK
6
CONTINUOUS
10
1.979157125984252
20
0.7535604724409448
11
1.979420748031496
21
0.7536462992125984
0
LINE
8
BLACK
6
CONTINUOUS
10
1.979420748031496
20
0.7536462992125984
11
1.9795616535433069
21
0.7537871653543307
0
LINE
8
BLACK
6
CONTINUOUS
10
1.9795616535433069
20
0.7537871653543307
11
1.9803128346456693
21
0.7539366141732283
0
LINE
8
BLACK
6
CONTINUOUS
10
1.9803128346456693
20
0.7539366141732283
11
1.9803140157480315
21
0.753936968503937
0
LINE
8
BLACK
6
CONTINUOUS
10
1.9803140157480315
20
0.753936968503937
11
1.9803142913385827
21
0.7539368897637795
0
LINE
8
BLACK
6
CONTINUOUS
10
1.9803142913385827
20
0.7539368897637795
11
1.9803149606299213
21
0.7539370078740157
0
LINE
8
BLACK
6
CONTINUOUS
10
1.9803149606299213
20
0.7539370078740157
11
2.0472440944881889
21
0.7539370078740157
0
LINE
8
BLACK
6
CONTINUOUS
10
2.0472440944881889
20
0.7539370078740157
11
2.0479974015748033
21
0.7537871653543307
0
LINE
8
BLACK
6
CONTINUOUS
10
1.9809551181102363
20
0.75
11
1.9781912992125983
21
0.7479901181102362
0
LINE
8
BLACK
6
CONTINUOUS
10
1.9781912992125983
20
0.7479901181102362
11
1.9724555511811024
21
0.7422497637795276
0
LINE
8
BLACK
6
CONTINUOUS
10
1.9724555511811024
20
0.7422497637795276
11
1.9676878346456692
21
0.735683188976378
0
LINE
8
BLACK
6
CONTINUOUS
10
1.9676878346456692
20
0.735683188976378
11
1.9640055118110236
21
0.7284519291338583
0
LINE
8
BLACK
6
CONTINUOUS
10
1.9640055118110236
20
0.7284519291338583
11
1.9614991338582677
21
0.7207338582677165
0
LINE
8
BLACK
6
CONTINUOUS
10
1.9614991338582677
20
0.7207338582677165
11
1.9602303149606299
21
0.7127188582677165
0
LINE
8
BLACK
6
CONTINUOUS
10
1.9602303149606299
20
0.7127188582677165
11
1.9602303149606299
21
0.7046039763779527
0
LINE
8
BLACK
6
CONTINUOUS
10
1.9602303149606299
20
0.7046039763779527
11
1.9614991338582677
21
0.6965889763779527
0
LINE
8
BLACK
6
CONTINUOUS
10
1.9614991338582677
20
0.6965889763779527
11
1.9640055118110236
21
0.688870905511811
0
LINE
8
BLACK
6
CONTINUOUS
10
1.9640055118110236
20
0.688870905511811
11
1.9676878346456692
21
0.6816396456692914
0
LINE
8
BLACK
6
CONTINUOUS
10
1.9676878346456692
20
0.6816396456692914
11
1.9724555511811024
21
0.6750730708661418
0
LINE
8
BLACK
6
CONTINUOUS
10
1.9724555511811024
20
0.6750730708661418
11
1.9781912992125983
21
0.669332716535433
0
LINE
8
BLACK
6
CONTINUOUS
10
1.9781912992125983
20
0.669332716535433
11
1.9809551181102363
21
0.6673228346456693
0
LINE
8
BLACK
6
CONTINUOUS
10
1.9809551181102363
20
0.6673228346456693
11
2.0466696850393702
21
0.6673228346456693
0
LINE
8
BLACK
6
CONTINUOUS
10
2.0466696850393702
20
0.6673228346456693
11
2.0496775196850394
21
0.6692411023622047
0
LINE
8
BLACK
6
CONTINUOUS
10
2.0496775196850394
20
0.6692411023622047
11
2.0558245669291337
21
0.6747874409448819
0
LINE
8
BLACK
6
CONTINUOUS
10
2.0558245669291337
20
0.6747874409448819
11
2.0609618897637794
21
0.6812802362204724
0
LINE
8
BLACK
6
CONTINUOUS
10
2.0609618897637794
20
0.6812802362204724
11
2.0649460236220474
21
0.6885379921259842
0
LINE
8
BLACK
6
CONTINUOUS
10
2.0649460236220474
20
0.6885379921259842
11
2.0676655905511812
21
0.6963579527559055
0
LINE
8
BLACK
6
CONTINUOUS
10
2.0676655905511812
20
0.6963579527559055
11
2.0690446456692912
21
0.7045216929133858
0
LINE
8
BLACK
6
CONTINUOUS
10
2.0690446456692912
20
0.7045216929133858
11
2.0690446456692912
21
0.7128011023622047
0
LINE
8
BLACK
6
CONTINUOUS
10
2.0690446456692912
20
0.7128011023622047
11
2.0676656299212599
21
0.7209648425196851
0
LINE
8
BLACK
6
CONTINUOUS
10
2.0676656299212599
20
0.7209648425196851
11
2.0649460236220474
21
0.7287848031496063
0
LINE
8
BLACK
6
CONTINUOUS
10
2.0649460236220474
20
0.7287848031496063
11
2.0609619291338581
21
0.7360425984251968
0
LINE
8
BLACK
6
CONTINUOUS
10
2.0609619291338581
20
0.7360425984251968
11
2.0558245669291337
21
0.7425353543307086
0
LINE
8
BLACK
6
CONTINUOUS
10
2.0558245669291337
20
0.7425353543307086
11
2.0496775196850394
21
0.7480817322834645
0
LINE
8
BLACK
6
CONTINUOUS
10
2.0496775196850394
20
0.7480817322834645
11
2.0466696850393702
21
0.75
0
LINE
8
BLACK
6
CONTINUOUS
10
2.0466696850393702
20
0.75
11
1.9809551181102363
21
0.75
0
LINE
8
BLACK
6
CONTINUOUS
10
2.0991785039370079
20
0.7734722047244095
11
2.1002438582677163
21
0.7724068503937007
0
LINE
8
BLACK
6
CONTINUOUS
10
2.1002438582677163
20
0.7724068503937007
11
2.1003937007874014
21
0.7716535433070866
0
LINE
8
BLACK
6
CONTINUOUS
10
2.1003937007874014
20
0.7716535433070866
11
2.1003937007874014
21
0.6456692913385826
0
LINE
8
BLACK
6
CONTINUOUS
10
2.1003937007874014
20
0.6456692913385826
11
2.1002438582677163
21
0.6449159842519685
0
LINE
8
BLACK
6
CONTINUOUS
10
2.1002438582677163
20
0.6449159842519685
11
2.0991785039370079
21
0.6438506299212599
0
LINE
8
BLACK
6
CONTINUOUS
10
2.0991785039370079
20
0.6438506299212599
11
2.0984251968503935
21
0.6437007874015748
0
LINE
8
BLACK
6
CONTINUOUS
10
2.0984251968503935
20
0.6437007874015748
11
1.9330708661417322
21
0.6437007874015748
0
LINE
8
BLACK
6
CONTINUOUS
10
1.9330708661417322
20
0.6437007874015748
11
1.932317559055118
21
0.6438506299212599
0
LINE
8
BLACK
6
CONTINUOUS
10
1.932317559055118
20
0.6438506299212599
11
1.9312522047244094
21
0.6449159842519685
0
LINE
8
BLACK
6
CONTINUOUS
10
1.9312522047244094
20
0.6449159842519685
11
1.9311023622047243
21
0.6456692913385826
0
LINE
8
BLACK
6
CONTINUOUS
10
1.9311023622047243
20
0.6456692913385826
11
1.9311023622047243
21
0.7716535433070866
0
LINE
8
BLACK
6
CONTINUOUS
10
1.9311023622047243
20
0.7716535433070866
11
1.9312522047244094
21
0.7724068503937007
0
LINE
8
BLACK
6
CONTINUOUS
10
1.9312522047244094
20
0.7724068503937007
11
1.932317559055118
21
0.7734722047244095
0
LINE
8
BLACK
6
CONTINUOUS
10
1.932317559055118
20
0.7734722047244095
11
1.9330708661417322
21
0.7736220472440944
0
LINE
8
BLACK
6
CONTINUOUS
10
1.9330708661417322
20
0.7736220472440944
11
2.0984251968503935
21
0.7736220472440944
0
LINE
8
BLACK
6
CONTINUOUS
10
2.0984251968503935
20
0.7736220472440944
11
2.0991785039370079
21
0.7734722047244095
0
LINE
8
BLACK
6
CONTINUOUS
10
1.9350393700787401
20
0.6476377952755905
11
1.9480035433070866
21
0.6476377952755905
0
LINE
8
BLACK
6
CONTINUOUS
10
1.9480035433070866
20
0.6476377952755905
11
1.9350393700787401
21
0.660601968503937
0
LINE
8
BLACK
6
CONTINUOUS
10
1.9350393700787401
20
0.660601968503937
11
1.9350393700787401
21
0.6476377952755905
0
LINE
8
BLACK
6
CONTINUOUS
10
1.9535712598425197
20
0.7696850393700787
11
1.9350393700787401
21
0.7511531496062992
0
LINE
8
BLACK
6
CONTINUOUS
10
1.9350393700787401
20
0.7511531496062992
11
1.9350393700787401
21
0.66616968503937
0
LINE
8
BLACK
6
CONTINUOUS
10
1.9350393700787401
20
0.66616968503937
11
1.9535712598425197
21
0.6476377952755905
0
LINE
8
BLACK
6
CONTINUOUS
10
1.9535712598425197
20
0.6476377952755905
11
2.0779248031496063
21
0.6476377952755905
0
LINE
8
BLACK
6
CONTINUOUS
10
2.0779248031496063
20
0.6476377952755905
11
2.0964566929133857
21
0.66616968503937
0
LINE
8
BLACK
6
CONTINUOUS
10
2.0964566929133857
20
0.66616968503937
11
2.0964566929133857
21
0.7511531496062992
0
LINE
8
BLACK
6
CONTINUOUS
10
2.0964566929133857
20
0.7511531496062992
11
2.0779248031496063
21
0.7696850393700787
0
LINE
8
BLACK
6
CONTINUOUS
10
2.0779248031496063
20
0.7696850393700787
11
1.9535712598425197
21
0.7696850393700787
0
LINE
8
BLACK
6
CONTINUOUS
10
2.0834925196850391
20
0.6476377952755905
11
2.0964566929133857
21
0.6476377952755905
0
LINE
8
BLACK
6
CONTINUOUS
10
2.0964566929133857
20
0.6476377952755905
11
2.0964566929133857
21
0.660601968503937
0
LINE
8
BLACK
6
CONTINUOUS
10
2.0964566929133857
20
0.660601968503937
11
2.0834925196850391
21
0.6476377952755905
0
LINE
8
BLACK
6
CONTINUOUS
10
1.9350393700787401
20
0.7696850393700787
11
1.9350393700787401
21
0.7567208661417323
0
LINE
8
BLACK
6
CONTINUOUS
10
1.9350393700787401
20
0.7567208661417323
11
1.9480035433070866
21
0.7696850393700787
0
LINE
8
BLACK
6
CONTINUOUS
10
1.9480035433070866
20
0.7696850393700787
11
1.9350393700787401
21
0.7696850393700787
0
LINE
8
BLACK
6
CONTINUOUS
10
2.0834925196850391
20
0.7696850393700787
11
2.0964566929133857
21
0.7567208661417323
0
LINE
8
BLACK
6
CONTINUOUS
10
2.0964566929133857
20
0.7567208661417323
11
2.0964566929133857
21
0.7696850393700787
0
LINE
8
BLACK
6
CONTINUOUS
10
2.0964566929133857
20
0.7696850393700787
11
2.0834925196850391
21
0.7696850393700787
0
LINE
8
BLACK
6
CONTINUOUS
10
1.9145265354330707
20
0.6815612204724409
11
1.914624527559055
21
0.6815206299212598
0
LINE
8
BLACK
6
CONTINUOUS
10
1.914624527559055
20
0.6815206299212598
11
1.9147303543307086
21
0.6815131102362204
0
LINE
8
BLACK
6
CONTINUOUS
10
1.9147303543307086
20
0.6815131102362204
11
1.9152709842519684
21
0.6813062204724409
0
LINE
8
BLACK
6
CONTINUOUS
10
1.9152709842519684
20
0.6813062204724409
11
1.9190205118110235
21
0.6794314566929134
0
LINE
8
BLACK
6
CONTINUOUS
10
1.9190205118110235
20
0.6794314566929134
11
1.9192683858267716
21
0.6792754330708661
0
LINE
8
BLACK
6
CONTINUOUS
10
1.9192683858267716
20
0.6792754330708661
11
1.9193404330708661
21
0.6792455905511811
0
LINE
8
BLACK
6
CONTINUOUS
10
1.9193404330708661
20
0.6792455905511811
11
1.9194214566929133
21
0.6791790944881889
0
LINE
8
BLACK
6
CONTINUOUS
10
1.9194214566929133
20
0.6791790944881889
11
1.9195103937007874
21
0.6791231102362204
0
LINE
8
BLACK
6
CONTINUOUS
10
1.9195103937007874
20
0.6791231102362204
11
1.9195615354330708
21
0.6790641338582677
0
LINE
8
BLACK
6
CONTINUOUS
10
1.9195615354330708
20
0.6790641338582677
11
1.9197878740157479
21
0.6788783858267716
0
LINE
8
BLACK
6
CONTINUOUS
10
1.9197878740157479
20
0.6788783858267716
11
1.9216626771653542
21
0.6770036220472441
0
LINE
8
BLACK
6
CONTINUOUS
10
1.9216626771653542
20
0.6770036220472441
11
1.9218484251968504
21
0.6767772834645669
0
LINE
8
BLACK
6
CONTINUOUS
10
1.9218484251968504
20
0.6767772834645669
11
1.9219074803149605
21
0.676726062992126
0
LINE
8
BLACK
6
CONTINUOUS
10
1.9219074803149605
20
0.676726062992126
11
1.921963464566929
21
0.676637125984252
0
LINE
8
BLACK
6
CONTINUOUS
10
1.921963464566929
20
0.676637125984252
11
1.9220299212598424
21
0.6765561417322834
0
LINE
8
BLACK
6
CONTINUOUS
10
1.9220299212598424
20
0.6765561417322834
11
1.9220597244094488
21
0.6764842125984252
0
LINE
8
BLACK
6
CONTINUOUS
10
1.9220597244094488
20
0.6764842125984252
11
1.9222158267716536
21
0.6762361811023622
0
LINE
8
BLACK
6
CONTINUOUS
10
1.9222158267716536
20
0.6762361811023622
11
1.9240905905511811
21
0.6724866535433071
0
LINE
8
BLACK
6
CONTINUOUS
10
1.9240905905511811
20
0.6724866535433071
11
1.9242974803149606
21
0.671946062992126
0
LINE
8
BLACK
6
CONTINUOUS
10
1.9242974803149606
20
0.671946062992126
11
1.9243049999999999
21
0.6718401968503936
0
LINE
8
BLACK
6
CONTINUOUS
10
1.9243049999999999
20
0.6718401968503936
11
1.924345590551181
21
0.6717422047244095
0
LINE
8
BLACK
6
CONTINUOUS
10
1.924345590551181
20
0.6717422047244095
11
1.9244023228346456
21
0.6711661417322834
0
LINE
8
BLACK
6
CONTINUOUS
10
1.9244023228346456
20
0.6711661417322834
11
1.9244023228346456
21
0.6617923228346456
0
LINE
8
BLACK
6
CONTINUOUS
10
1.9244023228346456
20
0.6617923228346456
11
1.9243735826771653
21
0.6615007480314961
0
LINE
8
BLACK
6
CONTINUOUS
10
1.9243735826771653
20
0.6615007480314961
11
1.9243791338582676
21
0.6614229921259842
0
LINE
8
BLACK
6
CONTINUOUS
10
1.9243791338582676
20
0.6614229921259842
11
1.9243558661417322
21
0.6613207480314961
0
LINE
8
BLACK
6
CONTINUOUS
10
1.9243558661417322
20
0.6613207480314961
11
1.924345590551181
21
0.6612162598425196
0
LINE
8
BLACK
6
CONTINUOUS
10
1.924345590551181
20
0.6612162598425196
11
1.9243157086614173
21
0.6611442125984252
0
LINE
8
BLACK
6
CONTINUOUS
10
1.9243157086614173
20
0.6611442125984252
11
1.9242507874015748
21
0.6608585433070866
0
LINE
8
BLACK
6
CONTINUOUS
10
1.9242507874015748
20
0.6608585433070866
11
1.9223760236220473
21
0.6552342913385827
0
LINE
8
BLACK
6
CONTINUOUS
10
1.9223760236220473
20
0.6552342913385827
11
1.9221400393700787
21
0.6547057086614173
0
LINE
8
BLACK
6
CONTINUOUS
10
1.9221400393700787
20
0.6547057086614173
11
1.9213851574803149
21
0.6538353543307086
0
LINE
8
BLACK
6
CONTINUOUS
10
1.9213851574803149
20
0.6538353543307086
11
1.9203547244094488
21
0.6533201574803149
0
LINE
8
BLACK
6
CONTINUOUS
10
1.9203547244094488
20
0.6533201574803149
11
1.9192055118110236
21
0.6532384645669291
0
LINE
8
BLACK
6
CONTINUOUS
10
1.9192055118110236
20
0.6532384645669291
11
1.9181124803149605
21
0.6536027952755905
0
LINE
8
BLACK
6
CONTINUOUS
10
1.9181124803149605
20
0.6536027952755905
11
1.917242125984252
21
0.6543576771653543
0
LINE
8
BLACK
6
CONTINUOUS
10
1.917242125984252
20
0.6543576771653543
11
1.9167269291338582
21
0.6553881102362205
0
LINE
8
BLACK
6
CONTINUOUS
10
1.9167269291338582
20
0.6553881102362205
11
1.9166452362204724
21
0.6565373228346456
0
LINE
8
BLACK
6
CONTINUOUS
10
1.9166452362204724
20
0.6565373228346456
11
1.9167735826771652
21
0.6571017716535433
0
LINE
8
BLACK
6
CONTINUOUS
10
1.9167735826771652
20
0.6571017716535433
11
1.918496811023622
21
0.6622714566929133
0
LINE
8
BLACK
6
CONTINUOUS
10
1.918496811023622
20
0.6622714566929133
11
1.918496811023622
21
0.6704690944881889
0
LINE
8
BLACK
6
CONTINUOUS
10
1.918496811023622
20
0.6704690944881889
11
1.9171480708661417
21
0.6731665748031496
0
LINE
8
BLACK
6
CONTINUOUS
10
1.9171480708661417
20
0.6731665748031496
11
1.9159509055118109
21
0.6743637007874016
0
LINE
8
BLACK
6
CONTINUOUS
10
1.9159509055118109
20
0.6743637007874016
11
1.9132534251968503
21
0.6757124409448819
0
LINE
8
BLACK
6
CONTINUOUS
10
1.9132534251968503
20
0.6757124409448819
11
1.9108979921259841
21
0.6757124409448819
0
LINE
8
BLACK
6
CONTINUOUS
10
1.9108979921259841
20
0.6757124409448819
11
1.9082005118110237
21
0.6743637007874016
0
LINE
8
BLACK
6
CONTINUOUS
10
1.9082005118110237
20
0.6743637007874016
11
1.9070033858267716
21
0.6731665748031496
0
LINE
8
BLACK
6
CONTINUOUS
10
1.9070033858267716
20
0.6731665748031496
11
1.9054878740157479
21
0.6701355905511811
0
LINE
8
BLACK
6
CONTINUOUS
10
1.9054878740157479
20
0.6701355905511811
11
1.9036917322834646
21
0.6629509448818898
0
LINE
8
BLACK
6
CONTINUOUS
10
1.9036917322834646
20
0.6629509448818898
11
1.9036765354330709
21
0.6629084645669291
0
LINE
8
BLACK
6
CONTINUOUS
10
1.9036765354330709
20
0.6629084645669291
11
1.9036750393700788
21
0.6628871653543307
0
LINE
8
BLACK
6
CONTINUOUS
10
1.9036750393700788
20
0.6628871653543307
11
1.9035832677165354
21
0.6626474409448819
0
LINE
8
BLACK
6
CONTINUOUS
10
1.9035832677165354
20
0.6626474409448819
11
1.9034969685039369
21
0.6624058267716535
0
LINE
8
BLACK
6
CONTINUOUS
10
1.9034969685039369
20
0.6624058267716535
11
1.9034842519685038
21
0.6623887007874015
0
LINE
8
BLACK
6
CONTINUOUS
10
1.9034842519685038
20
0.6623887007874015
11
1.9034681496062991
21
0.6623465748031496
0
LINE
8
BLACK
6
CONTINUOUS
10
1.9034681496062991
20
0.6623465748031496
11
1.9015933858267715
21
0.6585970472440945
0
LINE
8
BLACK
6
CONTINUOUS
10
1.9015933858267715
20
0.6585970472440945
11
1.901437283464567
21
0.6583490551181103
0
LINE
8
BLACK
6
CONTINUOUS
10
1.901437283464567
20
0.6583490551181103
11
1.9014074803149605
21
0.6582770866141732
0
LINE
8
BLACK
6
CONTINUOUS
10
1.9014074803149605
20
0.6582770866141732
11
1.9013409842519684
21
0.6581961417322835
0
LINE
8
BLACK
6
CONTINUOUS
10
1.9013409842519684
20
0.6581961417322835
11
1.9012850393700786
21
0.6581071653543307
0
LINE
8
BLACK
6
CONTINUOUS
10
1.9012850393700786
20
0.6581071653543307
11
1.9012260236220473
21
0.6580560236220472
0
LINE
8
BLACK
6
CONTINUOUS
10
1.9012260236220473
20
0.6580560236220472
11
1.9010402755905511
21
0.6578296456692914
0
LINE
8
BLACK
6
CONTINUOUS
10
1.9010402755905511
20
0.6578296456692914
11
1.8991655118110236
21
0.6559548818897638
0
LINE
8
BLACK
6
CONTINUOUS
10
1.8991655118110236
20
0.6559548818897638
11
1.8989391338582677
21
0.6557691338582677
0
LINE
8
BLACK
6
CONTINUOUS
10
1.8989391338582677
20
0.6557691338582677
11
1.8988879921259842
21
0.6557101181102362
0
LINE
8
BLACK
6
CONTINUOUS
10
1.8988879921259842
20
0.6557101181102362
11
1.8987990157480314
21
0.6556541732283464
0
LINE
8
BLACK
6
CONTINUOUS
10
1.8987990157480314
20
0.6556541732283464
11
1.8987180708661417
21
0.6555876771653543
0
LINE
8
BLACK
6
CONTINUOUS
10
1.8987180708661417
20
0.6555876771653543
11
1.8986461023622048
21
0.6555578740157481
0
LINE
8
BLACK
6
CONTINUOUS
10
1.8986461023622048
20
0.6555578740157481
11
1.8983981102362204
21
0.6554017716535433
0
LINE
8
BLACK
6
CONTINUOUS
10
1.8983981102362204
20
0.6554017716535433
11
1.8946485826771653
21
0.6535270078740157
0
LINE
8
BLACK
6
CONTINUOUS
10
1.8946485826771653
20
0.6535270078740157
11
1.8941079527559055
21
0.6533201181102362
0
LINE
8
BLACK
6
CONTINUOUS
10
1.8941079527559055
20
0.6533201181102362
11
1.8940021259842519
21
0.6533126377952756
0
LINE
8
BLACK
6
CONTINUOUS
10
1.8940021259842519
20
0.6533126377952756
11
1.8939041338582676
21
0.6532720078740157
0
LINE
8
BLACK
6
CONTINUOUS
10
1.8939041338582676
20
0.6532720078740157
11
1.8933280708661417
21
0.6532152755905511
0
LINE
8
BLACK
6
CONTINUOUS
10
1.8933280708661417
20
0.6532152755905511
11
1.8895785433070866
21
0.6532152755905511
0
LINE
8
BLACK
6
CONTINUOUS
10
1.8895785433070866
20
0.6532152755905511
11
1.8890024803149605
21
0.6532720078740157
0
LINE
8
BLACK
6
CONTINUOUS
10
1.8890024803149605
20
0.6532720078740157
11
1.8889044881889763
21
0.6533125984251968
0
LINE
8
BLACK
6
CONTINUOUS
10
1.8889044881889763
20
0.6533125984251968
11
1.8887986220472441
21
0.6533201181102362
0
LINE
8
BLACK
6
CONTINUOUS
10
1.8887986220472441
20
0.6533201181102362
11
1.8882580314960629
21
0.6535270078740157
0
LINE
8
BLACK
6
CONTINUOUS
10
1.8882580314960629
20
0.6535270078740157
11
1.8845085039370078
21
0.6554017716535433
0
LINE
8
BLACK
6
CONTINUOUS
10
1.8845085039370078
20
0.6554017716535433
11
1.8842604724409449
21
0.6555578740157481
0
LINE
8
BLACK
6
CONTINUOUS
10
1.8842604724409449
20
0.6555578740157481
11
1.8841885433070866
21
0.6555876771653543
0
LINE
8
BLACK
6
CONTINUOUS
10
1.8841885433070866
20
0.6555876771653543
11
1.8841075590551182
21
0.6556541732283464
0
LINE
8
BLACK
6
CONTINUOUS
10
1.8841075590551182
20
0.6556541732283464
11
1.8840186220472441
21
0.6557101181102362
0
LINE
8
BLACK
6
CONTINUOUS
10
1.8840186220472441
20
0.6557101181102362
11
1.8839674409448819
21
0.6557691338582677
0
LINE
8
BLACK
6
CONTINUOUS
10
1.8839674409448819
20
0.6557691338582677
11
1.8837411023622046
21
0.6559548818897638
0
LINE
8
BLACK
6
CONTINUOUS
10
1.8837411023622046
20
0.6559548818897638
11
1.881866338582677
21
0.6578296456692914
0
LINE
8
BLACK
6
CONTINUOUS
10
1.881866338582677
20
0.6578296456692914
11
1.8816805511811023
21
0.6580560236220472
0
LINE
8
BLACK
6
CONTINUOUS
10
1.8816805511811023
20
0.6580560236220472
11
1.8816215748031495
21
0.6581071653543307
0
LINE
8
BLACK
6
CONTINUOUS
10
1.8816215748031495
20
0.6581071653543307
11
1.881565590551181
21
0.6581961417322835
0
LINE
8
BLACK
6
CONTINUOUS
10
1.881565590551181
20
0.6581961417322835
11
1.8814991338582676
21
0.6582770866141732
0
LINE
8
BLACK
6
CONTINUOUS
10
1.8814991338582676
20
0.6582770866141732
11
1.8814692913385827
21
0.6583490551181103
0
LINE
8
BLACK
6
CONTINUOUS
10
1.8814692913385827
20
0.6583490551181103
11
1.8813132283464566
21
0.6585970472440945
0
LINE
8
BLACK
6
CONTINUOUS
10
1.8813132283464566
20
0.6585970472440945
11
1.8794384645669291
21
0.6623465748031496
0
LINE
8
BLACK
6
CONTINUOUS
10
1.8794384645669291
20
0.6623465748031496
11
1.8792315748031496
21
0.6628872047244094
0
LINE
8
BLACK
6
CONTINUOUS
10
1.8792315748031496
20
0.6628872047244094
11
1.8792240551181103
21
0.6629930314960629
0
LINE
8
BLACK
6
CONTINUOUS
10
1.8792240551181103
20
0.6629930314960629
11
1.8791834645669292
21
0.6630910236220472
0
LINE
8
BLACK
6
CONTINUOUS
10
1.8791834645669292
20
0.6630910236220472
11
1.8791267322834646
21
0.6636670866141732
0
LINE
8
BLACK
6
CONTINUOUS
10
1.8791267322834646
20
0.6636670866141732
11
1.8791267322834646
21
0.6730409055118111
0
LINE
8
BLACK
6
CONTINUOUS
10
1.8791267322834646
20
0.6730409055118111
11
1.8791554330708662
21
0.6733324803149606
0
LINE
8
BLACK
6
CONTINUOUS
10
1.8791554330708662
20
0.6733324803149606
11
1.8791499212598424
21
0.6734101968503937
0
LINE
8
BLACK
6
CONTINUOUS
10
1.8791499212598424
20
0.6734101968503937
11
1.8791731496062991
21
0.6735124803149606
0
LINE
8
BLACK
6
CONTINUOUS
10
1.8791731496062991
20
0.6735124803149606
11
1.8791834645669292
21
0.673616968503937
0
LINE
8
BLACK
6
CONTINUOUS
10
1.8791834645669292
20
0.673616968503937
11
1.8792133070866142
21
0.6736890944881889
0
LINE
8
BLACK
6
CONTINUOUS
10
1.8792133070866142
20
0.6736890944881889
11
1.8792782677165354
21
0.6739746456692913
0
LINE
8
BLACK
6
CONTINUOUS
10
1.8792782677165354
20
0.6739746456692913
11
1.8811530314960629
21
0.679598937007874
0
LINE
8
BLACK
6
CONTINUOUS
10
1.8811530314960629
20
0.679598937007874
11
1.8813890157480315
21
0.6801274803149606
0
LINE
8
BLACK
6
CONTINUOUS
10
1.8813890157480315
20
0.6801274803149606
11
1.8821438976377953
21
0.6809978346456693
0
LINE
8
BLACK
6
CONTINUOUS
10
1.8821438976377953
20
0.6809978346456693
11
1.8831743307086615
21
0.6815130708661418
0
LINE
8
BLACK
6
CONTINUOUS
10
1.8831743307086615
20
0.6815130708661418
11
1.8843235433070866
21
0.6815947637795275
0
LINE
8
BLACK
6
CONTINUOUS
10
1.8843235433070866
20
0.6815947637795275
11
1.8854165354330708
21
0.6812304330708662
0
LINE
8
BLACK
6
CONTINUOUS
10
1.8854165354330708
20
0.6812304330708662
11
1.8862869291338582
21
0.6804755511811024
0
LINE
8
BLACK
6
CONTINUOUS
10
1.8862869291338582
20
0.6804755511811024
11
1.886802125984252
21
0.6794450787401575
0
LINE
8
BLACK
6
CONTINUOUS
10
1.886802125984252
20
0.6794450787401575
11
1.8868838188976378
21
0.6782958661417323
0
LINE
8
BLACK
6
CONTINUOUS
10
1.8868838188976378
20
0.6782958661417323
11
1.8867554724409448
21
0.6777314173228346
0
LINE
8
BLACK
6
CONTINUOUS
10
1.8867554724409448
20
0.6777314173228346
11
1.8850322440944882
21
0.6725617716535432
0
LINE
8
BLACK
6
CONTINUOUS
10
1.8850322440944882
20
0.6725617716535432
11
1.8850322440944882
21
0.6643641338582676
0
LINE
8
BLACK
6
CONTINUOUS
10
1.8850322440944882
20
0.6643641338582676
11
1.8863809842519685
21
0.6616666535433071
0
LINE
8
BLACK
6
CONTINUOUS
10
1.8863809842519685
20
0.6616666535433071
11
1.8875781102362204
21
0.6604695275590551
0
LINE
8
BLACK
6
CONTINUOUS
10
1.8875781102362204
20
0.6604695275590551
11
1.890275590551181
21
0.6591207874015748
0
LINE
8
BLACK
6
CONTINUOUS
10
1.890275590551181
20
0.6591207874015748
11
1.8926310236220472
21
0.6591207874015748
0
LINE
8
BLACK
6
CONTINUOUS
10
1.8926310236220472
20
0.6591207874015748
11
1.8953285039370078
21
0.6604695275590551
0
LINE
8
BLACK
6
CONTINUOUS
10
1.8953285039370078
20
0.6604695275590551
11
1.8965256299212598
21
0.6616666535433071
0
LINE
8
BLACK
6
CONTINUOUS
10
1.8965256299212598
20
0.6616666535433071
11
1.8980411023622046
21
0.6646976377952756
0
LINE
8
BLACK
6
CONTINUOUS
10
1.8980411023622046
20
0.6646976377952756
11
1.8998372834645669
21
0.6718822834645669
0
LINE
8
BLACK
6
CONTINUOUS
10
1.8998372834645669
20
0.6718822834645669
11
1.8998524409448818
21
0.6719248031496062
0
LINE
8
BLACK
6
CONTINUOUS
10
1.8998524409448818
20
0.6719248031496062
11
1.8998539763779527
21
0.6719460236220473
0
LINE
8
BLACK
6
CONTINUOUS
10
1.8998539763779527
20
0.6719460236220473
11
1.8999455905511811
21
0.6721854724409448
0
LINE
8
BLACK
6
CONTINUOUS
10
1.8999455905511811
20
0.6721854724409448
11
1.9000320472440944
21
0.6724274015748032
0
LINE
8
BLACK
6
CONTINUOUS
10
1.9000320472440944
20
0.6724274015748032
11
1.9000447244094487
21
0.6724445669291338
0
LINE
8
BLACK
6
CONTINUOUS
10
1.9000447244094487
20
0.6724445669291338
11
1.9000608661417322
21
0.6724866535433071
0
LINE
8
BLACK
6
CONTINUOUS
10
1.9000608661417322
20
0.6724866535433071
11
1.9019356299212598
21
0.6762361811023622
0
LINE
8
BLACK
6
CONTINUOUS
10
1.9019356299212598
20
0.6762361811023622
11
1.9020916929133858
21
0.6764842125984252
0
LINE
8
BLACK
6
CONTINUOUS
10
1.9020916929133858
20
0.6764842125984252
11
1.9021215354330707
21
0.6765561417322834
0
LINE
8
BLACK
6
CONTINUOUS
10
1.9021215354330707
20
0.6765561417322834
11
1.9021879921259841
21
0.676637125984252
0
LINE
8
BLACK
6
CONTINUOUS
10
1.9021879921259841
20
0.676637125984252
11
1.9022439763779526
21
0.676726062992126
0
LINE
8
BLACK
6
CONTINUOUS
10
1.9022439763779526
20
0.676726062992126
11
1.9023029527559054
21
0.6767772440944881
0
LINE
8
BLACK
6
CONTINUOUS
10
1.9023029527559054
20
0.6767772440944881
11
1.9024887401574804
21
0.6770035826771653
0
LINE
8
BLACK
6
CONTINUOUS
10
1.9024887401574804
20
0.6770035826771653
11
1.9043635039370079
21
0.6788783464566929
0
LINE
8
BLACK
6
CONTINUOUS
10
1.9043635039370079
20
0.6788783464566929
11
1.904589842519685
21
0.6790641338582677
0
LINE
8
BLACK
6
CONTINUOUS
10
1.904589842519685
20
0.6790641338582677
11
1.9046410236220472
21
0.6791231102362204
0
LINE
8
BLACK
6
CONTINUOUS
10
1.9046410236220472
20
0.6791231102362204
11
1.9047299606299213
21
0.6791790944881889
0
LINE
8
BLACK
6
CONTINUOUS
10
1.9047299606299213
20
0.6791790944881889
11
1.9048109448818897
21
0.6792455511811023
0
LINE
8
BLACK
6
CONTINUOUS
10
1.9048109448818897
20
0.6792455511811023
11
1.904882874015748
21
0.6792753937007874
0
LINE
8
BLACK
6
CONTINUOUS
10
1.904882874015748
20
0.6792753937007874
11
1.9051309055118111
21
0.6794314566929134
0
LINE
8
BLACK
6
CONTINUOUS
10
1.9051309055118111
20
0.6794314566929134
11
1.9088804330708662
21
0.6813062204724409
0
LINE
8
BLACK
6
CONTINUOUS
10
1.9088804330708662
20
0.6813062204724409
11
1.9094210236220472
21
0.6815131102362204
0
LINE
8
BLACK
6
CONTINUOUS
10
1.9094210236220472
20
0.6815131102362204
11
1.9095268897637794
21
0.6815206692913386
0
LINE
8
BLACK
6
CONTINUOUS
10
1.9095268897637794
20
0.6815206692913386
11
1.9096248818897636
21
0.6815612204724409
0
LINE
8
BLACK
6
CONTINUOUS
10
1.9096248818897636
20
0.6815612204724409
11
1.9102009448818897
21
0.6816179527559055
0
LINE
8
BLACK
6
CONTINUOUS
10
1.9102009448818897
20
0.6816179527559055
11
1.9139504724409448
21
0.6816179527559055
0
LINE
8
BLACK
6
CONTINUOUS
10
1.9139504724409448
20
0.6816179527559055
11
1.9145265354330707
21
0.6815612204724409
0
LINE
8
BLACK
6
CONTINUOUS
10
1.8827634251968504
20
0.7284067716535433
11
1.9221335039370078
21
0.7190329527559055
0
LINE
8
BLACK
6
CONTINUOUS
10
1.9221335039370078
20
0.7190329527559055
11
1.922331062992126
21
0.7189648818897638
0
LINE
8
BLACK
6
CONTINUOUS
10
1.922331062992126
20
0.7189648818897638
11
1.9224020866141731
21
0.7189554330708662
0
LINE
8
BLACK
6
CONTINUOUS
10
1.9224020866141731
20
0.7189554330708662
11
1.922466220472441
21
0.7189183070866142
0
LINE
8
BLACK
6
CONTINUOUS
10
1.922466220472441
20
0.7189183070866142
11
1.922680748031496
21
0.7188443700787401
0
LINE
8
BLACK
6
CONTINUOUS
10
1.922680748031496
20
0.7188443700787401
11
1.9230281102362203
21
0.7185929921259843
0
LINE
8
BLACK
6
CONTINUOUS
10
1.9230281102362203
20
0.7185929921259843
11
1.9233990944881889
21
0.718378188976378
0
LINE
8
BLACK
6
CONTINUOUS
10
1.9233990944881889
20
0.718378188976378
11
1.9234912204724408
21
0.7182578346456693
0
LINE
8
BLACK
6
CONTINUOUS
10
1.9234912204724408
20
0.7182578346456693
11
1.923614094488189
21
0.7181688976377952
0
LINE
8
BLACK
6
CONTINUOUS
10
1.923614094488189
20
0.7181688976377952
11
1.9238387007874016
21
0.7178038976377953
0
LINE
8
BLACK
6
CONTINUOUS
10
1.9238387007874016
20
0.7178038976377953
11
1.9240994094488189
21
0.7174633070866142
0
LINE
8
BLACK
6
CONTINUOUS
10
1.9240994094488189
20
0.7174633070866142
11
1.9241385039370078
21
0.7173167322834646
0
LINE
8
BLACK
6
CONTINUOUS
10
1.9241385039370078
20
0.7173167322834646
11
1.9242178740157481
21
0.717187716535433
0
LINE
8
BLACK
6
CONTINUOUS
10
1.9242178740157481
20
0.717187716535433
11
1.9242856692913386
21
0.7167647637795276
0
LINE
8
BLACK
6
CONTINUOUS
10
1.9242856692913386
20
0.7167647637795276
11
1.9243962598425197
21
0.7163501181102362
0
LINE
8
BLACK
6
CONTINUOUS
10
1.9243962598425197
20
0.7163501181102362
11
1.9243762598425196
21
0.7161998031496063
0
LINE
8
BLACK
6
CONTINUOUS
10
1.9243762598425196
20
0.7161998031496063
11
1.9244002755905512
21
0.7160501181102362
0
LINE
8
BLACK
6
CONTINUOUS
10
1.9244002755905512
20
0.7160501181102362
11
1.9243009448818897
21
0.7156329921259842
0
LINE
8
BLACK
6
CONTINUOUS
10
1.9243009448818897
20
0.7156329921259842
11
1.9242444881889764
21
0.7152080314960629
0
LINE
8
BLACK
6
CONTINUOUS
10
1.9242444881889764
20
0.7152080314960629
11
1.9241685433070865
21
0.7150768897637795
0
LINE
8
BLACK
6
CONTINUOUS
10
1.9241685433070865
20
0.7150768897637795
11
1.9241334251968503
21
0.7149293307086614
0
LINE
8
BLACK
6
CONTINUOUS
10
1.9241334251968503
20
0.7149293307086614
11
1.923881968503937
21
0.7145819291338582
0
LINE
8
BLACK
6
CONTINUOUS
10
1.923881968503937
20
0.7145819291338582
11
1.9236672440944882
21
0.7142109842519685
0
LINE
8
BLACK
6
CONTINUOUS
10
1.9236672440944882
20
0.7142109842519685
11
1.9235468503937008
21
0.7141188582677165
0
LINE
8
BLACK
6
CONTINUOUS
10
1.9235468503937008
20
0.7141188582677165
11
1.9234579527559055
21
0.7139959842519685
0
LINE
8
BLACK
6
CONTINUOUS
10
1.9234579527559055
20
0.7139959842519685
11
1.923092874015748
21
0.7137713779527559
0
LINE
8
BLACK
6
CONTINUOUS
10
1.923092874015748
20
0.7137713779527559
11
1.9227524015748032
21
0.7135107086614173
0
LINE
8
BLACK
6
CONTINUOUS
10
1.9227524015748032
20
0.7135107086614173
11
1.9225397244094489
21
0.7134309842519685
0
LINE
8
BLACK
6
CONTINUOUS
10
1.9225397244094489
20
0.7134309842519685
11
1.9224767716535434
21
0.7133922047244095
0
LINE
8
BLACK
6
CONTINUOUS
10
1.9224767716535434
20
0.7133922047244095
11
1.9224062598425196
21
0.713380905511811
0
LINE
8
BLACK
6
CONTINUOUS
10
1.9224062598425196
20
0.713380905511811
11
1.9222103937007873
21
0.7133074409448819
0
LINE
8
BLACK
6
CONTINUOUS
10
1.9222103937007873
20
0.7133074409448819
11
1.9047879133858268
21
0.7086614566929134
0
LINE
8
BLACK
6
CONTINUOUS
10
1.9047879133858268
20
0.7086614566929134
11
1.9222103937007873
21
0.7040154724409449
0
LINE
8
BLACK
6
CONTINUOUS
10
1.9222103937007873
20
0.7040154724409449
11
1.9224062598425196
21
0.7039420472440945
0
LINE
8
BLACK
6
CONTINUOUS
10
1.9224062598425196
20
0.7039420472440945
11
1.9224767716535434
21
0.7039307086614173
0
LINE
8
BLACK
6
CONTINUOUS
10
1.9224767716535434
20
0.7039307086614173
11
1.9225397244094489
21
0.703891968503937
0
LINE
8
BLACK
6
CONTINUOUS
10
1.9225397244094489
20
0.703891968503937
11
1.9227524015748032
21
0.7038122047244094
0
LINE
8
BLACK
6
CONTINUOUS
10
1.9227524015748032
20
0.7038122047244094
11
1.923092874015748
21
0.7035515748031496
0
LINE
8
BLACK
6
CONTINUOUS
10
1.923092874015748
20
0.7035515748031496
11
1.9234579527559055
21
0.7033269291338583
0
LINE
8
BLACK
6
CONTINUOUS
10
1.9234579527559055
20
0.7033269291338583
11
1.9235468503937008
21
0.703204094488189
0
LINE
8
BLACK
6
CONTINUOUS
10
1.9235468503937008
20
0.703204094488189
11
1.9236672440944882
21
0.7031119291338582
0
LINE
8
BLACK
6
CONTINUOUS
10
1.9236672440944882
20
0.7031119291338582
11
1.923881968503937
21
0.7027410236220473
0
LINE
8
BLACK
6
CONTINUOUS
10
1.923881968503937
20
0.7027410236220473
11
1.9241334251968503
21
0.7023935826771653
0
LINE
8
BLACK
6
CONTINUOUS
10
1.9241334251968503
20
0.7023935826771653
11
1.9241685433070865
21
0.702246062992126
0
LINE
8
BLACK
6
CONTINUOUS
10
1.9241685433070865
20
0.702246062992126
11
1.9242444881889764
21
0.7021148818897638
0
LINE
8
BLACK
6
CONTINUOUS
10
1.9242444881889764
20
0.7021148818897638
11
1.9243009448818897
21
0.7016899606299213
0
LINE
8
BLACK
6
CONTINUOUS
10
1.9243009448818897
20
0.7016899606299213
11
1.9244002755905512
21
0.7012727952755905
0
LINE
8
BLACK
6
CONTINUOUS
10
1.9244002755905512
20
0.7012727952755905
11
1.9243762598425196
21
0.7011231496062992
0
LINE
8
BLACK
6
CONTINUOUS
10
1.9243762598425196
20
0.7011231496062992
11
1.9243962598425197
21
0.7009727952755905
0
LINE
8
BLACK
6
CONTINUOUS
10
1.9243962598425197
20
0.7009727952755905
11
1.9242856692913386
21
0.7005581889763779
0
LINE
8
BLACK
6
CONTINUOUS
10
1.9242856692913386
20
0.7005581889763779
11
1.9242178740157481
21
0.7001351968503937
0
LINE
8
BLACK
6
CONTINUOUS
10
1.9242178740157481
20
0.7001351968503937
11
1.9241385039370078
21
0.7000062204724409
0
LINE
8
BLACK
6
CONTINUOUS
10
1.9241385039370078
20
0.7000062204724409
11
1.9240994094488189
21
0.6998596062992126
0
LINE
8
BLACK
6
CONTINUOUS
10
1.9240994094488189
20
0.6998596062992126
11
1.9238387007874016
21
0.6995190551181102
0
LINE
8
BLACK
6
CONTINUOUS
10
1.9238387007874016
20
0.6995190551181102
11
1.923614094488189
21
0.6991540157480315
0
LINE
8
BLACK
6
CONTINUOUS
10
1.923614094488189
20
0.6991540157480315
11
1.9234912204724408
21
0.6990651181102362
0
LINE
8
BLACK
6
CONTINUOUS
10
1.9234912204724408
20
0.6990651181102362
11
1.9233990944881889
21
0.6989447244094488
0
LINE
8
BLACK
6
CONTINUOUS
10
1.9233990944881889
20
0.6989447244094488
11
1.9230281102362203
21
0.6987299606299212
0
LINE
8
BLACK
6
CONTINUOUS
10
1.9230281102362203
20
0.6987299606299212
11
1.922680748031496
21
0.6984785433070866
0
LINE
8
BLACK
6
CONTINUOUS
10
1.922680748031496
20
0.6984785433070866
11
1.922466220472441
21
0.6984046456692913
0
LINE
8
BLACK
6
CONTINUOUS
10
1.922466220472441
20
0.6984046456692913
11
1.9224020866141731
21
0.6983674803149607
0
LINE
8
BLACK
6
CONTINUOUS
10
1.9224020866141731
20
0.6983674803149607
11
1.922331062992126
21
0.6983580708661418
0
LINE
8
BLACK
6
CONTINUOUS
10
1.922331062992126
20
0.6983580708661418
11
1.9221335039370078
21
0.6982899606299212
0
LINE
8
BLACK
6
CONTINUOUS
10
1.9221335039370078
20
0.6982899606299212
11
1.8827634251968504
21
0.6889161417322834
0
LINE
8
BLACK
6
CONTINUOUS
10
1.8827634251968504
20
0.6889161417322834
11
1.8821898818897638
21
0.688837874015748
0
LINE
8
BLACK
6
CONTINUOUS
10
1.8821898818897638
20
0.688837874015748
11
1.8810522834645669
21
0.6890202755905511
0
LINE
8
BLACK
6
CONTINUOUS
10
1.8810522834645669
20
0.6890202755905511
11
1.8800711023622048
21
0.6896240551181102
0
LINE
8
BLACK
6
CONTINUOUS
10
1.8800711023622048
20
0.6896240551181102
11
1.8793956299212597
21
0.6905574015748032
0
LINE
8
BLACK
6
CONTINUOUS
10
1.8793956299212597
20
0.6905574015748032
11
1.8791287795275591
21
0.6916781889763779
0
LINE
8
BLACK
6
CONTINUOUS
10
1.8791287795275591
20
0.6916781889763779
11
1.8793111811023622
21
0.6928157874015748
0
LINE
8
BLACK
6
CONTINUOUS
10
1.8793111811023622
20
0.6928157874015748
11
1.8799149606299213
21
0.693796968503937
0
LINE
8
BLACK
6
CONTINUOUS
10
1.8799149606299213
20
0.693796968503937
11
1.8808483070866142
21
0.6944724409448819
0
LINE
8
BLACK
6
CONTINUOUS
10
1.8808483070866142
20
0.6944724409448819
11
1.8813955511811022
21
0.6946610236220472
0
LINE
8
BLACK
6
CONTINUOUS
10
1.8813955511811022
20
0.6946610236220472
11
1.9093820078740158
21
0.7013244881889764
0
LINE
8
BLACK
6
CONTINUOUS
10
1.9093820078740158
20
0.7013244881889764
11
1.8925672440944881
21
0.7058083858267716
0
LINE
8
BLACK
6
CONTINUOUS
10
1.8925672440944881
20
0.7058083858267716
11
1.8924322834645668
21
0.7058590157480314
0
LINE
8
BLACK
6
CONTINUOUS
10
1.8924322834645668
20
0.7058590157480314
11
1.892375590551181
21
0.7058665354330709
0
LINE
8
BLACK
6
CONTINUOUS
10
1.892375590551181
20
0.7058665354330709
11
1.8923082283464567
21
0.7059055511811023
0
LINE
8
BLACK
6
CONTINUOUS
10
1.8923082283464567
20
0.7059055511811023
11
1.8920252755905511
21
0.7060116535433071
0
LINE
8
BLACK
6
CONTINUOUS
10
1.8920252755905511
20
0.7060116535433071
11
1.8917158267716534
21
0.7062485039370079
0
LINE
8
BLACK
6
CONTINUOUS
10
1.8917158267716534
20
0.7062485039370079
11
1.8913785433070867
21
0.706443779527559
0
LINE
8
BLACK
6
CONTINUOUS
10
1.8913785433070867
20
0.706443779527559
11
1.8912622440944882
21
0.7065956692913385
0
LINE
8
BLACK
6
CONTINUOUS
10
1.8912622440944882
20
0.7065956692913385
11
1.8911103937007874
21
0.7067119291338583
0
LINE
8
BLACK
6
CONTINUOUS
10
1.8911103937007874
20
0.7067119291338583
11
1.8909150787401574
21
0.7070492519685039
0
LINE
8
BLACK
6
CONTINUOUS
10
1.8909150787401574
20
0.7070492519685039
11
1.8906782677165355
21
0.7073586614173228
0
LINE
8
BLACK
6
CONTINUOUS
10
1.8906782677165355
20
0.7073586614173228
11
1.8906289763779527
21
0.7075434251968504
0
LINE
8
BLACK
6
CONTINUOUS
10
1.8906289763779527
20
0.7075434251968504
11
1.8905331496062991
21
0.7077089763779527
0
LINE
8
BLACK
6
CONTINUOUS
10
1.8905331496062991
20
0.7077089763779527
11
1.8904817716535434
21
0.7080954330708661
0
LINE
8
BLACK
6
CONTINUOUS
10
1.8904817716535434
20
0.7080954330708661
11
1.8903814173228346
21
0.7084718897637795
0
LINE
8
BLACK
6
CONTINUOUS
10
1.8903814173228346
20
0.7084718897637795
11
1.8904065748031496
21
0.7086614566929134
0
LINE
8
BLACK
6
CONTINUOUS
10
1.8904065748031496
20
0.7086614566929134
11
1.8903814173228346
21
0.7088510236220472
0
LINE
8
BLACK
6
CONTINUOUS
10
1.8903814173228346
20
0.7088510236220472
11
1.8904817716535434
21
0.7092275196850394
0
LINE
8
BLACK
6
CONTINUOUS
10
1.8904817716535434
20
0.7092275196850394
11
1.8905331496062991
21
0.709613937007874
0
LINE
8
BLACK
6
CONTINUOUS
10
1.8905331496062991
20
0.709613937007874
11
1.8906289763779527
21
0.7097795275590552
0
LINE
8
BLACK
6
CONTINUOUS
10
1.8906289763779527
20
0.7097795275590552
11
1.8906782677165355
21
0.7099642519685039
0
LINE
8
BLACK
6
CONTINUOUS
10
1.8906782677165355
20
0.7099642519685039
11
1.8909150787401574
21
0.7102737007874016
0
LINE
8
BLACK
6
CONTINUOUS
10
1.8909150787401574
20
0.7102737007874016
11
1.8911103937007874
21
0.7106109842519684
0
LINE
8
BLACK
6
CONTINUOUS
10
1.8911103937007874
20
0.7106109842519684
11
1.8912622440944882
21
0.7107272834645669
0
LINE
8
BLACK
6
CONTINUOUS
10
1.8912622440944882
20
0.7107272834645669
11
1.8913785433070867
21
0.7108791338582677
0
LINE
8
BLACK
6
CONTINUOUS
10
1.8913785433070867
20
0.7108791338582677
11
1.8917158267716534
21
0.7110744488188976
0
LINE
8
BLACK
6
CONTINUOUS
10
1.8917158267716534
20
0.7110744488188976
11
1.8920252755905511
21
0.7113112598425196
0
LINE
8
BLACK
6
CONTINUOUS
10
1.8920252755905511
20
0.7113112598425196
11
1.8923082283464567
21
0.7114174015748032
0
LINE
8
BLACK
6
CONTINUOUS
10
1.8923082283464567
20
0.7114174015748032
11
1.892375590551181
21
0.7114563779527558
0
LINE
8
BLACK
6
CONTINUOUS
10
1.892375590551181
20
0.7114563779527558
11
1.8924322834645668
21
0.711463937007874
0
LINE
8
BLACK
6
CONTINUOUS
10
1.8924322834645668
20
0.711463937007874
11
1.8925672440944881
21
0.7115145275590551
0
LINE
8
BLACK
6
CONTINUOUS
10
1.8925672440944881
20
0.7115145275590551
11
1.9093820078740158
21
0.7159984645669292
0
LINE
8
BLACK
6
CONTINUOUS
10
1.9093820078740158
20
0.7159984645669292
11
1.8813955511811022
21
0.7226618897637795
0
LINE
8
BLACK
6
CONTINUOUS
10
1.8813955511811022
20
0.7226618897637795
11
1.8808483070866142
21
0.7228504724409449
0
LINE
8
BLACK
6
CONTINUOUS
10
1.8808483070866142
20
0.7228504724409449
11
1.8799149606299213
21
0.7235259448818897
0
LINE
8
BLACK
6
CONTINUOUS
10
1.8799149606299213
20
0.7235259448818897
11
1.8793111811023622
21
0.7245071259842519
0
LINE
8
BLACK
6
CONTINUOUS
10
1.8793111811023622
20
0.7245071259842519
11
1.8791287795275591
21
0.7256447244094488
0
LINE
8
BLACK
6
CONTINUOUS
10
1.8791287795275591
20
0.7256447244094488
11
1.8793956299212597
21
0.7267655118110236
0
LINE
8
BLACK
6
CONTINUOUS
10
1.8793956299212597
20
0.7267655118110236
11
1.8800711023622048
21
0.7276988582677165
0
LINE
8
BLACK
6
CONTINUOUS
10
1.8800711023622048
20
0.7276988582677165
11
1.8810522834645669
21
0.7283026377952756
0
LINE
8
BLACK
6
CONTINUOUS
10
1.8810522834645669
20
0.7283026377952756
11
1.8821898818897638
21
0.7284850393700787
0
LINE
8
BLACK
6
CONTINUOUS
10
1.8821898818897638
20
0.7284850393700787
11
1.8827634251968504
21
0.7284067716535433
0
LINE
8
BLACK
6
CONTINUOUS
10
1.8936196062992126
20
0.764078937007874
11
1.8936973622047244
21
0.7640844488188976
0
LINE
8
BLACK
6
CONTINUOUS
10
1.8936973622047244
20
0.7640844488188976
11
1.8937996062992126
21
0.764061220472441
0
LINE
8
BLACK
6
CONTINUOUS
10
1.8937996062992126
20
0.764061220472441
11
1.8939041338582676
21
0.764050905511811
0
LINE
8
BLACK
6
CONTINUOUS
10
1.8939041338582676
20
0.764050905511811
11
1.8939762204724409
21
0.764021062992126
0
LINE
8
BLACK
6
CONTINUOUS
10
1.8939762204724409
20
0.764021062992126
11
1.894261811023622
21
0.7639561023622047
0
LINE
8
BLACK
6
CONTINUOUS
10
1.894261811023622
20
0.7639561023622047
11
1.8998861023622047
21
0.7620813385826771
0
LINE
8
BLACK
6
CONTINUOUS
10
1.8998861023622047
20
0.7620813385826771
11
1.9004146456692912
21
0.7618453543307087
0
LINE
8
BLACK
6
CONTINUOUS
10
1.9004146456692912
20
0.7618453543307087
11
1.9004947637795275
21
0.7617758661417323
0
LINE
8
BLACK
6
CONTINUOUS
10
1.9004947637795275
20
0.7617758661417323
11
1.9005928346456693
21
0.7617352362204725
0
LINE
8
BLACK
6
CONTINUOUS
10
1.9005928346456693
20
0.7617352362204725
11
1.9010402755905511
21
0.761368031496063
0
LINE
8
BLACK
6
CONTINUOUS
10
1.9010402755905511
20
0.761368031496063
11
1.918496811023622
21
0.7439115354330709
0
LINE
8
BLACK
6
CONTINUOUS
10
1.918496811023622
20
0.7439115354330709
11
1.918496811023622
21
0.7611548818897638
0
LINE
8
BLACK
6
CONTINUOUS
10
1.918496811023622
20
0.7611548818897638
11
1.9185535433070866
21
0.7617309448818897
0
LINE
8
BLACK
6
CONTINUOUS
10
1.9185535433070866
20
0.7617309448818897
11
1.9189944488188977
21
0.7627953543307087
0
LINE
8
BLACK
6
CONTINUOUS
10
1.9189944488188977
20
0.7627953543307087
11
1.9198090944881889
21
0.76361
0
LINE
8
BLACK
6
CONTINUOUS
10
1.9198090944881889
20
0.76361
11
1.9208735039370077
21
0.764050905511811
0
LINE
8
BLACK
6
CONTINUOUS
10
1.9208735039370077
20
0.764050905511811
11
1.9220256299212597
21
0.764050905511811
0
LINE
8
BLACK
6
CONTINUOUS
10
1.9220256299212597
20
0.764050905511811
11
1.9230900393700787
21
0.76361
0
LINE
8
BLACK
6
CONTINUOUS
10
1.9230900393700787
20
0.76361
11
1.92390468503937
21
0.7627953543307087
0
LINE
8
BLACK
6
CONTINUOUS
10
1.92390468503937
20
0.7627953543307087
11
1.924345590551181
21
0.7617309448818897
0
LINE
8
BLACK
6
CONTINUOUS
10
1.924345590551181
20
0.7617309448818897
11
1.9244023228346456
21
0.7611548818897638
0
LINE
8
BLACK
6
CONTINUOUS
10
1.9244023228346456
20
0.7611548818897638
11
1.9244023228346456
21
0.7367829527559054
0
LINE
8
BLACK
6
CONTINUOUS
10
1.9244023228346456
20
0.7367829527559054
11
1.924345590551181
21
0.7362068897637795
0
LINE
8
BLACK
6
CONTINUOUS
10
1.924345590551181
20
0.7362068897637795
11
1.9242164566929134
21
0.735895157480315
0
LINE
8
BLACK
6
CONTINUOUS
10
1.9242164566929134
20
0.735895157480315
11
1.9239047244094487
21
0.7351424803149607
0
LINE
8
BLACK
6
CONTINUOUS
10
1.9239047244094487
20
0.7351424803149607
11
1.9230900393700787
21
0.7343278346456693
0
LINE
8
BLACK
6
CONTINUOUS
10
1.9230900393700787
20
0.7343278346456693
11
1.9220256299212597
21
0.7338869291338582
0
LINE
8
BLACK
6
CONTINUOUS
10
1.9220256299212597
20
0.7338869291338582
11
1.9208735433070865
21
0.7338869291338582
0
LINE
8
BLACK
6
CONTINUOUS
10
1.9208735433070865
20
0.7338869291338582
11
1.9208735039370077
21
0.7338869291338582
0
LINE
8
BLACK
6
CONTINUOUS
10
1.9208735039370077
20
0.7338869291338582
11
1.9205617322834645
21
0.734016062992126
0
LINE
8
BLACK
6
CONTINUOUS
10
1.9205617322834645
20
0.734016062992126
11
1.9198090944881889
21
0.7343277952755906
0
LINE
8
BLACK
6
CONTINUOUS
10
1.9198090944881889
20
0.7343277952755906
11
1.9193616535433071
21
0.7346950393700787
0
LINE
8
BLACK
6
CONTINUOUS
10
1.9193616535433071
20
0.7346950393700787
11
1.8973573228346456
21
0.7566993307086614
0
LINE
8
BLACK
6
CONTINUOUS
10
1.8973573228346456
20
0.7566993307086614
11
1.892848937007874
21
0.758202125984252
0
LINE
8
BLACK
6
CONTINUOUS
10
1.892848937007874
20
0.758202125984252
11
1.890275590551181
21
0.758202125984252
0
LINE
8
BLACK
6
CONTINUOUS
10
1.890275590551181
20
0.758202125984252
11
1.8875781102362204
21
0.7568533858267716
0
LINE
8
BLACK
6
CONTINUOUS
10
1.8875781102362204
20
0.7568533858267716
11
1.8863809842519685
21
0.7556562598425197
0
LINE
8
BLACK
6
CONTINUOUS
10
1.8863809842519685
20
0.7556562598425197
11
1.8850322440944882
21
0.7529587795275591
0
LINE
8
BLACK
6
CONTINUOUS
10
1.8850322440944882
20
0.7529587795275591
11
1.8850322440944882
21
0.7449790551181102
0
LINE
8
BLACK
6
CONTINUOUS
10
1.8850322440944882
20
0.7449790551181102
11
1.8863809842519685
21
0.7422815748031496
0
LINE
8
BLACK
6
CONTINUOUS
10
1.8863809842519685
20
0.7422815748031496
11
1.8879169291338582
21
0.7407456299212598
0
LINE
8
BLACK
6
CONTINUOUS
10
1.8879169291338582
20
0.7407456299212598
11
1.8882841338582677
21
0.7402981889763779
0
LINE
8
BLACK
6
CONTINUOUS
10
1.8882841338582677
20
0.7402981889763779
11
1.8887250393700787
21
0.7392337795275591
0
LINE
8
BLACK
6
CONTINUOUS
10
1.8887250393700787
20
0.7392337795275591
11
1.8887250393700787
21
0.7380816929133858
0
LINE
8
BLACK
6
CONTINUOUS
10
1.8887250393700787
20
0.7380816929133858
11
1.8882841338582677
21
0.737017283464567
0
LINE
8
BLACK
6
CONTINUOUS
10
1.8882841338582677
20
0.737017283464567
11
1.8874694488188977
21
0.7362025984251969
0
LINE
8
BLACK
6
CONTINUOUS
10
1.8874694488188977
20
0.7362025984251969
11
1.8864050393700786
21
0.7357616929133858
0
LINE
8
BLACK
6
CONTINUOUS
10
1.8864050393700786
20
0.7357616929133858
11
1.8852529527559054
21
0.7357616929133858
0
LINE
8
BLACK
6
CONTINUOUS
10
1.8852529527559054
20
0.7357616929133858
11
1.8841885433070866
21
0.7362025984251969
0
LINE
8
BLACK
6
CONTINUOUS
10
1.8841885433070866
20
0.7362025984251969
11
1.8837411023622046
21
0.7365698031496063
0
LINE
8
BLACK
6
CONTINUOUS
10
1.8837411023622046
20
0.7365698031496063
11
1.881866338582677
21
0.7384445669291338
0
LINE
8
BLACK
6
CONTINUOUS
10
1.881866338582677
20
0.7384445669291338
11
1.8816805511811023
21
0.7386709448818898
0
LINE
8
BLACK
6
CONTINUOUS
10
1.8816805511811023
20
0.7386709448818898
11
1.8816215748031495
21
0.7387220866141732
0
LINE
8
BLACK
6
CONTINUOUS
10
1.8816215748031495
20
0.7387220866141732
11
1.881565590551181
21
0.738811062992126
0
LINE
8
BLACK
6
CONTINUOUS
10
1.881565590551181
20
0.738811062992126
11
1.8814991338582676
21
0.7388920078740158
0
LINE
8
BLACK
6
CONTINUOUS
10
1.8814991338582676
20
0.7388920078740158
11
1.8814692913385827
21
0.7389639763779527
0
LINE
8
BLACK
6
CONTINUOUS
10
1.8814692913385827
20
0.7389639763779527
11
1.8813132283464566
21
0.739211968503937
0
LINE
8
BLACK
6
CONTINUOUS
10
1.8813132283464566
20
0.739211968503937
11
1.8794384645669291
21
0.7429614960629921
0
LINE
8
BLACK
6
CONTINUOUS
10
1.8794384645669291
20
0.7429614960629921
11
1.8792315748031496
21
0.7435021259842519
0
LINE
8
BLACK
6
CONTINUOUS
10
1.8792315748031496
20
0.7435021259842519
11
1.8792240551181103
21
0.7436079527559055
0
LINE
8
BLACK
6
CONTINUOUS
10
1.8792240551181103
20
0.7436079527559055
11
1.8791834645669292
21
0.7437059448818898
0
LINE
8
BLACK
6
CONTINUOUS
10
1.8791834645669292
20
0.7437059448818898
11
1.8791267322834646
21
0.7442820078740158
0
LINE
8
BLACK
6
CONTINUOUS
10
1.8791267322834646
20
0.7442820078740158
11
1.8791267322834646
21
0.7536558267716535
0
LINE
8
BLACK
6
CONTINUOUS
10
1.8791267322834646
20
0.7536558267716535
11
1.8791834645669292
21
0.7542318897637795
0
LINE
8
BLACK
6
CONTINUOUS
10
1.8791834645669292
20
0.7542318897637795
11
1.8792240551181103
21
0.7543299212598426
0
LINE
8
BLACK
6
CONTINUOUS
10
1.8792240551181103
20
0.7543299212598426
11
1.8792315748031496
21
0.7544357086614173
0
LINE
8
BLACK
6
CONTINUOUS
10
1.8792315748031496
20
0.7544357086614173
11
1.8794384645669291
21
0.7549763385826771
0
LINE
8
BLACK
6
CONTINUOUS
10
1.8794384645669291
20
0.7549763385826771
11
1.8813132283464566
21
0.7587258661417323
0
LINE
8
BLACK
6
CONTINUOUS
10
1.8813132283464566
20
0.7587258661417323
11
1.8814692913385827
21
0.7589738976377952
0
LINE
8
BLACK
6
CONTINUOUS
10
1.8814692913385827
20
0.7589738976377952
11
1.8814991338582676
21
0.7590458267716536
0
LINE
8
BLACK
6
CONTINUOUS
10
1.8814991338582676
20
0.7590458267716536
11
1.881565590551181
21
0.759126811023622
0
LINE
8
BLACK
6
CONTINUOUS
10
1.881565590551181
20
0.759126811023622
11
1.8816215748031495
21
0.7592157480314961
0
LINE
8
BLACK
6
CONTINUOUS
10
1.8816215748031495
20
0.7592157480314961
11
1.8816805511811023
21
0.7592669291338583
0
LINE
8
BLACK
6
CONTINUOUS
10
1.8816805511811023
20
0.7592669291338583
11
1.881866338582677
21
0.7594932677165355
0
LINE
8
BLACK
6
CONTINUOUS
10
1.881866338582677
20
0.7594932677165355
11
1.8837411023622046
21
0.761368031496063
0
LINE
8
BLACK
6
CONTINUOUS
10
1.8837411023622046
20
0.761368031496063
11
1.8839674409448819
21
0.7615538188976377
0
LINE
8
BLACK
6
CONTINUOUS
10
1.8839674409448819
20
0.7615538188976377
11
1.8840186220472441
21
0.7616127952755906
0
LINE
8
BLACK
6
CONTINUOUS
10
1.8840186220472441
20
0.7616127952755906
11
1.8841075590551182
21
0.7616687795275591
0
LINE
8
BLACK
6
CONTINUOUS
10
1.8841075590551182
20
0.7616687795275591
11
1.8841885433070866
21
0.7617352362204725
0
LINE
8
BLACK
6
CONTINUOUS
10
1.8841885433070866
20
0.7617352362204725
11
1.8842604724409449
21
0.7617650787401574
0
LINE
8
BLACK
6
CONTINUOUS
10
1.8842604724409449
20
0.7617650787401574
11
1.8845085039370078
21
0.7619211417322834
0
LINE
8
BLACK
6
CONTINUOUS
10
1.8845085039370078
20
0.7619211417322834
11
1.8882580314960629
21
0.763795905511811
0
LINE
8
BLACK
6
CONTINUOUS
10
1.8882580314960629
20
0.763795905511811
11
1.8887986220472441
21
0.7640027952755906
0
LINE
8
BLACK
6
CONTINUOUS
10
1.8887986220472441
20
0.7640027952755906
11
1.8889044881889763
21
0.7640103543307086
0
LINE
8
BLACK
6
CONTINUOUS
10
1.8889044881889763
20
0.7640103543307086
11
1.8890024803149605
21
0.764050905511811
0
LINE
8
BLACK
6
CONTINUOUS
10
1.8890024803149605
20
0.764050905511811
11
1.8895785433070866
21
0.7641076377952756
0
LINE
8
BLACK
6
CONTINUOUS
10
1.8895785433070866
20
0.7641076377952756
11
1.8933280708661417
21
0.7641076377952756
0
LINE
8
BLACK
6
CONTINUOUS
10
1.8933280708661417
20
0.7641076377952756
11
1.8936196062992126
21
0.764078937007874
0
LINE
8
BLACK
6
CONTINUOUS
10
0.3432142913385827
20
0.8282461417322834
11
0.3432920472440945
21
0.8282516535433071
0
LINE
8
BLACK
6
CONTINUOUS
10
0.3432920472440945
20
0.8282516535433071
11
0.3433942913385827
21
0.8282284251968504
0
LINE
8
BLACK
6
CONTINUOUS
10
0.3433942913385827
20
0.8282284251968504
11
0.3434988188976378
21
0.8282181102362205
0
LINE
8
BLACK
6
CONTINUOUS
10
0.3434988188976378
20
0.8282181102362205
11
0.343570905511811
21
0.8281882677165354
0
LINE
8
BLACK
6
CONTINUOUS
10
0.343570905511811
20
0.8281882677165354
11
0.3438564960629921
21
0.8281233070866142
0
LINE
8
BLACK
6
CONTINUOUS
10
0.3438564960629921
20
0.8281233070866142
11
0.3494807874015748
21
0.8262485433070866
0
LINE
8
BLACK
6
CONTINUOUS
10
0.3494807874015748
20
0.8262485433070866
11
0.3500093307086614
21
0.8260125590551181
0
LINE
8
BLACK
6
CONTINUOUS
10
0.3500093307086614
20
0.8260125590551181
11
0.3508796850393701
21
0.8252576771653544
0
LINE
8
BLACK
6
CONTINUOUS
10
0.3508796850393701
20
0.8252576771653544
11
0.3513949212598425
21
0.8242272440944882
0
LINE
8
BLACK
6
CONTINUOUS
10
0.3513949212598425
20
0.8242272440944882
11
0.3514766141732283
21
0.823078031496063
0
LINE
8
BLACK
6
CONTINUOUS
10
0.3514766141732283
20
0.823078031496063
11
0.3511122834645669
21
0.8219850393700787
0
LINE
8
BLACK
6
CONTINUOUS
10
0.3511122834645669
20
0.8219850393700787
11
0.3503574015748032
21
0.8211146456692913
0
LINE
8
BLACK
6
CONTINUOUS
10
0.3503574015748032
20
0.8211146456692913
11
0.3493269291338583
21
0.8205994488188976
0
LINE
8
BLACK
6
CONTINUOUS
10
0.3493269291338583
20
0.8205994488188976
11
0.3481777165354331
21
0.8205177559055118
0
LINE
8
BLACK
6
CONTINUOUS
10
0.3481777165354331
20
0.8205177559055118
11
0.3476132677165354
21
0.8206461023622047
0
LINE
8
BLACK
6
CONTINUOUS
10
0.3476132677165354
20
0.8206461023622047
11
0.3424436220472441
21
0.8223693307086614
0
LINE
8
BLACK
6
CONTINUOUS
10
0.3424436220472441
20
0.8223693307086614
11
0.3342459842519685
21
0.8223693307086614
0
LINE
8
BLACK
6
CONTINUOUS
10
0.3342459842519685
20
0.8223693307086614
11
0.3315485039370079
21
0.821020590551181
0
LINE
8
BLACK
6
CONTINUOUS
10
0.3315485039370079
20
0.821020590551181
11
0.3303513779527559
21
0.8198234645669291
0
LINE
8
BLACK
6
CONTINUOUS
10
0.3303513779527559
20
0.8198234645669291
11
0.3290026377952756
21
0.8171259842519685
0
LINE
8
BLACK
6
CONTINUOUS
10
0.3290026377952756
20
0.8171259842519685
11
0.3290026377952756
21
0.8147705511811023
0
LINE
8
BLACK
6
CONTINUOUS
10
0.3290026377952756
20
0.8147705511811023
11
0.3303513779527559
21
0.8120730708661417
0
LINE
8
BLACK
6
CONTINUOUS
10
0.3303513779527559
20
0.8120730708661417
11
0.3315485039370079
21
0.8108759448818897
0
LINE
8
BLACK
6
CONTINUOUS
10
0.3315485039370079
20
0.8108759448818897
11
0.3345794881889764
21
0.8093604724409449
0
LINE
8
BLACK
6
CONTINUOUS
10
0.3345794881889764
20
0.8093604724409449
11
0.3417641338582677
21
0.8075642913385827
0
LINE
8
BLACK
6
CONTINUOUS
10
0.3417641338582677
20
0.8075642913385827
11
0.3418066141732283
21
0.8075491338582677
0
LINE
8
BLACK
6
CONTINUOUS
10
0.3418066141732283
20
0.8075491338582677
11
0.341827874015748
21
0.8075475984251969
0
LINE
8
BLACK
6
CONTINUOUS
10
0.341827874015748
20
0.8075475984251969
11
0.3420672834645669
21
0.8074559842519685
0
LINE
8
BLACK
6
CONTINUOUS
10
0.3420672834645669
20
0.8074559842519685
11
0.3423092519685039
21
0.8073695275590551
0
LINE
8
BLACK
6
CONTINUOUS
10
0.3423092519685039
20
0.8073695275590551
11
0.3423263779527559
21
0.8073568503937008
0
LINE
8
BLACK
6
CONTINUOUS
10
0.3423263779527559
20
0.8073568503937008
11
0.3423685039370079
21
0.8073407086614173
0
LINE
8
BLACK
6
CONTINUOUS
10
0.3423685039370079
20
0.8073407086614173
11
0.346118031496063
21
0.8054659448818897
0
LINE
8
BLACK
6
CONTINUOUS
10
0.346118031496063
20
0.8054659448818897
11
0.3463660236220472
21
0.8053098818897637
0
LINE
8
BLACK
6
CONTINUOUS
10
0.3463660236220472
20
0.8053098818897637
11
0.3464379921259843
21
0.8052800393700787
0
LINE
8
BLACK
6
CONTINUOUS
10
0.3464379921259843
20
0.8052800393700787
11
0.346518937007874
21
0.8052135826771654
0
LINE
8
BLACK
6
CONTINUOUS
10
0.346518937007874
20
0.8052135826771654
11
0.3466079133858267
21
0.8051575984251969
0
LINE
8
BLACK
6
CONTINUOUS
10
0.3466079133858267
20
0.8051575984251969
11
0.3466590551181102
21
0.805098622047244
0
LINE
8
BLACK
6
CONTINUOUS
10
0.3466590551181102
20
0.805098622047244
11
0.3468854330708661
21
0.8049128346456693
0
LINE
8
BLACK
6
CONTINUOUS
10
0.3468854330708661
20
0.8049128346456693
11
0.3487601968503937
21
0.8030380708661418
0
LINE
8
BLACK
6
CONTINUOUS
10
0.3487601968503937
20
0.8030380708661418
11
0.3489459448818897
21
0.8028117322834646
0
LINE
8
BLACK
6
CONTINUOUS
10
0.3489459448818897
20
0.8028117322834646
11
0.3490049606299213
21
0.8027605511811023
0
LINE
8
BLACK
6
CONTINUOUS
10
0.3490049606299213
20
0.8027605511811023
11
0.349060905511811
21
0.8026716141732283
0
LINE
8
BLACK
6
CONTINUOUS
10
0.349060905511811
20
0.8026716141732283
11
0.3491274015748032
21
0.8025906299212598
0
LINE
8
BLACK
6
CONTINUOUS
10
0.3491274015748032
20
0.8025906299212598
11
0.3491572047244094
21
0.8025187007874015
0
LINE
8
BLACK
6
CONTINUOUS
10
0.3491572047244094
20
0.8025187007874015
11
0.3493133070866142
21
0.8022706692913386
0
LINE
8
BLACK
6
CONTINUOUS
10
0.3493133070866142
20
0.8022706692913386
11
0.3511880708661417
21
0.7985211417322835
0
LINE
8
BLACK
6
CONTINUOUS
10
0.3511880708661417
20
0.7985211417322835
11
0.3513949606299213
21
0.7979805511811023
0
LINE
8
BLACK
6
CONTINUOUS
10
0.3513949606299213
20
0.7979805511811023
11
0.3514024803149606
21
0.7978746850393701
0
LINE
8
BLACK
6
CONTINUOUS
10
0.3514024803149606
20
0.7978746850393701
11
0.3514430708661417
21
0.7977766929133858
0
LINE
8
BLACK
6
CONTINUOUS
10
0.3514430708661417
20
0.7977766929133858
11
0.3514998031496063
21
0.7972006299212598
0
LINE
8
BLACK
6
CONTINUOUS
10
0.3514998031496063
20
0.7972006299212598
11
0.3514998031496063
21
0.7934511023622047
0
LINE
8
BLACK
6
CONTINUOUS
10
0.3514998031496063
20
0.7934511023622047
11
0.3514430708661417
21
0.7928750393700787
0
LINE
8
BLACK
6
CONTINUOUS
10
0.3514430708661417
20
0.7928750393700787
11
0.3514024803149606
21
0.7927770866141732
0
LINE
8
BLACK
6
CONTINUOUS
10
0.3514024803149606
20
0.7927770866141732
11
0.3513949606299213
21
0.7926711811023622
0
LINE
8
BLACK
6
CONTINUOUS
10
0.3513949606299213
20
0.7926711811023622
11
0.3511880708661417
21
0.7921305905511811
0
LINE
8
BLACK
6
CONTINUOUS
10
0.3511880708661417
20
0.7921305905511811
11
0.3493133070866142
21
0.788381062992126
0
LINE
8
BLACK
6
CONTINUOUS
10
0.3493133070866142
20
0.788381062992126
11
0.3491572440944882
21
0.788133188976378
0
LINE
8
BLACK
6
CONTINUOUS
10
0.3491572440944882
20
0.788133188976378
11
0.3491274409448819
21
0.7880611417322835
0
LINE
8
BLACK
6
CONTINUOUS
10
0.3491274409448819
20
0.7880611417322835
11
0.349060905511811
21
0.7879801181102362
0
LINE
8
BLACK
6
CONTINUOUS
10
0.349060905511811
20
0.7879801181102362
11
0.3490049606299213
21
0.7878911811023622
0
LINE
8
BLACK
6
CONTINUOUS
10
0.3490049606299213
20
0.7878911811023622
11
0.3489459448818897
21
0.7878400393700787
0
LINE
8
BLACK
6
CONTINUOUS
10
0.3489459448818897
20
0.7878400393700787
11
0.3487601968503937
21
0.7876136614173228
0
LINE
8
BLACK
6
CONTINUOUS
10
0.3487601968503937
20
0.7876136614173228
11
0.3468854724409449
21
0.7857388976377953
0
LINE
8
BLACK
6
CONTINUOUS
10
0.3468854724409449
20
0.7857388976377953
11
0.346659094488189
21
0.7855531496062992
0
LINE
8
BLACK
6
CONTINUOUS
10
0.346659094488189
20
0.7855531496062992
11
0.3466079133858267
21
0.785494094488189
0
LINE
8
BLACK
6
CONTINUOUS
10
0.3466079133858267
20
0.785494094488189
11
0.346518937007874
21
0.7854381102362205
0
LINE
8
BLACK
6
CONTINUOUS
10
0.346518937007874
20
0.7854381102362205
11
0.3464379921259843
21
0.7853716535433071
0
LINE
8
BLACK
6
CONTINUOUS
10
0.3464379921259843
20
0.7853716535433071
11
0.3463660236220472
21
0.7853418503937007
0
LINE
8
BLACK
6
CONTINUOUS
10
0.3463660236220472
20
0.7853418503937007
11
0.346118031496063
21
0.7851857480314961
0
LINE
8
BLACK
6
CONTINUOUS
10
0.346118031496063
20
0.7851857480314961
11
0.3423685039370079
21
0.7833109842519684
0
LINE
8
BLACK
6
CONTINUOUS
10
0.3423685039370079
20
0.7833109842519684
11
0.341827874015748
21
0.783104094488189
0
LINE
8
BLACK
6
CONTINUOUS
10
0.341827874015748
20
0.783104094488189
11
0.3417220472440945
21
0.7830966141732283
0
LINE
8
BLACK
6
CONTINUOUS
10
0.3417220472440945
20
0.7830966141732283
11
0.3416240551181102
21
0.7830559842519685
0
LINE
8
BLACK
6
CONTINUOUS
10
0.3416240551181102
20
0.7830559842519685
11
0.3410479921259842
21
0.782999251968504
0
LINE
8
BLACK
6
CONTINUOUS
10
0.3410479921259842
20
0.782999251968504
11
0.3316741732283465
21
0.782999251968504
0
LINE
8
BLACK
6
CONTINUOUS
10
0.3316741732283465
20
0.782999251968504
11
0.3313825590551181
21
0.7830279921259843
0
LINE
8
BLACK
6
CONTINUOUS
10
0.3313825590551181
20
0.7830279921259843
11
0.331304842519685
21
0.7830224409448818
0
LINE
8
BLACK
6
CONTINUOUS
10
0.331304842519685
20
0.7830224409448818
11
0.3312025590551181
21
0.7830457086614173
0
LINE
8
BLACK
6
CONTINUOUS
10
0.3312025590551181
20
0.7830457086614173
11
0.3310981102362205
21
0.7830559842519685
0
LINE
8
BLACK
6
CONTINUOUS
10
0.3310981102362205
20
0.7830559842519685
11
0.3310260236220472
21
0.7830858661417323
0
LINE
8
BLACK
6
CONTINUOUS
10
0.3310260236220472
20
0.7830858661417323
11
0.3307403937007874
21
0.7831507874015747
0
LINE
8
BLACK
6
CONTINUOUS
10
0.3307403937007874
20
0.7831507874015747
11
0.3251161417322835
21
0.7850255511811024
0
LINE
8
BLACK
6
CONTINUOUS
10
0.3251161417322835
20
0.7850255511811024
11
0.3245875590551181
21
0.7852615354330709
0
LINE
8
BLACK
6
CONTINUOUS
10
0.3245875590551181
20
0.7852615354330709
11
0.3237172047244095
21
0.7860164173228347
0
LINE
8
BLACK
6
CONTINUOUS
10
0.3237172047244095
20
0.7860164173228347
11
0.3232020078740158
21
0.7870468503937008
0
LINE
8
BLACK
6
CONTINUOUS
10
0.3232020078740158
20
0.7870468503937008
11
0.3231203149606299
21
0.788196062992126
0
LINE
8
BLACK
6
CONTINUOUS
10
0.3231203149606299
20
0.788196062992126
11
0.3234846456692913
21
0.789289094488189
0
LINE
8
BLACK
6
CONTINUOUS
10
0.3234846456692913
20
0.789289094488189
11
0.3242395275590551
21
0.7901594488188977
0
LINE
8
BLACK
6
CONTINUOUS
10
0.3242395275590551
20
0.7901594488188977
11
0.3252699606299213
21
0.7906746456692914
0
LINE
8
BLACK
6
CONTINUOUS
10
0.3252699606299213
20
0.7906746456692914
11
0.3264191732283465
21
0.7907563385826771
0
LINE
8
BLACK
6
CONTINUOUS
10
0.3264191732283465
20
0.7907563385826771
11
0.3269836220472441
21
0.7906279921259842
0
LINE
8
BLACK
6
CONTINUOUS
10
0.3269836220472441
20
0.7906279921259842
11
0.3321533070866142
21
0.7889047637795276
0
LINE
8
BLACK
6
CONTINUOUS
10
0.3321533070866142
20
0.7889047637795276
11
0.3403509448818898
21
0.7889047637795276
0
LINE
8
BLACK
6
CONTINUOUS
10
0.3403509448818898
20
0.7889047637795276
11
0.3430483858267717
21
0.7902535039370079
0
LINE
8
BLACK
6
CONTINUOUS
10
0.3430483858267717
20
0.7902535039370079
11
0.3442455118110236
21
0.7914506692913386
0
LINE
8
BLACK
6
CONTINUOUS
10
0.3442455118110236
20
0.7914506692913386
11
0.3455942913385827
21
0.7941481496062992
0
LINE
8
BLACK
6
CONTINUOUS
10
0.3455942913385827
20
0.7941481496062992
11
0.3455942913385827
21
0.7965035826771654
0
LINE
8
BLACK
6
CONTINUOUS
10
0.3455942913385827
20
0.7965035826771654
11
0.3442455511811023
21
0.799201062992126
0
LINE
8
BLACK
6
CONTINUOUS
10
0.3442455511811023
20
0.799201062992126
11
0.3430484251968504
21
0.8003981889763779
0
LINE
8
BLACK
6
CONTINUOUS
10
0.3430484251968504
20
0.8003981889763779
11
0.3400174409448819
21
0.8019137007874015
0
LINE
8
BLACK
6
CONTINUOUS
10
0.3400174409448819
20
0.8019137007874015
11
0.3328327952755906
21
0.803709842519685
0
LINE
8
BLACK
6
CONTINUOUS
10
0.3328327952755906
20
0.803709842519685
11
0.3327902755905512
21
0.8037250393700788
0
LINE
8
BLACK
6
CONTINUOUS
10
0.3327902755905512
20
0.8037250393700788
11
0.3327690157480315
21
0.8037265354330708
0
LINE
8
BLACK
6
CONTINUOUS
10
0.3327690157480315
20
0.8037265354330708
11
0.3325292519685039
21
0.8038183070866142
0
LINE
8
BLACK
6
CONTINUOUS
10
0.3325292519685039
20
0.8038183070866142
11
0.3322876771653543
21
0.8039046062992126
0
LINE
8
BLACK
6
CONTINUOUS
10
0.3322876771653543
20
0.8039046062992126
11
0.3322705118110236
21
0.8039173228346457
0
LINE
8
BLACK
6
CONTINUOUS
10
0.3322705118110236
20
0.8039173228346457
11
0.3322284251968504
21
0.8039334251968504
0
LINE
8
BLACK
6
CONTINUOUS
10
0.3322284251968504
20
0.8039334251968504
11
0.3284788976377953
21
0.805808188976378
0
LINE
8
BLACK
6
CONTINUOUS
10
0.3284788976377953
20
0.805808188976378
11
0.3282308661417323
21
0.8059642913385826
0
LINE
8
BLACK
6
CONTINUOUS
10
0.3282308661417323
20
0.8059642913385826
11
0.328158937007874
21
0.8059940944881889
0
LINE
8
BLACK
6
CONTINUOUS
10
0.328158937007874
20
0.8059940944881889
11
0.3280779527559055
21
0.8060605905511811
0
LINE
8
BLACK
6
CONTINUOUS
10
0.3280779527559055
20
0.8060605905511811
11
0.3279890157480315
21
0.8061165354330708
0
LINE
8
BLACK
6
CONTINUOUS
10
0.3279890157480315
20
0.8061165354330708
11
0.3279378346456693
21
0.8061755511811023
0
LINE
8
BLACK
6
CONTINUOUS
10
0.3279378346456693
20
0.8061755511811023
11
0.3277114960629921
21
0.8063612992125984
0
LINE
8
BLACK
6
CONTINUOUS
10
0.3277114960629921
20
0.8063612992125984
11
0.3258367322834645
21
0.8082360629921259
0
LINE
8
BLACK
6
CONTINUOUS
10
0.3258367322834645
20
0.8082360629921259
11
0.3256509448818898
21
0.8084624409448818
0
LINE
8
BLACK
6
CONTINUOUS
10
0.3256509448818898
20
0.8084624409448818
11
0.325591968503937
21
0.8085135826771653
0
LINE
8
BLACK
6
CONTINUOUS
10
0.325591968503937
20
0.8085135826771653
11
0.3255359842519685
21
0.8086025590551181
0
LINE
8
BLACK
6
CONTINUOUS
10
0.3255359842519685
20
0.8086025590551181
11
0.3254695275590551
21
0.8086835039370078
0
LINE
8
BLACK
6
CONTINUOUS
10
0.3254695275590551
20
0.8086835039370078
11
0.3254396850393701
21
0.8087554724409448
0
LINE
8
BLACK
6
CONTINUOUS
10
0.3254396850393701
20
0.8087554724409448
11
0.3252836220472441
21
0.8090034645669291
0
LINE
8
BLACK
6
CONTINUOUS
10
0.3252836220472441
20
0.8090034645669291
11
0.3234088582677165
21
0.8127529921259843
0
LINE
8
BLACK
6
CONTINUOUS
10
0.3234088582677165
20
0.8127529921259843
11
0.323201968503937
21
0.8132936220472441
0
LINE
8
BLACK
6
CONTINUOUS
10
0.323201968503937
20
0.8132936220472441
11
0.3231944488188976
21
0.8133994488188976
0
LINE
8
BLACK
6
CONTINUOUS
10
0.3231944488188976
20
0.8133994488188976
11
0.3231538582677165
21
0.8134974409448819
0
LINE
8
BLACK
6
CONTINUOUS
10
0.3231538582677165
20
0.8134974409448819
11
0.3230971259842519
21
0.8140735039370078
0
LINE
8
BLACK
6
CONTINUOUS
10
0.3230971259842519
20
0.8140735039370078
11
0.3230971259842519
21
0.8178230314960629
0
LINE
8
BLACK
6
CONTINUOUS
10
0.3230971259842519
20
0.8178230314960629
11
0.3231538582677165
21
0.8183990944881889
0
LINE
8
BLACK
6
CONTINUOUS
10
0.3231538582677165
20
0.8183990944881889
11
0.3231944488188976
21
0.8184971259842519
0
LINE
8
BLACK
6
CONTINUOUS
10
0.3231944488188976
20
0.8184971259842519
11
0.323201968503937
21
0.8186029133858268
0
LINE
8
BLACK
6
CONTINUOUS
10
0.323201968503937
20
0.8186029133858268
11
0.3234088582677165
21
0.8191435433070866
0
LINE
8
BLACK
6
CONTINUOUS
10
0.3234088582677165
20
0.8191435433070866
11
0.3252836220472441
21
0.8228930708661417
0
LINE
8
BLACK
6
CONTINUOUS
10
0.3252836220472441
20
0.8228930708661417
11
0.3254396850393701
21
0.8231411023622047
0
LINE
8
BLACK
6
CONTINUOUS
10
0.3254396850393701
20
0.8231411023622047
11
0.3254695275590551
21
0.823213031496063
0
LINE
8
BLACK
6
CONTINUOUS
10
0.3254695275590551
20
0.823213031496063
11
0.3255359842519685
21
0.8232940157480315
0
LINE
8
BLACK
6
CONTINUOUS
10
0.3255359842519685
20
0.8232940157480315
11
0.325591968503937
21
0.8233829527559055
0
LINE
8
BLACK
6
CONTINUOUS
10
0.325591968503937
20
0.8233829527559055
11
0.3256509448818898
21
0.8234341338582677
0
LINE
8
BLACK
6
CONTINUOUS
10
0.3256509448818898
20
0.8234341338582677
11
0.3258367322834645
21
0.8236604724409449
0
LINE
8
BLACK
6
CONTINUOUS
10
0.3258367322834645
20
0.8236604724409449
11
0.3277114960629921
21
0.8255352362204724
0
LINE
8
BLACK
6
CONTINUOUS
10
0.3277114960629921
20
0.8255352362204724
11
0.3279378346456693
21
0.8257210236220472
0
LINE
8
BLACK
6
CONTINUOUS
10
0.3279378346456693
20
0.8257210236220472
11
0.3279890157480315
21
0.82578
0
LINE
8
BLACK
6
CONTINUOUS
10
0.3279890157480315
20
0.82578
11
0.3280779527559055
21
0.8258359842519685
0
LINE
8
BLACK
6
CONTINUOUS
10
0.3280779527559055
20
0.8258359842519685
11
0.328158937007874
21
0.8259024409448819
0
LINE
8
BLACK
6
CONTINUOUS
10
0.328158937007874
20
0.8259024409448819
11
0.3282308661417323
21
0.8259322834645669
0
LINE
8
BLACK
6
CONTINUOUS
10
0.3282308661417323
20
0.8259322834645669
11
0.3284788976377953
21
0.8260883464566929
0
LINE
8
BLACK
6
CONTINUOUS
10
0.3284788976377953
20
0.8260883464566929
11
0.3322284251968504
21
0.8279631102362205
0
LINE
8
BLACK
6
CONTINUOUS
10
0.3322284251968504
20
0.8279631102362205
11
0.3327690157480315
21
0.82817
0
LINE
8
BLACK
6
CONTINUOUS
10
0.3327690157480315
20
0.82817
11
0.3328748818897638
21
0.8281775590551181
0
LINE
8
BLACK
6
CONTINUOUS
10
0.3328748818897638
20
0.8281775590551181
11
0.332972874015748
21
0.8282181102362205
0
LINE
8
BLACK
6
CONTINUOUS
10
0.332972874015748
20
0.8282181102362205
11
0.333548937007874
21
0.828274842519685
0
LINE
8
BLACK
6
CONTINUOUS
10
0.333548937007874
20
0.828274842519685
11
0.3429227559055118
21
0.828274842519685
0
LINE
8
BLACK
6
CONTINUOUS
10
0.3429227559055118
20
0.828274842519685
11
0.3432142913385827
21
0.8282461417322834
0
LINE
8
BLACK
6
CONTINUOUS
10
0.420071811023622
20
0.8282181102362205
11
0.4203642125984252
21
0.8282181102362205
0
LINE
8
BLACK
6
CONTINUOUS
10
0.4203642125984252
20
0.8282181102362205
11
0.4206314566929134
21
0.8281074015748031
0
LINE
8
BLACK
6
CONTINUOUS
10
0.4206314566929134
20
0.8281074015748031
11
0.4209152755905512
21
0.8280512598425197
0
LINE
8
BLACK
6
CONTINUOUS
10
0.4209152755905512
20
0.8280512598425197
11
0.4211585433070866
21
0.8278890944881889
0
LINE
8
BLACK
6
CONTINUOUS
10
0.4211585433070866
20
0.8278890944881889
11
0.4214286220472441
21
0.8277772047244094
0
LINE
8
BLACK
6
CONTINUOUS
10
0.4214286220472441
20
0.8277772047244094
11
0.4216330708661417
21
0.8275727559055118
0
LINE
8
BLACK
6
CONTINUOUS
10
0.4216330708661417
20
0.8275727559055118
11
0.4218738976377953
21
0.8274122047244095
0
LINE
8
BLACK
6
CONTINUOUS
10
0.4218738976377953
20
0.8274122047244095
11
0.4220366141732284
21
0.8271692125984251
0
LINE
8
BLACK
6
CONTINUOUS
10
0.4220366141732284
20
0.8271692125984251
11
0.4222432677165354
21
0.8269625590551181
0
LINE
8
BLACK
6
CONTINUOUS
10
0.4222432677165354
20
0.8269625590551181
11
0.422353937007874
21
0.8266953543307086
0
LINE
8
BLACK
6
CONTINUOUS
10
0.422353937007874
20
0.8266953543307086
11
0.4225149606299213
21
0.8264549212598425
0
LINE
8
BLACK
6
CONTINUOUS
10
0.4225149606299213
20
0.8264549212598425
11
0.4225722834645669
21
0.8261682677165354
0
LINE
8
BLACK
6
CONTINUOUS
10
0.4225722834645669
20
0.8261682677165354
11
0.4226841732283464
21
0.8258981496062991
0
LINE
8
BLACK
6
CONTINUOUS
10
0.4226841732283464
20
0.8258981496062991
11
0.4227402755905512
21
0.8253282283464567
0
LINE
8
BLACK
6
CONTINUOUS
10
0.4227402755905512
20
0.8253282283464567
11
0.422740905511811
21
0.8253251968503936
0
LINE
8
BLACK
6
CONTINUOUS
10
0.422740905511811
20
0.8253251968503936
11
0.4227406692913386
21
0.8253241732283464
0
LINE
8
BLACK
6
CONTINUOUS
10
0.4227406692913386
20
0.8253241732283464
11
0.422740905511811
21
0.8253220866141732
0
LINE
8
BLACK
6
CONTINUOUS
10
0.422740905511811
20
0.8253220866141732
11
0.422740905511811
21
0.7889047637795276
0
LINE
8
BLACK
6
CONTINUOUS
10
0.422740905511811
20
0.7889047637795276
11
0.4310367322834646
21
0.7889047637795276
0
LINE
8
BLACK
6
CONTINUOUS
10
0.4310367322834646
20
0.7889047637795276
11
0.4316127952755905
21
0.788848031496063
0
LINE
8
BLACK
6
CONTINUOUS
10
0.4316127952755905
20
0.788848031496063
11
0.4326772047244095
21
0.788407125984252
0
LINE
8
BLACK
6
CONTINUOUS
10
0.4326772047244095
20
0.788407125984252
11
0.4334918503937008
21
0.7875924803149607
0
LINE
8
BLACK
6
CONTINUOUS
10
0.4334918503937008
20
0.7875924803149607
11
0.4339327559055118
21
0.7865280708661417
0
LINE
8
BLACK
6
CONTINUOUS
10
0.4339327559055118
20
0.7865280708661417
11
0.4339327559055118
21
0.7853759448818898
0
LINE
8
BLACK
6
CONTINUOUS
10
0.4339327559055118
20
0.7853759448818898
11
0.4334918503937008
21
0.7843115354330709
0
LINE
8
BLACK
6
CONTINUOUS
10
0.4334918503937008
20
0.7843115354330709
11
0.4326772047244095
21
0.7834968897637795
0
LINE
8
BLACK
6
CONTINUOUS
10
0.4326772047244095
20
0.7834968897637795
11
0.4316127952755905
21
0.7830559842519685
0
LINE
8
BLACK
6
CONTINUOUS
10
0.4316127952755905
20
0.7830559842519685
11
0.4310367322834646
21
0.782999251968504
0
LINE
8
BLACK
6
CONTINUOUS
10
0.4310367322834646
20
0.782999251968504
11
0.4085395669291338
21
0.782999251968504
0
LINE
8
BLACK
6
CONTINUOUS
10
0.4085395669291338
20
0.782999251968504
11
0.4079635039370079
21
0.7830559842519685
0
LINE
8
BLACK
6
CONTINUOUS
10
0.4079635039370079
20
0.7830559842519685
11
0.406899094488189
21
0.7834968897637795
0
LINE
8
BLACK
6
CONTINUOUS
10
0.406899094488189
20
0.7834968897637795
11
0.4060844488188976
21
0.7843115354330709
0
LINE
8
BLACK
6
CONTINUOUS
10
0.4060844488188976
20
0.7843115354330709
11
0.4056435433070866
21
0.7853759448818898
0
LINE
8
BLACK
6
CONTINUOUS
10
0.4056435433070866
20
0.7853759448818898
11
0.4056435433070866
21
0.7865280708661417
0
LINE
8
BLACK
6
CONTINUOUS
10
0.4056435433070866
20
0.7865280708661417
11
0.4060844488188976
21
0.7875924803149607
0
LINE
8
BLACK
6
CONTINUOUS
10
0.4060844488188976
20
0.7875924803149607
11
0.406899094488189
21
0.788407125984252
0
LINE
8
BLACK
6
CONTINUOUS
10
0.406899094488189
20
0.788407125984252
11
0.4079635039370079
21
0.788848031496063
0
LINE
8
BLACK
6
CONTINUOUS
10
0.4079635039370079
20
0.788848031496063
11
0.4085395669291338
21
0.7889047637795276
0
LINE
8
BLACK
6
CONTINUOUS
10
0.4085395669291338
20
0.7889047637795276
11
0.4168353937007874
21
0.7889047637795276
0
LINE
8
BLACK
6
CONTINUOUS
10
0.4168353937007874
20
0.7889047637795276
11
0.4168353937007874
21
0.8163187401574803
0
LINE
8
BLACK
6
CONTINUOUS
10
0.4168353937007874
20
0.8163187401574803
11
0.4143770078740157
21
0.8138603543307087
0
LINE
8
BLACK
6
CONTINUOUS
10
0.4143770078740157
20
0.8138603543307087
11
0.4141506299212598
21
0.8136746062992126
0
LINE
8
BLACK
6
CONTINUOUS
10
0.4141506299212598
20
0.8136746062992126
11
0.4140994881889764
21
0.813615590551181
0
LINE
8
BLACK
6
CONTINUOUS
10
0.4140994881889764
20
0.813615590551181
11
0.4140105118110236
21
0.8135596456692913
0
LINE
8
BLACK
6
CONTINUOUS
10
0.4140105118110236
20
0.8135596456692913
11
0.4139295669291339
21
0.8134931496062991
0
LINE
8
BLACK
6
CONTINUOUS
10
0.4139295669291339
20
0.8134931496062991
11
0.4138575984251968
21
0.8134633464566929
0
LINE
8
BLACK
6
CONTINUOUS
10
0.4138575984251968
20
0.8134633464566929
11
0.4136096062992126
21
0.8133072440944882
0
LINE
8
BLACK
6
CONTINUOUS
10
0.4136096062992126
20
0.8133072440944882
11
0.4098600787401575
21
0.8114324803149606
0
LINE
8
BLACK
6
CONTINUOUS
10
0.4098600787401575
20
0.8114324803149606
11
0.4093194488188976
21
0.811225590551181
0
LINE
8
BLACK
6
CONTINUOUS
10
0.4093194488188976
20
0.811225590551181
11
0.4081702362204724
21
0.811143937007874
0
LINE
8
BLACK
6
CONTINUOUS
10
0.4081702362204724
20
0.811143937007874
11
0.4070772834645669
21
0.8115082677165354
0
LINE
8
BLACK
6
CONTINUOUS
10
0.4070772834645669
20
0.8115082677165354
11
0.4062068897637795
21
0.8122631102362204
0
LINE
8
BLACK
6
CONTINUOUS
10
0.4062068897637795
20
0.8122631102362204
11
0.4056916535433071
21
0.8132936220472441
0
LINE
8
BLACK
6
CONTINUOUS
10
0.4056916535433071
20
0.8132936220472441
11
0.40561
21
0.8144428346456692
0
LINE
8
BLACK
6
CONTINUOUS
10
0.40561
20
0.8144428346456692
11
0.4059743307086614
21
0.8155357874015747
0
LINE
8
BLACK
6
CONTINUOUS
10
0.4059743307086614
20
0.8155357874015747
11
0.4067291732283465
21
0.8164061811023622
0
LINE
8
BLACK
6
CONTINUOUS
10
0.4067291732283465
20
0.8164061811023622
11
0.4072190551181102
21
0.816714527559055
0
LINE
8
BLACK
6
CONTINUOUS
10
0.4072190551181102
20
0.816714527559055
11
0.41054
21
0.818375
0
LINE
8
BLACK
6
CONTINUOUS
10
0.41054
20
0.818375
11
0.4137438976377953
21
0.8215788976377952
0
LINE
8
BLACK
6
CONTINUOUS
10
0.4137438976377953
20
0.8215788976377952
11
0.4173312992125984
21
0.82696
0
LINE
8
BLACK
6
CONTINUOUS
10
0.4173312992125984
20
0.82696
11
0.4173326377952756
21
0.8269616929133858
0
LINE
8
BLACK
6
CONTINUOUS
10
0.4173326377952756
20
0.8269616929133858
11
0.417333031496063
21
0.8269625590551181
0
LINE
8
BLACK
6
CONTINUOUS
10
0.417333031496063
20
0.8269625590551181
11
0.4173350393700787
21
0.8269646062992125
0
LINE
8
BLACK
6
CONTINUOUS
10
0.4173350393700787
20
0.8269646062992125
11
0.4176980708661417
21
0.8274078346456692
0
LINE
8
BLACK
6
CONTINUOUS
10
0.4176980708661417
20
0.8274078346456692
11
0.4179409448818898
21
0.8275705118110236
0
LINE
8
BLACK
6
CONTINUOUS
10
0.4179409448818898
20
0.8275705118110236
11
0.4181476771653543
21
0.8277772047244094
0
LINE
8
BLACK
6
CONTINUOUS
10
0.4181476771653543
20
0.8277772047244094
11
0.4184149606299212
21
0.8278879527559055
0
LINE
8
BLACK
6
CONTINUOUS
10
0.4184149606299212
20
0.8278879527559055
11
0.4186553543307087
21
0.8280488976377952
0
LINE
8
BLACK
6
CONTINUOUS
10
0.4186553543307087
20
0.8280488976377952
11
0.418941968503937
21
0.8281062598425196
0
LINE
8
BLACK
6
CONTINUOUS
10
0.418941968503937
20
0.8281062598425196
11
0.4192120866141732
21
0.8282181102362205
0
LINE
8
BLACK
6
CONTINUOUS
10
0.4192120866141732
20
0.8282181102362205
11
0.4195013779527559
21
0.8282181102362205
0
LINE
8
BLACK
6
CONTINUOUS
10
0.4195013779527559
20
0.8282181102362205
11
0.4197850393700787
21
0.828274842519685
0
LINE
8
BLACK
6
CONTINUOUS
10
0.4197850393700787
20
0.828274842519685
11
0.420071811023622
21
0.8282181102362205
0
LINE
8
BLACK
6
CONTINUOUS
10
0.3966474015748032
20
0.828005905511811
11
0.3975807480314961
21
0.8273304724409448
0
LINE
8
BLACK
6
CONTINUOUS
10
0.3975807480314961
20
0.8273304724409448
11
0.3981845275590551
21
0.8263492913385827
0
LINE
8
BLACK
6
CONTINUOUS
10
0.3981845275590551
20
0.8263492913385827
11
0.3983669291338582
21
0.8252116929133858
0
LINE
8
BLACK
6
CONTINUOUS
10
0.3983669291338582
20
0.8252116929133858
11
0.3982886614173228
21
0.8246381496062992
0
LINE
8
BLACK
6
CONTINUOUS
10
0.3982886614173228
20
0.8246381496062992
11
0.3889148031496063
21
0.7852680708661417
0
LINE
8
BLACK
6
CONTINUOUS
10
0.3889148031496063
20
0.7852680708661417
11
0.3888466929133858
21
0.7850705118110236
0
LINE
8
BLACK
6
CONTINUOUS
10
0.3888466929133858
20
0.7850705118110236
11
0.3888372834645669
21
0.7849994881889764
0
LINE
8
BLACK
6
CONTINUOUS
10
0.3888372834645669
20
0.7849994881889764
11
0.3888001181102362
21
0.7849353543307086
0
LINE
8
BLACK
6
CONTINUOUS
10
0.3888001181102362
20
0.7849353543307086
11
0.3887262204724409
21
0.7847208267716536
0
LINE
8
BLACK
6
CONTINUOUS
10
0.3887262204724409
20
0.7847208267716536
11
0.3884748031496063
21
0.7843734645669291
0
LINE
8
BLACK
6
CONTINUOUS
10
0.3884748031496063
20
0.7843734645669291
11
0.3882600393700787
21
0.7840024803149606
0
LINE
8
BLACK
6
CONTINUOUS
10
0.3882600393700787
20
0.7840024803149606
11
0.3881396456692913
21
0.7839103543307087
0
LINE
8
BLACK
6
CONTINUOUS
10
0.3881396456692913
20
0.7839103543307087
11
0.388050748031496
21
0.7837874803149606
0
LINE
8
BLACK
6
CONTINUOUS
10
0.388050748031496
20
0.7837874803149606
11
0.3876857086614173
21
0.783562874015748
0
LINE
8
BLACK
6
CONTINUOUS
10
0.3876857086614173
20
0.783562874015748
11
0.3873451574803149
21
0.7833021653543307
0
LINE
8
BLACK
6
CONTINUOUS
10
0.3873451574803149
20
0.7833021653543307
11
0.3871985433070866
21
0.7832630708661417
0
LINE
8
BLACK
6
CONTINUOUS
10
0.3871985433070866
20
0.7832630708661417
11
0.3870695669291339
21
0.7831837007874015
0
LINE
8
BLACK
6
CONTINUOUS
10
0.3870695669291339
20
0.7831837007874015
11
0.3866465748031496
21
0.783115905511811
0
LINE
8
BLACK
6
CONTINUOUS
10
0.3866465748031496
20
0.783115905511811
11
0.386231968503937
21
0.7830053149606299
0
LINE
8
BLACK
6
CONTINUOUS
10
0.386231968503937
20
0.7830053149606299
11
0.3860816141732283
21
0.7830253149606299
0
LINE
8
BLACK
6
CONTINUOUS
10
0.3860816141732283
20
0.7830253149606299
11
0.385931968503937
21
0.7830012992125984
0
LINE
8
BLACK
6
CONTINUOUS
10
0.385931968503937
20
0.7830012992125984
11
0.3855148031496063
21
0.7831006299212598
0
LINE
8
BLACK
6
CONTINUOUS
10
0.3855148031496063
20
0.7831006299212598
11
0.3850898818897638
21
0.7831570866141732
0
LINE
8
BLACK
6
CONTINUOUS
10
0.3850898818897638
20
0.7831570866141732
11
0.3849587007874016
21
0.7832330314960629
0
LINE
8
BLACK
6
CONTINUOUS
10
0.3849587007874016
20
0.7832330314960629
11
0.3848111811023622
21
0.7832681496062992
0
LINE
8
BLACK
6
CONTINUOUS
10
0.3848111811023622
20
0.7832681496062992
11
0.3844637401574803
21
0.7835196062992126
0
LINE
8
BLACK
6
CONTINUOUS
10
0.3844637401574803
20
0.7835196062992126
11
0.3840928346456693
21
0.7837343307086614
0
LINE
8
BLACK
6
CONTINUOUS
10
0.3840928346456693
20
0.7837343307086614
11
0.3840006692913386
21
0.7838547244094488
0
LINE
8
BLACK
6
CONTINUOUS
10
0.3840006692913386
20
0.7838547244094488
11
0.3838778346456693
21
0.7839436220472441
0
LINE
8
BLACK
6
CONTINUOUS
10
0.3838778346456693
20
0.7839436220472441
11
0.383653188976378
21
0.7843087007874016
0
LINE
8
BLACK
6
CONTINUOUS
10
0.383653188976378
20
0.7843087007874016
11
0.3833925590551181
21
0.7846491732283465
0
LINE
8
BLACK
6
CONTINUOUS
10
0.3833925590551181
20
0.7846491732283465
11
0.3833127952755905
21
0.7848618503937008
0
LINE
8
BLACK
6
CONTINUOUS
10
0.3833127952755905
20
0.7848618503937008
11
0.3832740551181102
21
0.7849248031496063
0
LINE
8
BLACK
6
CONTINUOUS
10
0.3832740551181102
20
0.7849248031496063
11
0.383262716535433
21
0.7849953149606299
0
LINE
8
BLACK
6
CONTINUOUS
10
0.383262716535433
20
0.7849953149606299
11
0.3831892913385826
21
0.7851911811023622
0
LINE
8
BLACK
6
CONTINUOUS
10
0.3831892913385826
20
0.7851911811023622
11
0.3785432677165354
21
0.8026136614173228
0
LINE
8
BLACK
6
CONTINUOUS
10
0.3785432677165354
20
0.8026136614173228
11
0.3738973228346457
21
0.7851911811023622
0
LINE
8
BLACK
6
CONTINUOUS
10
0.3738973228346457
20
0.7851911811023622
11
0.3738238582677165
21
0.7849953543307087
0
LINE
8
BLACK
6
CONTINUOUS
10
0.3738238582677165
20
0.7849953543307087
11
0.3738125590551181
21
0.7849248031496063
0
LINE
8
BLACK
6
CONTINUOUS
10
0.3738125590551181
20
0.7849248031496063
11
0.373773779527559
21
0.7848618110236221
0
LINE
8
BLACK
6
CONTINUOUS
10
0.373773779527559
20
0.7848618110236221
11
0.3736940551181102
21
0.7846492125984251
0
LINE
8
BLACK
6
CONTINUOUS
10
0.3736940551181102
20
0.7846492125984251
11
0.3734334645669291
21
0.7843088188976378
0
LINE
8
BLACK
6
CONTINUOUS
10
0.3734334645669291
20
0.7843088188976378
11
0.373208779527559
21
0.7839436220472441
0
LINE
8
BLACK
6
CONTINUOUS
10
0.373208779527559
20
0.7839436220472441
11
0.373085905511811
21
0.7838547244094488
0
LINE
8
BLACK
6
CONTINUOUS
10
0.373085905511811
20
0.7838547244094488
11
0.372993779527559
21
0.7837343307086614
0
LINE
8
BLACK
6
CONTINUOUS
10
0.372993779527559
20
0.7837343307086614
11
0.3726228346456693
21
0.7835196062992126
0
LINE
8
BLACK
6
CONTINUOUS
10
0.3726228346456693
20
0.7835196062992126
11
0.3722754330708661
21
0.7832681496062992
0
LINE
8
BLACK
6
CONTINUOUS
10
0.3722754330708661
20
0.7832681496062992
11
0.372127874015748
21
0.7832330314960629
0
LINE
8
BLACK
6
CONTINUOUS
10
0.372127874015748
20
0.7832330314960629
11
0.3719967322834646
21
0.7831570866141732
0
LINE
8
BLACK
6
CONTINUOUS
10
0.3719967322834646
20
0.7831570866141732
11
0.3715718897637795
21
0.7831006692913386
0
LINE
8
BLACK
6
CONTINUOUS
10
0.3715718897637795
20
0.7831006692913386
11
0.3711546456692913
21
0.7830012992125984
0
LINE
8
BLACK
6
CONTINUOUS
10
0.3711546456692913
20
0.7830012992125984
11
0.3710048818897638
21
0.7830253149606299
0
LINE
8
BLACK
6
CONTINUOUS
10
0.3710048818897638
20
0.7830253149606299
11
0.3708546850393701
21
0.7830053543307086
0
LINE
8
BLACK
6
CONTINUOUS
10
0.3708546850393701
20
0.7830053543307086
11
0.3704404330708662
21
0.7831158267716535
0
LINE
8
BLACK
6
CONTINUOUS
10
0.3704404330708662
20
0.7831158267716535
11
0.3700170472440945
21
0.7831837007874015
0
LINE
8
BLACK
6
CONTINUOUS
10
0.3700170472440945
20
0.7831837007874015
11
0.3698879133858268
21
0.7832631496062992
0
LINE
8
BLACK
6
CONTINUOUS
10
0.3698879133858268
20
0.7832631496062992
11
0.3697414566929134
21
0.7833022047244095
0
LINE
8
BLACK
6
CONTINUOUS
10
0.3697414566929134
20
0.7833022047244095
11
0.3694010236220472
21
0.7835627952755906
0
LINE
8
BLACK
6
CONTINUOUS
10
0.3694010236220472
20
0.7835627952755906
11
0.3690358661417323
21
0.7837874803149606
0
LINE
8
BLACK
6
CONTINUOUS
10
0.3690358661417323
20
0.7837874803149606
11
0.3689469291338582
21
0.7839103543307087
0
LINE
8
BLACK
6
CONTINUOUS
10
0.3689469291338582
20
0.7839103543307087
11
0.3688265748031496
21
0.7840024803149606
0
LINE
8
BLACK
6
CONTINUOUS
10
0.3688265748031496
20
0.7840024803149606
11
0.3686118110236221
21
0.7843734251968504
0
LINE
8
BLACK
6
CONTINUOUS
10
0.3686118110236221
20
0.7843734251968504
11
0.3683603937007874
21
0.7847208267716536
0
LINE
8
BLACK
6
CONTINUOUS
10
0.3683603937007874
20
0.7847208267716536
11
0.3682864173228346
21
0.7849354330708661
0
LINE
8
BLACK
6
CONTINUOUS
10
0.3682864173228346
20
0.7849354330708661
11
0.3682493307086614
21
0.7849995275590551
0
LINE
8
BLACK
6
CONTINUOUS
10
0.3682493307086614
20
0.7849995275590551
11
0.3682398818897638
21
0.7850704724409449
0
LINE
8
BLACK
6
CONTINUOUS
10
0.3682398818897638
20
0.7850704724409449
11
0.3681718110236221
21
0.7852680708661417
0
LINE
8
BLACK
6
CONTINUOUS
10
0.3681718110236221
20
0.7852680708661417
11
0.3587979921259842
21
0.8246381496062992
0
LINE
8
BLACK
6
CONTINUOUS
10
0.3587979921259842
20
0.8246381496062992
11
0.3587197244094488
21
0.8252116929133858
0
LINE
8
BLACK
6
CONTINUOUS
10
0.3587197244094488
20
0.8252116929133858
11
0.358902125984252
21
0.8263492913385827
0
LINE
8
BLACK
6
CONTINUOUS
10
0.358902125984252
20
0.8263492913385827
11
0.359505905511811
21
0.8273304724409448
0
LINE
8
BLACK
6
CONTINUOUS
10
0.359505905511811
20
0.8273304724409448
11
0.3604392519685039
21
0.8280059448818897
0
LINE
8
BLACK
6
CONTINUOUS
10
0.3604392519685039
20
0.8280059448818897
11
0.3615600393700787
21
0.8282727952755905
0
LINE
8
BLACK
6
CONTINUOUS
10
0.3615600393700787
20
0.8282727952755905
11
0.3626976377952756
21
0.8280903937007874
0
LINE
8
BLACK
6
CONTINUOUS
10
0.3626976377952756
20
0.8280903937007874
11
0.3636788188976378
21
0.8274866141732283
0
LINE
8
BLACK
6
CONTINUOUS
10
0.3636788188976378
20
0.8274866141732283
11
0.3643542913385827
21
0.8265532677165354
0
LINE
8
BLACK
6
CONTINUOUS
10
0.3643542913385827
20
0.8265532677165354
11
0.364542874015748
21
0.8260060236220472
0
LINE
8
BLACK
6
CONTINUOUS
10
0.364542874015748
20
0.8260060236220472
11
0.3712062992125984
21
0.7980195669291339
0
LINE
8
BLACK
6
CONTINUOUS
10
0.3712062992125984
20
0.7980195669291339
11
0.3756902362204724
21
0.8148343307086614
0
LINE
8
BLACK
6
CONTINUOUS
10
0.3756902362204724
20
0.8148343307086614
11
0.3757408267716535
21
0.8149693307086614
0
LINE
8
BLACK
6
CONTINUOUS
10
0.3757408267716535
20
0.8149693307086614
11
0.3757483858267717
21
0.8150259842519685
0
LINE
8
BLACK
6
CONTINUOUS
10
0.3757483858267717
20
0.8150259842519685
11
0.3757873228346457
21
0.8150933070866142
0
LINE
8
BLACK
6
CONTINUOUS
10
0.3757873228346457
20
0.8150933070866142
11
0.3758935039370079
21
0.8153763385826771
0
LINE
8
BLACK
6
CONTINUOUS
10
0.3758935039370079
20
0.8153763385826771
11
0.3761303937007874
21
0.8156858267716536
0
LINE
8
BLACK
6
CONTINUOUS
10
0.3761303937007874
20
0.8156858267716536
11
0.3763256299212598
21
0.8160230314960629
0
LINE
8
BLACK
6
CONTINUOUS
10
0.3763256299212598
20
0.8160230314960629
11
0.3764774803149606
21
0.8161392913385827
0
LINE
8
BLACK
6
CONTINUOUS
10
0.3764774803149606
20
0.8161392913385827
11
0.3765937795275591
21
0.8162911811023622
0
LINE
8
BLACK
6
CONTINUOUS
10
0.3765937795275591
20
0.8162911811023622
11
0.376931062992126
21
0.8164864960629921
0
LINE
8
BLACK
6
CONTINUOUS
10
0.376931062992126
20
0.8164864960629921
11
0.3772405118110236
21
0.8167233070866141
0
LINE
8
BLACK
6
CONTINUOUS
10
0.3772405118110236
20
0.8167233070866141
11
0.3774252362204724
21
0.8167725984251968
0
LINE
8
BLACK
6
CONTINUOUS
10
0.3774252362204724
20
0.8167725984251968
11
0.3775908267716535
21
0.8168684251968503
0
LINE
8
BLACK
6
CONTINUOUS
10
0.3775908267716535
20
0.8168684251968503
11
0.3779773228346456
21
0.8169198031496063
0
LINE
8
BLACK
6
CONTINUOUS
10
0.3779773228346456
20
0.8169198031496063
11
0.3783537401574803
21
0.817020157480315
0
LINE
8
BLACK
6
CONTINUOUS
10
0.3783537401574803
20
0.817020157480315
11
0.378543188976378
21
0.816995
0
LINE
8
BLACK
6
CONTINUOUS
10
0.378543188976378
20
0.816995
11
0.3787329133858268
21
0.8170201968503937
0
LINE
8
BLACK
6
CONTINUOUS
10
0.3787329133858268
20
0.8170201968503937
11
0.3791096850393701
21
0.8169197244094488
0
LINE
8
BLACK
6
CONTINUOUS
10
0.3791096850393701
20
0.8169197244094488
11
0.3794957874015748
21
0.8168684251968503
0
LINE
8
BLACK
6
CONTINUOUS
10
0.3794957874015748
20
0.8168684251968503
11
0.3796611811023622
21
0.8167726771653543
0
LINE
8
BLACK
6
CONTINUOUS
10
0.3796611811023622
20
0.8167726771653543
11
0.3798461023622047
21
0.8167233464566929
0
LINE
8
BLACK
6
CONTINUOUS
10
0.3798461023622047
20
0.8167233464566929
11
0.3801556299212598
21
0.8164864173228347
0
LINE
8
BLACK
6
CONTINUOUS
10
0.3801556299212598
20
0.8164864173228347
11
0.3804928346456693
21
0.8162911811023622
0
LINE
8
BLACK
6
CONTINUOUS
10
0.3804928346456693
20
0.8162911811023622
11
0.3806090551181102
21
0.8161393307086614
0
LINE
8
BLACK
6
CONTINUOUS
10
0.3806090551181102
20
0.8161393307086614
11
0.3807609842519685
21
0.8160230314960629
0
LINE
8
BLACK
6
CONTINUOUS
10
0.3807609842519685
20
0.8160230314960629
11
0.3809562992125984
21
0.8156857086614173
0
LINE
8
BLACK
6
CONTINUOUS
10
0.3809562992125984
20
0.8156857086614173
11
0.3811931102362205
21
0.8153762992125984
0
LINE
8
BLACK
6
CONTINUOUS
10
0.3811931102362205
20
0.8153762992125984
11
0.3812991732283464
21
0.8150934645669291
0
LINE
8
BLACK
6
CONTINUOUS
10
0.3812991732283464
20
0.8150934645669291
11
0.3813382283464567
21
0.8150260236220472
0
LINE
8
BLACK
6
CONTINUOUS
10
0.3813382283464567
20
0.8150260236220472
11
0.3813457480314961
21
0.8149692913385826
0
LINE
8
BLACK
6
CONTINUOUS
10
0.3813457480314961
20
0.8149692913385826
11
0.3813963779527559
21
0.8148343307086614
0
LINE
8
BLACK
6
CONTINUOUS
10
0.3813963779527559
20
0.8148343307086614
11
0.3858802755905512
21
0.7980195669291339
0
LINE
8
BLACK
6
CONTINUOUS
10
0.3858802755905512
20
0.7980195669291339
11
0.392543779527559
21
0.8260059842519685
0
LINE
8
BLACK
6
CONTINUOUS
10
0.392543779527559
20
0.8260059842519685
11
0.3927323622047244
21
0.8265532677165354
0
LINE
8
BLACK
6
CONTINUOUS
10
0.3927323622047244
20
0.8265532677165354
11
0.3934078346456693
21
0.8274866141732283
0
LINE
8
BLACK
6
CONTINUOUS
10
0.3934078346456693
20
0.8274866141732283
11
0.3943890157480315
21
0.8280903937007874
0
LINE
8
BLACK
6
CONTINUOUS
10
0.3943890157480315
20
0.8280903937007874
11
0.3955266141732283
21
0.8282727952755905
0
LINE
8
BLACK
6
CONTINUOUS
10
0.3955266141732283
20
0.8282727952755905
11
0.3966474015748032
21
0.828005905511811
0
CIRCLE
8
BLACK
10
0.305511811023622
20
0.4
40
0.0068897637795276
0
CIRCLE
8
BLACK
10
0.3331867716535433
20
0.4668132283464567
40
0.0068897637795276
0
CIRCLE
8
BLACK
10
0.3331867716535433
20
0.3331867716535433
40
0.0068897637795276
0
CIRCLE
8
BLACK
10
0.4
20
0.4944881889763779
40
0.0068897637795276
0
CIRCLE
8
BLACK
10
0.4
20
0.4
40
0.0068897637795276
0
CIRCLE
8
BLACK
10
0.4
20
0.305511811023622
40
0.0068897637795276
0
CIRCLE
8
BLACK
10
0.4668132283464567
20
0.4668132283464567
40
0.0068897637795276
0
CIRCLE
8
BLACK
10
0.4668132283464567
20
0.3331867716535433
40
0.0068897637795276
0
CIRCLE
8
BLACK
10
0.4944881889763779
20
0.4
40
0.0068897637795276
0
CIRCLE
8
BLACK
10
1.905511811023622
20
0.4
40
0.0068897637795276
0
CIRCLE
8
BLACK
10
1.9331867716535434
20
0.4668132283464567
40
0.0068897637795276
0
CIRCLE
8
BLACK
10
1.9331867716535434
20
0.3331867716535433
40
0.0068897637795276
0
CIRCLE
8
BLACK
10
2.
20
0.4944881889763779
40
0.0068897637795276
0
CIRCLE
8
BLACK
10
2.
20
0.4
40
0.0068897637795276
0
CIRCLE
8
BLACK
10
2.
20
0.305511811023622
40
0.0068897637795276
0
CIRCLE
8
BLACK
10
2.0668132283464566
20
0.4668132283464567
40
0.0068897637795276
0
CIRCLE
8
BLACK
10
2.0668132283464566
20
0.3331867716535433
40
0.0068897637795276
0
CIRCLE
8
BLACK
10
2.0944881889763778
20
0.4
40
0.0068897637795276
0
CIRCLE
8
BLACK
10
1.5523622047244094
20
0.4858267716535433
40
0.0068897637795276
0
CIRCLE
8
BLACK
10
1.6523622047244093
20
0.4858267716535433
40
0.0068897637795276
0
CIRCLE
8
BLACK
10
1.5523622047244094
20
0.3858267716535433
40
0.0068897637795276
0
CIRCLE
8
BLACK
10
1.6523622047244093
20
0.3858267716535433
40
0.0068897637795276
0
CIRCLE
8
BLACK
10
1.5523622047244094
20
0.2858267716535433
40
0.0068897637795276
0
CIRCLE
8
BLACK
10
1.6523622047244093
20
0.2858267716535433
40
0.0068897637795276
0
CIRCLE
8
BLACK
10
1.2297244094488189
20
2.0980314960629922
40
0.0068897637795276
0
CIRCLE
8
BLACK
10
1.2297244094488189
20
1.9980314960629921
40
0.0068897637795276
0
CIRCLE
8
BLACK
10
1.1297244094488188
20
2.0980314960629922
40
0.0068897637795276
0
CIRCLE
8
BLACK
10
1.1297244094488188
20
1.9980314960629921
40
0.0068897637795276
0
CIRCLE
8
BLACK
10
1.0297244094488189
20
2.0980314960629922
40
0.0068897637795276
0
CIRCLE
8
BLACK
10
1.0297244094488189
20
1.9980314960629921
40
0.0068897637795276
0
CIRCLE
8
BLACK
10
0.9297244094488188
20
2.0980314960629922
40
0.0068897637795276
0
CIRCLE
8
BLACK
10
0.9297244094488188
20
1.9980314960629921
40
0.0068897637795276
0
CIRCLE
8
BLACK
10
0.8297244094488189
20
2.0980314960629922
40
0.0068897637795276
0
CIRCLE
8
BLACK
10
0.8297244094488189
20
1.9980314960629921
40
0.0068897637795276
0
CIRCLE
8
BLACK
10
1.9669291338582677
20
1.7811023622047244
40
0.0068897637795276
0
CIRCLE
8
BLACK
10
2.0669291338582676
20
1.7811023622047244
40
0.0068897637795276
0
CIRCLE
8
BLACK
10
1.9669291338582677
20
1.6811023622047243
40
0.0068897637795276
0
CIRCLE
8
BLACK
10
2.0669291338582676
20
1.6811023622047243
40
0.0068897637795276
0
CIRCLE
8
BLACK
10
1.9669291338582677
20
1.5811023622047244
40
0.0068897637795276
0
CIRCLE
8
BLACK
10
2.0669291338582676
20
1.5811023622047244
40
0.0068897637795276
0
CIRCLE
8
BLACK
10
1.9669291338582677
20
1.4811023622047244
40
0.0068897637795276
0
CIRCLE
8
BLACK
10
2.0669291338582676
20
1.4811023622047244
40
0.0068897637795276
0
CIRCLE
8
BLACK
10
1.9669291338582677
20
1.3811023622047245
40
0.0068897637795276
0
CIRCLE
8
BLACK
10
2.0669291338582676
20
1.3811023622047245
40
0.0068897637795276
0
CIRCLE
8
BLACK
10
1.9669291338582677
20
1.2811023622047244
40
0.0068897637795276
0
CIRCLE
8
BLACK
10
2.0669291338582676
20
1.2811023622047244
40
0.0068897637795276
0
CIRCLE
8
BLACK
10
1.9669291338582677
20
1.1811023622047243
40
0.0068897637795276
0
CIRCLE
8
BLACK
10
2.0669291338582676
20
1.1811023622047243
40
0.0068897637795276
0
CIRCLE
8
BLACK
10
1.9669291338582677
20
1.0811023622047244
40
0.0068897637795276
0
CIRCLE
8
BLACK
10
2.0669291338582676
20
1.0811023622047244
40
0.0068897637795276
0
CIRCLE
8
BLACK
10
1.9669291338582677
20
0.9811023622047244
40
0.0068897637795276
0
CIRCLE
8
BLACK
10
2.0669291338582676
20
0.9811023622047244
40
0.0068897637795276
0
CIRCLE
8
BLACK
10
1.9669291338582677
20
0.8811023622047244
40
0.0068897637795276
0
CIRCLE
8
BLACK
10
2.0669291338582676
20
0.8811023622047244
40
0.0068897637795276
0
CIRCLE
8
BLACK
10
1.905511811023622
20
2.
40
0.0068897637795276
0
CIRCLE
8
BLACK
10
1.9331867716535434
20
2.0668132283464566
40
0.0068897637795276
0
CIRCLE
8
BLACK
10
1.9331867716535434
20
1.9331867716535434
40
0.0068897637795276
0
CIRCLE
8
BLACK
10
2.
20
2.0944881889763778
40
0.0068897637795276
0
CIRCLE
8
BLACK
10
2.
20
2.
40
0.0068897637795276
0
CIRCLE
8
BLACK
10
2.
20
1.905511811023622
40
0.0068897637795276
0
CIRCLE
8
BLACK
10
2.0668132283464566
20
2.0668132283464566
40
0.0068897637795276
0
CIRCLE
8
BLACK
10
2.0668132283464566
20
1.9331867716535434
40
0.0068897637795276
0
CIRCLE
8
BLACK
10
2.0944881889763778
20
2.
40
0.0068897637795276
0
CIRCLE
8
BLACK
10
1.0523622047244094
20
0.4818897637795275
40
0.0068897637795276
0
CIRCLE
8
BLACK
10
1.1523622047244095
20
0.4818897637795275
40
0.0068897637795276
0
CIRCLE
8
BLACK
10
1.0523622047244094
20
0.3818897637795275
40
0.0068897637795276
0
CIRCLE
8
BLACK
10
1.1523622047244095
20
0.3818897637795275
40
0.0068897637795276
0
CIRCLE
8
BLACK
10
1.0523622047244094
20
0.2818897637795276
40
0.0068897637795276
0
CIRCLE
8
BLACK
10
1.1523622047244095
20
0.2818897637795276
40
0.0068897637795276
0
CIRCLE
8
BLACK
10
0.4346456692913386
20
0.879527559055118
40
0.0068897637795276
0
CIRCLE
8
BLACK
10
0.3346456692913386
20
0.879527559055118
40
0.0068897637795276
0
CIRCLE
8
BLACK
10
0.4346456692913386
20
0.9795275590551181
40
0.0068897637795276
0
CIRCLE
8
BLACK
10
0.3346456692913386
20
0.9795275590551181
40
0.0068897637795276
0
CIRCLE
8
BLACK
10
0.4346456692913386
20
1.0795275590551181
40
0.0068897637795276
0
CIRCLE
8
BLACK
10
0.3346456692913386
20
1.0795275590551181
40
0.0068897637795276
0
CIRCLE
8
BLACK
10
0.4346456692913386
20
1.1795275590551182
40
0.0068897637795276
0
CIRCLE
8
BLACK
10
0.3346456692913386
20
1.1795275590551182
40
0.0068897637795276
0
CIRCLE
8
BLACK
10
0.4346456692913386
20
1.2795275590551181
40
0.0068897637795276
0
CIRCLE
8
BLACK
10
0.3346456692913386
20
1.2795275590551181
40
0.0068897637795276
0
CIRCLE
8
BLACK
10
0.4346456692913386
20
1.3795275590551181
40
0.0068897637795276
0
CIRCLE
8
BLACK
10
0.3346456692913386
20
1.3795275590551181
40
0.0068897637795276
0
CIRCLE
8
BLACK
10
0.4346456692913386
20
1.479527559055118
40
0.0068897637795276
0
CIRCLE
8
BLACK
10
0.3346456692913386
20
1.479527559055118
40
0.0068897637795276
0
CIRCLE
8
BLACK
10
0.4346456692913386
20
1.5795275590551181
40
0.0068897637795276
0
CIRCLE
8
BLACK
10
0.3346456692913386
20
1.5795275590551181
40
0.0068897637795276
0
CIRCLE
8
BLACK
10
0.4346456692913386
20
1.679527559055118
40
0.0068897637795276
0
CIRCLE
8
BLACK
10
0.3346456692913386
20
1.679527559055118
40
0.0068897637795276
0
CIRCLE
8
BLACK
10
0.4346456692913386
20
1.7795275590551181
40
0.0068897637795276
0
CIRCLE
8
BLACK
10
0.3346456692913386
20
1.7795275590551181
40
0.0068897637795276
0
CIRCLE
8
BLACK
10
1.5816929133858266
20
1.5383858267716535
40
0.0068897637795276
0
CIRCLE
8
BLACK
10
1.4816929133858268
20
1.5383858267716535
40
0.0068897637795276
0
CIRCLE
8
BLACK
10
0.305511811023622
20
2.
40
0.0068897637795276
0
CIRCLE
8
BLACK
10
0.3331867716535433
20
2.0668132283464566
40
0.0068897637795276
0
CIRCLE
8
BLACK
10
0.3331867716535433
20
1.9331867716535434
40
0.0068897637795276
0
CIRCLE
8
BLACK
10
0.4
20
2.0944881889763778
40
0.0068897637795276
0
CIRCLE
8
BLACK
10
0.4
20
2.
40
0.0068897637795276
0
CIRCLE
8
BLACK
10
0.4
20
1.905511811023622
40
0.0068897637795276
0
CIRCLE
8
BLACK
10
0.4668132283464567
20
2.0668132283464566
40
0.0068897637795276
0
CIRCLE
8
BLACK
10
0.4668132283464567
20
1.9331867716535434
40
0.0068897637795276
0
CIRCLE
8
BLACK
10
0.4944881889763779
20
2.
40
0.0068897637795276
0
CIRCLE
8
BLACK
10
0.6765748031496063
20
1.7838582677165353
40
0.0068897637795276
0
CIRCLE
8
BLACK
10
0.6765748031496063
20
1.8838582677165354
40
0.0068897637795276
0
CIRCLE
8
BLACK
10
0.7765748031496063
20
1.7838582677165353
40
0.0068897637795276
0
CIRCLE
8
BLACK
10
0.7765748031496063
20
1.8838582677165354
40
0.0068897637795276
0
CIRCLE
8
BLACK
10
0.8765748031496062
20
1.7838582677165353
40
0.0068897637795276
0
CIRCLE
8
BLACK
10
0.8765748031496062
20
1.8838582677165354
40
0.0068897637795276
0
CIRCLE
8
BLACK
10
0.9765748031496063
20
1.7838582677165353
40
0.0068897637795276
0
CIRCLE
8
BLACK
10
0.9765748031496063
20
1.8838582677165354
40
0.0068897637795276
0
CIRCLE
8
BLACK
10
1.0765748031496063
20
1.7838582677165353
40
0.0068897637795276
0
CIRCLE
8
BLACK
10
1.0765748031496063
20
1.8838582677165354
40
0.0068897637795276
0
CIRCLE
8
BLACK
10
1.1765748031496062
20
1.7838582677165353
40
0.0068897637795276
0
CIRCLE
8
BLACK
10
1.1765748031496062
20
1.8838582677165354
40
0.0068897637795276
0
CIRCLE
8
BLACK
10
1.2765748031496063
20
1.7838582677165353
40
0.0068897637795276
0
CIRCLE
8
BLACK
10
1.2765748031496063
20
1.8838582677165354
40
0.0068897637795276
0
CIRCLE
8
BLACK
10
1.3765748031496063
20
1.7838582677165353
40
0.0068897637795276
0
CIRCLE
8
BLACK
10
1.3765748031496063
20
1.8838582677165354
40
0.0068897637795276
0
CIRCLE
8
BLACK
10
1.4765748031496062
20
1.7838582677165353
40
0.0068897637795276
0
CIRCLE
8
BLACK
10
1.4765748031496062
20
1.8838582677165354
40
0.0068897637795276
0
CIRCLE
8
BLACK
10
1.5765748031496063
20
1.7838582677165353
40
0.0068897637795276
0
CIRCLE
8
BLACK
10
1.5765748031496063
20
1.8838582677165354
40
0.0068897637795276
0
CIRCLE
8
BLACK
10
1.6765748031496062
20
1.7838582677165353
40
0.0068897637795276
0
CIRCLE
8
BLACK
10
1.6765748031496062
20
1.8838582677165354
40
0.0068897637795276
0
CIRCLE
8
BLACK
10
1.7765748031496063
20
1.7838582677165353
40
0.0068897637795276
0
CIRCLE
8
BLACK
10
1.7765748031496063
20
1.8838582677165354
40
0.0068897637795276
0
CIRCLE
8
BLACK
10
0.8854330708661418
20
0.4454724409448819
40
0.0068897637795276
0
CIRCLE
8
BLACK
10
0.6578740157480315
20
0.4454724409448819
40
0.0068897637795276
0
LINE
8
BLACK
6
CONTINUOUS
10
0.9300223228346457
20
0.3178802362204725
11
0.9308203149606299
21
0.3208584645669291
0
LINE
8
BLACK
6
CONTINUOUS
10
0.9308203149606299
20
0.3208584645669291
11
0.9323619685039369
21
0.3235286614173228
0
LINE
8
BLACK
6
CONTINUOUS
10
0.9323619685039369
20
0.3235286614173228
11
0.9345422047244094
21
0.3257088976377953
0
LINE
8
BLACK
6
CONTINUOUS
10
0.9345422047244094
20
0.3257088976377953
11
0.9372124015748031
21
0.3272505511811024
0
LINE
8
BLACK
6
CONTINUOUS
10
0.9372124015748031
20
0.3272505511811024
11
0.9401906299212598
21
0.3280485433070866
0
LINE
8
BLACK
6
CONTINUOUS
10
0.9401906299212598
20
0.3280485433070866
11
0.943273937007874
21
0.3280485433070866
0
LINE
8
BLACK
6
CONTINUOUS
10
0.943273937007874
20
0.3280485433070866
11
0.9462521653543307
21
0.3272505511811024
0
LINE
8
BLACK
6
CONTINUOUS
10
0.9462521653543307
20
0.3272505511811024
11
0.9489223622047244
21
0.3257088976377953
0
LINE
8
BLACK
6
CONTINUOUS
10
0.9489223622047244
20
0.3257088976377953
11
0.9511025984251968
21
0.3235286614173228
0
LINE
8
BLACK
6
CONTINUOUS
10
0.9511025984251968
20
0.3235286614173228
11
0.9526442519685039
21
0.3208584645669291
0
LINE
8
BLACK
6
CONTINUOUS
10
0.9526442519685039
20
0.3208584645669291
11
0.9534422440944882
21
0.3178802362204725
0
LINE
8
BLACK
6
CONTINUOUS
10
0.9534422440944882
20
0.3178802362204725
11
0.9535433070866142
21
0.3163385826771654
0
LINE
8
BLACK
6
CONTINUOUS
10
0.9535433070866142
20
0.3163385826771654
11
0.9535433070866142
21
0.2848425196850394
0
LINE
8
BLACK
6
CONTINUOUS
10
0.9535433070866142
20
0.2848425196850394
11
0.9534422440944882
21
0.2833008661417323
0
LINE
8
BLACK
6
CONTINUOUS
10
0.9534422440944882
20
0.2833008661417323
11
0.9526442519685039
21
0.2803226377952756
0
LINE
8
BLACK
6
CONTINUOUS
10
0.9526442519685039
20
0.2803226377952756
11
0.9511025984251968
21
0.2776524409448819
0
LINE
8
BLACK
6
CONTINUOUS
10
0.9511025984251968
20
0.2776524409448819
11
0.9489223622047244
21
0.2754722047244094
0
LINE
8
BLACK
6
CONTINUOUS
10
0.9489223622047244
20
0.2754722047244094
11
0.9462521653543307
21
0.2739305511811024
0
LINE
8
BLACK
6
CONTINUOUS
10
0.9462521653543307
20
0.2739305511811024
11
0.943273937007874
21
0.2731325590551181
0
LINE
8
BLACK
6
CONTINUOUS
10
0.943273937007874
20
0.2731325590551181
11
0.9401906299212598
21
0.2731325590551181
0
LINE
8
BLACK
6
CONTINUOUS
10
0.9401906299212598
20
0.2731325590551181
11
0.9372124015748031
21
0.2739305511811024
0
LINE
8
BLACK
6
CONTINUOUS
10
0.9372124015748031
20
0.2739305511811024
11
0.9345422047244094
21
0.2754722047244094
0
LINE
8
BLACK
6
CONTINUOUS
10
0.9345422047244094
20
0.2754722047244094
11
0.9323619685039369
21
0.2776524409448819
0
LINE
8
BLACK
6
CONTINUOUS
10
0.9323619685039369
20
0.2776524409448819
11
0.9308203149606299
21
0.2803226377952756
0
LINE
8
BLACK
6
CONTINUOUS
10
0.9308203149606299
20
0.2803226377952756
11
0.9300223228346457
21
0.2833008661417323
0
LINE
8
BLACK
6
CONTINUOUS
10
0.9300223228346457
20
0.2833008661417323
11
0.9299212598425196
21
0.2848425196850394
0
LINE
8
BLACK
6
CONTINUOUS
10
0.9299212598425196
20
0.2848425196850394
11
0.9299212598425196
21
0.3163385826771654
0
LINE
8
BLACK
6
CONTINUOUS
10
0.9299212598425196
20
0.3163385826771654
11
0.9300223228346457
21
0.3178802362204725
0
LINE
8
BLACK
6
CONTINUOUS
10
0.5898648425196851
20
0.3178802362204725
11
0.5906628346456693
21
0.3208584645669291
0
LINE
8
BLACK
6
CONTINUOUS
10
0.5906628346456693
20
0.3208584645669291
11
0.5922044881889764
21
0.3235286614173228
0
LINE
8
BLACK
6
CONTINUOUS
10
0.5922044881889764
20
0.3235286614173228
11
0.5943847244094488
21
0.3257088976377953
0
LINE
8
BLACK
6
CONTINUOUS
10
0.5943847244094488
20
0.3257088976377953
11
0.5970549212598425
21
0.3272505511811024
0
LINE
8
BLACK
6
CONTINUOUS
10
0.5970549212598425
20
0.3272505511811024
11
0.6000331496062992
21
0.3280485433070866
0
LINE
8
BLACK
6
CONTINUOUS
10
0.6000331496062992
20
0.3280485433070866
11
0.6031164566929134
21
0.3280485433070866
0
LINE
8
BLACK
6
CONTINUOUS
10
0.6031164566929134
20
0.3280485433070866
11
0.60609468503937
21
0.3272505511811024
0
LINE
8
BLACK
6
CONTINUOUS
10
0.60609468503937
20
0.3272505511811024
11
0.6087648818897637
21
0.3257088976377953
0
LINE
8
BLACK
6
CONTINUOUS
10
0.6087648818897637
20
0.3257088976377953
11
0.6109451181102362
21
0.3235286614173228
0
LINE
8
BLACK
6
CONTINUOUS
10
0.6109451181102362
20
0.3235286614173228
11
0.6124867716535433
21
0.3208584645669291
0
LINE
8
BLACK
6
CONTINUOUS
10
0.6124867716535433
20
0.3208584645669291
11
0.6132847637795276
21
0.3178802362204725
0
LINE
8
BLACK
6
CONTINUOUS
10
0.6132847637795276
20
0.3178802362204725
11
0.6133858267716535
21
0.3163385826771654
0
LINE
8
BLACK
6
CONTINUOUS
10
0.6133858267716535
20
0.3163385826771654
11
0.6133858267716535
21
0.2848425196850394
0
LINE
8
BLACK
6
CONTINUOUS
10
0.6133858267716535
20
0.2848425196850394
11
0.6132847637795276
21
0.2833008661417323
0
LINE
8
BLACK
6
CONTINUOUS
10
0.6132847637795276
20
0.2833008661417323
11
0.6124867716535433
21
0.2803226377952756
0
LINE
8
BLACK
6
CONTINUOUS
10
0.6124867716535433
20
0.2803226377952756
11
0.6109451181102362
21
0.2776524409448819
0
LINE
8
BLACK
6
CONTINUOUS
10
0.6109451181102362
20
0.2776524409448819
11
0.6087648818897637
21
0.2754722047244094
0
LINE
8
BLACK
6
CONTINUOUS
10
0.6087648818897637
20
0.2754722047244094
11
0.60609468503937
21
0.2739305511811024
0
LINE
8
BLACK
6
CONTINUOUS
10
0.60609468503937
20
0.2739305511811024
11
0.6031164566929134
21
0.2731325590551181
0
LINE
8
BLACK
6
CONTINUOUS
10
0.6031164566929134
20
0.2731325590551181
11
0.6000331496062992
21
0.2731325590551181
0
LINE
8
BLACK
6
CONTINUOUS
10
0.6000331496062992
20
0.2731325590551181
11
0.5970549212598425
21
0.2739305511811024
0
LINE
8
BLACK
6
CONTINUOUS
10
0.5970549212598425
20
0.2739305511811024
11
0.5943847244094488
21
0.2754722047244094
0
LINE
8
BLACK
6
CONTINUOUS
10
0.5943847244094488
20
0.2754722047244094
11
0.5922044881889764
21
0.2776524409448819
0
LINE
8
BLACK
6
CONTINUOUS
10
0.5922044881889764
20
0.2776524409448819
11
0.5906628346456693
21
0.2803226377952756
0
LINE
8
BLACK
6
CONTINUOUS
10
0.5906628346456693
20
0.2803226377952756
11
0.5898648425196851
21
0.2833008661417323
0
LINE
8
BLACK
6
CONTINUOUS
10
0.5898648425196851
20
0.2833008661417323
11
0.5897637795275591
21
0.2848425196850394
0
LINE
8
BLACK
6
CONTINUOUS
10
0.5897637795275591
20
0.2848425196850394
11
0.5897637795275591
21
0.3163385826771654
0
LINE
8
BLACK
6
CONTINUOUS
10
0.5897637795275591
20
0.3163385826771654
11
0.5898648425196851
21
0.3178802362204725
0
LINE
8
BLACK
6
CONTINUOUS
10
0.9300223228346457
20
0.4883526771653543
11
0.9308203149606299
21
0.491330905511811
0
LINE
8
BLACK
6
CONTINUOUS
10
0.9308203149606299
20
0.491330905511811
11
0.9323619685039369
21
0.4940011023622047
0
LINE
8
BLACK
6
CONTINUOUS
10
0.9323619685039369
20
0.4940011023622047
11
0.9345422047244094
21
0.4961813385826772
0
LINE
8
BLACK
6
CONTINUOUS
10
0.9345422047244094
20
0.4961813385826772
11
0.9372124015748031
21
0.4977229921259843
0
LINE
8
BLACK
6
CONTINUOUS
10
0.9372124015748031
20
0.4977229921259843
11
0.9401906299212598
21
0.4985209842519685
0
LINE
8
BLACK
6
CONTINUOUS
10
0.9401906299212598
20
0.4985209842519685
11
0.943273937007874
21
0.4985209842519685
0
LINE
8
BLACK
6
CONTINUOUS
10
0.943273937007874
20
0.4985209842519685
11
0.9462521653543307
21
0.4977229921259843
0
LINE
8
BLACK
6
CONTINUOUS
10
0.9462521653543307
20
0.4977229921259843
11
0.9489223622047244
21
0.4961813385826772
0
LINE
8
BLACK
6
CONTINUOUS
10
0.9489223622047244
20
0.4961813385826772
11
0.9511025984251968
21
0.4940011023622047
0
LINE
8
BLACK
6
CONTINUOUS
10
0.9511025984251968
20
0.4940011023622047
11
0.9526442519685039
21
0.491330905511811
0
LINE
8
BLACK
6
CONTINUOUS
10
0.9526442519685039
20
0.491330905511811
11
0.9534422440944882
21
0.4883526771653543
0
LINE
8
BLACK
6
CONTINUOUS
10
0.9534422440944882
20
0.4883526771653543
11
0.9535433070866142
21
0.4868110236220473
0
LINE
8
BLACK
6
CONTINUOUS
10
0.9535433070866142
20
0.4868110236220473
11
0.9535433070866142
21
0.443503937007874
0
LINE
8
BLACK
6
CONTINUOUS
10
0.9535433070866142
20
0.443503937007874
11
0.9534422440944882
21
0.4419622834645669
0
LINE
8
BLACK
6
CONTINUOUS
10
0.9534422440944882
20
0.4419622834645669
11
0.9526442519685039
21
0.4389840551181102
0
LINE
8
BLACK
6
CONTINUOUS
10
0.9526442519685039
20
0.4389840551181102
11
0.9511025984251968
21
0.4363138582677165
0
LINE
8
BLACK
6
CONTINUOUS
10
0.9511025984251968
20
0.4363138582677165
11
0.9489223622047244
21
0.4341336220472441
0
LINE
8
BLACK
6
CONTINUOUS
10
0.9489223622047244
20
0.4341336220472441
11
0.9462521653543307
21
0.432591968503937
0
LINE
8
BLACK
6
CONTINUOUS
10
0.9462521653543307
20
0.432591968503937
11
0.943273937007874
21
0.4317939763779527
0
LINE
8
BLACK
6
CONTINUOUS
10
0.943273937007874
20
0.4317939763779527
11
0.9401906299212598
21
0.4317939763779527
0
LINE
8
BLACK
6
CONTINUOUS
10
0.9401906299212598
20
0.4317939763779527
11
0.9372124015748031
21
0.432591968503937
0
LINE
8
BLACK
6
CONTINUOUS
10
0.9372124015748031
20
0.432591968503937
11
0.9345422047244094
21
0.4341336220472441
0
LINE
8
BLACK
6
CONTINUOUS
10
0.9345422047244094
20
0.4341336220472441
11
0.9323619685039369
21
0.4363138582677165
0
LINE
8
BLACK
6
CONTINUOUS
10
0.9323619685039369
20
0.4363138582677165
11
0.9308203149606299
21
0.4389840551181102
0
LINE
8
BLACK
6
CONTINUOUS
10
0.9308203149606299
20
0.4389840551181102
11
0.9300223228346457
21
0.4419622834645669
0
LINE
8
BLACK
6
CONTINUOUS
10
0.9300223228346457
20
0.4419622834645669
11
0.9299212598425196
21
0.443503937007874
0
LINE
8
BLACK
6
CONTINUOUS
10
0.9299212598425196
20
0.443503937007874
11
0.9299212598425196
21
0.4868110236220473
0
LINE
8
BLACK
6
CONTINUOUS
10
0.9299212598425196
20
0.4868110236220473
11
0.9300223228346457
21
0.4883526771653543
0
LINE
8
BLACK
6
CONTINUOUS
10
0.5898648425196851
20
0.4883526771653543
11
0.5906628346456693
21
0.491330905511811
0
LINE
8
BLACK
6
CONTINUOUS
10
0.5906628346456693
20
0.491330905511811
11
0.5922044881889764
21
0.4940011023622047
0
LINE
8
BLACK
6
CONTINUOUS
10
0.5922044881889764
20
0.4940011023622047
11
0.5943847244094488
21
0.4961813385826772
0
LINE
8
BLACK
6
CONTINUOUS
10
0.5943847244094488
20
0.4961813385826772
11
0.5970549212598425
21
0.4977229921259843
0
LINE
8
BLACK
6
CONTINUOUS
10
0.5970549212598425
20
0.4977229921259843
11
0.6000331496062992
21
0.4985209842519685
0
LINE
8
BLACK
6
CONTINUOUS
10
0.6000331496062992
20
0.4985209842519685
11
0.6031164566929134
21
0.4985209842519685
0
LINE
8
BLACK
6
CONTINUOUS
10
0.6031164566929134
20
0.4985209842519685
11
0.60609468503937
21
0.4977229921259843
0
LINE
8
BLACK
6
CONTINUOUS
10
0.60609468503937
20
0.4977229921259843
11
0.6087648818897637
21
0.4961813385826772
0
LINE
8
BLACK
6
CONTINUOUS
10
0.6087648818897637
20
0.4961813385826772
11
0.6109451181102362
21
0.4940011023622047
0
LINE
8
BLACK
6
CONTINUOUS
10
0.6109451181102362
20
0.4940011023622047
11
0.6124867716535433
21
0.491330905511811
0
LINE
8
BLACK
6
CONTINUOUS
10
0.6124867716535433
20
0.491330905511811
11
0.6132847637795276
21
0.4883526771653543
0
LINE
8
BLACK
6
CONTINUOUS
10
0.6132847637795276
20
0.4883526771653543
11
0.6133858267716535
21
0.4868110236220473
0
LINE
8
BLACK
6
CONTINUOUS
10
0.6133858267716535
20
0.4868110236220473
11
0.6133858267716535
21
0.443503937007874
0
LINE
8
BLACK
6
CONTINUOUS
10
0.6133858267716535
20
0.443503937007874
11
0.6132847637795276
21
0.4419622834645669
0
LINE
8
BLACK
6
CONTINUOUS
10
0.6132847637795276
20
0.4419622834645669
11
0.6124867716535433
21
0.4389840551181102
0
LINE
8
BLACK
6
CONTINUOUS
10
0.6124867716535433
20
0.4389840551181102
11
0.6109451181102362
21
0.4363138582677165
0
LINE
8
BLACK
6
CONTINUOUS
10
0.6109451181102362
20
0.4363138582677165
11
0.6087648818897637
21
0.4341336220472441
0
LINE
8
BLACK
6
CONTINUOUS
10
0.6087648818897637
20
0.4341336220472441
11
0.60609468503937
21
0.432591968503937
0
LINE
8
BLACK
6
CONTINUOUS
10
0.60609468503937
20
0.432591968503937
11
0.6031164566929134
21
0.4317939763779527
0
LINE
8
BLACK
6
CONTINUOUS
10
0.6031164566929134
20
0.4317939763779527
11
0.6000331496062992
21
0.4317939763779527
0
LINE
8
BLACK
6
CONTINUOUS
10
0.6000331496062992
20
0.4317939763779527
11
0.5970549212598425
21
0.432591968503937
0
LINE
8
BLACK
6
CONTINUOUS
10
0.5970549212598425
20
0.432591968503937
11
0.5943847244094488
21
0.4341336220472441
0
LINE
8
BLACK
6
CONTINUOUS
10
0.5943847244094488
20
0.4341336220472441
11
0.5922044881889764
21
0.4363138582677165
0
LINE
8
BLACK
6
CONTINUOUS
10
0.5922044881889764
20
0.4363138582677165
11
0.5906628346456693
21
0.4389840551181102
0
LINE
8
BLACK
6
CONTINUOUS
10
0.5906628346456693
20
0.4389840551181102
11
0.5898648425196851
21
0.4419622834645669
0
LINE
8
BLACK
6
CONTINUOUS
10
0.5898648425196851
20
0.4419622834645669
11
0.5897637795275591
21
0.443503937007874
0
LINE
8
BLACK
6
CONTINUOUS
10
0.5897637795275591
20
0.443503937007874
11
0.5897637795275591
21
0.4868110236220473
0
LINE
8
BLACK
6
CONTINUOUS
10
0.5897637795275591
20
0.4868110236220473
11
0.5898648425196851
21
0.4883526771653543
0
LINE
8
BLACK
6
CONTINUOUS
10
1.4899773622047243
20
0.6400348031496063
11
1.488546968503937
21
0.6328437007874016
0
LINE
8
BLACK
6
CONTINUOUS
10
1.488546968503937
20
0.6328437007874016
11
1.4857411417322834
21
0.6260698031496063
0
LINE
8
BLACK
6
CONTINUOUS
10
1.4857411417322834
20
0.6260698031496063
11
1.4816677165354331
21
0.6199734645669291
0
LINE
8
BLACK
6
CONTINUOUS
10
1.4816677165354331
20
0.6199734645669291
11
1.4764832283464566
21
0.6147889763779527
0
LINE
8
BLACK
6
CONTINUOUS
10
1.4764832283464566
20
0.6147889763779527
11
1.4703868897637795
21
0.6107155511811023
0
LINE
8
BLACK
6
CONTINUOUS
10
1.4703868897637795
20
0.6107155511811023
11
1.4636129921259842
21
0.6079097244094488
0
LINE
8
BLACK
6
CONTINUOUS
10
1.4636129921259842
20
0.6079097244094488
11
1.4564218897637795
21
0.6064793307086614
0
LINE
8
BLACK
6
CONTINUOUS
10
1.4564218897637795
20
0.6064793307086614
11
1.4490899212598425
21
0.6064793307086614
0
LINE
8
BLACK
6
CONTINUOUS
10
1.4490899212598425
20
0.6064793307086614
11
1.4418988188976378
21
0.6079097244094488
0
LINE
8
BLACK
6
CONTINUOUS
10
1.4418988188976378
20
0.6079097244094488
11
1.4351249212598425
21
0.6107155511811023
0
LINE
8
BLACK
6
CONTINUOUS
10
1.4351249212598425
20
0.6107155511811023
11
1.4290285826771654
21
0.6147889763779527
0
LINE
8
BLACK
6
CONTINUOUS
10
1.4290285826771654
20
0.6147889763779527
11
1.4238440944881889
21
0.6199734645669291
0
LINE
8
BLACK
6
CONTINUOUS
10
1.4238440944881889
20
0.6199734645669291
11
1.4197706692913385
21
0.6260698031496063
0
LINE
8
BLACK
6
CONTINUOUS
10
1.4197706692913385
20
0.6260698031496063
11
1.416964842519685
21
0.6328437007874016
0
LINE
8
BLACK
6
CONTINUOUS
10
1.416964842519685
20
0.6328437007874016
11
1.4155344488188977
21
0.6400348031496063
0
LINE
8
BLACK
6
CONTINUOUS
10
1.4155344488188977
20
0.6400348031496063
11
1.4153543307086613
21
0.6437007874015748
0
LINE
8
BLACK
6
CONTINUOUS
10
1.4153543307086613
20
0.6437007874015748
11
1.4153543307086613
21
0.6633858267716535
0
LINE
8
BLACK
6
CONTINUOUS
10
1.4153543307086613
20
0.6633858267716535
11
1.4155344488188977
21
0.667051811023622
0
LINE
8
BLACK
6
CONTINUOUS
10
1.4155344488188977
20
0.667051811023622
11
1.416964842519685
21
0.6742429133858268
0
LINE
8
BLACK
6
CONTINUOUS
10
1.416964842519685
20
0.6742429133858268
11
1.4197706692913385
21
0.681016811023622
0
LINE
8
BLACK
6
CONTINUOUS
10
1.4197706692913385
20
0.681016811023622
11
1.4238440944881889
21
0.6871131496062992
0
LINE
8
BLACK
6
CONTINUOUS
10
1.4238440944881889
20
0.6871131496062992
11
1.4290285826771654
21
0.6922976377952755
0
LINE
8
BLACK
6
CONTINUOUS
10
1.4290285826771654
20
0.6922976377952755
11
1.4351249212598425
21
0.6963710629921259
0
LINE
8
BLACK
6
CONTINUOUS
10
1.4351249212598425
20
0.6963710629921259
11
1.4418988188976378
21
0.6991768897637796
0
LINE
8
BLACK
6
CONTINUOUS
10
1.4418988188976378
20
0.6991768897637796
11
1.4490899212598425
21
0.7006072834645669
0
LINE
8
BLACK
6
CONTINUOUS
10
1.4490899212598425
20
0.7006072834645669
11
1.4564218897637795
21
0.7006072834645669
0
LINE
8
BLACK
6
CONTINUOUS
10
1.4564218897637795
20
0.7006072834645669
11
1.4636129921259842
21
0.6991768897637796
0
LINE
8
BLACK
6
CONTINUOUS
10
1.4636129921259842
20
0.6991768897637796
11
1.4703868897637795
21
0.6963710629921259
0
LINE
8
BLACK
6
CONTINUOUS
10
1.4703868897637795
20
0.6963710629921259
11
1.4764832283464566
21
0.6922976377952755
0
LINE
8
BLACK
6
CONTINUOUS
10
1.4764832283464566
20
0.6922976377952755
11
1.4816677165354331
21
0.6871131496062992
0
LINE
8
BLACK
6
CONTINUOUS
10
1.4816677165354331
20
0.6871131496062992
11
1.4857411417322834
21
0.681016811023622
0
LINE
8
BLACK
6
CONTINUOUS
10
1.4857411417322834
20
0.681016811023622
11
1.488546968503937
21
0.6742429133858268
0
LINE
8
BLACK
6
CONTINUOUS
10
1.488546968503937
20
0.6742429133858268
11
1.4899773622047243
21
0.667051811023622
0
LINE
8
BLACK
6
CONTINUOUS
10
1.4899773622047243
20
0.667051811023622
11
1.4901574803149606
21
0.6633858267716535
0
LINE
8
BLACK
6
CONTINUOUS
10
1.4901574803149606
20
0.6633858267716535
11
1.4901574803149606
21
0.6437007874015748
0
LINE
8
BLACK
6
CONTINUOUS
10
1.4901574803149606
20
0.6437007874015748
11
1.4899773622047243
21
0.6400348031496063
0
LINE
8
BLACK
6
CONTINUOUS
10
1.6202588582677164
20
0.667051811023622
11
1.621689251968504
21
0.6742429133858268
0
LINE
8
BLACK
6
CONTINUOUS
10
1.621689251968504
20
0.6742429133858268
11
1.6244950787401575
21
0.681016811023622
0
LINE
8
BLACK
6
CONTINUOUS
10
1.6244950787401575
20
0.681016811023622
11
1.6285685039370079
21
0.6871131496062992
0
LINE
8
BLACK
6
CONTINUOUS
10
1.6285685039370079
20
0.6871131496062992
11
1.6337529921259841
21
0.6922976377952755
0
LINE
8
BLACK
6
CONTINUOUS
10
1.6337529921259841
20
0.6922976377952755
11
1.6398493307086615
21
0.6963710629921259
0
LINE
8
BLACK
6
CONTINUOUS
10
1.6398493307086615
20
0.6963710629921259
11
1.6466232283464566
21
0.6991768897637796
0
LINE
8
BLACK
6
CONTINUOUS
10
1.6466232283464566
20
0.6991768897637796
11
1.6538143307086615
21
0.7006072834645669
0
LINE
8
BLACK
6
CONTINUOUS
10
1.6538143307086615
20
0.7006072834645669
11
1.6611462992125985
21
0.7006072834645669
0
LINE
8
BLACK
6
CONTINUOUS
10
1.6611462992125985
20
0.7006072834645669
11
1.6683374015748031
21
0.6991768897637796
0
LINE
8
BLACK
6
CONTINUOUS
10
1.6683374015748031
20
0.6991768897637796
11
1.6751112992125985
21
0.6963710629921259
0
LINE
8
BLACK
6
CONTINUOUS
10
1.6751112992125985
20
0.6963710629921259
11
1.6812076377952756
21
0.6922976377952755
0
LINE
8
BLACK
6
CONTINUOUS
10
1.6812076377952756
20
0.6922976377952755
11
1.686392125984252
21
0.6871131496062992
0
LINE
8
BLACK
6
CONTINUOUS
10
1.686392125984252
20
0.6871131496062992
11
1.6904655511811024
21
0.681016811023622
0
LINE
8
BLACK
6
CONTINUOUS
10
1.6904655511811024
20
0.681016811023622
11
1.693271377952756
21
0.6742429133858268
0
LINE
8
BLACK
6
CONTINUOUS
10
1.693271377952756
20
0.6742429133858268
11
1.6947017716535433
21
0.667051811023622
0
LINE
8
BLACK
6
CONTINUOUS
10
1.6947017716535433
20
0.667051811023622
11
1.6948818897637794
21
0.6633858267716535
0
LINE
8
BLACK
6
CONTINUOUS
10
1.6948818897637794
20
0.6633858267716535
11
1.6948818897637794
21
0.6437007874015748
0
LINE
8
BLACK
6
CONTINUOUS
10
1.6948818897637794
20
0.6437007874015748
11
1.6947017716535433
21
0.6400348031496063
0
LINE
8
BLACK
6
CONTINUOUS
10
1.6947017716535433
20
0.6400348031496063
11
1.693271377952756
21
0.6328437007874016
0
LINE
8
BLACK
6
CONTINUOUS
10
1.693271377952756
20
0.6328437007874016
11
1.6904655511811024
21
0.6260698031496063
0
LINE
8
BLACK
6
CONTINUOUS
10
1.6904655511811024
20
0.6260698031496063
11
1.686392125984252
21
0.6199734645669291
0
LINE
8
BLACK
6
CONTINUOUS
10
1.686392125984252
20
0.6199734645669291
11
1.6812076377952756
21
0.6147889763779527
0
LINE
8
BLACK
6
CONTINUOUS
10
1.6812076377952756
20
0.6147889763779527
11
1.6751112992125985
21
0.6107155511811023
0
LINE
8
BLACK
6
CONTINUOUS
10
1.6751112992125985
20
0.6107155511811023
11
1.6683374015748031
21
0.6079097244094488
0
LINE
8
BLACK
6
CONTINUOUS
10
1.6683374015748031
20
0.6079097244094488
11
1.6611462992125985
21
0.6064793307086614
0
LINE
8
BLACK
6
CONTINUOUS
10
1.6611462992125985
20
0.6064793307086614
11
1.6538143307086615
21
0.6064793307086614
0
LINE
8
BLACK
6
CONTINUOUS
10
1.6538143307086615
20
0.6064793307086614
11
1.6466232283464566
21
0.6079097244094488
0
LINE
8
BLACK
6
CONTINUOUS
10
1.6466232283464566
20
0.6079097244094488
11
1.6398493307086615
21
0.6107155511811023
0
LINE
8
BLACK
6
CONTINUOUS
10
1.6398493307086615
20
0.6107155511811023
11
1.6337529921259841
21
0.6147889763779527
0
LINE
8
BLACK
6
CONTINUOUS
10
1.6337529921259841
20
0.6147889763779527
11
1.6285685039370079
21
0.6199734645669291
0
LINE
8
BLACK
6
CONTINUOUS
10
1.6285685039370079
20
0.6199734645669291
11
1.6244950787401575
21
0.6260698031496063
0
LINE
8
BLACK
6
CONTINUOUS
10
1.6244950787401575
20
0.6260698031496063
11
1.621689251968504
21
0.6328437007874016
0
LINE
8
BLACK
6
CONTINUOUS
10
1.621689251968504
20
0.6328437007874016
11
1.6202588582677164
21
0.6400348031496063
0
LINE
8
BLACK
6
CONTINUOUS
10
1.6202588582677164
20
0.6400348031496063
11
1.6200787401574803
21
0.6437007874015748
0
LINE
8
BLACK
6
CONTINUOUS
10
1.6200787401574803
20
0.6437007874015748
11
1.6200787401574803
21
0.6633858267716535
0
LINE
8
BLACK
6
CONTINUOUS
10
1.6200787401574803
20
0.6633858267716535
11
1.6202588582677164
21
0.667051811023622
0
CIRCLE
8
BLACK
10
0.305511811023622
20
0.4
40
0.0068897637795276
0
CIRCLE
8
BLACK
10
0.3331867716535433
20
0.4668132283464567
40
0.0068897637795276
0
CIRCLE
8
BLACK
10
0.3331867716535433
20
0.3331867716535433
40
0.0068897637795276
0
CIRCLE
8
BLACK
10
0.4
20
0.4944881889763779
40
0.0068897637795276
0
CIRCLE
8
BLACK
10
0.4
20
0.4
40
0.0068897637795276
0
CIRCLE
8
BLACK
10
0.4
20
0.305511811023622
40
0.0068897637795276
0
CIRCLE
8
BLACK
10
0.4668132283464567
20
0.4668132283464567
40
0.0068897637795276
0
CIRCLE
8
BLACK
10
0.4668132283464567
20
0.3331867716535433
40
0.0068897637795276
0
CIRCLE
8
BLACK
10
0.4944881889763779
20
0.4
40
0.0068897637795276
0
CIRCLE
8
BLACK
10
1.905511811023622
20
0.4
40
0.0068897637795276
0
CIRCLE
8
BLACK
10
1.9331867716535434
20
0.4668132283464567
40
0.0068897637795276
0
CIRCLE
8
BLACK
10
1.9331867716535434
20
0.3331867716535433
40
0.0068897637795276
0
CIRCLE
8
BLACK
10
2.
20
0.4944881889763779
40
0.0068897637795276
0
CIRCLE
8
BLACK
10
2.
20
0.4
40
0.0068897637795276
0
CIRCLE
8
BLACK
10
2.
20
0.305511811023622
40
0.0068897637795276
0
CIRCLE
8
BLACK
10
2.0668132283464566
20
0.4668132283464567
40
0.0068897637795276
0
CIRCLE
8
BLACK
10
2.0668132283464566
20
0.3331867716535433
40
0.0068897637795276
0
CIRCLE
8
BLACK
10
2.0944881889763778
20
0.4
40
0.0068897637795276
0
CIRCLE
8
BLACK
10
1.5523622047244094
20
0.4858267716535433
40
0.0068897637795276
0
CIRCLE
8
BLACK
10
1.6523622047244093
20
0.4858267716535433
40
0.0068897637795276
0
CIRCLE
8
BLACK
10
1.5523622047244094
20
0.3858267716535433
40
0.0068897637795276
0
CIRCLE
8
BLACK
10
1.6523622047244093
20
0.3858267716535433
40
0.0068897637795276
0
CIRCLE
8
BLACK
10
1.5523622047244094
20
0.2858267716535433
40
0.0068897637795276
0
CIRCLE
8
BLACK
10
1.6523622047244093
20
0.2858267716535433
40
0.0068897637795276
0
CIRCLE
8
BLACK
10
1.2297244094488189
20
2.0980314960629922
40
0.0068897637795276
0
CIRCLE
8
BLACK
10
1.2297244094488189
20
1.9980314960629921
40
0.0068897637795276
0
CIRCLE
8
BLACK
10
1.1297244094488188
20
2.0980314960629922
40
0.0068897637795276
0
CIRCLE
8
BLACK
10
1.1297244094488188
20
1.9980314960629921
40
0.0068897637795276
0
CIRCLE
8
BLACK
10
1.0297244094488189
20
2.0980314960629922
40
0.0068897637795276
0
CIRCLE
8
BLACK
10
1.0297244094488189
20
1.9980314960629921
40
0.0068897637795276
0
CIRCLE
8
BLACK
10
0.9297244094488188
20
2.0980314960629922
40
0.0068897637795276
0
CIRCLE
8
BLACK
10
0.9297244094488188
20
1.9980314960629921
40
0.0068897637795276
0
CIRCLE
8
BLACK
10
0.8297244094488189
20
2.0980314960629922
40
0.0068897637795276
0
CIRCLE
8
BLACK
10
0.8297244094488189
20
1.9980314960629921
40
0.0068897637795276
0
CIRCLE
8
BLACK
10
1.9669291338582677
20
1.7811023622047244
40
0.0068897637795276
0
CIRCLE
8
BLACK
10
2.0669291338582676
20
1.7811023622047244
40
0.0068897637795276
0
CIRCLE
8
BLACK
10
1.9669291338582677
20
1.6811023622047243
40
0.0068897637795276
0
CIRCLE
8
BLACK
10
2.0669291338582676
20
1.6811023622047243
40
0.0068897637795276
0
CIRCLE
8
BLACK
10
1.9669291338582677
20
1.5811023622047244
40
0.0068897637795276
0
CIRCLE
8
BLACK
10
2.0669291338582676
20
1.5811023622047244
40
0.0068897637795276
0
CIRCLE
8
BLACK
10
1.9669291338582677
20
1.4811023622047244
40
0.0068897637795276
0
CIRCLE
8
BLACK
10
2.0669291338582676
20
1.4811023622047244
40
0.0068897637795276
0
CIRCLE
8
BLACK
10
1.9669291338582677
20
1.3811023622047245
40
0.0068897637795276
0
CIRCLE
8
BLACK
10
2.0669291338582676
20
1.3811023622047245
40
0.0068897637795276
0
CIRCLE
8
BLACK
10
1.9669291338582677
20
1.2811023622047244
40
0.0068897637795276
0
CIRCLE
8
BLACK
10
2.0669291338582676
20
1.2811023622047244
40
0.0068897637795276
0
CIRCLE
8
BLACK
10
1.9669291338582677
20
1.1811023622047243
40
0.0068897637795276
0
CIRCLE
8
BLACK
10
2.0669291338582676
20
1.1811023622047243
40
0.0068897637795276
0
CIRCLE
8
BLACK
10
1.9669291338582677
20
1.0811023622047244
40
0.0068897637795276
0
CIRCLE
8
BLACK
10
2.0669291338582676
20
1.0811023622047244
40
0.0068897637795276
0
CIRCLE
8
BLACK
10
1.9669291338582677
20
0.9811023622047244
40
0.0068897637795276
0
CIRCLE
8
BLACK
10
2.0669291338582676
20
0.9811023622047244
40
0.0068897637795276
0
CIRCLE
8
BLACK
10
1.9669291338582677
20
0.8811023622047244
40
0.0068897637795276
0
CIRCLE
8
BLACK
10
2.0669291338582676
20
0.8811023622047244
40
0.0068897637795276
0
CIRCLE
8
BLACK
10
1.905511811023622
20
2.
40
0.0068897637795276
0
CIRCLE
8
BLACK
10
1.9331867716535434
20
2.0668132283464566
40
0.0068897637795276
0
CIRCLE
8
BLACK
10
1.9331867716535434
20
1.9331867716535434
40
0.0068897637795276
0
CIRCLE
8
BLACK
10
2.
20
2.0944881889763778
40
0.0068897637795276
0
CIRCLE
8
BLACK
10
2.
20
2.
40
0.0068897637795276
0
CIRCLE
8
BLACK
10
2.
20
1.905511811023622
40
0.0068897637795276
0
CIRCLE
8
BLACK
10
2.0668132283464566
20
2.0668132283464566
40
0.0068897637795276
0
CIRCLE
8
BLACK
10
2.0668132283464566
20
1.9331867716535434
40
0.0068897637795276
0
CIRCLE
8
BLACK
10
2.0944881889763778
20
2.
40
0.0068897637795276
0
CIRCLE
8
BLACK
10
1.0523622047244094
20
0.4818897637795275
40
0.0068897637795276
0
CIRCLE
8
BLACK
10
1.1523622047244095
20
0.4818897637795275
40
0.0068897637795276
0
CIRCLE
8
BLACK
10
1.0523622047244094
20
0.3818897637795275
40
0.0068897637795276
0
CIRCLE
8
BLACK
10
1.1523622047244095
20
0.3818897637795275
40
0.0068897637795276
0
CIRCLE
8
BLACK
10
1.0523622047244094
20
0.2818897637795276
40
0.0068897637795276
0
CIRCLE
8
BLACK
10
1.1523622047244095
20
0.2818897637795276
40
0.0068897637795276
0
CIRCLE
8
BLACK
10
0.4346456692913386
20
0.879527559055118
40
0.0068897637795276
0
CIRCLE
8
BLACK
10
0.3346456692913386
20
0.879527559055118
40
0.0068897637795276
0
CIRCLE
8
BLACK
10
0.4346456692913386
20
0.9795275590551181
40
0.0068897637795276
0
CIRCLE
8
BLACK
10
0.3346456692913386
20
0.9795275590551181
40
0.0068897637795276
0
CIRCLE
8
BLACK
10
0.4346456692913386
20
1.0795275590551181
40
0.0068897637795276
0
CIRCLE
8
BLACK
10
0.3346456692913386
20
1.0795275590551181
40
0.0068897637795276
0
CIRCLE
8
BLACK
10
0.4346456692913386
20
1.1795275590551182
40
0.0068897637795276
0
CIRCLE
8
BLACK
10
0.3346456692913386
20
1.1795275590551182
40
0.0068897637795276
0
CIRCLE
8
BLACK
10
0.4346456692913386
20
1.2795275590551181
40
0.0068897637795276
0
CIRCLE
8
BLACK
10
0.3346456692913386
20
1.2795275590551181
40
0.0068897637795276
0
CIRCLE
8
BLACK
10
0.4346456692913386
20
1.3795275590551181
40
0.0068897637795276
0
CIRCLE
8
BLACK
10
0.3346456692913386
20
1.3795275590551181
40
0.0068897637795276
0
CIRCLE
8
BLACK
10
0.4346456692913386
20
1.479527559055118
40
0.0068897637795276
0
CIRCLE
8
BLACK
10
0.3346456692913386
20
1.479527559055118
40
0.0068897637795276
0
CIRCLE
8
BLACK
10
0.4346456692913386
20
1.5795275590551181
40
0.0068897637795276
0
CIRCLE
8
BLACK
10
0.3346456692913386
20
1.5795275590551181
40
0.0068897637795276
0
CIRCLE
8
BLACK
10
0.4346456692913386
20
1.679527559055118
40
0.0068897637795276
0
CIRCLE
8
BLACK
10
0.3346456692913386
20
1.679527559055118
40
0.0068897637795276
0
CIRCLE
8
BLACK
10
0.4346456692913386
20
1.7795275590551181
40
0.0068897637795276
0
CIRCLE
8
BLACK
10
0.3346456692913386
20
1.7795275590551181
40
0.0068897637795276
0
CIRCLE
8
BLACK
10
1.5816929133858266
20
1.5383858267716535
40
0.0068897637795276
0
CIRCLE
8
BLACK
10
1.4816929133858268
20
1.5383858267716535
40
0.0068897637795276
0
CIRCLE
8
BLACK
10
0.305511811023622
20
2.
40
0.0068897637795276
0
CIRCLE
8
BLACK
10
0.3331867716535433
20
2.0668132283464566
40
0.0068897637795276
0
CIRCLE
8
BLACK
10
0.3331867716535433
20
1.9331867716535434
40
0.0068897637795276
0
CIRCLE
8
BLACK
10
0.4
20
2.0944881889763778
40
0.0068897637795276
0
CIRCLE
8
BLACK
10
0.4
20
2.
40
0.0068897637795276
0
CIRCLE
8
BLACK
10
0.4
20
1.905511811023622
40
0.0068897637795276
0
CIRCLE
8
BLACK
10
0.4668132283464567
20
2.0668132283464566
40
0.0068897637795276
0
CIRCLE
8
BLACK
10
0.4668132283464567
20
1.9331867716535434
40
0.0068897637795276
0
CIRCLE
8
BLACK
10
0.4944881889763779
20
2.
40
0.0068897637795276
0
CIRCLE
8
BLACK
10
0.6765748031496063
20
1.7838582677165353
40
0.0068897637795276
0
CIRCLE
8
BLACK
10
0.6765748031496063
20
1.8838582677165354
40
0.0068897637795276
0
CIRCLE
8
BLACK
10
0.7765748031496063
20
1.7838582677165353
40
0.0068897637795276
0
CIRCLE
8
BLACK
10
0.7765748031496063
20
1.8838582677165354
40
0.0068897637795276
0
CIRCLE
8
BLACK
10
0.8765748031496062
20
1.7838582677165353
40
0.0068897637795276
0
CIRCLE
8
BLACK
10
0.8765748031496062
20
1.8838582677165354
40
0.0068897637795276
0
CIRCLE
8
BLACK
10
0.9765748031496063
20
1.7838582677165353
40
0.0068897637795276
0
CIRCLE
8
BLACK
10
0.9765748031496063
20
1.8838582677165354
40
0.0068897637795276
0
CIRCLE
8
BLACK
10
1.0765748031496063
20
1.7838582677165353
40
0.0068897637795276
0
CIRCLE
8
BLACK
10
1.0765748031496063
20
1.8838582677165354
40
0.0068897637795276
0
CIRCLE
8
BLACK
10
1.1765748031496062
20
1.7838582677165353
40
0.0068897637795276
0
CIRCLE
8
BLACK
10
1.1765748031496062
20
1.8838582677165354
40
0.0068897637795276
0
CIRCLE
8
BLACK
10
1.2765748031496063
20
1.7838582677165353
40
0.0068897637795276
0
CIRCLE
8
BLACK
10
1.2765748031496063
20
1.8838582677165354
40
0.0068897637795276
0
CIRCLE
8
BLACK
10
1.3765748031496063
20
1.7838582677165353
40
0.0068897637795276
0
CIRCLE
8
BLACK
10
1.3765748031496063
20
1.8838582677165354
40
0.0068897637795276
0
CIRCLE
8
BLACK
10
1.4765748031496062
20
1.7838582677165353
40
0.0068897637795276
0
CIRCLE
8
BLACK
10
1.4765748031496062
20
1.8838582677165354
40
0.0068897637795276
0
CIRCLE
8
BLACK
10
1.5765748031496063
20
1.7838582677165353
40
0.0068897637795276
0
CIRCLE
8
BLACK
10
1.5765748031496063
20
1.8838582677165354
40
0.0068897637795276
0
CIRCLE
8
BLACK
10
1.6765748031496062
20
1.7838582677165353
40
0.0068897637795276
0
CIRCLE
8
BLACK
10
1.6765748031496062
20
1.8838582677165354
40
0.0068897637795276
0
CIRCLE
8
BLACK
10
1.7765748031496063
20
1.7838582677165353
40
0.0068897637795276
0
CIRCLE
8
BLACK
10
1.7765748031496063
20
1.8838582677165354
40
0.0068897637795276
0
CIRCLE
8
BLACK
10
0.8854330708661418
20
0.4454724409448819
40
0.0068897637795276
0
CIRCLE
8
BLACK
10
0.6578740157480315
20
0.4454724409448819
40
0.0068897637795276
0
LINE
8
BLACK
6
CONTINUOUS
10
0.9535433070866142
20
0.2848425196850394
11
0.9535433070866142
21
0.3163385826771654
0
ARC
8
BLACK
10
0.9417322834645669
20
0.3163385826771654
40
0.0118110236220472
50
0.00000000
51
180.00000000
0
LINE
8
BLACK
6
CONTINUOUS
10
0.9299212598425196
20
0.3163385826771654
11
0.9299212598425196
21
0.2848425196850394
0
ARC
8
BLACK
10
0.9417322834645669
20
0.2848425196850394
40
0.0118110236220472
50
180.00000000
51
360.00000000
0
LINE
8
BLACK
6
CONTINUOUS
10
0.6133858267716535
20
0.2848425196850394
11
0.6133858267716535
21
0.3163385826771654
0
ARC
8
BLACK
10
0.6015748031496063
20
0.3163385826771654
40
0.0118110236220472
50
0.00000000
51
180.00000000
0
LINE
8
BLACK
6
CONTINUOUS
10
0.5897637795275591
20
0.3163385826771654
11
0.5897637795275591
21
0.2848425196850394
0
ARC
8
BLACK
10
0.6015748031496063
20
0.2848425196850394
40
0.0118110236220472
50
180.00000000
51
360.00000000
0
LINE
8
BLACK
6
CONTINUOUS
10
0.9535433070866142
20
0.443503937007874
11
0.9535433070866142
21
0.4868110236220473
0
ARC
8
BLACK
10
0.9417322834645669
20
0.4868110236220473
40
0.0118110236220472
50
0.00000000
51
180.00000000
0
LINE
8
BLACK
6
CONTINUOUS
10
0.9299212598425196
20
0.4868110236220473
11
0.9299212598425196
21
0.443503937007874
0
ARC
8
BLACK
10
0.9417322834645669
20
0.443503937007874
40
0.0118110236220472
50
180.00000000
51
360.00000000
0
LINE
8
BLACK
6
CONTINUOUS
10
0.6133858267716535
20
0.443503937007874
11
0.6133858267716535
21
0.4868110236220473
0
ARC
8
BLACK
10
0.6015748031496063
20
0.4868110236220473
40
0.0118110236220472
50
0.00000000
51
180.00000000
0
LINE
8
BLACK
6
CONTINUOUS
10
0.5897637795275591
20
0.4868110236220473
11
0.5897637795275591
21
0.443503937007874
0
ARC
8
BLACK
10
0.6015748031496063
20
0.443503937007874
40
0.0118110236220472
50
180.00000000
51
360.00000000
0
LINE
8
BLACK
6
CONTINUOUS
10
1.4153543700787401
20
0.6633858267716535
11
1.4153543700787401
21
0.6437007874015748
0
ARC
8
BLACK
10
1.4527559055118109
20
0.6437007874015748
40
0.0374015354330709
50
-180.00000000
51
0.00000000
0
LINE
8
BLACK
6
CONTINUOUS
10
1.4901574409448819
20
0.6437007874015748
11
1.4901574409448819
21
0.6633858267716535
0
ARC
8
BLACK
10
1.4527559055118109
20
0.6633858267716535
40
0.0374015354330709
50
0.00000000
51
180.00000000
0
LINE
8
BLACK
6
CONTINUOUS
10
1.6948818503937007
20
0.6437007874015748
11
1.6948818503937007
21
0.6633858267716535
0
ARC
8
BLACK
10
1.6574803149606299
20
0.6633858267716535
40
0.0374015354330709
50
0.00000000
51
180.00000000
0
LINE
8
BLACK
6
CONTINUOUS
10
1.6200787795275591
20
0.6633858267716535
11
1.6200787795275591
21
0.6437007874015748
0
ARC
8
BLACK
10
1.6574803149606299
20
0.6437007874015748
40
0.0374015354330709
50
180.00000000
51
360.00000000
  0
ENDSEC
  0
EOF
