  0
SECTION
  2
HEADER
  9
$ANGBASE
  50
0.0
  9
$ANGDIR
  70
1
  9
$MEASUREMENT
  70
0
  0
ENDSEC
  0
SECTION
  2
TABLES
  0
TABLE
  2
LTYPE
  70
4
  0
LTYPE
  5
40F
  2
CONTINUOUS
  70
0
  3
Solid line
  72
65
  73
0
  40
0.0
  0
LTYPE
  5
410
  2
DASHDOT
 70
0
  3
Dash Dot ____ _ ____ _
 72
65
 73
4
 40
2.0
 49
1.25
 49
-0.25
 49
0.25
 49
-0.25
  0
LTYPE
  5
411
  2
DASHED
 70
0
  3
Dashed __ __ __ __ __
 72
65
 73
2
 40
0.75
 49
0.5
 49
-0.25
  0
LTYPE
  5
43B
  2
DOTTED
 70
0
  3
Dotted .  .  .  .
 72
65
 73
2
 40
0.2
 49
0.0
 49
-0.2
  0
ENDTAB
  0
TABLE
  2
STYLE
  70
4
  0
STYLE
  2
KICAD
  70
0
  40
0
  41
1
  42
1
  50
0
  71
0
  3
isocp.shx
  0
STYLE
  2
KICADB
  70
0
  40
0
  41
1
  42
1
  50
0
  71
0
  3
isocp.shx
  0
STYLE
  2
KICADI
  70
0
  40
0
  41
1
  42
1
  50
15
  71
0
  3
isocp.shx
  0
STYLE
  2
KICADBI
  70
0
  40
0
  41
1
  42
1
  50
15
  71
0
  3
isocp.shx
  0
ENDTAB
  0
TABLE
  2
LAYER
  70
1
  0
LAYER
  2
BLACK
  70
0
  62
7
  6
CONTINUOUS
  0
ENDTAB
  0
ENDSEC
  0
SECTION
  2
ENTITIES
0
LINE
8
BLACK
6
CONTINUOUS
10
1.0823622047244095
20
0.2518897637795275
11
1.0223622047244094
21
0.2518897637795275
0
LINE
8
BLACK
6
CONTINUOUS
10
1.0223622047244094
20
0.2518897637795275
11
1.0223622047244094
21
0.3118897637795275
0
LINE
8
BLACK
6
CONTINUOUS
10
1.0223622047244094
20
0.3118897637795275
11
1.0823622047244095
21
0.3118897637795275
0
LINE
8
BLACK
6
CONTINUOUS
10
1.0823622047244095
20
0.3118897637795275
11
1.0823622047244095
21
0.2518897637795275
0
LINE
8
BLACK
6
CONTINUOUS
10
1.1823622047244093
20
0.2518897637795275
11
1.1223622047244095
21
0.2518897637795275
0
LINE
8
BLACK
6
CONTINUOUS
10
1.1223622047244095
20
0.2518897637795275
11
1.1223622047244095
21
0.3118897637795275
0
LINE
8
BLACK
6
CONTINUOUS
10
1.1223622047244095
20
0.3118897637795275
11
1.1823622047244093
21
0.3118897637795275
0
LINE
8
BLACK
6
CONTINUOUS
10
1.1823622047244093
20
0.3118897637795275
11
1.1823622047244093
21
0.2518897637795275
0
LINE
8
BLACK
6
CONTINUOUS
10
1.5823622047244095
20
0.2558267716535433
11
1.5223622047244094
21
0.2558267716535433
0
LINE
8
BLACK
6
CONTINUOUS
10
1.5223622047244094
20
0.2558267716535433
11
1.5223622047244094
21
0.3158267716535433
0
LINE
8
BLACK
6
CONTINUOUS
10
1.5223622047244094
20
0.3158267716535433
11
1.5823622047244095
21
0.3158267716535433
0
LINE
8
BLACK
6
CONTINUOUS
10
1.5823622047244095
20
0.3158267716535433
11
1.5823622047244095
21
0.2558267716535433
0
LINE
8
BLACK
6
CONTINUOUS
10
1.6823622047244093
20
0.2558267716535433
11
1.6223622047244095
21
0.2558267716535433
0
LINE
8
BLACK
6
CONTINUOUS
10
1.6223622047244095
20
0.2558267716535433
11
1.6223622047244095
21
0.3158267716535433
0
LINE
8
BLACK
6
CONTINUOUS
10
1.6223622047244095
20
0.3158267716535433
11
1.6823622047244093
21
0.3158267716535433
0
LINE
8
BLACK
6
CONTINUOUS
10
1.6823622047244093
20
0.3158267716535433
11
1.6823622047244093
21
0.2558267716535433
0
LINE
8
BLACK
6
CONTINUOUS
10
0.6091079527559055
20
0.3384622047244095
11
0.6135583070866142
21
0.3358927952755905
0
LINE
8
BLACK
6
CONTINUOUS
10
0.6135583070866142
20
0.3358927952755905
11
0.6171920078740157
21
0.332259094488189
0
LINE
8
BLACK
6
CONTINUOUS
10
0.6171920078740157
20
0.332259094488189
11
0.6197614173228346
21
0.3278087401574803
0
LINE
8
BLACK
6
CONTINUOUS
10
0.6197614173228346
20
0.3278087401574803
11
0.6210914173228347
21
0.322845
0
LINE
8
BLACK
6
CONTINUOUS
10
0.6210914173228347
20
0.322845
11
0.621259842519685
21
0.3202755905511811
0
LINE
8
BLACK
6
CONTINUOUS
10
0.621259842519685
20
0.3202755905511811
11
0.621259842519685
21
0.2809055118110236
0
LINE
8
BLACK
6
CONTINUOUS
10
0.621259842519685
20
0.2809055118110236
11
0.6210914173228347
21
0.2783361023622047
0
LINE
8
BLACK
6
CONTINUOUS
10
0.6210914173228347
20
0.2783361023622047
11
0.6197614173228346
21
0.2733723622047244
0
LINE
8
BLACK
6
CONTINUOUS
10
0.6197614173228346
20
0.2733723622047244
11
0.6171920078740157
21
0.2689220078740158
0
LINE
8
BLACK
6
CONTINUOUS
10
0.6171920078740157
20
0.2689220078740158
11
0.6135583070866142
21
0.2652883070866142
0
LINE
8
BLACK
6
CONTINUOUS
10
0.6135583070866142
20
0.2652883070866142
11
0.6091079527559055
21
0.2627188976377953
0
LINE
8
BLACK
6
CONTINUOUS
10
0.6091079527559055
20
0.2627188976377953
11
0.6041442125984252
21
0.2613888976377953
0
LINE
8
BLACK
6
CONTINUOUS
10
0.6041442125984252
20
0.2613888976377953
11
0.5990053937007874
21
0.2613888976377953
0
LINE
8
BLACK
6
CONTINUOUS
10
0.5990053937007874
20
0.2613888976377953
11
0.5940416535433071
21
0.2627188976377953
0
LINE
8
BLACK
6
CONTINUOUS
10
0.5940416535433071
20
0.2627188976377953
11
0.5895912992125985
21
0.2652883070866142
0
LINE
8
BLACK
6
CONTINUOUS
10
0.5895912992125985
20
0.2652883070866142
11
0.5859575984251968
21
0.2689220078740158
0
LINE
8
BLACK
6
CONTINUOUS
10
0.5859575984251968
20
0.2689220078740158
11
0.5833881889763779
21
0.2733723622047244
0
LINE
8
BLACK
6
CONTINUOUS
10
0.5833881889763779
20
0.2733723622047244
11
0.582058188976378
21
0.2783361023622047
0
LINE
8
BLACK
6
CONTINUOUS
10
0.582058188976378
20
0.2783361023622047
11
0.5818897637795275
21
0.2809055118110236
0
LINE
8
BLACK
6
CONTINUOUS
10
0.5818897637795275
20
0.2809055118110236
11
0.5818897637795275
21
0.3202755905511811
0
LINE
8
BLACK
6
CONTINUOUS
10
0.5818897637795275
20
0.3202755905511811
11
0.582058188976378
21
0.322845
0
LINE
8
BLACK
6
CONTINUOUS
10
0.582058188976378
20
0.322845
11
0.5833881889763779
21
0.3278087401574803
0
LINE
8
BLACK
6
CONTINUOUS
10
0.5833881889763779
20
0.3278087401574803
11
0.5859575984251968
21
0.332259094488189
0
LINE
8
BLACK
6
CONTINUOUS
10
0.5859575984251968
20
0.332259094488189
11
0.5895912992125985
21
0.3358927952755905
0
LINE
8
BLACK
6
CONTINUOUS
10
0.5895912992125985
20
0.3358927952755905
11
0.5940416535433071
21
0.3384622047244095
0
LINE
8
BLACK
6
CONTINUOUS
10
0.5940416535433071
20
0.3384622047244095
11
0.5990053937007874
21
0.3397922047244095
0
LINE
8
BLACK
6
CONTINUOUS
10
0.5990053937007874
20
0.3397922047244095
11
0.6041442125984252
21
0.3397922047244095
0
LINE
8
BLACK
6
CONTINUOUS
10
0.6041442125984252
20
0.3397922047244095
11
0.6091079527559055
21
0.3384622047244095
0
LINE
8
BLACK
6
CONTINUOUS
10
0.9492654330708661
20
0.3384622047244095
11
0.9537157874015748
21
0.3358927952755905
0
LINE
8
BLACK
6
CONTINUOUS
10
0.9537157874015748
20
0.3358927952755905
11
0.9573494881889764
21
0.332259094488189
0
LINE
8
BLACK
6
CONTINUOUS
10
0.9573494881889764
20
0.332259094488189
11
0.9599188976377953
21
0.3278087401574803
0
LINE
8
BLACK
6
CONTINUOUS
10
0.9599188976377953
20
0.3278087401574803
11
0.9612488976377953
21
0.322845
0
LINE
8
BLACK
6
CONTINUOUS
10
0.9612488976377953
20
0.322845
11
0.9614173228346456
21
0.3202755905511811
0
LINE
8
BLACK
6
CONTINUOUS
10
0.9614173228346456
20
0.3202755905511811
11
0.9614173228346456
21
0.2809055118110236
0
LINE
8
BLACK
6
CONTINUOUS
10
0.9614173228346456
20
0.2809055118110236
11
0.9612488976377953
21
0.2783361023622047
0
LINE
8
BLACK
6
CONTINUOUS
10
0.9612488976377953
20
0.2783361023622047
11
0.9599188976377953
21
0.2733723622047244
0
LINE
8
BLACK
6
CONTINUOUS
10
0.9599188976377953
20
0.2733723622047244
11
0.9573494881889764
21
0.2689220078740158
0
LINE
8
BLACK
6
CONTINUOUS
10
0.9573494881889764
20
0.2689220078740158
11
0.9537157874015748
21
0.2652883070866142
0
LINE
8
BLACK
6
CONTINUOUS
10
0.9537157874015748
20
0.2652883070866142
11
0.9492654330708661
21
0.2627188976377953
0
LINE
8
BLACK
6
CONTINUOUS
10
0.9492654330708661
20
0.2627188976377953
11
0.9443016929133858
21
0.2613888976377953
0
LINE
8
BLACK
6
CONTINUOUS
10
0.9443016929133858
20
0.2613888976377953
11
0.9391628740157481
21
0.2613888976377953
0
LINE
8
BLACK
6
CONTINUOUS
10
0.9391628740157481
20
0.2613888976377953
11
0.9341991338582677
21
0.2627188976377953
0
LINE
8
BLACK
6
CONTINUOUS
10
0.9341991338582677
20
0.2627188976377953
11
0.9297487795275591
21
0.2652883070866142
0
LINE
8
BLACK
6
CONTINUOUS
10
0.9297487795275591
20
0.2652883070866142
11
0.9261150787401574
21
0.2689220078740158
0
LINE
8
BLACK
6
CONTINUOUS
10
0.9261150787401574
20
0.2689220078740158
11
0.9235456692913385
21
0.2733723622047244
0
LINE
8
BLACK
6
CONTINUOUS
10
0.9235456692913385
20
0.2733723622047244
11
0.9222156692913386
21
0.2783361023622047
0
LINE
8
BLACK
6
CONTINUOUS
10
0.9222156692913386
20
0.2783361023622047
11
0.9220472440944881
21
0.2809055118110236
0
LINE
8
BLACK
6
CONTINUOUS
10
0.9220472440944881
20
0.2809055118110236
11
0.9220472440944881
21
0.3202755905511811
0
LINE
8
BLACK
6
CONTINUOUS
10
0.9220472440944881
20
0.3202755905511811
11
0.9222156692913386
21
0.322845
0
LINE
8
BLACK
6
CONTINUOUS
10
0.9222156692913386
20
0.322845
11
0.9235456692913385
21
0.3278087401574803
0
LINE
8
BLACK
6
CONTINUOUS
10
0.9235456692913385
20
0.3278087401574803
11
0.9261150787401574
21
0.332259094488189
0
LINE
8
BLACK
6
CONTINUOUS
10
0.9261150787401574
20
0.332259094488189
11
0.9297487795275591
21
0.3358927952755905
0
LINE
8
BLACK
6
CONTINUOUS
10
0.9297487795275591
20
0.3358927952755905
11
0.9341991338582677
21
0.3384622047244095
0
LINE
8
BLACK
6
CONTINUOUS
10
0.9341991338582677
20
0.3384622047244095
11
0.9391628740157481
21
0.3397922047244095
0
LINE
8
BLACK
6
CONTINUOUS
10
0.9391628740157481
20
0.3397922047244095
11
0.9443016929133858
21
0.3397922047244095
0
LINE
8
BLACK
6
CONTINUOUS
10
0.9443016929133858
20
0.3397922047244095
11
0.9492654330708661
21
0.3384622047244095
0
LINE
8
BLACK
6
CONTINUOUS
10
0.4211031496062992
20
0.5242042125984252
11
0.4348769291338583
21
0.5210604330708661
0
LINE
8
BLACK
6
CONTINUOUS
10
0.4348769291338583
20
0.5210604330708661
11
0.4482120866141732
21
0.5163942913385826
0
LINE
8
BLACK
6
CONTINUOUS
10
0.4482120866141732
20
0.5163942913385826
11
0.4609409448818897
21
0.5102643700787401
0
LINE
8
BLACK
6
CONTINUOUS
10
0.4609409448818897
20
0.5102643700787401
11
0.4729034645669291
21
0.5027478346456693
0
LINE
8
BLACK
6
CONTINUOUS
10
0.4729034645669291
20
0.5027478346456693
11
0.4839491732283465
21
0.4939391732283465
0
LINE
8
BLACK
6
CONTINUOUS
10
0.4839491732283465
20
0.4939391732283465
11
0.4939391732283465
21
0.4839491732283465
0
LINE
8
BLACK
6
CONTINUOUS
10
0.4939391732283465
20
0.4839491732283465
11
0.5027478346456693
21
0.4729034645669291
0
LINE
8
BLACK
6
CONTINUOUS
10
0.5027478346456693
20
0.4729034645669291
11
0.5102643700787401
21
0.4609409448818897
0
LINE
8
BLACK
6
CONTINUOUS
10
0.5102643700787401
20
0.4609409448818897
11
0.5163942913385826
21
0.4482120866141732
0
LINE
8
BLACK
6
CONTINUOUS
10
0.5163942913385826
20
0.4482120866141732
11
0.5210604330708661
21
0.4348769291338583
0
LINE
8
BLACK
6
CONTINUOUS
10
0.5210604330708661
20
0.4348769291338583
11
0.5242042125984252
21
0.4211031496062992
0
LINE
8
BLACK
6
CONTINUOUS
10
0.5242042125984252
20
0.4211031496062992
11
0.5257860629921259
21
0.4070639763779528
0
LINE
8
BLACK
6
CONTINUOUS
10
0.5257860629921259
20
0.4070639763779528
11
0.5257860629921259
21
0.3929360236220472
0
LINE
8
BLACK
6
CONTINUOUS
10
0.5257860629921259
20
0.3929360236220472
11
0.5242042125984252
21
0.3788968503937008
0
LINE
8
BLACK
6
CONTINUOUS
10
0.5242042125984252
20
0.3788968503937008
11
0.5210604330708661
21
0.3651230708661417
0
LINE
8
BLACK
6
CONTINUOUS
10
0.5210604330708661
20
0.3651230708661417
11
0.5163942913385826
21
0.3517879133858268
0
LINE
8
BLACK
6
CONTINUOUS
10
0.5163942913385826
20
0.3517879133858268
11
0.5102643700787401
21
0.3390590551181102
0
LINE
8
BLACK
6
CONTINUOUS
10
0.5102643700787401
20
0.3390590551181102
11
0.5027478346456693
21
0.3270965354330709
0
LINE
8
BLACK
6
CONTINUOUS
10
0.5027478346456693
20
0.3270965354330709
11
0.4939391732283465
21
0.3160508267716535
0
LINE
8
BLACK
6
CONTINUOUS
10
0.4939391732283465
20
0.3160508267716535
11
0.4839491732283465
21
0.3060608267716535
0
LINE
8
BLACK
6
CONTINUOUS
10
0.4839491732283465
20
0.3060608267716535
11
0.4729034645669291
21
0.2972521653543307
0
LINE
8
BLACK
6
CONTINUOUS
10
0.4729034645669291
20
0.2972521653543307
11
0.4609409448818897
21
0.2897356299212598
0
LINE
8
BLACK
6
CONTINUOUS
10
0.4609409448818897
20
0.2897356299212598
11
0.4482120866141732
21
0.2836057086614173
0
LINE
8
BLACK
6
CONTINUOUS
10
0.4482120866141732
20
0.2836057086614173
11
0.4348769291338583
21
0.2789395669291339
0
LINE
8
BLACK
6
CONTINUOUS
10
0.4348769291338583
20
0.2789395669291339
11
0.4211031496062992
21
0.2757957874015748
0
LINE
8
BLACK
6
CONTINUOUS
10
0.4211031496062992
20
0.2757957874015748
11
0.4070639763779528
21
0.274213937007874
0
LINE
8
BLACK
6
CONTINUOUS
10
0.4070639763779528
20
0.274213937007874
11
0.3929360236220472
21
0.274213937007874
0
LINE
8
BLACK
6
CONTINUOUS
10
0.3929360236220472
20
0.274213937007874
11
0.3788968503937008
21
0.2757957874015748
0
LINE
8
BLACK
6
CONTINUOUS
10
0.3788968503937008
20
0.2757957874015748
11
0.3651230708661417
21
0.2789395669291339
0
LINE
8
BLACK
6
CONTINUOUS
10
0.3651230708661417
20
0.2789395669291339
11
0.3517879133858268
21
0.2836057086614173
0
LINE
8
BLACK
6
CONTINUOUS
10
0.3517879133858268
20
0.2836057086614173
11
0.3390590551181102
21
0.2897356299212598
0
LINE
8
BLACK
6
CONTINUOUS
10
0.3390590551181102
20
0.2897356299212598
11
0.3270965354330709
21
0.2972521653543307
0
LINE
8
BLACK
6
CONTINUOUS
10
0.3270965354330709
20
0.2972521653543307
11
0.3160508267716535
21
0.3060608267716535
0
LINE
8
BLACK
6
CONTINUOUS
10
0.3160508267716535
20
0.3060608267716535
11
0.3060608267716535
21
0.3160508267716535
0
LINE
8
BLACK
6
CONTINUOUS
10
0.3060608267716535
20
0.3160508267716535
11
0.2972521653543307
21
0.3270965354330709
0
LINE
8
BLACK
6
CONTINUOUS
10
0.2972521653543307
20
0.3270965354330709
11
0.2897356299212598
21
0.3390590551181102
0
LINE
8
BLACK
6
CONTINUOUS
10
0.2897356299212598
20
0.3390590551181102
11
0.2836057086614173
21
0.3517879133858268
0
LINE
8
BLACK
6
CONTINUOUS
10
0.2836057086614173
20
0.3517879133858268
11
0.2789395669291339
21
0.3651230708661417
0
LINE
8
BLACK
6
CONTINUOUS
10
0.2789395669291339
20
0.3651230708661417
11
0.2757957874015748
21
0.3788968503937008
0
LINE
8
BLACK
6
CONTINUOUS
10
0.2757957874015748
20
0.3788968503937008
11
0.274213937007874
21
0.3929360236220472
0
LINE
8
BLACK
6
CONTINUOUS
10
0.274213937007874
20
0.3929360236220472
11
0.274213937007874
21
0.4070639763779528
0
LINE
8
BLACK
6
CONTINUOUS
10
0.274213937007874
20
0.4070639763779528
11
0.2757957874015748
21
0.4211031496062992
0
LINE
8
BLACK
6
CONTINUOUS
10
0.2757957874015748
20
0.4211031496062992
11
0.2789395669291339
21
0.4348769291338583
0
LINE
8
BLACK
6
CONTINUOUS
10
0.2789395669291339
20
0.4348769291338583
11
0.2836057086614173
21
0.4482120866141732
0
LINE
8
BLACK
6
CONTINUOUS
10
0.2836057086614173
20
0.4482120866141732
11
0.2897356299212598
21
0.4609409448818897
0
LINE
8
BLACK
6
CONTINUOUS
10
0.2897356299212598
20
0.4609409448818897
11
0.2972521653543307
21
0.4729034645669291
0
LINE
8
BLACK
6
CONTINUOUS
10
0.2972521653543307
20
0.4729034645669291
11
0.3060608267716535
21
0.4839491732283465
0
LINE
8
BLACK
6
CONTINUOUS
10
0.3060608267716535
20
0.4839491732283465
11
0.3160508267716535
21
0.4939391732283465
0
LINE
8
BLACK
6
CONTINUOUS
10
0.3160508267716535
20
0.4939391732283465
11
0.3270965354330709
21
0.5027478346456693
0
LINE
8
BLACK
6
CONTINUOUS
10
0.3270965354330709
20
0.5027478346456693
11
0.3390590551181102
21
0.5102643700787401
0
LINE
8
BLACK
6
CONTINUOUS
10
0.3390590551181102
20
0.5102643700787401
11
0.3517879133858268
21
0.5163942913385826
0
LINE
8
BLACK
6
CONTINUOUS
10
0.3517879133858268
20
0.5163942913385826
11
0.3651230708661417
21
0.5210604330708661
0
LINE
8
BLACK
6
CONTINUOUS
10
0.3651230708661417
20
0.5210604330708661
11
0.3788968503937008
21
0.5242042125984252
0
LINE
8
BLACK
6
CONTINUOUS
10
0.3788968503937008
20
0.5242042125984252
11
0.3929360236220472
21
0.5257860629921259
0
LINE
8
BLACK
6
CONTINUOUS
10
0.3929360236220472
20
0.5257860629921259
11
0.4070639763779528
21
0.5257860629921259
0
LINE
8
BLACK
6
CONTINUOUS
10
0.4070639763779528
20
0.5257860629921259
11
0.4211031496062992
21
0.5242042125984252
0
LINE
8
BLACK
6
CONTINUOUS
10
2.021103149606299
20
0.5242042125984252
11
2.0348769291338584
21
0.5210604330708661
0
LINE
8
BLACK
6
CONTINUOUS
10
2.0348769291338584
20
0.5210604330708661
11
2.0482120866141731
21
0.5163942913385826
0
LINE
8
BLACK
6
CONTINUOUS
10
2.0482120866141731
20
0.5163942913385826
11
2.0609409448818896
21
0.5102643700787401
0
LINE
8
BLACK
6
CONTINUOUS
10
2.0609409448818896
20
0.5102643700787401
11
2.0729034645669291
21
0.5027478346456693
0
LINE
8
BLACK
6
CONTINUOUS
10
2.0729034645669291
20
0.5027478346456693
11
2.0839491732283464
21
0.4939391732283465
0
LINE
8
BLACK
6
CONTINUOUS
10
2.0839491732283464
20
0.4939391732283465
11
2.0939391732283466
21
0.4839491732283465
0
LINE
8
BLACK
6
CONTINUOUS
10
2.0939391732283466
20
0.4839491732283465
11
2.1027478346456694
21
0.4729034645669291
0
LINE
8
BLACK
6
CONTINUOUS
10
2.1027478346456694
20
0.4729034645669291
11
2.11026437007874
21
0.4609409448818897
0
LINE
8
BLACK
6
CONTINUOUS
10
2.11026437007874
20
0.4609409448818897
11
2.1163942913385827
21
0.4482120866141732
0
LINE
8
BLACK
6
CONTINUOUS
10
2.1163942913385827
20
0.4482120866141732
11
2.1210604330708662
21
0.4348769291338583
0
LINE
8
BLACK
6
CONTINUOUS
10
2.1210604330708662
20
0.4348769291338583
11
2.1242042125984253
21
0.4211031496062992
0
LINE
8
BLACK
6
CONTINUOUS
10
2.1242042125984253
20
0.4211031496062992
11
2.1257860629921259
21
0.4070639763779528
0
LINE
8
BLACK
6
CONTINUOUS
10
2.1257860629921259
20
0.4070639763779528
11
2.1257860629921259
21
0.3929360236220472
0
LINE
8
BLACK
6
CONTINUOUS
10
2.1257860629921259
20
0.3929360236220472
11
2.1242042125984253
21
0.3788968503937008
0
LINE
8
BLACK
6
CONTINUOUS
10
2.1242042125984253
20
0.3788968503937008
11
2.1210604330708662
21
0.3651230708661417
0
LINE
8
BLACK
6
CONTINUOUS
10
2.1210604330708662
20
0.3651230708661417
11
2.1163942913385827
21
0.3517879133858268
0
LINE
8
BLACK
6
CONTINUOUS
10
2.1163942913385827
20
0.3517879133858268
11
2.11026437007874
21
0.3390590551181102
0
LINE
8
BLACK
6
CONTINUOUS
10
2.11026437007874
20
0.3390590551181102
11
2.1027478346456694
21
0.3270965354330709
0
LINE
8
BLACK
6
CONTINUOUS
10
2.1027478346456694
20
0.3270965354330709
11
2.0939391732283466
21
0.3160508267716535
0
LINE
8
BLACK
6
CONTINUOUS
10
2.0939391732283466
20
0.3160508267716535
11
2.0839491732283464
21
0.3060608267716535
0
LINE
8
BLACK
6
CONTINUOUS
10
2.0839491732283464
20
0.3060608267716535
11
2.0729034645669291
21
0.2972521653543307
0
LINE
8
BLACK
6
CONTINUOUS
10
2.0729034645669291
20
0.2972521653543307
11
2.0609409448818896
21
0.2897356299212598
0
LINE
8
BLACK
6
CONTINUOUS
10
2.0609409448818896
20
0.2897356299212598
11
2.0482120866141731
21
0.2836057086614173
0
LINE
8
BLACK
6
CONTINUOUS
10
2.0482120866141731
20
0.2836057086614173
11
2.0348769291338584
21
0.2789395669291339
0
LINE
8
BLACK
6
CONTINUOUS
10
2.0348769291338584
20
0.2789395669291339
11
2.021103149606299
21
0.2757957874015748
0
LINE
8
BLACK
6
CONTINUOUS
10
2.021103149606299
20
0.2757957874015748
11
2.0070639763779528
21
0.274213937007874
0
LINE
8
BLACK
6
CONTINUOUS
10
2.0070639763779528
20
0.274213937007874
11
1.9929360236220472
21
0.274213937007874
0
LINE
8
BLACK
6
CONTINUOUS
10
1.9929360236220472
20
0.274213937007874
11
1.9788968503937008
21
0.2757957874015748
0
LINE
8
BLACK
6
CONTINUOUS
10
1.9788968503937008
20
0.2757957874015748
11
1.9651230708661418
21
0.2789395669291339
0
LINE
8
BLACK
6
CONTINUOUS
10
1.9651230708661418
20
0.2789395669291339
11
1.9517879133858267
21
0.2836057086614173
0
LINE
8
BLACK
6
CONTINUOUS
10
1.9517879133858267
20
0.2836057086614173
11
1.9390590551181102
21
0.2897356299212598
0
LINE
8
BLACK
6
CONTINUOUS
10
1.9390590551181102
20
0.2897356299212598
11
1.9270965354330709
21
0.2972521653543307
0
LINE
8
BLACK
6
CONTINUOUS
10
1.9270965354330709
20
0.2972521653543307
11
1.9160508267716534
21
0.3060608267716535
0
LINE
8
BLACK
6
CONTINUOUS
10
1.9160508267716534
20
0.3060608267716535
11
1.9060608267716534
21
0.3160508267716535
0
LINE
8
BLACK
6
CONTINUOUS
10
1.9060608267716534
20
0.3160508267716535
11
1.8972521653543306
21
0.3270965354330709
0
LINE
8
BLACK
6
CONTINUOUS
10
1.8972521653543306
20
0.3270965354330709
11
1.8897356299212598
21
0.3390590551181102
0
LINE
8
BLACK
6
CONTINUOUS
10
1.8897356299212598
20
0.3390590551181102
11
1.8836057086614173
21
0.3517879133858268
0
LINE
8
BLACK
6
CONTINUOUS
10
1.8836057086614173
20
0.3517879133858268
11
1.8789395669291338
21
0.3651230708661417
0
LINE
8
BLACK
6
CONTINUOUS
10
1.8789395669291338
20
0.3651230708661417
11
1.8757957874015747
21
0.3788968503937008
0
LINE
8
BLACK
6
CONTINUOUS
10
1.8757957874015747
20
0.3788968503937008
11
1.8742139370078739
21
0.3929360236220472
0
LINE
8
BLACK
6
CONTINUOUS
10
1.8742139370078739
20
0.3929360236220472
11
1.8742139370078739
21
0.4070639763779528
0
LINE
8
BLACK
6
CONTINUOUS
10
1.8742139370078739
20
0.4070639763779528
11
1.8757957874015747
21
0.4211031496062992
0
LINE
8
BLACK
6
CONTINUOUS
10
1.8757957874015747
20
0.4211031496062992
11
1.8789395669291338
21
0.4348769291338583
0
LINE
8
BLACK
6
CONTINUOUS
10
1.8789395669291338
20
0.4348769291338583
11
1.8836057086614173
21
0.4482120866141732
0
LINE
8
BLACK
6
CONTINUOUS
10
1.8836057086614173
20
0.4482120866141732
11
1.8897356299212598
21
0.4609409448818897
0
LINE
8
BLACK
6
CONTINUOUS
10
1.8897356299212598
20
0.4609409448818897
11
1.8972521653543306
21
0.4729034645669291
0
LINE
8
BLACK
6
CONTINUOUS
10
1.8972521653543306
20
0.4729034645669291
11
1.9060608267716534
21
0.4839491732283465
0
LINE
8
BLACK
6
CONTINUOUS
10
1.9060608267716534
20
0.4839491732283465
11
1.9160508267716534
21
0.4939391732283465
0
LINE
8
BLACK
6
CONTINUOUS
10
1.9160508267716534
20
0.4939391732283465
11
1.9270965354330709
21
0.5027478346456693
0
LINE
8
BLACK
6
CONTINUOUS
10
1.9270965354330709
20
0.5027478346456693
11
1.9390590551181102
21
0.5102643700787401
0
LINE
8
BLACK
6
CONTINUOUS
10
1.9390590551181102
20
0.5102643700787401
11
1.9517879133858267
21
0.5163942913385826
0
LINE
8
BLACK
6
CONTINUOUS
10
1.9517879133858267
20
0.5163942913385826
11
1.9651230708661418
21
0.5210604330708661
0
LINE
8
BLACK
6
CONTINUOUS
10
1.9651230708661418
20
0.5210604330708661
11
1.9788968503937008
21
0.5242042125984252
0
LINE
8
BLACK
6
CONTINUOUS
10
1.9788968503937008
20
0.5242042125984252
11
1.9929360236220472
21
0.5257860629921259
0
LINE
8
BLACK
6
CONTINUOUS
10
1.9929360236220472
20
0.5257860629921259
11
2.0070639763779528
21
0.5257860629921259
0
LINE
8
BLACK
6
CONTINUOUS
10
2.0070639763779528
20
0.5257860629921259
11
2.021103149606299
21
0.5242042125984252
0
LINE
8
BLACK
6
CONTINUOUS
10
1.0823622047244095
20
0.3518897637795276
11
1.0223622047244094
21
0.3518897637795276
0
LINE
8
BLACK
6
CONTINUOUS
10
1.0223622047244094
20
0.3518897637795276
11
1.0223622047244094
21
0.4118897637795276
0
LINE
8
BLACK
6
CONTINUOUS
10
1.0223622047244094
20
0.4118897637795276
11
1.0823622047244095
21
0.4118897637795276
0
LINE
8
BLACK
6
CONTINUOUS
10
1.0823622047244095
20
0.4118897637795276
11
1.0823622047244095
21
0.3518897637795276
0
LINE
8
BLACK
6
CONTINUOUS
10
1.1823622047244093
20
0.3518897637795276
11
1.1223622047244095
21
0.3518897637795276
0
LINE
8
BLACK
6
CONTINUOUS
10
1.1223622047244095
20
0.3518897637795276
11
1.1223622047244095
21
0.4118897637795276
0
LINE
8
BLACK
6
CONTINUOUS
10
1.1223622047244095
20
0.4118897637795276
11
1.1823622047244093
21
0.4118897637795276
0
LINE
8
BLACK
6
CONTINUOUS
10
1.1823622047244093
20
0.4118897637795276
11
1.1823622047244093
21
0.3518897637795276
0
LINE
8
BLACK
6
CONTINUOUS
10
1.5823622047244095
20
0.3558267716535433
11
1.5223622047244094
21
0.3558267716535433
0
LINE
8
BLACK
6
CONTINUOUS
10
1.5223622047244094
20
0.3558267716535433
11
1.5223622047244094
21
0.4158267716535433
0
LINE
8
BLACK
6
CONTINUOUS
10
1.5223622047244094
20
0.4158267716535433
11
1.5823622047244095
21
0.4158267716535433
0
LINE
8
BLACK
6
CONTINUOUS
10
1.5823622047244095
20
0.4158267716535433
11
1.5823622047244095
21
0.3558267716535433
0
LINE
8
BLACK
6
CONTINUOUS
10
1.6823622047244093
20
0.3558267716535433
11
1.6223622047244095
21
0.3558267716535433
0
LINE
8
BLACK
6
CONTINUOUS
10
1.6223622047244095
20
0.3558267716535433
11
1.6223622047244095
21
0.4158267716535433
0
LINE
8
BLACK
6
CONTINUOUS
10
1.6223622047244095
20
0.4158267716535433
11
1.6823622047244093
21
0.4158267716535433
0
LINE
8
BLACK
6
CONTINUOUS
10
1.6823622047244093
20
0.4158267716535433
11
1.6823622047244093
21
0.3558267716535433
0
LINE
8
BLACK
6
CONTINUOUS
10
0.6094846062992126
20
0.5049227165354331
11
0.6141574803149606
21
0.502224842519685
0
LINE
8
BLACK
6
CONTINUOUS
10
0.6141574803149606
20
0.502224842519685
11
0.617972874015748
21
0.4984094488188976
0
LINE
8
BLACK
6
CONTINUOUS
10
0.617972874015748
20
0.4984094488188976
11
0.620670748031496
21
0.4937365748031496
0
LINE
8
BLACK
6
CONTINUOUS
10
0.620670748031496
20
0.4937365748031496
11
0.622067283464567
21
0.4885246456692913
0
LINE
8
BLACK
6
CONTINUOUS
10
0.622067283464567
20
0.4885246456692913
11
0.622244094488189
21
0.4858267716535433
0
LINE
8
BLACK
6
CONTINUOUS
10
0.622244094488189
20
0.4858267716535433
11
0.622244094488189
21
0.4444881889763779
0
LINE
8
BLACK
6
CONTINUOUS
10
0.622244094488189
20
0.4444881889763779
11
0.622067283464567
21
0.4417903149606299
0
LINE
8
BLACK
6
CONTINUOUS
10
0.622067283464567
20
0.4417903149606299
11
0.620670748031496
21
0.4365783858267717
0
LINE
8
BLACK
6
CONTINUOUS
10
0.620670748031496
20
0.4365783858267717
11
0.617972874015748
21
0.4319055118110236
0
LINE
8
BLACK
6
CONTINUOUS
10
0.617972874015748
20
0.4319055118110236
11
0.6141574803149606
21
0.4280901181102362
0
LINE
8
BLACK
6
CONTINUOUS
10
0.6141574803149606
20
0.4280901181102362
11
0.6094846062992126
21
0.4253922440944882
0
LINE
8
BLACK
6
CONTINUOUS
10
0.6094846062992126
20
0.4253922440944882
11
0.6042726771653543
21
0.4239957086614173
0
LINE
8
BLACK
6
CONTINUOUS
10
0.6042726771653543
20
0.4239957086614173
11
0.5988769291338583
21
0.4239957086614173
0
LINE
8
BLACK
6
CONTINUOUS
10
0.5988769291338583
20
0.4239957086614173
11
0.593665
21
0.4253922440944882
0
LINE
8
BLACK
6
CONTINUOUS
10
0.593665
20
0.4253922440944882
11
0.588992125984252
21
0.4280901181102362
0
LINE
8
BLACK
6
CONTINUOUS
10
0.588992125984252
20
0.4280901181102362
11
0.5851767322834646
21
0.4319055118110236
0
LINE
8
BLACK
6
CONTINUOUS
10
0.5851767322834646
20
0.4319055118110236
11
0.5824788582677165
21
0.4365783858267717
0
LINE
8
BLACK
6
CONTINUOUS
10
0.5824788582677165
20
0.4365783858267717
11
0.5810823228346457
21
0.4417903149606299
0
LINE
8
BLACK
6
CONTINUOUS
10
0.5810823228346457
20
0.4417903149606299
11
0.5809055118110236
21
0.4444881889763779
0
LINE
8
BLACK
6
CONTINUOUS
10
0.5809055118110236
20
0.4444881889763779
11
0.5809055118110236
21
0.4858267716535433
0
LINE
8
BLACK
6
CONTINUOUS
10
0.5809055118110236
20
0.4858267716535433
11
0.5810823228346457
21
0.4885246456692913
0
LINE
8
BLACK
6
CONTINUOUS
10
0.5810823228346457
20
0.4885246456692913
11
0.5824788582677165
21
0.4937365748031496
0
LINE
8
BLACK
6
CONTINUOUS
10
0.5824788582677165
20
0.4937365748031496
11
0.5851767322834646
21
0.4984094488188976
0
LINE
8
BLACK
6
CONTINUOUS
10
0.5851767322834646
20
0.4984094488188976
11
0.588992125984252
21
0.502224842519685
0
LINE
8
BLACK
6
CONTINUOUS
10
0.588992125984252
20
0.502224842519685
11
0.593665
21
0.5049227165354331
0
LINE
8
BLACK
6
CONTINUOUS
10
0.593665
20
0.5049227165354331
11
0.5988769291338583
21
0.5063192519685039
0
LINE
8
BLACK
6
CONTINUOUS
10
0.5988769291338583
20
0.5063192519685039
11
0.6042726771653543
21
0.5063192519685039
0
LINE
8
BLACK
6
CONTINUOUS
10
0.6042726771653543
20
0.5063192519685039
11
0.6094846062992126
21
0.5049227165354331
0
LINE
8
BLACK
6
CONTINUOUS
10
0.9496420866141732
20
0.5049227165354331
11
0.9543149606299213
21
0.502224842519685
0
LINE
8
BLACK
6
CONTINUOUS
10
0.9543149606299213
20
0.502224842519685
11
0.9581303543307086
21
0.4984094488188976
0
LINE
8
BLACK
6
CONTINUOUS
10
0.9581303543307086
20
0.4984094488188976
11
0.9608282283464566
21
0.4937365748031496
0
LINE
8
BLACK
6
CONTINUOUS
10
0.9608282283464566
20
0.4937365748031496
11
0.9622247637795276
21
0.4885246456692913
0
LINE
8
BLACK
6
CONTINUOUS
10
0.9622247637795276
20
0.4885246456692913
11
0.9624015748031496
21
0.4858267716535433
0
LINE
8
BLACK
6
CONTINUOUS
10
0.9624015748031496
20
0.4858267716535433
11
0.9624015748031496
21
0.4444881889763779
0
LINE
8
BLACK
6
CONTINUOUS
10
0.9624015748031496
20
0.4444881889763779
11
0.9622247637795276
21
0.4417903149606299
0
LINE
8
BLACK
6
CONTINUOUS
10
0.9622247637795276
20
0.4417903149606299
11
0.9608282283464566
21
0.4365783858267717
0
LINE
8
BLACK
6
CONTINUOUS
10
0.9608282283464566
20
0.4365783858267717
11
0.9581303543307086
21
0.4319055118110236
0
LINE
8
BLACK
6
CONTINUOUS
10
0.9581303543307086
20
0.4319055118110236
11
0.9543149606299213
21
0.4280901181102362
0
LINE
8
BLACK
6
CONTINUOUS
10
0.9543149606299213
20
0.4280901181102362
11
0.9496420866141732
21
0.4253922440944882
0
LINE
8
BLACK
6
CONTINUOUS
10
0.9496420866141732
20
0.4253922440944882
11
0.9444301574803149
21
0.4239957086614173
0
LINE
8
BLACK
6
CONTINUOUS
10
0.9444301574803149
20
0.4239957086614173
11
0.9390344094488189
21
0.4239957086614173
0
LINE
8
BLACK
6
CONTINUOUS
10
0.9390344094488189
20
0.4239957086614173
11
0.9338224803149606
21
0.4253922440944882
0
LINE
8
BLACK
6
CONTINUOUS
10
0.9338224803149606
20
0.4253922440944882
11
0.9291496062992126
21
0.4280901181102362
0
LINE
8
BLACK
6
CONTINUOUS
10
0.9291496062992126
20
0.4280901181102362
11
0.9253342125984252
21
0.4319055118110236
0
LINE
8
BLACK
6
CONTINUOUS
10
0.9253342125984252
20
0.4319055118110236
11
0.9226363385826771
21
0.4365783858267717
0
LINE
8
BLACK
6
CONTINUOUS
10
0.9226363385826771
20
0.4365783858267717
11
0.9212398031496063
21
0.4417903149606299
0
LINE
8
BLACK
6
CONTINUOUS
10
0.9212398031496063
20
0.4417903149606299
11
0.9210629921259842
21
0.4444881889763779
0
LINE
8
BLACK
6
CONTINUOUS
10
0.9210629921259842
20
0.4444881889763779
11
0.9210629921259842
21
0.4858267716535433
0
LINE
8
BLACK
6
CONTINUOUS
10
0.9210629921259842
20
0.4858267716535433
11
0.9212398031496063
21
0.4885246456692913
0
LINE
8
BLACK
6
CONTINUOUS
10
0.9212398031496063
20
0.4885246456692913
11
0.9226363385826771
21
0.4937365748031496
0
LINE
8
BLACK
6
CONTINUOUS
10
0.9226363385826771
20
0.4937365748031496
11
0.9253342125984252
21
0.4984094488188976
0
LINE
8
BLACK
6
CONTINUOUS
10
0.9253342125984252
20
0.4984094488188976
11
0.9291496062992126
21
0.502224842519685
0
LINE
8
BLACK
6
CONTINUOUS
10
0.9291496062992126
20
0.502224842519685
11
0.9338224803149606
21
0.5049227165354331
0
LINE
8
BLACK
6
CONTINUOUS
10
0.9338224803149606
20
0.5049227165354331
11
0.9390344094488189
21
0.5063192519685039
0
LINE
8
BLACK
6
CONTINUOUS
10
0.9390344094488189
20
0.5063192519685039
11
0.9444301574803149
21
0.5063192519685039
0
LINE
8
BLACK
6
CONTINUOUS
10
0.9444301574803149
20
0.5063192519685039
11
0.9496420866141732
21
0.5049227165354331
0
LINE
8
BLACK
6
CONTINUOUS
10
0.6627705511811024
20
0.4572937401574803
11
0.6656632677165354
21
0.4556236220472441
0
LINE
8
BLACK
6
CONTINUOUS
10
0.6656632677165354
20
0.4556236220472441
11
0.6680251968503936
21
0.4532616929133858
0
LINE
8
BLACK
6
CONTINUOUS
10
0.6680251968503936
20
0.4532616929133858
11
0.66969531496063
21
0.4503689763779528
0
LINE
8
BLACK
6
CONTINUOUS
10
0.66969531496063
20
0.4503689763779528
11
0.670559842519685
21
0.4471425590551181
0
LINE
8
BLACK
6
CONTINUOUS
10
0.670559842519685
20
0.4471425590551181
11
0.670559842519685
21
0.4438023228346457
0
LINE
8
BLACK
6
CONTINUOUS
10
0.670559842519685
20
0.4438023228346457
11
0.66969531496063
21
0.440575905511811
0
LINE
8
BLACK
6
CONTINUOUS
10
0.66969531496063
20
0.440575905511811
11
0.6680251968503936
21
0.4376831889763779
0
LINE
8
BLACK
6
CONTINUOUS
10
0.6680251968503936
20
0.4376831889763779
11
0.6656632677165354
21
0.4353212598425197
0
LINE
8
BLACK
6
CONTINUOUS
10
0.6656632677165354
20
0.4353212598425197
11
0.6627705511811024
21
0.4336511417322835
0
LINE
8
BLACK
6
CONTINUOUS
10
0.6627705511811024
20
0.4336511417322835
11
0.6595441338582677
21
0.4327866141732283
0
LINE
8
BLACK
6
CONTINUOUS
10
0.6595441338582677
20
0.4327866141732283
11
0.6562038976377953
21
0.4327866141732283
0
LINE
8
BLACK
6
CONTINUOUS
10
0.6562038976377953
20
0.4327866141732283
11
0.6529774803149606
21
0.4336511417322835
0
LINE
8
BLACK
6
CONTINUOUS
10
0.6529774803149606
20
0.4336511417322835
11
0.6500847637795275
21
0.4353212598425197
0
LINE
8
BLACK
6
CONTINUOUS
10
0.6500847637795275
20
0.4353212598425197
11
0.6477228346456693
21
0.4376831889763779
0
LINE
8
BLACK
6
CONTINUOUS
10
0.6477228346456693
20
0.4376831889763779
11
0.6460527165354331
21
0.440575905511811
0
LINE
8
BLACK
6
CONTINUOUS
10
0.6460527165354331
20
0.440575905511811
11
0.645188188976378
21
0.4438023228346457
0
LINE
8
BLACK
6
CONTINUOUS
10
0.645188188976378
20
0.4438023228346457
11
0.645188188976378
21
0.4471425590551181
0
LINE
8
BLACK
6
CONTINUOUS
10
0.645188188976378
20
0.4471425590551181
11
0.6460527165354331
21
0.4503689763779528
0
LINE
8
BLACK
6
CONTINUOUS
10
0.6460527165354331
20
0.4503689763779528
11
0.6477228346456693
21
0.4532616929133858
0
LINE
8
BLACK
6
CONTINUOUS
10
0.6477228346456693
20
0.4532616929133858
11
0.6500847637795275
21
0.4556236220472441
0
LINE
8
BLACK
6
CONTINUOUS
10
0.6500847637795275
20
0.4556236220472441
11
0.6529774803149606
21
0.4572937401574803
0
LINE
8
BLACK
6
CONTINUOUS
10
0.6529774803149606
20
0.4572937401574803
11
0.6562038976377953
21
0.4581582677165355
0
LINE
8
BLACK
6
CONTINUOUS
10
0.6562038976377953
20
0.4581582677165355
11
0.6595441338582677
21
0.4581582677165355
0
LINE
8
BLACK
6
CONTINUOUS
10
0.6595441338582677
20
0.4581582677165355
11
0.6627705511811024
21
0.4572937401574803
0
LINE
8
BLACK
6
CONTINUOUS
10
0.8903296062992125
20
0.4572937401574803
11
0.8932223228346456
21
0.4556236220472441
0
LINE
8
BLACK
6
CONTINUOUS
10
0.8932223228346456
20
0.4556236220472441
11
0.8955842519685039
21
0.4532616929133858
0
LINE
8
BLACK
6
CONTINUOUS
10
0.8955842519685039
20
0.4532616929133858
11
0.8972543700787401
21
0.4503689763779528
0
LINE
8
BLACK
6
CONTINUOUS
10
0.8972543700787401
20
0.4503689763779528
11
0.8981188976377953
21
0.4471425590551181
0
LINE
8
BLACK
6
CONTINUOUS
10
0.8981188976377953
20
0.4471425590551181
11
0.8981188976377953
21
0.4438023228346457
0
LINE
8
BLACK
6
CONTINUOUS
10
0.8981188976377953
20
0.4438023228346457
11
0.8972543700787401
21
0.440575905511811
0
LINE
8
BLACK
6
CONTINUOUS
10
0.8972543700787401
20
0.440575905511811
11
0.8955842519685039
21
0.4376831889763779
0
LINE
8
BLACK
6
CONTINUOUS
10
0.8955842519685039
20
0.4376831889763779
11
0.8932223228346456
21
0.4353212598425197
0
LINE
8
BLACK
6
CONTINUOUS
10
0.8932223228346456
20
0.4353212598425197
11
0.8903296062992125
21
0.4336511417322835
0
LINE
8
BLACK
6
CONTINUOUS
10
0.8903296062992125
20
0.4336511417322835
11
0.887103188976378
21
0.4327866141732283
0
LINE
8
BLACK
6
CONTINUOUS
10
0.887103188976378
20
0.4327866141732283
11
0.8837629527559054
21
0.4327866141732283
0
LINE
8
BLACK
6
CONTINUOUS
10
0.8837629527559054
20
0.4327866141732283
11
0.8805365354330709
21
0.4336511417322835
0
LINE
8
BLACK
6
CONTINUOUS
10
0.8805365354330709
20
0.4336511417322835
11
0.8776438188976378
21
0.4353212598425197
0
LINE
8
BLACK
6
CONTINUOUS
10
0.8776438188976378
20
0.4353212598425197
11
0.8752818897637795
21
0.4376831889763779
0
LINE
8
BLACK
6
CONTINUOUS
10
0.8752818897637795
20
0.4376831889763779
11
0.8736117716535433
21
0.440575905511811
0
LINE
8
BLACK
6
CONTINUOUS
10
0.8736117716535433
20
0.440575905511811
11
0.8727472440944881
21
0.4438023228346457
0
LINE
8
BLACK
6
CONTINUOUS
10
0.8727472440944881
20
0.4438023228346457
11
0.8727472440944881
21
0.4471425590551181
0
LINE
8
BLACK
6
CONTINUOUS
10
0.8727472440944881
20
0.4471425590551181
11
0.8736117716535433
21
0.4503689763779528
0
LINE
8
BLACK
6
CONTINUOUS
10
0.8736117716535433
20
0.4503689763779528
11
0.8752818897637795
21
0.4532616929133858
0
LINE
8
BLACK
6
CONTINUOUS
10
0.8752818897637795
20
0.4532616929133858
11
0.8776438188976378
21
0.4556236220472441
0
LINE
8
BLACK
6
CONTINUOUS
10
0.8776438188976378
20
0.4556236220472441
11
0.8805365354330709
21
0.4572937401574803
0
LINE
8
BLACK
6
CONTINUOUS
10
0.8805365354330709
20
0.4572937401574803
11
0.8837629527559054
21
0.4581582677165355
0
LINE
8
BLACK
6
CONTINUOUS
10
0.8837629527559054
20
0.4581582677165355
11
0.887103188976378
21
0.4581582677165355
0
LINE
8
BLACK
6
CONTINUOUS
10
0.887103188976378
20
0.4581582677165355
11
0.8903296062992125
21
0.4572937401574803
0
LINE
8
BLACK
6
CONTINUOUS
10
1.0823622047244095
20
0.4518897637795276
11
1.0223622047244094
21
0.4518897637795276
0
LINE
8
BLACK
6
CONTINUOUS
10
1.0223622047244094
20
0.4518897637795276
11
1.0223622047244094
21
0.5118897637795276
0
LINE
8
BLACK
6
CONTINUOUS
10
1.0223622047244094
20
0.5118897637795276
11
1.0823622047244095
21
0.5118897637795276
0
LINE
8
BLACK
6
CONTINUOUS
10
1.0823622047244095
20
0.5118897637795276
11
1.0823622047244095
21
0.4518897637795276
0
LINE
8
BLACK
6
CONTINUOUS
10
1.1823622047244093
20
0.4518897637795276
11
1.1223622047244095
21
0.4518897637795276
0
LINE
8
BLACK
6
CONTINUOUS
10
1.1223622047244095
20
0.4518897637795276
11
1.1223622047244095
21
0.5118897637795276
0
LINE
8
BLACK
6
CONTINUOUS
10
1.1223622047244095
20
0.5118897637795276
11
1.1823622047244093
21
0.5118897637795276
0
LINE
8
BLACK
6
CONTINUOUS
10
1.1823622047244093
20
0.5118897637795276
11
1.1823622047244093
21
0.4518897637795276
0
LINE
8
BLACK
6
CONTINUOUS
10
1.5823622047244095
20
0.4558267716535433
11
1.5223622047244094
21
0.4558267716535433
0
LINE
8
BLACK
6
CONTINUOUS
10
1.5223622047244094
20
0.4558267716535433
11
1.5223622047244094
21
0.5158267716535433
0
LINE
8
BLACK
6
CONTINUOUS
10
1.5223622047244094
20
0.5158267716535433
11
1.5823622047244095
21
0.5158267716535433
0
LINE
8
BLACK
6
CONTINUOUS
10
1.5823622047244095
20
0.5158267716535433
11
1.5823622047244095
21
0.4558267716535433
0
LINE
8
BLACK
6
CONTINUOUS
10
1.6823622047244093
20
0.4558267716535433
11
1.6223622047244095
21
0.4558267716535433
0
LINE
8
BLACK
6
CONTINUOUS
10
1.6223622047244095
20
0.4558267716535433
11
1.6223622047244095
21
0.5158267716535433
0
LINE
8
BLACK
6
CONTINUOUS
10
1.6223622047244095
20
0.5158267716535433
11
1.6823622047244093
21
0.5158267716535433
0
LINE
8
BLACK
6
CONTINUOUS
10
1.6823622047244093
20
0.5158267716535433
11
1.6823622047244093
21
0.4558267716535433
0
LINE
8
BLACK
6
CONTINUOUS
10
1.4636129921259842
20
0.6991768897637796
11
1.4703868897637795
21
0.6963710629921259
0
LINE
8
BLACK
6
CONTINUOUS
10
1.4703868897637795
20
0.6963710629921259
11
1.4764832283464566
21
0.6922976377952755
0
LINE
8
BLACK
6
CONTINUOUS
10
1.4764832283464566
20
0.6922976377952755
11
1.4816677165354331
21
0.6871131496062992
0
LINE
8
BLACK
6
CONTINUOUS
10
1.4816677165354331
20
0.6871131496062992
11
1.4857411417322834
21
0.681016811023622
0
LINE
8
BLACK
6
CONTINUOUS
10
1.4857411417322834
20
0.681016811023622
11
1.488546968503937
21
0.6742429133858268
0
LINE
8
BLACK
6
CONTINUOUS
10
1.488546968503937
20
0.6742429133858268
11
1.4899773622047243
21
0.667051811023622
0
LINE
8
BLACK
6
CONTINUOUS
10
1.4899773622047243
20
0.667051811023622
11
1.4901574803149606
21
0.6633858267716535
0
LINE
8
BLACK
6
CONTINUOUS
10
1.4901574803149606
20
0.6633858267716535
11
1.4901574803149606
21
0.6437007874015748
0
LINE
8
BLACK
6
CONTINUOUS
10
1.4901574803149606
20
0.6437007874015748
11
1.4899773622047243
21
0.6400348031496063
0
LINE
8
BLACK
6
CONTINUOUS
10
1.4899773622047243
20
0.6400348031496063
11
1.488546968503937
21
0.6328437007874016
0
LINE
8
BLACK
6
CONTINUOUS
10
1.488546968503937
20
0.6328437007874016
11
1.4857411417322834
21
0.6260698031496063
0
LINE
8
BLACK
6
CONTINUOUS
10
1.4857411417322834
20
0.6260698031496063
11
1.4816677165354331
21
0.6199734645669291
0
LINE
8
BLACK
6
CONTINUOUS
10
1.4816677165354331
20
0.6199734645669291
11
1.4764832283464566
21
0.6147889763779527
0
LINE
8
BLACK
6
CONTINUOUS
10
1.4764832283464566
20
0.6147889763779527
11
1.4703868897637795
21
0.6107155511811023
0
LINE
8
BLACK
6
CONTINUOUS
10
1.4703868897637795
20
0.6107155511811023
11
1.4636129921259842
21
0.6079097244094488
0
LINE
8
BLACK
6
CONTINUOUS
10
1.4636129921259842
20
0.6079097244094488
11
1.4564218897637795
21
0.6064793307086614
0
LINE
8
BLACK
6
CONTINUOUS
10
1.4564218897637795
20
0.6064793307086614
11
1.4490899212598425
21
0.6064793307086614
0
LINE
8
BLACK
6
CONTINUOUS
10
1.4490899212598425
20
0.6064793307086614
11
1.4418988188976378
21
0.6079097244094488
0
LINE
8
BLACK
6
CONTINUOUS
10
1.4418988188976378
20
0.6079097244094488
11
1.4351249212598425
21
0.6107155511811023
0
LINE
8
BLACK
6
CONTINUOUS
10
1.4351249212598425
20
0.6107155511811023
11
1.4290285826771654
21
0.6147889763779527
0
LINE
8
BLACK
6
CONTINUOUS
10
1.4290285826771654
20
0.6147889763779527
11
1.4238440944881889
21
0.6199734645669291
0
LINE
8
BLACK
6
CONTINUOUS
10
1.4238440944881889
20
0.6199734645669291
11
1.4197706692913385
21
0.6260698031496063
0
LINE
8
BLACK
6
CONTINUOUS
10
1.4197706692913385
20
0.6260698031496063
11
1.416964842519685
21
0.6328437007874016
0
LINE
8
BLACK
6
CONTINUOUS
10
1.416964842519685
20
0.6328437007874016
11
1.4155344488188977
21
0.6400348031496063
0
LINE
8
BLACK
6
CONTINUOUS
10
1.4155344488188977
20
0.6400348031496063
11
1.4153543307086613
21
0.6437007874015748
0
LINE
8
BLACK
6
CONTINUOUS
10
1.4153543307086613
20
0.6437007874015748
11
1.4153543307086613
21
0.6633858267716535
0
LINE
8
BLACK
6
CONTINUOUS
10
1.4153543307086613
20
0.6633858267716535
11
1.4155344488188977
21
0.667051811023622
0
LINE
8
BLACK
6
CONTINUOUS
10
1.4155344488188977
20
0.667051811023622
11
1.416964842519685
21
0.6742429133858268
0
LINE
8
BLACK
6
CONTINUOUS
10
1.416964842519685
20
0.6742429133858268
11
1.4197706692913385
21
0.681016811023622
0
LINE
8
BLACK
6
CONTINUOUS
10
1.4197706692913385
20
0.681016811023622
11
1.4238440944881889
21
0.6871131496062992
0
LINE
8
BLACK
6
CONTINUOUS
10
1.4238440944881889
20
0.6871131496062992
11
1.4290285826771654
21
0.6922976377952755
0
LINE
8
BLACK
6
CONTINUOUS
10
1.4290285826771654
20
0.6922976377952755
11
1.4351249212598425
21
0.6963710629921259
0
LINE
8
BLACK
6
CONTINUOUS
10
1.4351249212598425
20
0.6963710629921259
11
1.4418988188976378
21
0.6991768897637796
0
LINE
8
BLACK
6
CONTINUOUS
10
1.4418988188976378
20
0.6991768897637796
11
1.4490899212598425
21
0.7006072834645669
0
LINE
8
BLACK
6
CONTINUOUS
10
1.4490899212598425
20
0.7006072834645669
11
1.4564218897637795
21
0.7006072834645669
0
LINE
8
BLACK
6
CONTINUOUS
10
1.4564218897637795
20
0.7006072834645669
11
1.4636129921259842
21
0.6991768897637796
0
LINE
8
BLACK
6
CONTINUOUS
10
1.6683374015748031
20
0.6991768897637796
11
1.6751112992125985
21
0.6963710629921259
0
LINE
8
BLACK
6
CONTINUOUS
10
1.6751112992125985
20
0.6963710629921259
11
1.6812076377952756
21
0.6922976377952755
0
LINE
8
BLACK
6
CONTINUOUS
10
1.6812076377952756
20
0.6922976377952755
11
1.686392125984252
21
0.6871131496062992
0
LINE
8
BLACK
6
CONTINUOUS
10
1.686392125984252
20
0.6871131496062992
11
1.6904655511811024
21
0.681016811023622
0
LINE
8
BLACK
6
CONTINUOUS
10
1.6904655511811024
20
0.681016811023622
11
1.693271377952756
21
0.6742429133858268
0
LINE
8
BLACK
6
CONTINUOUS
10
1.693271377952756
20
0.6742429133858268
11
1.6947017716535433
21
0.667051811023622
0
LINE
8
BLACK
6
CONTINUOUS
10
1.6947017716535433
20
0.667051811023622
11
1.6948818897637794
21
0.6633858267716535
0
LINE
8
BLACK
6
CONTINUOUS
10
1.6948818897637794
20
0.6633858267716535
11
1.6948818897637794
21
0.6437007874015748
0
LINE
8
BLACK
6
CONTINUOUS
10
1.6948818897637794
20
0.6437007874015748
11
1.6947017716535433
21
0.6400348031496063
0
LINE
8
BLACK
6
CONTINUOUS
10
1.6947017716535433
20
0.6400348031496063
11
1.693271377952756
21
0.6328437007874016
0
LINE
8
BLACK
6
CONTINUOUS
10
1.693271377952756
20
0.6328437007874016
11
1.6904655511811024
21
0.6260698031496063
0
LINE
8
BLACK
6
CONTINUOUS
10
1.6904655511811024
20
0.6260698031496063
11
1.686392125984252
21
0.6199734645669291
0
LINE
8
BLACK
6
CONTINUOUS
10
1.686392125984252
20
0.6199734645669291
11
1.6812076377952756
21
0.6147889763779527
0
LINE
8
BLACK
6
CONTINUOUS
10
1.6812076377952756
20
0.6147889763779527
11
1.6751112992125985
21
0.6107155511811023
0
LINE
8
BLACK
6
CONTINUOUS
10
1.6751112992125985
20
0.6107155511811023
11
1.6683374015748031
21
0.6079097244094488
0
LINE
8
BLACK
6
CONTINUOUS
10
1.6683374015748031
20
0.6079097244094488
11
1.6611462992125985
21
0.6064793307086614
0
LINE
8
BLACK
6
CONTINUOUS
10
1.6611462992125985
20
0.6064793307086614
11
1.6538143307086615
21
0.6064793307086614
0
LINE
8
BLACK
6
CONTINUOUS
10
1.6538143307086615
20
0.6064793307086614
11
1.6466232283464566
21
0.6079097244094488
0
LINE
8
BLACK
6
CONTINUOUS
10
1.6466232283464566
20
0.6079097244094488
11
1.6398493307086615
21
0.6107155511811023
0
LINE
8
BLACK
6
CONTINUOUS
10
1.6398493307086615
20
0.6107155511811023
11
1.6337529921259841
21
0.6147889763779527
0
LINE
8
BLACK
6
CONTINUOUS
10
1.6337529921259841
20
0.6147889763779527
11
1.6285685039370079
21
0.6199734645669291
0
LINE
8
BLACK
6
CONTINUOUS
10
1.6285685039370079
20
0.6199734645669291
11
1.6244950787401575
21
0.6260698031496063
0
LINE
8
BLACK
6
CONTINUOUS
10
1.6244950787401575
20
0.6260698031496063
11
1.621689251968504
21
0.6328437007874016
0
LINE
8
BLACK
6
CONTINUOUS
10
1.621689251968504
20
0.6328437007874016
11
1.6202588582677164
21
0.6400348031496063
0
LINE
8
BLACK
6
CONTINUOUS
10
1.6202588582677164
20
0.6400348031496063
11
1.6200787401574803
21
0.6437007874015748
0
LINE
8
BLACK
6
CONTINUOUS
10
1.6200787401574803
20
0.6437007874015748
11
1.6200787401574803
21
0.6633858267716535
0
LINE
8
BLACK
6
CONTINUOUS
10
1.6200787401574803
20
0.6633858267716535
11
1.6202588582677164
21
0.667051811023622
0
LINE
8
BLACK
6
CONTINUOUS
10
1.6202588582677164
20
0.667051811023622
11
1.621689251968504
21
0.6742429133858268
0
LINE
8
BLACK
6
CONTINUOUS
10
1.621689251968504
20
0.6742429133858268
11
1.6244950787401575
21
0.681016811023622
0
LINE
8
BLACK
6
CONTINUOUS
10
1.6244950787401575
20
0.681016811023622
11
1.6285685039370079
21
0.6871131496062992
0
LINE
8
BLACK
6
CONTINUOUS
10
1.6285685039370079
20
0.6871131496062992
11
1.6337529921259841
21
0.6922976377952755
0
LINE
8
BLACK
6
CONTINUOUS
10
1.6337529921259841
20
0.6922976377952755
11
1.6398493307086615
21
0.6963710629921259
0
LINE
8
BLACK
6
CONTINUOUS
10
1.6398493307086615
20
0.6963710629921259
11
1.6466232283464566
21
0.6991768897637796
0
LINE
8
BLACK
6
CONTINUOUS
10
1.6466232283464566
20
0.6991768897637796
11
1.6538143307086615
21
0.7006072834645669
0
LINE
8
BLACK
6
CONTINUOUS
10
1.6538143307086615
20
0.7006072834645669
11
1.6611462992125985
21
0.7006072834645669
0
LINE
8
BLACK
6
CONTINUOUS
10
1.6611462992125985
20
0.7006072834645669
11
1.6683374015748031
21
0.6991768897637796
0
LINE
8
BLACK
6
CONTINUOUS
10
0.3208661417322834
20
0.6535433070866141
11
0.2795275590551181
21
0.6535433070866141
0
LINE
8
BLACK
6
CONTINUOUS
10
0.2795275590551181
20
0.6535433070866141
11
0.2795275590551181
21
0.6791338582677166
0
LINE
8
BLACK
6
CONTINUOUS
10
0.2795275590551181
20
0.6791338582677166
11
0.3208661417322834
21
0.6791338582677166
0
LINE
8
BLACK
6
CONTINUOUS
10
0.3208661417322834
20
0.6791338582677166
11
0.3208661417322834
21
0.6535433070866141
0
LINE
8
BLACK
6
CONTINUOUS
10
0.484251968503937
20
0.6535433070866141
11
0.4429133858267716
21
0.6535433070866141
0
LINE
8
BLACK
6
CONTINUOUS
10
0.4429133858267716
20
0.6535433070866141
11
0.4429133858267716
21
0.6791338582677166
0
LINE
8
BLACK
6
CONTINUOUS
10
0.4429133858267716
20
0.6791338582677166
11
0.484251968503937
21
0.6791338582677166
0
LINE
8
BLACK
6
CONTINUOUS
10
0.484251968503937
20
0.6791338582677166
11
0.484251968503937
21
0.6535433070866141
0
LINE
8
BLACK
6
CONTINUOUS
10
1.9547244094488188
20
0.6535433070866141
11
1.9133858267716535
21
0.6535433070866141
0
LINE
8
BLACK
6
CONTINUOUS
10
1.9133858267716535
20
0.6535433070866141
11
1.9133858267716535
21
0.6791338582677166
0
LINE
8
BLACK
6
CONTINUOUS
10
1.9133858267716535
20
0.6791338582677166
11
1.9547244094488188
21
0.6791338582677166
0
LINE
8
BLACK
6
CONTINUOUS
10
1.9547244094488188
20
0.6791338582677166
11
1.9547244094488188
21
0.6535433070866141
0
LINE
8
BLACK
6
CONTINUOUS
10
2.1171259842519685
20
0.6535433070866141
11
2.0757874015748032
21
0.6535433070866141
0
LINE
8
BLACK
6
CONTINUOUS
10
2.0757874015748032
20
0.6535433070866141
11
2.0757874015748032
21
0.6791338582677166
0
LINE
8
BLACK
6
CONTINUOUS
10
2.0757874015748032
20
0.6791338582677166
11
2.1171259842519685
21
0.6791338582677166
0
LINE
8
BLACK
6
CONTINUOUS
10
2.1171259842519685
20
0.6791338582677166
11
2.1171259842519685
21
0.6535433070866141
0
LINE
8
BLACK
6
CONTINUOUS
10
0.3218503937007874
20
0.7381889763779528
11
0.280511811023622
21
0.7381889763779528
0
LINE
8
BLACK
6
CONTINUOUS
10
0.280511811023622
20
0.7381889763779528
11
0.280511811023622
21
0.7637795275590551
0
LINE
8
BLACK
6
CONTINUOUS
10
0.280511811023622
20
0.7637795275590551
11
0.3218503937007874
21
0.7637795275590551
0
LINE
8
BLACK
6
CONTINUOUS
10
0.3218503937007874
20
0.7637795275590551
11
0.3218503937007874
21
0.7381889763779528
0
LINE
8
BLACK
6
CONTINUOUS
10
0.484251968503937
20
0.7381889763779528
11
0.4429133858267716
21
0.7381889763779528
0
LINE
8
BLACK
6
CONTINUOUS
10
0.4429133858267716
20
0.7381889763779528
11
0.4429133858267716
21
0.7637795275590551
0
LINE
8
BLACK
6
CONTINUOUS
10
0.4429133858267716
20
0.7637795275590551
11
0.484251968503937
21
0.7637795275590551
0
LINE
8
BLACK
6
CONTINUOUS
10
0.484251968503937
20
0.7637795275590551
11
0.484251968503937
21
0.7381889763779528
0
LINE
8
BLACK
6
CONTINUOUS
10
1.9547244094488188
20
0.7381889763779528
11
1.9133858267716535
21
0.7381889763779528
0
LINE
8
BLACK
6
CONTINUOUS
10
1.9133858267716535
20
0.7381889763779528
11
1.9133858267716535
21
0.7637795275590551
0
LINE
8
BLACK
6
CONTINUOUS
10
1.9133858267716535
20
0.7637795275590551
11
1.9547244094488188
21
0.7637795275590551
0
LINE
8
BLACK
6
CONTINUOUS
10
1.9547244094488188
20
0.7637795275590551
11
1.9547244094488188
21
0.7381889763779528
0
LINE
8
BLACK
6
CONTINUOUS
10
2.1181102362204722
20
0.7381889763779528
11
2.076771653543307
21
0.7381889763779528
0
LINE
8
BLACK
6
CONTINUOUS
10
2.076771653543307
20
0.7381889763779528
11
2.076771653543307
21
0.7637795275590551
0
LINE
8
BLACK
6
CONTINUOUS
10
2.076771653543307
20
0.7637795275590551
11
2.1181102362204722
21
0.7637795275590551
0
LINE
8
BLACK
6
CONTINUOUS
10
2.1181102362204722
20
0.7637795275590551
11
2.1181102362204722
21
0.7381889763779528
0
LINE
8
BLACK
6
CONTINUOUS
10
0.3646456692913386
20
0.8495275590551181
11
0.3046456692913386
21
0.8495275590551181
0
LINE
8
BLACK
6
CONTINUOUS
10
0.3046456692913386
20
0.8495275590551181
11
0.3046456692913386
21
0.9095275590551181
0
LINE
8
BLACK
6
CONTINUOUS
10
0.3046456692913386
20
0.9095275590551181
11
0.3646456692913386
21
0.9095275590551181
0
LINE
8
BLACK
6
CONTINUOUS
10
0.3646456692913386
20
0.9095275590551181
11
0.3646456692913386
21
0.8495275590551181
0
LINE
8
BLACK
6
CONTINUOUS
10
0.4646456692913385
20
0.8495275590551181
11
0.4046456692913385
21
0.8495275590551181
0
LINE
8
BLACK
6
CONTINUOUS
10
0.4046456692913385
20
0.8495275590551181
11
0.4046456692913385
21
0.9095275590551181
0
LINE
8
BLACK
6
CONTINUOUS
10
0.4046456692913385
20
0.9095275590551181
11
0.4646456692913385
21
0.9095275590551181
0
LINE
8
BLACK
6
CONTINUOUS
10
0.4646456692913385
20
0.9095275590551181
11
0.4646456692913385
21
0.8495275590551181
0
LINE
8
BLACK
6
CONTINUOUS
10
1.9969291338582678
20
0.8511023622047243
11
1.9369291338582677
21
0.8511023622047243
0
LINE
8
BLACK
6
CONTINUOUS
10
1.9369291338582677
20
0.8511023622047243
11
1.9369291338582677
21
0.9111023622047244
0
LINE
8
BLACK
6
CONTINUOUS
10
1.9369291338582677
20
0.9111023622047244
11
1.9969291338582678
21
0.9111023622047244
0
LINE
8
BLACK
6
CONTINUOUS
10
1.9969291338582678
20
0.9111023622047244
11
1.9969291338582678
21
0.8511023622047243
0
LINE
8
BLACK
6
CONTINUOUS
10
2.0969291338582678
20
0.8511023622047243
11
2.0369291338582678
21
0.8511023622047243
0
LINE
8
BLACK
6
CONTINUOUS
10
2.0369291338582678
20
0.8511023622047243
11
2.0369291338582678
21
0.9111023622047244
0
LINE
8
BLACK
6
CONTINUOUS
10
2.0369291338582678
20
0.9111023622047244
11
2.0969291338582678
21
0.9111023622047244
0
LINE
8
BLACK
6
CONTINUOUS
10
2.0969291338582678
20
0.9111023622047244
11
2.0969291338582678
21
0.8511023622047243
0
LINE
8
BLACK
6
CONTINUOUS
10
0.3646456692913386
20
0.9495275590551181
11
0.3046456692913386
21
0.9495275590551181
0
LINE
8
BLACK
6
CONTINUOUS
10
0.3046456692913386
20
0.9495275590551181
11
0.3046456692913386
21
1.009527559055118
0
LINE
8
BLACK
6
CONTINUOUS
10
0.3046456692913386
20
1.009527559055118
11
0.3646456692913386
21
1.009527559055118
0
LINE
8
BLACK
6
CONTINUOUS
10
0.3646456692913386
20
1.009527559055118
11
0.3646456692913386
21
0.9495275590551181
0
LINE
8
BLACK
6
CONTINUOUS
10
0.4646456692913385
20
0.9495275590551181
11
0.4046456692913385
21
0.9495275590551181
0
LINE
8
BLACK
6
CONTINUOUS
10
0.4046456692913385
20
0.9495275590551181
11
0.4046456692913385
21
1.009527559055118
0
LINE
8
BLACK
6
CONTINUOUS
10
0.4046456692913385
20
1.009527559055118
11
0.4646456692913385
21
1.009527559055118
0
LINE
8
BLACK
6
CONTINUOUS
10
0.4646456692913385
20
1.009527559055118
11
0.4646456692913385
21
0.9495275590551181
0
LINE
8
BLACK
6
CONTINUOUS
10
1.9969291338582678
20
0.9511023622047244
11
1.9369291338582677
21
0.9511023622047244
0
LINE
8
BLACK
6
CONTINUOUS
10
1.9369291338582677
20
0.9511023622047244
11
1.9369291338582677
21
1.0111023622047244
0
LINE
8
BLACK
6
CONTINUOUS
10
1.9369291338582677
20
1.0111023622047244
11
1.9969291338582678
21
1.0111023622047244
0
LINE
8
BLACK
6
CONTINUOUS
10
1.9969291338582678
20
1.0111023622047244
11
1.9969291338582678
21
0.9511023622047244
0
LINE
8
BLACK
6
CONTINUOUS
10
2.0969291338582678
20
0.9511023622047244
11
2.0369291338582678
21
0.9511023622047244
0
LINE
8
BLACK
6
CONTINUOUS
10
2.0369291338582678
20
0.9511023622047244
11
2.0369291338582678
21
1.0111023622047244
0
LINE
8
BLACK
6
CONTINUOUS
10
2.0369291338582678
20
1.0111023622047244
11
2.0969291338582678
21
1.0111023622047244
0
LINE
8
BLACK
6
CONTINUOUS
10
2.0969291338582678
20
1.0111023622047244
11
2.0969291338582678
21
0.9511023622047244
0
LINE
8
BLACK
6
CONTINUOUS
10
0.3646456692913386
20
1.0495275590551181
11
0.3046456692913386
21
1.0495275590551181
0
LINE
8
BLACK
6
CONTINUOUS
10
0.3046456692913386
20
1.0495275590551181
11
0.3046456692913386
21
1.1095275590551181
0
LINE
8
BLACK
6
CONTINUOUS
10
0.3046456692913386
20
1.1095275590551181
11
0.3646456692913386
21
1.1095275590551181
0
LINE
8
BLACK
6
CONTINUOUS
10
0.3646456692913386
20
1.1095275590551181
11
0.3646456692913386
21
1.0495275590551181
0
LINE
8
BLACK
6
CONTINUOUS
10
0.4646456692913385
20
1.0495275590551181
11
0.4046456692913385
21
1.0495275590551181
0
LINE
8
BLACK
6
CONTINUOUS
10
0.4046456692913385
20
1.0495275590551181
11
0.4046456692913385
21
1.1095275590551181
0
LINE
8
BLACK
6
CONTINUOUS
10
0.4046456692913385
20
1.1095275590551181
11
0.4646456692913385
21
1.1095275590551181
0
LINE
8
BLACK
6
CONTINUOUS
10
0.4646456692913385
20
1.1095275590551181
11
0.4646456692913385
21
1.0495275590551181
0
LINE
8
BLACK
6
CONTINUOUS
10
1.9969291338582678
20
1.0511023622047244
11
1.9369291338582677
21
1.0511023622047244
0
LINE
8
BLACK
6
CONTINUOUS
10
1.9369291338582677
20
1.0511023622047244
11
1.9369291338582677
21
1.1111023622047245
0
LINE
8
BLACK
6
CONTINUOUS
10
1.9369291338582677
20
1.1111023622047245
11
1.9969291338582678
21
1.1111023622047245
0
LINE
8
BLACK
6
CONTINUOUS
10
1.9969291338582678
20
1.1111023622047245
11
1.9969291338582678
21
1.0511023622047244
0
LINE
8
BLACK
6
CONTINUOUS
10
2.0969291338582678
20
1.0511023622047244
11
2.0369291338582678
21
1.0511023622047244
0
LINE
8
BLACK
6
CONTINUOUS
10
2.0369291338582678
20
1.0511023622047244
11
2.0369291338582678
21
1.1111023622047245
0
LINE
8
BLACK
6
CONTINUOUS
10
2.0369291338582678
20
1.1111023622047245
11
2.0969291338582678
21
1.1111023622047245
0
LINE
8
BLACK
6
CONTINUOUS
10
2.0969291338582678
20
1.1111023622047245
11
2.0969291338582678
21
1.0511023622047244
0
LINE
8
BLACK
6
CONTINUOUS
10
0.3646456692913386
20
1.1495275590551182
11
0.3046456692913386
21
1.1495275590551182
0
LINE
8
BLACK
6
CONTINUOUS
10
0.3046456692913386
20
1.1495275590551182
11
0.3046456692913386
21
1.209527559055118
0
LINE
8
BLACK
6
CONTINUOUS
10
0.3046456692913386
20
1.209527559055118
11
0.3646456692913386
21
1.209527559055118
0
LINE
8
BLACK
6
CONTINUOUS
10
0.3646456692913386
20
1.209527559055118
11
0.3646456692913386
21
1.1495275590551182
0
LINE
8
BLACK
6
CONTINUOUS
10
0.4646456692913385
20
1.1495275590551182
11
0.4046456692913385
21
1.1495275590551182
0
LINE
8
BLACK
6
CONTINUOUS
10
0.4046456692913385
20
1.1495275590551182
11
0.4046456692913385
21
1.209527559055118
0
LINE
8
BLACK
6
CONTINUOUS
10
0.4046456692913385
20
1.209527559055118
11
0.4646456692913385
21
1.209527559055118
0
LINE
8
BLACK
6
CONTINUOUS
10
0.4646456692913385
20
1.209527559055118
11
0.4646456692913385
21
1.1495275590551182
0
LINE
8
BLACK
6
CONTINUOUS
10
1.9969291338582678
20
1.1511023622047243
11
1.9369291338582677
21
1.1511023622047243
0
LINE
8
BLACK
6
CONTINUOUS
10
1.9369291338582677
20
1.1511023622047243
11
1.9369291338582677
21
1.2111023622047243
0
LINE
8
BLACK
6
CONTINUOUS
10
1.9369291338582677
20
1.2111023622047243
11
1.9969291338582678
21
1.2111023622047243
0
LINE
8
BLACK
6
CONTINUOUS
10
1.9969291338582678
20
1.2111023622047243
11
1.9969291338582678
21
1.1511023622047243
0
LINE
8
BLACK
6
CONTINUOUS
10
2.0969291338582678
20
1.1511023622047243
11
2.0369291338582678
21
1.1511023622047243
0
LINE
8
BLACK
6
CONTINUOUS
10
2.0369291338582678
20
1.1511023622047243
11
2.0369291338582678
21
1.2111023622047243
0
LINE
8
BLACK
6
CONTINUOUS
10
2.0369291338582678
20
1.2111023622047243
11
2.0969291338582678
21
1.2111023622047243
0
LINE
8
BLACK
6
CONTINUOUS
10
2.0969291338582678
20
1.2111023622047243
11
2.0969291338582678
21
1.1511023622047243
0
LINE
8
BLACK
6
CONTINUOUS
10
0.3646456692913386
20
1.249527559055118
11
0.3046456692913386
21
1.249527559055118
0
LINE
8
BLACK
6
CONTINUOUS
10
0.3046456692913386
20
1.249527559055118
11
0.3046456692913386
21
1.3095275590551181
0
LINE
8
BLACK
6
CONTINUOUS
10
0.3046456692913386
20
1.3095275590551181
11
0.3646456692913386
21
1.3095275590551181
0
LINE
8
BLACK
6
CONTINUOUS
10
0.3646456692913386
20
1.3095275590551181
11
0.3646456692913386
21
1.249527559055118
0
LINE
8
BLACK
6
CONTINUOUS
10
0.4646456692913385
20
1.249527559055118
11
0.4046456692913385
21
1.249527559055118
0
LINE
8
BLACK
6
CONTINUOUS
10
0.4046456692913385
20
1.249527559055118
11
0.4046456692913385
21
1.3095275590551181
0
LINE
8
BLACK
6
CONTINUOUS
10
0.4046456692913385
20
1.3095275590551181
11
0.4646456692913385
21
1.3095275590551181
0
LINE
8
BLACK
6
CONTINUOUS
10
0.4646456692913385
20
1.3095275590551181
11
0.4646456692913385
21
1.249527559055118
0
LINE
8
BLACK
6
CONTINUOUS
10
1.9969291338582678
20
1.2511023622047244
11
1.9369291338582677
21
1.2511023622047244
0
LINE
8
BLACK
6
CONTINUOUS
10
1.9369291338582677
20
1.2511023622047244
11
1.9369291338582677
21
1.3111023622047244
0
LINE
8
BLACK
6
CONTINUOUS
10
1.9369291338582677
20
1.3111023622047244
11
1.9969291338582678
21
1.3111023622047244
0
LINE
8
BLACK
6
CONTINUOUS
10
1.9969291338582678
20
1.3111023622047244
11
1.9969291338582678
21
1.2511023622047244
0
LINE
8
BLACK
6
CONTINUOUS
10
2.0969291338582678
20
1.2511023622047244
11
2.0369291338582678
21
1.2511023622047244
0
LINE
8
BLACK
6
CONTINUOUS
10
2.0369291338582678
20
1.2511023622047244
11
2.0369291338582678
21
1.3111023622047244
0
LINE
8
BLACK
6
CONTINUOUS
10
2.0369291338582678
20
1.3111023622047244
11
2.0969291338582678
21
1.3111023622047244
0
LINE
8
BLACK
6
CONTINUOUS
10
2.0969291338582678
20
1.3111023622047244
11
2.0969291338582678
21
1.2511023622047244
0
LINE
8
BLACK
6
CONTINUOUS
10
0.3646456692913386
20
1.3495275590551181
11
0.3046456692913386
21
1.3495275590551181
0
LINE
8
BLACK
6
CONTINUOUS
10
0.3046456692913386
20
1.3495275590551181
11
0.3046456692913386
21
1.4095275590551182
0
LINE
8
BLACK
6
CONTINUOUS
10
0.3046456692913386
20
1.4095275590551182
11
0.3646456692913386
21
1.4095275590551182
0
LINE
8
BLACK
6
CONTINUOUS
10
0.3646456692913386
20
1.4095275590551182
11
0.3646456692913386
21
1.3495275590551181
0
LINE
8
BLACK
6
CONTINUOUS
10
0.4646456692913385
20
1.3495275590551181
11
0.4046456692913385
21
1.3495275590551181
0
LINE
8
BLACK
6
CONTINUOUS
10
0.4046456692913385
20
1.3495275590551181
11
0.4046456692913385
21
1.4095275590551182
0
LINE
8
BLACK
6
CONTINUOUS
10
0.4046456692913385
20
1.4095275590551182
11
0.4646456692913385
21
1.4095275590551182
0
LINE
8
BLACK
6
CONTINUOUS
10
0.4646456692913385
20
1.4095275590551182
11
0.4646456692913385
21
1.3495275590551181
0
LINE
8
BLACK
6
CONTINUOUS
10
1.9969291338582678
20
1.3511023622047245
11
1.9369291338582677
21
1.3511023622047245
0
LINE
8
BLACK
6
CONTINUOUS
10
1.9369291338582677
20
1.3511023622047245
11
1.9369291338582677
21
1.4111023622047243
0
LINE
8
BLACK
6
CONTINUOUS
10
1.9369291338582677
20
1.4111023622047243
11
1.9969291338582678
21
1.4111023622047243
0
LINE
8
BLACK
6
CONTINUOUS
10
1.9969291338582678
20
1.4111023622047243
11
1.9969291338582678
21
1.3511023622047245
0
LINE
8
BLACK
6
CONTINUOUS
10
2.0969291338582678
20
1.3511023622047245
11
2.0369291338582678
21
1.3511023622047245
0
LINE
8
BLACK
6
CONTINUOUS
10
2.0369291338582678
20
1.3511023622047245
11
2.0369291338582678
21
1.4111023622047243
0
LINE
8
BLACK
6
CONTINUOUS
10
2.0369291338582678
20
1.4111023622047243
11
2.0969291338582678
21
1.4111023622047243
0
LINE
8
BLACK
6
CONTINUOUS
10
2.0969291338582678
20
1.4111023622047243
11
2.0969291338582678
21
1.3511023622047245
0
LINE
8
BLACK
6
CONTINUOUS
10
0.3646456692913386
20
1.449527559055118
11
0.3046456692913386
21
1.449527559055118
0
LINE
8
BLACK
6
CONTINUOUS
10
0.3046456692913386
20
1.449527559055118
11
0.3046456692913386
21
1.509527559055118
0
LINE
8
BLACK
6
CONTINUOUS
10
0.3046456692913386
20
1.509527559055118
11
0.3646456692913386
21
1.509527559055118
0
LINE
8
BLACK
6
CONTINUOUS
10
0.3646456692913386
20
1.509527559055118
11
0.3646456692913386
21
1.449527559055118
0
LINE
8
BLACK
6
CONTINUOUS
10
0.4646456692913385
20
1.449527559055118
11
0.4046456692913385
21
1.449527559055118
0
LINE
8
BLACK
6
CONTINUOUS
10
0.4046456692913385
20
1.449527559055118
11
0.4046456692913385
21
1.509527559055118
0
LINE
8
BLACK
6
CONTINUOUS
10
0.4046456692913385
20
1.509527559055118
11
0.4646456692913385
21
1.509527559055118
0
LINE
8
BLACK
6
CONTINUOUS
10
0.4646456692913385
20
1.509527559055118
11
0.4646456692913385
21
1.449527559055118
0
LINE
8
BLACK
6
CONTINUOUS
10
1.9969291338582678
20
1.4511023622047243
11
1.9369291338582677
21
1.4511023622047243
0
LINE
8
BLACK
6
CONTINUOUS
10
1.9369291338582677
20
1.4511023622047243
11
1.9369291338582677
21
1.5111023622047244
0
LINE
8
BLACK
6
CONTINUOUS
10
1.9369291338582677
20
1.5111023622047244
11
1.9969291338582678
21
1.5111023622047244
0
LINE
8
BLACK
6
CONTINUOUS
10
1.9969291338582678
20
1.5111023622047244
11
1.9969291338582678
21
1.4511023622047243
0
LINE
8
BLACK
6
CONTINUOUS
10
2.0969291338582678
20
1.4511023622047243
11
2.0369291338582678
21
1.4511023622047243
0
LINE
8
BLACK
6
CONTINUOUS
10
2.0369291338582678
20
1.4511023622047243
11
2.0369291338582678
21
1.5111023622047244
0
LINE
8
BLACK
6
CONTINUOUS
10
2.0369291338582678
20
1.5111023622047244
11
2.0969291338582678
21
1.5111023622047244
0
LINE
8
BLACK
6
CONTINUOUS
10
2.0969291338582678
20
1.5111023622047244
11
2.0969291338582678
21
1.4511023622047243
0
LINE
8
BLACK
6
CONTINUOUS
10
1.5116929133858268
20
1.5083858267716534
11
1.4516929133858267
21
1.5083858267716534
0
LINE
8
BLACK
6
CONTINUOUS
10
1.4516929133858267
20
1.5083858267716534
11
1.4516929133858267
21
1.5683858267716535
0
LINE
8
BLACK
6
CONTINUOUS
10
1.4516929133858267
20
1.5683858267716535
11
1.5116929133858268
21
1.5683858267716535
0
LINE
8
BLACK
6
CONTINUOUS
10
1.5116929133858268
20
1.5683858267716535
11
1.5116929133858268
21
1.5083858267716534
0
LINE
8
BLACK
6
CONTINUOUS
10
1.6116929133858267
20
1.5083858267716534
11
1.5516929133858268
21
1.5083858267716534
0
LINE
8
BLACK
6
CONTINUOUS
10
1.5516929133858268
20
1.5083858267716534
11
1.5516929133858268
21
1.5683858267716535
0
LINE
8
BLACK
6
CONTINUOUS
10
1.5516929133858268
20
1.5683858267716535
11
1.6116929133858267
21
1.5683858267716535
0
LINE
8
BLACK
6
CONTINUOUS
10
1.6116929133858267
20
1.5683858267716535
11
1.6116929133858267
21
1.5083858267716534
0
LINE
8
BLACK
6
CONTINUOUS
10
0.3646456692913386
20
1.5495275590551181
11
0.3046456692913386
21
1.5495275590551181
0
LINE
8
BLACK
6
CONTINUOUS
10
0.3046456692913386
20
1.5495275590551181
11
0.3046456692913386
21
1.6095275590551181
0
LINE
8
BLACK
6
CONTINUOUS
10
0.3046456692913386
20
1.6095275590551181
11
0.3646456692913386
21
1.6095275590551181
0
LINE
8
BLACK
6
CONTINUOUS
10
0.3646456692913386
20
1.6095275590551181
11
0.3646456692913386
21
1.5495275590551181
0
LINE
8
BLACK
6
CONTINUOUS
10
0.4646456692913385
20
1.5495275590551181
11
0.4046456692913385
21
1.5495275590551181
0
LINE
8
BLACK
6
CONTINUOUS
10
0.4046456692913385
20
1.5495275590551181
11
0.4046456692913385
21
1.6095275590551181
0
LINE
8
BLACK
6
CONTINUOUS
10
0.4046456692913385
20
1.6095275590551181
11
0.4646456692913385
21
1.6095275590551181
0
LINE
8
BLACK
6
CONTINUOUS
10
0.4646456692913385
20
1.6095275590551181
11
0.4646456692913385
21
1.5495275590551181
0
LINE
8
BLACK
6
CONTINUOUS
10
1.9969291338582678
20
1.5511023622047244
11
1.9369291338582677
21
1.5511023622047244
0
LINE
8
BLACK
6
CONTINUOUS
10
1.9369291338582677
20
1.5511023622047244
11
1.9369291338582677
21
1.6111023622047245
0
LINE
8
BLACK
6
CONTINUOUS
10
1.9369291338582677
20
1.6111023622047245
11
1.9969291338582678
21
1.6111023622047245
0
LINE
8
BLACK
6
CONTINUOUS
10
1.9969291338582678
20
1.6111023622047245
11
1.9969291338582678
21
1.5511023622047244
0
LINE
8
BLACK
6
CONTINUOUS
10
2.0969291338582678
20
1.5511023622047244
11
2.0369291338582678
21
1.5511023622047244
0
LINE
8
BLACK
6
CONTINUOUS
10
2.0369291338582678
20
1.5511023622047244
11
2.0369291338582678
21
1.6111023622047245
0
LINE
8
BLACK
6
CONTINUOUS
10
2.0369291338582678
20
1.6111023622047245
11
2.0969291338582678
21
1.6111023622047245
0
LINE
8
BLACK
6
CONTINUOUS
10
2.0969291338582678
20
1.6111023622047245
11
2.0969291338582678
21
1.5511023622047244
0
LINE
8
BLACK
6
CONTINUOUS
10
0.3646456692913386
20
1.6495275590551182
11
0.3046456692913386
21
1.6495275590551182
0
LINE
8
BLACK
6
CONTINUOUS
10
0.3046456692913386
20
1.6495275590551182
11
0.3046456692913386
21
1.709527559055118
0
LINE
8
BLACK
6
CONTINUOUS
10
0.3046456692913386
20
1.709527559055118
11
0.3646456692913386
21
1.709527559055118
0
LINE
8
BLACK
6
CONTINUOUS
10
0.3646456692913386
20
1.709527559055118
11
0.3646456692913386
21
1.6495275590551182
0
LINE
8
BLACK
6
CONTINUOUS
10
0.4646456692913385
20
1.6495275590551182
11
0.4046456692913385
21
1.6495275590551182
0
LINE
8
BLACK
6
CONTINUOUS
10
0.4046456692913385
20
1.6495275590551182
11
0.4046456692913385
21
1.709527559055118
0
LINE
8
BLACK
6
CONTINUOUS
10
0.4046456692913385
20
1.709527559055118
11
0.4646456692913385
21
1.709527559055118
0
LINE
8
BLACK
6
CONTINUOUS
10
0.4646456692913385
20
1.709527559055118
11
0.4646456692913385
21
1.6495275590551182
0
LINE
8
BLACK
6
CONTINUOUS
10
1.9969291338582678
20
1.6511023622047243
11
1.9369291338582677
21
1.6511023622047243
0
LINE
8
BLACK
6
CONTINUOUS
10
1.9369291338582677
20
1.6511023622047243
11
1.9369291338582677
21
1.7111023622047243
0
LINE
8
BLACK
6
CONTINUOUS
10
1.9369291338582677
20
1.7111023622047243
11
1.9969291338582678
21
1.7111023622047243
0
LINE
8
BLACK
6
CONTINUOUS
10
1.9969291338582678
20
1.7111023622047243
11
1.9969291338582678
21
1.6511023622047243
0
LINE
8
BLACK
6
CONTINUOUS
10
2.0969291338582678
20
1.6511023622047243
11
2.0369291338582678
21
1.6511023622047243
0
LINE
8
BLACK
6
CONTINUOUS
10
2.0369291338582678
20
1.6511023622047243
11
2.0369291338582678
21
1.7111023622047243
0
LINE
8
BLACK
6
CONTINUOUS
10
2.0369291338582678
20
1.7111023622047243
11
2.0969291338582678
21
1.7111023622047243
0
LINE
8
BLACK
6
CONTINUOUS
10
2.0969291338582678
20
1.7111023622047243
11
2.0969291338582678
21
1.6511023622047243
0
LINE
8
BLACK
6
CONTINUOUS
10
0.3646456692913386
20
1.749527559055118
11
0.3046456692913386
21
1.749527559055118
0
LINE
8
BLACK
6
CONTINUOUS
10
0.3046456692913386
20
1.749527559055118
11
0.3046456692913386
21
1.8095275590551181
0
LINE
8
BLACK
6
CONTINUOUS
10
0.3046456692913386
20
1.8095275590551181
11
0.3646456692913386
21
1.8095275590551181
0
LINE
8
BLACK
6
CONTINUOUS
10
0.3646456692913386
20
1.8095275590551181
11
0.3646456692913386
21
1.749527559055118
0
LINE
8
BLACK
6
CONTINUOUS
10
0.4646456692913385
20
1.749527559055118
11
0.4046456692913385
21
1.749527559055118
0
LINE
8
BLACK
6
CONTINUOUS
10
0.4046456692913385
20
1.749527559055118
11
0.4046456692913385
21
1.8095275590551181
0
LINE
8
BLACK
6
CONTINUOUS
10
0.4046456692913385
20
1.8095275590551181
11
0.4646456692913385
21
1.8095275590551181
0
LINE
8
BLACK
6
CONTINUOUS
10
0.4646456692913385
20
1.8095275590551181
11
0.4646456692913385
21
1.749527559055118
0
LINE
8
BLACK
6
CONTINUOUS
10
1.9969291338582678
20
1.7511023622047244
11
1.9369291338582677
21
1.7511023622047244
0
LINE
8
BLACK
6
CONTINUOUS
10
1.9369291338582677
20
1.7511023622047244
11
1.9369291338582677
21
1.8111023622047244
0
LINE
8
BLACK
6
CONTINUOUS
10
1.9369291338582677
20
1.8111023622047244
11
1.9969291338582678
21
1.8111023622047244
0
LINE
8
BLACK
6
CONTINUOUS
10
1.9969291338582678
20
1.8111023622047244
11
1.9969291338582678
21
1.7511023622047244
0
LINE
8
BLACK
6
CONTINUOUS
10
2.0969291338582678
20
1.7511023622047244
11
2.0369291338582678
21
1.7511023622047244
0
LINE
8
BLACK
6
CONTINUOUS
10
2.0369291338582678
20
1.7511023622047244
11
2.0369291338582678
21
1.8111023622047244
0
LINE
8
BLACK
6
CONTINUOUS
10
2.0369291338582678
20
1.8111023622047244
11
2.0969291338582678
21
1.8111023622047244
0
LINE
8
BLACK
6
CONTINUOUS
10
2.0969291338582678
20
1.8111023622047244
11
2.0969291338582678
21
1.7511023622047244
0
LINE
8
BLACK
6
CONTINUOUS
10
0.7065748031496063
20
1.7538582677165353
11
0.6465748031496062
21
1.7538582677165353
0
LINE
8
BLACK
6
CONTINUOUS
10
0.6465748031496062
20
1.7538582677165353
11
0.6465748031496062
21
1.8138582677165354
0
LINE
8
BLACK
6
CONTINUOUS
10
0.6465748031496062
20
1.8138582677165354
11
0.7065748031496063
21
1.8138582677165354
0
LINE
8
BLACK
6
CONTINUOUS
10
0.7065748031496063
20
1.8138582677165354
11
0.7065748031496063
21
1.7538582677165353
0
LINE
8
BLACK
6
CONTINUOUS
10
0.8065748031496063
20
1.7538582677165353
11
0.7465748031496063
21
1.7538582677165353
0
LINE
8
BLACK
6
CONTINUOUS
10
0.7465748031496063
20
1.7538582677165353
11
0.7465748031496063
21
1.8138582677165354
0
LINE
8
BLACK
6
CONTINUOUS
10
0.7465748031496063
20
1.8138582677165354
11
0.8065748031496063
21
1.8138582677165354
0
LINE
8
BLACK
6
CONTINUOUS
10
0.8065748031496063
20
1.8138582677165354
11
0.8065748031496063
21
1.7538582677165353
0
LINE
8
BLACK
6
CONTINUOUS
10
0.9065748031496063
20
1.7538582677165353
11
0.8465748031496063
21
1.7538582677165353
0
LINE
8
BLACK
6
CONTINUOUS
10
0.8465748031496063
20
1.7538582677165353
11
0.8465748031496063
21
1.8138582677165354
0
LINE
8
BLACK
6
CONTINUOUS
10
0.8465748031496063
20
1.8138582677165354
11
0.9065748031496063
21
1.8138582677165354
0
LINE
8
BLACK
6
CONTINUOUS
10
0.9065748031496063
20
1.8138582677165354
11
0.9065748031496063
21
1.7538582677165353
0
LINE
8
BLACK
6
CONTINUOUS
10
1.0065748031496062
20
1.7538582677165353
11
0.9465748031496063
21
1.7538582677165353
0
LINE
8
BLACK
6
CONTINUOUS
10
0.9465748031496063
20
1.7538582677165353
11
0.9465748031496063
21
1.8138582677165354
0
LINE
8
BLACK
6
CONTINUOUS
10
0.9465748031496063
20
1.8138582677165354
11
1.0065748031496062
21
1.8138582677165354
0
LINE
8
BLACK
6
CONTINUOUS
10
1.0065748031496062
20
1.8138582677165354
11
1.0065748031496062
21
1.7538582677165353
0
LINE
8
BLACK
6
CONTINUOUS
10
1.1065748031496063
20
1.7538582677165353
11
1.0465748031496063
21
1.7538582677165353
0
LINE
8
BLACK
6
CONTINUOUS
10
1.0465748031496063
20
1.7538582677165353
11
1.0465748031496063
21
1.8138582677165354
0
LINE
8
BLACK
6
CONTINUOUS
10
1.0465748031496063
20
1.8138582677165354
11
1.1065748031496063
21
1.8138582677165354
0
LINE
8
BLACK
6
CONTINUOUS
10
1.1065748031496063
20
1.8138582677165354
11
1.1065748031496063
21
1.7538582677165353
0
LINE
8
BLACK
6
CONTINUOUS
10
1.2065748031496062
20
1.7538582677165353
11
1.1465748031496064
21
1.7538582677165353
0
LINE
8
BLACK
6
CONTINUOUS
10
1.1465748031496064
20
1.7538582677165353
11
1.1465748031496064
21
1.8138582677165354
0
LINE
8
BLACK
6
CONTINUOUS
10
1.1465748031496064
20
1.8138582677165354
11
1.2065748031496062
21
1.8138582677165354
0
LINE
8
BLACK
6
CONTINUOUS
10
1.2065748031496062
20
1.8138582677165354
11
1.2065748031496062
21
1.7538582677165353
0
LINE
8
BLACK
6
CONTINUOUS
10
1.3065748031496063
20
1.7538582677165353
11
1.2465748031496062
21
1.7538582677165353
0
LINE
8
BLACK
6
CONTINUOUS
10
1.2465748031496062
20
1.7538582677165353
11
1.2465748031496062
21
1.8138582677165354
0
LINE
8
BLACK
6
CONTINUOUS
10
1.2465748031496062
20
1.8138582677165354
11
1.3065748031496063
21
1.8138582677165354
0
LINE
8
BLACK
6
CONTINUOUS
10
1.3065748031496063
20
1.8138582677165354
11
1.3065748031496063
21
1.7538582677165353
0
LINE
8
BLACK
6
CONTINUOUS
10
1.4065748031496064
20
1.7538582677165353
11
1.3465748031496063
21
1.7538582677165353
0
LINE
8
BLACK
6
CONTINUOUS
10
1.3465748031496063
20
1.7538582677165353
11
1.3465748031496063
21
1.8138582677165354
0
LINE
8
BLACK
6
CONTINUOUS
10
1.3465748031496063
20
1.8138582677165354
11
1.4065748031496064
21
1.8138582677165354
0
LINE
8
BLACK
6
CONTINUOUS
10
1.4065748031496064
20
1.8138582677165354
11
1.4065748031496064
21
1.7538582677165353
0
LINE
8
BLACK
6
CONTINUOUS
10
1.5065748031496062
20
1.7538582677165353
11
1.4465748031496062
21
1.7538582677165353
0
LINE
8
BLACK
6
CONTINUOUS
10
1.4465748031496062
20
1.7538582677165353
11
1.4465748031496062
21
1.8138582677165354
0
LINE
8
BLACK
6
CONTINUOUS
10
1.4465748031496062
20
1.8138582677165354
11
1.5065748031496062
21
1.8138582677165354
0
LINE
8
BLACK
6
CONTINUOUS
10
1.5065748031496062
20
1.8138582677165354
11
1.5065748031496062
21
1.7538582677165353
0
LINE
8
BLACK
6
CONTINUOUS
10
1.6065748031496063
20
1.7538582677165353
11
1.5465748031496063
21
1.7538582677165353
0
LINE
8
BLACK
6
CONTINUOUS
10
1.5465748031496063
20
1.7538582677165353
11
1.5465748031496063
21
1.8138582677165354
0
LINE
8
BLACK
6
CONTINUOUS
10
1.5465748031496063
20
1.8138582677165354
11
1.6065748031496063
21
1.8138582677165354
0
LINE
8
BLACK
6
CONTINUOUS
10
1.6065748031496063
20
1.8138582677165354
11
1.6065748031496063
21
1.7538582677165353
0
LINE
8
BLACK
6
CONTINUOUS
10
1.7065748031496062
20
1.7538582677165353
11
1.6465748031496064
21
1.7538582677165353
0
LINE
8
BLACK
6
CONTINUOUS
10
1.6465748031496064
20
1.7538582677165353
11
1.6465748031496064
21
1.8138582677165354
0
LINE
8
BLACK
6
CONTINUOUS
10
1.6465748031496064
20
1.8138582677165354
11
1.7065748031496062
21
1.8138582677165354
0
LINE
8
BLACK
6
CONTINUOUS
10
1.7065748031496062
20
1.8138582677165354
11
1.7065748031496062
21
1.7538582677165353
0
LINE
8
BLACK
6
CONTINUOUS
10
1.8065748031496063
20
1.7538582677165353
11
1.7465748031496062
21
1.7538582677165353
0
LINE
8
BLACK
6
CONTINUOUS
10
1.7465748031496062
20
1.7538582677165353
11
1.7465748031496062
21
1.8138582677165354
0
LINE
8
BLACK
6
CONTINUOUS
10
1.7465748031496062
20
1.8138582677165354
11
1.8065748031496063
21
1.8138582677165354
0
LINE
8
BLACK
6
CONTINUOUS
10
1.8065748031496063
20
1.8138582677165354
11
1.8065748031496063
21
1.7538582677165353
0
LINE
8
BLACK
6
CONTINUOUS
10
0.7065748031496063
20
1.8538582677165354
11
0.6465748031496062
21
1.8538582677165354
0
LINE
8
BLACK
6
CONTINUOUS
10
0.6465748031496062
20
1.8538582677165354
11
0.6465748031496062
21
1.9138582677165354
0
LINE
8
BLACK
6
CONTINUOUS
10
0.6465748031496062
20
1.9138582677165354
11
0.7065748031496063
21
1.9138582677165354
0
LINE
8
BLACK
6
CONTINUOUS
10
0.7065748031496063
20
1.9138582677165354
11
0.7065748031496063
21
1.8538582677165354
0
LINE
8
BLACK
6
CONTINUOUS
10
0.8065748031496063
20
1.8538582677165354
11
0.7465748031496063
21
1.8538582677165354
0
LINE
8
BLACK
6
CONTINUOUS
10
0.7465748031496063
20
1.8538582677165354
11
0.7465748031496063
21
1.9138582677165354
0
LINE
8
BLACK
6
CONTINUOUS
10
0.7465748031496063
20
1.9138582677165354
11
0.8065748031496063
21
1.9138582677165354
0
LINE
8
BLACK
6
CONTINUOUS
10
0.8065748031496063
20
1.9138582677165354
11
0.8065748031496063
21
1.8538582677165354
0
LINE
8
BLACK
6
CONTINUOUS
10
0.9065748031496063
20
1.8538582677165354
11
0.8465748031496063
21
1.8538582677165354
0
LINE
8
BLACK
6
CONTINUOUS
10
0.8465748031496063
20
1.8538582677165354
11
0.8465748031496063
21
1.9138582677165354
0
LINE
8
BLACK
6
CONTINUOUS
10
0.8465748031496063
20
1.9138582677165354
11
0.9065748031496063
21
1.9138582677165354
0
LINE
8
BLACK
6
CONTINUOUS
10
0.9065748031496063
20
1.9138582677165354
11
0.9065748031496063
21
1.8538582677165354
0
LINE
8
BLACK
6
CONTINUOUS
10
1.0065748031496062
20
1.8538582677165354
11
0.9465748031496063
21
1.8538582677165354
0
LINE
8
BLACK
6
CONTINUOUS
10
0.9465748031496063
20
1.8538582677165354
11
0.9465748031496063
21
1.9138582677165354
0
LINE
8
BLACK
6
CONTINUOUS
10
0.9465748031496063
20
1.9138582677165354
11
1.0065748031496062
21
1.9138582677165354
0
LINE
8
BLACK
6
CONTINUOUS
10
1.0065748031496062
20
1.9138582677165354
11
1.0065748031496062
21
1.8538582677165354
0
LINE
8
BLACK
6
CONTINUOUS
10
1.1065748031496063
20
1.8538582677165354
11
1.0465748031496063
21
1.8538582677165354
0
LINE
8
BLACK
6
CONTINUOUS
10
1.0465748031496063
20
1.8538582677165354
11
1.0465748031496063
21
1.9138582677165354
0
LINE
8
BLACK
6
CONTINUOUS
10
1.0465748031496063
20
1.9138582677165354
11
1.1065748031496063
21
1.9138582677165354
0
LINE
8
BLACK
6
CONTINUOUS
10
1.1065748031496063
20
1.9138582677165354
11
1.1065748031496063
21
1.8538582677165354
0
LINE
8
BLACK
6
CONTINUOUS
10
1.2065748031496062
20
1.8538582677165354
11
1.1465748031496064
21
1.8538582677165354
0
LINE
8
BLACK
6
CONTINUOUS
10
1.1465748031496064
20
1.8538582677165354
11
1.1465748031496064
21
1.9138582677165354
0
LINE
8
BLACK
6
CONTINUOUS
10
1.1465748031496064
20
1.9138582677165354
11
1.2065748031496062
21
1.9138582677165354
0
LINE
8
BLACK
6
CONTINUOUS
10
1.2065748031496062
20
1.9138582677165354
11
1.2065748031496062
21
1.8538582677165354
0
LINE
8
BLACK
6
CONTINUOUS
10
1.3065748031496063
20
1.8538582677165354
11
1.2465748031496062
21
1.8538582677165354
0
LINE
8
BLACK
6
CONTINUOUS
10
1.2465748031496062
20
1.8538582677165354
11
1.2465748031496062
21
1.9138582677165354
0
LINE
8
BLACK
6
CONTINUOUS
10
1.2465748031496062
20
1.9138582677165354
11
1.3065748031496063
21
1.9138582677165354
0
LINE
8
BLACK
6
CONTINUOUS
10
1.3065748031496063
20
1.9138582677165354
11
1.3065748031496063
21
1.8538582677165354
0
LINE
8
BLACK
6
CONTINUOUS
10
1.4065748031496064
20
1.8538582677165354
11
1.3465748031496063
21
1.8538582677165354
0
LINE
8
BLACK
6
CONTINUOUS
10
1.3465748031496063
20
1.8538582677165354
11
1.3465748031496063
21
1.9138582677165354
0
LINE
8
BLACK
6
CONTINUOUS
10
1.3465748031496063
20
1.9138582677165354
11
1.4065748031496064
21
1.9138582677165354
0
LINE
8
BLACK
6
CONTINUOUS
10
1.4065748031496064
20
1.9138582677165354
11
1.4065748031496064
21
1.8538582677165354
0
LINE
8
BLACK
6
CONTINUOUS
10
1.5065748031496062
20
1.8538582677165354
11
1.4465748031496062
21
1.8538582677165354
0
LINE
8
BLACK
6
CONTINUOUS
10
1.4465748031496062
20
1.8538582677165354
11
1.4465748031496062
21
1.9138582677165354
0
LINE
8
BLACK
6
CONTINUOUS
10
1.4465748031496062
20
1.9138582677165354
11
1.5065748031496062
21
1.9138582677165354
0
LINE
8
BLACK
6
CONTINUOUS
10
1.5065748031496062
20
1.9138582677165354
11
1.5065748031496062
21
1.8538582677165354
0
LINE
8
BLACK
6
CONTINUOUS
10
1.6065748031496063
20
1.8538582677165354
11
1.5465748031496063
21
1.8538582677165354
0
LINE
8
BLACK
6
CONTINUOUS
10
1.5465748031496063
20
1.8538582677165354
11
1.5465748031496063
21
1.9138582677165354
0
LINE
8
BLACK
6
CONTINUOUS
10
1.5465748031496063
20
1.9138582677165354
11
1.6065748031496063
21
1.9138582677165354
0
LINE
8
BLACK
6
CONTINUOUS
10
1.6065748031496063
20
1.9138582677165354
11
1.6065748031496063
21
1.8538582677165354
0
LINE
8
BLACK
6
CONTINUOUS
10
1.7065748031496062
20
1.8538582677165354
11
1.6465748031496064
21
1.8538582677165354
0
LINE
8
BLACK
6
CONTINUOUS
10
1.6465748031496064
20
1.8538582677165354
11
1.6465748031496064
21
1.9138582677165354
0
LINE
8
BLACK
6
CONTINUOUS
10
1.6465748031496064
20
1.9138582677165354
11
1.7065748031496062
21
1.9138582677165354
0
LINE
8
BLACK
6
CONTINUOUS
10
1.7065748031496062
20
1.9138582677165354
11
1.7065748031496062
21
1.8538582677165354
0
LINE
8
BLACK
6
CONTINUOUS
10
1.8065748031496063
20
1.8538582677165354
11
1.7465748031496062
21
1.8538582677165354
0
LINE
8
BLACK
6
CONTINUOUS
10
1.7465748031496062
20
1.8538582677165354
11
1.7465748031496062
21
1.9138582677165354
0
LINE
8
BLACK
6
CONTINUOUS
10
1.7465748031496062
20
1.9138582677165354
11
1.8065748031496063
21
1.9138582677165354
0
LINE
8
BLACK
6
CONTINUOUS
10
1.8065748031496063
20
1.9138582677165354
11
1.8065748031496063
21
1.8538582677165354
0
LINE
8
BLACK
6
CONTINUOUS
10
0.4211031496062992
20
2.1242042125984253
11
0.4348769291338583
21
2.1210604330708662
0
LINE
8
BLACK
6
CONTINUOUS
10
0.4348769291338583
20
2.1210604330708662
11
0.4482120866141732
21
2.1163942913385827
0
LINE
8
BLACK
6
CONTINUOUS
10
0.4482120866141732
20
2.1163942913385827
11
0.4609409448818897
21
2.11026437007874
0
LINE
8
BLACK
6
CONTINUOUS
10
0.4609409448818897
20
2.11026437007874
11
0.4729034645669291
21
2.1027478346456694
0
LINE
8
BLACK
6
CONTINUOUS
10
0.4729034645669291
20
2.1027478346456694
11
0.4839491732283465
21
2.0939391732283466
0
LINE
8
BLACK
6
CONTINUOUS
10
0.4839491732283465
20
2.0939391732283466
11
0.4939391732283465
21
2.0839491732283464
0
LINE
8
BLACK
6
CONTINUOUS
10
0.4939391732283465
20
2.0839491732283464
11
0.5027478346456693
21
2.0729034645669291
0
LINE
8
BLACK
6
CONTINUOUS
10
0.5027478346456693
20
2.0729034645669291
11
0.5102643700787401
21
2.0609409448818896
0
LINE
8
BLACK
6
CONTINUOUS
10
0.5102643700787401
20
2.0609409448818896
11
0.5163942913385826
21
2.0482120866141731
0
LINE
8
BLACK
6
CONTINUOUS
10
0.5163942913385826
20
2.0482120866141731
11
0.5210604330708661
21
2.0348769291338584
0
LINE
8
BLACK
6
CONTINUOUS
10
0.5210604330708661
20
2.0348769291338584
11
0.5242042125984252
21
2.021103149606299
0
LINE
8
BLACK
6
CONTINUOUS
10
0.5242042125984252
20
2.021103149606299
11
0.5257860629921259
21
2.0070639763779528
0
LINE
8
BLACK
6
CONTINUOUS
10
0.5257860629921259
20
2.0070639763779528
11
0.5257860629921259
21
1.9929360236220472
0
LINE
8
BLACK
6
CONTINUOUS
10
0.5257860629921259
20
1.9929360236220472
11
0.5242042125984252
21
1.9788968503937008
0
LINE
8
BLACK
6
CONTINUOUS
10
0.5242042125984252
20
1.9788968503937008
11
0.5210604330708661
21
1.9651230708661418
0
LINE
8
BLACK
6
CONTINUOUS
10
0.5210604330708661
20
1.9651230708661418
11
0.5163942913385826
21
1.9517879133858267
0
LINE
8
BLACK
6
CONTINUOUS
10
0.5163942913385826
20
1.9517879133858267
11
0.5102643700787401
21
1.9390590551181102
0
LINE
8
BLACK
6
CONTINUOUS
10
0.5102643700787401
20
1.9390590551181102
11
0.5027478346456693
21
1.9270965354330709
0
LINE
8
BLACK
6
CONTINUOUS
10
0.5027478346456693
20
1.9270965354330709
11
0.4939391732283465
21
1.9160508267716534
0
LINE
8
BLACK
6
CONTINUOUS
10
0.4939391732283465
20
1.9160508267716534
11
0.4839491732283465
21
1.9060608267716534
0
LINE
8
BLACK
6
CONTINUOUS
10
0.4839491732283465
20
1.9060608267716534
11
0.4729034645669291
21
1.8972521653543306
0
LINE
8
BLACK
6
CONTINUOUS
10
0.4729034645669291
20
1.8972521653543306
11
0.4609409448818897
21
1.8897356299212598
0
LINE
8
BLACK
6
CONTINUOUS
10
0.4609409448818897
20
1.8897356299212598
11
0.4482120866141732
21
1.8836057086614173
0
LINE
8
BLACK
6
CONTINUOUS
10
0.4482120866141732
20
1.8836057086614173
11
0.4348769291338583
21
1.8789395669291338
0
LINE
8
BLACK
6
CONTINUOUS
10
0.4348769291338583
20
1.8789395669291338
11
0.4211031496062992
21
1.8757957874015747
0
LINE
8
BLACK
6
CONTINUOUS
10
0.4211031496062992
20
1.8757957874015747
11
0.4070639763779528
21
1.8742139370078739
0
LINE
8
BLACK
6
CONTINUOUS
10
0.4070639763779528
20
1.8742139370078739
11
0.3929360236220472
21
1.8742139370078739
0
LINE
8
BLACK
6
CONTINUOUS
10
0.3929360236220472
20
1.8742139370078739
11
0.3788968503937008
21
1.8757957874015747
0
LINE
8
BLACK
6
CONTINUOUS
10
0.3788968503937008
20
1.8757957874015747
11
0.3651230708661417
21
1.8789395669291338
0
LINE
8
BLACK
6
CONTINUOUS
10
0.3651230708661417
20
1.8789395669291338
11
0.3517879133858268
21
1.8836057086614173
0
LINE
8
BLACK
6
CONTINUOUS
10
0.3517879133858268
20
1.8836057086614173
11
0.3390590551181102
21
1.8897356299212598
0
LINE
8
BLACK
6
CONTINUOUS
10
0.3390590551181102
20
1.8897356299212598
11
0.3270965354330709
21
1.8972521653543306
0
LINE
8
BLACK
6
CONTINUOUS
10
0.3270965354330709
20
1.8972521653543306
11
0.3160508267716535
21
1.9060608267716534
0
LINE
8
BLACK
6
CONTINUOUS
10
0.3160508267716535
20
1.9060608267716534
11
0.3060608267716535
21
1.9160508267716534
0
LINE
8
BLACK
6
CONTINUOUS
10
0.3060608267716535
20
1.9160508267716534
11
0.2972521653543307
21
1.9270965354330709
0
LINE
8
BLACK
6
CONTINUOUS
10
0.2972521653543307
20
1.9270965354330709
11
0.2897356299212598
21
1.9390590551181102
0
LINE
8
BLACK
6
CONTINUOUS
10
0.2897356299212598
20
1.9390590551181102
11
0.2836057086614173
21
1.9517879133858267
0
LINE
8
BLACK
6
CONTINUOUS
10
0.2836057086614173
20
1.9517879133858267
11
0.2789395669291339
21
1.9651230708661418
0
LINE
8
BLACK
6
CONTINUOUS
10
0.2789395669291339
20
1.9651230708661418
11
0.2757957874015748
21
1.9788968503937008
0
LINE
8
BLACK
6
CONTINUOUS
10
0.2757957874015748
20
1.9788968503937008
11
0.274213937007874
21
1.9929360236220472
0
LINE
8
BLACK
6
CONTINUOUS
10
0.274213937007874
20
1.9929360236220472
11
0.274213937007874
21
2.0070639763779528
0
LINE
8
BLACK
6
CONTINUOUS
10
0.274213937007874
20
2.0070639763779528
11
0.2757957874015748
21
2.021103149606299
0
LINE
8
BLACK
6
CONTINUOUS
10
0.2757957874015748
20
2.021103149606299
11
0.2789395669291339
21
2.0348769291338584
0
LINE
8
BLACK
6
CONTINUOUS
10
0.2789395669291339
20
2.0348769291338584
11
0.2836057086614173
21
2.0482120866141731
0
LINE
8
BLACK
6
CONTINUOUS
10
0.2836057086614173
20
2.0482120866141731
11
0.2897356299212598
21
2.0609409448818896
0
LINE
8
BLACK
6
CONTINUOUS
10
0.2897356299212598
20
2.0609409448818896
11
0.2972521653543307
21
2.0729034645669291
0
LINE
8
BLACK
6
CONTINUOUS
10
0.2972521653543307
20
2.0729034645669291
11
0.3060608267716535
21
2.0839491732283464
0
LINE
8
BLACK
6
CONTINUOUS
10
0.3060608267716535
20
2.0839491732283464
11
0.3160508267716535
21
2.0939391732283466
0
LINE
8
BLACK
6
CONTINUOUS
10
0.3160508267716535
20
2.0939391732283466
11
0.3270965354330709
21
2.1027478346456694
0
LINE
8
BLACK
6
CONTINUOUS
10
0.3270965354330709
20
2.1027478346456694
11
0.3390590551181102
21
2.11026437007874
0
LINE
8
BLACK
6
CONTINUOUS
10
0.3390590551181102
20
2.11026437007874
11
0.3517879133858268
21
2.1163942913385827
0
LINE
8
BLACK
6
CONTINUOUS
10
0.3517879133858268
20
2.1163942913385827
11
0.3651230708661417
21
2.1210604330708662
0
LINE
8
BLACK
6
CONTINUOUS
10
0.3651230708661417
20
2.1210604330708662
11
0.3788968503937008
21
2.1242042125984253
0
LINE
8
BLACK
6
CONTINUOUS
10
0.3788968503937008
20
2.1242042125984253
11
0.3929360236220472
21
2.1257860629921259
0
LINE
8
BLACK
6
CONTINUOUS
10
0.3929360236220472
20
2.1257860629921259
11
0.4070639763779528
21
2.1257860629921259
0
LINE
8
BLACK
6
CONTINUOUS
10
0.4070639763779528
20
2.1257860629921259
11
0.4211031496062992
21
2.1242042125984253
0
LINE
8
BLACK
6
CONTINUOUS
10
2.021103149606299
20
2.1242042125984253
11
2.0348769291338584
21
2.1210604330708662
0
LINE
8
BLACK
6
CONTINUOUS
10
2.0348769291338584
20
2.1210604330708662
11
2.0482120866141731
21
2.1163942913385827
0
LINE
8
BLACK
6
CONTINUOUS
10
2.0482120866141731
20
2.1163942913385827
11
2.0609409448818896
21
2.11026437007874
0
LINE
8
BLACK
6
CONTINUOUS
10
2.0609409448818896
20
2.11026437007874
11
2.0729034645669291
21
2.1027478346456694
0
LINE
8
BLACK
6
CONTINUOUS
10
2.0729034645669291
20
2.1027478346456694
11
2.0839491732283464
21
2.0939391732283466
0
LINE
8
BLACK
6
CONTINUOUS
10
2.0839491732283464
20
2.0939391732283466
11
2.0939391732283466
21
2.0839491732283464
0
LINE
8
BLACK
6
CONTINUOUS
10
2.0939391732283466
20
2.0839491732283464
11
2.1027478346456694
21
2.0729034645669291
0
LINE
8
BLACK
6
CONTINUOUS
10
2.1027478346456694
20
2.0729034645669291
11
2.11026437007874
21
2.0609409448818896
0
LINE
8
BLACK
6
CONTINUOUS
10
2.11026437007874
20
2.0609409448818896
11
2.1163942913385827
21
2.0482120866141731
0
LINE
8
BLACK
6
CONTINUOUS
10
2.1163942913385827
20
2.0482120866141731
11
2.1210604330708662
21
2.0348769291338584
0
LINE
8
BLACK
6
CONTINUOUS
10
2.1210604330708662
20
2.0348769291338584
11
2.1242042125984253
21
2.021103149606299
0
LINE
8
BLACK
6
CONTINUOUS
10
2.1242042125984253
20
2.021103149606299
11
2.1257860629921259
21
2.0070639763779528
0
LINE
8
BLACK
6
CONTINUOUS
10
2.1257860629921259
20
2.0070639763779528
11
2.1257860629921259
21
1.9929360236220472
0
LINE
8
BLACK
6
CONTINUOUS
10
2.1257860629921259
20
1.9929360236220472
11
2.1242042125984253
21
1.9788968503937008
0
LINE
8
BLACK
6
CONTINUOUS
10
2.1242042125984253
20
1.9788968503937008
11
2.1210604330708662
21
1.9651230708661418
0
LINE
8
BLACK
6
CONTINUOUS
10
2.1210604330708662
20
1.9651230708661418
11
2.1163942913385827
21
1.9517879133858267
0
LINE
8
BLACK
6
CONTINUOUS
10
2.1163942913385827
20
1.9517879133858267
11
2.11026437007874
21
1.9390590551181102
0
LINE
8
BLACK
6
CONTINUOUS
10
2.11026437007874
20
1.9390590551181102
11
2.1027478346456694
21
1.9270965354330709
0
LINE
8
BLACK
6
CONTINUOUS
10
2.1027478346456694
20
1.9270965354330709
11
2.0939391732283466
21
1.9160508267716534
0
LINE
8
BLACK
6
CONTINUOUS
10
2.0939391732283466
20
1.9160508267716534
11
2.0839491732283464
21
1.9060608267716534
0
LINE
8
BLACK
6
CONTINUOUS
10
2.0839491732283464
20
1.9060608267716534
11
2.0729034645669291
21
1.8972521653543306
0
LINE
8
BLACK
6
CONTINUOUS
10
2.0729034645669291
20
1.8972521653543306
11
2.0609409448818896
21
1.8897356299212598
0
LINE
8
BLACK
6
CONTINUOUS
10
2.0609409448818896
20
1.8897356299212598
11
2.0482120866141731
21
1.8836057086614173
0
LINE
8
BLACK
6
CONTINUOUS
10
2.0482120866141731
20
1.8836057086614173
11
2.0348769291338584
21
1.8789395669291338
0
LINE
8
BLACK
6
CONTINUOUS
10
2.0348769291338584
20
1.8789395669291338
11
2.021103149606299
21
1.8757957874015747
0
LINE
8
BLACK
6
CONTINUOUS
10
2.021103149606299
20
1.8757957874015747
11
2.0070639763779528
21
1.8742139370078739
0
LINE
8
BLACK
6
CONTINUOUS
10
2.0070639763779528
20
1.8742139370078739
11
1.9929360236220472
21
1.8742139370078739
0
LINE
8
BLACK
6
CONTINUOUS
10
1.9929360236220472
20
1.8742139370078739
11
1.9788968503937008
21
1.8757957874015747
0
LINE
8
BLACK
6
CONTINUOUS
10
1.9788968503937008
20
1.8757957874015747
11
1.9651230708661418
21
1.8789395669291338
0
LINE
8
BLACK
6
CONTINUOUS
10
1.9651230708661418
20
1.8789395669291338
11
1.9517879133858267
21
1.8836057086614173
0
LINE
8
BLACK
6
CONTINUOUS
10
1.9517879133858267
20
1.8836057086614173
11
1.9390590551181102
21
1.8897356299212598
0
LINE
8
BLACK
6
CONTINUOUS
10
1.9390590551181102
20
1.8897356299212598
11
1.9270965354330709
21
1.8972521653543306
0
LINE
8
BLACK
6
CONTINUOUS
10
1.9270965354330709
20
1.8972521653543306
11
1.9160508267716534
21
1.9060608267716534
0
LINE
8
BLACK
6
CONTINUOUS
10
1.9160508267716534
20
1.9060608267716534
11
1.9060608267716534
21
1.9160508267716534
0
LINE
8
BLACK
6
CONTINUOUS
10
1.9060608267716534
20
1.9160508267716534
11
1.8972521653543306
21
1.9270965354330709
0
LINE
8
BLACK
6
CONTINUOUS
10
1.8972521653543306
20
1.9270965354330709
11
1.8897356299212598
21
1.9390590551181102
0
LINE
8
BLACK
6
CONTINUOUS
10
1.8897356299212598
20
1.9390590551181102
11
1.8836057086614173
21
1.9517879133858267
0
LINE
8
BLACK
6
CONTINUOUS
10
1.8836057086614173
20
1.9517879133858267
11
1.8789395669291338
21
1.9651230708661418
0
LINE
8
BLACK
6
CONTINUOUS
10
1.8789395669291338
20
1.9651230708661418
11
1.8757957874015747
21
1.9788968503937008
0
LINE
8
BLACK
6
CONTINUOUS
10
1.8757957874015747
20
1.9788968503937008
11
1.8742139370078739
21
1.9929360236220472
0
LINE
8
BLACK
6
CONTINUOUS
10
1.8742139370078739
20
1.9929360236220472
11
1.8742139370078739
21
2.0070639763779528
0
LINE
8
BLACK
6
CONTINUOUS
10
1.8742139370078739
20
2.0070639763779528
11
1.8757957874015747
21
2.021103149606299
0
LINE
8
BLACK
6
CONTINUOUS
10
1.8757957874015747
20
2.021103149606299
11
1.8789395669291338
21
2.0348769291338584
0
LINE
8
BLACK
6
CONTINUOUS
10
1.8789395669291338
20
2.0348769291338584
11
1.8836057086614173
21
2.0482120866141731
0
LINE
8
BLACK
6
CONTINUOUS
10
1.8836057086614173
20
2.0482120866141731
11
1.8897356299212598
21
2.0609409448818896
0
LINE
8
BLACK
6
CONTINUOUS
10
1.8897356299212598
20
2.0609409448818896
11
1.8972521653543306
21
2.0729034645669291
0
LINE
8
BLACK
6
CONTINUOUS
10
1.8972521653543306
20
2.0729034645669291
11
1.9060608267716534
21
2.0839491732283464
0
LINE
8
BLACK
6
CONTINUOUS
10
1.9060608267716534
20
2.0839491732283464
11
1.9160508267716534
21
2.0939391732283466
0
LINE
8
BLACK
6
CONTINUOUS
10
1.9160508267716534
20
2.0939391732283466
11
1.9270965354330709
21
2.1027478346456694
0
LINE
8
BLACK
6
CONTINUOUS
10
1.9270965354330709
20
2.1027478346456694
11
1.9390590551181102
21
2.11026437007874
0
LINE
8
BLACK
6
CONTINUOUS
10
1.9390590551181102
20
2.11026437007874
11
1.9517879133858267
21
2.1163942913385827
0
LINE
8
BLACK
6
CONTINUOUS
10
1.9517879133858267
20
2.1163942913385827
11
1.9651230708661418
21
2.1210604330708662
0
LINE
8
BLACK
6
CONTINUOUS
10
1.9651230708661418
20
2.1210604330708662
11
1.9788968503937008
21
2.1242042125984253
0
LINE
8
BLACK
6
CONTINUOUS
10
1.9788968503937008
20
2.1242042125984253
11
1.9929360236220472
21
2.1257860629921259
0
LINE
8
BLACK
6
CONTINUOUS
10
1.9929360236220472
20
2.1257860629921259
11
2.0070639763779528
21
2.1257860629921259
0
LINE
8
BLACK
6
CONTINUOUS
10
2.0070639763779528
20
2.1257860629921259
11
2.021103149606299
21
2.1242042125984253
0
LINE
8
BLACK
6
CONTINUOUS
10
0.8597244094488189
20
1.9680314960629921
11
0.7997244094488188
21
1.9680314960629921
0
LINE
8
BLACK
6
CONTINUOUS
10
0.7997244094488188
20
1.9680314960629921
11
0.7997244094488188
21
2.0280314960629919
0
LINE
8
BLACK
6
CONTINUOUS
10
0.7997244094488188
20
2.0280314960629919
11
0.8597244094488189
21
2.0280314960629919
0
LINE
8
BLACK
6
CONTINUOUS
10
0.8597244094488189
20
2.0280314960629919
11
0.8597244094488189
21
1.9680314960629921
0
LINE
8
BLACK
6
CONTINUOUS
10
0.9597244094488189
20
1.9680314960629921
11
0.8997244094488189
21
1.9680314960629921
0
LINE
8
BLACK
6
CONTINUOUS
10
0.8997244094488189
20
1.9680314960629921
11
0.8997244094488189
21
2.0280314960629919
0
LINE
8
BLACK
6
CONTINUOUS
10
0.8997244094488189
20
2.0280314960629919
11
0.9597244094488189
21
2.0280314960629919
0
LINE
8
BLACK
6
CONTINUOUS
10
0.9597244094488189
20
2.0280314960629919
11
0.9597244094488189
21
1.9680314960629921
0
LINE
8
BLACK
6
CONTINUOUS
10
1.059724409448819
20
1.9680314960629921
11
0.9997244094488189
21
1.9680314960629921
0
LINE
8
BLACK
6
CONTINUOUS
10
0.9997244094488189
20
1.9680314960629921
11
0.9997244094488189
21
2.0280314960629919
0
LINE
8
BLACK
6
CONTINUOUS
10
0.9997244094488189
20
2.0280314960629919
11
1.059724409448819
21
2.0280314960629919
0
LINE
8
BLACK
6
CONTINUOUS
10
1.059724409448819
20
2.0280314960629919
11
1.059724409448819
21
1.9680314960629921
0
LINE
8
BLACK
6
CONTINUOUS
10
1.1597244094488188
20
1.9680314960629921
11
1.0997244094488188
21
1.9680314960629921
0
LINE
8
BLACK
6
CONTINUOUS
10
1.0997244094488188
20
1.9680314960629921
11
1.0997244094488188
21
2.0280314960629919
0
LINE
8
BLACK
6
CONTINUOUS
10
1.0997244094488188
20
2.0280314960629919
11
1.1597244094488188
21
2.0280314960629919
0
LINE
8
BLACK
6
CONTINUOUS
10
1.1597244094488188
20
2.0280314960629919
11
1.1597244094488188
21
1.9680314960629921
0
LINE
8
BLACK
6
CONTINUOUS
10
1.2597244094488189
20
1.9680314960629921
11
1.1997244094488189
21
1.9680314960629921
0
LINE
8
BLACK
6
CONTINUOUS
10
1.1997244094488189
20
1.9680314960629921
11
1.1997244094488189
21
2.0280314960629919
0
LINE
8
BLACK
6
CONTINUOUS
10
1.1997244094488189
20
2.0280314960629919
11
1.2597244094488189
21
2.0280314960629919
0
LINE
8
BLACK
6
CONTINUOUS
10
1.2597244094488189
20
2.0280314960629919
11
1.2597244094488189
21
1.9680314960629921
0
LINE
8
BLACK
6
CONTINUOUS
10
0.8597244094488189
20
2.068031496062992
11
0.7997244094488188
21
2.068031496062992
0
LINE
8
BLACK
6
CONTINUOUS
10
0.7997244094488188
20
2.068031496062992
11
0.7997244094488188
21
2.128031496062992
0
LINE
8
BLACK
6
CONTINUOUS
10
0.7997244094488188
20
2.128031496062992
11
0.8597244094488189
21
2.128031496062992
0
LINE
8
BLACK
6
CONTINUOUS
10
0.8597244094488189
20
2.128031496062992
11
0.8597244094488189
21
2.068031496062992
0
LINE
8
BLACK
6
CONTINUOUS
10
0.9597244094488189
20
2.068031496062992
11
0.8997244094488189
21
2.068031496062992
0
LINE
8
BLACK
6
CONTINUOUS
10
0.8997244094488189
20
2.068031496062992
11
0.8997244094488189
21
2.128031496062992
0
LINE
8
BLACK
6
CONTINUOUS
10
0.8997244094488189
20
2.128031496062992
11
0.9597244094488189
21
2.128031496062992
0
LINE
8
BLACK
6
CONTINUOUS
10
0.9597244094488189
20
2.128031496062992
11
0.9597244094488189
21
2.068031496062992
0
LINE
8
BLACK
6
CONTINUOUS
10
1.059724409448819
20
2.068031496062992
11
0.9997244094488189
21
2.068031496062992
0
LINE
8
BLACK
6
CONTINUOUS
10
0.9997244094488189
20
2.068031496062992
11
0.9997244094488189
21
2.128031496062992
0
LINE
8
BLACK
6
CONTINUOUS
10
0.9997244094488189
20
2.128031496062992
11
1.059724409448819
21
2.128031496062992
0
LINE
8
BLACK
6
CONTINUOUS
10
1.059724409448819
20
2.128031496062992
11
1.059724409448819
21
2.068031496062992
0
LINE
8
BLACK
6
CONTINUOUS
10
1.1597244094488188
20
2.068031496062992
11
1.0997244094488188
21
2.068031496062992
0
LINE
8
BLACK
6
CONTINUOUS
10
1.0997244094488188
20
2.068031496062992
11
1.0997244094488188
21
2.128031496062992
0
LINE
8
BLACK
6
CONTINUOUS
10
1.0997244094488188
20
2.128031496062992
11
1.1597244094488188
21
2.128031496062992
0
LINE
8
BLACK
6
CONTINUOUS
10
1.1597244094488188
20
2.128031496062992
11
1.1597244094488188
21
2.068031496062992
0
LINE
8
BLACK
6
CONTINUOUS
10
1.2597244094488189
20
2.068031496062992
11
1.1997244094488189
21
2.068031496062992
0
LINE
8
BLACK
6
CONTINUOUS
10
1.1997244094488189
20
2.068031496062992
11
1.1997244094488189
21
2.128031496062992
0
LINE
8
BLACK
6
CONTINUOUS
10
1.1997244094488189
20
2.128031496062992
11
1.2597244094488189
21
2.128031496062992
0
LINE
8
BLACK
6
CONTINUOUS
10
1.2597244094488189
20
2.128031496062992
11
1.2597244094488189
21
2.068031496062992
0
CIRCLE
8
BLACK
10
0.305511811023622
20
0.4
40
0.0068897637795276
0
CIRCLE
8
BLACK
10
0.3331867716535433
20
0.4668132283464567
40
0.0068897637795276
0
CIRCLE
8
BLACK
10
0.3331867716535433
20
0.3331867716535433
40
0.0068897637795276
0
CIRCLE
8
BLACK
10
0.4
20
0.4944881889763779
40
0.0068897637795276
0
CIRCLE
8
BLACK
10
0.4
20
0.4
40
0.0068897637795276
0
CIRCLE
8
BLACK
10
0.4
20
0.305511811023622
40
0.0068897637795276
0
CIRCLE
8
BLACK
10
0.4668132283464567
20
0.4668132283464567
40
0.0068897637795276
0
CIRCLE
8
BLACK
10
0.4668132283464567
20
0.3331867716535433
40
0.0068897637795276
0
CIRCLE
8
BLACK
10
0.4944881889763779
20
0.4
40
0.0068897637795276
0
CIRCLE
8
BLACK
10
1.905511811023622
20
0.4
40
0.0068897637795276
0
CIRCLE
8
BLACK
10
1.9331867716535434
20
0.4668132283464567
40
0.0068897637795276
0
CIRCLE
8
BLACK
10
1.9331867716535434
20
0.3331867716535433
40
0.0068897637795276
0
CIRCLE
8
BLACK
10
2.
20
0.4944881889763779
40
0.0068897637795276
0
CIRCLE
8
BLACK
10
2.
20
0.4
40
0.0068897637795276
0
CIRCLE
8
BLACK
10
2.
20
0.305511811023622
40
0.0068897637795276
0
CIRCLE
8
BLACK
10
2.0668132283464566
20
0.4668132283464567
40
0.0068897637795276
0
CIRCLE
8
BLACK
10
2.0668132283464566
20
0.3331867716535433
40
0.0068897637795276
0
CIRCLE
8
BLACK
10
2.0944881889763778
20
0.4
40
0.0068897637795276
0
CIRCLE
8
BLACK
10
1.5523622047244094
20
0.4858267716535433
40
0.0068897637795276
0
CIRCLE
8
BLACK
10
1.6523622047244093
20
0.4858267716535433
40
0.0068897637795276
0
CIRCLE
8
BLACK
10
1.5523622047244094
20
0.3858267716535433
40
0.0068897637795276
0
CIRCLE
8
BLACK
10
1.6523622047244093
20
0.3858267716535433
40
0.0068897637795276
0
CIRCLE
8
BLACK
10
1.5523622047244094
20
0.2858267716535433
40
0.0068897637795276
0
CIRCLE
8
BLACK
10
1.6523622047244093
20
0.2858267716535433
40
0.0068897637795276
0
CIRCLE
8
BLACK
10
1.2297244094488189
20
2.0980314960629922
40
0.0068897637795276
0
CIRCLE
8
BLACK
10
1.2297244094488189
20
1.9980314960629921
40
0.0068897637795276
0
CIRCLE
8
BLACK
10
1.1297244094488188
20
2.0980314960629922
40
0.0068897637795276
0
CIRCLE
8
BLACK
10
1.1297244094488188
20
1.9980314960629921
40
0.0068897637795276
0
CIRCLE
8
BLACK
10
1.0297244094488189
20
2.0980314960629922
40
0.0068897637795276
0
CIRCLE
8
BLACK
10
1.0297244094488189
20
1.9980314960629921
40
0.0068897637795276
0
CIRCLE
8
BLACK
10
0.9297244094488188
20
2.0980314960629922
40
0.0068897637795276
0
CIRCLE
8
BLACK
10
0.9297244094488188
20
1.9980314960629921
40
0.0068897637795276
0
CIRCLE
8
BLACK
10
0.8297244094488189
20
2.0980314960629922
40
0.0068897637795276
0
CIRCLE
8
BLACK
10
0.8297244094488189
20
1.9980314960629921
40
0.0068897637795276
0
CIRCLE
8
BLACK
10
1.9669291338582677
20
1.7811023622047244
40
0.0068897637795276
0
CIRCLE
8
BLACK
10
2.0669291338582676
20
1.7811023622047244
40
0.0068897637795276
0
CIRCLE
8
BLACK
10
1.9669291338582677
20
1.6811023622047243
40
0.0068897637795276
0
CIRCLE
8
BLACK
10
2.0669291338582676
20
1.6811023622047243
40
0.0068897637795276
0
CIRCLE
8
BLACK
10
1.9669291338582677
20
1.5811023622047244
40
0.0068897637795276
0
CIRCLE
8
BLACK
10
2.0669291338582676
20
1.5811023622047244
40
0.0068897637795276
0
CIRCLE
8
BLACK
10
1.9669291338582677
20
1.4811023622047244
40
0.0068897637795276
0
CIRCLE
8
BLACK
10
2.0669291338582676
20
1.4811023622047244
40
0.0068897637795276
0
CIRCLE
8
BLACK
10
1.9669291338582677
20
1.3811023622047245
40
0.0068897637795276
0
CIRCLE
8
BLACK
10
2.0669291338582676
20
1.3811023622047245
40
0.0068897637795276
0
CIRCLE
8
BLACK
10
1.9669291338582677
20
1.2811023622047244
40
0.0068897637795276
0
CIRCLE
8
BLACK
10
2.0669291338582676
20
1.2811023622047244
40
0.0068897637795276
0
CIRCLE
8
BLACK
10
1.9669291338582677
20
1.1811023622047243
40
0.0068897637795276
0
CIRCLE
8
BLACK
10
2.0669291338582676
20
1.1811023622047243
40
0.0068897637795276
0
CIRCLE
8
BLACK
10
1.9669291338582677
20
1.0811023622047244
40
0.0068897637795276
0
CIRCLE
8
BLACK
10
2.0669291338582676
20
1.0811023622047244
40
0.0068897637795276
0
CIRCLE
8
BLACK
10
1.9669291338582677
20
0.9811023622047244
40
0.0068897637795276
0
CIRCLE
8
BLACK
10
2.0669291338582676
20
0.9811023622047244
40
0.0068897637795276
0
CIRCLE
8
BLACK
10
1.9669291338582677
20
0.8811023622047244
40
0.0068897637795276
0
CIRCLE
8
BLACK
10
2.0669291338582676
20
0.8811023622047244
40
0.0068897637795276
0
CIRCLE
8
BLACK
10
1.905511811023622
20
2.
40
0.0068897637795276
0
CIRCLE
8
BLACK
10
1.9331867716535434
20
2.0668132283464566
40
0.0068897637795276
0
CIRCLE
8
BLACK
10
1.9331867716535434
20
1.9331867716535434
40
0.0068897637795276
0
CIRCLE
8
BLACK
10
2.
20
2.0944881889763778
40
0.0068897637795276
0
CIRCLE
8
BLACK
10
2.
20
2.
40
0.0068897637795276
0
CIRCLE
8
BLACK
10
2.
20
1.905511811023622
40
0.0068897637795276
0
CIRCLE
8
BLACK
10
2.0668132283464566
20
2.0668132283464566
40
0.0068897637795276
0
CIRCLE
8
BLACK
10
2.0668132283464566
20
1.9331867716535434
40
0.0068897637795276
0
CIRCLE
8
BLACK
10
2.0944881889763778
20
2.
40
0.0068897637795276
0
CIRCLE
8
BLACK
10
1.0523622047244094
20
0.4818897637795275
40
0.0068897637795276
0
CIRCLE
8
BLACK
10
1.1523622047244095
20
0.4818897637795275
40
0.0068897637795276
0
CIRCLE
8
BLACK
10
1.0523622047244094
20
0.3818897637795275
40
0.0068897637795276
0
CIRCLE
8
BLACK
10
1.1523622047244095
20
0.3818897637795275
40
0.0068897637795276
0
CIRCLE
8
BLACK
10
1.0523622047244094
20
0.2818897637795276
40
0.0068897637795276
0
CIRCLE
8
BLACK
10
1.1523622047244095
20
0.2818897637795276
40
0.0068897637795276
0
CIRCLE
8
BLACK
10
0.4346456692913386
20
0.879527559055118
40
0.0068897637795276
0
CIRCLE
8
BLACK
10
0.3346456692913386
20
0.879527559055118
40
0.0068897637795276
0
CIRCLE
8
BLACK
10
0.4346456692913386
20
0.9795275590551181
40
0.0068897637795276
0
CIRCLE
8
BLACK
10
0.3346456692913386
20
0.9795275590551181
40
0.0068897637795276
0
CIRCLE
8
BLACK
10
0.4346456692913386
20
1.0795275590551181
40
0.0068897637795276
0
CIRCLE
8
BLACK
10
0.3346456692913386
20
1.0795275590551181
40
0.0068897637795276
0
CIRCLE
8
BLACK
10
0.4346456692913386
20
1.1795275590551182
40
0.0068897637795276
0
CIRCLE
8
BLACK
10
0.3346456692913386
20
1.1795275590551182
40
0.0068897637795276
0
CIRCLE
8
BLACK
10
0.4346456692913386
20
1.2795275590551181
40
0.0068897637795276
0
CIRCLE
8
BLACK
10
0.3346456692913386
20
1.2795275590551181
40
0.0068897637795276
0
CIRCLE
8
BLACK
10
0.4346456692913386
20
1.3795275590551181
40
0.0068897637795276
0
CIRCLE
8
BLACK
10
0.3346456692913386
20
1.3795275590551181
40
0.0068897637795276
0
CIRCLE
8
BLACK
10
0.4346456692913386
20
1.479527559055118
40
0.0068897637795276
0
CIRCLE
8
BLACK
10
0.3346456692913386
20
1.479527559055118
40
0.0068897637795276
0
CIRCLE
8
BLACK
10
0.4346456692913386
20
1.5795275590551181
40
0.0068897637795276
0
CIRCLE
8
BLACK
10
0.3346456692913386
20
1.5795275590551181
40
0.0068897637795276
0
CIRCLE
8
BLACK
10
0.4346456692913386
20
1.679527559055118
40
0.0068897637795276
0
CIRCLE
8
BLACK
10
0.3346456692913386
20
1.679527559055118
40
0.0068897637795276
0
CIRCLE
8
BLACK
10
0.4346456692913386
20
1.7795275590551181
40
0.0068897637795276
0
CIRCLE
8
BLACK
10
0.3346456692913386
20
1.7795275590551181
40
0.0068897637795276
0
CIRCLE
8
BLACK
10
1.5816929133858266
20
1.5383858267716535
40
0.0068897637795276
0
CIRCLE
8
BLACK
10
1.4816929133858268
20
1.5383858267716535
40
0.0068897637795276
0
CIRCLE
8
BLACK
10
0.305511811023622
20
2.
40
0.0068897637795276
0
CIRCLE
8
BLACK
10
0.3331867716535433
20
2.0668132283464566
40
0.0068897637795276
0
CIRCLE
8
BLACK
10
0.3331867716535433
20
1.9331867716535434
40
0.0068897637795276
0
CIRCLE
8
BLACK
10
0.4
20
2.0944881889763778
40
0.0068897637795276
0
CIRCLE
8
BLACK
10
0.4
20
2.
40
0.0068897637795276
0
CIRCLE
8
BLACK
10
0.4
20
1.905511811023622
40
0.0068897637795276
0
CIRCLE
8
BLACK
10
0.4668132283464567
20
2.0668132283464566
40
0.0068897637795276
0
CIRCLE
8
BLACK
10
0.4668132283464567
20
1.9331867716535434
40
0.0068897637795276
0
CIRCLE
8
BLACK
10
0.4944881889763779
20
2.
40
0.0068897637795276
0
CIRCLE
8
BLACK
10
0.6765748031496063
20
1.7838582677165353
40
0.0068897637795276
0
CIRCLE
8
BLACK
10
0.6765748031496063
20
1.8838582677165354
40
0.0068897637795276
0
CIRCLE
8
BLACK
10
0.7765748031496063
20
1.7838582677165353
40
0.0068897637795276
0
CIRCLE
8
BLACK
10
0.7765748031496063
20
1.8838582677165354
40
0.0068897637795276
0
CIRCLE
8
BLACK
10
0.8765748031496062
20
1.7838582677165353
40
0.0068897637795276
0
CIRCLE
8
BLACK
10
0.8765748031496062
20
1.8838582677165354
40
0.0068897637795276
0
CIRCLE
8
BLACK
10
0.9765748031496063
20
1.7838582677165353
40
0.0068897637795276
0
CIRCLE
8
BLACK
10
0.9765748031496063
20
1.8838582677165354
40
0.0068897637795276
0
CIRCLE
8
BLACK
10
1.0765748031496063
20
1.7838582677165353
40
0.0068897637795276
0
CIRCLE
8
BLACK
10
1.0765748031496063
20
1.8838582677165354
40
0.0068897637795276
0
CIRCLE
8
BLACK
10
1.1765748031496062
20
1.7838582677165353
40
0.0068897637795276
0
CIRCLE
8
BLACK
10
1.1765748031496062
20
1.8838582677165354
40
0.0068897637795276
0
CIRCLE
8
BLACK
10
1.2765748031496063
20
1.7838582677165353
40
0.0068897637795276
0
CIRCLE
8
BLACK
10
1.2765748031496063
20
1.8838582677165354
40
0.0068897637795276
0
CIRCLE
8
BLACK
10
1.3765748031496063
20
1.7838582677165353
40
0.0068897637795276
0
CIRCLE
8
BLACK
10
1.3765748031496063
20
1.8838582677165354
40
0.0068897637795276
0
CIRCLE
8
BLACK
10
1.4765748031496062
20
1.7838582677165353
40
0.0068897637795276
0
CIRCLE
8
BLACK
10
1.4765748031496062
20
1.8838582677165354
40
0.0068897637795276
0
CIRCLE
8
BLACK
10
1.5765748031496063
20
1.7838582677165353
40
0.0068897637795276
0
CIRCLE
8
BLACK
10
1.5765748031496063
20
1.8838582677165354
40
0.0068897637795276
0
CIRCLE
8
BLACK
10
1.6765748031496062
20
1.7838582677165353
40
0.0068897637795276
0
CIRCLE
8
BLACK
10
1.6765748031496062
20
1.8838582677165354
40
0.0068897637795276
0
CIRCLE
8
BLACK
10
1.7765748031496063
20
1.7838582677165353
40
0.0068897637795276
0
CIRCLE
8
BLACK
10
1.7765748031496063
20
1.8838582677165354
40
0.0068897637795276
0
CIRCLE
8
BLACK
10
0.8854330708661418
20
0.4454724409448819
40
0.0068897637795276
0
CIRCLE
8
BLACK
10
0.6578740157480315
20
0.4454724409448819
40
0.0068897637795276
0
LINE
8
BLACK
6
CONTINUOUS
10
0.9300223228346457
20
0.3178802362204725
11
0.9308203149606299
21
0.3208584645669291
0
LINE
8
BLACK
6
CONTINUOUS
10
0.9308203149606299
20
0.3208584645669291
11
0.9323619685039369
21
0.3235286614173228
0
LINE
8
BLACK
6
CONTINUOUS
10
0.9323619685039369
20
0.3235286614173228
11
0.9345422047244094
21
0.3257088976377953
0
LINE
8
BLACK
6
CONTINUOUS
10
0.9345422047244094
20
0.3257088976377953
11
0.9372124015748031
21
0.3272505511811024
0
LINE
8
BLACK
6
CONTINUOUS
10
0.9372124015748031
20
0.3272505511811024
11
0.9401906299212598
21
0.3280485433070866
0
LINE
8
BLACK
6
CONTINUOUS
10
0.9401906299212598
20
0.3280485433070866
11
0.943273937007874
21
0.3280485433070866
0
LINE
8
BLACK
6
CONTINUOUS
10
0.943273937007874
20
0.3280485433070866
11
0.9462521653543307
21
0.3272505511811024
0
LINE
8
BLACK
6
CONTINUOUS
10
0.9462521653543307
20
0.3272505511811024
11
0.9489223622047244
21
0.3257088976377953
0
LINE
8
BLACK
6
CONTINUOUS
10
0.9489223622047244
20
0.3257088976377953
11
0.9511025984251968
21
0.3235286614173228
0
LINE
8
BLACK
6
CONTINUOUS
10
0.9511025984251968
20
0.3235286614173228
11
0.9526442519685039
21
0.3208584645669291
0
LINE
8
BLACK
6
CONTINUOUS
10
0.9526442519685039
20
0.3208584645669291
11
0.9534422440944882
21
0.3178802362204725
0
LINE
8
BLACK
6
CONTINUOUS
10
0.9534422440944882
20
0.3178802362204725
11
0.9535433070866142
21
0.3163385826771654
0
LINE
8
BLACK
6
CONTINUOUS
10
0.9535433070866142
20
0.3163385826771654
11
0.9535433070866142
21
0.2848425196850394
0
LINE
8
BLACK
6
CONTINUOUS
10
0.9535433070866142
20
0.2848425196850394
11
0.9534422440944882
21
0.2833008661417323
0
LINE
8
BLACK
6
CONTINUOUS
10
0.9534422440944882
20
0.2833008661417323
11
0.9526442519685039
21
0.2803226377952756
0
LINE
8
BLACK
6
CONTINUOUS
10
0.9526442519685039
20
0.2803226377952756
11
0.9511025984251968
21
0.2776524409448819
0
LINE
8
BLACK
6
CONTINUOUS
10
0.9511025984251968
20
0.2776524409448819
11
0.9489223622047244
21
0.2754722047244094
0
LINE
8
BLACK
6
CONTINUOUS
10
0.9489223622047244
20
0.2754722047244094
11
0.9462521653543307
21
0.2739305511811024
0
LINE
8
BLACK
6
CONTINUOUS
10
0.9462521653543307
20
0.2739305511811024
11
0.943273937007874
21
0.2731325590551181
0
LINE
8
BLACK
6
CONTINUOUS
10
0.943273937007874
20
0.2731325590551181
11
0.9401906299212598
21
0.2731325590551181
0
LINE
8
BLACK
6
CONTINUOUS
10
0.9401906299212598
20
0.2731325590551181
11
0.9372124015748031
21
0.2739305511811024
0
LINE
8
BLACK
6
CONTINUOUS
10
0.9372124015748031
20
0.2739305511811024
11
0.9345422047244094
21
0.2754722047244094
0
LINE
8
BLACK
6
CONTINUOUS
10
0.9345422047244094
20
0.2754722047244094
11
0.9323619685039369
21
0.2776524409448819
0
LINE
8
BLACK
6
CONTINUOUS
10
0.9323619685039369
20
0.2776524409448819
11
0.9308203149606299
21
0.2803226377952756
0
LINE
8
BLACK
6
CONTINUOUS
10
0.9308203149606299
20
0.2803226377952756
11
0.9300223228346457
21
0.2833008661417323
0
LINE
8
BLACK
6
CONTINUOUS
10
0.9300223228346457
20
0.2833008661417323
11
0.9299212598425196
21
0.2848425196850394
0
LINE
8
BLACK
6
CONTINUOUS
10
0.9299212598425196
20
0.2848425196850394
11
0.9299212598425196
21
0.3163385826771654
0
LINE
8
BLACK
6
CONTINUOUS
10
0.9299212598425196
20
0.3163385826771654
11
0.9300223228346457
21
0.3178802362204725
0
LINE
8
BLACK
6
CONTINUOUS
10
0.5898648425196851
20
0.3178802362204725
11
0.5906628346456693
21
0.3208584645669291
0
LINE
8
BLACK
6
CONTINUOUS
10
0.5906628346456693
20
0.3208584645669291
11
0.5922044881889764
21
0.3235286614173228
0
LINE
8
BLACK
6
CONTINUOUS
10
0.5922044881889764
20
0.3235286614173228
11
0.5943847244094488
21
0.3257088976377953
0
LINE
8
BLACK
6
CONTINUOUS
10
0.5943847244094488
20
0.3257088976377953
11
0.5970549212598425
21
0.3272505511811024
0
LINE
8
BLACK
6
CONTINUOUS
10
0.5970549212598425
20
0.3272505511811024
11
0.6000331496062992
21
0.3280485433070866
0
LINE
8
BLACK
6
CONTINUOUS
10
0.6000331496062992
20
0.3280485433070866
11
0.6031164566929134
21
0.3280485433070866
0
LINE
8
BLACK
6
CONTINUOUS
10
0.6031164566929134
20
0.3280485433070866
11
0.60609468503937
21
0.3272505511811024
0
LINE
8
BLACK
6
CONTINUOUS
10
0.60609468503937
20
0.3272505511811024
11
0.6087648818897637
21
0.3257088976377953
0
LINE
8
BLACK
6
CONTINUOUS
10
0.6087648818897637
20
0.3257088976377953
11
0.6109451181102362
21
0.3235286614173228
0
LINE
8
BLACK
6
CONTINUOUS
10
0.6109451181102362
20
0.3235286614173228
11
0.6124867716535433
21
0.3208584645669291
0
LINE
8
BLACK
6
CONTINUOUS
10
0.6124867716535433
20
0.3208584645669291
11
0.6132847637795276
21
0.3178802362204725
0
LINE
8
BLACK
6
CONTINUOUS
10
0.6132847637795276
20
0.3178802362204725
11
0.6133858267716535
21
0.3163385826771654
0
LINE
8
BLACK
6
CONTINUOUS
10
0.6133858267716535
20
0.3163385826771654
11
0.6133858267716535
21
0.2848425196850394
0
LINE
8
BLACK
6
CONTINUOUS
10
0.6133858267716535
20
0.2848425196850394
11
0.6132847637795276
21
0.2833008661417323
0
LINE
8
BLACK
6
CONTINUOUS
10
0.6132847637795276
20
0.2833008661417323
11
0.6124867716535433
21
0.2803226377952756
0
LINE
8
BLACK
6
CONTINUOUS
10
0.6124867716535433
20
0.2803226377952756
11
0.6109451181102362
21
0.2776524409448819
0
LINE
8
BLACK
6
CONTINUOUS
10
0.6109451181102362
20
0.2776524409448819
11
0.6087648818897637
21
0.2754722047244094
0
LINE
8
BLACK
6
CONTINUOUS
10
0.6087648818897637
20
0.2754722047244094
11
0.60609468503937
21
0.2739305511811024
0
LINE
8
BLACK
6
CONTINUOUS
10
0.60609468503937
20
0.2739305511811024
11
0.6031164566929134
21
0.2731325590551181
0
LINE
8
BLACK
6
CONTINUOUS
10
0.6031164566929134
20
0.2731325590551181
11
0.6000331496062992
21
0.2731325590551181
0
LINE
8
BLACK
6
CONTINUOUS
10
0.6000331496062992
20
0.2731325590551181
11
0.5970549212598425
21
0.2739305511811024
0
LINE
8
BLACK
6
CONTINUOUS
10
0.5970549212598425
20
0.2739305511811024
11
0.5943847244094488
21
0.2754722047244094
0
LINE
8
BLACK
6
CONTINUOUS
10
0.5943847244094488
20
0.2754722047244094
11
0.5922044881889764
21
0.2776524409448819
0
LINE
8
BLACK
6
CONTINUOUS
10
0.5922044881889764
20
0.2776524409448819
11
0.5906628346456693
21
0.2803226377952756
0
LINE
8
BLACK
6
CONTINUOUS
10
0.5906628346456693
20
0.2803226377952756
11
0.5898648425196851
21
0.2833008661417323
0
LINE
8
BLACK
6
CONTINUOUS
10
0.5898648425196851
20
0.2833008661417323
11
0.5897637795275591
21
0.2848425196850394
0
LINE
8
BLACK
6
CONTINUOUS
10
0.5897637795275591
20
0.2848425196850394
11
0.5897637795275591
21
0.3163385826771654
0
LINE
8
BLACK
6
CONTINUOUS
10
0.5897637795275591
20
0.3163385826771654
11
0.5898648425196851
21
0.3178802362204725
0
LINE
8
BLACK
6
CONTINUOUS
10
0.9300223228346457
20
0.4883526771653543
11
0.9308203149606299
21
0.491330905511811
0
LINE
8
BLACK
6
CONTINUOUS
10
0.9308203149606299
20
0.491330905511811
11
0.9323619685039369
21
0.4940011023622047
0
LINE
8
BLACK
6
CONTINUOUS
10
0.9323619685039369
20
0.4940011023622047
11
0.9345422047244094
21
0.4961813385826772
0
LINE
8
BLACK
6
CONTINUOUS
10
0.9345422047244094
20
0.4961813385826772
11
0.9372124015748031
21
0.4977229921259843
0
LINE
8
BLACK
6
CONTINUOUS
10
0.9372124015748031
20
0.4977229921259843
11
0.9401906299212598
21
0.4985209842519685
0
LINE
8
BLACK
6
CONTINUOUS
10
0.9401906299212598
20
0.4985209842519685
11
0.943273937007874
21
0.4985209842519685
0
LINE
8
BLACK
6
CONTINUOUS
10
0.943273937007874
20
0.4985209842519685
11
0.9462521653543307
21
0.4977229921259843
0
LINE
8
BLACK
6
CONTINUOUS
10
0.9462521653543307
20
0.4977229921259843
11
0.9489223622047244
21
0.4961813385826772
0
LINE
8
BLACK
6
CONTINUOUS
10
0.9489223622047244
20
0.4961813385826772
11
0.9511025984251968
21
0.4940011023622047
0
LINE
8
BLACK
6
CONTINUOUS
10
0.9511025984251968
20
0.4940011023622047
11
0.9526442519685039
21
0.491330905511811
0
LINE
8
BLACK
6
CONTINUOUS
10
0.9526442519685039
20
0.491330905511811
11
0.9534422440944882
21
0.4883526771653543
0
LINE
8
BLACK
6
CONTINUOUS
10
0.9534422440944882
20
0.4883526771653543
11
0.9535433070866142
21
0.4868110236220473
0
LINE
8
BLACK
6
CONTINUOUS
10
0.9535433070866142
20
0.4868110236220473
11
0.9535433070866142
21
0.443503937007874
0
LINE
8
BLACK
6
CONTINUOUS
10
0.9535433070866142
20
0.443503937007874
11
0.9534422440944882
21
0.4419622834645669
0
LINE
8
BLACK
6
CONTINUOUS
10
0.9534422440944882
20
0.4419622834645669
11
0.9526442519685039
21
0.4389840551181102
0
LINE
8
BLACK
6
CONTINUOUS
10
0.9526442519685039
20
0.4389840551181102
11
0.9511025984251968
21
0.4363138582677165
0
LINE
8
BLACK
6
CONTINUOUS
10
0.9511025984251968
20
0.4363138582677165
11
0.9489223622047244
21
0.4341336220472441
0
LINE
8
BLACK
6
CONTINUOUS
10
0.9489223622047244
20
0.4341336220472441
11
0.9462521653543307
21
0.432591968503937
0
LINE
8
BLACK
6
CONTINUOUS
10
0.9462521653543307
20
0.432591968503937
11
0.943273937007874
21
0.4317939763779527
0
LINE
8
BLACK
6
CONTINUOUS
10
0.943273937007874
20
0.4317939763779527
11
0.9401906299212598
21
0.4317939763779527
0
LINE
8
BLACK
6
CONTINUOUS
10
0.9401906299212598
20
0.4317939763779527
11
0.9372124015748031
21
0.432591968503937
0
LINE
8
BLACK
6
CONTINUOUS
10
0.9372124015748031
20
0.432591968503937
11
0.9345422047244094
21
0.4341336220472441
0
LINE
8
BLACK
6
CONTINUOUS
10
0.9345422047244094
20
0.4341336220472441
11
0.9323619685039369
21
0.4363138582677165
0
LINE
8
BLACK
6
CONTINUOUS
10
0.9323619685039369
20
0.4363138582677165
11
0.9308203149606299
21
0.4389840551181102
0
LINE
8
BLACK
6
CONTINUOUS
10
0.9308203149606299
20
0.4389840551181102
11
0.9300223228346457
21
0.4419622834645669
0
LINE
8
BLACK
6
CONTINUOUS
10
0.9300223228346457
20
0.4419622834645669
11
0.9299212598425196
21
0.443503937007874
0
LINE
8
BLACK
6
CONTINUOUS
10
0.9299212598425196
20
0.443503937007874
11
0.9299212598425196
21
0.4868110236220473
0
LINE
8
BLACK
6
CONTINUOUS
10
0.9299212598425196
20
0.4868110236220473
11
0.9300223228346457
21
0.4883526771653543
0
LINE
8
BLACK
6
CONTINUOUS
10
0.5898648425196851
20
0.4883526771653543
11
0.5906628346456693
21
0.491330905511811
0
LINE
8
BLACK
6
CONTINUOUS
10
0.5906628346456693
20
0.491330905511811
11
0.5922044881889764
21
0.4940011023622047
0
LINE
8
BLACK
6
CONTINUOUS
10
0.5922044881889764
20
0.4940011023622047
11
0.5943847244094488
21
0.4961813385826772
0
LINE
8
BLACK
6
CONTINUOUS
10
0.5943847244094488
20
0.4961813385826772
11
0.5970549212598425
21
0.4977229921259843
0
LINE
8
BLACK
6
CONTINUOUS
10
0.5970549212598425
20
0.4977229921259843
11
0.6000331496062992
21
0.4985209842519685
0
LINE
8
BLACK
6
CONTINUOUS
10
0.6000331496062992
20
0.4985209842519685
11
0.6031164566929134
21
0.4985209842519685
0
LINE
8
BLACK
6
CONTINUOUS
10
0.6031164566929134
20
0.4985209842519685
11
0.60609468503937
21
0.4977229921259843
0
LINE
8
BLACK
6
CONTINUOUS
10
0.60609468503937
20
0.4977229921259843
11
0.6087648818897637
21
0.4961813385826772
0
LINE
8
BLACK
6
CONTINUOUS
10
0.6087648818897637
20
0.4961813385826772
11
0.6109451181102362
21
0.4940011023622047
0
LINE
8
BLACK
6
CONTINUOUS
10
0.6109451181102362
20
0.4940011023622047
11
0.6124867716535433
21
0.491330905511811
0
LINE
8
BLACK
6
CONTINUOUS
10
0.6124867716535433
20
0.491330905511811
11
0.6132847637795276
21
0.4883526771653543
0
LINE
8
BLACK
6
CONTINUOUS
10
0.6132847637795276
20
0.4883526771653543
11
0.6133858267716535
21
0.4868110236220473
0
LINE
8
BLACK
6
CONTINUOUS
10
0.6133858267716535
20
0.4868110236220473
11
0.6133858267716535
21
0.443503937007874
0
LINE
8
BLACK
6
CONTINUOUS
10
0.6133858267716535
20
0.443503937007874
11
0.6132847637795276
21
0.4419622834645669
0
LINE
8
BLACK
6
CONTINUOUS
10
0.6132847637795276
20
0.4419622834645669
11
0.6124867716535433
21
0.4389840551181102
0
LINE
8
BLACK
6
CONTINUOUS
10
0.6124867716535433
20
0.4389840551181102
11
0.6109451181102362
21
0.4363138582677165
0
LINE
8
BLACK
6
CONTINUOUS
10
0.6109451181102362
20
0.4363138582677165
11
0.6087648818897637
21
0.4341336220472441
0
LINE
8
BLACK
6
CONTINUOUS
10
0.6087648818897637
20
0.4341336220472441
11
0.60609468503937
21
0.432591968503937
0
LINE
8
BLACK
6
CONTINUOUS
10
0.60609468503937
20
0.432591968503937
11
0.6031164566929134
21
0.4317939763779527
0
LINE
8
BLACK
6
CONTINUOUS
10
0.6031164566929134
20
0.4317939763779527
11
0.6000331496062992
21
0.4317939763779527
0
LINE
8
BLACK
6
CONTINUOUS
10
0.6000331496062992
20
0.4317939763779527
11
0.5970549212598425
21
0.432591968503937
0
LINE
8
BLACK
6
CONTINUOUS
10
0.5970549212598425
20
0.432591968503937
11
0.5943847244094488
21
0.4341336220472441
0
LINE
8
BLACK
6
CONTINUOUS
10
0.5943847244094488
20
0.4341336220472441
11
0.5922044881889764
21
0.4363138582677165
0
LINE
8
BLACK
6
CONTINUOUS
10
0.5922044881889764
20
0.4363138582677165
11
0.5906628346456693
21
0.4389840551181102
0
LINE
8
BLACK
6
CONTINUOUS
10
0.5906628346456693
20
0.4389840551181102
11
0.5898648425196851
21
0.4419622834645669
0
LINE
8
BLACK
6
CONTINUOUS
10
0.5898648425196851
20
0.4419622834645669
11
0.5897637795275591
21
0.443503937007874
0
LINE
8
BLACK
6
CONTINUOUS
10
0.5897637795275591
20
0.443503937007874
11
0.5897637795275591
21
0.4868110236220473
0
LINE
8
BLACK
6
CONTINUOUS
10
0.5897637795275591
20
0.4868110236220473
11
0.5898648425196851
21
0.4883526771653543
0
LINE
8
BLACK
6
CONTINUOUS
10
1.4899773622047243
20
0.6400348031496063
11
1.488546968503937
21
0.6328437007874016
0
LINE
8
BLACK
6
CONTINUOUS
10
1.488546968503937
20
0.6328437007874016
11
1.4857411417322834
21
0.6260698031496063
0
LINE
8
BLACK
6
CONTINUOUS
10
1.4857411417322834
20
0.6260698031496063
11
1.4816677165354331
21
0.6199734645669291
0
LINE
8
BLACK
6
CONTINUOUS
10
1.4816677165354331
20
0.6199734645669291
11
1.4764832283464566
21
0.6147889763779527
0
LINE
8
BLACK
6
CONTINUOUS
10
1.4764832283464566
20
0.6147889763779527
11
1.4703868897637795
21
0.6107155511811023
0
LINE
8
BLACK
6
CONTINUOUS
10
1.4703868897637795
20
0.6107155511811023
11
1.4636129921259842
21
0.6079097244094488
0
LINE
8
BLACK
6
CONTINUOUS
10
1.4636129921259842
20
0.6079097244094488
11
1.4564218897637795
21
0.6064793307086614
0
LINE
8
BLACK
6
CONTINUOUS
10
1.4564218897637795
20
0.6064793307086614
11
1.4490899212598425
21
0.6064793307086614
0
LINE
8
BLACK
6
CONTINUOUS
10
1.4490899212598425
20
0.6064793307086614
11
1.4418988188976378
21
0.6079097244094488
0
LINE
8
BLACK
6
CONTINUOUS
10
1.4418988188976378
20
0.6079097244094488
11
1.4351249212598425
21
0.6107155511811023
0
LINE
8
BLACK
6
CONTINUOUS
10
1.4351249212598425
20
0.6107155511811023
11
1.4290285826771654
21
0.6147889763779527
0
LINE
8
BLACK
6
CONTINUOUS
10
1.4290285826771654
20
0.6147889763779527
11
1.4238440944881889
21
0.6199734645669291
0
LINE
8
BLACK
6
CONTINUOUS
10
1.4238440944881889
20
0.6199734645669291
11
1.4197706692913385
21
0.6260698031496063
0
LINE
8
BLACK
6
CONTINUOUS
10
1.4197706692913385
20
0.6260698031496063
11
1.416964842519685
21
0.6328437007874016
0
LINE
8
BLACK
6
CONTINUOUS
10
1.416964842519685
20
0.6328437007874016
11
1.4155344488188977
21
0.6400348031496063
0
LINE
8
BLACK
6
CONTINUOUS
10
1.4155344488188977
20
0.6400348031496063
11
1.4153543307086613
21
0.6437007874015748
0
LINE
8
BLACK
6
CONTINUOUS
10
1.4153543307086613
20
0.6437007874015748
11
1.4153543307086613
21
0.6633858267716535
0
LINE
8
BLACK
6
CONTINUOUS
10
1.4153543307086613
20
0.6633858267716535
11
1.4155344488188977
21
0.667051811023622
0
LINE
8
BLACK
6
CONTINUOUS
10
1.4155344488188977
20
0.667051811023622
11
1.416964842519685
21
0.6742429133858268
0
LINE
8
BLACK
6
CONTINUOUS
10
1.416964842519685
20
0.6742429133858268
11
1.4197706692913385
21
0.681016811023622
0
LINE
8
BLACK
6
CONTINUOUS
10
1.4197706692913385
20
0.681016811023622
11
1.4238440944881889
21
0.6871131496062992
0
LINE
8
BLACK
6
CONTINUOUS
10
1.4238440944881889
20
0.6871131496062992
11
1.4290285826771654
21
0.6922976377952755
0
LINE
8
BLACK
6
CONTINUOUS
10
1.4290285826771654
20
0.6922976377952755
11
1.4351249212598425
21
0.6963710629921259
0
LINE
8
BLACK
6
CONTINUOUS
10
1.4351249212598425
20
0.6963710629921259
11
1.4418988188976378
21
0.6991768897637796
0
LINE
8
BLACK
6
CONTINUOUS
10
1.4418988188976378
20
0.6991768897637796
11
1.4490899212598425
21
0.7006072834645669
0
LINE
8
BLACK
6
CONTINUOUS
10
1.4490899212598425
20
0.7006072834645669
11
1.4564218897637795
21
0.7006072834645669
0
LINE
8
BLACK
6
CONTINUOUS
10
1.4564218897637795
20
0.7006072834645669
11
1.4636129921259842
21
0.6991768897637796
0
LINE
8
BLACK
6
CONTINUOUS
10
1.4636129921259842
20
0.6991768897637796
11
1.4703868897637795
21
0.6963710629921259
0
LINE
8
BLACK
6
CONTINUOUS
10
1.4703868897637795
20
0.6963710629921259
11
1.4764832283464566
21
0.6922976377952755
0
LINE
8
BLACK
6
CONTINUOUS
10
1.4764832283464566
20
0.6922976377952755
11
1.4816677165354331
21
0.6871131496062992
0
LINE
8
BLACK
6
CONTINUOUS
10
1.4816677165354331
20
0.6871131496062992
11
1.4857411417322834
21
0.681016811023622
0
LINE
8
BLACK
6
CONTINUOUS
10
1.4857411417322834
20
0.681016811023622
11
1.488546968503937
21
0.6742429133858268
0
LINE
8
BLACK
6
CONTINUOUS
10
1.488546968503937
20
0.6742429133858268
11
1.4899773622047243
21
0.667051811023622
0
LINE
8
BLACK
6
CONTINUOUS
10
1.4899773622047243
20
0.667051811023622
11
1.4901574803149606
21
0.6633858267716535
0
LINE
8
BLACK
6
CONTINUOUS
10
1.4901574803149606
20
0.6633858267716535
11
1.4901574803149606
21
0.6437007874015748
0
LINE
8
BLACK
6
CONTINUOUS
10
1.4901574803149606
20
0.6437007874015748
11
1.4899773622047243
21
0.6400348031496063
0
LINE
8
BLACK
6
CONTINUOUS
10
1.6202588582677164
20
0.667051811023622
11
1.621689251968504
21
0.6742429133858268
0
LINE
8
BLACK
6
CONTINUOUS
10
1.621689251968504
20
0.6742429133858268
11
1.6244950787401575
21
0.681016811023622
0
LINE
8
BLACK
6
CONTINUOUS
10
1.6244950787401575
20
0.681016811023622
11
1.6285685039370079
21
0.6871131496062992
0
LINE
8
BLACK
6
CONTINUOUS
10
1.6285685039370079
20
0.6871131496062992
11
1.6337529921259841
21
0.6922976377952755
0
LINE
8
BLACK
6
CONTINUOUS
10
1.6337529921259841
20
0.6922976377952755
11
1.6398493307086615
21
0.6963710629921259
0
LINE
8
BLACK
6
CONTINUOUS
10
1.6398493307086615
20
0.6963710629921259
11
1.6466232283464566
21
0.6991768897637796
0
LINE
8
BLACK
6
CONTINUOUS
10
1.6466232283464566
20
0.6991768897637796
11
1.6538143307086615
21
0.7006072834645669
0
LINE
8
BLACK
6
CONTINUOUS
10
1.6538143307086615
20
0.7006072834645669
11
1.6611462992125985
21
0.7006072834645669
0
LINE
8
BLACK
6
CONTINUOUS
10
1.6611462992125985
20
0.7006072834645669
11
1.6683374015748031
21
0.6991768897637796
0
LINE
8
BLACK
6
CONTINUOUS
10
1.6683374015748031
20
0.6991768897637796
11
1.6751112992125985
21
0.6963710629921259
0
LINE
8
BLACK
6
CONTINUOUS
10
1.6751112992125985
20
0.6963710629921259
11
1.6812076377952756
21
0.6922976377952755
0
LINE
8
BLACK
6
CONTINUOUS
10
1.6812076377952756
20
0.6922976377952755
11
1.686392125984252
21
0.6871131496062992
0
LINE
8
BLACK
6
CONTINUOUS
10
1.686392125984252
20
0.6871131496062992
11
1.6904655511811024
21
0.681016811023622
0
LINE
8
BLACK
6
CONTINUOUS
10
1.6904655511811024
20
0.681016811023622
11
1.693271377952756
21
0.6742429133858268
0
LINE
8
BLACK
6
CONTINUOUS
10
1.693271377952756
20
0.6742429133858268
11
1.6947017716535433
21
0.667051811023622
0
LINE
8
BLACK
6
CONTINUOUS
10
1.6947017716535433
20
0.667051811023622
11
1.6948818897637794
21
0.6633858267716535
0
LINE
8
BLACK
6
CONTINUOUS
10
1.6948818897637794
20
0.6633858267716535
11
1.6948818897637794
21
0.6437007874015748
0
LINE
8
BLACK
6
CONTINUOUS
10
1.6948818897637794
20
0.6437007874015748
11
1.6947017716535433
21
0.6400348031496063
0
LINE
8
BLACK
6
CONTINUOUS
10
1.6947017716535433
20
0.6400348031496063
11
1.693271377952756
21
0.6328437007874016
0
LINE
8
BLACK
6
CONTINUOUS
10
1.693271377952756
20
0.6328437007874016
11
1.6904655511811024
21
0.6260698031496063
0
LINE
8
BLACK
6
CONTINUOUS
10
1.6904655511811024
20
0.6260698031496063
11
1.686392125984252
21
0.6199734645669291
0
LINE
8
BLACK
6
CONTINUOUS
10
1.686392125984252
20
0.6199734645669291
11
1.6812076377952756
21
0.6147889763779527
0
LINE
8
BLACK
6
CONTINUOUS
10
1.6812076377952756
20
0.6147889763779527
11
1.6751112992125985
21
0.6107155511811023
0
LINE
8
BLACK
6
CONTINUOUS
10
1.6751112992125985
20
0.6107155511811023
11
1.6683374015748031
21
0.6079097244094488
0
LINE
8
BLACK
6
CONTINUOUS
10
1.6683374015748031
20
0.6079097244094488
11
1.6611462992125985
21
0.6064793307086614
0
LINE
8
BLACK
6
CONTINUOUS
10
1.6611462992125985
20
0.6064793307086614
11
1.6538143307086615
21
0.6064793307086614
0
LINE
8
BLACK
6
CONTINUOUS
10
1.6538143307086615
20
0.6064793307086614
11
1.6466232283464566
21
0.6079097244094488
0
LINE
8
BLACK
6
CONTINUOUS
10
1.6466232283464566
20
0.6079097244094488
11
1.6398493307086615
21
0.6107155511811023
0
LINE
8
BLACK
6
CONTINUOUS
10
1.6398493307086615
20
0.6107155511811023
11
1.6337529921259841
21
0.6147889763779527
0
LINE
8
BLACK
6
CONTINUOUS
10
1.6337529921259841
20
0.6147889763779527
11
1.6285685039370079
21
0.6199734645669291
0
LINE
8
BLACK
6
CONTINUOUS
10
1.6285685039370079
20
0.6199734645669291
11
1.6244950787401575
21
0.6260698031496063
0
LINE
8
BLACK
6
CONTINUOUS
10
1.6244950787401575
20
0.6260698031496063
11
1.621689251968504
21
0.6328437007874016
0
LINE
8
BLACK
6
CONTINUOUS
10
1.621689251968504
20
0.6328437007874016
11
1.6202588582677164
21
0.6400348031496063
0
LINE
8
BLACK
6
CONTINUOUS
10
1.6202588582677164
20
0.6400348031496063
11
1.6200787401574803
21
0.6437007874015748
0
LINE
8
BLACK
6
CONTINUOUS
10
1.6200787401574803
20
0.6437007874015748
11
1.6200787401574803
21
0.6633858267716535
0
LINE
8
BLACK
6
CONTINUOUS
10
1.6200787401574803
20
0.6633858267716535
11
1.6202588582677164
21
0.667051811023622
0
CIRCLE
8
WHITE
10
0.305511811023622
20
0.4
40
0.0068897637795276
0
CIRCLE
8
WHITE
10
0.3331867716535433
20
0.4668132283464567
40
0.0068897637795276
0
CIRCLE
8
WHITE
10
0.3331867716535433
20
0.3331867716535433
40
0.0068897637795276
0
CIRCLE
8
WHITE
10
0.4
20
0.4944881889763779
40
0.0068897637795276
0
CIRCLE
8
WHITE
10
0.4
20
0.4
40
0.0068897637795276
0
CIRCLE
8
WHITE
10
0.4
20
0.305511811023622
40
0.0068897637795276
0
CIRCLE
8
WHITE
10
0.4668132283464567
20
0.4668132283464567
40
0.0068897637795276
0
CIRCLE
8
WHITE
10
0.4668132283464567
20
0.3331867716535433
40
0.0068897637795276
0
CIRCLE
8
WHITE
10
0.4944881889763779
20
0.4
40
0.0068897637795276
0
CIRCLE
8
WHITE
10
1.905511811023622
20
0.4
40
0.0068897637795276
0
CIRCLE
8
WHITE
10
1.9331867716535434
20
0.4668132283464567
40
0.0068897637795276
0
CIRCLE
8
WHITE
10
1.9331867716535434
20
0.3331867716535433
40
0.0068897637795276
0
CIRCLE
8
WHITE
10
2.
20
0.4944881889763779
40
0.0068897637795276
0
CIRCLE
8
WHITE
10
2.
20
0.4
40
0.0068897637795276
0
CIRCLE
8
WHITE
10
2.
20
0.305511811023622
40
0.0068897637795276
0
CIRCLE
8
WHITE
10
2.0668132283464566
20
0.4668132283464567
40
0.0068897637795276
0
CIRCLE
8
WHITE
10
2.0668132283464566
20
0.3331867716535433
40
0.0068897637795276
0
CIRCLE
8
WHITE
10
2.0944881889763778
20
0.4
40
0.0068897637795276
0
CIRCLE
8
WHITE
10
1.5523622047244094
20
0.4858267716535433
40
0.0068897637795276
0
CIRCLE
8
WHITE
10
1.6523622047244093
20
0.4858267716535433
40
0.0068897637795276
0
CIRCLE
8
WHITE
10
1.5523622047244094
20
0.3858267716535433
40
0.0068897637795276
0
CIRCLE
8
WHITE
10
1.6523622047244093
20
0.3858267716535433
40
0.0068897637795276
0
CIRCLE
8
WHITE
10
1.5523622047244094
20
0.2858267716535433
40
0.0068897637795276
0
CIRCLE
8
WHITE
10
1.6523622047244093
20
0.2858267716535433
40
0.0068897637795276
0
CIRCLE
8
WHITE
10
1.2297244094488189
20
2.0980314960629922
40
0.0068897637795276
0
CIRCLE
8
WHITE
10
1.2297244094488189
20
1.9980314960629921
40
0.0068897637795276
0
CIRCLE
8
WHITE
10
1.1297244094488188
20
2.0980314960629922
40
0.0068897637795276
0
CIRCLE
8
WHITE
10
1.1297244094488188
20
1.9980314960629921
40
0.0068897637795276
0
CIRCLE
8
WHITE
10
1.0297244094488189
20
2.0980314960629922
40
0.0068897637795276
0
CIRCLE
8
WHITE
10
1.0297244094488189
20
1.9980314960629921
40
0.0068897637795276
0
CIRCLE
8
WHITE
10
0.9297244094488188
20
2.0980314960629922
40
0.0068897637795276
0
CIRCLE
8
WHITE
10
0.9297244094488188
20
1.9980314960629921
40
0.0068897637795276
0
CIRCLE
8
WHITE
10
0.8297244094488189
20
2.0980314960629922
40
0.0068897637795276
0
CIRCLE
8
WHITE
10
0.8297244094488189
20
1.9980314960629921
40
0.0068897637795276
0
CIRCLE
8
WHITE
10
1.9669291338582677
20
1.7811023622047244
40
0.0068897637795276
0
CIRCLE
8
WHITE
10
2.0669291338582676
20
1.7811023622047244
40
0.0068897637795276
0
CIRCLE
8
WHITE
10
1.9669291338582677
20
1.6811023622047243
40
0.0068897637795276
0
CIRCLE
8
WHITE
10
2.0669291338582676
20
1.6811023622047243
40
0.0068897637795276
0
CIRCLE
8
WHITE
10
1.9669291338582677
20
1.5811023622047244
40
0.0068897637795276
0
CIRCLE
8
WHITE
10
2.0669291338582676
20
1.5811023622047244
40
0.0068897637795276
0
CIRCLE
8
WHITE
10
1.9669291338582677
20
1.4811023622047244
40
0.0068897637795276
0
CIRCLE
8
WHITE
10
2.0669291338582676
20
1.4811023622047244
40
0.0068897637795276
0
CIRCLE
8
WHITE
10
1.9669291338582677
20
1.3811023622047245
40
0.0068897637795276
0
CIRCLE
8
WHITE
10
2.0669291338582676
20
1.3811023622047245
40
0.0068897637795276
0
CIRCLE
8
WHITE
10
1.9669291338582677
20
1.2811023622047244
40
0.0068897637795276
0
CIRCLE
8
WHITE
10
2.0669291338582676
20
1.2811023622047244
40
0.0068897637795276
0
CIRCLE
8
WHITE
10
1.9669291338582677
20
1.1811023622047243
40
0.0068897637795276
0
CIRCLE
8
WHITE
10
2.0669291338582676
20
1.1811023622047243
40
0.0068897637795276
0
CIRCLE
8
WHITE
10
1.9669291338582677
20
1.0811023622047244
40
0.0068897637795276
0
CIRCLE
8
WHITE
10
2.0669291338582676
20
1.0811023622047244
40
0.0068897637795276
0
CIRCLE
8
WHITE
10
1.9669291338582677
20
0.9811023622047244
40
0.0068897637795276
0
CIRCLE
8
WHITE
10
2.0669291338582676
20
0.9811023622047244
40
0.0068897637795276
0
CIRCLE
8
WHITE
10
1.9669291338582677
20
0.8811023622047244
40
0.0068897637795276
0
CIRCLE
8
WHITE
10
2.0669291338582676
20
0.8811023622047244
40
0.0068897637795276
0
CIRCLE
8
WHITE
10
1.905511811023622
20
2.
40
0.0068897637795276
0
CIRCLE
8
WHITE
10
1.9331867716535434
20
2.0668132283464566
40
0.0068897637795276
0
CIRCLE
8
WHITE
10
1.9331867716535434
20
1.9331867716535434
40
0.0068897637795276
0
CIRCLE
8
WHITE
10
2.
20
2.0944881889763778
40
0.0068897637795276
0
CIRCLE
8
WHITE
10
2.
20
2.
40
0.0068897637795276
0
CIRCLE
8
WHITE
10
2.
20
1.905511811023622
40
0.0068897637795276
0
CIRCLE
8
WHITE
10
2.0668132283464566
20
2.0668132283464566
40
0.0068897637795276
0
CIRCLE
8
WHITE
10
2.0668132283464566
20
1.9331867716535434
40
0.0068897637795276
0
CIRCLE
8
WHITE
10
2.0944881889763778
20
2.
40
0.0068897637795276
0
CIRCLE
8
WHITE
10
1.0523622047244094
20
0.4818897637795275
40
0.0068897637795276
0
CIRCLE
8
WHITE
10
1.1523622047244095
20
0.4818897637795275
40
0.0068897637795276
0
CIRCLE
8
WHITE
10
1.0523622047244094
20
0.3818897637795275
40
0.0068897637795276
0
CIRCLE
8
WHITE
10
1.1523622047244095
20
0.3818897637795275
40
0.0068897637795276
0
CIRCLE
8
WHITE
10
1.0523622047244094
20
0.2818897637795276
40
0.0068897637795276
0
CIRCLE
8
WHITE
10
1.1523622047244095
20
0.2818897637795276
40
0.0068897637795276
0
CIRCLE
8
WHITE
10
0.4346456692913386
20
0.879527559055118
40
0.0068897637795276
0
CIRCLE
8
WHITE
10
0.3346456692913386
20
0.879527559055118
40
0.0068897637795276
0
CIRCLE
8
WHITE
10
0.4346456692913386
20
0.9795275590551181
40
0.0068897637795276
0
CIRCLE
8
WHITE
10
0.3346456692913386
20
0.9795275590551181
40
0.0068897637795276
0
CIRCLE
8
WHITE
10
0.4346456692913386
20
1.0795275590551181
40
0.0068897637795276
0
CIRCLE
8
WHITE
10
0.3346456692913386
20
1.0795275590551181
40
0.0068897637795276
0
CIRCLE
8
WHITE
10
0.4346456692913386
20
1.1795275590551182
40
0.0068897637795276
0
CIRCLE
8
WHITE
10
0.3346456692913386
20
1.1795275590551182
40
0.0068897637795276
0
CIRCLE
8
WHITE
10
0.4346456692913386
20
1.2795275590551181
40
0.0068897637795276
0
CIRCLE
8
WHITE
10
0.3346456692913386
20
1.2795275590551181
40
0.0068897637795276
0
CIRCLE
8
WHITE
10
0.4346456692913386
20
1.3795275590551181
40
0.0068897637795276
0
CIRCLE
8
WHITE
10
0.3346456692913386
20
1.3795275590551181
40
0.0068897637795276
0
CIRCLE
8
WHITE
10
0.4346456692913386
20
1.479527559055118
40
0.0068897637795276
0
CIRCLE
8
WHITE
10
0.3346456692913386
20
1.479527559055118
40
0.0068897637795276
0
CIRCLE
8
WHITE
10
0.4346456692913386
20
1.5795275590551181
40
0.0068897637795276
0
CIRCLE
8
WHITE
10
0.3346456692913386
20
1.5795275590551181
40
0.0068897637795276
0
CIRCLE
8
WHITE
10
0.4346456692913386
20
1.679527559055118
40
0.0068897637795276
0
CIRCLE
8
WHITE
10
0.3346456692913386
20
1.679527559055118
40
0.0068897637795276
0
CIRCLE
8
WHITE
10
0.4346456692913386
20
1.7795275590551181
40
0.0068897637795276
0
CIRCLE
8
WHITE
10
0.3346456692913386
20
1.7795275590551181
40
0.0068897637795276
0
CIRCLE
8
WHITE
10
1.5816929133858266
20
1.5383858267716535
40
0.0068897637795276
0
CIRCLE
8
WHITE
10
1.4816929133858268
20
1.5383858267716535
40
0.0068897637795276
0
CIRCLE
8
WHITE
10
0.305511811023622
20
2.
40
0.0068897637795276
0
CIRCLE
8
WHITE
10
0.3331867716535433
20
2.0668132283464566
40
0.0068897637795276
0
CIRCLE
8
WHITE
10
0.3331867716535433
20
1.9331867716535434
40
0.0068897637795276
0
CIRCLE
8
WHITE
10
0.4
20
2.0944881889763778
40
0.0068897637795276
0
CIRCLE
8
WHITE
10
0.4
20
2.
40
0.0068897637795276
0
CIRCLE
8
WHITE
10
0.4
20
1.905511811023622
40
0.0068897637795276
0
CIRCLE
8
WHITE
10
0.4668132283464567
20
2.0668132283464566
40
0.0068897637795276
0
CIRCLE
8
WHITE
10
0.4668132283464567
20
1.9331867716535434
40
0.0068897637795276
0
CIRCLE
8
WHITE
10
0.4944881889763779
20
2.
40
0.0068897637795276
0
CIRCLE
8
WHITE
10
0.6765748031496063
20
1.7838582677165353
40
0.0068897637795276
0
CIRCLE
8
WHITE
10
0.6765748031496063
20
1.8838582677165354
40
0.0068897637795276
0
CIRCLE
8
WHITE
10
0.7765748031496063
20
1.7838582677165353
40
0.0068897637795276
0
CIRCLE
8
WHITE
10
0.7765748031496063
20
1.8838582677165354
40
0.0068897637795276
0
CIRCLE
8
WHITE
10
0.8765748031496062
20
1.7838582677165353
40
0.0068897637795276
0
CIRCLE
8
WHITE
10
0.8765748031496062
20
1.8838582677165354
40
0.0068897637795276
0
CIRCLE
8
WHITE
10
0.9765748031496063
20
1.7838582677165353
40
0.0068897637795276
0
CIRCLE
8
WHITE
10
0.9765748031496063
20
1.8838582677165354
40
0.0068897637795276
0
CIRCLE
8
WHITE
10
1.0765748031496063
20
1.7838582677165353
40
0.0068897637795276
0
CIRCLE
8
WHITE
10
1.0765748031496063
20
1.8838582677165354
40
0.0068897637795276
0
CIRCLE
8
WHITE
10
1.1765748031496062
20
1.7838582677165353
40
0.0068897637795276
0
CIRCLE
8
WHITE
10
1.1765748031496062
20
1.8838582677165354
40
0.0068897637795276
0
CIRCLE
8
WHITE
10
1.2765748031496063
20
1.7838582677165353
40
0.0068897637795276
0
CIRCLE
8
WHITE
10
1.2765748031496063
20
1.8838582677165354
40
0.0068897637795276
0
CIRCLE
8
WHITE
10
1.3765748031496063
20
1.7838582677165353
40
0.0068897637795276
0
CIRCLE
8
WHITE
10
1.3765748031496063
20
1.8838582677165354
40
0.0068897637795276
0
CIRCLE
8
WHITE
10
1.4765748031496062
20
1.7838582677165353
40
0.0068897637795276
0
CIRCLE
8
WHITE
10
1.4765748031496062
20
1.8838582677165354
40
0.0068897637795276
0
CIRCLE
8
WHITE
10
1.5765748031496063
20
1.7838582677165353
40
0.0068897637795276
0
CIRCLE
8
WHITE
10
1.5765748031496063
20
1.8838582677165354
40
0.0068897637795276
0
CIRCLE
8
WHITE
10
1.6765748031496062
20
1.7838582677165353
40
0.0068897637795276
0
CIRCLE
8
WHITE
10
1.6765748031496062
20
1.8838582677165354
40
0.0068897637795276
0
CIRCLE
8
WHITE
10
1.7765748031496063
20
1.7838582677165353
40
0.0068897637795276
0
CIRCLE
8
WHITE
10
1.7765748031496063
20
1.8838582677165354
40
0.0068897637795276
0
CIRCLE
8
WHITE
10
0.8854330708661418
20
0.4454724409448819
40
0.0068897637795276
0
CIRCLE
8
WHITE
10
0.6578740157480315
20
0.4454724409448819
40
0.0068897637795276
0
LINE
8
WHITE
6
CONTINUOUS
10
0.9535433070866142
20
0.2848425196850394
11
0.9535433070866142
21
0.3163385826771654
0
ARC
8
WHITE
10
0.9417322834645669
20
0.3163385826771654
40
0.0118110236220472
50
0.00000000
51
180.00000000
0
LINE
8
WHITE
6
CONTINUOUS
10
0.9299212598425196
20
0.3163385826771654
11
0.9299212598425196
21
0.2848425196850394
0
ARC
8
WHITE
10
0.9417322834645669
20
0.2848425196850394
40
0.0118110236220472
50
180.00000000
51
360.00000000
0
LINE
8
WHITE
6
CONTINUOUS
10
0.6133858267716535
20
0.2848425196850394
11
0.6133858267716535
21
0.3163385826771654
0
ARC
8
WHITE
10
0.6015748031496063
20
0.3163385826771654
40
0.0118110236220472
50
0.00000000
51
180.00000000
0
LINE
8
WHITE
6
CONTINUOUS
10
0.5897637795275591
20
0.3163385826771654
11
0.5897637795275591
21
0.2848425196850394
0
ARC
8
WHITE
10
0.6015748031496063
20
0.2848425196850394
40
0.0118110236220472
50
180.00000000
51
360.00000000
0
LINE
8
WHITE
6
CONTINUOUS
10
0.9535433070866142
20
0.443503937007874
11
0.9535433070866142
21
0.4868110236220473
0
ARC
8
WHITE
10
0.9417322834645669
20
0.4868110236220473
40
0.0118110236220472
50
0.00000000
51
180.00000000
0
LINE
8
WHITE
6
CONTINUOUS
10
0.9299212598425196
20
0.4868110236220473
11
0.9299212598425196
21
0.443503937007874
0
ARC
8
WHITE
10
0.9417322834645669
20
0.443503937007874
40
0.0118110236220472
50
180.00000000
51
360.00000000
0
LINE
8
WHITE
6
CONTINUOUS
10
0.6133858267716535
20
0.443503937007874
11
0.6133858267716535
21
0.4868110236220473
0
ARC
8
WHITE
10
0.6015748031496063
20
0.4868110236220473
40
0.0118110236220472
50
0.00000000
51
180.00000000
0
LINE
8
WHITE
6
CONTINUOUS
10
0.5897637795275591
20
0.4868110236220473
11
0.5897637795275591
21
0.443503937007874
0
ARC
8
WHITE
10
0.6015748031496063
20
0.443503937007874
40
0.0118110236220472
50
180.00000000
51
360.00000000
0
LINE
8
WHITE
6
CONTINUOUS
10
1.4153543700787401
20
0.6633858267716535
11
1.4153543700787401
21
0.6437007874015748
0
ARC
8
WHITE
10
1.4527559055118109
20
0.6437007874015748
40
0.0374015354330709
50
-180.00000000
51
0.00000000
0
LINE
8
WHITE
6
CONTINUOUS
10
1.4901574409448819
20
0.6437007874015748
11
1.4901574409448819
21
0.6633858267716535
0
ARC
8
WHITE
10
1.4527559055118109
20
0.6633858267716535
40
0.0374015354330709
50
0.00000000
51
180.00000000
0
LINE
8
WHITE
6
CONTINUOUS
10
1.6948818503937007
20
0.6437007874015748
11
1.6948818503937007
21
0.6633858267716535
0
ARC
8
WHITE
10
1.6574803149606299
20
0.6633858267716535
40
0.0374015354330709
50
0.00000000
51
180.00000000
0
LINE
8
WHITE
6
CONTINUOUS
10
1.6200787795275591
20
0.6633858267716535
11
1.6200787795275591
21
0.6437007874015748
0
ARC
8
WHITE
10
1.6574803149606299
20
0.6437007874015748
40
0.0374015354330709
50
180.00000000
51
360.00000000
  0
ENDSEC
  0
EOF
