<?xml version='1.0' encoding='ASCII' standalone='yes'?>
<svg xmlns:svg="http://www.w3.org/2000/svg" xmlns="http://www.w3.org/2000/svg" xmlns:xlink="http://www.w3.org/1999/xlink" version="1.1" width="297.0022mm" height="210.0072mm" viewBox="0.0000 0.0000 297.0022 210.0072">
<title>SVG Image created as RP2040v01-F_Fab.svg date 2024/06/09 18:11:10 </title>
  <desc>Image generated by PCBNEW </desc>
<g style="fill:#848484; fill-opacity:1.0000;stroke:#848484; stroke-opacity:1.0000; stroke-linecap:round; stroke-linejoin:round;" transform="translate(0 0) scale(1 1)">
</g>
<g style="fill:#848484; fill-opacity:0.0;  stroke:#848484; stroke-width:0.0000; stroke-opacity:1;  stroke-linecap:round; stroke-linejoin:round;">
</g>
<g style="fill:#848484; fill-opacity:0.0;  stroke:#848484; stroke-width:0.6245; stroke-opacity:1;  stroke-linecap:round; stroke-linejoin:round;">
<text x="63.9049" y="191.6814" textLength="9.3672" font-size="5.5509" lengthAdjust="spacingAndGlyphs" text-anchor="middle" opacity="0">H3</text>
<g class="stroked-text"><desc>H3</desc>
<path d="M60.7330 191.4933 L60.7330 187.3301 "/>
<path d="M60.7330 189.3126 L63.1119 189.3126 "/>
<path d="M63.1119 191.4933 L63.1119 187.3301 "/>
<path d="M64.6979 187.3301 L67.2751 187.3301 "/>
<path d="M67.2751 187.3301 L65.8874 188.9161 "/>
<path d="M65.8874 188.9161 L66.4821 188.9161 "/>
<path d="M66.4821 188.9161 L66.8786 189.1143 "/>
<path d="M66.8786 189.1143 L67.0769 189.3126 "/>
<path d="M67.0769 189.3126 L67.2751 189.7090 "/>
<path d="M67.2751 189.7090 L67.2751 190.7003 "/>
<path d="M67.2751 190.7003 L67.0769 191.0968 "/>
<path d="M67.0769 191.0968 L66.8786 191.2950 "/>
<path d="M66.8786 191.2950 L66.4821 191.4933 "/>
<path d="M66.4821 191.4933 L65.2927 191.4933 "/>
<path d="M65.2927 191.4933 L64.8962 191.2950 "/>
<path d="M64.8962 191.2950 L64.6979 191.0968 "/>
</g><text x="233.0973" y="191.6814" textLength="9.3672" font-size="5.5509" lengthAdjust="spacingAndGlyphs" text-anchor="middle" opacity="0">H4</text>
<g class="stroked-text"><desc>H4</desc>
<path d="M229.9253 191.4933 L229.9253 187.3301 "/>
<path d="M229.9253 189.3126 L232.3043 189.3126 "/>
<path d="M232.3043 191.4933 L232.3043 187.3301 "/>
<path d="M236.0710 188.7178 L236.0710 191.4933 "/>
<path d="M235.0797 187.1318 L234.0885 190.1055 "/>
<path d="M234.0885 190.1055 L236.6657 190.1055 "/>
</g><text x="234.9707" y="159.0419" textLength="13.7286" font-size="5.5509" lengthAdjust="spacingAndGlyphs" text-anchor="middle" opacity="0">SW2</text>
<g class="stroked-text"><desc>SW2</desc>
<path d="M229.4198 158.6556 L230.0145 158.8538 "/>
<path d="M230.0145 158.8538 L231.0058 158.8538 "/>
<path d="M231.0058 158.8538 L231.4023 158.6556 "/>
<path d="M231.4023 158.6556 L231.6005 158.4573 "/>
<path d="M231.6005 158.4573 L231.7988 158.0608 "/>
<path d="M231.7988 158.0608 L231.7988 157.6643 "/>
<path d="M231.7988 157.6643 L231.6005 157.2678 "/>
<path d="M231.6005 157.2678 L231.4023 157.0696 "/>
<path d="M231.4023 157.0696 L231.0058 156.8713 "/>
<path d="M231.0058 156.8713 L230.2128 156.6731 "/>
<path d="M230.2128 156.6731 L229.8163 156.4748 "/>
<path d="M229.8163 156.4748 L229.6180 156.2766 "/>
<path d="M229.6180 156.2766 L229.4198 155.8801 "/>
<path d="M229.4198 155.8801 L229.4198 155.4836 "/>
<path d="M229.4198 155.4836 L229.6180 155.0871 "/>
<path d="M229.6180 155.0871 L229.8163 154.8889 "/>
<path d="M229.8163 154.8889 L230.2128 154.6906 "/>
<path d="M230.2128 154.6906 L231.2040 154.6906 "/>
<path d="M231.2040 154.6906 L231.7988 154.8889 "/>
<path d="M233.1865 154.6906 L234.1777 158.8538 "/>
<path d="M234.1777 158.8538 L234.9707 155.8801 "/>
<path d="M234.9707 155.8801 L235.7637 158.8538 "/>
<path d="M235.7637 158.8538 L236.7549 154.6906 "/>
<path d="M238.1427 155.0871 L238.3409 154.8889 "/>
<path d="M238.3409 154.8889 L238.7374 154.6906 "/>
<path d="M238.7374 154.6906 L239.7287 154.6906 "/>
<path d="M239.7287 154.6906 L240.1251 154.8889 "/>
<path d="M240.1251 154.8889 L240.3234 155.0871 "/>
<path d="M240.3234 155.0871 L240.5216 155.4836 "/>
<path d="M240.5216 155.4836 L240.5216 155.8801 "/>
<path d="M240.5216 155.8801 L240.3234 156.4748 "/>
<path d="M240.3234 156.4748 L237.9444 158.8538 "/>
<path d="M237.9444 158.8538 L240.5216 158.8538 "/>
</g><text x="233.0973" y="22.4890" textLength="9.3672" font-size="5.5509" lengthAdjust="spacingAndGlyphs" text-anchor="middle" opacity="0">H2</text>
<g class="stroked-text"><desc>H2</desc>
<path d="M229.9253 22.3009 L229.9253 18.1377 "/>
<path d="M229.9253 20.1202 L232.3043 20.1202 "/>
<path d="M232.3043 22.3009 L232.3043 18.1377 "/>
<path d="M234.0885 18.5342 L234.2868 18.3360 "/>
<path d="M234.2868 18.3360 L234.6833 18.1377 "/>
<path d="M234.6833 18.1377 L235.6745 18.1377 "/>
<path d="M235.6745 18.1377 L236.0710 18.3360 "/>
<path d="M236.0710 18.3360 L236.2692 18.5342 "/>
<path d="M236.2692 18.5342 L236.4675 18.9307 "/>
<path d="M236.4675 18.9307 L236.4675 19.3272 "/>
<path d="M236.4675 19.3272 L236.2692 19.9220 "/>
<path d="M236.2692 19.9220 L233.8903 22.3009 "/>
<path d="M233.8903 22.3009 L236.4675 22.3009 "/>
</g><text x="63.9049" y="22.4890" textLength="9.3672" font-size="5.5509" lengthAdjust="spacingAndGlyphs" text-anchor="middle" opacity="0">H1</text>
<g class="stroked-text"><desc>H1</desc>
<path d="M60.7330 22.3009 L60.7330 18.1377 "/>
<path d="M60.7330 20.1202 L63.1119 20.1202 "/>
<path d="M63.1119 22.3009 L63.1119 18.1377 "/>
<path d="M67.2751 22.3009 L64.8962 22.3009 "/>
<path d="M66.0857 22.3009 L66.0857 18.1377 "/>
<path d="M66.0857 18.1377 L65.6892 18.7325 "/>
<path d="M65.6892 18.7325 L65.2927 19.1290 "/>
<path d="M65.2927 19.1290 L64.8962 19.3272 "/>
</g><text x="61.7817" y="159.0419" textLength="13.7286" font-size="5.5509" lengthAdjust="spacingAndGlyphs" text-anchor="middle" opacity="0">SW1</text>
<g class="stroked-text"><desc>SW1</desc>
<path d="M56.2308 158.6556 L56.8255 158.8538 "/>
<path d="M56.8255 158.8538 L57.8167 158.8538 "/>
<path d="M57.8167 158.8538 L58.2132 158.6556 "/>
<path d="M58.2132 158.6556 L58.4115 158.4573 "/>
<path d="M58.4115 158.4573 L58.6097 158.0608 "/>
<path d="M58.6097 158.0608 L58.6097 157.6643 "/>
<path d="M58.6097 157.6643 L58.4115 157.2678 "/>
<path d="M58.4115 157.2678 L58.2132 157.0696 "/>
<path d="M58.2132 157.0696 L57.8167 156.8713 "/>
<path d="M57.8167 156.8713 L57.0238 156.6731 "/>
<path d="M57.0238 156.6731 L56.6273 156.4748 "/>
<path d="M56.6273 156.4748 L56.4290 156.2766 "/>
<path d="M56.4290 156.2766 L56.2308 155.8801 "/>
<path d="M56.2308 155.8801 L56.2308 155.4836 "/>
<path d="M56.2308 155.4836 L56.4290 155.0871 "/>
<path d="M56.4290 155.0871 L56.6273 154.8889 "/>
<path d="M56.6273 154.8889 L57.0238 154.6906 "/>
<path d="M57.0238 154.6906 L58.0150 154.6906 "/>
<path d="M58.0150 154.6906 L58.6097 154.8889 "/>
<path d="M59.9975 154.6906 L60.9887 158.8538 "/>
<path d="M60.9887 158.8538 L61.7817 155.8801 "/>
<path d="M61.7817 155.8801 L62.5747 158.8538 "/>
<path d="M62.5747 158.8538 L63.5659 154.6906 "/>
<path d="M67.3326 158.8538 L64.9537 158.8538 "/>
<path d="M66.1431 158.8538 L66.1431 154.6906 "/>
<path d="M66.1431 154.6906 L65.7466 155.2854 "/>
<path d="M65.7466 155.2854 L65.3502 155.6818 "/>
<path d="M65.3502 155.6818 L64.9537 155.8801 "/>
</g><g transform="rotate(-180.000000 183.6884 162.5773)">
<text x="183.6884" y="164.6589" transform="scale(-1 1) translate(-367.376893 0)" textLength="5.2040" font-size="5.5509" lengthAdjust="spacingAndGlyphs" text-anchor="middle" opacity="0">K</text>
</g>
<g class="stroked-text"><desc>K</desc>
<path d="M182.5981 160.6838 L182.5981 164.8470 "/>
<path d="M184.9771 160.6838 L183.1928 163.0628 "/>
<path d="M184.9771 164.8470 L182.5981 162.4680 "/>
</g><g transform="rotate(45.000000 161.2875 65.4914)">
<text x="161.2875" y="67.5730" textLength="8.7725" font-size="5.5509" lengthAdjust="spacingAndGlyphs" text-anchor="middle" opacity="0">1u</text>
</g>
<g class="stroked-text"><desc>1u</desc>
<path d="M159.4579 66.3397 L157.7758 64.6575 "/>
<path d="M158.6169 65.4986 L161.5607 62.5548 "/>
<path d="M161.5607 62.5548 L160.8598 62.6950 "/>
<path d="M160.8598 62.6950 L160.2990 62.6950 "/>
<path d="M160.2990 62.6950 L159.8785 62.5548 "/>
<path d="M163.9438 66.9004 L161.9812 68.8630 "/>
<path d="M162.6821 65.6388 L161.1401 67.1808 "/>
<path d="M161.1401 67.1808 L160.9999 67.6014 "/>
<path d="M160.9999 67.6014 L161.1401 68.0219 "/>
<path d="M161.1401 68.0219 L161.5607 68.4424 "/>
<path d="M161.5607 68.4424 L161.9812 68.5826 "/>
<path d="M161.9812 68.5826 L162.2616 68.5826 "/>
</g><text x="188.4178" y="165.0819" transform="scale(-1 1) translate(-376.835678 0)" textLength="5.2040" font-size="5.5509" lengthAdjust="spacingAndGlyphs" text-anchor="middle" opacity="0">K</text>
<g class="stroked-text"><desc>K</desc>
<path d="M189.5082 164.8938 L189.5082 160.7306 "/>
<path d="M187.1292 164.8938 L188.9135 162.5148 "/>
<path d="M187.1292 160.7306 L189.5082 163.1095 "/>
</g><g transform="rotate(-90.000000 88.5719 157.1110)">
<text x="88.5719" y="159.1926" textLength="12.7374" font-size="5.5509" lengthAdjust="spacingAndGlyphs" text-anchor="middle" opacity="0">10u</text>
</g>
<g class="stroked-text"><desc>10u</desc>
<path d="M90.4654 159.7873 L90.4654 162.1663 "/>
<path d="M90.4654 160.9768 L86.3022 160.9768 "/>
<path d="M86.3022 160.9768 L86.8969 161.3733 "/>
<path d="M86.8969 161.3733 L87.2934 161.7698 "/>
<path d="M87.2934 161.7698 L87.4917 162.1663 "/>
<path d="M86.3022 157.2101 L86.3022 156.8136 "/>
<path d="M86.3022 156.8136 L86.5004 156.4171 "/>
<path d="M86.5004 156.4171 L86.6987 156.2189 "/>
<path d="M86.6987 156.2189 L87.0952 156.0206 "/>
<path d="M87.0952 156.0206 L87.8882 155.8224 "/>
<path d="M87.8882 155.8224 L88.8794 155.8224 "/>
<path d="M88.8794 155.8224 L89.6724 156.0206 "/>
<path d="M89.6724 156.0206 L90.0689 156.2189 "/>
<path d="M90.0689 156.2189 L90.2671 156.4171 "/>
<path d="M90.2671 156.4171 L90.4654 156.8136 "/>
<path d="M90.4654 156.8136 L90.4654 157.2101 "/>
<path d="M90.4654 157.2101 L90.2671 157.6066 "/>
<path d="M90.2671 157.6066 L90.0689 157.8048 "/>
<path d="M90.0689 157.8048 L89.6724 158.0031 "/>
<path d="M89.6724 158.0031 L88.8794 158.2013 "/>
<path d="M88.8794 158.2013 L87.8882 158.2013 "/>
<path d="M87.8882 158.2013 L87.0952 158.0031 "/>
<path d="M87.0952 158.0031 L86.6987 157.8048 "/>
<path d="M86.6987 157.8048 L86.5004 157.6066 "/>
<path d="M86.5004 157.6066 L86.3022 157.2101 "/>
<path d="M87.6899 152.2539 L90.4654 152.2539 "/>
<path d="M87.6899 154.0381 L89.8706 154.0381 "/>
<path d="M89.8706 154.0381 L90.2671 153.8399 "/>
<path d="M90.2671 153.8399 L90.4654 153.4434 "/>
<path d="M90.4654 153.4434 L90.4654 152.8486 "/>
<path d="M90.4654 152.8486 L90.2671 152.4522 "/>
<path d="M90.2671 152.4522 L90.0689 152.2539 "/>
</g><path d="M180.4745 175.2367 L201.6235 175.2367 "/>
<path d="M180.4745 206.9603 L180.4745 175.2367 "/>
<path d="M201.6235 175.2367 L201.6235 206.9603 "/>
<path d="M201.6235 206.9603 L180.4745 206.9603 "/>
</g>
<g style="fill:#848484; fill-opacity:0.0;  stroke:#848484; stroke-width:0.4163; stroke-opacity:1;  stroke-linecap:round; stroke-linejoin:round;">
<path d="M226.0198 150.2992 L243.5053 150.2992 "/>
<path d="M226.0198 152.3808 L228.1014 150.2992 "/>
<path d="M226.0198 161.5398 L228.1014 163.6214 "/>
<path d="M226.0198 163.6214 L226.0198 150.2992 "/>
<path d="M231.0157 152.3808 L238.0931 152.3808 "/>
<path d="M238.0931 161.5398 L231.0157 161.5398 "/>
<path d="M241.4237 150.2992 L243.5053 152.3808 "/>
<path d="M241.4237 163.6214 L243.5053 161.5398 "/>
<path d="M243.5053 150.2992 L243.5053 163.6214 "/>
<path d="M243.5053 163.6214 L226.0198 163.6214 "/>
<path d="M231.0157 152.3808 A5.6626 5.6626 0.0 0 0 231.0157 161.5398"/>
<path d="M238.0931 161.5398 A5.4281 5.4281 0.0 0 0 238.0931 152.3808"/>
</g>
<g style="fill:#848484; fill-opacity:0.0;  stroke:#848484; stroke-width:0.6245; stroke-opacity:1;  stroke-linecap:round; stroke-linejoin:round;">
<path d="M127.6019 175.6531 L148.7509 175.6531 "/>
<path d="M127.6019 207.3766 L127.6019 175.6531 "/>
<path d="M148.7509 175.6531 L148.7509 207.3766 "/>
<path d="M148.7509 207.3766 L127.6019 207.3766 "/>
</g>
<g style="fill:#848484; fill-opacity:0.0;  stroke:#848484; stroke-width:0.4163; stroke-opacity:1;  stroke-linecap:round; stroke-linejoin:round;">
<path d="M70.7326 163.6214 L53.2471 163.6214 "/>
<path d="M70.7326 161.5398 L68.6510 163.6214 "/>
<path d="M70.7326 152.3808 L68.6510 150.2992 "/>
<path d="M70.7326 150.2992 L70.7326 163.6214 "/>
<path d="M65.7367 161.5398 L58.6593 161.5398 "/>
<path d="M58.6593 152.3808 L65.7367 152.3808 "/>
<path d="M55.3287 163.6214 L53.2471 161.5398 "/>
<path d="M55.3287 150.2992 L53.2471 152.3808 "/>
<path d="M53.2471 163.6214 L53.2471 150.2992 "/>
<path d="M53.2471 150.2992 L70.7326 150.2992 "/>
<path d="M65.7367 161.5398 A5.6626 5.6626 0.0 0 0 65.7367 152.3808"/>
<path d="M58.6593 152.3808 A5.4281 5.4281 0.0 0 0 58.6593 161.5398"/>
<g>
</g>
<g>
</g>
<g>
</g>
<g>
</g>
<g>
</g>
<g>
</g>
<g>
</g>
<g>
</g>
<g>
</g>
<g>
</g>
<g>
</g>
<g>
</g>
<g>
</g>
<g>
</g>
<g>
</g>
<g>
</g>
<g>
</g>
<g>
</g>
<g>
</g>
<g>
</g>
<g>
</g>
<g>
</g>
<g>
</g>
<g>
</g>
<g>
</g>
<g>
</g>
<g>
</g>
<g>
</g>
<g>
</g>
<g>
</g>
<g>
</g>
<g>
</g>
<g>
</g>
<g>
</g>
<g>
</g>
<g>
</g>
<g>
</g>
<g>
</g>
<g>
</g>
<g>
</g>
<g>
</g>
<g>
</g>
<g>
</g>
<g>
</g>
<g>
</g>
<g>
</g>
<g>
</g>
<g>
</g>
<g>
</g>
</g> 
<svg:g><svg:g><svg:title>SVG Image created as RP2040v01-Edge_Cuts.svg date 2024/06/09 18:11:10 </svg:title>
  <svg:desc>Image generated by PCBNEW </svg:desc>
<svg:g style="fill:#C2C200; fill-opacity:1.0000;stroke:#C2C200; stroke-opacity:1.0000; stroke-linecap:round; stroke-linejoin:round;" transform="translate(0 0) scale(1 1)">
</svg:g>
<svg:g style="fill:#C2C200; fill-opacity:0.0;  stroke:#C2C200; stroke-width:0.0000; stroke-opacity:1;  stroke-linecap:round; stroke-linejoin:round;">
</svg:g>
<svg:g style="fill:#C2C200; fill-opacity:0.0;  stroke:#C2C200; stroke-width:0.6245; stroke-opacity:1;  stroke-linecap:round; stroke-linejoin:round;">
<svg:path style="fill:#C2C200; fill-opacity:0.0;  stroke:#C2C200; stroke-width:0.6245; stroke-opacity:1;  stroke-linecap:round; stroke-linejoin:round;fill:none" d="M 43.8133,0.3158 253.1889,0.3158 253.1889,209.6914 43.8133,209.6914 Z"/> 
<svg:g>
</svg:g>
<svg:g>
</svg:g>
<svg:g>
</svg:g>
<svg:g>
</svg:g>
<svg:g>
</svg:g>
<svg:g>
</svg:g>
<svg:g>
</svg:g>
<svg:g>
</svg:g>
<svg:g>
</svg:g>
<svg:g>
</svg:g>
<svg:g>
</svg:g>
<svg:g>
</svg:g>
<svg:g>
</svg:g>
<svg:g>
</svg:g>
<svg:g>
</svg:g>
<svg:g>
</svg:g>
<svg:g>
</svg:g>
<svg:g>
</svg:g>
<svg:g>
</svg:g>
<svg:g>
</svg:g>
<svg:g>
</svg:g>
<svg:g>
</svg:g>
<svg:g>
</svg:g>
<svg:g>
</svg:g>
<svg:g>
</svg:g>
<svg:g>
</svg:g>
<svg:g>
</svg:g>
<svg:g>
</svg:g>
<svg:g>
</svg:g>
<svg:g>
</svg:g>
<svg:g>
</svg:g>
<svg:g>
</svg:g>
<svg:g>
</svg:g>
<svg:g>
</svg:g>
<svg:g>
</svg:g>
<svg:g>
</svg:g>
<svg:g>
</svg:g>
<svg:g>
</svg:g>
<svg:g>
</svg:g>
<svg:g>
</svg:g>
<svg:g>
</svg:g>
<svg:g>
</svg:g>
<svg:g>
</svg:g>
<svg:g>
</svg:g>
<svg:g>
</svg:g>
<svg:g>
</svg:g>
<svg:g>
</svg:g>
<svg:g>
</svg:g>
<svg:g>
</svg:g>
</svg:g> 
</svg:g></svg:g></svg>
