%TF.GenerationSoftware,KiCad,Pcbnew,7.0.11+1*%
%TF.CreationDate,2024-06-06T22:27:14+00:00*%
%TF.ProjectId,RP2040v01,52503230-3430-4763-9031-2e6b69636164,rev?*%
%TF.SameCoordinates,Original*%
%TF.FileFunction,Copper,L1,Top*%
%TF.FilePolarity,Positive*%
%FSLAX46Y46*%
G04 Gerber Fmt 4.6, Leading zero omitted, Abs format (unit mm)*
G04 Created by KiCad (PCBNEW 7.0.11+1) date 2024-06-06 22:27:14*
%MOMM*%
%LPD*%
G01*
G04 APERTURE LIST*
%TA.AperFunction,ComponentPad*%
%ADD10C,0.800000*%
%TD*%
%TA.AperFunction,ComponentPad*%
%ADD11C,6.400000*%
%TD*%
%TA.AperFunction,ComponentPad*%
%ADD12R,1.524000X1.524000*%
%TD*%
%TA.AperFunction,SMDPad,CuDef*%
%ADD13R,1.050000X0.650000*%
%TD*%
%TA.AperFunction,ComponentPad*%
%ADD14O,1.000000X2.000000*%
%TD*%
%TA.AperFunction,ComponentPad*%
%ADD15O,1.050000X2.100000*%
%TD*%
%TA.AperFunction,ViaPad*%
%ADD16C,0.600000*%
%TD*%
%TA.AperFunction,Conductor*%
%ADD17C,0.500000*%
%TD*%
%TA.AperFunction,Conductor*%
%ADD18C,0.300000*%
%TD*%
G04 APERTURE END LIST*
D10*
%TO.P,H3,1,1*%
%TO.N,GND*%
X7760000Y10160000D03*
X8462944Y11857056D03*
X8462944Y8462944D03*
X10160000Y12560000D03*
D11*
X10160000Y10160000D03*
D10*
X10160000Y7760000D03*
X11857056Y11857056D03*
X11857056Y8462944D03*
X12560000Y10160000D03*
%TD*%
%TO.P,H4,1,1*%
%TO.N,GND*%
X48400000Y10160000D03*
X49102944Y11857056D03*
X49102944Y8462944D03*
X50800000Y12560000D03*
D11*
X50800000Y10160000D03*
D10*
X50800000Y7760000D03*
X52497056Y11857056D03*
X52497056Y8462944D03*
X53200000Y10160000D03*
%TD*%
D12*
%TO.P,J3,1*%
%TO.N,GND*%
X39430000Y12340000D03*
%TO.P,J3,2*%
X41970000Y12340000D03*
%TO.P,J3,3*%
%TO.N,+3V3*%
X39430000Y9800000D03*
%TO.P,J3,4*%
X41970000Y9800000D03*
%TO.P,J3,5*%
%TO.N,GND*%
X39430000Y7260000D03*
%TO.P,J3,6*%
X41970000Y7260000D03*
%TD*%
%TO.P,J8,1*%
%TO.N,GND*%
X31235000Y53290000D03*
%TO.P,J8,2*%
X31235000Y50750000D03*
%TO.P,J8,3*%
%TO.N,/GPIO13*%
X28695000Y53290000D03*
%TO.P,J8,4*%
X28695000Y50750000D03*
%TO.P,J8,5*%
%TO.N,+3V3*%
X26155000Y53290000D03*
%TO.P,J8,6*%
X26155000Y50750000D03*
%TO.P,J8,7*%
%TO.N,/GPIO12*%
X23615000Y53290000D03*
%TO.P,J8,8*%
X23615000Y50750000D03*
%TO.P,J8,9*%
%TO.N,GND*%
X21075000Y53290000D03*
%TO.P,J8,10*%
X21075000Y50750000D03*
%TD*%
D13*
%TO.P,SW2,1,1*%
%TO.N,GND*%
X49125000Y19075000D03*
X53275000Y19075000D03*
%TO.P,SW2,2,2*%
%TO.N,Net-(U4-RUN)*%
X49125000Y16925000D03*
X53250000Y16925000D03*
%TD*%
D12*
%TO.P,J6,1*%
%TO.N,/GPIO20*%
X49960000Y45240000D03*
%TO.P,J6,2*%
X52500000Y45240000D03*
%TO.P,J6,3*%
%TO.N,/GPIO21*%
X49960000Y42700000D03*
%TO.P,J6,4*%
X52500000Y42700000D03*
%TO.P,J6,5*%
%TO.N,/GPIO22*%
X49960000Y40160000D03*
%TO.P,J6,6*%
X52500000Y40160000D03*
%TO.P,J6,7*%
%TO.N,/GPIO23*%
X49960000Y37620000D03*
%TO.P,J6,8*%
X52500000Y37620000D03*
%TO.P,J6,9*%
%TO.N,/GPIO24*%
X49960000Y35080000D03*
%TO.P,J6,10*%
X52500000Y35080000D03*
%TO.P,J6,11*%
%TO.N,/GPIO25*%
X49960000Y32540000D03*
%TO.P,J6,12*%
X52500000Y32540000D03*
%TO.P,J6,13*%
%TO.N,/GPIO26*%
X49960000Y30000000D03*
%TO.P,J6,14*%
X52500000Y30000000D03*
%TO.P,J6,15*%
%TO.N,/GPIO27*%
X49960000Y27460000D03*
%TO.P,J6,16*%
X52500000Y27460000D03*
%TO.P,J6,17*%
%TO.N,/GPIO28*%
X49960000Y24920000D03*
%TO.P,J6,18*%
X52500000Y24920000D03*
%TO.P,J6,19*%
%TO.N,/GPIO29*%
X49960000Y22380000D03*
%TO.P,J6,20*%
X52500000Y22380000D03*
%TD*%
D10*
%TO.P,H2,1,1*%
%TO.N,GND*%
X48400000Y50800000D03*
X49102944Y52497056D03*
X49102944Y49102944D03*
X50800000Y53200000D03*
D11*
X50800000Y50800000D03*
D10*
X50800000Y48400000D03*
X52497056Y52497056D03*
X52497056Y49102944D03*
X53200000Y50800000D03*
%TD*%
D12*
%TO.P,J1,1*%
%TO.N,GND*%
X26730000Y12240000D03*
%TO.P,J1,2*%
X29270000Y12240000D03*
%TO.P,J1,3*%
%TO.N,+5V*%
X26730000Y9700000D03*
%TO.P,J1,4*%
X29270000Y9700000D03*
%TO.P,J1,5*%
%TO.N,GND*%
X26730000Y7160000D03*
%TO.P,J1,6*%
X29270000Y7160000D03*
%TD*%
%TO.P,J5,1*%
%TO.N,/GPIO0*%
X11040000Y22340000D03*
%TO.P,J5,2*%
X8500000Y22340000D03*
%TO.P,J5,3*%
%TO.N,/GPIO1*%
X11040000Y24880000D03*
%TO.P,J5,4*%
X8500000Y24880000D03*
%TO.P,J5,5*%
%TO.N,/GPIO2*%
X11040000Y27420000D03*
%TO.P,J5,6*%
X8500000Y27420000D03*
%TO.P,J5,7*%
%TO.N,/GPIO3*%
X11040000Y29960000D03*
%TO.P,J5,8*%
X8500000Y29960000D03*
%TO.P,J5,9*%
%TO.N,/GPIO4*%
X11040000Y32500000D03*
%TO.P,J5,10*%
X8500000Y32500000D03*
%TO.P,J5,11*%
%TO.N,/GPIO5*%
X11040000Y35040000D03*
%TO.P,J5,12*%
X8500000Y35040000D03*
%TO.P,J5,13*%
%TO.N,/GPIO6*%
X11040000Y37580000D03*
%TO.P,J5,14*%
X8500000Y37580000D03*
%TO.P,J5,15*%
%TO.N,/GPIO7*%
X11040000Y40120000D03*
%TO.P,J5,16*%
X8500000Y40120000D03*
%TO.P,J5,17*%
%TO.N,/GPIO8*%
X11040000Y42660000D03*
%TO.P,J5,18*%
X8500000Y42660000D03*
%TO.P,J5,19*%
%TO.N,/GPIO9*%
X11040000Y45200000D03*
%TO.P,J5,20*%
X8500000Y45200000D03*
%TD*%
%TO.P,J4,1*%
%TO.N,/SWD*%
X40175000Y39075000D03*
%TO.P,J4,2*%
%TO.N,/SCLK*%
X37635000Y39075000D03*
%TD*%
D10*
%TO.P,H1,1,1*%
%TO.N,GND*%
X7760000Y50800000D03*
X8462944Y52497056D03*
X8462944Y49102944D03*
X10160000Y53200000D03*
D11*
X10160000Y50800000D03*
D10*
X10160000Y48400000D03*
X11857056Y52497056D03*
X11857056Y49102944D03*
X12560000Y50800000D03*
%TD*%
D13*
%TO.P,SW1,1,1*%
%TO.N,Net-(R3-Pad1)*%
X11775000Y16925000D03*
X7625000Y16925000D03*
%TO.P,SW1,2,2*%
%TO.N,Net-(U3-~{CS})*%
X11775000Y19075000D03*
X7650000Y19075000D03*
%TD*%
D12*
%TO.P,J7,1*%
%TO.N,GND*%
X17185000Y45310000D03*
%TO.P,J7,2*%
X17185000Y47850000D03*
%TO.P,J7,3*%
%TO.N,/GPIO10*%
X19725000Y45310000D03*
%TO.P,J7,4*%
X19725000Y47850000D03*
%TO.P,J7,5*%
%TO.N,/GPIO11*%
X22265000Y45310000D03*
%TO.P,J7,6*%
X22265000Y47850000D03*
%TO.P,J7,7*%
%TO.N,/GPIO12*%
X24805000Y45310000D03*
%TO.P,J7,8*%
X24805000Y47850000D03*
%TO.P,J7,9*%
%TO.N,/GPIO13*%
X27345000Y45310000D03*
%TO.P,J7,10*%
X27345000Y47850000D03*
%TO.P,J7,11*%
%TO.N,/GPIO14*%
X29885000Y45310000D03*
%TO.P,J7,12*%
X29885000Y47850000D03*
%TO.P,J7,13*%
%TO.N,/GPIO15*%
X32425000Y45310000D03*
%TO.P,J7,14*%
X32425000Y47850000D03*
%TO.P,J7,15*%
%TO.N,/GPIO16*%
X34965000Y45310000D03*
%TO.P,J7,16*%
X34965000Y47850000D03*
%TO.P,J7,17*%
%TO.N,/GPIO17*%
X37505000Y45310000D03*
%TO.P,J7,18*%
X37505000Y47850000D03*
%TO.P,J7,19*%
%TO.N,/GPIO18*%
X40045000Y45310000D03*
%TO.P,J7,20*%
X40045000Y47850000D03*
%TO.P,J7,21*%
%TO.N,/GPIO19*%
X42585000Y45310000D03*
%TO.P,J7,22*%
X42585000Y47850000D03*
%TO.P,J7,23*%
%TO.N,GND*%
X45125000Y45310000D03*
%TO.P,J7,24*%
X45125000Y47850000D03*
%TD*%
D14*
%TO.P,J2,G1,SHIELD*%
%TO.N,GND*%
X23920000Y7635000D03*
%TO.P,J2,G2,SHIELD*%
X15280000Y7635000D03*
D15*
%TO.P,J2,G3,SHIELD*%
X23920000Y11815000D03*
%TO.P,J2,G4,SHIELD*%
X15280000Y11815000D03*
%TD*%
D16*
%TO.N,GND*%
X39275000Y24200000D03*
X25200000Y16800000D03*
X29900000Y35400000D03*
X25800000Y20800000D03*
X23600000Y15200000D03*
X36300000Y34850000D03*
X26700000Y24400000D03*
X28500000Y16800000D03*
X33100000Y29000000D03*
X37600000Y36225000D03*
X18825000Y16700000D03*
X36100000Y21400000D03*
X28725000Y37575000D03*
X30600000Y28225000D03*
X31352500Y37242500D03*
X36400000Y41475000D03*
X33200000Y27000000D03*
X30600000Y29400000D03*
X15425000Y17925000D03*
X25200000Y43450000D03*
X30600000Y27100000D03*
%TO.N,+5V*%
X18100000Y14200000D03*
X17700000Y13800000D03*
%TO.N,+3V3*%
X30000000Y20300000D03*
X34300000Y15300000D03*
X34300000Y14600000D03*
X29762500Y30362500D03*
X30000000Y19600000D03*
%TO.N,+1V1*%
X35500000Y39700000D03*
X31700000Y23700000D03*
X33075000Y34036497D03*
X33700000Y23500000D03*
%TO.N,/SCLK*%
X34486244Y34538755D03*
%TO.N,/SWD*%
X35127880Y33237500D03*
%TO.N,Net-(R3-Pad1)*%
X7625000Y16925000D03*
%TO.N,/GPIO25*%
X44575000Y27325000D03*
X44456250Y20968750D03*
%TO.N,Net-(J2-CC1)*%
X17225000Y15325000D03*
X20900000Y11000000D03*
%TO.N,Net-(J2-D+-PadA6)*%
X20762500Y16150000D03*
X19475000Y14450000D03*
%TO.N,Net-(J2-CC2)*%
X12900000Y15075000D03*
X18225000Y10800000D03*
%TO.N,Net-(U3-~{CS})*%
X28500000Y24500000D03*
X20600000Y18232500D03*
X16850000Y20750000D03*
X11775000Y19075000D03*
%TO.N,Net-(U4-RUN)*%
X34100000Y30700000D03*
X46300000Y16925000D03*
%TO.N,Net-(U3-DO(IO1))*%
X26800000Y23400000D03*
X23981250Y21918750D03*
%TD*%
D17*
%TO.N,+5V*%
X17700000Y13800000D02*
X18100000Y14200000D01*
X17700000Y12775000D02*
X17700000Y13800000D01*
X26730000Y9700000D02*
X20775000Y9700000D01*
X20775000Y9700000D02*
X17700000Y12775000D01*
D18*
%TO.N,+3V3*%
X26155000Y38296471D02*
X26150000Y38291471D01*
D17*
X34300000Y15300000D02*
X30250000Y19350000D01*
D18*
X26150000Y33950000D02*
X29737500Y30362500D01*
D17*
X30000000Y19600000D02*
X30000000Y20300000D01*
X34300000Y14600000D02*
X34300000Y15300000D01*
D18*
X26150000Y38291471D02*
X26150000Y33950000D01*
X29737500Y30362500D02*
X29762500Y30362500D01*
D17*
X30250000Y19350000D02*
X30000000Y19600000D01*
D18*
X26155000Y53290000D02*
X26155000Y38296471D01*
%TO.N,+1V1*%
X32300000Y23700000D02*
X31700000Y23700000D01*
X32300000Y32675000D02*
X32300000Y23700000D01*
X33075000Y34036497D02*
X33075000Y33450000D01*
X33075000Y34036497D02*
X33075000Y34950000D01*
X33075000Y33450000D02*
X32300000Y32675000D01*
X35500000Y37375000D02*
X35500000Y39700000D01*
X31700000Y23700000D02*
X33500000Y23700000D01*
X33075000Y34950000D02*
X35500000Y37375000D01*
X33500000Y23700000D02*
X33700000Y23500000D01*
%TO.N,/SCLK*%
X37825000Y37750000D02*
X37825000Y39490000D01*
X34486244Y34538755D02*
X34613755Y34538755D01*
X34613755Y34538755D02*
X37825000Y37750000D01*
%TO.N,/SWD*%
X35127880Y33237500D02*
X36012500Y33237500D01*
X40365000Y37590000D02*
X40365000Y39490000D01*
X36012500Y33237500D02*
X40365000Y37590000D01*
%TO.N,Net-(R3-Pad1)*%
X11775000Y16925000D02*
X7625000Y16925000D01*
%TO.N,/GPIO25*%
X44575000Y21087500D02*
X44575000Y27325000D01*
X44456250Y20968750D02*
X44575000Y21087500D01*
%TO.N,Net-(J2-CC1)*%
X18075000Y15325000D02*
X17225000Y15325000D01*
X20900000Y11000000D02*
X18750000Y13150000D01*
X18750000Y13150000D02*
X18750000Y14650000D01*
X18750000Y14650000D02*
X18075000Y15325000D01*
%TO.N,Net-(J2-D+-PadA6)*%
X19475000Y14450000D02*
X19475000Y15275000D01*
X19475000Y15275000D02*
X20350000Y16150000D01*
X20350000Y16150000D02*
X20762500Y16150000D01*
%TO.N,Net-(J2-CC2)*%
X18225000Y10925000D02*
X16875000Y12275000D01*
X15450000Y15075000D02*
X12900000Y15075000D01*
X16875000Y12275000D02*
X16875000Y13650000D01*
X18225000Y10800000D02*
X18225000Y10925000D01*
X16875000Y13650000D02*
X15450000Y15075000D01*
%TO.N,Net-(U3-~{CS})*%
X24151739Y18232500D02*
X28500000Y22580761D01*
X19342500Y18232500D02*
X20600000Y18232500D01*
X20600000Y18232500D02*
X24151739Y18232500D01*
X7650000Y19075000D02*
X11775000Y19075000D01*
X28500000Y22580761D02*
X28500000Y24500000D01*
X16850000Y20750000D02*
X16850000Y20725000D01*
X16850000Y20725000D02*
X19342500Y18232500D01*
%TO.N,Net-(U4-RUN)*%
X46300000Y16925000D02*
X44950000Y16925000D01*
X46300000Y16925000D02*
X53250000Y16925000D01*
X34100000Y27775000D02*
X34100000Y30700000D01*
X44950000Y16925000D02*
X34100000Y27775000D01*
%TO.N,Net-(U3-DO(IO1))*%
X25462500Y23400000D02*
X26800000Y23400000D01*
X23981250Y21918750D02*
X25462500Y23400000D01*
%TD*%
%TA.AperFunction,Conductor*%
%TO.N,GND*%
G36*
X55084691Y55106593D02*
G01*
X55120655Y55057093D01*
X55125500Y55026500D01*
X55125500Y5933501D01*
X55106593Y5875310D01*
X55057093Y5839346D01*
X55026500Y5834501D01*
X5933500Y5834501D01*
X5875309Y5853408D01*
X5839345Y5902908D01*
X5834500Y5933501D01*
X5834500Y6373376D01*
X25718000Y6373376D01*
X25732506Y6300454D01*
X25732507Y6300452D01*
X25787758Y6217763D01*
X25787762Y6217759D01*
X25870451Y6162508D01*
X25870453Y6162507D01*
X25943375Y6148001D01*
X25943377Y6148000D01*
X26529999Y6148000D01*
X26530000Y6148001D01*
X26530000Y6758378D01*
X26534960Y6754996D01*
X26663002Y6715500D01*
X26763312Y6715500D01*
X26862499Y6730450D01*
X26930000Y6762957D01*
X26930000Y6148001D01*
X26930001Y6148000D01*
X27516623Y6148000D01*
X27516624Y6148001D01*
X27589546Y6162507D01*
X27589548Y6162508D01*
X27672237Y6217759D01*
X27672241Y6217763D01*
X27727492Y6300452D01*
X27727493Y6300454D01*
X27741999Y6373376D01*
X28258000Y6373376D01*
X28272506Y6300454D01*
X28272507Y6300452D01*
X28327758Y6217763D01*
X28327762Y6217759D01*
X28410451Y6162508D01*
X28410453Y6162507D01*
X28483375Y6148001D01*
X28483377Y6148000D01*
X29069999Y6148000D01*
X29070000Y6148001D01*
X29070000Y6758378D01*
X29074960Y6754996D01*
X29203002Y6715500D01*
X29303312Y6715500D01*
X29402499Y6730450D01*
X29470000Y6762957D01*
X29470000Y6148001D01*
X29470001Y6148000D01*
X30056623Y6148000D01*
X30056624Y6148001D01*
X30129546Y6162507D01*
X30129548Y6162508D01*
X30212237Y6217759D01*
X30212241Y6217763D01*
X30267492Y6300452D01*
X30267493Y6300454D01*
X30281999Y6373376D01*
X30282000Y6373378D01*
X30282000Y6473376D01*
X38418000Y6473376D01*
X38432506Y6400454D01*
X38432507Y6400452D01*
X38487758Y6317763D01*
X38487762Y6317759D01*
X38570451Y6262508D01*
X38570453Y6262507D01*
X38643375Y6248001D01*
X38643377Y6248000D01*
X39229999Y6248000D01*
X39230000Y6248001D01*
X39230000Y6858378D01*
X39234960Y6854996D01*
X39363002Y6815500D01*
X39463312Y6815500D01*
X39562499Y6830450D01*
X39630000Y6862957D01*
X39630000Y6248001D01*
X39630001Y6248000D01*
X40216623Y6248000D01*
X40216624Y6248001D01*
X40289546Y6262507D01*
X40289548Y6262508D01*
X40372237Y6317759D01*
X40372241Y6317763D01*
X40427492Y6400452D01*
X40427493Y6400454D01*
X40441999Y6473376D01*
X40958000Y6473376D01*
X40972506Y6400454D01*
X40972507Y6400452D01*
X41027758Y6317763D01*
X41027762Y6317759D01*
X41110451Y6262508D01*
X41110453Y6262507D01*
X41183375Y6248001D01*
X41183377Y6248000D01*
X41769999Y6248000D01*
X41770000Y6248001D01*
X41770000Y6858378D01*
X41774960Y6854996D01*
X41903002Y6815500D01*
X42003312Y6815500D01*
X42102499Y6830450D01*
X42170000Y6862957D01*
X42170000Y6248001D01*
X42170001Y6248000D01*
X42756623Y6248000D01*
X42756624Y6248001D01*
X42829546Y6262507D01*
X42829548Y6262508D01*
X42912237Y6317759D01*
X42912241Y6317763D01*
X42967492Y6400452D01*
X42967493Y6400454D01*
X42981999Y6473376D01*
X42982000Y6473378D01*
X42982000Y7059999D01*
X42981999Y7060000D01*
X42367794Y7060000D01*
X42388447Y7095772D01*
X42418264Y7226407D01*
X42408251Y7360028D01*
X42369015Y7460000D01*
X42981999Y7460000D01*
X42982000Y7460001D01*
X42982000Y8046623D01*
X42981999Y8046625D01*
X42967493Y8119547D01*
X42967492Y8119549D01*
X42912241Y8202238D01*
X42912237Y8202242D01*
X42829548Y8257493D01*
X42829546Y8257494D01*
X42756624Y8272000D01*
X42170001Y8272000D01*
X42170000Y8271999D01*
X42170000Y7661623D01*
X42165040Y7665004D01*
X42036998Y7704500D01*
X41936688Y7704500D01*
X41837501Y7689550D01*
X41770000Y7657044D01*
X41770000Y8271999D01*
X41769999Y8272000D01*
X41183375Y8272000D01*
X41110453Y8257494D01*
X41110451Y8257493D01*
X41027762Y8202242D01*
X41027758Y8202238D01*
X40972507Y8119549D01*
X40972506Y8119547D01*
X40958000Y8046625D01*
X40958000Y7460001D01*
X40958001Y7460000D01*
X41572206Y7460000D01*
X41551553Y7424228D01*
X41521736Y7293593D01*
X41531749Y7159972D01*
X41570985Y7060000D01*
X40958001Y7060000D01*
X40958000Y7059999D01*
X40958000Y6473376D01*
X40441999Y6473376D01*
X40442000Y6473378D01*
X40442000Y7059999D01*
X40441999Y7060000D01*
X39827794Y7060000D01*
X39848447Y7095772D01*
X39878264Y7226407D01*
X39868251Y7360028D01*
X39829015Y7460000D01*
X40441999Y7460000D01*
X40442000Y7460001D01*
X40442000Y8046623D01*
X40441999Y8046625D01*
X40427493Y8119547D01*
X40427492Y8119549D01*
X40372241Y8202238D01*
X40372237Y8202242D01*
X40289548Y8257493D01*
X40289546Y8257494D01*
X40216624Y8272000D01*
X39630001Y8272000D01*
X39630000Y8271999D01*
X39630000Y7661623D01*
X39625040Y7665004D01*
X39496998Y7704500D01*
X39396688Y7704500D01*
X39297501Y7689550D01*
X39230000Y7657044D01*
X39230000Y8271999D01*
X39229999Y8272000D01*
X38643375Y8272000D01*
X38570453Y8257494D01*
X38570451Y8257493D01*
X38487762Y8202242D01*
X38487758Y8202238D01*
X38432507Y8119549D01*
X38432506Y8119547D01*
X38418000Y8046625D01*
X38418000Y7460001D01*
X38418001Y7460000D01*
X39032206Y7460000D01*
X39011553Y7424228D01*
X38981736Y7293593D01*
X38991749Y7159972D01*
X39030985Y7060000D01*
X38418001Y7060000D01*
X38418000Y7059999D01*
X38418000Y6473376D01*
X30282000Y6473376D01*
X30282000Y6959999D01*
X30281999Y6960000D01*
X29667794Y6960000D01*
X29688447Y6995772D01*
X29718264Y7126407D01*
X29708251Y7260028D01*
X29669015Y7360000D01*
X30281999Y7360000D01*
X30282000Y7360001D01*
X30282000Y7946623D01*
X30281999Y7946625D01*
X30267493Y8019547D01*
X30267492Y8019549D01*
X30212241Y8102238D01*
X30212237Y8102242D01*
X30129548Y8157493D01*
X30129546Y8157494D01*
X30056624Y8172000D01*
X29470001Y8172000D01*
X29470000Y8171999D01*
X29470000Y7561623D01*
X29465040Y7565004D01*
X29336998Y7604500D01*
X29236688Y7604500D01*
X29137501Y7589550D01*
X29070000Y7557044D01*
X29070000Y8171999D01*
X29069999Y8172000D01*
X28483375Y8172000D01*
X28410453Y8157494D01*
X28410451Y8157493D01*
X28327762Y8102242D01*
X28327758Y8102238D01*
X28272507Y8019549D01*
X28272506Y8019547D01*
X28258000Y7946625D01*
X28258000Y7360001D01*
X28258001Y7360000D01*
X28872206Y7360000D01*
X28851553Y7324228D01*
X28821736Y7193593D01*
X28831749Y7059972D01*
X28870985Y6960000D01*
X28258001Y6960000D01*
X28258000Y6959999D01*
X28258000Y6373376D01*
X27741999Y6373376D01*
X27742000Y6373378D01*
X27742000Y6959999D01*
X27741999Y6960000D01*
X27127794Y6960000D01*
X27148447Y6995772D01*
X27178264Y7126407D01*
X27168251Y7260028D01*
X27129015Y7360000D01*
X27741999Y7360000D01*
X27742000Y7360001D01*
X27742000Y7946623D01*
X27741999Y7946625D01*
X27727493Y8019547D01*
X27727492Y8019549D01*
X27672241Y8102238D01*
X27672237Y8102242D01*
X27589548Y8157493D01*
X27589546Y8157494D01*
X27516624Y8172000D01*
X26930001Y8172000D01*
X26930000Y8171999D01*
X26930000Y7561623D01*
X26925040Y7565004D01*
X26796998Y7604500D01*
X26696688Y7604500D01*
X26597501Y7589550D01*
X26530000Y7557044D01*
X26530000Y8171999D01*
X26529999Y8172000D01*
X25943375Y8172000D01*
X25870453Y8157494D01*
X25870451Y8157493D01*
X25787762Y8102242D01*
X25787758Y8102238D01*
X25732507Y8019549D01*
X25732506Y8019547D01*
X25718000Y7946625D01*
X25718000Y7360001D01*
X25718001Y7360000D01*
X26332206Y7360000D01*
X26311553Y7324228D01*
X26281736Y7193593D01*
X26291749Y7059972D01*
X26330985Y6960000D01*
X25718001Y6960000D01*
X25718000Y6959999D01*
X25718000Y6373376D01*
X5834500Y6373376D01*
X5834500Y10160000D01*
X6704933Y10160000D01*
X6725186Y9786444D01*
X6785712Y9417257D01*
X6885790Y9056806D01*
X6885794Y9056795D01*
X7024264Y8709259D01*
X7199505Y8378722D01*
X7409443Y8069087D01*
X7409450Y8069077D01*
X7582501Y7865347D01*
X8894837Y9177684D01*
X9025130Y9025130D01*
X9177680Y8894840D01*
X7864838Y7581997D01*
X7923238Y7526678D01*
X8221056Y7300283D01*
X8221061Y7300280D01*
X8541619Y7107407D01*
X8541625Y7107404D01*
X8881142Y6950326D01*
X9235680Y6830868D01*
X9601027Y6750449D01*
X9601026Y6750449D01*
X9972945Y6710000D01*
X10347055Y6710000D01*
X10718973Y6750449D01*
X11084318Y6830868D01*
X11084320Y6830868D01*
X11438857Y6950326D01*
X11743609Y7091320D01*
X14530000Y7091320D01*
X14545248Y6960859D01*
X14545250Y6960854D01*
X14605212Y6796111D01*
X14605217Y6796101D01*
X14701550Y6649633D01*
X14701555Y6649628D01*
X14829080Y6529314D01*
X14829080Y6529313D01*
X14980917Y6441651D01*
X15080000Y6411988D01*
X15080000Y7010101D01*
X15143962Y6961799D01*
X15251840Y6931105D01*
X15363521Y6941454D01*
X15463922Y6991448D01*
X15480000Y7009085D01*
X15480000Y6408695D01*
X15496563Y6411616D01*
X15496568Y6411617D01*
X15657547Y6481057D01*
X15657556Y6481062D01*
X15798184Y6585756D01*
X15798186Y6585758D01*
X15910880Y6720060D01*
X15989567Y6876738D01*
X15989567Y6876739D01*
X16030000Y7047341D01*
X16030000Y7091320D01*
X23170000Y7091320D01*
X23185248Y6960859D01*
X23185250Y6960854D01*
X23245212Y6796111D01*
X23245217Y6796101D01*
X23341550Y6649633D01*
X23341555Y6649628D01*
X23469080Y6529314D01*
X23469080Y6529313D01*
X23620917Y6441651D01*
X23720000Y6411988D01*
X23720000Y7010101D01*
X23783962Y6961799D01*
X23891840Y6931105D01*
X24003521Y6941454D01*
X24103922Y6991448D01*
X24120000Y7009085D01*
X24120000Y6408695D01*
X24136563Y6411616D01*
X24136568Y6411617D01*
X24297547Y6481057D01*
X24297556Y6481062D01*
X24438184Y6585756D01*
X24438186Y6585758D01*
X24550880Y6720060D01*
X24629567Y6876738D01*
X24629567Y6876739D01*
X24670000Y7047341D01*
X24670000Y7434999D01*
X24669999Y7435000D01*
X24220000Y7435000D01*
X24220000Y7835000D01*
X24669999Y7835000D01*
X24670000Y7835001D01*
X24670000Y8178681D01*
X24654751Y8309142D01*
X24654749Y8309147D01*
X24594787Y8473890D01*
X24594782Y8473900D01*
X24498449Y8620368D01*
X24498444Y8620373D01*
X24370919Y8740687D01*
X24370919Y8740688D01*
X24219081Y8828350D01*
X24120000Y8858014D01*
X24120000Y8259900D01*
X24056038Y8308201D01*
X23948160Y8338895D01*
X23836479Y8328546D01*
X23736078Y8278552D01*
X23720000Y8260916D01*
X23720000Y8861306D01*
X23719999Y8861307D01*
X23703434Y8858385D01*
X23703427Y8858383D01*
X23542452Y8788944D01*
X23542443Y8788939D01*
X23401815Y8684245D01*
X23401813Y8684243D01*
X23289119Y8549941D01*
X23210432Y8393263D01*
X23210432Y8393262D01*
X23170000Y8222660D01*
X23170000Y7835001D01*
X23170001Y7835000D01*
X23620000Y7835000D01*
X23620000Y7435000D01*
X23170001Y7435000D01*
X23170000Y7434999D01*
X23170000Y7091320D01*
X16030000Y7091320D01*
X16030000Y7434999D01*
X16029999Y7435000D01*
X15580000Y7435000D01*
X15580000Y7835000D01*
X16029999Y7835000D01*
X16030000Y7835001D01*
X16030000Y8178681D01*
X16014751Y8309142D01*
X16014749Y8309147D01*
X15954787Y8473890D01*
X15954782Y8473900D01*
X15858449Y8620368D01*
X15858444Y8620373D01*
X15730919Y8740687D01*
X15730919Y8740688D01*
X15579081Y8828350D01*
X15480000Y8858014D01*
X15480000Y8259900D01*
X15416038Y8308201D01*
X15308160Y8338895D01*
X15196479Y8328546D01*
X15096078Y8278552D01*
X15080000Y8260916D01*
X15080000Y8861306D01*
X15079999Y8861307D01*
X15063434Y8858385D01*
X15063427Y8858383D01*
X14902452Y8788944D01*
X14902443Y8788939D01*
X14761815Y8684245D01*
X14761813Y8684243D01*
X14649119Y8549941D01*
X14570432Y8393263D01*
X14570432Y8393262D01*
X14530000Y8222660D01*
X14530000Y7835001D01*
X14530001Y7835000D01*
X14980000Y7835000D01*
X14980000Y7435000D01*
X14530001Y7435000D01*
X14530000Y7434999D01*
X14530000Y7091320D01*
X11743609Y7091320D01*
X11778374Y7107404D01*
X11778380Y7107407D01*
X12098938Y7300280D01*
X12098943Y7300283D01*
X12396761Y7526679D01*
X12455160Y7581997D01*
X11142318Y8894839D01*
X11294870Y9025130D01*
X11425161Y9177682D01*
X12737496Y7865347D01*
X12910556Y8069087D01*
X13120494Y8378722D01*
X13295735Y8709259D01*
X13434205Y9056795D01*
X13434209Y9056806D01*
X13534287Y9417257D01*
X13594813Y9786444D01*
X13615066Y10160000D01*
X13594813Y10533557D01*
X13534287Y10902744D01*
X13434209Y11263195D01*
X13434205Y11263206D01*
X13295735Y11610742D01*
X13120494Y11941279D01*
X12954266Y12186446D01*
X14555000Y12186446D01*
X14555000Y11443554D01*
X14926446Y11815000D01*
X14555000Y12186446D01*
X12954266Y12186446D01*
X12910556Y12250914D01*
X12910549Y12250924D01*
X12737496Y12454656D01*
X11425159Y11142320D01*
X11294870Y11294870D01*
X11142316Y11425162D01*
X12455160Y12738005D01*
X12430475Y12761388D01*
X14687165Y12761388D01*
X14993255Y12455298D01*
X14980000Y12421080D01*
X14980000Y11237198D01*
X14991929Y11173378D01*
X14688509Y10869957D01*
X14720835Y10820808D01*
X14844110Y10704503D01*
X14844110Y10704502D01*
X14990886Y10619762D01*
X15153244Y10571154D01*
X15153243Y10571154D01*
X15322442Y10561300D01*
X15489342Y10590728D01*
X15644968Y10657858D01*
X15780909Y10759063D01*
X15872833Y10868613D01*
X15566744Y11174702D01*
X15580000Y11208920D01*
X15580000Y12392802D01*
X15568069Y12456626D01*
X15871489Y12760045D01*
X15839161Y12809196D01*
X15715889Y12925498D01*
X15715889Y12925499D01*
X15569113Y13010239D01*
X15406755Y13058847D01*
X15406756Y13058847D01*
X15237557Y13068701D01*
X15070657Y13039273D01*
X14915031Y12972143D01*
X14779089Y12870938D01*
X14687165Y12761388D01*
X12430475Y12761388D01*
X12396761Y12793323D01*
X12098943Y13019718D01*
X12098938Y13019721D01*
X11778380Y13212594D01*
X11778374Y13212597D01*
X11438857Y13369675D01*
X11084319Y13489133D01*
X10718972Y13569552D01*
X10718973Y13569552D01*
X10347055Y13610000D01*
X9972945Y13610000D01*
X9601026Y13569552D01*
X9235681Y13489133D01*
X9235679Y13489133D01*
X8881142Y13369675D01*
X8541625Y13212597D01*
X8541619Y13212594D01*
X8221061Y13019721D01*
X8221056Y13019718D01*
X7923234Y12793319D01*
X7923231Y12793317D01*
X7864838Y12738005D01*
X9177681Y11425162D01*
X9025130Y11294870D01*
X8894838Y11142319D01*
X7582501Y12454656D01*
X7409450Y12250924D01*
X7409443Y12250914D01*
X7199505Y11941279D01*
X7024264Y11610742D01*
X6885794Y11263206D01*
X6885790Y11263195D01*
X6785712Y10902744D01*
X6725186Y10533557D01*
X6704933Y10160000D01*
X5834500Y10160000D01*
X5834500Y15075000D01*
X12294318Y15075000D01*
X12314955Y14918242D01*
X12314957Y14918234D01*
X12375462Y14772162D01*
X12375462Y14772161D01*
X12471713Y14646724D01*
X12471718Y14646718D01*
X12597159Y14550464D01*
X12743238Y14489956D01*
X12860809Y14474478D01*
X12899999Y14469318D01*
X12900000Y14469318D01*
X12900001Y14469318D01*
X12931352Y14473446D01*
X13056762Y14489956D01*
X13202841Y14550464D01*
X13272665Y14604043D01*
X13330341Y14624466D01*
X13332932Y14624500D01*
X15222388Y14624500D01*
X15280579Y14605593D01*
X15292392Y14595504D01*
X16395504Y13492393D01*
X16423281Y13437876D01*
X16424500Y13422389D01*
X16424500Y12305864D01*
X16423878Y12294781D01*
X16419730Y12257967D01*
X16419730Y12257962D01*
X16430444Y12201336D01*
X16431064Y12197688D01*
X16439652Y12140713D01*
X16441840Y12133619D01*
X16441417Y12133489D01*
X16442109Y12131387D01*
X16442526Y12131532D01*
X16444975Y12124532D01*
X16471906Y12073576D01*
X16473574Y12070272D01*
X16498574Y12018359D01*
X16502753Y12012230D01*
X16502389Y12011983D01*
X16503677Y12010169D01*
X16504030Y12010429D01*
X16508431Y12004466D01*
X16508432Y12004465D01*
X16508434Y12004462D01*
X16509759Y12003137D01*
X16510532Y12001620D01*
X16512839Y11998494D01*
X16512319Y11998111D01*
X16537535Y11948622D01*
X16527964Y11888190D01*
X16484699Y11844925D01*
X16477641Y11841671D01*
X16419767Y11817699D01*
X16299551Y11725453D01*
X16299547Y11725449D01*
X16207302Y11605233D01*
X16195464Y11576654D01*
X16155727Y11530129D01*
X16096232Y11515846D01*
X16039704Y11539261D01*
X16007735Y11591431D01*
X16005000Y11614541D01*
X16005000Y12186446D01*
X15633554Y11815000D01*
X16007738Y11440816D01*
X16057193Y11444708D01*
X16109362Y11412738D01*
X16132777Y11356211D01*
X16132235Y11335523D01*
X16129534Y11315004D01*
X16129534Y11315000D01*
X16143499Y11208920D01*
X16149313Y11164764D01*
X16207302Y11024767D01*
X16299549Y10904549D01*
X16419767Y10812302D01*
X16559764Y10754313D01*
X16672280Y10739500D01*
X16672281Y10739500D01*
X16747719Y10739500D01*
X16747720Y10739500D01*
X16860236Y10754313D01*
X17000233Y10812302D01*
X17120451Y10904549D01*
X17212698Y11024767D01*
X17236670Y11082640D01*
X17276406Y11129166D01*
X17335901Y11143450D01*
X17392429Y11120036D01*
X17398129Y11114768D01*
X17488127Y11024770D01*
X17595682Y10917215D01*
X17623459Y10862698D01*
X17623831Y10834292D01*
X17619318Y10800005D01*
X17619318Y10800000D01*
X17639955Y10643242D01*
X17639957Y10643234D01*
X17700462Y10497162D01*
X17700462Y10497161D01*
X17796713Y10371724D01*
X17796718Y10371718D01*
X17922159Y10275464D01*
X17922160Y10275464D01*
X17922161Y10275463D01*
X17970730Y10255345D01*
X18068238Y10214956D01*
X18185809Y10199478D01*
X18224999Y10194318D01*
X18225000Y10194318D01*
X18225001Y10194318D01*
X18256352Y10198446D01*
X18381762Y10214956D01*
X18527841Y10275464D01*
X18653282Y10371718D01*
X18749536Y10497159D01*
X18810044Y10643238D01*
X18812132Y10659103D01*
X18838471Y10714327D01*
X18892241Y10743524D01*
X18952903Y10735539D01*
X18980289Y10716186D01*
X20377903Y9318572D01*
X20380251Y9316142D01*
X20424320Y9268956D01*
X20424322Y9268955D01*
X20424323Y9268954D01*
X20460519Y9246942D01*
X20468899Y9241239D01*
X20501344Y9216635D01*
X20502658Y9215639D01*
X20521346Y9208270D01*
X20536454Y9200766D01*
X20553618Y9190328D01*
X20594422Y9178896D01*
X20604024Y9175666D01*
X20643432Y9160125D01*
X20643433Y9160125D01*
X20643436Y9160124D01*
X20663415Y9158071D01*
X20679992Y9154920D01*
X20699335Y9149500D01*
X20741701Y9149500D01*
X20751823Y9148982D01*
X20793972Y9144648D01*
X20813761Y9148061D01*
X20830583Y9149500D01*
X25568501Y9149500D01*
X25626692Y9130593D01*
X25662656Y9081093D01*
X25667501Y9050500D01*
X25667501Y8893137D01*
X25670414Y8868010D01*
X25674664Y8858385D01*
X25715794Y8765235D01*
X25795235Y8685794D01*
X25898009Y8640415D01*
X25923135Y8637500D01*
X27536864Y8637501D01*
X27561991Y8640415D01*
X27664765Y8685794D01*
X27744206Y8765235D01*
X27789585Y8868009D01*
X27792500Y8893135D01*
X27792500Y8893140D01*
X28207500Y8893140D01*
X28207501Y8893137D01*
X28210414Y8868010D01*
X28214664Y8858385D01*
X28255794Y8765235D01*
X28335235Y8685794D01*
X28438009Y8640415D01*
X28463135Y8637500D01*
X30076864Y8637501D01*
X30101991Y8640415D01*
X30204765Y8685794D01*
X30284206Y8765235D01*
X30329585Y8868009D01*
X30332500Y8893135D01*
X30332500Y8993140D01*
X38367500Y8993140D01*
X38367501Y8993137D01*
X38370414Y8968010D01*
X38395756Y8910615D01*
X38415794Y8865235D01*
X38495235Y8785794D01*
X38598009Y8740415D01*
X38623135Y8737500D01*
X40236864Y8737501D01*
X40261991Y8740415D01*
X40364765Y8785794D01*
X40444206Y8865235D01*
X40489585Y8968009D01*
X40492500Y8993135D01*
X40492500Y8993140D01*
X40907500Y8993140D01*
X40907501Y8993137D01*
X40910414Y8968010D01*
X40935756Y8910615D01*
X40955794Y8865235D01*
X41035235Y8785794D01*
X41138009Y8740415D01*
X41163135Y8737500D01*
X42776864Y8737501D01*
X42801991Y8740415D01*
X42904765Y8785794D01*
X42984206Y8865235D01*
X43029585Y8968009D01*
X43032500Y8993135D01*
X43032499Y10160000D01*
X47344933Y10160000D01*
X47365186Y9786444D01*
X47425712Y9417257D01*
X47525790Y9056806D01*
X47525794Y9056795D01*
X47664264Y8709259D01*
X47839505Y8378722D01*
X48049443Y8069087D01*
X48049450Y8069077D01*
X48222501Y7865347D01*
X49534837Y9177684D01*
X49665130Y9025130D01*
X49817680Y8894840D01*
X48504838Y7581997D01*
X48563238Y7526678D01*
X48861056Y7300283D01*
X48861061Y7300280D01*
X49181619Y7107407D01*
X49181625Y7107404D01*
X49521142Y6950326D01*
X49875680Y6830868D01*
X50241027Y6750449D01*
X50241026Y6750449D01*
X50612945Y6710000D01*
X50987055Y6710000D01*
X51358973Y6750449D01*
X51724318Y6830868D01*
X51724320Y6830868D01*
X52078857Y6950326D01*
X52418374Y7107404D01*
X52418380Y7107407D01*
X52738938Y7300280D01*
X52738943Y7300283D01*
X53036761Y7526679D01*
X53095160Y7581997D01*
X51782318Y8894839D01*
X51934870Y9025130D01*
X52065161Y9177682D01*
X53377496Y7865347D01*
X53550556Y8069087D01*
X53760494Y8378722D01*
X53935735Y8709259D01*
X54074205Y9056795D01*
X54074209Y9056806D01*
X54174287Y9417257D01*
X54234813Y9786444D01*
X54255066Y10160000D01*
X54234813Y10533557D01*
X54174287Y10902744D01*
X54074209Y11263195D01*
X54074205Y11263206D01*
X53935735Y11610742D01*
X53760494Y11941279D01*
X53550556Y12250914D01*
X53550549Y12250924D01*
X53377496Y12454656D01*
X52065159Y11142320D01*
X51934870Y11294870D01*
X51782316Y11425162D01*
X53095160Y12738005D01*
X53036761Y12793323D01*
X52738943Y13019718D01*
X52738938Y13019721D01*
X52418380Y13212594D01*
X52418374Y13212597D01*
X52078857Y13369675D01*
X51724319Y13489133D01*
X51358972Y13569552D01*
X51358973Y13569552D01*
X50987055Y13610000D01*
X50612945Y13610000D01*
X50241026Y13569552D01*
X49875681Y13489133D01*
X49875679Y13489133D01*
X49521142Y13369675D01*
X49181625Y13212597D01*
X49181619Y13212594D01*
X48861061Y13019721D01*
X48861056Y13019718D01*
X48563234Y12793319D01*
X48563231Y12793317D01*
X48504838Y12738005D01*
X49817681Y11425162D01*
X49665130Y11294870D01*
X49534838Y11142319D01*
X48222501Y12454656D01*
X48049450Y12250924D01*
X48049443Y12250914D01*
X47839505Y11941279D01*
X47664264Y11610742D01*
X47525794Y11263206D01*
X47525790Y11263195D01*
X47425712Y10902744D01*
X47365186Y10533557D01*
X47344933Y10160000D01*
X43032499Y10160000D01*
X43032499Y10606864D01*
X43029585Y10631991D01*
X42984206Y10734765D01*
X42904765Y10814206D01*
X42801991Y10859585D01*
X42801990Y10859586D01*
X42801988Y10859586D01*
X42776868Y10862500D01*
X41163139Y10862500D01*
X41163136Y10862499D01*
X41138009Y10859586D01*
X41035235Y10814206D01*
X40955794Y10734765D01*
X40910414Y10631989D01*
X40907500Y10606870D01*
X40907500Y8993140D01*
X40492500Y8993140D01*
X40492499Y10606864D01*
X40489585Y10631991D01*
X40444206Y10734765D01*
X40364765Y10814206D01*
X40261991Y10859585D01*
X40261990Y10859586D01*
X40261988Y10859586D01*
X40236868Y10862500D01*
X38623139Y10862500D01*
X38623136Y10862499D01*
X38598009Y10859586D01*
X38495235Y10814206D01*
X38415794Y10734765D01*
X38370414Y10631989D01*
X38367500Y10606870D01*
X38367500Y8993140D01*
X30332500Y8993140D01*
X30332499Y10506864D01*
X30329585Y10531991D01*
X30284206Y10634765D01*
X30204765Y10714206D01*
X30101991Y10759585D01*
X30101990Y10759586D01*
X30101988Y10759586D01*
X30076868Y10762500D01*
X28463139Y10762500D01*
X28463136Y10762499D01*
X28438009Y10759586D01*
X28335235Y10714206D01*
X28255794Y10634765D01*
X28210414Y10531989D01*
X28207500Y10506870D01*
X28207500Y8893140D01*
X27792500Y8893140D01*
X27792499Y10506864D01*
X27789585Y10531991D01*
X27744206Y10634765D01*
X27664765Y10714206D01*
X27561991Y10759585D01*
X27561990Y10759586D01*
X27561988Y10759586D01*
X27536868Y10762500D01*
X25923139Y10762500D01*
X25923136Y10762499D01*
X25898009Y10759586D01*
X25795235Y10714206D01*
X25715794Y10634765D01*
X25670414Y10531989D01*
X25667500Y10506870D01*
X25667500Y10349500D01*
X25648593Y10291309D01*
X25599093Y10255345D01*
X25568500Y10250500D01*
X21157437Y10250500D01*
X21099246Y10269407D01*
X21063282Y10318907D01*
X21063282Y10380093D01*
X21099246Y10429593D01*
X21119551Y10440964D01*
X21128286Y10444583D01*
X21202841Y10475464D01*
X21328282Y10571718D01*
X21424536Y10697159D01*
X21485044Y10843238D01*
X21505682Y11000000D01*
X21485044Y11156762D01*
X21481730Y11164762D01*
X21424537Y11302839D01*
X21424537Y11302840D01*
X21415206Y11315000D01*
X21909534Y11315000D01*
X21923499Y11208920D01*
X21929313Y11164764D01*
X21987302Y11024767D01*
X22079549Y10904549D01*
X22199767Y10812302D01*
X22339764Y10754313D01*
X22452280Y10739500D01*
X22452281Y10739500D01*
X22527719Y10739500D01*
X22527720Y10739500D01*
X22640236Y10754313D01*
X22780233Y10812302D01*
X22900451Y10904549D01*
X22992698Y11024767D01*
X23050687Y11164764D01*
X23070466Y11315000D01*
X23067764Y11335521D01*
X23078913Y11395680D01*
X23123295Y11437798D01*
X23183957Y11445786D01*
X23194198Y11442753D01*
X23566446Y11815000D01*
X23195000Y12186446D01*
X23195000Y11614541D01*
X23176093Y11556350D01*
X23126593Y11520386D01*
X23065407Y11520386D01*
X23015907Y11556350D01*
X23004536Y11576654D01*
X23003263Y11579726D01*
X22992698Y11605233D01*
X22900451Y11725451D01*
X22780233Y11817698D01*
X22640236Y11875687D01*
X22640234Y11875688D01*
X22640232Y11875688D01*
X22527720Y11890500D01*
X22452280Y11890500D01*
X22452279Y11890500D01*
X22339767Y11875688D01*
X22339761Y11875686D01*
X22199768Y11817699D01*
X22079551Y11725453D01*
X22079547Y11725449D01*
X21987301Y11605232D01*
X21929314Y11465239D01*
X21929312Y11465233D01*
X21909534Y11315001D01*
X21909534Y11315000D01*
X21415206Y11315000D01*
X21328286Y11428277D01*
X21328285Y11428278D01*
X21328282Y11428282D01*
X21328277Y11428286D01*
X21328276Y11428287D01*
X21202838Y11524538D01*
X21056762Y11585044D01*
X20969502Y11596533D01*
X20914277Y11622875D01*
X20912421Y11624682D01*
X19775715Y12761388D01*
X23327165Y12761388D01*
X23633255Y12455298D01*
X23620000Y12421080D01*
X23620000Y11237198D01*
X23631929Y11173378D01*
X23328509Y10869957D01*
X23360835Y10820808D01*
X23484110Y10704503D01*
X23484110Y10704502D01*
X23630886Y10619762D01*
X23793244Y10571154D01*
X23793243Y10571154D01*
X23962442Y10561300D01*
X24129342Y10590728D01*
X24284968Y10657858D01*
X24420909Y10759063D01*
X24512833Y10868613D01*
X24206744Y11174702D01*
X24220000Y11208920D01*
X24220000Y11815000D01*
X24273554Y11815000D01*
X24645000Y11443554D01*
X24645000Y11453376D01*
X25718000Y11453376D01*
X25732506Y11380454D01*
X25732507Y11380452D01*
X25787758Y11297763D01*
X25787762Y11297759D01*
X25870451Y11242508D01*
X25870453Y11242507D01*
X25943375Y11228001D01*
X25943377Y11228000D01*
X26529999Y11228000D01*
X26530000Y11228001D01*
X26530000Y11838378D01*
X26534960Y11834996D01*
X26663002Y11795500D01*
X26763312Y11795500D01*
X26862499Y11810450D01*
X26930000Y11842957D01*
X26930000Y11228001D01*
X26930001Y11228000D01*
X27516623Y11228000D01*
X27516624Y11228001D01*
X27589546Y11242507D01*
X27589548Y11242508D01*
X27672237Y11297759D01*
X27672241Y11297763D01*
X27727492Y11380452D01*
X27727493Y11380454D01*
X27741999Y11453376D01*
X28258000Y11453376D01*
X28272506Y11380454D01*
X28272507Y11380452D01*
X28327758Y11297763D01*
X28327762Y11297759D01*
X28410451Y11242508D01*
X28410453Y11242507D01*
X28483375Y11228001D01*
X28483377Y11228000D01*
X29069999Y11228000D01*
X29070000Y11228001D01*
X29070000Y11838378D01*
X29074960Y11834996D01*
X29203002Y11795500D01*
X29303312Y11795500D01*
X29402499Y11810450D01*
X29470000Y11842957D01*
X29470000Y11228001D01*
X29470001Y11228000D01*
X30056623Y11228000D01*
X30056624Y11228001D01*
X30129546Y11242507D01*
X30129548Y11242508D01*
X30212237Y11297759D01*
X30212241Y11297763D01*
X30267492Y11380452D01*
X30267493Y11380454D01*
X30281999Y11453376D01*
X30282000Y11453378D01*
X30282000Y11553376D01*
X38418000Y11553376D01*
X38432506Y11480454D01*
X38432507Y11480452D01*
X38487758Y11397763D01*
X38487762Y11397759D01*
X38570451Y11342508D01*
X38570453Y11342507D01*
X38643375Y11328001D01*
X38643377Y11328000D01*
X39229999Y11328000D01*
X39230000Y11328001D01*
X39230000Y11938378D01*
X39234960Y11934996D01*
X39363002Y11895500D01*
X39463312Y11895500D01*
X39562499Y11910450D01*
X39630000Y11942957D01*
X39630000Y11328001D01*
X39630001Y11328000D01*
X40216623Y11328000D01*
X40216624Y11328001D01*
X40289546Y11342507D01*
X40289548Y11342508D01*
X40372237Y11397759D01*
X40372241Y11397763D01*
X40427492Y11480452D01*
X40427493Y11480454D01*
X40441999Y11553376D01*
X40958000Y11553376D01*
X40972506Y11480454D01*
X40972507Y11480452D01*
X41027758Y11397763D01*
X41027762Y11397759D01*
X41110451Y11342508D01*
X41110453Y11342507D01*
X41183375Y11328001D01*
X41183377Y11328000D01*
X41769999Y11328000D01*
X41770000Y11328001D01*
X41770000Y11938378D01*
X41774960Y11934996D01*
X41903002Y11895500D01*
X42003312Y11895500D01*
X42102499Y11910450D01*
X42170000Y11942957D01*
X42170000Y11328001D01*
X42170001Y11328000D01*
X42756623Y11328000D01*
X42756624Y11328001D01*
X42829546Y11342507D01*
X42829548Y11342508D01*
X42912237Y11397759D01*
X42912241Y11397763D01*
X42967492Y11480452D01*
X42967493Y11480454D01*
X42981999Y11553376D01*
X42982000Y11553378D01*
X42982000Y12139999D01*
X42981999Y12140000D01*
X42367794Y12140000D01*
X42388447Y12175772D01*
X42418264Y12306407D01*
X42408251Y12440028D01*
X42369015Y12540000D01*
X42981999Y12540000D01*
X42982000Y12540001D01*
X42982000Y13126623D01*
X42981999Y13126625D01*
X42967493Y13199547D01*
X42967492Y13199549D01*
X42912241Y13282238D01*
X42912237Y13282242D01*
X42829548Y13337493D01*
X42829546Y13337494D01*
X42756624Y13352000D01*
X42170001Y13352000D01*
X42170000Y13351999D01*
X42170000Y12741623D01*
X42165040Y12745004D01*
X42036998Y12784500D01*
X41936688Y12784500D01*
X41837501Y12769550D01*
X41770000Y12737044D01*
X41770000Y13351999D01*
X41769999Y13352000D01*
X41183375Y13352000D01*
X41110453Y13337494D01*
X41110451Y13337493D01*
X41027762Y13282242D01*
X41027758Y13282238D01*
X40972507Y13199549D01*
X40972506Y13199547D01*
X40958000Y13126625D01*
X40958000Y12540001D01*
X40958001Y12540000D01*
X41572206Y12540000D01*
X41551553Y12504228D01*
X41521736Y12373593D01*
X41531749Y12239972D01*
X41570985Y12140000D01*
X40958001Y12140000D01*
X40958000Y12139999D01*
X40958000Y11553376D01*
X40441999Y11553376D01*
X40442000Y11553378D01*
X40442000Y12139999D01*
X40441999Y12140000D01*
X39827794Y12140000D01*
X39848447Y12175772D01*
X39878264Y12306407D01*
X39868251Y12440028D01*
X39829015Y12540000D01*
X40441999Y12540000D01*
X40442000Y12540001D01*
X40442000Y13126623D01*
X40441999Y13126625D01*
X40427493Y13199547D01*
X40427492Y13199549D01*
X40372241Y13282238D01*
X40372237Y13282242D01*
X40289548Y13337493D01*
X40289546Y13337494D01*
X40216624Y13352000D01*
X39630001Y13352000D01*
X39630000Y13351999D01*
X39630000Y12741623D01*
X39625040Y12745004D01*
X39496998Y12784500D01*
X39396688Y12784500D01*
X39297501Y12769550D01*
X39230000Y12737044D01*
X39230000Y13351999D01*
X39229999Y13352000D01*
X38643375Y13352000D01*
X38570453Y13337494D01*
X38570451Y13337493D01*
X38487762Y13282242D01*
X38487758Y13282238D01*
X38432507Y13199549D01*
X38432506Y13199547D01*
X38418000Y13126625D01*
X38418000Y12540001D01*
X38418001Y12540000D01*
X39032206Y12540000D01*
X39011553Y12504228D01*
X38981736Y12373593D01*
X38991749Y12239972D01*
X39030985Y12140000D01*
X38418001Y12140000D01*
X38418000Y12139999D01*
X38418000Y11553376D01*
X30282000Y11553376D01*
X30282000Y12039999D01*
X30281999Y12040000D01*
X29667794Y12040000D01*
X29688447Y12075772D01*
X29718264Y12206407D01*
X29708251Y12340028D01*
X29669015Y12440000D01*
X30281999Y12440000D01*
X30282000Y12440001D01*
X30282000Y13026623D01*
X30281999Y13026625D01*
X30267493Y13099547D01*
X30267492Y13099549D01*
X30212241Y13182238D01*
X30212237Y13182242D01*
X30129548Y13237493D01*
X30129546Y13237494D01*
X30056624Y13252000D01*
X29470001Y13252000D01*
X29470000Y13251999D01*
X29470000Y12641623D01*
X29465040Y12645004D01*
X29336998Y12684500D01*
X29236688Y12684500D01*
X29137501Y12669550D01*
X29070000Y12637044D01*
X29070000Y13251999D01*
X29069999Y13252000D01*
X28483375Y13252000D01*
X28410453Y13237494D01*
X28410451Y13237493D01*
X28327762Y13182242D01*
X28327758Y13182238D01*
X28272507Y13099549D01*
X28272506Y13099547D01*
X28258000Y13026625D01*
X28258000Y12440001D01*
X28258001Y12440000D01*
X28872206Y12440000D01*
X28851553Y12404228D01*
X28821736Y12273593D01*
X28831749Y12139972D01*
X28870985Y12040000D01*
X28258001Y12040000D01*
X28258000Y12039999D01*
X28258000Y11453376D01*
X27741999Y11453376D01*
X27742000Y11453378D01*
X27742000Y12039999D01*
X27741999Y12040000D01*
X27127794Y12040000D01*
X27148447Y12075772D01*
X27178264Y12206407D01*
X27168251Y12340028D01*
X27129015Y12440000D01*
X27741999Y12440000D01*
X27742000Y12440001D01*
X27742000Y13026623D01*
X27741999Y13026625D01*
X27727493Y13099547D01*
X27727492Y13099549D01*
X27672241Y13182238D01*
X27672237Y13182242D01*
X27589548Y13237493D01*
X27589546Y13237494D01*
X27516624Y13252000D01*
X26930001Y13252000D01*
X26930000Y13251999D01*
X26930000Y12641623D01*
X26925040Y12645004D01*
X26796998Y12684500D01*
X26696688Y12684500D01*
X26597501Y12669550D01*
X26530000Y12637044D01*
X26530000Y13251999D01*
X26529999Y13252000D01*
X25943375Y13252000D01*
X25870453Y13237494D01*
X25870451Y13237493D01*
X25787762Y13182242D01*
X25787758Y13182238D01*
X25732507Y13099549D01*
X25732506Y13099547D01*
X25718000Y13026625D01*
X25718000Y12440001D01*
X25718001Y12440000D01*
X26332206Y12440000D01*
X26311553Y12404228D01*
X26281736Y12273593D01*
X26291749Y12139972D01*
X26330985Y12040000D01*
X25718001Y12040000D01*
X25718000Y12039999D01*
X25718000Y11453376D01*
X24645000Y11453376D01*
X24645000Y12186446D01*
X24273554Y11815000D01*
X24220000Y11815000D01*
X24220000Y12392802D01*
X24208069Y12456626D01*
X24511489Y12760045D01*
X24479161Y12809196D01*
X24355889Y12925498D01*
X24355889Y12925499D01*
X24209113Y13010239D01*
X24046755Y13058847D01*
X24046756Y13058847D01*
X23877557Y13068701D01*
X23710657Y13039273D01*
X23555031Y12972143D01*
X23419089Y12870938D01*
X23327165Y12761388D01*
X19775715Y12761388D01*
X19229496Y13307607D01*
X19201719Y13362124D01*
X19200500Y13377611D01*
X19200500Y13767569D01*
X19219407Y13825760D01*
X19268907Y13861724D01*
X19312422Y13865722D01*
X19318236Y13864957D01*
X19318238Y13864956D01*
X19426875Y13850654D01*
X19474999Y13844318D01*
X19475000Y13844318D01*
X19475001Y13844318D01*
X19506352Y13848446D01*
X19631762Y13864956D01*
X19777841Y13925464D01*
X19903282Y14021718D01*
X19999536Y14147159D01*
X20060044Y14293238D01*
X20080682Y14450000D01*
X20060044Y14606762D01*
X20051130Y14628282D01*
X19999537Y14752839D01*
X19999537Y14752840D01*
X19945958Y14822666D01*
X19925534Y14880342D01*
X19925500Y14882933D01*
X19925500Y15047390D01*
X19944407Y15105581D01*
X19954496Y15117393D01*
X20180005Y15342902D01*
X20414940Y15577839D01*
X20469457Y15605616D01*
X20522826Y15599300D01*
X20605738Y15564956D01*
X20723309Y15549478D01*
X20762499Y15544318D01*
X20762500Y15544318D01*
X20762501Y15544318D01*
X20793852Y15548446D01*
X20919262Y15564956D01*
X21065341Y15625464D01*
X21190782Y15721718D01*
X21287036Y15847159D01*
X21347544Y15993238D01*
X21368182Y16150000D01*
X21347544Y16306762D01*
X21297900Y16426614D01*
X21287037Y16452839D01*
X21287037Y16452840D01*
X21190786Y16578277D01*
X21190785Y16578278D01*
X21190782Y16578282D01*
X21190777Y16578286D01*
X21190776Y16578287D01*
X21065338Y16674538D01*
X20919266Y16735043D01*
X20919258Y16735045D01*
X20762501Y16755682D01*
X20762499Y16755682D01*
X20605741Y16735045D01*
X20605736Y16735043D01*
X20459660Y16674537D01*
X20459658Y16674536D01*
X20396287Y16625911D01*
X20339728Y16605523D01*
X20332964Y16605270D01*
X20276312Y16594553D01*
X20272668Y16593934D01*
X20215715Y16585349D01*
X20208629Y16583163D01*
X20208500Y16583581D01*
X20206385Y16582885D01*
X20206529Y16582474D01*
X20199530Y16580025D01*
X20148562Y16553088D01*
X20145260Y16551421D01*
X20093356Y16526425D01*
X20087229Y16522247D01*
X20086984Y16522607D01*
X20085168Y16521319D01*
X20085427Y16520968D01*
X20079458Y16516563D01*
X20038720Y16475825D01*
X20036056Y16473258D01*
X19993802Y16434052D01*
X19989179Y16428254D01*
X19988835Y16428528D01*
X19980297Y16417403D01*
X19178265Y15615370D01*
X19169988Y15607974D01*
X19141030Y15584881D01*
X19141029Y15584880D01*
X19108556Y15537252D01*
X19106416Y15534236D01*
X19072207Y15487884D01*
X19068742Y15481326D01*
X19068353Y15481532D01*
X19067350Y15479545D01*
X19067746Y15479354D01*
X19064526Y15472668D01*
X19047536Y15417590D01*
X19046380Y15414077D01*
X19027355Y15359705D01*
X19025976Y15352413D01*
X19025544Y15352495D01*
X19025171Y15350300D01*
X19025605Y15350234D01*
X19024500Y15342901D01*
X19024500Y15285285D01*
X19024431Y15281582D01*
X19023216Y15249123D01*
X19002145Y15191680D01*
X18951334Y15157593D01*
X18890192Y15159882D01*
X18854281Y15182822D01*
X18415366Y15621737D01*
X18407978Y15630005D01*
X18384879Y15658970D01*
X18337258Y15691438D01*
X18334241Y15693579D01*
X18287881Y15727794D01*
X18281322Y15731260D01*
X18281526Y15731648D01*
X18279544Y15732648D01*
X18279355Y15732254D01*
X18272670Y15735474D01*
X18217596Y15752462D01*
X18214082Y15753618D01*
X18159702Y15772645D01*
X18159701Y15772646D01*
X18159699Y15772646D01*
X18159696Y15772647D01*
X18152414Y15774024D01*
X18152495Y15774456D01*
X18150302Y15774829D01*
X18150237Y15774395D01*
X18142903Y15775500D01*
X18142902Y15775500D01*
X18085284Y15775500D01*
X18081583Y15775569D01*
X18046198Y15776893D01*
X18023990Y15777724D01*
X18023989Y15777724D01*
X18016615Y15776893D01*
X18016565Y15777332D01*
X18002656Y15775500D01*
X17657932Y15775500D01*
X17599741Y15794407D01*
X17597684Y15795944D01*
X17527841Y15849536D01*
X17527840Y15849537D01*
X17527838Y15849538D01*
X17381766Y15910043D01*
X17381758Y15910045D01*
X17225001Y15930682D01*
X17224999Y15930682D01*
X17068241Y15910045D01*
X17068233Y15910043D01*
X16922161Y15849538D01*
X16922160Y15849538D01*
X16796723Y15753287D01*
X16796713Y15753277D01*
X16700462Y15627840D01*
X16700462Y15627839D01*
X16639957Y15481767D01*
X16639955Y15481759D01*
X16619318Y15325001D01*
X16619318Y15325000D01*
X16639955Y15168242D01*
X16639957Y15168234D01*
X16700462Y15022162D01*
X16700462Y15022161D01*
X16780202Y14918242D01*
X16796718Y14896718D01*
X16922159Y14800464D01*
X17068238Y14739956D01*
X17185365Y14724536D01*
X17224999Y14719318D01*
X17225000Y14719318D01*
X17225001Y14719318D01*
X17264635Y14724536D01*
X17381762Y14739956D01*
X17527841Y14800464D01*
X17597665Y14854043D01*
X17655341Y14874466D01*
X17657932Y14874500D01*
X17700952Y14874500D01*
X17759143Y14855593D01*
X17795107Y14806093D01*
X17795107Y14744907D01*
X17761219Y14696958D01*
X17671722Y14628286D01*
X17671713Y14628277D01*
X17575466Y14502845D01*
X17575464Y14502842D01*
X17575464Y14502841D01*
X17570127Y14489956D01*
X17548453Y14437635D01*
X17526994Y14405520D01*
X17494479Y14373005D01*
X17462362Y14351545D01*
X17397159Y14324536D01*
X17271723Y14228287D01*
X17271717Y14228281D01*
X17193734Y14126651D01*
X17143309Y14091996D01*
X17082145Y14093598D01*
X17045188Y14116915D01*
X15790366Y15371737D01*
X15782978Y15380005D01*
X15759879Y15408970D01*
X15712258Y15441438D01*
X15709241Y15443579D01*
X15662881Y15477794D01*
X15656322Y15481260D01*
X15656526Y15481648D01*
X15654544Y15482648D01*
X15654355Y15482254D01*
X15647670Y15485474D01*
X15592596Y15502462D01*
X15589082Y15503618D01*
X15534702Y15522645D01*
X15534701Y15522646D01*
X15534699Y15522646D01*
X15534696Y15522647D01*
X15527414Y15524024D01*
X15527495Y15524456D01*
X15525302Y15524829D01*
X15525237Y15524395D01*
X15517903Y15525500D01*
X15517902Y15525500D01*
X15460284Y15525500D01*
X15456583Y15525569D01*
X15421198Y15526893D01*
X15398990Y15527724D01*
X15398989Y15527724D01*
X15391615Y15526893D01*
X15391565Y15527332D01*
X15377656Y15525500D01*
X13332932Y15525500D01*
X13274741Y15544407D01*
X13272684Y15545944D01*
X13202841Y15599536D01*
X13202840Y15599537D01*
X13202838Y15599538D01*
X13056766Y15660043D01*
X13056758Y15660045D01*
X12900001Y15680682D01*
X12899999Y15680682D01*
X12743241Y15660045D01*
X12743233Y15660043D01*
X12597161Y15599538D01*
X12597160Y15599538D01*
X12471723Y15503287D01*
X12471713Y15503277D01*
X12375462Y15377840D01*
X12375462Y15377839D01*
X12314957Y15231767D01*
X12314955Y15231759D01*
X12294318Y15075001D01*
X12294318Y15075000D01*
X5834500Y15075000D01*
X5834500Y16555140D01*
X6799500Y16555140D01*
X6799501Y16555137D01*
X6802414Y16530010D01*
X6816752Y16497539D01*
X6847794Y16427235D01*
X6927235Y16347794D01*
X7030009Y16302415D01*
X7055135Y16299500D01*
X8194864Y16299501D01*
X8219991Y16302415D01*
X8322765Y16347794D01*
X8402206Y16427235D01*
X8402206Y16427236D01*
X8402208Y16427237D01*
X8405094Y16431449D01*
X8453578Y16468771D01*
X8486768Y16474500D01*
X10913232Y16474500D01*
X10971423Y16455593D01*
X10994906Y16431449D01*
X10997791Y16427237D01*
X11077233Y16347796D01*
X11077235Y16347794D01*
X11180009Y16302415D01*
X11205135Y16299500D01*
X12344864Y16299501D01*
X12369991Y16302415D01*
X12472765Y16347794D01*
X12552206Y16427235D01*
X12597585Y16530009D01*
X12600500Y16555135D01*
X12600499Y17294864D01*
X12597585Y17319991D01*
X12552206Y17422765D01*
X12472765Y17502206D01*
X12369991Y17547585D01*
X12369990Y17547586D01*
X12369988Y17547586D01*
X12344868Y17550500D01*
X11205139Y17550500D01*
X11205136Y17550499D01*
X11180009Y17547586D01*
X11077233Y17502205D01*
X10997791Y17422764D01*
X10994906Y17418551D01*
X10946422Y17381229D01*
X10913232Y17375500D01*
X8486768Y17375500D01*
X8428577Y17394407D01*
X8405094Y17418551D01*
X8402208Y17422764D01*
X8322766Y17502205D01*
X8322765Y17502206D01*
X8219991Y17547585D01*
X8219990Y17547586D01*
X8219988Y17547586D01*
X8194868Y17550500D01*
X7055139Y17550500D01*
X7055136Y17550499D01*
X7030009Y17547586D01*
X6927235Y17502206D01*
X6847794Y17422765D01*
X6802414Y17319989D01*
X6799500Y17294870D01*
X6799500Y16555140D01*
X5834500Y16555140D01*
X5834500Y18705140D01*
X6824500Y18705140D01*
X6824501Y18705137D01*
X6827414Y18680010D01*
X6851925Y18624500D01*
X6872794Y18577235D01*
X6952235Y18497794D01*
X7055009Y18452415D01*
X7080135Y18449500D01*
X8219864Y18449501D01*
X8244991Y18452415D01*
X8347765Y18497794D01*
X8427206Y18577235D01*
X8427206Y18577236D01*
X8427208Y18577237D01*
X8430094Y18581449D01*
X8478578Y18618771D01*
X8511768Y18624500D01*
X10913232Y18624500D01*
X10971423Y18605593D01*
X10994906Y18581449D01*
X10997791Y18577237D01*
X11060521Y18514508D01*
X11077235Y18497794D01*
X11180009Y18452415D01*
X11205135Y18449500D01*
X12344864Y18449501D01*
X12369991Y18452415D01*
X12472765Y18497794D01*
X12552206Y18577235D01*
X12597585Y18680009D01*
X12600500Y18705135D01*
X12600499Y19444864D01*
X12597585Y19469991D01*
X12552206Y19572765D01*
X12472765Y19652206D01*
X12369991Y19697585D01*
X12369990Y19697586D01*
X12369988Y19697586D01*
X12344868Y19700500D01*
X11205139Y19700500D01*
X11205136Y19700499D01*
X11180009Y19697586D01*
X11077233Y19652205D01*
X10997791Y19572764D01*
X10994906Y19568551D01*
X10946422Y19531229D01*
X10913232Y19525500D01*
X8511768Y19525500D01*
X8453577Y19544407D01*
X8430094Y19568551D01*
X8427208Y19572764D01*
X8347766Y19652205D01*
X8347765Y19652206D01*
X8244991Y19697585D01*
X8244990Y19697586D01*
X8244988Y19697586D01*
X8219868Y19700500D01*
X7080139Y19700500D01*
X7080136Y19700499D01*
X7055009Y19697586D01*
X6952235Y19652206D01*
X6872794Y19572765D01*
X6827414Y19469989D01*
X6824500Y19444870D01*
X6824500Y18705140D01*
X5834500Y18705140D01*
X5834500Y20750000D01*
X16244318Y20750000D01*
X16264955Y20593242D01*
X16264957Y20593234D01*
X16325462Y20447162D01*
X16325462Y20447161D01*
X16374153Y20383706D01*
X16421718Y20321718D01*
X16547159Y20225464D01*
X16693238Y20164956D01*
X16751703Y20157260D01*
X16806927Y20130920D01*
X16808785Y20129111D01*
X19002129Y17935768D01*
X19009525Y17927491D01*
X19032621Y17898530D01*
X19066344Y17875538D01*
X19080245Y17866060D01*
X19083257Y17863923D01*
X19129618Y17829707D01*
X19129621Y17829706D01*
X19136177Y17826241D01*
X19135969Y17825849D01*
X19137950Y17824849D01*
X19138143Y17825247D01*
X19144827Y17822028D01*
X19199934Y17805030D01*
X19203375Y17803899D01*
X19257800Y17784854D01*
X19257801Y17784854D01*
X19265093Y17783474D01*
X19265010Y17783040D01*
X19267197Y17782669D01*
X19267263Y17783106D01*
X19274596Y17782001D01*
X19274598Y17782000D01*
X19332215Y17782000D01*
X19335916Y17781931D01*
X19338080Y17781851D01*
X19393510Y17779776D01*
X19393516Y17779778D01*
X19400885Y17780607D01*
X19400934Y17780169D01*
X19414844Y17782000D01*
X20167068Y17782000D01*
X20225259Y17763093D01*
X20227315Y17761557D01*
X20297159Y17707964D01*
X20297160Y17707964D01*
X20297161Y17707963D01*
X20407556Y17662236D01*
X20443238Y17647456D01*
X20560809Y17631978D01*
X20599999Y17626818D01*
X20600000Y17626818D01*
X20600001Y17626818D01*
X20631352Y17630946D01*
X20756762Y17647456D01*
X20902841Y17707964D01*
X20972665Y17761543D01*
X21030341Y17781966D01*
X21032932Y17782000D01*
X24120875Y17782000D01*
X24131958Y17781378D01*
X24134334Y17781111D01*
X24168774Y17777230D01*
X24225423Y17787950D01*
X24229006Y17788559D01*
X24286026Y17797152D01*
X24286035Y17797157D01*
X24293120Y17799341D01*
X24293251Y17798916D01*
X24295352Y17799608D01*
X24295206Y17800027D01*
X24302202Y17802476D01*
X24302211Y17802477D01*
X24353183Y17829418D01*
X24356479Y17831081D01*
X24366416Y17835867D01*
X24408381Y17856075D01*
X24408385Y17856079D01*
X24414517Y17860258D01*
X24414767Y17859891D01*
X24416571Y17861171D01*
X24416307Y17861529D01*
X24422264Y17865928D01*
X24422277Y17865934D01*
X24463056Y17906715D01*
X24465667Y17909230D01*
X24507933Y17948445D01*
X24507935Y17948449D01*
X24512562Y17954249D01*
X24512907Y17953974D01*
X24521443Y17965102D01*
X26156341Y19600000D01*
X29394318Y19600000D01*
X29414955Y19443242D01*
X29414957Y19443234D01*
X29475462Y19297162D01*
X29475462Y19297161D01*
X29475464Y19297159D01*
X29571718Y19171718D01*
X29697159Y19075464D01*
X29697160Y19075464D01*
X29697161Y19075463D01*
X29762362Y19048456D01*
X29794485Y19026991D01*
X29801587Y19019888D01*
X29801588Y19019888D01*
X29807233Y19014243D01*
X29807234Y19014241D01*
X33720505Y15100970D01*
X33748281Y15046455D01*
X33749500Y15030968D01*
X33749500Y14859852D01*
X33741964Y14821967D01*
X33714957Y14756768D01*
X33714955Y14756759D01*
X33694318Y14600001D01*
X33694318Y14600000D01*
X33714955Y14443242D01*
X33714957Y14443234D01*
X33775462Y14297162D01*
X33775462Y14297161D01*
X33871713Y14171724D01*
X33871718Y14171718D01*
X33997159Y14075464D01*
X33997160Y14075464D01*
X33997161Y14075463D01*
X34143233Y14014958D01*
X34143238Y14014956D01*
X34260809Y13999478D01*
X34299999Y13994318D01*
X34300000Y13994318D01*
X34300001Y13994318D01*
X34331352Y13998446D01*
X34456762Y14014956D01*
X34602841Y14075464D01*
X34728282Y14171718D01*
X34824536Y14297159D01*
X34885044Y14443238D01*
X34905682Y14600000D01*
X34885044Y14756762D01*
X34885042Y14756768D01*
X34858036Y14821967D01*
X34850500Y14859852D01*
X34850500Y15040150D01*
X34858036Y15078036D01*
X34885044Y15143238D01*
X34905682Y15300000D01*
X34885044Y15456762D01*
X34878456Y15472668D01*
X34824537Y15602839D01*
X34824537Y15602840D01*
X34728286Y15728277D01*
X34728285Y15728278D01*
X34728282Y15728282D01*
X34728277Y15728286D01*
X34728276Y15728287D01*
X34642106Y15794407D01*
X34602841Y15824536D01*
X34548220Y15847161D01*
X34537639Y15851544D01*
X34505521Y15873004D01*
X34084028Y16294497D01*
X35699500Y16294497D01*
X35714885Y16128464D01*
X35775771Y15914472D01*
X35874942Y15715311D01*
X36009019Y15537764D01*
X36173438Y15387876D01*
X36362599Y15270753D01*
X36570060Y15190382D01*
X36788757Y15149500D01*
X37011243Y15149500D01*
X37229940Y15190382D01*
X37437401Y15270753D01*
X37626562Y15387876D01*
X37790981Y15537764D01*
X37925058Y15715311D01*
X38024229Y15914472D01*
X38085115Y16128464D01*
X38100500Y16294497D01*
X40899500Y16294497D01*
X40914885Y16128464D01*
X40975771Y15914472D01*
X41074942Y15715311D01*
X41209019Y15537764D01*
X41373438Y15387876D01*
X41562599Y15270753D01*
X41770060Y15190382D01*
X41988757Y15149500D01*
X42211243Y15149500D01*
X42429940Y15190382D01*
X42637401Y15270753D01*
X42826562Y15387876D01*
X42990981Y15537764D01*
X43125058Y15715311D01*
X43224229Y15914472D01*
X43285115Y16128464D01*
X43300500Y16294497D01*
X43300500Y16905503D01*
X43285115Y17071536D01*
X43224229Y17285528D01*
X43125058Y17484689D01*
X42990981Y17662236D01*
X42826562Y17812124D01*
X42637401Y17929247D01*
X42429940Y18009618D01*
X42429939Y18009619D01*
X42429937Y18009619D01*
X42211243Y18050500D01*
X41988757Y18050500D01*
X41770062Y18009619D01*
X41693797Y17980074D01*
X41562599Y17929247D01*
X41393990Y17824849D01*
X41373438Y17812124D01*
X41209020Y17662237D01*
X41074943Y17484691D01*
X41074938Y17484682D01*
X40980418Y17294861D01*
X40975771Y17285528D01*
X40914885Y17071536D01*
X40899500Y16905503D01*
X40899500Y16294497D01*
X38100500Y16294497D01*
X38100500Y16905503D01*
X38085115Y17071536D01*
X38024229Y17285528D01*
X37925058Y17484689D01*
X37790981Y17662236D01*
X37626562Y17812124D01*
X37437401Y17929247D01*
X37229940Y18009618D01*
X37229939Y18009619D01*
X37229937Y18009619D01*
X37011243Y18050500D01*
X36788757Y18050500D01*
X36570062Y18009619D01*
X36493797Y17980074D01*
X36362599Y17929247D01*
X36193990Y17824849D01*
X36173438Y17812124D01*
X36009020Y17662237D01*
X35874943Y17484691D01*
X35874938Y17484682D01*
X35780418Y17294861D01*
X35775771Y17285528D01*
X35714885Y17071536D01*
X35699500Y16905503D01*
X35699500Y16294497D01*
X34084028Y16294497D01*
X32566401Y17812124D01*
X30612634Y19765891D01*
X30612630Y19765894D01*
X30610149Y19768376D01*
X30610140Y19768384D01*
X30579495Y19799030D01*
X30551719Y19853547D01*
X30550500Y19869032D01*
X30550500Y20040150D01*
X30558036Y20078036D01*
X30579192Y20129111D01*
X30585044Y20143238D01*
X30605682Y20300000D01*
X30585044Y20456762D01*
X30585042Y20456767D01*
X30524537Y20602839D01*
X30524537Y20602840D01*
X30428286Y20728277D01*
X30428285Y20728278D01*
X30428282Y20728282D01*
X30428277Y20728286D01*
X30428276Y20728287D01*
X30319194Y20811988D01*
X30302841Y20824536D01*
X30302840Y20824537D01*
X30302838Y20824538D01*
X30156766Y20885043D01*
X30156758Y20885045D01*
X30000001Y20905682D01*
X29999999Y20905682D01*
X29843241Y20885045D01*
X29843233Y20885043D01*
X29697161Y20824538D01*
X29697160Y20824538D01*
X29571723Y20728287D01*
X29571713Y20728277D01*
X29475462Y20602840D01*
X29475462Y20602839D01*
X29414957Y20456767D01*
X29414955Y20456759D01*
X29394318Y20300001D01*
X29394318Y20300000D01*
X29414955Y20143242D01*
X29414956Y20143237D01*
X29441964Y20078036D01*
X29449500Y20040150D01*
X29449500Y19859852D01*
X29441964Y19821967D01*
X29414957Y19756768D01*
X29414955Y19756759D01*
X29394318Y19600001D01*
X29394318Y19600000D01*
X26156341Y19600000D01*
X28796743Y22240403D01*
X28805003Y22247783D01*
X28833970Y22270882D01*
X28866457Y22318534D01*
X28868559Y22321495D01*
X28902793Y22367879D01*
X28902795Y22367885D01*
X28906263Y22374445D01*
X28906655Y22374238D01*
X28907651Y22376211D01*
X28907252Y22376403D01*
X28910472Y22383089D01*
X28927477Y22438223D01*
X28928595Y22441623D01*
X28947646Y22496062D01*
X28947646Y22496065D01*
X28947647Y22496067D01*
X28949026Y22503354D01*
X28949460Y22503272D01*
X28949831Y22505454D01*
X28949394Y22505519D01*
X28950500Y22512857D01*
X28950500Y22570461D01*
X28950569Y22574163D01*
X28950618Y22575481D01*
X28952725Y22631771D01*
X28952723Y22631777D01*
X28951894Y22639145D01*
X28952331Y22639195D01*
X28950500Y22653109D01*
X28950500Y23700000D01*
X31094318Y23700000D01*
X31114955Y23543242D01*
X31114957Y23543234D01*
X31175462Y23397162D01*
X31175462Y23397161D01*
X31216842Y23343234D01*
X31271718Y23271718D01*
X31397159Y23175464D01*
X31397160Y23175464D01*
X31397161Y23175463D01*
X31543233Y23114958D01*
X31543238Y23114956D01*
X31660809Y23099478D01*
X31699999Y23094318D01*
X31700000Y23094318D01*
X31700001Y23094318D01*
X31731352Y23098446D01*
X31856762Y23114956D01*
X32002841Y23175464D01*
X32072665Y23229043D01*
X32130341Y23249466D01*
X32132932Y23249500D01*
X32238084Y23249500D01*
X32260113Y23247018D01*
X32260824Y23246856D01*
X32265954Y23245685D01*
X32313164Y23249223D01*
X32320563Y23249500D01*
X33088087Y23249500D01*
X33146278Y23230593D01*
X33173821Y23200005D01*
X33175464Y23197159D01*
X33214056Y23146864D01*
X33271718Y23071718D01*
X33397159Y22975464D01*
X33397160Y22975464D01*
X33397161Y22975463D01*
X33462784Y22948281D01*
X33543238Y22914956D01*
X33660809Y22899478D01*
X33699999Y22894318D01*
X33700000Y22894318D01*
X33700001Y22894318D01*
X33731352Y22898446D01*
X33856762Y22914956D01*
X34002841Y22975464D01*
X34128282Y23071718D01*
X34224536Y23197159D01*
X34285044Y23343238D01*
X34305682Y23500000D01*
X34285044Y23656762D01*
X34265958Y23702840D01*
X34224537Y23802839D01*
X34224537Y23802840D01*
X34128286Y23928277D01*
X34128285Y23928278D01*
X34128282Y23928282D01*
X34128277Y23928286D01*
X34128276Y23928287D01*
X34031116Y24002840D01*
X34002841Y24024536D01*
X34002840Y24024537D01*
X34002838Y24024538D01*
X33856766Y24085043D01*
X33856759Y24085045D01*
X33726218Y24102231D01*
X33704858Y24108602D01*
X33704761Y24108286D01*
X33642596Y24127462D01*
X33639082Y24128618D01*
X33584702Y24147645D01*
X33584701Y24147646D01*
X33584699Y24147646D01*
X33584696Y24147647D01*
X33577414Y24149024D01*
X33577495Y24149456D01*
X33575302Y24149829D01*
X33575237Y24149395D01*
X33567903Y24150500D01*
X33567902Y24150500D01*
X33510284Y24150500D01*
X33506583Y24150569D01*
X33471198Y24151893D01*
X33448990Y24152724D01*
X33448989Y24152724D01*
X33441615Y24151893D01*
X33441565Y24152332D01*
X33427656Y24150500D01*
X32849500Y24150500D01*
X32791309Y24169407D01*
X32755345Y24218907D01*
X32750500Y24249500D01*
X32750500Y30700000D01*
X33494318Y30700000D01*
X33514955Y30543242D01*
X33514957Y30543234D01*
X33575462Y30397162D01*
X33575463Y30397160D01*
X33575464Y30397159D01*
X33629042Y30327335D01*
X33649466Y30269660D01*
X33649500Y30267068D01*
X33649500Y27805864D01*
X33648878Y27794781D01*
X33644730Y27757967D01*
X33644730Y27757962D01*
X33655444Y27701336D01*
X33656064Y27697688D01*
X33664652Y27640713D01*
X33666840Y27633619D01*
X33666417Y27633489D01*
X33667109Y27631387D01*
X33667526Y27631532D01*
X33669975Y27624532D01*
X33696906Y27573576D01*
X33698574Y27570272D01*
X33723574Y27518359D01*
X33727753Y27512230D01*
X33727389Y27511983D01*
X33728677Y27510169D01*
X33729030Y27510429D01*
X33733434Y27504462D01*
X33774200Y27463695D01*
X33776769Y27461028D01*
X33815944Y27418806D01*
X33821743Y27414182D01*
X33821467Y27413837D01*
X33832600Y27405296D01*
X44609629Y16628268D01*
X44617025Y16619991D01*
X44640121Y16591030D01*
X44673844Y16568038D01*
X44687745Y16558560D01*
X44690757Y16556423D01*
X44737118Y16522207D01*
X44737121Y16522206D01*
X44743677Y16518741D01*
X44743469Y16518349D01*
X44745450Y16517349D01*
X44745643Y16517747D01*
X44752327Y16514528D01*
X44807407Y16497539D01*
X44810909Y16496387D01*
X44865301Y16477354D01*
X44872593Y16475974D01*
X44872510Y16475540D01*
X44874693Y16475170D01*
X44874759Y16475606D01*
X44882098Y16474500D01*
X44939716Y16474500D01*
X44943417Y16474431D01*
X44945519Y16474353D01*
X45001010Y16472276D01*
X45001016Y16472278D01*
X45008385Y16473107D01*
X45008434Y16472669D01*
X45022344Y16474500D01*
X45867068Y16474500D01*
X45925259Y16455593D01*
X45927315Y16454057D01*
X45997159Y16400464D01*
X45997160Y16400464D01*
X45997161Y16400463D01*
X46124313Y16347795D01*
X46143238Y16339956D01*
X46260809Y16324478D01*
X46299999Y16319318D01*
X46300000Y16319318D01*
X46300001Y16319318D01*
X46331352Y16323446D01*
X46456762Y16339956D01*
X46602841Y16400464D01*
X46672665Y16454043D01*
X46730341Y16474466D01*
X46732932Y16474500D01*
X48263232Y16474500D01*
X48321423Y16455593D01*
X48344906Y16431449D01*
X48347791Y16427237D01*
X48427233Y16347796D01*
X48427235Y16347794D01*
X48530009Y16302415D01*
X48555135Y16299500D01*
X49694864Y16299501D01*
X49719991Y16302415D01*
X49822765Y16347794D01*
X49902206Y16427235D01*
X49902206Y16427236D01*
X49902208Y16427237D01*
X49905094Y16431449D01*
X49953578Y16468771D01*
X49986768Y16474500D01*
X52388232Y16474500D01*
X52446423Y16455593D01*
X52469906Y16431449D01*
X52472791Y16427237D01*
X52552233Y16347796D01*
X52552235Y16347794D01*
X52655009Y16302415D01*
X52680135Y16299500D01*
X53819864Y16299501D01*
X53844991Y16302415D01*
X53947765Y16347794D01*
X54027206Y16427235D01*
X54072585Y16530009D01*
X54075500Y16555135D01*
X54075499Y17294864D01*
X54072585Y17319991D01*
X54027206Y17422765D01*
X53947765Y17502206D01*
X53844991Y17547585D01*
X53844990Y17547586D01*
X53844988Y17547586D01*
X53819868Y17550500D01*
X52680139Y17550500D01*
X52680136Y17550499D01*
X52655009Y17547586D01*
X52552233Y17502205D01*
X52472791Y17422764D01*
X52469906Y17418551D01*
X52421422Y17381229D01*
X52388232Y17375500D01*
X49986768Y17375500D01*
X49928577Y17394407D01*
X49905094Y17418551D01*
X49902208Y17422764D01*
X49822766Y17502205D01*
X49822765Y17502206D01*
X49719991Y17547585D01*
X49719990Y17547586D01*
X49719988Y17547586D01*
X49694868Y17550500D01*
X48555139Y17550500D01*
X48555136Y17550499D01*
X48530009Y17547586D01*
X48427233Y17502205D01*
X48347791Y17422764D01*
X48344906Y17418551D01*
X48296422Y17381229D01*
X48263232Y17375500D01*
X46732932Y17375500D01*
X46674741Y17394407D01*
X46672684Y17395944D01*
X46602841Y17449536D01*
X46602840Y17449537D01*
X46602838Y17449538D01*
X46456766Y17510043D01*
X46456758Y17510045D01*
X46300001Y17530682D01*
X46299999Y17530682D01*
X46143241Y17510045D01*
X46143233Y17510043D01*
X45997161Y17449538D01*
X45962270Y17422765D01*
X45927334Y17395958D01*
X45869659Y17375534D01*
X45867068Y17375500D01*
X45177611Y17375500D01*
X45119420Y17394407D01*
X45107607Y17404496D01*
X43786727Y18725376D01*
X48350000Y18725376D01*
X48364506Y18652454D01*
X48364507Y18652452D01*
X48419758Y18569763D01*
X48419762Y18569759D01*
X48502451Y18514508D01*
X48502453Y18514507D01*
X48575375Y18500001D01*
X48575377Y18500000D01*
X48924999Y18500000D01*
X48925000Y18500001D01*
X49325000Y18500001D01*
X49325001Y18500000D01*
X49674623Y18500000D01*
X49674624Y18500001D01*
X49747546Y18514507D01*
X49747548Y18514508D01*
X49830237Y18569759D01*
X49830241Y18569763D01*
X49885492Y18652452D01*
X49885493Y18652454D01*
X49899999Y18725376D01*
X52500000Y18725376D01*
X52514506Y18652454D01*
X52514507Y18652452D01*
X52569758Y18569763D01*
X52569762Y18569759D01*
X52652451Y18514508D01*
X52652453Y18514507D01*
X52725375Y18500001D01*
X52725377Y18500000D01*
X53074999Y18500000D01*
X53075000Y18500001D01*
X53475000Y18500001D01*
X53475001Y18500000D01*
X53824623Y18500000D01*
X53824624Y18500001D01*
X53897546Y18514507D01*
X53897548Y18514508D01*
X53980237Y18569759D01*
X53980241Y18569763D01*
X54035492Y18652452D01*
X54035493Y18652454D01*
X54049999Y18725376D01*
X54050000Y18725378D01*
X54050000Y18874999D01*
X54049999Y18875000D01*
X53475001Y18875000D01*
X53475000Y18874999D01*
X53475000Y18500001D01*
X53075000Y18500001D01*
X53075000Y18874999D01*
X53074999Y18875000D01*
X52500001Y18875000D01*
X52500000Y18874999D01*
X52500000Y18725376D01*
X49899999Y18725376D01*
X49900000Y18725378D01*
X49900000Y18874999D01*
X49899999Y18875000D01*
X49325001Y18875000D01*
X49325000Y18874999D01*
X49325000Y18500001D01*
X48925000Y18500001D01*
X48925000Y18874999D01*
X48924999Y18875000D01*
X48350001Y18875000D01*
X48350000Y18874999D01*
X48350000Y18725376D01*
X43786727Y18725376D01*
X43237102Y19275001D01*
X48350000Y19275001D01*
X48350001Y19275000D01*
X48924999Y19275000D01*
X48925000Y19275001D01*
X49325000Y19275001D01*
X49325001Y19275000D01*
X49899999Y19275000D01*
X49900000Y19275001D01*
X52500000Y19275001D01*
X52500001Y19275000D01*
X53074999Y19275000D01*
X53075000Y19275001D01*
X53475000Y19275001D01*
X53475001Y19275000D01*
X54049999Y19275000D01*
X54050000Y19275001D01*
X54050000Y19424623D01*
X54049999Y19424625D01*
X54035493Y19497547D01*
X54035492Y19497549D01*
X53980241Y19580238D01*
X53980237Y19580242D01*
X53897548Y19635493D01*
X53897546Y19635494D01*
X53824624Y19650000D01*
X53475001Y19650000D01*
X53475000Y19649999D01*
X53475000Y19275001D01*
X53075000Y19275001D01*
X53075000Y19649999D01*
X53074999Y19650000D01*
X52725375Y19650000D01*
X52652453Y19635494D01*
X52652451Y19635493D01*
X52569762Y19580242D01*
X52569758Y19580238D01*
X52514507Y19497549D01*
X52514506Y19497547D01*
X52500000Y19424625D01*
X52500000Y19275001D01*
X49900000Y19275001D01*
X49900000Y19424623D01*
X49899999Y19424625D01*
X49885493Y19497547D01*
X49885492Y19497549D01*
X49830241Y19580238D01*
X49830237Y19580242D01*
X49747548Y19635493D01*
X49747546Y19635494D01*
X49674624Y19650000D01*
X49325001Y19650000D01*
X49325000Y19649999D01*
X49325000Y19275001D01*
X48925000Y19275001D01*
X48925000Y19649999D01*
X48924999Y19650000D01*
X48575375Y19650000D01*
X48502453Y19635494D01*
X48502451Y19635493D01*
X48419762Y19580242D01*
X48419758Y19580238D01*
X48364507Y19497549D01*
X48364506Y19497547D01*
X48350000Y19424625D01*
X48350000Y19275001D01*
X43237102Y19275001D01*
X41543353Y20968750D01*
X43850568Y20968750D01*
X43871205Y20811992D01*
X43871207Y20811984D01*
X43931712Y20665912D01*
X43931712Y20665911D01*
X43980108Y20602840D01*
X44027968Y20540468D01*
X44153409Y20444214D01*
X44299488Y20383706D01*
X44417059Y20368228D01*
X44456249Y20363068D01*
X44456250Y20363068D01*
X44456251Y20363068D01*
X44487602Y20367196D01*
X44613012Y20383706D01*
X44759091Y20444214D01*
X44884532Y20540468D01*
X44980786Y20665909D01*
X45041294Y20811988D01*
X45061932Y20968750D01*
X45041294Y21125512D01*
X45033034Y21145453D01*
X45025500Y21183334D01*
X45025500Y21573140D01*
X48897500Y21573140D01*
X48897501Y21573137D01*
X48900414Y21548010D01*
X48925756Y21490615D01*
X48945794Y21445235D01*
X49025235Y21365794D01*
X49128009Y21320415D01*
X49153135Y21317500D01*
X50766864Y21317501D01*
X50791991Y21320415D01*
X50894765Y21365794D01*
X50974206Y21445235D01*
X51019585Y21548009D01*
X51022500Y21573135D01*
X51022500Y21573140D01*
X51437500Y21573140D01*
X51437501Y21573137D01*
X51440414Y21548010D01*
X51465756Y21490615D01*
X51485794Y21445235D01*
X51565235Y21365794D01*
X51668009Y21320415D01*
X51693135Y21317500D01*
X53306864Y21317501D01*
X53331991Y21320415D01*
X53434765Y21365794D01*
X53514206Y21445235D01*
X53559585Y21548009D01*
X53562500Y21573135D01*
X53562499Y23186864D01*
X53559585Y23211991D01*
X53514206Y23314765D01*
X53434765Y23394206D01*
X53331991Y23439585D01*
X53331990Y23439586D01*
X53331988Y23439586D01*
X53306868Y23442500D01*
X51693139Y23442500D01*
X51693136Y23442499D01*
X51668009Y23439586D01*
X51565235Y23394206D01*
X51485794Y23314765D01*
X51440414Y23211989D01*
X51437500Y23186870D01*
X51437500Y21573140D01*
X51022500Y21573140D01*
X51022499Y23186864D01*
X51019585Y23211991D01*
X50974206Y23314765D01*
X50894765Y23394206D01*
X50791991Y23439585D01*
X50791990Y23439586D01*
X50791988Y23439586D01*
X50766868Y23442500D01*
X49153139Y23442500D01*
X49153136Y23442499D01*
X49128009Y23439586D01*
X49025235Y23394206D01*
X48945794Y23314765D01*
X48900414Y23211989D01*
X48897500Y23186870D01*
X48897500Y21573140D01*
X45025500Y21573140D01*
X45025500Y24113140D01*
X48897500Y24113140D01*
X48897501Y24113137D01*
X48900414Y24088010D01*
X48925756Y24030615D01*
X48945794Y23985235D01*
X49025235Y23905794D01*
X49128009Y23860415D01*
X49153135Y23857500D01*
X50766864Y23857501D01*
X50791991Y23860415D01*
X50894765Y23905794D01*
X50974206Y23985235D01*
X51019585Y24088009D01*
X51022500Y24113135D01*
X51022500Y24113140D01*
X51437500Y24113140D01*
X51437501Y24113137D01*
X51440414Y24088010D01*
X51465756Y24030615D01*
X51485794Y23985235D01*
X51565235Y23905794D01*
X51668009Y23860415D01*
X51693135Y23857500D01*
X53306864Y23857501D01*
X53331991Y23860415D01*
X53434765Y23905794D01*
X53514206Y23985235D01*
X53559585Y24088009D01*
X53562500Y24113135D01*
X53562499Y25726864D01*
X53559585Y25751991D01*
X53514206Y25854765D01*
X53434765Y25934206D01*
X53331991Y25979585D01*
X53331990Y25979586D01*
X53331988Y25979586D01*
X53306868Y25982500D01*
X51693139Y25982500D01*
X51693136Y25982499D01*
X51668009Y25979586D01*
X51565235Y25934206D01*
X51485794Y25854765D01*
X51440414Y25751989D01*
X51437500Y25726870D01*
X51437500Y24113140D01*
X51022500Y24113140D01*
X51022499Y25726864D01*
X51019585Y25751991D01*
X50974206Y25854765D01*
X50894765Y25934206D01*
X50791991Y25979585D01*
X50791990Y25979586D01*
X50791988Y25979586D01*
X50766868Y25982500D01*
X49153139Y25982500D01*
X49153136Y25982499D01*
X49128009Y25979586D01*
X49025235Y25934206D01*
X48945794Y25854765D01*
X48900414Y25751989D01*
X48897500Y25726870D01*
X48897500Y24113140D01*
X45025500Y24113140D01*
X45025500Y26653140D01*
X48897500Y26653140D01*
X48897501Y26653137D01*
X48900414Y26628010D01*
X48925756Y26570615D01*
X48945794Y26525235D01*
X49025235Y26445794D01*
X49128009Y26400415D01*
X49153135Y26397500D01*
X50766864Y26397501D01*
X50791991Y26400415D01*
X50894765Y26445794D01*
X50974206Y26525235D01*
X51019585Y26628009D01*
X51022500Y26653135D01*
X51022500Y26653140D01*
X51437500Y26653140D01*
X51437501Y26653137D01*
X51440414Y26628010D01*
X51465756Y26570615D01*
X51485794Y26525235D01*
X51565235Y26445794D01*
X51668009Y26400415D01*
X51693135Y26397500D01*
X53306864Y26397501D01*
X53331991Y26400415D01*
X53434765Y26445794D01*
X53514206Y26525235D01*
X53559585Y26628009D01*
X53562500Y26653135D01*
X53562499Y28266864D01*
X53559585Y28291991D01*
X53514206Y28394765D01*
X53434765Y28474206D01*
X53331991Y28519585D01*
X53331990Y28519586D01*
X53331988Y28519586D01*
X53306868Y28522500D01*
X51693139Y28522500D01*
X51693136Y28522499D01*
X51668009Y28519586D01*
X51565235Y28474206D01*
X51485794Y28394765D01*
X51440414Y28291989D01*
X51437500Y28266870D01*
X51437500Y26653140D01*
X51022500Y26653140D01*
X51022499Y28266864D01*
X51019585Y28291991D01*
X50974206Y28394765D01*
X50894765Y28474206D01*
X50791991Y28519585D01*
X50791990Y28519586D01*
X50791988Y28519586D01*
X50766868Y28522500D01*
X49153139Y28522500D01*
X49153136Y28522499D01*
X49128009Y28519586D01*
X49025235Y28474206D01*
X48945794Y28394765D01*
X48900414Y28291989D01*
X48897500Y28266870D01*
X48897500Y26653140D01*
X45025500Y26653140D01*
X45025500Y26892068D01*
X45044407Y26950259D01*
X45045936Y26952307D01*
X45099536Y27022159D01*
X45160044Y27168238D01*
X45180682Y27325000D01*
X45160044Y27481762D01*
X45150641Y27504462D01*
X45099537Y27627839D01*
X45099537Y27627840D01*
X45003286Y27753277D01*
X45003285Y27753278D01*
X45003282Y27753282D01*
X45003277Y27753286D01*
X45003276Y27753287D01*
X44877838Y27849538D01*
X44731766Y27910043D01*
X44731758Y27910045D01*
X44575001Y27930682D01*
X44574999Y27930682D01*
X44418241Y27910045D01*
X44418233Y27910043D01*
X44272161Y27849538D01*
X44272160Y27849538D01*
X44146723Y27753287D01*
X44146713Y27753277D01*
X44050462Y27627840D01*
X44050462Y27627839D01*
X43989957Y27481767D01*
X43989955Y27481759D01*
X43969318Y27325001D01*
X43969318Y27325000D01*
X43989955Y27168242D01*
X43989957Y27168234D01*
X44050462Y27022162D01*
X44050463Y27022160D01*
X44050464Y27022159D01*
X44104042Y26952335D01*
X44124466Y26894660D01*
X44124500Y26892068D01*
X44124500Y21519926D01*
X44105593Y21461735D01*
X44085768Y21441385D01*
X44027974Y21397038D01*
X44027963Y21397027D01*
X43931712Y21271590D01*
X43931712Y21271589D01*
X43871207Y21125517D01*
X43871205Y21125509D01*
X43850568Y20968751D01*
X43850568Y20968750D01*
X41543353Y20968750D01*
X34579496Y27932607D01*
X34551719Y27987124D01*
X34550500Y28002611D01*
X34550500Y29193140D01*
X48897500Y29193140D01*
X48897501Y29193137D01*
X48900414Y29168010D01*
X48925756Y29110615D01*
X48945794Y29065235D01*
X49025235Y28985794D01*
X49128009Y28940415D01*
X49153135Y28937500D01*
X50766864Y28937501D01*
X50791991Y28940415D01*
X50894765Y28985794D01*
X50974206Y29065235D01*
X51019585Y29168009D01*
X51022500Y29193135D01*
X51022500Y29193140D01*
X51437500Y29193140D01*
X51437501Y29193137D01*
X51440414Y29168010D01*
X51465756Y29110615D01*
X51485794Y29065235D01*
X51565235Y28985794D01*
X51668009Y28940415D01*
X51693135Y28937500D01*
X53306864Y28937501D01*
X53331991Y28940415D01*
X53434765Y28985794D01*
X53514206Y29065235D01*
X53559585Y29168009D01*
X53562500Y29193135D01*
X53562499Y30806864D01*
X53559585Y30831991D01*
X53514206Y30934765D01*
X53434765Y31014206D01*
X53331991Y31059585D01*
X53331990Y31059586D01*
X53331988Y31059586D01*
X53306868Y31062500D01*
X51693139Y31062500D01*
X51693136Y31062499D01*
X51668009Y31059586D01*
X51565235Y31014206D01*
X51485794Y30934765D01*
X51440414Y30831989D01*
X51437500Y30806870D01*
X51437500Y29193140D01*
X51022500Y29193140D01*
X51022499Y30806864D01*
X51019585Y30831991D01*
X50974206Y30934765D01*
X50894765Y31014206D01*
X50791991Y31059585D01*
X50791990Y31059586D01*
X50791988Y31059586D01*
X50766868Y31062500D01*
X49153139Y31062500D01*
X49153136Y31062499D01*
X49128009Y31059586D01*
X49025235Y31014206D01*
X48945794Y30934765D01*
X48900414Y30831989D01*
X48897500Y30806870D01*
X48897500Y29193140D01*
X34550500Y29193140D01*
X34550500Y30267068D01*
X34569407Y30325259D01*
X34570936Y30327307D01*
X34624536Y30397159D01*
X34685044Y30543238D01*
X34705682Y30700000D01*
X34685044Y30856762D01*
X34624537Y31002839D01*
X34624537Y31002840D01*
X34528286Y31128277D01*
X34528285Y31128278D01*
X34528282Y31128282D01*
X34528277Y31128286D01*
X34528276Y31128287D01*
X34402838Y31224538D01*
X34256766Y31285043D01*
X34256758Y31285045D01*
X34100001Y31305682D01*
X34099999Y31305682D01*
X33943241Y31285045D01*
X33943233Y31285043D01*
X33797161Y31224538D01*
X33797160Y31224538D01*
X33671723Y31128287D01*
X33671713Y31128277D01*
X33575462Y31002840D01*
X33575462Y31002839D01*
X33514957Y30856767D01*
X33514955Y30856759D01*
X33494318Y30700001D01*
X33494318Y30700000D01*
X32750500Y30700000D01*
X32750500Y31733140D01*
X48897500Y31733140D01*
X48897501Y31733137D01*
X48900414Y31708010D01*
X48925756Y31650615D01*
X48945794Y31605235D01*
X49025235Y31525794D01*
X49128009Y31480415D01*
X49153135Y31477500D01*
X50766864Y31477501D01*
X50791991Y31480415D01*
X50894765Y31525794D01*
X50974206Y31605235D01*
X51019585Y31708009D01*
X51022500Y31733135D01*
X51022500Y31733140D01*
X51437500Y31733140D01*
X51437501Y31733137D01*
X51440414Y31708010D01*
X51465756Y31650615D01*
X51485794Y31605235D01*
X51565235Y31525794D01*
X51668009Y31480415D01*
X51693135Y31477500D01*
X53306864Y31477501D01*
X53331991Y31480415D01*
X53434765Y31525794D01*
X53514206Y31605235D01*
X53559585Y31708009D01*
X53562500Y31733135D01*
X53562499Y33346864D01*
X53559585Y33371991D01*
X53514206Y33474765D01*
X53434765Y33554206D01*
X53331991Y33599585D01*
X53331990Y33599586D01*
X53331988Y33599586D01*
X53306868Y33602500D01*
X51693139Y33602500D01*
X51693136Y33602499D01*
X51668009Y33599586D01*
X51565235Y33554206D01*
X51485794Y33474765D01*
X51440414Y33371989D01*
X51437500Y33346870D01*
X51437500Y31733140D01*
X51022500Y31733140D01*
X51022499Y33346864D01*
X51019585Y33371991D01*
X50974206Y33474765D01*
X50894765Y33554206D01*
X50791991Y33599585D01*
X50791990Y33599586D01*
X50791988Y33599586D01*
X50766868Y33602500D01*
X49153139Y33602500D01*
X49153136Y33602499D01*
X49128009Y33599586D01*
X49025235Y33554206D01*
X48945794Y33474765D01*
X48900414Y33371989D01*
X48897500Y33346870D01*
X48897500Y31733140D01*
X32750500Y31733140D01*
X32750500Y32447390D01*
X32769407Y32505581D01*
X32779490Y32517388D01*
X33371743Y33109642D01*
X33380003Y33117022D01*
X33408970Y33140121D01*
X33441457Y33187773D01*
X33443559Y33190734D01*
X33477793Y33237118D01*
X33477795Y33237124D01*
X33477994Y33237500D01*
X34522198Y33237500D01*
X34542835Y33080742D01*
X34542837Y33080734D01*
X34603342Y32934662D01*
X34603342Y32934661D01*
X34699593Y32809224D01*
X34699598Y32809218D01*
X34699602Y32809215D01*
X34699603Y32809214D01*
X34728553Y32787000D01*
X34825039Y32712964D01*
X34825040Y32712964D01*
X34825041Y32712963D01*
X34900797Y32681584D01*
X34971118Y32652456D01*
X35088689Y32636978D01*
X35127879Y32631818D01*
X35127880Y32631818D01*
X35127881Y32631818D01*
X35159232Y32635946D01*
X35284642Y32652456D01*
X35430721Y32712964D01*
X35500545Y32766543D01*
X35558221Y32786966D01*
X35560812Y32787000D01*
X35981636Y32787000D01*
X35992719Y32786378D01*
X35995095Y32786111D01*
X36029535Y32782230D01*
X36086184Y32792950D01*
X36089767Y32793559D01*
X36146787Y32802152D01*
X36146796Y32802157D01*
X36153881Y32804341D01*
X36154012Y32803916D01*
X36156113Y32804608D01*
X36155967Y32805027D01*
X36162963Y32807476D01*
X36162972Y32807477D01*
X36213944Y32834418D01*
X36217240Y32836081D01*
X36227177Y32840867D01*
X36269142Y32861075D01*
X36269146Y32861079D01*
X36275278Y32865258D01*
X36275528Y32864891D01*
X36277332Y32866171D01*
X36277068Y32866529D01*
X36283025Y32870928D01*
X36283038Y32870934D01*
X36323817Y32911715D01*
X36326428Y32914230D01*
X36368694Y32953445D01*
X36368696Y32953449D01*
X36373323Y32959249D01*
X36373668Y32958974D01*
X36382204Y32970102D01*
X37685242Y34273140D01*
X48897500Y34273140D01*
X48897501Y34273137D01*
X48900414Y34248010D01*
X48924587Y34193264D01*
X48945794Y34145235D01*
X49025235Y34065794D01*
X49128009Y34020415D01*
X49153135Y34017500D01*
X50766864Y34017501D01*
X50791991Y34020415D01*
X50894765Y34065794D01*
X50974206Y34145235D01*
X51019585Y34248009D01*
X51022500Y34273135D01*
X51022500Y34273140D01*
X51437500Y34273140D01*
X51437501Y34273137D01*
X51440414Y34248010D01*
X51464587Y34193264D01*
X51485794Y34145235D01*
X51565235Y34065794D01*
X51668009Y34020415D01*
X51693135Y34017500D01*
X53306864Y34017501D01*
X53331991Y34020415D01*
X53434765Y34065794D01*
X53514206Y34145235D01*
X53559585Y34248009D01*
X53562500Y34273135D01*
X53562499Y35886864D01*
X53559585Y35911991D01*
X53514206Y36014765D01*
X53434765Y36094206D01*
X53331991Y36139585D01*
X53331990Y36139586D01*
X53331988Y36139586D01*
X53306868Y36142500D01*
X51693139Y36142500D01*
X51693136Y36142499D01*
X51668009Y36139586D01*
X51565235Y36094206D01*
X51485794Y36014765D01*
X51440414Y35911989D01*
X51437500Y35886870D01*
X51437500Y34273140D01*
X51022500Y34273140D01*
X51022499Y35886864D01*
X51019585Y35911991D01*
X50974206Y36014765D01*
X50894765Y36094206D01*
X50791991Y36139585D01*
X50791990Y36139586D01*
X50791988Y36139586D01*
X50766868Y36142500D01*
X49153139Y36142500D01*
X49153136Y36142499D01*
X49128009Y36139586D01*
X49025235Y36094206D01*
X48945794Y36014765D01*
X48900414Y35911989D01*
X48897500Y35886870D01*
X48897500Y34273140D01*
X37685242Y34273140D01*
X40225241Y36813140D01*
X48897500Y36813140D01*
X48897501Y36813137D01*
X48900414Y36788010D01*
X48925756Y36730615D01*
X48945794Y36685235D01*
X49025235Y36605794D01*
X49128009Y36560415D01*
X49153135Y36557500D01*
X50766864Y36557501D01*
X50791991Y36560415D01*
X50894765Y36605794D01*
X50974206Y36685235D01*
X51019585Y36788009D01*
X51022500Y36813135D01*
X51022500Y36813140D01*
X51437500Y36813140D01*
X51437501Y36813137D01*
X51440414Y36788010D01*
X51465756Y36730615D01*
X51485794Y36685235D01*
X51565235Y36605794D01*
X51668009Y36560415D01*
X51693135Y36557500D01*
X53306864Y36557501D01*
X53331991Y36560415D01*
X53434765Y36605794D01*
X53514206Y36685235D01*
X53559585Y36788009D01*
X53562500Y36813135D01*
X53562499Y38426864D01*
X53559585Y38451991D01*
X53514206Y38554765D01*
X53434765Y38634206D01*
X53331991Y38679585D01*
X53331990Y38679586D01*
X53331988Y38679586D01*
X53306868Y38682500D01*
X51693139Y38682500D01*
X51693136Y38682499D01*
X51668009Y38679586D01*
X51565235Y38634206D01*
X51485794Y38554765D01*
X51440414Y38451989D01*
X51437500Y38426870D01*
X51437500Y36813140D01*
X51022500Y36813140D01*
X51022499Y38426864D01*
X51019585Y38451991D01*
X50974206Y38554765D01*
X50894765Y38634206D01*
X50791991Y38679585D01*
X50791990Y38679586D01*
X50791988Y38679586D01*
X50766868Y38682500D01*
X49153139Y38682500D01*
X49153136Y38682499D01*
X49128009Y38679586D01*
X49025235Y38634206D01*
X48945794Y38554765D01*
X48900414Y38451989D01*
X48897500Y38426870D01*
X48897500Y36813140D01*
X40225241Y36813140D01*
X40661743Y37249642D01*
X40670003Y37257022D01*
X40698970Y37280121D01*
X40731457Y37327773D01*
X40733559Y37330734D01*
X40767793Y37377118D01*
X40767795Y37377124D01*
X40771263Y37383684D01*
X40771655Y37383477D01*
X40772651Y37385450D01*
X40772252Y37385642D01*
X40775472Y37392328D01*
X40792477Y37447462D01*
X40793595Y37450862D01*
X40812646Y37505301D01*
X40812646Y37505304D01*
X40812647Y37505306D01*
X40814026Y37512593D01*
X40814460Y37512511D01*
X40814831Y37514693D01*
X40814394Y37514758D01*
X40815500Y37522096D01*
X40815500Y37579700D01*
X40815569Y37583402D01*
X40816288Y37602612D01*
X40817725Y37641010D01*
X40817723Y37641016D01*
X40816894Y37648384D01*
X40817331Y37648434D01*
X40815500Y37662348D01*
X40815500Y37913501D01*
X40834407Y37971692D01*
X40883907Y38007656D01*
X40914500Y38012501D01*
X40981861Y38012501D01*
X40981864Y38012501D01*
X41006991Y38015415D01*
X41109765Y38060794D01*
X41189206Y38140235D01*
X41234585Y38243009D01*
X41237500Y38268135D01*
X41237499Y39353140D01*
X48897500Y39353140D01*
X48897501Y39353137D01*
X48900414Y39328010D01*
X48925756Y39270615D01*
X48945794Y39225235D01*
X49025235Y39145794D01*
X49128009Y39100415D01*
X49153135Y39097500D01*
X50766864Y39097501D01*
X50791991Y39100415D01*
X50894765Y39145794D01*
X50974206Y39225235D01*
X51019585Y39328009D01*
X51022500Y39353135D01*
X51022500Y39353140D01*
X51437500Y39353140D01*
X51437501Y39353137D01*
X51440414Y39328010D01*
X51465756Y39270615D01*
X51485794Y39225235D01*
X51565235Y39145794D01*
X51668009Y39100415D01*
X51693135Y39097500D01*
X53306864Y39097501D01*
X53331991Y39100415D01*
X53434765Y39145794D01*
X53514206Y39225235D01*
X53559585Y39328009D01*
X53562500Y39353135D01*
X53562499Y40966864D01*
X53559585Y40991991D01*
X53514206Y41094765D01*
X53434765Y41174206D01*
X53331991Y41219585D01*
X53331990Y41219586D01*
X53331988Y41219586D01*
X53306868Y41222500D01*
X51693139Y41222500D01*
X51693136Y41222499D01*
X51668009Y41219586D01*
X51565235Y41174206D01*
X51485794Y41094765D01*
X51440414Y40991989D01*
X51437500Y40966870D01*
X51437500Y39353140D01*
X51022500Y39353140D01*
X51022499Y40966864D01*
X51019585Y40991991D01*
X50974206Y41094765D01*
X50894765Y41174206D01*
X50791991Y41219585D01*
X50791990Y41219586D01*
X50791988Y41219586D01*
X50766868Y41222500D01*
X49153139Y41222500D01*
X49153136Y41222499D01*
X49128009Y41219586D01*
X49025235Y41174206D01*
X48945794Y41094765D01*
X48900414Y40991989D01*
X48897500Y40966870D01*
X48897500Y39353140D01*
X41237499Y39353140D01*
X41237499Y39881864D01*
X41234585Y39906991D01*
X41189206Y40009765D01*
X41109765Y40089206D01*
X41006991Y40134585D01*
X41006990Y40134586D01*
X41006988Y40134586D01*
X40981868Y40137500D01*
X39368139Y40137500D01*
X39368136Y40137499D01*
X39343009Y40134586D01*
X39240235Y40089206D01*
X39160794Y40009765D01*
X39115414Y39906989D01*
X39112500Y39881870D01*
X39112500Y38268140D01*
X39112501Y38268137D01*
X39115414Y38243010D01*
X39129207Y38211772D01*
X39160794Y38140235D01*
X39240235Y38060794D01*
X39343009Y38015415D01*
X39368135Y38012500D01*
X39815500Y38012501D01*
X39873691Y37993594D01*
X39909655Y37944094D01*
X39914500Y37913501D01*
X39914500Y37817611D01*
X39895593Y37759420D01*
X39885504Y37747607D01*
X35854893Y33716996D01*
X35800376Y33689219D01*
X35784889Y33688000D01*
X35560812Y33688000D01*
X35502621Y33706907D01*
X35500564Y33708444D01*
X35430721Y33762036D01*
X35430720Y33762037D01*
X35430718Y33762038D01*
X35284646Y33822543D01*
X35284638Y33822545D01*
X35127881Y33843182D01*
X35127879Y33843182D01*
X34971121Y33822545D01*
X34971113Y33822543D01*
X34825041Y33762038D01*
X34825040Y33762038D01*
X34699603Y33665787D01*
X34699593Y33665777D01*
X34603342Y33540340D01*
X34603342Y33540339D01*
X34542837Y33394267D01*
X34542835Y33394259D01*
X34522198Y33237501D01*
X34522198Y33237500D01*
X33477994Y33237500D01*
X33481263Y33243684D01*
X33481655Y33243477D01*
X33482651Y33245450D01*
X33482252Y33245642D01*
X33485472Y33252328D01*
X33502477Y33307462D01*
X33503595Y33310862D01*
X33522646Y33365301D01*
X33522646Y33365304D01*
X33522647Y33365306D01*
X33524026Y33372593D01*
X33524460Y33372511D01*
X33524831Y33374693D01*
X33524394Y33374758D01*
X33525500Y33382096D01*
X33525500Y33439700D01*
X33525569Y33443402D01*
X33525618Y33444720D01*
X33527725Y33501010D01*
X33527723Y33501016D01*
X33526894Y33508384D01*
X33527331Y33508434D01*
X33525500Y33522348D01*
X33525500Y33603565D01*
X33544407Y33661756D01*
X33545936Y33663804D01*
X33599536Y33733656D01*
X33660044Y33879735D01*
X33680682Y34036497D01*
X33660044Y34193259D01*
X33653933Y34208012D01*
X33599537Y34339336D01*
X33599537Y34339337D01*
X33545958Y34409163D01*
X33525534Y34466839D01*
X33525500Y34469430D01*
X33525500Y34538755D01*
X33880562Y34538755D01*
X33901199Y34381997D01*
X33901201Y34381989D01*
X33961706Y34235917D01*
X33961706Y34235916D01*
X34057957Y34110479D01*
X34057962Y34110473D01*
X34183403Y34014219D01*
X34183404Y34014219D01*
X34183405Y34014218D01*
X34329477Y33953713D01*
X34329482Y33953711D01*
X34447053Y33938233D01*
X34486243Y33933073D01*
X34486244Y33933073D01*
X34486245Y33933073D01*
X34517596Y33937201D01*
X34643006Y33953711D01*
X34789085Y34014219D01*
X34914526Y34110473D01*
X35010780Y34235914D01*
X35047624Y34324867D01*
X35069079Y34356978D01*
X38121743Y37409642D01*
X38130003Y37417022D01*
X38158970Y37440121D01*
X38191457Y37487773D01*
X38193559Y37490734D01*
X38227793Y37537118D01*
X38227795Y37537124D01*
X38231263Y37543684D01*
X38231655Y37543477D01*
X38232653Y37545453D01*
X38232254Y37545645D01*
X38235473Y37552328D01*
X38252463Y37607412D01*
X38253612Y37610908D01*
X38272646Y37665300D01*
X38272646Y37665303D01*
X38274026Y37672593D01*
X38274460Y37672511D01*
X38274831Y37674693D01*
X38274394Y37674758D01*
X38275500Y37682096D01*
X38275500Y37739717D01*
X38275569Y37743418D01*
X38276168Y37759420D01*
X38277724Y37801010D01*
X38277722Y37801018D01*
X38276893Y37808382D01*
X38277331Y37808432D01*
X38275500Y37822343D01*
X38275500Y37913501D01*
X38294407Y37971692D01*
X38343907Y38007656D01*
X38374500Y38012501D01*
X38441861Y38012501D01*
X38441864Y38012501D01*
X38466991Y38015415D01*
X38569765Y38060794D01*
X38649206Y38140235D01*
X38694585Y38243009D01*
X38697500Y38268135D01*
X38697499Y39881864D01*
X38694585Y39906991D01*
X38649206Y40009765D01*
X38569765Y40089206D01*
X38466991Y40134585D01*
X38466990Y40134586D01*
X38466988Y40134586D01*
X38441868Y40137500D01*
X36828139Y40137500D01*
X36828136Y40137499D01*
X36803009Y40134586D01*
X36700235Y40089206D01*
X36620794Y40009765D01*
X36575414Y39906989D01*
X36572500Y39881870D01*
X36572500Y38268140D01*
X36572501Y38268137D01*
X36575414Y38243010D01*
X36589207Y38211772D01*
X36620794Y38140235D01*
X36700235Y38060794D01*
X36803009Y38015415D01*
X36828135Y38012500D01*
X37211389Y38012501D01*
X37269580Y37993594D01*
X37305544Y37944094D01*
X37305544Y37882909D01*
X37281393Y37843497D01*
X34605676Y35167781D01*
X34551159Y35140004D01*
X34522753Y35139632D01*
X34486248Y35144437D01*
X34486243Y35144437D01*
X34329485Y35123800D01*
X34329477Y35123798D01*
X34183405Y35063293D01*
X34183404Y35063293D01*
X34057967Y34967042D01*
X34057957Y34967032D01*
X33961706Y34841595D01*
X33961706Y34841594D01*
X33901201Y34695522D01*
X33901199Y34695514D01*
X33880562Y34538756D01*
X33880562Y34538755D01*
X33525500Y34538755D01*
X33525500Y34722390D01*
X33544407Y34780581D01*
X33554490Y34792388D01*
X35796743Y37034642D01*
X35805003Y37042022D01*
X35833970Y37065121D01*
X35866457Y37112773D01*
X35868559Y37115734D01*
X35902793Y37162118D01*
X35902795Y37162124D01*
X35906263Y37168684D01*
X35906655Y37168477D01*
X35907651Y37170450D01*
X35907252Y37170642D01*
X35910472Y37177328D01*
X35927477Y37232462D01*
X35928595Y37235862D01*
X35947646Y37290301D01*
X35947646Y37290306D01*
X35949026Y37297593D01*
X35949460Y37297511D01*
X35949832Y37299697D01*
X35949394Y37299763D01*
X35950500Y37307100D01*
X35950500Y37364717D01*
X35950569Y37368418D01*
X35950570Y37368447D01*
X35952724Y37426010D01*
X35952722Y37426018D01*
X35951893Y37433382D01*
X35952331Y37433432D01*
X35950500Y37447343D01*
X35950500Y39267068D01*
X35969407Y39325259D01*
X35970936Y39327307D01*
X36024536Y39397159D01*
X36085044Y39543238D01*
X36105682Y39700000D01*
X36085044Y39856762D01*
X36064239Y39906989D01*
X36024537Y40002839D01*
X36024537Y40002840D01*
X35928286Y40128277D01*
X35928285Y40128278D01*
X35928282Y40128282D01*
X35928277Y40128286D01*
X35928276Y40128287D01*
X35802838Y40224538D01*
X35656766Y40285043D01*
X35656758Y40285045D01*
X35500001Y40305682D01*
X35499999Y40305682D01*
X35343241Y40285045D01*
X35343233Y40285043D01*
X35197161Y40224538D01*
X35197160Y40224538D01*
X35071723Y40128287D01*
X35071713Y40128277D01*
X34975462Y40002840D01*
X34975462Y40002839D01*
X34914957Y39856767D01*
X34914955Y39856759D01*
X34894318Y39700001D01*
X34894318Y39700000D01*
X34914955Y39543242D01*
X34914957Y39543234D01*
X34975462Y39397162D01*
X34975463Y39397160D01*
X34975464Y39397159D01*
X35029042Y39327335D01*
X35049466Y39269660D01*
X35049500Y39267068D01*
X35049500Y37602612D01*
X35030593Y37544421D01*
X35020504Y37532608D01*
X32778265Y35290370D01*
X32769988Y35282974D01*
X32741030Y35259881D01*
X32741029Y35259880D01*
X32708556Y35212252D01*
X32706416Y35209236D01*
X32672207Y35162884D01*
X32668742Y35156326D01*
X32668353Y35156532D01*
X32667350Y35154545D01*
X32667746Y35154354D01*
X32664526Y35147668D01*
X32647536Y35092590D01*
X32646380Y35089077D01*
X32627355Y35034705D01*
X32625976Y35027413D01*
X32625544Y35027495D01*
X32625171Y35025300D01*
X32625605Y35025234D01*
X32624500Y35017901D01*
X32624500Y34960285D01*
X32624431Y34956584D01*
X32622276Y34898990D01*
X32623107Y34891615D01*
X32622668Y34891566D01*
X32624500Y34877656D01*
X32624500Y34469430D01*
X32605593Y34411239D01*
X32604042Y34409163D01*
X32550462Y34339337D01*
X32550462Y34339336D01*
X32489957Y34193264D01*
X32489955Y34193256D01*
X32469318Y34036498D01*
X32469318Y34036497D01*
X32489955Y33879739D01*
X32489957Y33879731D01*
X32550462Y33733659D01*
X32571893Y33705729D01*
X32592316Y33648052D01*
X32574938Y33589387D01*
X32563354Y33575458D01*
X32003265Y33015370D01*
X31994988Y33007974D01*
X31966030Y32984881D01*
X31966029Y32984880D01*
X31933556Y32937252D01*
X31931416Y32934236D01*
X31897207Y32887884D01*
X31893742Y32881326D01*
X31893353Y32881532D01*
X31892350Y32879545D01*
X31892746Y32879354D01*
X31889526Y32872668D01*
X31872536Y32817590D01*
X31871380Y32814077D01*
X31852355Y32759705D01*
X31850976Y32752413D01*
X31850544Y32752495D01*
X31850171Y32750300D01*
X31850605Y32750234D01*
X31849500Y32742901D01*
X31849500Y32685285D01*
X31849431Y32681584D01*
X31847276Y32623990D01*
X31848107Y32616615D01*
X31847668Y32616566D01*
X31849500Y32602656D01*
X31849500Y24398888D01*
X31830593Y24340697D01*
X31781093Y24304733D01*
X31737579Y24300735D01*
X31700001Y24305682D01*
X31699999Y24305682D01*
X31543241Y24285045D01*
X31543233Y24285043D01*
X31397161Y24224538D01*
X31397160Y24224538D01*
X31271723Y24128287D01*
X31271713Y24128277D01*
X31175462Y24002840D01*
X31175462Y24002839D01*
X31114957Y23856767D01*
X31114955Y23856759D01*
X31094318Y23700001D01*
X31094318Y23700000D01*
X28950500Y23700000D01*
X28950500Y24067068D01*
X28969407Y24125259D01*
X28970936Y24127307D01*
X29024536Y24197159D01*
X29085044Y24343238D01*
X29105682Y24500000D01*
X29085044Y24656762D01*
X29024537Y24802839D01*
X29024537Y24802840D01*
X28928286Y24928277D01*
X28928285Y24928278D01*
X28928282Y24928282D01*
X28928277Y24928286D01*
X28928276Y24928287D01*
X28802838Y25024538D01*
X28656766Y25085043D01*
X28656758Y25085045D01*
X28500001Y25105682D01*
X28499999Y25105682D01*
X28343241Y25085045D01*
X28343233Y25085043D01*
X28197161Y25024538D01*
X28197160Y25024538D01*
X28071723Y24928287D01*
X28071713Y24928277D01*
X27975462Y24802840D01*
X27975462Y24802839D01*
X27914957Y24656767D01*
X27914955Y24656759D01*
X27894318Y24500001D01*
X27894318Y24500000D01*
X27914955Y24343242D01*
X27914957Y24343234D01*
X27975462Y24197162D01*
X27975463Y24197160D01*
X27975464Y24197159D01*
X28029042Y24127335D01*
X28049466Y24069660D01*
X28049500Y24067068D01*
X28049500Y22808372D01*
X28030593Y22750181D01*
X28020504Y22738368D01*
X23994132Y18711996D01*
X23939615Y18684219D01*
X23924128Y18683000D01*
X21032932Y18683000D01*
X20974741Y18701907D01*
X20972684Y18703444D01*
X20902841Y18757036D01*
X20902840Y18757037D01*
X20902838Y18757038D01*
X20756766Y18817543D01*
X20756758Y18817545D01*
X20600001Y18838182D01*
X20599999Y18838182D01*
X20443241Y18817545D01*
X20443233Y18817543D01*
X20297161Y18757038D01*
X20258994Y18727752D01*
X20227334Y18703458D01*
X20169659Y18683034D01*
X20167068Y18683000D01*
X19570111Y18683000D01*
X19511920Y18701907D01*
X19500107Y18711996D01*
X17478470Y20733633D01*
X17450693Y20788150D01*
X17450321Y20790716D01*
X17445869Y20824536D01*
X17435044Y20906762D01*
X17374537Y21052839D01*
X17374537Y21052840D01*
X17278286Y21178277D01*
X17278285Y21178278D01*
X17278282Y21178282D01*
X17278277Y21178286D01*
X17278276Y21178287D01*
X17207104Y21232899D01*
X17152841Y21274536D01*
X17152840Y21274537D01*
X17152838Y21274538D01*
X17006766Y21335043D01*
X17006758Y21335045D01*
X16850001Y21355682D01*
X16849999Y21355682D01*
X16693241Y21335045D01*
X16693233Y21335043D01*
X16547161Y21274538D01*
X16547160Y21274538D01*
X16421723Y21178287D01*
X16421713Y21178277D01*
X16325462Y21052840D01*
X16325462Y21052839D01*
X16264957Y20906767D01*
X16264955Y20906759D01*
X16244318Y20750001D01*
X16244318Y20750000D01*
X5834500Y20750000D01*
X5834500Y21533140D01*
X7437500Y21533140D01*
X7437501Y21533137D01*
X7440414Y21508010D01*
X7456710Y21471104D01*
X7485794Y21405235D01*
X7565235Y21325794D01*
X7668009Y21280415D01*
X7693135Y21277500D01*
X9306864Y21277501D01*
X9331991Y21280415D01*
X9434765Y21325794D01*
X9514206Y21405235D01*
X9559585Y21508009D01*
X9562500Y21533135D01*
X9562500Y21533140D01*
X9977500Y21533140D01*
X9977501Y21533137D01*
X9980414Y21508010D01*
X9996710Y21471104D01*
X10025794Y21405235D01*
X10105235Y21325794D01*
X10208009Y21280415D01*
X10233135Y21277500D01*
X11846864Y21277501D01*
X11871991Y21280415D01*
X11974765Y21325794D01*
X12054206Y21405235D01*
X12099585Y21508009D01*
X12102500Y21533135D01*
X12102500Y21918750D01*
X23375568Y21918750D01*
X23396205Y21761992D01*
X23396207Y21761984D01*
X23456712Y21615912D01*
X23456712Y21615911D01*
X23539508Y21508009D01*
X23552968Y21490468D01*
X23678409Y21394214D01*
X23824488Y21333706D01*
X23925444Y21320415D01*
X23981249Y21313068D01*
X23981250Y21313068D01*
X23981251Y21313068D01*
X24012602Y21317196D01*
X24138012Y21333706D01*
X24284091Y21394214D01*
X24409532Y21490468D01*
X24505786Y21615909D01*
X24566294Y21761988D01*
X24577781Y21849247D01*
X24604121Y21904471D01*
X24605892Y21906290D01*
X25620107Y22920504D01*
X25674624Y22948281D01*
X25690111Y22949500D01*
X26367068Y22949500D01*
X26425259Y22930593D01*
X26427315Y22929057D01*
X26497159Y22875464D01*
X26643238Y22814956D01*
X26760809Y22799478D01*
X26799999Y22794318D01*
X26800000Y22794318D01*
X26800001Y22794318D01*
X26831352Y22798446D01*
X26956762Y22814956D01*
X27102841Y22875464D01*
X27228282Y22971718D01*
X27324536Y23097159D01*
X27385044Y23243238D01*
X27405682Y23400000D01*
X27385044Y23556762D01*
X27332319Y23684052D01*
X27324537Y23702839D01*
X27324537Y23702840D01*
X27228286Y23828277D01*
X27228285Y23828278D01*
X27228282Y23828282D01*
X27228277Y23828286D01*
X27228276Y23828287D01*
X27102838Y23924538D01*
X26956766Y23985043D01*
X26956758Y23985045D01*
X26800001Y24005682D01*
X26799999Y24005682D01*
X26643241Y23985045D01*
X26643233Y23985043D01*
X26497161Y23924538D01*
X26472735Y23905795D01*
X26427334Y23870958D01*
X26369659Y23850534D01*
X26367068Y23850500D01*
X25493364Y23850500D01*
X25482281Y23851122D01*
X25474414Y23852009D01*
X25445465Y23855270D01*
X25445464Y23855270D01*
X25445463Y23855270D01*
X25388812Y23844553D01*
X25385167Y23843934D01*
X25328215Y23835349D01*
X25321129Y23833163D01*
X25321000Y23833581D01*
X25318885Y23832885D01*
X25319029Y23832474D01*
X25312030Y23830025D01*
X25261062Y23803088D01*
X25257760Y23801421D01*
X25205856Y23776425D01*
X25199729Y23772247D01*
X25199484Y23772607D01*
X25197668Y23771319D01*
X25197927Y23770968D01*
X25191958Y23766563D01*
X25151220Y23725825D01*
X25148556Y23723258D01*
X25106302Y23684052D01*
X25101679Y23678254D01*
X25101335Y23678528D01*
X25092797Y23667403D01*
X23968826Y22543432D01*
X23914309Y22515655D01*
X23911746Y22515283D01*
X23824486Y22503794D01*
X23678411Y22443288D01*
X23678410Y22443288D01*
X23552973Y22347037D01*
X23552963Y22347027D01*
X23456712Y22221590D01*
X23456712Y22221589D01*
X23396207Y22075517D01*
X23396205Y22075509D01*
X23375568Y21918751D01*
X23375568Y21918750D01*
X12102500Y21918750D01*
X12102499Y23146864D01*
X12099585Y23171991D01*
X12054206Y23274765D01*
X11974765Y23354206D01*
X11871991Y23399585D01*
X11871990Y23399586D01*
X11871988Y23399586D01*
X11846868Y23402500D01*
X10233139Y23402500D01*
X10233136Y23402499D01*
X10208009Y23399586D01*
X10105235Y23354206D01*
X10025794Y23274765D01*
X9980414Y23171989D01*
X9977500Y23146870D01*
X9977500Y21533140D01*
X9562500Y21533140D01*
X9562499Y23146864D01*
X9559585Y23171991D01*
X9514206Y23274765D01*
X9434765Y23354206D01*
X9331991Y23399585D01*
X9331990Y23399586D01*
X9331988Y23399586D01*
X9306868Y23402500D01*
X7693139Y23402500D01*
X7693136Y23402499D01*
X7668009Y23399586D01*
X7565235Y23354206D01*
X7485794Y23274765D01*
X7440414Y23171989D01*
X7437500Y23146870D01*
X7437500Y21533140D01*
X5834500Y21533140D01*
X5834500Y24073140D01*
X7437500Y24073140D01*
X7437501Y24073137D01*
X7440414Y24048010D01*
X7460359Y24002840D01*
X7485794Y23945235D01*
X7565235Y23865794D01*
X7668009Y23820415D01*
X7693135Y23817500D01*
X9306864Y23817501D01*
X9331991Y23820415D01*
X9434765Y23865794D01*
X9514206Y23945235D01*
X9559585Y24048009D01*
X9562500Y24073135D01*
X9562500Y24073140D01*
X9977500Y24073140D01*
X9977501Y24073137D01*
X9980414Y24048010D01*
X10000359Y24002840D01*
X10025794Y23945235D01*
X10105235Y23865794D01*
X10208009Y23820415D01*
X10233135Y23817500D01*
X11846864Y23817501D01*
X11871991Y23820415D01*
X11974765Y23865794D01*
X12054206Y23945235D01*
X12099585Y24048009D01*
X12102500Y24073135D01*
X12102499Y25686864D01*
X12099585Y25711991D01*
X12054206Y25814765D01*
X11974765Y25894206D01*
X11871991Y25939585D01*
X11871990Y25939586D01*
X11871988Y25939586D01*
X11846868Y25942500D01*
X10233139Y25942500D01*
X10233136Y25942499D01*
X10208009Y25939586D01*
X10105235Y25894206D01*
X10025794Y25814765D01*
X9980414Y25711989D01*
X9977500Y25686870D01*
X9977500Y24073140D01*
X9562500Y24073140D01*
X9562499Y25686864D01*
X9559585Y25711991D01*
X9514206Y25814765D01*
X9434765Y25894206D01*
X9331991Y25939585D01*
X9331990Y25939586D01*
X9331988Y25939586D01*
X9306868Y25942500D01*
X7693139Y25942500D01*
X7693136Y25942499D01*
X7668009Y25939586D01*
X7565235Y25894206D01*
X7485794Y25814765D01*
X7440414Y25711989D01*
X7437500Y25686870D01*
X7437500Y24073140D01*
X5834500Y24073140D01*
X5834500Y26613140D01*
X7437500Y26613140D01*
X7437501Y26613137D01*
X7440414Y26588010D01*
X7465756Y26530615D01*
X7485794Y26485235D01*
X7565235Y26405794D01*
X7668009Y26360415D01*
X7693135Y26357500D01*
X9306864Y26357501D01*
X9331991Y26360415D01*
X9434765Y26405794D01*
X9514206Y26485235D01*
X9559585Y26588009D01*
X9562500Y26613135D01*
X9562500Y26613140D01*
X9977500Y26613140D01*
X9977501Y26613137D01*
X9980414Y26588010D01*
X10005756Y26530615D01*
X10025794Y26485235D01*
X10105235Y26405794D01*
X10208009Y26360415D01*
X10233135Y26357500D01*
X11846864Y26357501D01*
X11871991Y26360415D01*
X11974765Y26405794D01*
X12054206Y26485235D01*
X12099585Y26588009D01*
X12102500Y26613135D01*
X12102499Y28226864D01*
X12099585Y28251991D01*
X12054206Y28354765D01*
X11974765Y28434206D01*
X11871991Y28479585D01*
X11871990Y28479586D01*
X11871988Y28479586D01*
X11846868Y28482500D01*
X10233139Y28482500D01*
X10233136Y28482499D01*
X10208009Y28479586D01*
X10105235Y28434206D01*
X10025794Y28354765D01*
X9980414Y28251989D01*
X9977500Y28226870D01*
X9977500Y26613140D01*
X9562500Y26613140D01*
X9562499Y28226864D01*
X9559585Y28251991D01*
X9514206Y28354765D01*
X9434765Y28434206D01*
X9331991Y28479585D01*
X9331990Y28479586D01*
X9331988Y28479586D01*
X9306868Y28482500D01*
X7693139Y28482500D01*
X7693136Y28482499D01*
X7668009Y28479586D01*
X7565235Y28434206D01*
X7485794Y28354765D01*
X7440414Y28251989D01*
X7437500Y28226870D01*
X7437500Y26613140D01*
X5834500Y26613140D01*
X5834500Y29153140D01*
X7437500Y29153140D01*
X7437501Y29153137D01*
X7440414Y29128010D01*
X7465756Y29070615D01*
X7485794Y29025235D01*
X7565235Y28945794D01*
X7668009Y28900415D01*
X7693135Y28897500D01*
X9306864Y28897501D01*
X9331991Y28900415D01*
X9434765Y28945794D01*
X9514206Y29025235D01*
X9559585Y29128009D01*
X9562500Y29153135D01*
X9562500Y29153140D01*
X9977500Y29153140D01*
X9977501Y29153137D01*
X9980414Y29128010D01*
X10005756Y29070615D01*
X10025794Y29025235D01*
X10105235Y28945794D01*
X10208009Y28900415D01*
X10233135Y28897500D01*
X11846864Y28897501D01*
X11871991Y28900415D01*
X11974765Y28945794D01*
X12054206Y29025235D01*
X12099585Y29128009D01*
X12102500Y29153135D01*
X12102499Y30766864D01*
X12099585Y30791991D01*
X12054206Y30894765D01*
X11974765Y30974206D01*
X11871991Y31019585D01*
X11871990Y31019586D01*
X11871988Y31019586D01*
X11846868Y31022500D01*
X10233139Y31022500D01*
X10233136Y31022499D01*
X10208009Y31019586D01*
X10105235Y30974206D01*
X10025794Y30894765D01*
X9980414Y30791989D01*
X9977500Y30766870D01*
X9977500Y29153140D01*
X9562500Y29153140D01*
X9562499Y30766864D01*
X9559585Y30791991D01*
X9514206Y30894765D01*
X9434765Y30974206D01*
X9331991Y31019585D01*
X9331990Y31019586D01*
X9331988Y31019586D01*
X9306868Y31022500D01*
X7693139Y31022500D01*
X7693136Y31022499D01*
X7668009Y31019586D01*
X7565235Y30974206D01*
X7485794Y30894765D01*
X7440414Y30791989D01*
X7437500Y30766870D01*
X7437500Y29153140D01*
X5834500Y29153140D01*
X5834500Y31693140D01*
X7437500Y31693140D01*
X7437501Y31693137D01*
X7440414Y31668010D01*
X7465756Y31610615D01*
X7485794Y31565235D01*
X7565235Y31485794D01*
X7668009Y31440415D01*
X7693135Y31437500D01*
X9306864Y31437501D01*
X9331991Y31440415D01*
X9434765Y31485794D01*
X9514206Y31565235D01*
X9559585Y31668009D01*
X9562500Y31693135D01*
X9562500Y31693140D01*
X9977500Y31693140D01*
X9977501Y31693137D01*
X9980414Y31668010D01*
X10005756Y31610615D01*
X10025794Y31565235D01*
X10105235Y31485794D01*
X10208009Y31440415D01*
X10233135Y31437500D01*
X11846864Y31437501D01*
X11871991Y31440415D01*
X11974765Y31485794D01*
X12054206Y31565235D01*
X12099585Y31668009D01*
X12102500Y31693135D01*
X12102499Y33306864D01*
X12099585Y33331991D01*
X12054206Y33434765D01*
X11974765Y33514206D01*
X11871991Y33559585D01*
X11871990Y33559586D01*
X11871988Y33559586D01*
X11846868Y33562500D01*
X10233139Y33562500D01*
X10233136Y33562499D01*
X10208009Y33559586D01*
X10105235Y33514206D01*
X10025794Y33434765D01*
X9980414Y33331989D01*
X9977500Y33306870D01*
X9977500Y31693140D01*
X9562500Y31693140D01*
X9562499Y33306864D01*
X9559585Y33331991D01*
X9514206Y33434765D01*
X9434765Y33514206D01*
X9331991Y33559585D01*
X9331990Y33559586D01*
X9331988Y33559586D01*
X9306868Y33562500D01*
X7693139Y33562500D01*
X7693136Y33562499D01*
X7668009Y33559586D01*
X7565235Y33514206D01*
X7485794Y33434765D01*
X7440414Y33331989D01*
X7437500Y33306870D01*
X7437500Y31693140D01*
X5834500Y31693140D01*
X5834500Y34233140D01*
X7437500Y34233140D01*
X7437501Y34233137D01*
X7440414Y34208010D01*
X7446929Y34193256D01*
X7485794Y34105235D01*
X7565235Y34025794D01*
X7668009Y33980415D01*
X7693135Y33977500D01*
X9306864Y33977501D01*
X9331991Y33980415D01*
X9434765Y34025794D01*
X9514206Y34105235D01*
X9559585Y34208009D01*
X9562500Y34233135D01*
X9562500Y34233140D01*
X9977500Y34233140D01*
X9977501Y34233137D01*
X9980414Y34208010D01*
X9986929Y34193256D01*
X10025794Y34105235D01*
X10105235Y34025794D01*
X10208009Y33980415D01*
X10233135Y33977500D01*
X11846864Y33977501D01*
X11871991Y33980415D01*
X11974765Y34025794D01*
X12054206Y34105235D01*
X12099585Y34208009D01*
X12102500Y34233135D01*
X12102499Y35846864D01*
X12099585Y35871991D01*
X12054206Y35974765D01*
X11974765Y36054206D01*
X11871991Y36099585D01*
X11871990Y36099586D01*
X11871988Y36099586D01*
X11846868Y36102500D01*
X10233139Y36102500D01*
X10233136Y36102499D01*
X10208009Y36099586D01*
X10105235Y36054206D01*
X10025794Y35974765D01*
X9980414Y35871989D01*
X9977500Y35846870D01*
X9977500Y34233140D01*
X9562500Y34233140D01*
X9562499Y35846864D01*
X9559585Y35871991D01*
X9514206Y35974765D01*
X9434765Y36054206D01*
X9331991Y36099585D01*
X9331990Y36099586D01*
X9331988Y36099586D01*
X9306868Y36102500D01*
X7693139Y36102500D01*
X7693136Y36102499D01*
X7668009Y36099586D01*
X7565235Y36054206D01*
X7485794Y35974765D01*
X7440414Y35871989D01*
X7437500Y35846870D01*
X7437500Y34233140D01*
X5834500Y34233140D01*
X5834500Y36773140D01*
X7437500Y36773140D01*
X7437501Y36773137D01*
X7440414Y36748010D01*
X7465756Y36690615D01*
X7485794Y36645235D01*
X7565235Y36565794D01*
X7668009Y36520415D01*
X7693135Y36517500D01*
X9306864Y36517501D01*
X9331991Y36520415D01*
X9434765Y36565794D01*
X9514206Y36645235D01*
X9559585Y36748009D01*
X9562500Y36773135D01*
X9562500Y36773140D01*
X9977500Y36773140D01*
X9977501Y36773137D01*
X9980414Y36748010D01*
X10005756Y36690615D01*
X10025794Y36645235D01*
X10105235Y36565794D01*
X10208009Y36520415D01*
X10233135Y36517500D01*
X11846864Y36517501D01*
X11871991Y36520415D01*
X11974765Y36565794D01*
X12054206Y36645235D01*
X12099585Y36748009D01*
X12102500Y36773135D01*
X12102499Y38386864D01*
X12099585Y38411991D01*
X12054206Y38514765D01*
X11974765Y38594206D01*
X11871991Y38639585D01*
X11871990Y38639586D01*
X11871988Y38639586D01*
X11846868Y38642500D01*
X10233139Y38642500D01*
X10233136Y38642499D01*
X10208009Y38639586D01*
X10105235Y38594206D01*
X10025794Y38514765D01*
X9980414Y38411989D01*
X9977500Y38386870D01*
X9977500Y36773140D01*
X9562500Y36773140D01*
X9562499Y38386864D01*
X9559585Y38411991D01*
X9514206Y38514765D01*
X9434765Y38594206D01*
X9331991Y38639585D01*
X9331990Y38639586D01*
X9331988Y38639586D01*
X9306868Y38642500D01*
X7693139Y38642500D01*
X7693136Y38642499D01*
X7668009Y38639586D01*
X7565235Y38594206D01*
X7485794Y38514765D01*
X7440414Y38411989D01*
X7437500Y38386870D01*
X7437500Y36773140D01*
X5834500Y36773140D01*
X5834500Y39313140D01*
X7437500Y39313140D01*
X7437501Y39313137D01*
X7440414Y39288010D01*
X7449661Y39267068D01*
X7485794Y39185235D01*
X7565235Y39105794D01*
X7668009Y39060415D01*
X7693135Y39057500D01*
X9306864Y39057501D01*
X9331991Y39060415D01*
X9434765Y39105794D01*
X9514206Y39185235D01*
X9559585Y39288009D01*
X9562500Y39313135D01*
X9562500Y39313140D01*
X9977500Y39313140D01*
X9977501Y39313137D01*
X9980414Y39288010D01*
X9989661Y39267068D01*
X10025794Y39185235D01*
X10105235Y39105794D01*
X10208009Y39060415D01*
X10233135Y39057500D01*
X11846864Y39057501D01*
X11871991Y39060415D01*
X11974765Y39105794D01*
X12054206Y39185235D01*
X12099585Y39288009D01*
X12102500Y39313135D01*
X12102499Y40926864D01*
X12099585Y40951991D01*
X12054206Y41054765D01*
X11974765Y41134206D01*
X11871991Y41179585D01*
X11871990Y41179586D01*
X11871988Y41179586D01*
X11846868Y41182500D01*
X10233139Y41182500D01*
X10233136Y41182499D01*
X10208009Y41179586D01*
X10105235Y41134206D01*
X10025794Y41054765D01*
X9980414Y40951989D01*
X9977500Y40926870D01*
X9977500Y39313140D01*
X9562500Y39313140D01*
X9562499Y40926864D01*
X9559585Y40951991D01*
X9514206Y41054765D01*
X9434765Y41134206D01*
X9331991Y41179585D01*
X9331990Y41179586D01*
X9331988Y41179586D01*
X9306868Y41182500D01*
X7693139Y41182500D01*
X7693136Y41182499D01*
X7668009Y41179586D01*
X7565235Y41134206D01*
X7485794Y41054765D01*
X7440414Y40951989D01*
X7437500Y40926870D01*
X7437500Y39313140D01*
X5834500Y39313140D01*
X5834500Y41853140D01*
X7437500Y41853140D01*
X7437501Y41853137D01*
X7440414Y41828010D01*
X7465756Y41770615D01*
X7485794Y41725235D01*
X7565235Y41645794D01*
X7668009Y41600415D01*
X7693135Y41597500D01*
X9306864Y41597501D01*
X9331991Y41600415D01*
X9434765Y41645794D01*
X9514206Y41725235D01*
X9559585Y41828009D01*
X9562500Y41853135D01*
X9562500Y41853140D01*
X9977500Y41853140D01*
X9977501Y41853137D01*
X9980414Y41828010D01*
X10005756Y41770615D01*
X10025794Y41725235D01*
X10105235Y41645794D01*
X10208009Y41600415D01*
X10233135Y41597500D01*
X11846864Y41597501D01*
X11871991Y41600415D01*
X11974765Y41645794D01*
X12054206Y41725235D01*
X12099585Y41828009D01*
X12102500Y41853135D01*
X12102499Y43466864D01*
X12099585Y43491991D01*
X12054206Y43594765D01*
X11974765Y43674206D01*
X11871991Y43719585D01*
X11871990Y43719586D01*
X11871988Y43719586D01*
X11846868Y43722500D01*
X10233139Y43722500D01*
X10233136Y43722499D01*
X10208009Y43719586D01*
X10105235Y43674206D01*
X10025794Y43594765D01*
X9980414Y43491989D01*
X9977500Y43466870D01*
X9977500Y41853140D01*
X9562500Y41853140D01*
X9562499Y43466864D01*
X9559585Y43491991D01*
X9514206Y43594765D01*
X9434765Y43674206D01*
X9331991Y43719585D01*
X9331990Y43719586D01*
X9331988Y43719586D01*
X9306868Y43722500D01*
X7693139Y43722500D01*
X7693136Y43722499D01*
X7668009Y43719586D01*
X7565235Y43674206D01*
X7485794Y43594765D01*
X7440414Y43491989D01*
X7437500Y43466870D01*
X7437500Y41853140D01*
X5834500Y41853140D01*
X5834500Y44393140D01*
X7437500Y44393140D01*
X7437501Y44393137D01*
X7440414Y44368010D01*
X7440525Y44367759D01*
X7485794Y44265235D01*
X7565235Y44185794D01*
X7668009Y44140415D01*
X7693135Y44137500D01*
X9306864Y44137501D01*
X9331991Y44140415D01*
X9434765Y44185794D01*
X9514206Y44265235D01*
X9559585Y44368009D01*
X9562500Y44393135D01*
X9562500Y44393140D01*
X9977500Y44393140D01*
X9977501Y44393137D01*
X9980414Y44368010D01*
X9980525Y44367759D01*
X10025794Y44265235D01*
X10105235Y44185794D01*
X10208009Y44140415D01*
X10233135Y44137500D01*
X11846864Y44137501D01*
X11871991Y44140415D01*
X11974765Y44185794D01*
X12054206Y44265235D01*
X12099585Y44368009D01*
X12102500Y44393135D01*
X12102500Y44523376D01*
X16173000Y44523376D01*
X16187506Y44450454D01*
X16187507Y44450452D01*
X16242758Y44367763D01*
X16242762Y44367759D01*
X16325451Y44312508D01*
X16325453Y44312507D01*
X16398375Y44298001D01*
X16398377Y44298000D01*
X16984999Y44298000D01*
X16985000Y44298001D01*
X16985000Y44908378D01*
X16989960Y44904996D01*
X17118002Y44865500D01*
X17218312Y44865500D01*
X17317499Y44880450D01*
X17385000Y44912957D01*
X17385000Y44298001D01*
X17385001Y44298000D01*
X17971623Y44298000D01*
X17971624Y44298001D01*
X18044546Y44312507D01*
X18044548Y44312508D01*
X18127237Y44367759D01*
X18127241Y44367763D01*
X18182492Y44450452D01*
X18182493Y44450454D01*
X18192974Y44503140D01*
X18662500Y44503140D01*
X18662501Y44503137D01*
X18665414Y44478010D01*
X18690756Y44420615D01*
X18710794Y44375235D01*
X18790235Y44295794D01*
X18893009Y44250415D01*
X18918135Y44247500D01*
X20531864Y44247501D01*
X20556991Y44250415D01*
X20659765Y44295794D01*
X20739206Y44375235D01*
X20784585Y44478009D01*
X20787500Y44503135D01*
X20787500Y44503140D01*
X21202500Y44503140D01*
X21202501Y44503137D01*
X21205414Y44478010D01*
X21230756Y44420615D01*
X21250794Y44375235D01*
X21330235Y44295794D01*
X21433009Y44250415D01*
X21458135Y44247500D01*
X23071864Y44247501D01*
X23096991Y44250415D01*
X23199765Y44295794D01*
X23279206Y44375235D01*
X23324585Y44478009D01*
X23327500Y44503135D01*
X23327500Y44503140D01*
X23742500Y44503140D01*
X23742501Y44503137D01*
X23745414Y44478010D01*
X23770756Y44420615D01*
X23790794Y44375235D01*
X23870235Y44295794D01*
X23973009Y44250415D01*
X23998135Y44247500D01*
X25605500Y44247501D01*
X25663691Y44228594D01*
X25699655Y44179094D01*
X25704500Y44148501D01*
X25704500Y38396794D01*
X25702774Y38378388D01*
X25700976Y38368886D01*
X25700545Y38368968D01*
X25700171Y38366771D01*
X25700605Y38366705D01*
X25699500Y38359372D01*
X25699500Y38301756D01*
X25699431Y38298055D01*
X25697276Y38240461D01*
X25698107Y38233086D01*
X25697668Y38233037D01*
X25699500Y38219127D01*
X25699500Y33980864D01*
X25698878Y33969781D01*
X25694730Y33932967D01*
X25694730Y33932962D01*
X25705444Y33876336D01*
X25706064Y33872688D01*
X25714652Y33815713D01*
X25716840Y33808619D01*
X25716417Y33808489D01*
X25717109Y33806387D01*
X25717526Y33806532D01*
X25719975Y33799532D01*
X25746906Y33748576D01*
X25748574Y33745272D01*
X25773574Y33693359D01*
X25777753Y33687230D01*
X25777389Y33686983D01*
X25778680Y33685165D01*
X25779033Y33685425D01*
X25783435Y33679460D01*
X25824185Y33638712D01*
X25826730Y33636071D01*
X25865945Y33593806D01*
X25865947Y33593805D01*
X25865949Y33593803D01*
X25871744Y33589181D01*
X25871468Y33588837D01*
X25882600Y33580296D01*
X29141609Y30321288D01*
X29169386Y30266771D01*
X29169758Y30264207D01*
X29177455Y30205741D01*
X29177457Y30205734D01*
X29237962Y30059662D01*
X29237962Y30059661D01*
X29237964Y30059659D01*
X29334218Y29934218D01*
X29459659Y29837964D01*
X29605738Y29777456D01*
X29723309Y29761978D01*
X29762499Y29756818D01*
X29762500Y29756818D01*
X29762501Y29756818D01*
X29793852Y29760946D01*
X29919262Y29777456D01*
X30065341Y29837964D01*
X30190782Y29934218D01*
X30287036Y30059659D01*
X30347544Y30205738D01*
X30368182Y30362500D01*
X30347544Y30519262D01*
X30347542Y30519267D01*
X30287037Y30665339D01*
X30287037Y30665340D01*
X30190786Y30790777D01*
X30190785Y30790778D01*
X30190782Y30790782D01*
X30190777Y30790786D01*
X30190776Y30790787D01*
X30065338Y30887038D01*
X29919262Y30947544D01*
X29803212Y30962823D01*
X29747987Y30989164D01*
X29746131Y30990972D01*
X26629496Y34107607D01*
X26601719Y34162124D01*
X26600500Y34177611D01*
X26600500Y38191147D01*
X26602227Y38209556D01*
X26604027Y38219067D01*
X26604461Y38218985D01*
X26604832Y38221168D01*
X26604394Y38221234D01*
X26605500Y38228571D01*
X26605500Y38286188D01*
X26605569Y38289889D01*
X26605570Y38289918D01*
X26607724Y38347481D01*
X26607722Y38347489D01*
X26606893Y38354853D01*
X26607331Y38354903D01*
X26605500Y38368814D01*
X26605500Y41893140D01*
X48897500Y41893140D01*
X48897501Y41893137D01*
X48900414Y41868010D01*
X48925756Y41810615D01*
X48945794Y41765235D01*
X49025235Y41685794D01*
X49128009Y41640415D01*
X49153135Y41637500D01*
X50766864Y41637501D01*
X50791991Y41640415D01*
X50894765Y41685794D01*
X50974206Y41765235D01*
X51019585Y41868009D01*
X51022500Y41893135D01*
X51022500Y41893140D01*
X51437500Y41893140D01*
X51437501Y41893137D01*
X51440414Y41868010D01*
X51465756Y41810615D01*
X51485794Y41765235D01*
X51565235Y41685794D01*
X51668009Y41640415D01*
X51693135Y41637500D01*
X53306864Y41637501D01*
X53331991Y41640415D01*
X53434765Y41685794D01*
X53514206Y41765235D01*
X53559585Y41868009D01*
X53562500Y41893135D01*
X53562499Y43506864D01*
X53559585Y43531991D01*
X53514206Y43634765D01*
X53434765Y43714206D01*
X53331991Y43759585D01*
X53331990Y43759586D01*
X53331988Y43759586D01*
X53306868Y43762500D01*
X51693139Y43762500D01*
X51693136Y43762499D01*
X51668009Y43759586D01*
X51565235Y43714206D01*
X51485794Y43634765D01*
X51440414Y43531989D01*
X51437500Y43506870D01*
X51437500Y41893140D01*
X51022500Y41893140D01*
X51022499Y43506864D01*
X51019585Y43531991D01*
X50974206Y43634765D01*
X50894765Y43714206D01*
X50791991Y43759585D01*
X50791990Y43759586D01*
X50791988Y43759586D01*
X50766868Y43762500D01*
X49153139Y43762500D01*
X49153136Y43762499D01*
X49128009Y43759586D01*
X49025235Y43714206D01*
X48945794Y43634765D01*
X48900414Y43531989D01*
X48897500Y43506870D01*
X48897500Y41893140D01*
X26605500Y41893140D01*
X26605500Y44148501D01*
X26624407Y44206692D01*
X26673907Y44242656D01*
X26704500Y44247501D01*
X28151861Y44247501D01*
X28151864Y44247501D01*
X28176991Y44250415D01*
X28279765Y44295794D01*
X28359206Y44375235D01*
X28404585Y44478009D01*
X28407500Y44503135D01*
X28407500Y44503140D01*
X28822500Y44503140D01*
X28822501Y44503137D01*
X28825414Y44478010D01*
X28850756Y44420615D01*
X28870794Y44375235D01*
X28950235Y44295794D01*
X29053009Y44250415D01*
X29078135Y44247500D01*
X30691864Y44247501D01*
X30716991Y44250415D01*
X30819765Y44295794D01*
X30899206Y44375235D01*
X30944585Y44478009D01*
X30947500Y44503135D01*
X30947500Y44503140D01*
X31362500Y44503140D01*
X31362501Y44503137D01*
X31365414Y44478010D01*
X31390756Y44420615D01*
X31410794Y44375235D01*
X31490235Y44295794D01*
X31593009Y44250415D01*
X31618135Y44247500D01*
X33231864Y44247501D01*
X33256991Y44250415D01*
X33359765Y44295794D01*
X33439206Y44375235D01*
X33484585Y44478009D01*
X33487500Y44503135D01*
X33487500Y44503140D01*
X33902500Y44503140D01*
X33902501Y44503137D01*
X33905414Y44478010D01*
X33930756Y44420615D01*
X33950794Y44375235D01*
X34030235Y44295794D01*
X34133009Y44250415D01*
X34158135Y44247500D01*
X35771864Y44247501D01*
X35796991Y44250415D01*
X35899765Y44295794D01*
X35979206Y44375235D01*
X36024585Y44478009D01*
X36027500Y44503135D01*
X36027500Y44503140D01*
X36442500Y44503140D01*
X36442501Y44503137D01*
X36445414Y44478010D01*
X36470756Y44420615D01*
X36490794Y44375235D01*
X36570235Y44295794D01*
X36673009Y44250415D01*
X36698135Y44247500D01*
X38311864Y44247501D01*
X38336991Y44250415D01*
X38439765Y44295794D01*
X38519206Y44375235D01*
X38564585Y44478009D01*
X38567500Y44503135D01*
X38567500Y44503140D01*
X38982500Y44503140D01*
X38982501Y44503137D01*
X38985414Y44478010D01*
X39010756Y44420615D01*
X39030794Y44375235D01*
X39110235Y44295794D01*
X39213009Y44250415D01*
X39238135Y44247500D01*
X40851864Y44247501D01*
X40876991Y44250415D01*
X40979765Y44295794D01*
X41059206Y44375235D01*
X41104585Y44478009D01*
X41107500Y44503135D01*
X41107500Y44503140D01*
X41522500Y44503140D01*
X41522501Y44503137D01*
X41525414Y44478010D01*
X41550756Y44420615D01*
X41570794Y44375235D01*
X41650235Y44295794D01*
X41753009Y44250415D01*
X41778135Y44247500D01*
X43391864Y44247501D01*
X43416991Y44250415D01*
X43519765Y44295794D01*
X43599206Y44375235D01*
X43644585Y44478009D01*
X43647500Y44503135D01*
X43647500Y44523376D01*
X44113000Y44523376D01*
X44127506Y44450454D01*
X44127507Y44450452D01*
X44182758Y44367763D01*
X44182762Y44367759D01*
X44265451Y44312508D01*
X44265453Y44312507D01*
X44338375Y44298001D01*
X44338377Y44298000D01*
X44924999Y44298000D01*
X44925000Y44298001D01*
X44925000Y44908378D01*
X44929960Y44904996D01*
X45058002Y44865500D01*
X45158312Y44865500D01*
X45257499Y44880450D01*
X45325000Y44912957D01*
X45325000Y44298001D01*
X45325001Y44298000D01*
X45911623Y44298000D01*
X45911624Y44298001D01*
X45984546Y44312507D01*
X45984548Y44312508D01*
X46067237Y44367759D01*
X46067241Y44367763D01*
X46110924Y44433140D01*
X48897500Y44433140D01*
X48897501Y44433137D01*
X48900414Y44408010D01*
X48918185Y44367763D01*
X48945794Y44305235D01*
X49025235Y44225794D01*
X49128009Y44180415D01*
X49153135Y44177500D01*
X50766864Y44177501D01*
X50791991Y44180415D01*
X50894765Y44225794D01*
X50974206Y44305235D01*
X51019585Y44408009D01*
X51022500Y44433135D01*
X51022500Y44433140D01*
X51437500Y44433140D01*
X51437501Y44433137D01*
X51440414Y44408010D01*
X51458185Y44367763D01*
X51485794Y44305235D01*
X51565235Y44225794D01*
X51668009Y44180415D01*
X51693135Y44177500D01*
X53306864Y44177501D01*
X53331991Y44180415D01*
X53434765Y44225794D01*
X53514206Y44305235D01*
X53559585Y44408009D01*
X53562500Y44433135D01*
X53562499Y46046864D01*
X53559585Y46071991D01*
X53514206Y46174765D01*
X53434765Y46254206D01*
X53331991Y46299585D01*
X53331990Y46299586D01*
X53331988Y46299586D01*
X53306868Y46302500D01*
X51693139Y46302500D01*
X51693136Y46302499D01*
X51668009Y46299586D01*
X51565235Y46254206D01*
X51485794Y46174765D01*
X51440414Y46071989D01*
X51437500Y46046870D01*
X51437500Y44433140D01*
X51022500Y44433140D01*
X51022499Y46046864D01*
X51019585Y46071991D01*
X50974206Y46174765D01*
X50894765Y46254206D01*
X50791991Y46299585D01*
X50791990Y46299586D01*
X50791988Y46299586D01*
X50766868Y46302500D01*
X49153139Y46302500D01*
X49153136Y46302499D01*
X49128009Y46299586D01*
X49025235Y46254206D01*
X48945794Y46174765D01*
X48900414Y46071989D01*
X48897500Y46046870D01*
X48897500Y44433140D01*
X46110924Y44433140D01*
X46122492Y44450452D01*
X46122493Y44450454D01*
X46136999Y44523376D01*
X46137000Y44523378D01*
X46137000Y45109999D01*
X46136999Y45110000D01*
X45522794Y45110000D01*
X45543447Y45145772D01*
X45573264Y45276407D01*
X45563251Y45410028D01*
X45524015Y45510000D01*
X46136999Y45510000D01*
X46137000Y45510001D01*
X46137000Y46096623D01*
X46136999Y46096625D01*
X46122493Y46169547D01*
X46122492Y46169549D01*
X46067241Y46252238D01*
X46067237Y46252242D01*
X45984548Y46307493D01*
X45984546Y46307494D01*
X45911624Y46322000D01*
X45325001Y46322000D01*
X45325000Y46321999D01*
X45325000Y45711623D01*
X45320040Y45715004D01*
X45191998Y45754500D01*
X45091688Y45754500D01*
X44992501Y45739550D01*
X44925000Y45707044D01*
X44925000Y46321999D01*
X44924999Y46322000D01*
X44338375Y46322000D01*
X44265453Y46307494D01*
X44265451Y46307493D01*
X44182762Y46252242D01*
X44182758Y46252238D01*
X44127507Y46169549D01*
X44127506Y46169547D01*
X44113000Y46096625D01*
X44113000Y45510001D01*
X44113001Y45510000D01*
X44727206Y45510000D01*
X44706553Y45474228D01*
X44676736Y45343593D01*
X44686749Y45209972D01*
X44725985Y45110000D01*
X44113001Y45110000D01*
X44113000Y45109999D01*
X44113000Y44523376D01*
X43647500Y44523376D01*
X43647499Y46116864D01*
X43644585Y46141991D01*
X43599206Y46244765D01*
X43519765Y46324206D01*
X43416991Y46369585D01*
X43416990Y46369586D01*
X43416988Y46369586D01*
X43391868Y46372500D01*
X41778139Y46372500D01*
X41778136Y46372499D01*
X41753009Y46369586D01*
X41650235Y46324206D01*
X41570794Y46244765D01*
X41525414Y46141989D01*
X41522500Y46116870D01*
X41522500Y44503140D01*
X41107500Y44503140D01*
X41107499Y46116864D01*
X41104585Y46141991D01*
X41059206Y46244765D01*
X40979765Y46324206D01*
X40876991Y46369585D01*
X40876990Y46369586D01*
X40876988Y46369586D01*
X40851868Y46372500D01*
X39238139Y46372500D01*
X39238136Y46372499D01*
X39213009Y46369586D01*
X39110235Y46324206D01*
X39030794Y46244765D01*
X38985414Y46141989D01*
X38982500Y46116870D01*
X38982500Y44503140D01*
X38567500Y44503140D01*
X38567499Y46116864D01*
X38564585Y46141991D01*
X38519206Y46244765D01*
X38439765Y46324206D01*
X38336991Y46369585D01*
X38336990Y46369586D01*
X38336988Y46369586D01*
X38311868Y46372500D01*
X36698139Y46372500D01*
X36698136Y46372499D01*
X36673009Y46369586D01*
X36570235Y46324206D01*
X36490794Y46244765D01*
X36445414Y46141989D01*
X36442500Y46116870D01*
X36442500Y44503140D01*
X36027500Y44503140D01*
X36027499Y46116864D01*
X36024585Y46141991D01*
X35979206Y46244765D01*
X35899765Y46324206D01*
X35796991Y46369585D01*
X35796990Y46369586D01*
X35796988Y46369586D01*
X35771868Y46372500D01*
X34158139Y46372500D01*
X34158136Y46372499D01*
X34133009Y46369586D01*
X34030235Y46324206D01*
X33950794Y46244765D01*
X33905414Y46141989D01*
X33902500Y46116870D01*
X33902500Y44503140D01*
X33487500Y44503140D01*
X33487499Y46116864D01*
X33484585Y46141991D01*
X33439206Y46244765D01*
X33359765Y46324206D01*
X33256991Y46369585D01*
X33256990Y46369586D01*
X33256988Y46369586D01*
X33231868Y46372500D01*
X31618139Y46372500D01*
X31618136Y46372499D01*
X31593009Y46369586D01*
X31490235Y46324206D01*
X31410794Y46244765D01*
X31365414Y46141989D01*
X31362500Y46116870D01*
X31362500Y44503140D01*
X30947500Y44503140D01*
X30947499Y46116864D01*
X30944585Y46141991D01*
X30899206Y46244765D01*
X30819765Y46324206D01*
X30716991Y46369585D01*
X30716990Y46369586D01*
X30716988Y46369586D01*
X30691868Y46372500D01*
X29078139Y46372500D01*
X29078136Y46372499D01*
X29053009Y46369586D01*
X28950235Y46324206D01*
X28870794Y46244765D01*
X28825414Y46141989D01*
X28822500Y46116870D01*
X28822500Y44503140D01*
X28407500Y44503140D01*
X28407499Y46116864D01*
X28404585Y46141991D01*
X28359206Y46244765D01*
X28279765Y46324206D01*
X28176991Y46369585D01*
X28176990Y46369586D01*
X28176988Y46369586D01*
X28151869Y46372500D01*
X28151865Y46372500D01*
X26704500Y46372500D01*
X26646309Y46391407D01*
X26610345Y46440907D01*
X26605500Y46471500D01*
X26605500Y46688501D01*
X26624407Y46746692D01*
X26673907Y46782656D01*
X26704500Y46787501D01*
X28151861Y46787501D01*
X28151864Y46787501D01*
X28176991Y46790415D01*
X28279765Y46835794D01*
X28359206Y46915235D01*
X28404585Y47018009D01*
X28407500Y47043135D01*
X28407500Y47043140D01*
X28822500Y47043140D01*
X28822501Y47043137D01*
X28825414Y47018010D01*
X28850756Y46960615D01*
X28870794Y46915235D01*
X28950235Y46835794D01*
X29053009Y46790415D01*
X29078135Y46787500D01*
X30691864Y46787501D01*
X30716991Y46790415D01*
X30819765Y46835794D01*
X30899206Y46915235D01*
X30944585Y47018009D01*
X30947500Y47043135D01*
X30947500Y47043140D01*
X31362500Y47043140D01*
X31362501Y47043137D01*
X31365414Y47018010D01*
X31390756Y46960615D01*
X31410794Y46915235D01*
X31490235Y46835794D01*
X31593009Y46790415D01*
X31618135Y46787500D01*
X33231864Y46787501D01*
X33256991Y46790415D01*
X33359765Y46835794D01*
X33439206Y46915235D01*
X33484585Y47018009D01*
X33487500Y47043135D01*
X33487500Y47043140D01*
X33902500Y47043140D01*
X33902501Y47043137D01*
X33905414Y47018010D01*
X33930756Y46960615D01*
X33950794Y46915235D01*
X34030235Y46835794D01*
X34133009Y46790415D01*
X34158135Y46787500D01*
X35771864Y46787501D01*
X35796991Y46790415D01*
X35899765Y46835794D01*
X35979206Y46915235D01*
X36024585Y47018009D01*
X36027500Y47043135D01*
X36027500Y47043140D01*
X36442500Y47043140D01*
X36442501Y47043137D01*
X36445414Y47018010D01*
X36470756Y46960615D01*
X36490794Y46915235D01*
X36570235Y46835794D01*
X36673009Y46790415D01*
X36698135Y46787500D01*
X38311864Y46787501D01*
X38336991Y46790415D01*
X38439765Y46835794D01*
X38519206Y46915235D01*
X38564585Y47018009D01*
X38567500Y47043135D01*
X38567500Y47043140D01*
X38982500Y47043140D01*
X38982501Y47043137D01*
X38985414Y47018010D01*
X39010756Y46960615D01*
X39030794Y46915235D01*
X39110235Y46835794D01*
X39213009Y46790415D01*
X39238135Y46787500D01*
X40851864Y46787501D01*
X40876991Y46790415D01*
X40979765Y46835794D01*
X41059206Y46915235D01*
X41104585Y47018009D01*
X41107500Y47043135D01*
X41107500Y47043140D01*
X41522500Y47043140D01*
X41522501Y47043137D01*
X41525414Y47018010D01*
X41550756Y46960615D01*
X41570794Y46915235D01*
X41650235Y46835794D01*
X41753009Y46790415D01*
X41778135Y46787500D01*
X43391864Y46787501D01*
X43416991Y46790415D01*
X43519765Y46835794D01*
X43599206Y46915235D01*
X43644585Y47018009D01*
X43647500Y47043135D01*
X43647500Y47063376D01*
X44113000Y47063376D01*
X44127506Y46990454D01*
X44127507Y46990452D01*
X44182758Y46907763D01*
X44182762Y46907759D01*
X44265451Y46852508D01*
X44265453Y46852507D01*
X44338375Y46838001D01*
X44338377Y46838000D01*
X44924999Y46838000D01*
X44925000Y46838001D01*
X44925000Y47448378D01*
X44929960Y47444996D01*
X45058002Y47405500D01*
X45158312Y47405500D01*
X45257499Y47420450D01*
X45325000Y47452957D01*
X45325000Y46838001D01*
X45325001Y46838000D01*
X45911623Y46838000D01*
X45911624Y46838001D01*
X45984546Y46852507D01*
X45984548Y46852508D01*
X46067237Y46907759D01*
X46067241Y46907763D01*
X46122492Y46990452D01*
X46122493Y46990454D01*
X46136999Y47063376D01*
X46137000Y47063378D01*
X46137000Y47649999D01*
X46136999Y47650000D01*
X45522794Y47650000D01*
X45543447Y47685772D01*
X45573264Y47816407D01*
X45563251Y47950028D01*
X45524015Y48050000D01*
X46136999Y48050000D01*
X46137000Y48050001D01*
X46137000Y48636623D01*
X46136999Y48636625D01*
X46122493Y48709547D01*
X46122492Y48709549D01*
X46067241Y48792238D01*
X46067237Y48792242D01*
X45984548Y48847493D01*
X45984546Y48847494D01*
X45911624Y48862000D01*
X45325001Y48862000D01*
X45325000Y48861999D01*
X45325000Y48251623D01*
X45320040Y48255004D01*
X45191998Y48294500D01*
X45091688Y48294500D01*
X44992501Y48279550D01*
X44925000Y48247044D01*
X44925000Y48861999D01*
X44924999Y48862000D01*
X44338375Y48862000D01*
X44265453Y48847494D01*
X44265451Y48847493D01*
X44182762Y48792242D01*
X44182758Y48792238D01*
X44127507Y48709549D01*
X44127506Y48709547D01*
X44113000Y48636625D01*
X44113000Y48050001D01*
X44113001Y48050000D01*
X44727206Y48050000D01*
X44706553Y48014228D01*
X44676736Y47883593D01*
X44686749Y47749972D01*
X44725985Y47650000D01*
X44113001Y47650000D01*
X44113000Y47649999D01*
X44113000Y47063376D01*
X43647500Y47063376D01*
X43647499Y48656864D01*
X43644585Y48681991D01*
X43599206Y48784765D01*
X43519765Y48864206D01*
X43416991Y48909585D01*
X43416990Y48909586D01*
X43416988Y48909586D01*
X43391868Y48912500D01*
X41778139Y48912500D01*
X41778136Y48912499D01*
X41753009Y48909586D01*
X41650235Y48864206D01*
X41570794Y48784765D01*
X41525414Y48681989D01*
X41522500Y48656870D01*
X41522500Y47043140D01*
X41107500Y47043140D01*
X41107499Y48656864D01*
X41104585Y48681991D01*
X41059206Y48784765D01*
X40979765Y48864206D01*
X40876991Y48909585D01*
X40876990Y48909586D01*
X40876988Y48909586D01*
X40851868Y48912500D01*
X39238139Y48912500D01*
X39238136Y48912499D01*
X39213009Y48909586D01*
X39110235Y48864206D01*
X39030794Y48784765D01*
X38985414Y48681989D01*
X38982500Y48656870D01*
X38982500Y47043140D01*
X38567500Y47043140D01*
X38567499Y48656864D01*
X38564585Y48681991D01*
X38519206Y48784765D01*
X38439765Y48864206D01*
X38336991Y48909585D01*
X38336990Y48909586D01*
X38336988Y48909586D01*
X38311868Y48912500D01*
X36698139Y48912500D01*
X36698136Y48912499D01*
X36673009Y48909586D01*
X36570235Y48864206D01*
X36490794Y48784765D01*
X36445414Y48681989D01*
X36442500Y48656870D01*
X36442500Y47043140D01*
X36027500Y47043140D01*
X36027499Y48656864D01*
X36024585Y48681991D01*
X35979206Y48784765D01*
X35899765Y48864206D01*
X35796991Y48909585D01*
X35796990Y48909586D01*
X35796988Y48909586D01*
X35771868Y48912500D01*
X34158139Y48912500D01*
X34158136Y48912499D01*
X34133009Y48909586D01*
X34030235Y48864206D01*
X33950794Y48784765D01*
X33905414Y48681989D01*
X33902500Y48656870D01*
X33902500Y47043140D01*
X33487500Y47043140D01*
X33487499Y48656864D01*
X33484585Y48681991D01*
X33439206Y48784765D01*
X33359765Y48864206D01*
X33256991Y48909585D01*
X33256990Y48909586D01*
X33256988Y48909586D01*
X33231868Y48912500D01*
X31618139Y48912500D01*
X31618136Y48912499D01*
X31593009Y48909586D01*
X31490235Y48864206D01*
X31410794Y48784765D01*
X31365414Y48681989D01*
X31362500Y48656870D01*
X31362500Y47043140D01*
X30947500Y47043140D01*
X30947499Y48656864D01*
X30944585Y48681991D01*
X30899206Y48784765D01*
X30819765Y48864206D01*
X30716991Y48909585D01*
X30716990Y48909586D01*
X30716988Y48909586D01*
X30691868Y48912500D01*
X29078139Y48912500D01*
X29078136Y48912499D01*
X29053009Y48909586D01*
X28950235Y48864206D01*
X28870794Y48784765D01*
X28825414Y48681989D01*
X28822500Y48656870D01*
X28822500Y47043140D01*
X28407500Y47043140D01*
X28407499Y48656864D01*
X28404585Y48681991D01*
X28359206Y48784765D01*
X28279765Y48864206D01*
X28176991Y48909585D01*
X28176990Y48909586D01*
X28176988Y48909586D01*
X28151869Y48912500D01*
X28151865Y48912500D01*
X26704500Y48912500D01*
X26646309Y48931407D01*
X26610345Y48980907D01*
X26605500Y49011500D01*
X26605500Y49588501D01*
X26624407Y49646692D01*
X26673907Y49682656D01*
X26704500Y49687501D01*
X26961861Y49687501D01*
X26961864Y49687501D01*
X26986991Y49690415D01*
X27089765Y49735794D01*
X27169206Y49815235D01*
X27214585Y49918009D01*
X27217500Y49943135D01*
X27217500Y49943140D01*
X27632500Y49943140D01*
X27632501Y49943137D01*
X27635414Y49918010D01*
X27660756Y49860615D01*
X27680794Y49815235D01*
X27760235Y49735794D01*
X27863009Y49690415D01*
X27888135Y49687500D01*
X29501864Y49687501D01*
X29526991Y49690415D01*
X29629765Y49735794D01*
X29709206Y49815235D01*
X29754585Y49918009D01*
X29757500Y49943135D01*
X29757500Y49963376D01*
X30223000Y49963376D01*
X30237506Y49890454D01*
X30237507Y49890452D01*
X30292758Y49807763D01*
X30292762Y49807759D01*
X30375451Y49752508D01*
X30375453Y49752507D01*
X30448375Y49738001D01*
X30448377Y49738000D01*
X31034999Y49738000D01*
X31035000Y49738001D01*
X31035000Y50348378D01*
X31039960Y50344996D01*
X31168002Y50305500D01*
X31268312Y50305500D01*
X31367499Y50320450D01*
X31435000Y50352957D01*
X31435000Y49738001D01*
X31435001Y49738000D01*
X32021623Y49738000D01*
X32021624Y49738001D01*
X32094546Y49752507D01*
X32094548Y49752508D01*
X32177237Y49807759D01*
X32177241Y49807763D01*
X32232492Y49890452D01*
X32232493Y49890454D01*
X32246999Y49963376D01*
X32247000Y49963378D01*
X32247000Y50549999D01*
X32246999Y50550000D01*
X31632794Y50550000D01*
X31653447Y50585772D01*
X31683264Y50716407D01*
X31677000Y50800000D01*
X47344933Y50800000D01*
X47365186Y50426444D01*
X47425712Y50057257D01*
X47525790Y49696806D01*
X47525794Y49696795D01*
X47664264Y49349259D01*
X47839505Y49018722D01*
X48049443Y48709087D01*
X48049450Y48709077D01*
X48222501Y48505347D01*
X49534837Y49817684D01*
X49665130Y49665130D01*
X49817680Y49534840D01*
X48504838Y48221997D01*
X48563238Y48166678D01*
X48861056Y47940283D01*
X48861061Y47940280D01*
X49181619Y47747407D01*
X49181625Y47747404D01*
X49521142Y47590326D01*
X49875680Y47470868D01*
X50241027Y47390449D01*
X50241026Y47390449D01*
X50612945Y47350000D01*
X50987055Y47350000D01*
X51358973Y47390449D01*
X51724318Y47470868D01*
X51724320Y47470868D01*
X52078857Y47590326D01*
X52418374Y47747404D01*
X52418380Y47747407D01*
X52738938Y47940280D01*
X52738943Y47940283D01*
X53036761Y48166679D01*
X53095160Y48221997D01*
X51782318Y49534839D01*
X51934870Y49665130D01*
X52065161Y49817682D01*
X53377496Y48505347D01*
X53550556Y48709087D01*
X53760494Y49018722D01*
X53935735Y49349259D01*
X54074205Y49696795D01*
X54074209Y49696806D01*
X54174287Y50057257D01*
X54234813Y50426444D01*
X54255066Y50800000D01*
X54234813Y51173557D01*
X54174287Y51542744D01*
X54074209Y51903195D01*
X54074205Y51903206D01*
X53935735Y52250742D01*
X53760494Y52581279D01*
X53550556Y52890914D01*
X53550549Y52890924D01*
X53377496Y53094656D01*
X52065159Y51782320D01*
X51934870Y51934870D01*
X51782316Y52065162D01*
X53095160Y53378005D01*
X53036761Y53433323D01*
X52738943Y53659718D01*
X52738938Y53659721D01*
X52418380Y53852594D01*
X52418374Y53852597D01*
X52078857Y54009675D01*
X51724319Y54129133D01*
X51358972Y54209552D01*
X51358973Y54209552D01*
X50987055Y54250000D01*
X50612945Y54250000D01*
X50241026Y54209552D01*
X49875681Y54129133D01*
X49875679Y54129133D01*
X49521142Y54009675D01*
X49181625Y53852597D01*
X49181619Y53852594D01*
X48861061Y53659721D01*
X48861056Y53659718D01*
X48563234Y53433319D01*
X48563231Y53433317D01*
X48504838Y53378005D01*
X49817681Y52065162D01*
X49665130Y51934870D01*
X49534838Y51782319D01*
X48222501Y53094656D01*
X48049450Y52890924D01*
X48049443Y52890914D01*
X47839505Y52581279D01*
X47664264Y52250742D01*
X47525794Y51903206D01*
X47525790Y51903195D01*
X47425712Y51542744D01*
X47365186Y51173557D01*
X47344933Y50800000D01*
X31677000Y50800000D01*
X31673251Y50850028D01*
X31634015Y50950000D01*
X32246999Y50950000D01*
X32247000Y50950001D01*
X32247000Y51536623D01*
X32246999Y51536625D01*
X32232493Y51609547D01*
X32232492Y51609549D01*
X32177241Y51692238D01*
X32177237Y51692242D01*
X32094548Y51747493D01*
X32094546Y51747494D01*
X32021624Y51762000D01*
X31435001Y51762000D01*
X31435000Y51761999D01*
X31435000Y51151623D01*
X31430040Y51155004D01*
X31301998Y51194500D01*
X31201688Y51194500D01*
X31102501Y51179550D01*
X31035000Y51147044D01*
X31035000Y51761999D01*
X31034999Y51762000D01*
X30448375Y51762000D01*
X30375453Y51747494D01*
X30375451Y51747493D01*
X30292762Y51692242D01*
X30292758Y51692238D01*
X30237507Y51609549D01*
X30237506Y51609547D01*
X30223000Y51536625D01*
X30223000Y50950001D01*
X30223001Y50950000D01*
X30837206Y50950000D01*
X30816553Y50914228D01*
X30786736Y50783593D01*
X30796749Y50649972D01*
X30835985Y50550000D01*
X30223001Y50550000D01*
X30223000Y50549999D01*
X30223000Y49963376D01*
X29757500Y49963376D01*
X29757499Y51556864D01*
X29754585Y51581991D01*
X29709206Y51684765D01*
X29629765Y51764206D01*
X29526991Y51809585D01*
X29526990Y51809586D01*
X29526988Y51809586D01*
X29501868Y51812500D01*
X27888139Y51812500D01*
X27888136Y51812499D01*
X27863009Y51809586D01*
X27760235Y51764206D01*
X27680794Y51684765D01*
X27635414Y51581989D01*
X27632500Y51556870D01*
X27632500Y49943140D01*
X27217500Y49943140D01*
X27217499Y51556864D01*
X27214585Y51581991D01*
X27169206Y51684765D01*
X27089765Y51764206D01*
X26986991Y51809585D01*
X26986990Y51809586D01*
X26986988Y51809586D01*
X26961869Y51812500D01*
X26961865Y51812500D01*
X26704500Y51812500D01*
X26646309Y51831407D01*
X26610345Y51880907D01*
X26605500Y51911500D01*
X26605500Y52128501D01*
X26624407Y52186692D01*
X26673907Y52222656D01*
X26704500Y52227501D01*
X26961861Y52227501D01*
X26961864Y52227501D01*
X26986991Y52230415D01*
X27089765Y52275794D01*
X27169206Y52355235D01*
X27214585Y52458009D01*
X27217500Y52483135D01*
X27217500Y52483140D01*
X27632500Y52483140D01*
X27632501Y52483137D01*
X27635414Y52458010D01*
X27660756Y52400615D01*
X27680794Y52355235D01*
X27760235Y52275794D01*
X27863009Y52230415D01*
X27888135Y52227500D01*
X29501864Y52227501D01*
X29526991Y52230415D01*
X29629765Y52275794D01*
X29709206Y52355235D01*
X29754585Y52458009D01*
X29757500Y52483135D01*
X29757500Y52503376D01*
X30223000Y52503376D01*
X30237506Y52430454D01*
X30237507Y52430452D01*
X30292758Y52347763D01*
X30292762Y52347759D01*
X30375451Y52292508D01*
X30375453Y52292507D01*
X30448375Y52278001D01*
X30448377Y52278000D01*
X31034999Y52278000D01*
X31035000Y52278001D01*
X31035000Y52888378D01*
X31039960Y52884996D01*
X31168002Y52845500D01*
X31268312Y52845500D01*
X31367499Y52860450D01*
X31435000Y52892957D01*
X31435000Y52278001D01*
X31435001Y52278000D01*
X32021623Y52278000D01*
X32021624Y52278001D01*
X32094546Y52292507D01*
X32094548Y52292508D01*
X32177237Y52347759D01*
X32177241Y52347763D01*
X32232492Y52430452D01*
X32232493Y52430454D01*
X32246999Y52503376D01*
X32247000Y52503378D01*
X32247000Y53089999D01*
X32246999Y53090000D01*
X31632794Y53090000D01*
X31653447Y53125772D01*
X31683264Y53256407D01*
X31673251Y53390028D01*
X31634015Y53490000D01*
X32246999Y53490000D01*
X32247000Y53490001D01*
X32247000Y54076623D01*
X32246999Y54076625D01*
X32232493Y54149547D01*
X32232492Y54149549D01*
X32177241Y54232238D01*
X32177237Y54232242D01*
X32094548Y54287493D01*
X32094546Y54287494D01*
X32021624Y54302000D01*
X31435001Y54302000D01*
X31435000Y54301999D01*
X31435000Y53691623D01*
X31430040Y53695004D01*
X31301998Y53734500D01*
X31201688Y53734500D01*
X31102501Y53719550D01*
X31035000Y53687044D01*
X31035000Y54301999D01*
X31034999Y54302000D01*
X30448375Y54302000D01*
X30375453Y54287494D01*
X30375451Y54287493D01*
X30292762Y54232242D01*
X30292758Y54232238D01*
X30237507Y54149549D01*
X30237506Y54149547D01*
X30223000Y54076625D01*
X30223000Y53490001D01*
X30223001Y53490000D01*
X30837206Y53490000D01*
X30816553Y53454228D01*
X30786736Y53323593D01*
X30796749Y53189972D01*
X30835985Y53090000D01*
X30223001Y53090000D01*
X30223000Y53089999D01*
X30223000Y52503376D01*
X29757500Y52503376D01*
X29757499Y54096864D01*
X29754585Y54121991D01*
X29709206Y54224765D01*
X29629765Y54304206D01*
X29526991Y54349585D01*
X29526990Y54349586D01*
X29526988Y54349586D01*
X29501868Y54352500D01*
X27888139Y54352500D01*
X27888136Y54352499D01*
X27863009Y54349586D01*
X27760235Y54304206D01*
X27680794Y54224765D01*
X27635414Y54121989D01*
X27632500Y54096870D01*
X27632500Y52483140D01*
X27217500Y52483140D01*
X27217499Y54096864D01*
X27214585Y54121991D01*
X27169206Y54224765D01*
X27089765Y54304206D01*
X26986991Y54349585D01*
X26986990Y54349586D01*
X26986988Y54349586D01*
X26961868Y54352500D01*
X25348139Y54352500D01*
X25348136Y54352499D01*
X25323009Y54349586D01*
X25220235Y54304206D01*
X25140794Y54224765D01*
X25095414Y54121989D01*
X25092500Y54096870D01*
X25092500Y52483140D01*
X25092501Y52483137D01*
X25095414Y52458010D01*
X25120756Y52400615D01*
X25140794Y52355235D01*
X25220235Y52275794D01*
X25323009Y52230415D01*
X25348135Y52227500D01*
X25605500Y52227501D01*
X25663690Y52208594D01*
X25699654Y52159094D01*
X25704500Y52128501D01*
X25704500Y51911500D01*
X25685593Y51853309D01*
X25636093Y51817345D01*
X25605500Y51812500D01*
X25348140Y51812500D01*
X25348135Y51812499D01*
X25323009Y51809586D01*
X25220235Y51764206D01*
X25140794Y51684765D01*
X25095414Y51581989D01*
X25092500Y51556870D01*
X25092500Y49943140D01*
X25092501Y49943137D01*
X25095414Y49918010D01*
X25120756Y49860615D01*
X25140794Y49815235D01*
X25220235Y49735794D01*
X25323009Y49690415D01*
X25348135Y49687500D01*
X25605500Y49687501D01*
X25663690Y49668594D01*
X25699654Y49619094D01*
X25704500Y49588501D01*
X25704500Y49011500D01*
X25685593Y48953309D01*
X25636093Y48917345D01*
X25605500Y48912500D01*
X23998139Y48912500D01*
X23998136Y48912499D01*
X23973009Y48909586D01*
X23870235Y48864206D01*
X23790794Y48784765D01*
X23745414Y48681989D01*
X23742500Y48656870D01*
X23742500Y47043140D01*
X23742501Y47043137D01*
X23745414Y47018010D01*
X23770756Y46960615D01*
X23790794Y46915235D01*
X23870235Y46835794D01*
X23973009Y46790415D01*
X23998135Y46787500D01*
X25605500Y46787501D01*
X25663691Y46768594D01*
X25699655Y46719094D01*
X25704500Y46688501D01*
X25704500Y46471500D01*
X25685593Y46413309D01*
X25636093Y46377345D01*
X25605500Y46372500D01*
X23998139Y46372500D01*
X23998136Y46372499D01*
X23973009Y46369586D01*
X23870235Y46324206D01*
X23790794Y46244765D01*
X23745414Y46141989D01*
X23742500Y46116870D01*
X23742500Y44503140D01*
X23327500Y44503140D01*
X23327499Y46116864D01*
X23324585Y46141991D01*
X23279206Y46244765D01*
X23199765Y46324206D01*
X23096991Y46369585D01*
X23096990Y46369586D01*
X23096988Y46369586D01*
X23071868Y46372500D01*
X21458139Y46372500D01*
X21458136Y46372499D01*
X21433009Y46369586D01*
X21330235Y46324206D01*
X21250794Y46244765D01*
X21205414Y46141989D01*
X21202500Y46116870D01*
X21202500Y44503140D01*
X20787500Y44503140D01*
X20787499Y46116864D01*
X20784585Y46141991D01*
X20739206Y46244765D01*
X20659765Y46324206D01*
X20556991Y46369585D01*
X20556990Y46369586D01*
X20556988Y46369586D01*
X20531868Y46372500D01*
X18918139Y46372500D01*
X18918136Y46372499D01*
X18893009Y46369586D01*
X18790235Y46324206D01*
X18710794Y46244765D01*
X18665414Y46141989D01*
X18662500Y46116870D01*
X18662500Y44503140D01*
X18192974Y44503140D01*
X18196999Y44523376D01*
X18197000Y44523378D01*
X18197000Y45109999D01*
X18196999Y45110000D01*
X17582794Y45110000D01*
X17603447Y45145772D01*
X17633264Y45276407D01*
X17623251Y45410028D01*
X17584015Y45510000D01*
X18196999Y45510000D01*
X18197000Y45510001D01*
X18197000Y46096623D01*
X18196999Y46096625D01*
X18182493Y46169547D01*
X18182492Y46169549D01*
X18127241Y46252238D01*
X18127237Y46252242D01*
X18044548Y46307493D01*
X18044546Y46307494D01*
X17971624Y46322000D01*
X17385001Y46322000D01*
X17385000Y46321999D01*
X17385000Y45711623D01*
X17380040Y45715004D01*
X17251998Y45754500D01*
X17151688Y45754500D01*
X17052501Y45739550D01*
X16985000Y45707044D01*
X16985000Y46321999D01*
X16984999Y46322000D01*
X16398375Y46322000D01*
X16325453Y46307494D01*
X16325451Y46307493D01*
X16242762Y46252242D01*
X16242758Y46252238D01*
X16187507Y46169549D01*
X16187506Y46169547D01*
X16173000Y46096625D01*
X16173000Y45510001D01*
X16173001Y45510000D01*
X16787206Y45510000D01*
X16766553Y45474228D01*
X16736736Y45343593D01*
X16746749Y45209972D01*
X16785985Y45110000D01*
X16173001Y45110000D01*
X16173000Y45109999D01*
X16173000Y44523376D01*
X12102500Y44523376D01*
X12102499Y46006864D01*
X12099585Y46031991D01*
X12054206Y46134765D01*
X11974765Y46214206D01*
X11871991Y46259585D01*
X11871990Y46259586D01*
X11871988Y46259586D01*
X11846868Y46262500D01*
X10233139Y46262500D01*
X10233136Y46262499D01*
X10208009Y46259586D01*
X10105235Y46214206D01*
X10025794Y46134765D01*
X9980414Y46031989D01*
X9977500Y46006870D01*
X9977500Y44393140D01*
X9562500Y44393140D01*
X9562499Y46006864D01*
X9559585Y46031991D01*
X9514206Y46134765D01*
X9434765Y46214206D01*
X9331991Y46259585D01*
X9331990Y46259586D01*
X9331988Y46259586D01*
X9306868Y46262500D01*
X7693139Y46262500D01*
X7693136Y46262499D01*
X7668009Y46259586D01*
X7565235Y46214206D01*
X7485794Y46134765D01*
X7440414Y46031989D01*
X7437500Y46006870D01*
X7437500Y44393140D01*
X5834500Y44393140D01*
X5834500Y47063376D01*
X16173000Y47063376D01*
X16187506Y46990454D01*
X16187507Y46990452D01*
X16242758Y46907763D01*
X16242762Y46907759D01*
X16325451Y46852508D01*
X16325453Y46852507D01*
X16398375Y46838001D01*
X16398377Y46838000D01*
X16984999Y46838000D01*
X16985000Y46838001D01*
X16985000Y47448378D01*
X16989960Y47444996D01*
X17118002Y47405500D01*
X17218312Y47405500D01*
X17317499Y47420450D01*
X17385000Y47452957D01*
X17385000Y46838001D01*
X17385001Y46838000D01*
X17971623Y46838000D01*
X17971624Y46838001D01*
X18044546Y46852507D01*
X18044548Y46852508D01*
X18127237Y46907759D01*
X18127241Y46907763D01*
X18182492Y46990452D01*
X18182493Y46990454D01*
X18192974Y47043140D01*
X18662500Y47043140D01*
X18662501Y47043137D01*
X18665414Y47018010D01*
X18690756Y46960615D01*
X18710794Y46915235D01*
X18790235Y46835794D01*
X18893009Y46790415D01*
X18918135Y46787500D01*
X20531864Y46787501D01*
X20556991Y46790415D01*
X20659765Y46835794D01*
X20739206Y46915235D01*
X20784585Y47018009D01*
X20787500Y47043135D01*
X20787500Y47043140D01*
X21202500Y47043140D01*
X21202501Y47043137D01*
X21205414Y47018010D01*
X21230756Y46960615D01*
X21250794Y46915235D01*
X21330235Y46835794D01*
X21433009Y46790415D01*
X21458135Y46787500D01*
X23071864Y46787501D01*
X23096991Y46790415D01*
X23199765Y46835794D01*
X23279206Y46915235D01*
X23324585Y47018009D01*
X23327500Y47043135D01*
X23327499Y48656864D01*
X23324585Y48681991D01*
X23279206Y48784765D01*
X23199765Y48864206D01*
X23096991Y48909585D01*
X23096990Y48909586D01*
X23096988Y48909586D01*
X23071868Y48912500D01*
X21458139Y48912500D01*
X21458136Y48912499D01*
X21433009Y48909586D01*
X21330235Y48864206D01*
X21250794Y48784765D01*
X21205414Y48681989D01*
X21202500Y48656870D01*
X21202500Y47043140D01*
X20787500Y47043140D01*
X20787499Y48656864D01*
X20784585Y48681991D01*
X20739206Y48784765D01*
X20659765Y48864206D01*
X20556991Y48909585D01*
X20556990Y48909586D01*
X20556988Y48909586D01*
X20531868Y48912500D01*
X18918139Y48912500D01*
X18918136Y48912499D01*
X18893009Y48909586D01*
X18790235Y48864206D01*
X18710794Y48784765D01*
X18665414Y48681989D01*
X18662500Y48656870D01*
X18662500Y47043140D01*
X18192974Y47043140D01*
X18196999Y47063376D01*
X18197000Y47063378D01*
X18197000Y47649999D01*
X18196999Y47650000D01*
X17582794Y47650000D01*
X17603447Y47685772D01*
X17633264Y47816407D01*
X17623251Y47950028D01*
X17584015Y48050000D01*
X18196999Y48050000D01*
X18197000Y48050001D01*
X18197000Y48636623D01*
X18196999Y48636625D01*
X18182493Y48709547D01*
X18182492Y48709549D01*
X18127241Y48792238D01*
X18127237Y48792242D01*
X18044548Y48847493D01*
X18044546Y48847494D01*
X17971624Y48862000D01*
X17385001Y48862000D01*
X17385000Y48861999D01*
X17385000Y48251623D01*
X17380040Y48255004D01*
X17251998Y48294500D01*
X17151688Y48294500D01*
X17052501Y48279550D01*
X16985000Y48247044D01*
X16985000Y48861999D01*
X16984999Y48862000D01*
X16398375Y48862000D01*
X16325453Y48847494D01*
X16325451Y48847493D01*
X16242762Y48792242D01*
X16242758Y48792238D01*
X16187507Y48709549D01*
X16187506Y48709547D01*
X16173000Y48636625D01*
X16173000Y48050001D01*
X16173001Y48050000D01*
X16787206Y48050000D01*
X16766553Y48014228D01*
X16736736Y47883593D01*
X16746749Y47749972D01*
X16785985Y47650000D01*
X16173001Y47650000D01*
X16173000Y47649999D01*
X16173000Y47063376D01*
X5834500Y47063376D01*
X5834500Y50800000D01*
X6704933Y50800000D01*
X6725186Y50426444D01*
X6785712Y50057257D01*
X6885790Y49696806D01*
X6885794Y49696795D01*
X7024264Y49349259D01*
X7199505Y49018722D01*
X7409443Y48709087D01*
X7409450Y48709077D01*
X7582501Y48505347D01*
X8894837Y49817684D01*
X9025130Y49665130D01*
X9177680Y49534840D01*
X7864838Y48221997D01*
X7923238Y48166678D01*
X8221056Y47940283D01*
X8221061Y47940280D01*
X8541619Y47747407D01*
X8541625Y47747404D01*
X8881142Y47590326D01*
X9235680Y47470868D01*
X9601027Y47390449D01*
X9601026Y47390449D01*
X9972945Y47350000D01*
X10347055Y47350000D01*
X10718973Y47390449D01*
X11084318Y47470868D01*
X11084320Y47470868D01*
X11438857Y47590326D01*
X11778374Y47747404D01*
X11778380Y47747407D01*
X12098938Y47940280D01*
X12098943Y47940283D01*
X12396761Y48166679D01*
X12455160Y48221997D01*
X11142318Y49534839D01*
X11294870Y49665130D01*
X11425161Y49817682D01*
X12737496Y48505347D01*
X12910556Y48709087D01*
X13120494Y49018722D01*
X13295735Y49349259D01*
X13434205Y49696795D01*
X13434209Y49696806D01*
X13508221Y49963376D01*
X20063000Y49963376D01*
X20077506Y49890454D01*
X20077507Y49890452D01*
X20132758Y49807763D01*
X20132762Y49807759D01*
X20215451Y49752508D01*
X20215453Y49752507D01*
X20288375Y49738001D01*
X20288377Y49738000D01*
X20874999Y49738000D01*
X20875000Y49738001D01*
X20875000Y50348378D01*
X20879960Y50344996D01*
X21008002Y50305500D01*
X21108312Y50305500D01*
X21207499Y50320450D01*
X21275000Y50352957D01*
X21275000Y49738001D01*
X21275001Y49738000D01*
X21861623Y49738000D01*
X21861624Y49738001D01*
X21934546Y49752507D01*
X21934548Y49752508D01*
X22017237Y49807759D01*
X22017241Y49807763D01*
X22072492Y49890452D01*
X22072493Y49890454D01*
X22082974Y49943140D01*
X22552500Y49943140D01*
X22552501Y49943137D01*
X22555414Y49918010D01*
X22580756Y49860615D01*
X22600794Y49815235D01*
X22680235Y49735794D01*
X22783009Y49690415D01*
X22808135Y49687500D01*
X24421864Y49687501D01*
X24446991Y49690415D01*
X24549765Y49735794D01*
X24629206Y49815235D01*
X24674585Y49918009D01*
X24677500Y49943135D01*
X24677499Y51556864D01*
X24674585Y51581991D01*
X24629206Y51684765D01*
X24549765Y51764206D01*
X24446991Y51809585D01*
X24446990Y51809586D01*
X24446988Y51809586D01*
X24421868Y51812500D01*
X22808139Y51812500D01*
X22808136Y51812499D01*
X22783009Y51809586D01*
X22680235Y51764206D01*
X22600794Y51684765D01*
X22555414Y51581989D01*
X22552500Y51556870D01*
X22552500Y49943140D01*
X22082974Y49943140D01*
X22086999Y49963376D01*
X22087000Y49963378D01*
X22087000Y50549999D01*
X22086999Y50550000D01*
X21472794Y50550000D01*
X21493447Y50585772D01*
X21523264Y50716407D01*
X21513251Y50850028D01*
X21474015Y50950000D01*
X22086999Y50950000D01*
X22087000Y50950001D01*
X22087000Y51536623D01*
X22086999Y51536625D01*
X22072493Y51609547D01*
X22072492Y51609549D01*
X22017241Y51692238D01*
X22017237Y51692242D01*
X21934548Y51747493D01*
X21934546Y51747494D01*
X21861624Y51762000D01*
X21275001Y51762000D01*
X21275000Y51761999D01*
X21275000Y51151623D01*
X21270040Y51155004D01*
X21141998Y51194500D01*
X21041688Y51194500D01*
X20942501Y51179550D01*
X20875000Y51147044D01*
X20875000Y51761999D01*
X20874999Y51762000D01*
X20288375Y51762000D01*
X20215453Y51747494D01*
X20215451Y51747493D01*
X20132762Y51692242D01*
X20132758Y51692238D01*
X20077507Y51609549D01*
X20077506Y51609547D01*
X20063000Y51536625D01*
X20063000Y50950001D01*
X20063001Y50950000D01*
X20677206Y50950000D01*
X20656553Y50914228D01*
X20626736Y50783593D01*
X20636749Y50649972D01*
X20675985Y50550000D01*
X20063001Y50550000D01*
X20063000Y50549999D01*
X20063000Y49963376D01*
X13508221Y49963376D01*
X13534287Y50057257D01*
X13594813Y50426444D01*
X13615066Y50800000D01*
X13594813Y51173557D01*
X13534287Y51542744D01*
X13434209Y51903195D01*
X13434205Y51903206D01*
X13295735Y52250742D01*
X13161796Y52503376D01*
X20063000Y52503376D01*
X20077506Y52430454D01*
X20077507Y52430452D01*
X20132758Y52347763D01*
X20132762Y52347759D01*
X20215451Y52292508D01*
X20215453Y52292507D01*
X20288375Y52278001D01*
X20288377Y52278000D01*
X20874999Y52278000D01*
X20875000Y52278001D01*
X20875000Y52888378D01*
X20879960Y52884996D01*
X21008002Y52845500D01*
X21108312Y52845500D01*
X21207499Y52860450D01*
X21275000Y52892957D01*
X21275000Y52278001D01*
X21275001Y52278000D01*
X21861623Y52278000D01*
X21861624Y52278001D01*
X21934546Y52292507D01*
X21934548Y52292508D01*
X22017237Y52347759D01*
X22017241Y52347763D01*
X22072492Y52430452D01*
X22072493Y52430454D01*
X22082974Y52483140D01*
X22552500Y52483140D01*
X22552501Y52483137D01*
X22555414Y52458010D01*
X22580756Y52400615D01*
X22600794Y52355235D01*
X22680235Y52275794D01*
X22783009Y52230415D01*
X22808135Y52227500D01*
X24421864Y52227501D01*
X24446991Y52230415D01*
X24549765Y52275794D01*
X24629206Y52355235D01*
X24674585Y52458009D01*
X24677500Y52483135D01*
X24677499Y54096864D01*
X24674585Y54121991D01*
X24629206Y54224765D01*
X24549765Y54304206D01*
X24446991Y54349585D01*
X24446990Y54349586D01*
X24446988Y54349586D01*
X24421868Y54352500D01*
X22808139Y54352500D01*
X22808136Y54352499D01*
X22783009Y54349586D01*
X22680235Y54304206D01*
X22600794Y54224765D01*
X22555414Y54121989D01*
X22552500Y54096870D01*
X22552500Y52483140D01*
X22082974Y52483140D01*
X22086999Y52503376D01*
X22087000Y52503378D01*
X22087000Y53089999D01*
X22086999Y53090000D01*
X21472794Y53090000D01*
X21493447Y53125772D01*
X21523264Y53256407D01*
X21513251Y53390028D01*
X21474015Y53490000D01*
X22086999Y53490000D01*
X22087000Y53490001D01*
X22087000Y54076623D01*
X22086999Y54076625D01*
X22072493Y54149547D01*
X22072492Y54149549D01*
X22017241Y54232238D01*
X22017237Y54232242D01*
X21934548Y54287493D01*
X21934546Y54287494D01*
X21861624Y54302000D01*
X21275001Y54302000D01*
X21275000Y54301999D01*
X21275000Y53691623D01*
X21270040Y53695004D01*
X21141998Y53734500D01*
X21041688Y53734500D01*
X20942501Y53719550D01*
X20875000Y53687044D01*
X20875000Y54301999D01*
X20874999Y54302000D01*
X20288375Y54302000D01*
X20215453Y54287494D01*
X20215451Y54287493D01*
X20132762Y54232242D01*
X20132758Y54232238D01*
X20077507Y54149549D01*
X20077506Y54149547D01*
X20063000Y54076625D01*
X20063000Y53490001D01*
X20063001Y53490000D01*
X20677206Y53490000D01*
X20656553Y53454228D01*
X20626736Y53323593D01*
X20636749Y53189972D01*
X20675985Y53090000D01*
X20063001Y53090000D01*
X20063000Y53089999D01*
X20063000Y52503376D01*
X13161796Y52503376D01*
X13120494Y52581279D01*
X12910556Y52890914D01*
X12910549Y52890924D01*
X12737496Y53094656D01*
X11425159Y51782320D01*
X11294870Y51934870D01*
X11142316Y52065162D01*
X12455160Y53378005D01*
X12396761Y53433323D01*
X12098943Y53659718D01*
X12098938Y53659721D01*
X11778380Y53852594D01*
X11778374Y53852597D01*
X11438857Y54009675D01*
X11084319Y54129133D01*
X10718972Y54209552D01*
X10718973Y54209552D01*
X10347055Y54250000D01*
X9972945Y54250000D01*
X9601026Y54209552D01*
X9235681Y54129133D01*
X9235679Y54129133D01*
X8881142Y54009675D01*
X8541625Y53852597D01*
X8541619Y53852594D01*
X8221061Y53659721D01*
X8221056Y53659718D01*
X7923234Y53433319D01*
X7923231Y53433317D01*
X7864838Y53378005D01*
X9177681Y52065162D01*
X9025130Y51934870D01*
X8894838Y51782319D01*
X7582501Y53094656D01*
X7409450Y52890924D01*
X7409443Y52890914D01*
X7199505Y52581279D01*
X7024264Y52250742D01*
X6885794Y51903206D01*
X6885790Y51903195D01*
X6785712Y51542744D01*
X6725186Y51173557D01*
X6704933Y50800000D01*
X5834500Y50800000D01*
X5834500Y55026500D01*
X5853407Y55084691D01*
X5902907Y55120655D01*
X5933500Y55125500D01*
X55026500Y55125500D01*
X55084691Y55106593D01*
G37*
%TD.AperFunction*%
%TD*%
M02*
