%TF.GenerationSoftware,KiCad,Pcbnew,7.0.11+1*%
%TF.CreationDate,2024-06-06T22:27:14+00:00*%
%TF.ProjectId,RP2040v01,52503230-3430-4763-9031-2e6b69636164,rev?*%
%TF.SameCoordinates,Original*%
%TF.FileFunction,Soldermask,Bot*%
%TF.FilePolarity,Negative*%
%FSLAX46Y46*%
G04 Gerber Fmt 4.6, Leading zero omitted, Abs format (unit mm)*
G04 Created by KiCad (PCBNEW 7.0.11+1) date 2024-06-06 22:27:14*
%MOMM*%
%LPD*%
G01*
G04 APERTURE LIST*
G04 Aperture macros list*
%AMRoundRect*
0 Rectangle with rounded corners*
0 $1 Rounding radius*
0 $2 $3 $4 $5 $6 $7 $8 $9 X,Y pos of 4 corners*
0 Add a 4 corners polygon primitive as box body*
4,1,4,$2,$3,$4,$5,$6,$7,$8,$9,$2,$3,0*
0 Add four circle primitives for the rounded corners*
1,1,$1+$1,$2,$3*
1,1,$1+$1,$4,$5*
1,1,$1+$1,$6,$7*
1,1,$1+$1,$8,$9*
0 Add four rect primitives between the rounded corners*
20,1,$1+$1,$2,$3,$4,$5,0*
20,1,$1+$1,$4,$5,$6,$7,0*
20,1,$1+$1,$6,$7,$8,$9,0*
20,1,$1+$1,$8,$9,$2,$3,0*%
%AMRotRect*
0 Rectangle, with rotation*
0 The origin of the aperture is its center*
0 $1 length*
0 $2 width*
0 $3 Rotation angle, in degrees counterclockwise*
0 Add horizontal line*
21,1,$1,$2,0,0,$3*%
G04 Aperture macros list end*
%ADD10C,0.800000*%
%ADD11C,6.400000*%
%ADD12R,1.524000X1.524000*%
%ADD13RoundRect,0.250000X-0.159099X0.512652X-0.512652X0.159099X0.159099X-0.512652X0.512652X-0.159099X0*%
%ADD14RoundRect,0.250000X-0.475000X0.250000X-0.475000X-0.250000X0.475000X-0.250000X0.475000X0.250000X0*%
%ADD15RoundRect,0.250000X-0.250000X-0.475000X0.250000X-0.475000X0.250000X0.475000X-0.250000X0.475000X0*%
%ADD16RoundRect,0.375000X0.375000X-0.625000X0.375000X0.625000X-0.375000X0.625000X-0.375000X-0.625000X0*%
%ADD17RoundRect,0.500000X1.400000X-0.500000X1.400000X0.500000X-1.400000X0.500000X-1.400000X-0.500000X0*%
%ADD18RoundRect,0.150000X-0.650000X-0.150000X0.650000X-0.150000X0.650000X0.150000X-0.650000X0.150000X0*%
%ADD19C,0.650000*%
%ADD20R,0.600000X1.150000*%
%ADD21R,0.300000X1.150000*%
%ADD22O,1.000000X2.000000*%
%ADD23O,1.050000X2.100000*%
%ADD24RoundRect,0.250000X0.250000X0.475000X-0.250000X0.475000X-0.250000X-0.475000X0.250000X-0.475000X0*%
%ADD25RoundRect,0.150000X0.150000X-0.587500X0.150000X0.587500X-0.150000X0.587500X-0.150000X-0.587500X0*%
%ADD26RoundRect,0.050000X-0.387500X-0.050000X0.387500X-0.050000X0.387500X0.050000X-0.387500X0.050000X0*%
%ADD27RoundRect,0.050000X-0.050000X-0.387500X0.050000X-0.387500X0.050000X0.387500X-0.050000X0.387500X0*%
%ADD28R,3.200000X3.200000*%
%ADD29RotRect,1.400000X1.200000X225.000000*%
%ADD30RoundRect,0.250000X0.262500X0.450000X-0.262500X0.450000X-0.262500X-0.450000X0.262500X-0.450000X0*%
%ADD31RoundRect,0.250000X0.450000X-0.262500X0.450000X0.262500X-0.450000X0.262500X-0.450000X-0.262500X0*%
%ADD32O,1.900000X2.400000*%
%ADD33RoundRect,0.173334X0.476666X0.576666X-0.476666X0.576666X-0.476666X-0.576666X0.476666X-0.576666X0*%
%ADD34RoundRect,0.173334X-0.476666X-0.576666X0.476666X-0.576666X0.476666X0.576666X-0.476666X0.576666X0*%
%ADD35RoundRect,0.150000X0.512500X0.150000X-0.512500X0.150000X-0.512500X-0.150000X0.512500X-0.150000X0*%
%ADD36RoundRect,0.250000X-0.262500X-0.450000X0.262500X-0.450000X0.262500X0.450000X-0.262500X0.450000X0*%
%ADD37RoundRect,0.250000X0.512652X0.159099X0.159099X0.512652X-0.512652X-0.159099X-0.159099X-0.512652X0*%
%ADD38RoundRect,0.250000X-0.450000X0.262500X-0.450000X-0.262500X0.450000X-0.262500X0.450000X0.262500X0*%
%ADD39RoundRect,0.250000X0.159099X-0.512652X0.512652X-0.159099X-0.159099X0.512652X-0.512652X0.159099X0*%
%ADD40RoundRect,0.250000X-0.512652X-0.159099X-0.159099X-0.512652X0.512652X0.159099X0.159099X0.512652X0*%
%ADD41RoundRect,0.250000X0.475000X-0.250000X0.475000X0.250000X-0.475000X0.250000X-0.475000X-0.250000X0*%
G04 APERTURE END LIST*
D10*
%TO.C,H3*%
X7760000Y10160000D03*
X8462944Y11857056D03*
X8462944Y8462944D03*
X10160000Y12560000D03*
D11*
X10160000Y10160000D03*
D10*
X10160000Y7760000D03*
X11857056Y11857056D03*
X11857056Y8462944D03*
X12560000Y10160000D03*
%TD*%
%TO.C,H4*%
X48400000Y10160000D03*
X49102944Y11857056D03*
X49102944Y8462944D03*
X50800000Y12560000D03*
D11*
X50800000Y10160000D03*
D10*
X50800000Y7760000D03*
X52497056Y11857056D03*
X52497056Y8462944D03*
X53200000Y10160000D03*
%TD*%
D12*
%TO.C,J3*%
X39430000Y12340000D03*
X41970000Y12340000D03*
X39430000Y9800000D03*
X41970000Y9800000D03*
X39430000Y7260000D03*
X41970000Y7260000D03*
%TD*%
%TO.C,J8*%
X31235000Y53290000D03*
X31235000Y50750000D03*
X28695000Y53290000D03*
X28695000Y50750000D03*
X26155000Y53290000D03*
X26155000Y50750000D03*
X23615000Y53290000D03*
X23615000Y50750000D03*
X21075000Y53290000D03*
X21075000Y50750000D03*
%TD*%
%TO.C,J6*%
X49960000Y45240000D03*
X52500000Y45240000D03*
X49960000Y42700000D03*
X52500000Y42700000D03*
X49960000Y40160000D03*
X52500000Y40160000D03*
X49960000Y37620000D03*
X52500000Y37620000D03*
X49960000Y35080000D03*
X52500000Y35080000D03*
X49960000Y32540000D03*
X52500000Y32540000D03*
X49960000Y30000000D03*
X52500000Y30000000D03*
X49960000Y27460000D03*
X52500000Y27460000D03*
X49960000Y24920000D03*
X52500000Y24920000D03*
X49960000Y22380000D03*
X52500000Y22380000D03*
%TD*%
D10*
%TO.C,H2*%
X48400000Y50800000D03*
X49102944Y52497056D03*
X49102944Y49102944D03*
X50800000Y53200000D03*
D11*
X50800000Y50800000D03*
D10*
X50800000Y48400000D03*
X52497056Y52497056D03*
X52497056Y49102944D03*
X53200000Y50800000D03*
%TD*%
D12*
%TO.C,J1*%
X26730000Y12240000D03*
X29270000Y12240000D03*
X26730000Y9700000D03*
X29270000Y9700000D03*
X26730000Y7160000D03*
X29270000Y7160000D03*
%TD*%
%TO.C,J5*%
X11040000Y22340000D03*
X8500000Y22340000D03*
X11040000Y24880000D03*
X8500000Y24880000D03*
X11040000Y27420000D03*
X8500000Y27420000D03*
X11040000Y29960000D03*
X8500000Y29960000D03*
X11040000Y32500000D03*
X8500000Y32500000D03*
X11040000Y35040000D03*
X8500000Y35040000D03*
X11040000Y37580000D03*
X8500000Y37580000D03*
X11040000Y40120000D03*
X8500000Y40120000D03*
X11040000Y42660000D03*
X8500000Y42660000D03*
X11040000Y45200000D03*
X8500000Y45200000D03*
%TD*%
%TO.C,J4*%
X40175000Y39075000D03*
X37635000Y39075000D03*
%TD*%
D10*
%TO.C,H1*%
X7760000Y50800000D03*
X8462944Y52497056D03*
X8462944Y49102944D03*
X10160000Y53200000D03*
D11*
X10160000Y50800000D03*
D10*
X10160000Y48400000D03*
X11857056Y52497056D03*
X11857056Y49102944D03*
X12560000Y50800000D03*
%TD*%
D12*
%TO.C,J7*%
X17185000Y45310000D03*
X17185000Y47850000D03*
X19725000Y45310000D03*
X19725000Y47850000D03*
X22265000Y45310000D03*
X22265000Y47850000D03*
X24805000Y45310000D03*
X24805000Y47850000D03*
X27345000Y45310000D03*
X27345000Y47850000D03*
X29885000Y45310000D03*
X29885000Y47850000D03*
X32425000Y45310000D03*
X32425000Y47850000D03*
X34965000Y45310000D03*
X34965000Y47850000D03*
X37505000Y45310000D03*
X37505000Y47850000D03*
X40045000Y45310000D03*
X40045000Y47850000D03*
X42585000Y45310000D03*
X42585000Y47850000D03*
X45125000Y45310000D03*
X45125000Y47850000D03*
%TD*%
D13*
%TO.C,C8*%
X34596751Y38521751D03*
X33253249Y37178249D03*
%TD*%
D14*
%TO.C,C6*%
X30000000Y19150000D03*
X30000000Y17250000D03*
%TD*%
D15*
%TO.C,C3*%
X23700000Y24100000D03*
X25600000Y24100000D03*
%TD*%
D16*
%TO.C,U1*%
X36600000Y7200000D03*
X34300000Y7200000D03*
D17*
X34300000Y13500000D03*
D16*
X32000000Y7200000D03*
%TD*%
D18*
%TO.C,U3*%
X20600000Y18232500D03*
X20600000Y19502500D03*
X20600000Y20772500D03*
X20600000Y22042500D03*
X27800000Y22042500D03*
X27800000Y20772500D03*
X27800000Y19502500D03*
X27800000Y18232500D03*
%TD*%
D19*
%TO.C,J2*%
X22490000Y11315000D03*
X16710000Y11315000D03*
D20*
X22800000Y12390000D03*
X22000000Y12390000D03*
D21*
X20850000Y12390000D03*
X19850000Y12390000D03*
X19350000Y12390000D03*
X18350000Y12390000D03*
D20*
X16400000Y12390000D03*
X17200000Y12390000D03*
D21*
X17850000Y12390000D03*
X18850000Y12390000D03*
X20350000Y12390000D03*
X21350000Y12390000D03*
D22*
X23920000Y7635000D03*
X15280000Y7635000D03*
D23*
X23920000Y11815000D03*
X15280000Y11815000D03*
%TD*%
D24*
%TO.C,C5*%
X22100000Y24100000D03*
X20200000Y24100000D03*
%TD*%
D25*
%TO.C,Q1*%
X42150000Y19087500D03*
X40250000Y19087500D03*
X41200000Y20962500D03*
%TD*%
D26*
%TO.C,U4*%
X28262500Y25600000D03*
X28262500Y26000000D03*
X28262500Y26400000D03*
X28262500Y26800000D03*
X28262500Y27200000D03*
X28262500Y27600000D03*
X28262500Y28000000D03*
X28262500Y28400000D03*
X28262500Y28800000D03*
X28262500Y29200000D03*
X28262500Y29600000D03*
X28262500Y30000000D03*
X28262500Y30400000D03*
X28262500Y30800000D03*
D27*
X29100000Y31637500D03*
X29500000Y31637500D03*
X29900000Y31637500D03*
X30300000Y31637500D03*
X30700000Y31637500D03*
X31100000Y31637500D03*
X31500000Y31637500D03*
X31900000Y31637500D03*
X32300000Y31637500D03*
X32700000Y31637500D03*
X33100000Y31637500D03*
X33500000Y31637500D03*
X33900000Y31637500D03*
X34300000Y31637500D03*
D26*
X35137500Y30800000D03*
X35137500Y30400000D03*
X35137500Y30000000D03*
X35137500Y29600000D03*
X35137500Y29200000D03*
X35137500Y28800000D03*
X35137500Y28400000D03*
X35137500Y28000000D03*
X35137500Y27600000D03*
X35137500Y27200000D03*
X35137500Y26800000D03*
X35137500Y26400000D03*
X35137500Y26000000D03*
X35137500Y25600000D03*
D27*
X34300000Y24762500D03*
X33900000Y24762500D03*
X33500000Y24762500D03*
X33100000Y24762500D03*
X32700000Y24762500D03*
X32300000Y24762500D03*
X31900000Y24762500D03*
X31500000Y24762500D03*
X31100000Y24762500D03*
X30700000Y24762500D03*
X30300000Y24762500D03*
X29900000Y24762500D03*
X29500000Y24762500D03*
X29100000Y24762500D03*
D28*
X31700000Y28200000D03*
%TD*%
D29*
%TO.C,Y1*%
X33049557Y39639557D03*
X31352500Y37942500D03*
X30008997Y39286003D03*
X31706054Y40983060D03*
%TD*%
D15*
%TO.C,C4*%
X33950000Y22800000D03*
X35850000Y22800000D03*
%TD*%
%TO.C,C11*%
X39500000Y29700000D03*
X41400000Y29700000D03*
%TD*%
D30*
%TO.C,R1*%
X16387500Y15100000D03*
X14562500Y15100000D03*
%TD*%
D31*
%TO.C,R5*%
X46300000Y12700000D03*
X46300000Y14525000D03*
%TD*%
%TO.C,R6*%
X32000000Y19187500D03*
X32000000Y21012500D03*
%TD*%
%TO.C,R11*%
X38400000Y18800000D03*
X38400000Y20625000D03*
%TD*%
D32*
%TO.C,D2*%
X36900000Y16600000D03*
D33*
X38600000Y16600000D03*
D34*
X35200000Y16600000D03*
%TD*%
D35*
%TO.C,U2*%
X23037500Y16150000D03*
X23037500Y15200000D03*
X23037500Y14250000D03*
X20762500Y14250000D03*
X20762500Y15200000D03*
X20762500Y16150000D03*
%TD*%
D30*
%TO.C,R4*%
X18675000Y20750000D03*
X16850000Y20750000D03*
%TD*%
%TO.C,R2*%
X12900000Y15075000D03*
X11075000Y15075000D03*
%TD*%
D36*
%TO.C,R3*%
X7600000Y15100000D03*
X9425000Y15100000D03*
%TD*%
D37*
%TO.C,C12*%
X35321751Y40378249D03*
X33978249Y41721751D03*
%TD*%
D38*
%TO.C,R10*%
X44000000Y20512500D03*
X44000000Y18687500D03*
%TD*%
%TO.C,R9*%
X44300000Y14500000D03*
X44300000Y12675000D03*
%TD*%
D31*
%TO.C,R7*%
X34000000Y19187500D03*
X34000000Y21012500D03*
%TD*%
D15*
%TO.C,C13*%
X40275000Y31725000D03*
X42175000Y31725000D03*
%TD*%
D39*
%TO.C,C9*%
X34675000Y35750000D03*
X36018502Y37093502D03*
%TD*%
D32*
%TO.C,D1*%
X42100000Y16600000D03*
D34*
X40400000Y16600000D03*
D33*
X43800000Y16600000D03*
%TD*%
D31*
%TO.C,R8*%
X31875000Y33950000D03*
X31875000Y35775000D03*
%TD*%
D14*
%TO.C,C10*%
X37800000Y24100000D03*
X37800000Y22200000D03*
%TD*%
D40*
%TO.C,C7*%
X28308998Y38086002D03*
X29652500Y36742500D03*
%TD*%
D41*
%TO.C,C2*%
X16525000Y16950000D03*
X16525000Y18850000D03*
%TD*%
%TO.C,C1*%
X14425000Y16950000D03*
X14425000Y18850000D03*
%TD*%
M02*
