M48
; DRILL file {KiCad 7.0.11+1} date Sun Jun  9 18:10:44 2024
; FORMAT={3:3/ absolute / metric / suppress leading zeros}
; #@! TF.CreationDate,2024-06-09T18:10:44+00:00
; #@! TF.GenerationSoftware,Kicad,Pcbnew,7.0.11+1
; #@! TF.FileFunction,Plated,1,2,PTH
FMAT,2
METRIC,TZ
; #@! TA.AperFunction,Plated,PTH,ViaDrill
T1C0.300
; #@! TA.AperFunction,Plated,PTH,ComponentDrill
T2C0.500
; #@! TA.AperFunction,Plated,PTH,ComponentDrill
T3C0.600
; #@! TA.AperFunction,Plated,PTH,ComponentDrill
T4C0.889
; #@! TA.AperFunction,Plated,PTH,ComponentDrill
T5C3.200
%
G90
G05
T1
X7625Y16925
X11775Y19075
X12900Y15075
X15425Y17925
X16850Y20750
X17225Y15325
X17700Y13800
X18100Y14200
X18225Y10800
X18825Y16700
X19475Y14450
X20600Y18233
X20763Y16150
X20900Y11000
X23600Y15200
X23981Y21919
X25200Y43450
X25200Y16800
X25800Y20800
X26700Y24400
X26800Y23400
X28500Y24500
X28500Y16800
X28725Y37575
X29763Y30363
X29900Y35400
X30000Y20300
X30000Y19600
X30600Y29400
X30600Y28225
X30600Y27100
X31353Y37243
X31700Y23700
X33075Y34036
X33100Y29000
X33200Y27000
X33700Y23500
X34100Y30700
X34300Y15300
X34300Y14600
X34486Y34539
X35128Y33238
X35500Y39700
X36100Y21400
X36300Y34850
X36400Y41475
X37600Y36225
X39275Y24200
X44456Y20969
X44575Y27325
X46300Y16925
T2
X7760Y50800
X7760Y10160
X8463Y52497
X8463Y49103
X8463Y11857
X8463Y8463
X10160Y53200
X10160Y48400
X10160Y12560
X10160Y7760
X11857Y52497
X11857Y49103
X11857Y11857
X11857Y8463
X12560Y50800
X12560Y10160
X48400Y50800
X48400Y10160
X49103Y52497
X49103Y49103
X49103Y11857
X49103Y8463
X50800Y53200
X50800Y48400
X50800Y12560
X50800Y7760
X52497Y52497
X52497Y49103
X52497Y11857
X52497Y8463
X53200Y50800
X53200Y10160
T4
X8500Y45200
X8500Y42660
X8500Y40120
X8500Y37580
X8500Y35040
X8500Y32500
X8500Y29960
X8500Y27420
X8500Y24880
X8500Y22340
X11040Y45200
X11040Y42660
X11040Y40120
X11040Y37580
X11040Y35040
X11040Y32500
X11040Y29960
X11040Y27420
X11040Y24880
X11040Y22340
X17185Y47850
X17185Y45310
X19725Y47850
X19725Y45310
X21075Y53290
X21075Y50750
X22265Y47850
X22265Y45310
X23615Y53290
X23615Y50750
X24805Y47850
X24805Y45310
X26155Y53290
X26155Y50750
X26730Y12240
X26730Y9700
X26730Y7160
X27345Y47850
X27345Y45310
X28695Y53290
X28695Y50750
X29270Y12240
X29270Y9700
X29270Y7160
X29885Y47850
X29885Y45310
X31235Y53290
X31235Y50750
X32425Y47850
X32425Y45310
X34965Y47850
X34965Y45310
X37505Y47850
X37505Y45310
X37635Y39075
X39430Y12340
X39430Y9800
X39430Y7260
X40045Y47850
X40045Y45310
X40175Y39075
X41970Y12340
X41970Y9800
X41970Y7260
X42585Y47850
X42585Y45310
X45125Y47850
X45125Y45310
X49960Y45240
X49960Y42700
X49960Y40160
X49960Y37620
X49960Y35080
X49960Y32540
X49960Y30000
X49960Y27460
X49960Y24920
X49960Y22380
X52500Y45240
X52500Y42700
X52500Y40160
X52500Y37620
X52500Y35080
X52500Y32540
X52500Y30000
X52500Y27460
X52500Y24920
X52500Y22380
T5
X10160Y50800
X10160Y10160
X50800Y50800
X50800Y10160
T3
G00X15280Y11265
M15
G01X15280Y12365
M16
G05
G00X15280Y7235
M15
G01X15280Y8035
M16
G05
G00X23920Y11265
M15
G01X23920Y12365
M16
G05
G00X23920Y7235
M15
G01X23920Y8035
M16
G05
M30
