%TF.GenerationSoftware,KiCad,Pcbnew,7.0.11+1*%
%TF.CreationDate,2024-06-09T18:10:44+00:00*%
%TF.ProjectId,RP2040v01,52503230-3430-4763-9031-2e6b69636164,rev?*%
%TF.SameCoordinates,Original*%
%TF.FileFunction,Legend,Top*%
%TF.FilePolarity,Positive*%
%FSLAX46Y46*%
G04 Gerber Fmt 4.6, Leading zero omitted, Abs format (unit mm)*
G04 Created by KiCad (PCBNEW 7.0.11+1) date 2024-06-09 18:10:44*
%MOMM*%
%LPD*%
G01*
G04 APERTURE LIST*
%ADD10C,0.100000*%
%ADD11C,0.200000*%
%ADD12C,0.150000*%
%ADD13C,0.250000*%
%ADD14C,0.120000*%
%ADD15R,1.524000X1.524000*%
G04 APERTURE END LIST*
D10*
X36150000Y10425000D02*
X37050000Y9750000D01*
X37050000Y9750000D02*
X36150000Y9075000D01*
X37050000Y9750000D02*
X36150000Y10425000D01*
X31525000Y9750000D02*
X37050000Y9750000D01*
D11*
X46236279Y40592972D02*
X46293422Y40650115D01*
X46293422Y40650115D02*
X46407708Y40707258D01*
X46407708Y40707258D02*
X46693422Y40707258D01*
X46693422Y40707258D02*
X46807708Y40650115D01*
X46807708Y40650115D02*
X46864850Y40592972D01*
X46864850Y40592972D02*
X46921993Y40478686D01*
X46921993Y40478686D02*
X46921993Y40364400D01*
X46921993Y40364400D02*
X46864850Y40192972D01*
X46864850Y40192972D02*
X46179136Y39507258D01*
X46179136Y39507258D02*
X46921993Y39507258D01*
X47379136Y40592972D02*
X47436279Y40650115D01*
X47436279Y40650115D02*
X47550565Y40707258D01*
X47550565Y40707258D02*
X47836279Y40707258D01*
X47836279Y40707258D02*
X47950565Y40650115D01*
X47950565Y40650115D02*
X48007707Y40592972D01*
X48007707Y40592972D02*
X48064850Y40478686D01*
X48064850Y40478686D02*
X48064850Y40364400D01*
X48064850Y40364400D02*
X48007707Y40192972D01*
X48007707Y40192972D02*
X47321993Y39507258D01*
X47321993Y39507258D02*
X48064850Y39507258D01*
X44521993Y25350115D02*
X44407708Y25407258D01*
X44407708Y25407258D02*
X44236279Y25407258D01*
X44236279Y25407258D02*
X44064850Y25350115D01*
X44064850Y25350115D02*
X43950565Y25235829D01*
X43950565Y25235829D02*
X43893422Y25121543D01*
X43893422Y25121543D02*
X43836279Y24892972D01*
X43836279Y24892972D02*
X43836279Y24721543D01*
X43836279Y24721543D02*
X43893422Y24492972D01*
X43893422Y24492972D02*
X43950565Y24378686D01*
X43950565Y24378686D02*
X44064850Y24264400D01*
X44064850Y24264400D02*
X44236279Y24207258D01*
X44236279Y24207258D02*
X44350565Y24207258D01*
X44350565Y24207258D02*
X44521993Y24264400D01*
X44521993Y24264400D02*
X44579136Y24321543D01*
X44579136Y24321543D02*
X44579136Y24721543D01*
X44579136Y24721543D02*
X44350565Y24721543D01*
X45093422Y24207258D02*
X45093422Y25407258D01*
X45093422Y25407258D02*
X45550565Y25407258D01*
X45550565Y25407258D02*
X45664850Y25350115D01*
X45664850Y25350115D02*
X45721993Y25292972D01*
X45721993Y25292972D02*
X45779136Y25178686D01*
X45779136Y25178686D02*
X45779136Y25007258D01*
X45779136Y25007258D02*
X45721993Y24892972D01*
X45721993Y24892972D02*
X45664850Y24835829D01*
X45664850Y24835829D02*
X45550565Y24778686D01*
X45550565Y24778686D02*
X45093422Y24778686D01*
X46236279Y25292972D02*
X46293422Y25350115D01*
X46293422Y25350115D02*
X46407708Y25407258D01*
X46407708Y25407258D02*
X46693422Y25407258D01*
X46693422Y25407258D02*
X46807708Y25350115D01*
X46807708Y25350115D02*
X46864850Y25292972D01*
X46864850Y25292972D02*
X46921993Y25178686D01*
X46921993Y25178686D02*
X46921993Y25064400D01*
X46921993Y25064400D02*
X46864850Y24892972D01*
X46864850Y24892972D02*
X46179136Y24207258D01*
X46179136Y24207258D02*
X46921993Y24207258D01*
X47607707Y24892972D02*
X47493422Y24950115D01*
X47493422Y24950115D02*
X47436279Y25007258D01*
X47436279Y25007258D02*
X47379136Y25121543D01*
X47379136Y25121543D02*
X47379136Y25178686D01*
X47379136Y25178686D02*
X47436279Y25292972D01*
X47436279Y25292972D02*
X47493422Y25350115D01*
X47493422Y25350115D02*
X47607707Y25407258D01*
X47607707Y25407258D02*
X47836279Y25407258D01*
X47836279Y25407258D02*
X47950565Y25350115D01*
X47950565Y25350115D02*
X48007707Y25292972D01*
X48007707Y25292972D02*
X48064850Y25178686D01*
X48064850Y25178686D02*
X48064850Y25121543D01*
X48064850Y25121543D02*
X48007707Y25007258D01*
X48007707Y25007258D02*
X47950565Y24950115D01*
X47950565Y24950115D02*
X47836279Y24892972D01*
X47836279Y24892972D02*
X47607707Y24892972D01*
X47607707Y24892972D02*
X47493422Y24835829D01*
X47493422Y24835829D02*
X47436279Y24778686D01*
X47436279Y24778686D02*
X47379136Y24664400D01*
X47379136Y24664400D02*
X47379136Y24435829D01*
X47379136Y24435829D02*
X47436279Y24321543D01*
X47436279Y24321543D02*
X47493422Y24264400D01*
X47493422Y24264400D02*
X47607707Y24207258D01*
X47607707Y24207258D02*
X47836279Y24207258D01*
X47836279Y24207258D02*
X47950565Y24264400D01*
X47950565Y24264400D02*
X48007707Y24321543D01*
X48007707Y24321543D02*
X48064850Y24435829D01*
X48064850Y24435829D02*
X48064850Y24664400D01*
X48064850Y24664400D02*
X48007707Y24778686D01*
X48007707Y24778686D02*
X47950565Y24835829D01*
X47950565Y24835829D02*
X47836279Y24892972D01*
X37989958Y42171994D02*
X37989958Y41486280D01*
X37989958Y41829137D02*
X36789958Y41829137D01*
X36789958Y41829137D02*
X36961387Y41714851D01*
X36961387Y41714851D02*
X37075673Y41600566D01*
X37075673Y41600566D02*
X37132816Y41486280D01*
X36789958Y42571994D02*
X36789958Y43371994D01*
X36789958Y43371994D02*
X37989958Y42857708D01*
X13995863Y33150115D02*
X13881578Y33207258D01*
X13881578Y33207258D02*
X13710149Y33207258D01*
X13710149Y33207258D02*
X13538720Y33150115D01*
X13538720Y33150115D02*
X13424435Y33035829D01*
X13424435Y33035829D02*
X13367292Y32921543D01*
X13367292Y32921543D02*
X13310149Y32692972D01*
X13310149Y32692972D02*
X13310149Y32521543D01*
X13310149Y32521543D02*
X13367292Y32292972D01*
X13367292Y32292972D02*
X13424435Y32178686D01*
X13424435Y32178686D02*
X13538720Y32064400D01*
X13538720Y32064400D02*
X13710149Y32007258D01*
X13710149Y32007258D02*
X13824435Y32007258D01*
X13824435Y32007258D02*
X13995863Y32064400D01*
X13995863Y32064400D02*
X14053006Y32121543D01*
X14053006Y32121543D02*
X14053006Y32521543D01*
X14053006Y32521543D02*
X13824435Y32521543D01*
X14567292Y32007258D02*
X14567292Y33207258D01*
X14567292Y33207258D02*
X15024435Y33207258D01*
X15024435Y33207258D02*
X15138720Y33150115D01*
X15138720Y33150115D02*
X15195863Y33092972D01*
X15195863Y33092972D02*
X15253006Y32978686D01*
X15253006Y32978686D02*
X15253006Y32807258D01*
X15253006Y32807258D02*
X15195863Y32692972D01*
X15195863Y32692972D02*
X15138720Y32635829D01*
X15138720Y32635829D02*
X15024435Y32578686D01*
X15024435Y32578686D02*
X14567292Y32578686D01*
X16281578Y32807258D02*
X16281578Y32007258D01*
X15995863Y33264400D02*
X15710149Y32407258D01*
X15710149Y32407258D02*
X16453006Y32407258D01*
X44521993Y30450115D02*
X44407708Y30507258D01*
X44407708Y30507258D02*
X44236279Y30507258D01*
X44236279Y30507258D02*
X44064850Y30450115D01*
X44064850Y30450115D02*
X43950565Y30335829D01*
X43950565Y30335829D02*
X43893422Y30221543D01*
X43893422Y30221543D02*
X43836279Y29992972D01*
X43836279Y29992972D02*
X43836279Y29821543D01*
X43836279Y29821543D02*
X43893422Y29592972D01*
X43893422Y29592972D02*
X43950565Y29478686D01*
X43950565Y29478686D02*
X44064850Y29364400D01*
X44064850Y29364400D02*
X44236279Y29307258D01*
X44236279Y29307258D02*
X44350565Y29307258D01*
X44350565Y29307258D02*
X44521993Y29364400D01*
X44521993Y29364400D02*
X44579136Y29421543D01*
X44579136Y29421543D02*
X44579136Y29821543D01*
X44579136Y29821543D02*
X44350565Y29821543D01*
X45093422Y29307258D02*
X45093422Y30507258D01*
X45093422Y30507258D02*
X45550565Y30507258D01*
X45550565Y30507258D02*
X45664850Y30450115D01*
X45664850Y30450115D02*
X45721993Y30392972D01*
X45721993Y30392972D02*
X45779136Y30278686D01*
X45779136Y30278686D02*
X45779136Y30107258D01*
X45779136Y30107258D02*
X45721993Y29992972D01*
X45721993Y29992972D02*
X45664850Y29935829D01*
X45664850Y29935829D02*
X45550565Y29878686D01*
X45550565Y29878686D02*
X45093422Y29878686D01*
X46236279Y30392972D02*
X46293422Y30450115D01*
X46293422Y30450115D02*
X46407708Y30507258D01*
X46407708Y30507258D02*
X46693422Y30507258D01*
X46693422Y30507258D02*
X46807708Y30450115D01*
X46807708Y30450115D02*
X46864850Y30392972D01*
X46864850Y30392972D02*
X46921993Y30278686D01*
X46921993Y30278686D02*
X46921993Y30164400D01*
X46921993Y30164400D02*
X46864850Y29992972D01*
X46864850Y29992972D02*
X46179136Y29307258D01*
X46179136Y29307258D02*
X46921993Y29307258D01*
X47950565Y30507258D02*
X47721993Y30507258D01*
X47721993Y30507258D02*
X47607707Y30450115D01*
X47607707Y30450115D02*
X47550565Y30392972D01*
X47550565Y30392972D02*
X47436279Y30221543D01*
X47436279Y30221543D02*
X47379136Y29992972D01*
X47379136Y29992972D02*
X47379136Y29535829D01*
X47379136Y29535829D02*
X47436279Y29421543D01*
X47436279Y29421543D02*
X47493422Y29364400D01*
X47493422Y29364400D02*
X47607707Y29307258D01*
X47607707Y29307258D02*
X47836279Y29307258D01*
X47836279Y29307258D02*
X47950565Y29364400D01*
X47950565Y29364400D02*
X48007707Y29421543D01*
X48007707Y29421543D02*
X48064850Y29535829D01*
X48064850Y29535829D02*
X48064850Y29821543D01*
X48064850Y29821543D02*
X48007707Y29935829D01*
X48007707Y29935829D02*
X47950565Y29992972D01*
X47950565Y29992972D02*
X47836279Y30050115D01*
X47836279Y30050115D02*
X47607707Y30050115D01*
X47607707Y30050115D02*
X47493422Y29992972D01*
X47493422Y29992972D02*
X47436279Y29935829D01*
X47436279Y29935829D02*
X47379136Y29821543D01*
D10*
X8437217Y15401391D02*
X8580074Y15353772D01*
X8580074Y15353772D02*
X8627693Y15306153D01*
X8627693Y15306153D02*
X8675312Y15210915D01*
X8675312Y15210915D02*
X8675312Y15068058D01*
X8675312Y15068058D02*
X8627693Y14972820D01*
X8627693Y14972820D02*
X8580074Y14925200D01*
X8580074Y14925200D02*
X8484836Y14877581D01*
X8484836Y14877581D02*
X8103884Y14877581D01*
X8103884Y14877581D02*
X8103884Y15877581D01*
X8103884Y15877581D02*
X8437217Y15877581D01*
X8437217Y15877581D02*
X8532455Y15829962D01*
X8532455Y15829962D02*
X8580074Y15782343D01*
X8580074Y15782343D02*
X8627693Y15687105D01*
X8627693Y15687105D02*
X8627693Y15591867D01*
X8627693Y15591867D02*
X8580074Y15496629D01*
X8580074Y15496629D02*
X8532455Y15449010D01*
X8532455Y15449010D02*
X8437217Y15401391D01*
X8437217Y15401391D02*
X8103884Y15401391D01*
X9294360Y15877581D02*
X9484836Y15877581D01*
X9484836Y15877581D02*
X9580074Y15829962D01*
X9580074Y15829962D02*
X9675312Y15734724D01*
X9675312Y15734724D02*
X9722931Y15544248D01*
X9722931Y15544248D02*
X9722931Y15210915D01*
X9722931Y15210915D02*
X9675312Y15020439D01*
X9675312Y15020439D02*
X9580074Y14925200D01*
X9580074Y14925200D02*
X9484836Y14877581D01*
X9484836Y14877581D02*
X9294360Y14877581D01*
X9294360Y14877581D02*
X9199122Y14925200D01*
X9199122Y14925200D02*
X9103884Y15020439D01*
X9103884Y15020439D02*
X9056265Y15210915D01*
X9056265Y15210915D02*
X9056265Y15544248D01*
X9056265Y15544248D02*
X9103884Y15734724D01*
X9103884Y15734724D02*
X9199122Y15829962D01*
X9199122Y15829962D02*
X9294360Y15877581D01*
X10341979Y15877581D02*
X10532455Y15877581D01*
X10532455Y15877581D02*
X10627693Y15829962D01*
X10627693Y15829962D02*
X10722931Y15734724D01*
X10722931Y15734724D02*
X10770550Y15544248D01*
X10770550Y15544248D02*
X10770550Y15210915D01*
X10770550Y15210915D02*
X10722931Y15020439D01*
X10722931Y15020439D02*
X10627693Y14925200D01*
X10627693Y14925200D02*
X10532455Y14877581D01*
X10532455Y14877581D02*
X10341979Y14877581D01*
X10341979Y14877581D02*
X10246741Y14925200D01*
X10246741Y14925200D02*
X10151503Y15020439D01*
X10151503Y15020439D02*
X10103884Y15210915D01*
X10103884Y15210915D02*
X10103884Y15544248D01*
X10103884Y15544248D02*
X10151503Y15734724D01*
X10151503Y15734724D02*
X10246741Y15829962D01*
X10246741Y15829962D02*
X10341979Y15877581D01*
X11056265Y15877581D02*
X11627693Y15877581D01*
X11341979Y14877581D02*
X11341979Y15877581D01*
D11*
X13995863Y28050115D02*
X13881578Y28107258D01*
X13881578Y28107258D02*
X13710149Y28107258D01*
X13710149Y28107258D02*
X13538720Y28050115D01*
X13538720Y28050115D02*
X13424435Y27935829D01*
X13424435Y27935829D02*
X13367292Y27821543D01*
X13367292Y27821543D02*
X13310149Y27592972D01*
X13310149Y27592972D02*
X13310149Y27421543D01*
X13310149Y27421543D02*
X13367292Y27192972D01*
X13367292Y27192972D02*
X13424435Y27078686D01*
X13424435Y27078686D02*
X13538720Y26964400D01*
X13538720Y26964400D02*
X13710149Y26907258D01*
X13710149Y26907258D02*
X13824435Y26907258D01*
X13824435Y26907258D02*
X13995863Y26964400D01*
X13995863Y26964400D02*
X14053006Y27021543D01*
X14053006Y27021543D02*
X14053006Y27421543D01*
X14053006Y27421543D02*
X13824435Y27421543D01*
X14567292Y26907258D02*
X14567292Y28107258D01*
X14567292Y28107258D02*
X15024435Y28107258D01*
X15024435Y28107258D02*
X15138720Y28050115D01*
X15138720Y28050115D02*
X15195863Y27992972D01*
X15195863Y27992972D02*
X15253006Y27878686D01*
X15253006Y27878686D02*
X15253006Y27707258D01*
X15253006Y27707258D02*
X15195863Y27592972D01*
X15195863Y27592972D02*
X15138720Y27535829D01*
X15138720Y27535829D02*
X15024435Y27478686D01*
X15024435Y27478686D02*
X14567292Y27478686D01*
X15710149Y27992972D02*
X15767292Y28050115D01*
X15767292Y28050115D02*
X15881578Y28107258D01*
X15881578Y28107258D02*
X16167292Y28107258D01*
X16167292Y28107258D02*
X16281578Y28050115D01*
X16281578Y28050115D02*
X16338720Y27992972D01*
X16338720Y27992972D02*
X16395863Y27878686D01*
X16395863Y27878686D02*
X16395863Y27764400D01*
X16395863Y27764400D02*
X16338720Y27592972D01*
X16338720Y27592972D02*
X15653006Y26907258D01*
X15653006Y26907258D02*
X16395863Y26907258D01*
X41924885Y39796994D02*
X41867742Y39682708D01*
X41867742Y39682708D02*
X41867742Y39511280D01*
X41867742Y39511280D02*
X41924885Y39339851D01*
X41924885Y39339851D02*
X42039171Y39225566D01*
X42039171Y39225566D02*
X42153457Y39168423D01*
X42153457Y39168423D02*
X42382028Y39111280D01*
X42382028Y39111280D02*
X42553457Y39111280D01*
X42553457Y39111280D02*
X42782028Y39168423D01*
X42782028Y39168423D02*
X42896314Y39225566D01*
X42896314Y39225566D02*
X43010600Y39339851D01*
X43010600Y39339851D02*
X43067742Y39511280D01*
X43067742Y39511280D02*
X43067742Y39625566D01*
X43067742Y39625566D02*
X43010600Y39796994D01*
X43010600Y39796994D02*
X42953457Y39854137D01*
X42953457Y39854137D02*
X42553457Y39854137D01*
X42553457Y39854137D02*
X42553457Y39625566D01*
X43067742Y40368423D02*
X41867742Y40368423D01*
X41867742Y40368423D02*
X41867742Y40825566D01*
X41867742Y40825566D02*
X41924885Y40939851D01*
X41924885Y40939851D02*
X41982028Y40996994D01*
X41982028Y40996994D02*
X42096314Y41054137D01*
X42096314Y41054137D02*
X42267742Y41054137D01*
X42267742Y41054137D02*
X42382028Y40996994D01*
X42382028Y40996994D02*
X42439171Y40939851D01*
X42439171Y40939851D02*
X42496314Y40825566D01*
X42496314Y40825566D02*
X42496314Y40368423D01*
X43067742Y42196994D02*
X43067742Y41511280D01*
X43067742Y41854137D02*
X41867742Y41854137D01*
X41867742Y41854137D02*
X42039171Y41739851D01*
X42039171Y41739851D02*
X42153457Y41625566D01*
X42153457Y41625566D02*
X42210600Y41511280D01*
X43067742Y42768423D02*
X43067742Y42996994D01*
X43067742Y42996994D02*
X43010600Y43111280D01*
X43010600Y43111280D02*
X42953457Y43168423D01*
X42953457Y43168423D02*
X42782028Y43282708D01*
X42782028Y43282708D02*
X42553457Y43339851D01*
X42553457Y43339851D02*
X42096314Y43339851D01*
X42096314Y43339851D02*
X41982028Y43282708D01*
X41982028Y43282708D02*
X41924885Y43225565D01*
X41924885Y43225565D02*
X41867742Y43111280D01*
X41867742Y43111280D02*
X41867742Y42882708D01*
X41867742Y42882708D02*
X41924885Y42768423D01*
X41924885Y42768423D02*
X41982028Y42711280D01*
X41982028Y42711280D02*
X42096314Y42654137D01*
X42096314Y42654137D02*
X42382028Y42654137D01*
X42382028Y42654137D02*
X42496314Y42711280D01*
X42496314Y42711280D02*
X42553457Y42768423D01*
X42553457Y42768423D02*
X42610600Y42882708D01*
X42610600Y42882708D02*
X42610600Y43111280D01*
X42610600Y43111280D02*
X42553457Y43225565D01*
X42553457Y43225565D02*
X42496314Y43282708D01*
X42496314Y43282708D02*
X42382028Y43339851D01*
X46211279Y43167972D02*
X46268422Y43225115D01*
X46268422Y43225115D02*
X46382708Y43282258D01*
X46382708Y43282258D02*
X46668422Y43282258D01*
X46668422Y43282258D02*
X46782708Y43225115D01*
X46782708Y43225115D02*
X46839850Y43167972D01*
X46839850Y43167972D02*
X46896993Y43053686D01*
X46896993Y43053686D02*
X46896993Y42939400D01*
X46896993Y42939400D02*
X46839850Y42767972D01*
X46839850Y42767972D02*
X46154136Y42082258D01*
X46154136Y42082258D02*
X46896993Y42082258D01*
X48039850Y42082258D02*
X47354136Y42082258D01*
X47696993Y42082258D02*
X47696993Y43282258D01*
X47696993Y43282258D02*
X47582707Y43110829D01*
X47582707Y43110829D02*
X47468422Y42996543D01*
X47468422Y42996543D02*
X47354136Y42939400D01*
X34308213Y39771994D02*
X34251070Y39657708D01*
X34251070Y39657708D02*
X34251070Y39486280D01*
X34251070Y39486280D02*
X34308213Y39314851D01*
X34308213Y39314851D02*
X34422499Y39200566D01*
X34422499Y39200566D02*
X34536785Y39143423D01*
X34536785Y39143423D02*
X34765356Y39086280D01*
X34765356Y39086280D02*
X34936785Y39086280D01*
X34936785Y39086280D02*
X35165356Y39143423D01*
X35165356Y39143423D02*
X35279642Y39200566D01*
X35279642Y39200566D02*
X35393928Y39314851D01*
X35393928Y39314851D02*
X35451070Y39486280D01*
X35451070Y39486280D02*
X35451070Y39600566D01*
X35451070Y39600566D02*
X35393928Y39771994D01*
X35393928Y39771994D02*
X35336785Y39829137D01*
X35336785Y39829137D02*
X34936785Y39829137D01*
X34936785Y39829137D02*
X34936785Y39600566D01*
X35451070Y40343423D02*
X34251070Y40343423D01*
X34251070Y40343423D02*
X34251070Y40800566D01*
X34251070Y40800566D02*
X34308213Y40914851D01*
X34308213Y40914851D02*
X34365356Y40971994D01*
X34365356Y40971994D02*
X34479642Y41029137D01*
X34479642Y41029137D02*
X34651070Y41029137D01*
X34651070Y41029137D02*
X34765356Y40971994D01*
X34765356Y40971994D02*
X34822499Y40914851D01*
X34822499Y40914851D02*
X34879642Y40800566D01*
X34879642Y40800566D02*
X34879642Y40343423D01*
X35451070Y42171994D02*
X35451070Y41486280D01*
X35451070Y41829137D02*
X34251070Y41829137D01*
X34251070Y41829137D02*
X34422499Y41714851D01*
X34422499Y41714851D02*
X34536785Y41600566D01*
X34536785Y41600566D02*
X34593928Y41486280D01*
X34251070Y43200565D02*
X34251070Y42971994D01*
X34251070Y42971994D02*
X34308213Y42857708D01*
X34308213Y42857708D02*
X34365356Y42800565D01*
X34365356Y42800565D02*
X34536785Y42686280D01*
X34536785Y42686280D02*
X34765356Y42629137D01*
X34765356Y42629137D02*
X35222499Y42629137D01*
X35222499Y42629137D02*
X35336785Y42686280D01*
X35336785Y42686280D02*
X35393928Y42743423D01*
X35393928Y42743423D02*
X35451070Y42857708D01*
X35451070Y42857708D02*
X35451070Y43086280D01*
X35451070Y43086280D02*
X35393928Y43200565D01*
X35393928Y43200565D02*
X35336785Y43257708D01*
X35336785Y43257708D02*
X35222499Y43314851D01*
X35222499Y43314851D02*
X34936785Y43314851D01*
X34936785Y43314851D02*
X34822499Y43257708D01*
X34822499Y43257708D02*
X34765356Y43200565D01*
X34765356Y43200565D02*
X34708213Y43086280D01*
X34708213Y43086280D02*
X34708213Y42857708D01*
X34708213Y42857708D02*
X34765356Y42743423D01*
X34765356Y42743423D02*
X34822499Y42686280D01*
X34822499Y42686280D02*
X34936785Y42629137D01*
X44521993Y38100115D02*
X44407708Y38157258D01*
X44407708Y38157258D02*
X44236279Y38157258D01*
X44236279Y38157258D02*
X44064850Y38100115D01*
X44064850Y38100115D02*
X43950565Y37985829D01*
X43950565Y37985829D02*
X43893422Y37871543D01*
X43893422Y37871543D02*
X43836279Y37642972D01*
X43836279Y37642972D02*
X43836279Y37471543D01*
X43836279Y37471543D02*
X43893422Y37242972D01*
X43893422Y37242972D02*
X43950565Y37128686D01*
X43950565Y37128686D02*
X44064850Y37014400D01*
X44064850Y37014400D02*
X44236279Y36957258D01*
X44236279Y36957258D02*
X44350565Y36957258D01*
X44350565Y36957258D02*
X44521993Y37014400D01*
X44521993Y37014400D02*
X44579136Y37071543D01*
X44579136Y37071543D02*
X44579136Y37471543D01*
X44579136Y37471543D02*
X44350565Y37471543D01*
X45093422Y36957258D02*
X45093422Y38157258D01*
X45093422Y38157258D02*
X45550565Y38157258D01*
X45550565Y38157258D02*
X45664850Y38100115D01*
X45664850Y38100115D02*
X45721993Y38042972D01*
X45721993Y38042972D02*
X45779136Y37928686D01*
X45779136Y37928686D02*
X45779136Y37757258D01*
X45779136Y37757258D02*
X45721993Y37642972D01*
X45721993Y37642972D02*
X45664850Y37585829D01*
X45664850Y37585829D02*
X45550565Y37528686D01*
X45550565Y37528686D02*
X45093422Y37528686D01*
X46236279Y38042972D02*
X46293422Y38100115D01*
X46293422Y38100115D02*
X46407708Y38157258D01*
X46407708Y38157258D02*
X46693422Y38157258D01*
X46693422Y38157258D02*
X46807708Y38100115D01*
X46807708Y38100115D02*
X46864850Y38042972D01*
X46864850Y38042972D02*
X46921993Y37928686D01*
X46921993Y37928686D02*
X46921993Y37814400D01*
X46921993Y37814400D02*
X46864850Y37642972D01*
X46864850Y37642972D02*
X46179136Y36957258D01*
X46179136Y36957258D02*
X46921993Y36957258D01*
X47321993Y38157258D02*
X48064850Y38157258D01*
X48064850Y38157258D02*
X47664850Y37700115D01*
X47664850Y37700115D02*
X47836279Y37700115D01*
X47836279Y37700115D02*
X47950565Y37642972D01*
X47950565Y37642972D02*
X48007707Y37585829D01*
X48007707Y37585829D02*
X48064850Y37471543D01*
X48064850Y37471543D02*
X48064850Y37185829D01*
X48064850Y37185829D02*
X48007707Y37071543D01*
X48007707Y37071543D02*
X47950565Y37014400D01*
X47950565Y37014400D02*
X47836279Y36957258D01*
X47836279Y36957258D02*
X47493422Y36957258D01*
X47493422Y36957258D02*
X47379136Y37014400D01*
X47379136Y37014400D02*
X47321993Y37071543D01*
X13995863Y30600115D02*
X13881578Y30657258D01*
X13881578Y30657258D02*
X13710149Y30657258D01*
X13710149Y30657258D02*
X13538720Y30600115D01*
X13538720Y30600115D02*
X13424435Y30485829D01*
X13424435Y30485829D02*
X13367292Y30371543D01*
X13367292Y30371543D02*
X13310149Y30142972D01*
X13310149Y30142972D02*
X13310149Y29971543D01*
X13310149Y29971543D02*
X13367292Y29742972D01*
X13367292Y29742972D02*
X13424435Y29628686D01*
X13424435Y29628686D02*
X13538720Y29514400D01*
X13538720Y29514400D02*
X13710149Y29457258D01*
X13710149Y29457258D02*
X13824435Y29457258D01*
X13824435Y29457258D02*
X13995863Y29514400D01*
X13995863Y29514400D02*
X14053006Y29571543D01*
X14053006Y29571543D02*
X14053006Y29971543D01*
X14053006Y29971543D02*
X13824435Y29971543D01*
X14567292Y29457258D02*
X14567292Y30657258D01*
X14567292Y30657258D02*
X15024435Y30657258D01*
X15024435Y30657258D02*
X15138720Y30600115D01*
X15138720Y30600115D02*
X15195863Y30542972D01*
X15195863Y30542972D02*
X15253006Y30428686D01*
X15253006Y30428686D02*
X15253006Y30257258D01*
X15253006Y30257258D02*
X15195863Y30142972D01*
X15195863Y30142972D02*
X15138720Y30085829D01*
X15138720Y30085829D02*
X15024435Y30028686D01*
X15024435Y30028686D02*
X14567292Y30028686D01*
X15653006Y30657258D02*
X16395863Y30657258D01*
X16395863Y30657258D02*
X15995863Y30200115D01*
X15995863Y30200115D02*
X16167292Y30200115D01*
X16167292Y30200115D02*
X16281578Y30142972D01*
X16281578Y30142972D02*
X16338720Y30085829D01*
X16338720Y30085829D02*
X16395863Y29971543D01*
X16395863Y29971543D02*
X16395863Y29685829D01*
X16395863Y29685829D02*
X16338720Y29571543D01*
X16338720Y29571543D02*
X16281578Y29514400D01*
X16281578Y29514400D02*
X16167292Y29457258D01*
X16167292Y29457258D02*
X15824435Y29457258D01*
X15824435Y29457258D02*
X15710149Y29514400D01*
X15710149Y29514400D02*
X15653006Y29571543D01*
X13995863Y38250115D02*
X13881578Y38307258D01*
X13881578Y38307258D02*
X13710149Y38307258D01*
X13710149Y38307258D02*
X13538720Y38250115D01*
X13538720Y38250115D02*
X13424435Y38135829D01*
X13424435Y38135829D02*
X13367292Y38021543D01*
X13367292Y38021543D02*
X13310149Y37792972D01*
X13310149Y37792972D02*
X13310149Y37621543D01*
X13310149Y37621543D02*
X13367292Y37392972D01*
X13367292Y37392972D02*
X13424435Y37278686D01*
X13424435Y37278686D02*
X13538720Y37164400D01*
X13538720Y37164400D02*
X13710149Y37107258D01*
X13710149Y37107258D02*
X13824435Y37107258D01*
X13824435Y37107258D02*
X13995863Y37164400D01*
X13995863Y37164400D02*
X14053006Y37221543D01*
X14053006Y37221543D02*
X14053006Y37621543D01*
X14053006Y37621543D02*
X13824435Y37621543D01*
X14567292Y37107258D02*
X14567292Y38307258D01*
X14567292Y38307258D02*
X15024435Y38307258D01*
X15024435Y38307258D02*
X15138720Y38250115D01*
X15138720Y38250115D02*
X15195863Y38192972D01*
X15195863Y38192972D02*
X15253006Y38078686D01*
X15253006Y38078686D02*
X15253006Y37907258D01*
X15253006Y37907258D02*
X15195863Y37792972D01*
X15195863Y37792972D02*
X15138720Y37735829D01*
X15138720Y37735829D02*
X15024435Y37678686D01*
X15024435Y37678686D02*
X14567292Y37678686D01*
X16281578Y38307258D02*
X16053006Y38307258D01*
X16053006Y38307258D02*
X15938720Y38250115D01*
X15938720Y38250115D02*
X15881578Y38192972D01*
X15881578Y38192972D02*
X15767292Y38021543D01*
X15767292Y38021543D02*
X15710149Y37792972D01*
X15710149Y37792972D02*
X15710149Y37335829D01*
X15710149Y37335829D02*
X15767292Y37221543D01*
X15767292Y37221543D02*
X15824435Y37164400D01*
X15824435Y37164400D02*
X15938720Y37107258D01*
X15938720Y37107258D02*
X16167292Y37107258D01*
X16167292Y37107258D02*
X16281578Y37164400D01*
X16281578Y37164400D02*
X16338720Y37221543D01*
X16338720Y37221543D02*
X16395863Y37335829D01*
X16395863Y37335829D02*
X16395863Y37621543D01*
X16395863Y37621543D02*
X16338720Y37735829D01*
X16338720Y37735829D02*
X16281578Y37792972D01*
X16281578Y37792972D02*
X16167292Y37850115D01*
X16167292Y37850115D02*
X15938720Y37850115D01*
X15938720Y37850115D02*
X15824435Y37792972D01*
X15824435Y37792972D02*
X15767292Y37735829D01*
X15767292Y37735829D02*
X15710149Y37621543D01*
X44049885Y40750565D02*
X43992742Y40636279D01*
X43992742Y40636279D02*
X43992742Y40464851D01*
X43992742Y40464851D02*
X44049885Y40293422D01*
X44049885Y40293422D02*
X44164171Y40179137D01*
X44164171Y40179137D02*
X44278457Y40121994D01*
X44278457Y40121994D02*
X44507028Y40064851D01*
X44507028Y40064851D02*
X44678457Y40064851D01*
X44678457Y40064851D02*
X44907028Y40121994D01*
X44907028Y40121994D02*
X45021314Y40179137D01*
X45021314Y40179137D02*
X45135600Y40293422D01*
X45135600Y40293422D02*
X45192742Y40464851D01*
X45192742Y40464851D02*
X45192742Y40579137D01*
X45192742Y40579137D02*
X45135600Y40750565D01*
X45135600Y40750565D02*
X45078457Y40807708D01*
X45078457Y40807708D02*
X44678457Y40807708D01*
X44678457Y40807708D02*
X44678457Y40579137D01*
X45192742Y41321994D02*
X43992742Y41321994D01*
X43992742Y41321994D02*
X45192742Y42007708D01*
X45192742Y42007708D02*
X43992742Y42007708D01*
X45192742Y42579137D02*
X43992742Y42579137D01*
X43992742Y42579137D02*
X43992742Y42864851D01*
X43992742Y42864851D02*
X44049885Y43036280D01*
X44049885Y43036280D02*
X44164171Y43150565D01*
X44164171Y43150565D02*
X44278457Y43207708D01*
X44278457Y43207708D02*
X44507028Y43264851D01*
X44507028Y43264851D02*
X44678457Y43264851D01*
X44678457Y43264851D02*
X44907028Y43207708D01*
X44907028Y43207708D02*
X45021314Y43150565D01*
X45021314Y43150565D02*
X45135600Y43036280D01*
X45135600Y43036280D02*
X45192742Y42864851D01*
X45192742Y42864851D02*
X45192742Y42579137D01*
X44521993Y33000115D02*
X44407708Y33057258D01*
X44407708Y33057258D02*
X44236279Y33057258D01*
X44236279Y33057258D02*
X44064850Y33000115D01*
X44064850Y33000115D02*
X43950565Y32885829D01*
X43950565Y32885829D02*
X43893422Y32771543D01*
X43893422Y32771543D02*
X43836279Y32542972D01*
X43836279Y32542972D02*
X43836279Y32371543D01*
X43836279Y32371543D02*
X43893422Y32142972D01*
X43893422Y32142972D02*
X43950565Y32028686D01*
X43950565Y32028686D02*
X44064850Y31914400D01*
X44064850Y31914400D02*
X44236279Y31857258D01*
X44236279Y31857258D02*
X44350565Y31857258D01*
X44350565Y31857258D02*
X44521993Y31914400D01*
X44521993Y31914400D02*
X44579136Y31971543D01*
X44579136Y31971543D02*
X44579136Y32371543D01*
X44579136Y32371543D02*
X44350565Y32371543D01*
X45093422Y31857258D02*
X45093422Y33057258D01*
X45093422Y33057258D02*
X45550565Y33057258D01*
X45550565Y33057258D02*
X45664850Y33000115D01*
X45664850Y33000115D02*
X45721993Y32942972D01*
X45721993Y32942972D02*
X45779136Y32828686D01*
X45779136Y32828686D02*
X45779136Y32657258D01*
X45779136Y32657258D02*
X45721993Y32542972D01*
X45721993Y32542972D02*
X45664850Y32485829D01*
X45664850Y32485829D02*
X45550565Y32428686D01*
X45550565Y32428686D02*
X45093422Y32428686D01*
X46236279Y32942972D02*
X46293422Y33000115D01*
X46293422Y33000115D02*
X46407708Y33057258D01*
X46407708Y33057258D02*
X46693422Y33057258D01*
X46693422Y33057258D02*
X46807708Y33000115D01*
X46807708Y33000115D02*
X46864850Y32942972D01*
X46864850Y32942972D02*
X46921993Y32828686D01*
X46921993Y32828686D02*
X46921993Y32714400D01*
X46921993Y32714400D02*
X46864850Y32542972D01*
X46864850Y32542972D02*
X46179136Y31857258D01*
X46179136Y31857258D02*
X46921993Y31857258D01*
X48007707Y33057258D02*
X47436279Y33057258D01*
X47436279Y33057258D02*
X47379136Y32485829D01*
X47379136Y32485829D02*
X47436279Y32542972D01*
X47436279Y32542972D02*
X47550565Y32600115D01*
X47550565Y32600115D02*
X47836279Y32600115D01*
X47836279Y32600115D02*
X47950565Y32542972D01*
X47950565Y32542972D02*
X48007707Y32485829D01*
X48007707Y32485829D02*
X48064850Y32371543D01*
X48064850Y32371543D02*
X48064850Y32085829D01*
X48064850Y32085829D02*
X48007707Y31971543D01*
X48007707Y31971543D02*
X47950565Y31914400D01*
X47950565Y31914400D02*
X47836279Y31857258D01*
X47836279Y31857258D02*
X47550565Y31857258D01*
X47550565Y31857258D02*
X47436279Y31914400D01*
X47436279Y31914400D02*
X47379136Y31971543D01*
X13995863Y35700115D02*
X13881578Y35757258D01*
X13881578Y35757258D02*
X13710149Y35757258D01*
X13710149Y35757258D02*
X13538720Y35700115D01*
X13538720Y35700115D02*
X13424435Y35585829D01*
X13424435Y35585829D02*
X13367292Y35471543D01*
X13367292Y35471543D02*
X13310149Y35242972D01*
X13310149Y35242972D02*
X13310149Y35071543D01*
X13310149Y35071543D02*
X13367292Y34842972D01*
X13367292Y34842972D02*
X13424435Y34728686D01*
X13424435Y34728686D02*
X13538720Y34614400D01*
X13538720Y34614400D02*
X13710149Y34557258D01*
X13710149Y34557258D02*
X13824435Y34557258D01*
X13824435Y34557258D02*
X13995863Y34614400D01*
X13995863Y34614400D02*
X14053006Y34671543D01*
X14053006Y34671543D02*
X14053006Y35071543D01*
X14053006Y35071543D02*
X13824435Y35071543D01*
X14567292Y34557258D02*
X14567292Y35757258D01*
X14567292Y35757258D02*
X15024435Y35757258D01*
X15024435Y35757258D02*
X15138720Y35700115D01*
X15138720Y35700115D02*
X15195863Y35642972D01*
X15195863Y35642972D02*
X15253006Y35528686D01*
X15253006Y35528686D02*
X15253006Y35357258D01*
X15253006Y35357258D02*
X15195863Y35242972D01*
X15195863Y35242972D02*
X15138720Y35185829D01*
X15138720Y35185829D02*
X15024435Y35128686D01*
X15024435Y35128686D02*
X14567292Y35128686D01*
X16338720Y35757258D02*
X15767292Y35757258D01*
X15767292Y35757258D02*
X15710149Y35185829D01*
X15710149Y35185829D02*
X15767292Y35242972D01*
X15767292Y35242972D02*
X15881578Y35300115D01*
X15881578Y35300115D02*
X16167292Y35300115D01*
X16167292Y35300115D02*
X16281578Y35242972D01*
X16281578Y35242972D02*
X16338720Y35185829D01*
X16338720Y35185829D02*
X16395863Y35071543D01*
X16395863Y35071543D02*
X16395863Y34785829D01*
X16395863Y34785829D02*
X16338720Y34671543D01*
X16338720Y34671543D02*
X16281578Y34614400D01*
X16281578Y34614400D02*
X16167292Y34557258D01*
X16167292Y34557258D02*
X15881578Y34557258D01*
X15881578Y34557258D02*
X15767292Y34614400D01*
X15767292Y34614400D02*
X15710149Y34671543D01*
X26691549Y39771994D02*
X26634406Y39657708D01*
X26634406Y39657708D02*
X26634406Y39486280D01*
X26634406Y39486280D02*
X26691549Y39314851D01*
X26691549Y39314851D02*
X26805835Y39200566D01*
X26805835Y39200566D02*
X26920121Y39143423D01*
X26920121Y39143423D02*
X27148692Y39086280D01*
X27148692Y39086280D02*
X27320121Y39086280D01*
X27320121Y39086280D02*
X27548692Y39143423D01*
X27548692Y39143423D02*
X27662978Y39200566D01*
X27662978Y39200566D02*
X27777264Y39314851D01*
X27777264Y39314851D02*
X27834406Y39486280D01*
X27834406Y39486280D02*
X27834406Y39600566D01*
X27834406Y39600566D02*
X27777264Y39771994D01*
X27777264Y39771994D02*
X27720121Y39829137D01*
X27720121Y39829137D02*
X27320121Y39829137D01*
X27320121Y39829137D02*
X27320121Y39600566D01*
X27834406Y40343423D02*
X26634406Y40343423D01*
X26634406Y40343423D02*
X26634406Y40800566D01*
X26634406Y40800566D02*
X26691549Y40914851D01*
X26691549Y40914851D02*
X26748692Y40971994D01*
X26748692Y40971994D02*
X26862978Y41029137D01*
X26862978Y41029137D02*
X27034406Y41029137D01*
X27034406Y41029137D02*
X27148692Y40971994D01*
X27148692Y40971994D02*
X27205835Y40914851D01*
X27205835Y40914851D02*
X27262978Y40800566D01*
X27262978Y40800566D02*
X27262978Y40343423D01*
X27834406Y42171994D02*
X27834406Y41486280D01*
X27834406Y41829137D02*
X26634406Y41829137D01*
X26634406Y41829137D02*
X26805835Y41714851D01*
X26805835Y41714851D02*
X26920121Y41600566D01*
X26920121Y41600566D02*
X26977264Y41486280D01*
X26634406Y42571994D02*
X26634406Y43314851D01*
X26634406Y43314851D02*
X27091549Y42914851D01*
X27091549Y42914851D02*
X27091549Y43086280D01*
X27091549Y43086280D02*
X27148692Y43200565D01*
X27148692Y43200565D02*
X27205835Y43257708D01*
X27205835Y43257708D02*
X27320121Y43314851D01*
X27320121Y43314851D02*
X27605835Y43314851D01*
X27605835Y43314851D02*
X27720121Y43257708D01*
X27720121Y43257708D02*
X27777264Y43200565D01*
X27777264Y43200565D02*
X27834406Y43086280D01*
X27834406Y43086280D02*
X27834406Y42743423D01*
X27834406Y42743423D02*
X27777264Y42629137D01*
X27777264Y42629137D02*
X27720121Y42571994D01*
X43800000Y10339258D02*
X43800000Y11539258D01*
X43800000Y11539258D02*
X44257143Y11539258D01*
X44257143Y11539258D02*
X44371428Y11482115D01*
X44371428Y11482115D02*
X44428571Y11424972D01*
X44428571Y11424972D02*
X44485714Y11310686D01*
X44485714Y11310686D02*
X44485714Y11139258D01*
X44485714Y11139258D02*
X44428571Y11024972D01*
X44428571Y11024972D02*
X44371428Y10967829D01*
X44371428Y10967829D02*
X44257143Y10910686D01*
X44257143Y10910686D02*
X43800000Y10910686D01*
X44885714Y11539258D02*
X45171428Y10339258D01*
X45171428Y10339258D02*
X45400000Y11196400D01*
X45400000Y11196400D02*
X45628571Y10339258D01*
X45628571Y10339258D02*
X45914286Y11539258D01*
X47057143Y10339258D02*
X46657143Y10910686D01*
X46371429Y10339258D02*
X46371429Y11539258D01*
X46371429Y11539258D02*
X46828572Y11539258D01*
X46828572Y11539258D02*
X46942857Y11482115D01*
X46942857Y11482115D02*
X47000000Y11424972D01*
X47000000Y11424972D02*
X47057143Y11310686D01*
X47057143Y11310686D02*
X47057143Y11139258D01*
X47057143Y11139258D02*
X47000000Y11024972D01*
X47000000Y11024972D02*
X46942857Y10967829D01*
X46942857Y10967829D02*
X46828572Y10910686D01*
X46828572Y10910686D02*
X46371429Y10910686D01*
X43971428Y9607258D02*
X44714285Y9607258D01*
X44714285Y9607258D02*
X44314285Y9150115D01*
X44314285Y9150115D02*
X44485714Y9150115D01*
X44485714Y9150115D02*
X44600000Y9092972D01*
X44600000Y9092972D02*
X44657142Y9035829D01*
X44657142Y9035829D02*
X44714285Y8921543D01*
X44714285Y8921543D02*
X44714285Y8635829D01*
X44714285Y8635829D02*
X44657142Y8521543D01*
X44657142Y8521543D02*
X44600000Y8464400D01*
X44600000Y8464400D02*
X44485714Y8407258D01*
X44485714Y8407258D02*
X44142857Y8407258D01*
X44142857Y8407258D02*
X44028571Y8464400D01*
X44028571Y8464400D02*
X43971428Y8521543D01*
X45114285Y9207258D02*
X45399999Y8407258D01*
X45399999Y8407258D02*
X45685714Y9207258D01*
X46028571Y9607258D02*
X46771428Y9607258D01*
X46771428Y9607258D02*
X46371428Y9150115D01*
X46371428Y9150115D02*
X46542857Y9150115D01*
X46542857Y9150115D02*
X46657143Y9092972D01*
X46657143Y9092972D02*
X46714285Y9035829D01*
X46714285Y9035829D02*
X46771428Y8921543D01*
X46771428Y8921543D02*
X46771428Y8635829D01*
X46771428Y8635829D02*
X46714285Y8521543D01*
X46714285Y8521543D02*
X46657143Y8464400D01*
X46657143Y8464400D02*
X46542857Y8407258D01*
X46542857Y8407258D02*
X46200000Y8407258D01*
X46200000Y8407258D02*
X46085714Y8464400D01*
X46085714Y8464400D02*
X46028571Y8521543D01*
X13995863Y22950115D02*
X13881578Y23007258D01*
X13881578Y23007258D02*
X13710149Y23007258D01*
X13710149Y23007258D02*
X13538720Y22950115D01*
X13538720Y22950115D02*
X13424435Y22835829D01*
X13424435Y22835829D02*
X13367292Y22721543D01*
X13367292Y22721543D02*
X13310149Y22492972D01*
X13310149Y22492972D02*
X13310149Y22321543D01*
X13310149Y22321543D02*
X13367292Y22092972D01*
X13367292Y22092972D02*
X13424435Y21978686D01*
X13424435Y21978686D02*
X13538720Y21864400D01*
X13538720Y21864400D02*
X13710149Y21807258D01*
X13710149Y21807258D02*
X13824435Y21807258D01*
X13824435Y21807258D02*
X13995863Y21864400D01*
X13995863Y21864400D02*
X14053006Y21921543D01*
X14053006Y21921543D02*
X14053006Y22321543D01*
X14053006Y22321543D02*
X13824435Y22321543D01*
X14567292Y21807258D02*
X14567292Y23007258D01*
X14567292Y23007258D02*
X15024435Y23007258D01*
X15024435Y23007258D02*
X15138720Y22950115D01*
X15138720Y22950115D02*
X15195863Y22892972D01*
X15195863Y22892972D02*
X15253006Y22778686D01*
X15253006Y22778686D02*
X15253006Y22607258D01*
X15253006Y22607258D02*
X15195863Y22492972D01*
X15195863Y22492972D02*
X15138720Y22435829D01*
X15138720Y22435829D02*
X15024435Y22378686D01*
X15024435Y22378686D02*
X14567292Y22378686D01*
X15995863Y23007258D02*
X16110149Y23007258D01*
X16110149Y23007258D02*
X16224435Y22950115D01*
X16224435Y22950115D02*
X16281578Y22892972D01*
X16281578Y22892972D02*
X16338720Y22778686D01*
X16338720Y22778686D02*
X16395863Y22550115D01*
X16395863Y22550115D02*
X16395863Y22264400D01*
X16395863Y22264400D02*
X16338720Y22035829D01*
X16338720Y22035829D02*
X16281578Y21921543D01*
X16281578Y21921543D02*
X16224435Y21864400D01*
X16224435Y21864400D02*
X16110149Y21807258D01*
X16110149Y21807258D02*
X15995863Y21807258D01*
X15995863Y21807258D02*
X15881578Y21864400D01*
X15881578Y21864400D02*
X15824435Y21921543D01*
X15824435Y21921543D02*
X15767292Y22035829D01*
X15767292Y22035829D02*
X15710149Y22264400D01*
X15710149Y22264400D02*
X15710149Y22550115D01*
X15710149Y22550115D02*
X15767292Y22778686D01*
X15767292Y22778686D02*
X15824435Y22892972D01*
X15824435Y22892972D02*
X15881578Y22950115D01*
X15881578Y22950115D02*
X15995863Y23007258D01*
D10*
X49700312Y14877581D02*
X49366979Y15353772D01*
X49128884Y14877581D02*
X49128884Y15877581D01*
X49128884Y15877581D02*
X49509836Y15877581D01*
X49509836Y15877581D02*
X49605074Y15829962D01*
X49605074Y15829962D02*
X49652693Y15782343D01*
X49652693Y15782343D02*
X49700312Y15687105D01*
X49700312Y15687105D02*
X49700312Y15544248D01*
X49700312Y15544248D02*
X49652693Y15449010D01*
X49652693Y15449010D02*
X49605074Y15401391D01*
X49605074Y15401391D02*
X49509836Y15353772D01*
X49509836Y15353772D02*
X49128884Y15353772D01*
X50128884Y15401391D02*
X50462217Y15401391D01*
X50605074Y14877581D02*
X50128884Y14877581D01*
X50128884Y14877581D02*
X50128884Y15877581D01*
X50128884Y15877581D02*
X50605074Y15877581D01*
X50986027Y14925200D02*
X51128884Y14877581D01*
X51128884Y14877581D02*
X51366979Y14877581D01*
X51366979Y14877581D02*
X51462217Y14925200D01*
X51462217Y14925200D02*
X51509836Y14972820D01*
X51509836Y14972820D02*
X51557455Y15068058D01*
X51557455Y15068058D02*
X51557455Y15163296D01*
X51557455Y15163296D02*
X51509836Y15258534D01*
X51509836Y15258534D02*
X51462217Y15306153D01*
X51462217Y15306153D02*
X51366979Y15353772D01*
X51366979Y15353772D02*
X51176503Y15401391D01*
X51176503Y15401391D02*
X51081265Y15449010D01*
X51081265Y15449010D02*
X51033646Y15496629D01*
X51033646Y15496629D02*
X50986027Y15591867D01*
X50986027Y15591867D02*
X50986027Y15687105D01*
X50986027Y15687105D02*
X51033646Y15782343D01*
X51033646Y15782343D02*
X51081265Y15829962D01*
X51081265Y15829962D02*
X51176503Y15877581D01*
X51176503Y15877581D02*
X51414598Y15877581D01*
X51414598Y15877581D02*
X51557455Y15829962D01*
X51986027Y15401391D02*
X52319360Y15401391D01*
X52462217Y14877581D02*
X51986027Y14877581D01*
X51986027Y14877581D02*
X51986027Y15877581D01*
X51986027Y15877581D02*
X52462217Y15877581D01*
X52747932Y15877581D02*
X53319360Y15877581D01*
X53033646Y14877581D02*
X53033646Y15877581D01*
D11*
X13424435Y44757258D02*
X13653006Y44757258D01*
X13653006Y44757258D02*
X13767292Y44814400D01*
X13767292Y44814400D02*
X13824435Y44871543D01*
X13824435Y44871543D02*
X13938720Y45042972D01*
X13938720Y45042972D02*
X13995863Y45271543D01*
X13995863Y45271543D02*
X13995863Y45728686D01*
X13995863Y45728686D02*
X13938720Y45842972D01*
X13938720Y45842972D02*
X13881578Y45900115D01*
X13881578Y45900115D02*
X13767292Y45957258D01*
X13767292Y45957258D02*
X13538720Y45957258D01*
X13538720Y45957258D02*
X13424435Y45900115D01*
X13424435Y45900115D02*
X13367292Y45842972D01*
X13367292Y45842972D02*
X13310149Y45728686D01*
X13310149Y45728686D02*
X13310149Y45442972D01*
X13310149Y45442972D02*
X13367292Y45328686D01*
X13367292Y45328686D02*
X13424435Y45271543D01*
X13424435Y45271543D02*
X13538720Y45214400D01*
X13538720Y45214400D02*
X13767292Y45214400D01*
X13767292Y45214400D02*
X13881578Y45271543D01*
X13881578Y45271543D02*
X13938720Y45328686D01*
X13938720Y45328686D02*
X13995863Y45442972D01*
X44521993Y27900115D02*
X44407708Y27957258D01*
X44407708Y27957258D02*
X44236279Y27957258D01*
X44236279Y27957258D02*
X44064850Y27900115D01*
X44064850Y27900115D02*
X43950565Y27785829D01*
X43950565Y27785829D02*
X43893422Y27671543D01*
X43893422Y27671543D02*
X43836279Y27442972D01*
X43836279Y27442972D02*
X43836279Y27271543D01*
X43836279Y27271543D02*
X43893422Y27042972D01*
X43893422Y27042972D02*
X43950565Y26928686D01*
X43950565Y26928686D02*
X44064850Y26814400D01*
X44064850Y26814400D02*
X44236279Y26757258D01*
X44236279Y26757258D02*
X44350565Y26757258D01*
X44350565Y26757258D02*
X44521993Y26814400D01*
X44521993Y26814400D02*
X44579136Y26871543D01*
X44579136Y26871543D02*
X44579136Y27271543D01*
X44579136Y27271543D02*
X44350565Y27271543D01*
X45093422Y26757258D02*
X45093422Y27957258D01*
X45093422Y27957258D02*
X45550565Y27957258D01*
X45550565Y27957258D02*
X45664850Y27900115D01*
X45664850Y27900115D02*
X45721993Y27842972D01*
X45721993Y27842972D02*
X45779136Y27728686D01*
X45779136Y27728686D02*
X45779136Y27557258D01*
X45779136Y27557258D02*
X45721993Y27442972D01*
X45721993Y27442972D02*
X45664850Y27385829D01*
X45664850Y27385829D02*
X45550565Y27328686D01*
X45550565Y27328686D02*
X45093422Y27328686D01*
X46236279Y27842972D02*
X46293422Y27900115D01*
X46293422Y27900115D02*
X46407708Y27957258D01*
X46407708Y27957258D02*
X46693422Y27957258D01*
X46693422Y27957258D02*
X46807708Y27900115D01*
X46807708Y27900115D02*
X46864850Y27842972D01*
X46864850Y27842972D02*
X46921993Y27728686D01*
X46921993Y27728686D02*
X46921993Y27614400D01*
X46921993Y27614400D02*
X46864850Y27442972D01*
X46864850Y27442972D02*
X46179136Y26757258D01*
X46179136Y26757258D02*
X46921993Y26757258D01*
X47321993Y27957258D02*
X48121993Y27957258D01*
X48121993Y27957258D02*
X47607707Y26757258D01*
X19074885Y39771994D02*
X19017742Y39657708D01*
X19017742Y39657708D02*
X19017742Y39486280D01*
X19017742Y39486280D02*
X19074885Y39314851D01*
X19074885Y39314851D02*
X19189171Y39200566D01*
X19189171Y39200566D02*
X19303457Y39143423D01*
X19303457Y39143423D02*
X19532028Y39086280D01*
X19532028Y39086280D02*
X19703457Y39086280D01*
X19703457Y39086280D02*
X19932028Y39143423D01*
X19932028Y39143423D02*
X20046314Y39200566D01*
X20046314Y39200566D02*
X20160600Y39314851D01*
X20160600Y39314851D02*
X20217742Y39486280D01*
X20217742Y39486280D02*
X20217742Y39600566D01*
X20217742Y39600566D02*
X20160600Y39771994D01*
X20160600Y39771994D02*
X20103457Y39829137D01*
X20103457Y39829137D02*
X19703457Y39829137D01*
X19703457Y39829137D02*
X19703457Y39600566D01*
X20217742Y40343423D02*
X19017742Y40343423D01*
X19017742Y40343423D02*
X19017742Y40800566D01*
X19017742Y40800566D02*
X19074885Y40914851D01*
X19074885Y40914851D02*
X19132028Y40971994D01*
X19132028Y40971994D02*
X19246314Y41029137D01*
X19246314Y41029137D02*
X19417742Y41029137D01*
X19417742Y41029137D02*
X19532028Y40971994D01*
X19532028Y40971994D02*
X19589171Y40914851D01*
X19589171Y40914851D02*
X19646314Y40800566D01*
X19646314Y40800566D02*
X19646314Y40343423D01*
X20217742Y42171994D02*
X20217742Y41486280D01*
X20217742Y41829137D02*
X19017742Y41829137D01*
X19017742Y41829137D02*
X19189171Y41714851D01*
X19189171Y41714851D02*
X19303457Y41600566D01*
X19303457Y41600566D02*
X19360600Y41486280D01*
X19017742Y42914851D02*
X19017742Y43029137D01*
X19017742Y43029137D02*
X19074885Y43143423D01*
X19074885Y43143423D02*
X19132028Y43200565D01*
X19132028Y43200565D02*
X19246314Y43257708D01*
X19246314Y43257708D02*
X19474885Y43314851D01*
X19474885Y43314851D02*
X19760600Y43314851D01*
X19760600Y43314851D02*
X19989171Y43257708D01*
X19989171Y43257708D02*
X20103457Y43200565D01*
X20103457Y43200565D02*
X20160600Y43143423D01*
X20160600Y43143423D02*
X20217742Y43029137D01*
X20217742Y43029137D02*
X20217742Y42914851D01*
X20217742Y42914851D02*
X20160600Y42800565D01*
X20160600Y42800565D02*
X20103457Y42743423D01*
X20103457Y42743423D02*
X19989171Y42686280D01*
X19989171Y42686280D02*
X19760600Y42629137D01*
X19760600Y42629137D02*
X19474885Y42629137D01*
X19474885Y42629137D02*
X19246314Y42686280D01*
X19246314Y42686280D02*
X19132028Y42743423D01*
X19132028Y42743423D02*
X19074885Y42800565D01*
X19074885Y42800565D02*
X19017742Y42914851D01*
X21613773Y39771994D02*
X21556630Y39657708D01*
X21556630Y39657708D02*
X21556630Y39486280D01*
X21556630Y39486280D02*
X21613773Y39314851D01*
X21613773Y39314851D02*
X21728059Y39200566D01*
X21728059Y39200566D02*
X21842345Y39143423D01*
X21842345Y39143423D02*
X22070916Y39086280D01*
X22070916Y39086280D02*
X22242345Y39086280D01*
X22242345Y39086280D02*
X22470916Y39143423D01*
X22470916Y39143423D02*
X22585202Y39200566D01*
X22585202Y39200566D02*
X22699488Y39314851D01*
X22699488Y39314851D02*
X22756630Y39486280D01*
X22756630Y39486280D02*
X22756630Y39600566D01*
X22756630Y39600566D02*
X22699488Y39771994D01*
X22699488Y39771994D02*
X22642345Y39829137D01*
X22642345Y39829137D02*
X22242345Y39829137D01*
X22242345Y39829137D02*
X22242345Y39600566D01*
X22756630Y40343423D02*
X21556630Y40343423D01*
X21556630Y40343423D02*
X21556630Y40800566D01*
X21556630Y40800566D02*
X21613773Y40914851D01*
X21613773Y40914851D02*
X21670916Y40971994D01*
X21670916Y40971994D02*
X21785202Y41029137D01*
X21785202Y41029137D02*
X21956630Y41029137D01*
X21956630Y41029137D02*
X22070916Y40971994D01*
X22070916Y40971994D02*
X22128059Y40914851D01*
X22128059Y40914851D02*
X22185202Y40800566D01*
X22185202Y40800566D02*
X22185202Y40343423D01*
X22756630Y42171994D02*
X22756630Y41486280D01*
X22756630Y41829137D02*
X21556630Y41829137D01*
X21556630Y41829137D02*
X21728059Y41714851D01*
X21728059Y41714851D02*
X21842345Y41600566D01*
X21842345Y41600566D02*
X21899488Y41486280D01*
X22756630Y43314851D02*
X22756630Y42629137D01*
X22756630Y42971994D02*
X21556630Y42971994D01*
X21556630Y42971994D02*
X21728059Y42857708D01*
X21728059Y42857708D02*
X21842345Y42743423D01*
X21842345Y42743423D02*
X21899488Y42629137D01*
X33369673Y53057781D02*
X33369673Y54057781D01*
X33798244Y53962543D02*
X33845863Y54010162D01*
X33845863Y54010162D02*
X33941101Y54057781D01*
X33941101Y54057781D02*
X34179196Y54057781D01*
X34179196Y54057781D02*
X34274434Y54010162D01*
X34274434Y54010162D02*
X34322053Y53962543D01*
X34322053Y53962543D02*
X34369672Y53867305D01*
X34369672Y53867305D02*
X34369672Y53772067D01*
X34369672Y53772067D02*
X34322053Y53629210D01*
X34322053Y53629210D02*
X33750625Y53057781D01*
X33750625Y53057781D02*
X34369672Y53057781D01*
X35369672Y53153020D02*
X35322053Y53105400D01*
X35322053Y53105400D02*
X35179196Y53057781D01*
X35179196Y53057781D02*
X35083958Y53057781D01*
X35083958Y53057781D02*
X34941101Y53105400D01*
X34941101Y53105400D02*
X34845863Y53200639D01*
X34845863Y53200639D02*
X34798244Y53295877D01*
X34798244Y53295877D02*
X34750625Y53486353D01*
X34750625Y53486353D02*
X34750625Y53629210D01*
X34750625Y53629210D02*
X34798244Y53819686D01*
X34798244Y53819686D02*
X34845863Y53914924D01*
X34845863Y53914924D02*
X34941101Y54010162D01*
X34941101Y54010162D02*
X35083958Y54057781D01*
X35083958Y54057781D02*
X35179196Y54057781D01*
X35179196Y54057781D02*
X35322053Y54010162D01*
X35322053Y54010162D02*
X35369672Y53962543D01*
X29230437Y39771994D02*
X29173294Y39657708D01*
X29173294Y39657708D02*
X29173294Y39486280D01*
X29173294Y39486280D02*
X29230437Y39314851D01*
X29230437Y39314851D02*
X29344723Y39200566D01*
X29344723Y39200566D02*
X29459009Y39143423D01*
X29459009Y39143423D02*
X29687580Y39086280D01*
X29687580Y39086280D02*
X29859009Y39086280D01*
X29859009Y39086280D02*
X30087580Y39143423D01*
X30087580Y39143423D02*
X30201866Y39200566D01*
X30201866Y39200566D02*
X30316152Y39314851D01*
X30316152Y39314851D02*
X30373294Y39486280D01*
X30373294Y39486280D02*
X30373294Y39600566D01*
X30373294Y39600566D02*
X30316152Y39771994D01*
X30316152Y39771994D02*
X30259009Y39829137D01*
X30259009Y39829137D02*
X29859009Y39829137D01*
X29859009Y39829137D02*
X29859009Y39600566D01*
X30373294Y40343423D02*
X29173294Y40343423D01*
X29173294Y40343423D02*
X29173294Y40800566D01*
X29173294Y40800566D02*
X29230437Y40914851D01*
X29230437Y40914851D02*
X29287580Y40971994D01*
X29287580Y40971994D02*
X29401866Y41029137D01*
X29401866Y41029137D02*
X29573294Y41029137D01*
X29573294Y41029137D02*
X29687580Y40971994D01*
X29687580Y40971994D02*
X29744723Y40914851D01*
X29744723Y40914851D02*
X29801866Y40800566D01*
X29801866Y40800566D02*
X29801866Y40343423D01*
X30373294Y42171994D02*
X30373294Y41486280D01*
X30373294Y41829137D02*
X29173294Y41829137D01*
X29173294Y41829137D02*
X29344723Y41714851D01*
X29344723Y41714851D02*
X29459009Y41600566D01*
X29459009Y41600566D02*
X29516152Y41486280D01*
X29573294Y43200565D02*
X30373294Y43200565D01*
X29116152Y42914851D02*
X29973294Y42629137D01*
X29973294Y42629137D02*
X29973294Y43371994D01*
X17294673Y7732781D02*
X17294673Y6923258D01*
X17294673Y6923258D02*
X17342292Y6828020D01*
X17342292Y6828020D02*
X17389911Y6780400D01*
X17389911Y6780400D02*
X17485149Y6732781D01*
X17485149Y6732781D02*
X17675625Y6732781D01*
X17675625Y6732781D02*
X17770863Y6780400D01*
X17770863Y6780400D02*
X17818482Y6828020D01*
X17818482Y6828020D02*
X17866101Y6923258D01*
X17866101Y6923258D02*
X17866101Y7732781D01*
X18294673Y6780400D02*
X18437530Y6732781D01*
X18437530Y6732781D02*
X18675625Y6732781D01*
X18675625Y6732781D02*
X18770863Y6780400D01*
X18770863Y6780400D02*
X18818482Y6828020D01*
X18818482Y6828020D02*
X18866101Y6923258D01*
X18866101Y6923258D02*
X18866101Y7018496D01*
X18866101Y7018496D02*
X18818482Y7113734D01*
X18818482Y7113734D02*
X18770863Y7161353D01*
X18770863Y7161353D02*
X18675625Y7208972D01*
X18675625Y7208972D02*
X18485149Y7256591D01*
X18485149Y7256591D02*
X18389911Y7304210D01*
X18389911Y7304210D02*
X18342292Y7351829D01*
X18342292Y7351829D02*
X18294673Y7447067D01*
X18294673Y7447067D02*
X18294673Y7542305D01*
X18294673Y7542305D02*
X18342292Y7637543D01*
X18342292Y7637543D02*
X18389911Y7685162D01*
X18389911Y7685162D02*
X18485149Y7732781D01*
X18485149Y7732781D02*
X18723244Y7732781D01*
X18723244Y7732781D02*
X18866101Y7685162D01*
X19628006Y7256591D02*
X19770863Y7208972D01*
X19770863Y7208972D02*
X19818482Y7161353D01*
X19818482Y7161353D02*
X19866101Y7066115D01*
X19866101Y7066115D02*
X19866101Y6923258D01*
X19866101Y6923258D02*
X19818482Y6828020D01*
X19818482Y6828020D02*
X19770863Y6780400D01*
X19770863Y6780400D02*
X19675625Y6732781D01*
X19675625Y6732781D02*
X19294673Y6732781D01*
X19294673Y6732781D02*
X19294673Y7732781D01*
X19294673Y7732781D02*
X19628006Y7732781D01*
X19628006Y7732781D02*
X19723244Y7685162D01*
X19723244Y7685162D02*
X19770863Y7637543D01*
X19770863Y7637543D02*
X19818482Y7542305D01*
X19818482Y7542305D02*
X19818482Y7447067D01*
X19818482Y7447067D02*
X19770863Y7351829D01*
X19770863Y7351829D02*
X19723244Y7304210D01*
X19723244Y7304210D02*
X19628006Y7256591D01*
X19628006Y7256591D02*
X19294673Y7256591D01*
X20294673Y7113734D02*
X21056578Y7113734D01*
X22104196Y6828020D02*
X22056577Y6780400D01*
X22056577Y6780400D02*
X21913720Y6732781D01*
X21913720Y6732781D02*
X21818482Y6732781D01*
X21818482Y6732781D02*
X21675625Y6780400D01*
X21675625Y6780400D02*
X21580387Y6875639D01*
X21580387Y6875639D02*
X21532768Y6970877D01*
X21532768Y6970877D02*
X21485149Y7161353D01*
X21485149Y7161353D02*
X21485149Y7304210D01*
X21485149Y7304210D02*
X21532768Y7494686D01*
X21532768Y7494686D02*
X21580387Y7589924D01*
X21580387Y7589924D02*
X21675625Y7685162D01*
X21675625Y7685162D02*
X21818482Y7732781D01*
X21818482Y7732781D02*
X21913720Y7732781D01*
X21913720Y7732781D02*
X22056577Y7685162D01*
X22056577Y7685162D02*
X22104196Y7637543D01*
D12*
X35951064Y36718800D02*
X36065350Y36680705D01*
X36065350Y36680705D02*
X36255826Y36680705D01*
X36255826Y36680705D02*
X36332017Y36718800D01*
X36332017Y36718800D02*
X36370112Y36756896D01*
X36370112Y36756896D02*
X36408207Y36833086D01*
X36408207Y36833086D02*
X36408207Y36909277D01*
X36408207Y36909277D02*
X36370112Y36985467D01*
X36370112Y36985467D02*
X36332017Y37023562D01*
X36332017Y37023562D02*
X36255826Y37061658D01*
X36255826Y37061658D02*
X36103445Y37099753D01*
X36103445Y37099753D02*
X36027255Y37137848D01*
X36027255Y37137848D02*
X35989160Y37175943D01*
X35989160Y37175943D02*
X35951064Y37252134D01*
X35951064Y37252134D02*
X35951064Y37328324D01*
X35951064Y37328324D02*
X35989160Y37404515D01*
X35989160Y37404515D02*
X36027255Y37442610D01*
X36027255Y37442610D02*
X36103445Y37480705D01*
X36103445Y37480705D02*
X36293922Y37480705D01*
X36293922Y37480705D02*
X36408207Y37442610D01*
X37208208Y36756896D02*
X37170112Y36718800D01*
X37170112Y36718800D02*
X37055827Y36680705D01*
X37055827Y36680705D02*
X36979636Y36680705D01*
X36979636Y36680705D02*
X36865350Y36718800D01*
X36865350Y36718800D02*
X36789160Y36794991D01*
X36789160Y36794991D02*
X36751065Y36871181D01*
X36751065Y36871181D02*
X36712969Y37023562D01*
X36712969Y37023562D02*
X36712969Y37137848D01*
X36712969Y37137848D02*
X36751065Y37290229D01*
X36751065Y37290229D02*
X36789160Y37366420D01*
X36789160Y37366420D02*
X36865350Y37442610D01*
X36865350Y37442610D02*
X36979636Y37480705D01*
X36979636Y37480705D02*
X37055827Y37480705D01*
X37055827Y37480705D02*
X37170112Y37442610D01*
X37170112Y37442610D02*
X37208208Y37404515D01*
X37932017Y36680705D02*
X37551065Y36680705D01*
X37551065Y36680705D02*
X37551065Y37480705D01*
X38198684Y36680705D02*
X38198684Y37480705D01*
X38655827Y36680705D02*
X38312969Y37137848D01*
X38655827Y37480705D02*
X38198684Y37023562D01*
X39570112Y36718800D02*
X39684398Y36680705D01*
X39684398Y36680705D02*
X39874874Y36680705D01*
X39874874Y36680705D02*
X39951065Y36718800D01*
X39951065Y36718800D02*
X39989160Y36756896D01*
X39989160Y36756896D02*
X40027255Y36833086D01*
X40027255Y36833086D02*
X40027255Y36909277D01*
X40027255Y36909277D02*
X39989160Y36985467D01*
X39989160Y36985467D02*
X39951065Y37023562D01*
X39951065Y37023562D02*
X39874874Y37061658D01*
X39874874Y37061658D02*
X39722493Y37099753D01*
X39722493Y37099753D02*
X39646303Y37137848D01*
X39646303Y37137848D02*
X39608208Y37175943D01*
X39608208Y37175943D02*
X39570112Y37252134D01*
X39570112Y37252134D02*
X39570112Y37328324D01*
X39570112Y37328324D02*
X39608208Y37404515D01*
X39608208Y37404515D02*
X39646303Y37442610D01*
X39646303Y37442610D02*
X39722493Y37480705D01*
X39722493Y37480705D02*
X39912970Y37480705D01*
X39912970Y37480705D02*
X40027255Y37442610D01*
X40293922Y37480705D02*
X40484398Y36680705D01*
X40484398Y36680705D02*
X40636779Y37252134D01*
X40636779Y37252134D02*
X40789160Y36680705D01*
X40789160Y36680705D02*
X40979637Y37480705D01*
X41284399Y36680705D02*
X41284399Y37480705D01*
X41284399Y37480705D02*
X41474875Y37480705D01*
X41474875Y37480705D02*
X41589161Y37442610D01*
X41589161Y37442610D02*
X41665351Y37366420D01*
X41665351Y37366420D02*
X41703446Y37290229D01*
X41703446Y37290229D02*
X41741542Y37137848D01*
X41741542Y37137848D02*
X41741542Y37023562D01*
X41741542Y37023562D02*
X41703446Y36871181D01*
X41703446Y36871181D02*
X41665351Y36794991D01*
X41665351Y36794991D02*
X41589161Y36718800D01*
X41589161Y36718800D02*
X41474875Y36680705D01*
X41474875Y36680705D02*
X41284399Y36680705D01*
D11*
X40528846Y42171994D02*
X40528846Y41486280D01*
X40528846Y41829137D02*
X39328846Y41829137D01*
X39328846Y41829137D02*
X39500275Y41714851D01*
X39500275Y41714851D02*
X39614561Y41600566D01*
X39614561Y41600566D02*
X39671704Y41486280D01*
X39843132Y42857708D02*
X39785989Y42743423D01*
X39785989Y42743423D02*
X39728846Y42686280D01*
X39728846Y42686280D02*
X39614561Y42629137D01*
X39614561Y42629137D02*
X39557418Y42629137D01*
X39557418Y42629137D02*
X39443132Y42686280D01*
X39443132Y42686280D02*
X39385989Y42743423D01*
X39385989Y42743423D02*
X39328846Y42857708D01*
X39328846Y42857708D02*
X39328846Y43086280D01*
X39328846Y43086280D02*
X39385989Y43200565D01*
X39385989Y43200565D02*
X39443132Y43257708D01*
X39443132Y43257708D02*
X39557418Y43314851D01*
X39557418Y43314851D02*
X39614561Y43314851D01*
X39614561Y43314851D02*
X39728846Y43257708D01*
X39728846Y43257708D02*
X39785989Y43200565D01*
X39785989Y43200565D02*
X39843132Y43086280D01*
X39843132Y43086280D02*
X39843132Y42857708D01*
X39843132Y42857708D02*
X39900275Y42743423D01*
X39900275Y42743423D02*
X39957418Y42686280D01*
X39957418Y42686280D02*
X40071704Y42629137D01*
X40071704Y42629137D02*
X40300275Y42629137D01*
X40300275Y42629137D02*
X40414561Y42686280D01*
X40414561Y42686280D02*
X40471704Y42743423D01*
X40471704Y42743423D02*
X40528846Y42857708D01*
X40528846Y42857708D02*
X40528846Y43086280D01*
X40528846Y43086280D02*
X40471704Y43200565D01*
X40471704Y43200565D02*
X40414561Y43257708D01*
X40414561Y43257708D02*
X40300275Y43314851D01*
X40300275Y43314851D02*
X40071704Y43314851D01*
X40071704Y43314851D02*
X39957418Y43257708D01*
X39957418Y43257708D02*
X39900275Y43200565D01*
X39900275Y43200565D02*
X39843132Y43086280D01*
X44521993Y22800115D02*
X44407708Y22857258D01*
X44407708Y22857258D02*
X44236279Y22857258D01*
X44236279Y22857258D02*
X44064850Y22800115D01*
X44064850Y22800115D02*
X43950565Y22685829D01*
X43950565Y22685829D02*
X43893422Y22571543D01*
X43893422Y22571543D02*
X43836279Y22342972D01*
X43836279Y22342972D02*
X43836279Y22171543D01*
X43836279Y22171543D02*
X43893422Y21942972D01*
X43893422Y21942972D02*
X43950565Y21828686D01*
X43950565Y21828686D02*
X44064850Y21714400D01*
X44064850Y21714400D02*
X44236279Y21657258D01*
X44236279Y21657258D02*
X44350565Y21657258D01*
X44350565Y21657258D02*
X44521993Y21714400D01*
X44521993Y21714400D02*
X44579136Y21771543D01*
X44579136Y21771543D02*
X44579136Y22171543D01*
X44579136Y22171543D02*
X44350565Y22171543D01*
X45093422Y21657258D02*
X45093422Y22857258D01*
X45093422Y22857258D02*
X45550565Y22857258D01*
X45550565Y22857258D02*
X45664850Y22800115D01*
X45664850Y22800115D02*
X45721993Y22742972D01*
X45721993Y22742972D02*
X45779136Y22628686D01*
X45779136Y22628686D02*
X45779136Y22457258D01*
X45779136Y22457258D02*
X45721993Y22342972D01*
X45721993Y22342972D02*
X45664850Y22285829D01*
X45664850Y22285829D02*
X45550565Y22228686D01*
X45550565Y22228686D02*
X45093422Y22228686D01*
X46236279Y22742972D02*
X46293422Y22800115D01*
X46293422Y22800115D02*
X46407708Y22857258D01*
X46407708Y22857258D02*
X46693422Y22857258D01*
X46693422Y22857258D02*
X46807708Y22800115D01*
X46807708Y22800115D02*
X46864850Y22742972D01*
X46864850Y22742972D02*
X46921993Y22628686D01*
X46921993Y22628686D02*
X46921993Y22514400D01*
X46921993Y22514400D02*
X46864850Y22342972D01*
X46864850Y22342972D02*
X46179136Y21657258D01*
X46179136Y21657258D02*
X46921993Y21657258D01*
X47493422Y21657258D02*
X47721993Y21657258D01*
X47721993Y21657258D02*
X47836279Y21714400D01*
X47836279Y21714400D02*
X47893422Y21771543D01*
X47893422Y21771543D02*
X48007707Y21942972D01*
X48007707Y21942972D02*
X48064850Y22171543D01*
X48064850Y22171543D02*
X48064850Y22628686D01*
X48064850Y22628686D02*
X48007707Y22742972D01*
X48007707Y22742972D02*
X47950565Y22800115D01*
X47950565Y22800115D02*
X47836279Y22857258D01*
X47836279Y22857258D02*
X47607707Y22857258D01*
X47607707Y22857258D02*
X47493422Y22800115D01*
X47493422Y22800115D02*
X47436279Y22742972D01*
X47436279Y22742972D02*
X47379136Y22628686D01*
X47379136Y22628686D02*
X47379136Y22342972D01*
X47379136Y22342972D02*
X47436279Y22228686D01*
X47436279Y22228686D02*
X47493422Y22171543D01*
X47493422Y22171543D02*
X47607707Y22114400D01*
X47607707Y22114400D02*
X47836279Y22114400D01*
X47836279Y22114400D02*
X47950565Y22171543D01*
X47950565Y22171543D02*
X48007707Y22228686D01*
X48007707Y22228686D02*
X48064850Y22342972D01*
X17124885Y40700565D02*
X17067742Y40586279D01*
X17067742Y40586279D02*
X17067742Y40414851D01*
X17067742Y40414851D02*
X17124885Y40243422D01*
X17124885Y40243422D02*
X17239171Y40129137D01*
X17239171Y40129137D02*
X17353457Y40071994D01*
X17353457Y40071994D02*
X17582028Y40014851D01*
X17582028Y40014851D02*
X17753457Y40014851D01*
X17753457Y40014851D02*
X17982028Y40071994D01*
X17982028Y40071994D02*
X18096314Y40129137D01*
X18096314Y40129137D02*
X18210600Y40243422D01*
X18210600Y40243422D02*
X18267742Y40414851D01*
X18267742Y40414851D02*
X18267742Y40529137D01*
X18267742Y40529137D02*
X18210600Y40700565D01*
X18210600Y40700565D02*
X18153457Y40757708D01*
X18153457Y40757708D02*
X17753457Y40757708D01*
X17753457Y40757708D02*
X17753457Y40529137D01*
X18267742Y41271994D02*
X17067742Y41271994D01*
X17067742Y41271994D02*
X18267742Y41957708D01*
X18267742Y41957708D02*
X17067742Y41957708D01*
X18267742Y42529137D02*
X17067742Y42529137D01*
X17067742Y42529137D02*
X17067742Y42814851D01*
X17067742Y42814851D02*
X17124885Y42986280D01*
X17124885Y42986280D02*
X17239171Y43100565D01*
X17239171Y43100565D02*
X17353457Y43157708D01*
X17353457Y43157708D02*
X17582028Y43214851D01*
X17582028Y43214851D02*
X17753457Y43214851D01*
X17753457Y43214851D02*
X17982028Y43157708D01*
X17982028Y43157708D02*
X18096314Y43100565D01*
X18096314Y43100565D02*
X18210600Y42986280D01*
X18210600Y42986280D02*
X18267742Y42814851D01*
X18267742Y42814851D02*
X18267742Y42529137D01*
D13*
X24714287Y28719072D02*
X24214287Y29433358D01*
X23857144Y28719072D02*
X23857144Y30219072D01*
X23857144Y30219072D02*
X24428573Y30219072D01*
X24428573Y30219072D02*
X24571430Y30147643D01*
X24571430Y30147643D02*
X24642859Y30076215D01*
X24642859Y30076215D02*
X24714287Y29933358D01*
X24714287Y29933358D02*
X24714287Y29719072D01*
X24714287Y29719072D02*
X24642859Y29576215D01*
X24642859Y29576215D02*
X24571430Y29504786D01*
X24571430Y29504786D02*
X24428573Y29433358D01*
X24428573Y29433358D02*
X23857144Y29433358D01*
X25357144Y28719072D02*
X25357144Y30219072D01*
X25357144Y30219072D02*
X25928573Y30219072D01*
X25928573Y30219072D02*
X26071430Y30147643D01*
X26071430Y30147643D02*
X26142859Y30076215D01*
X26142859Y30076215D02*
X26214287Y29933358D01*
X26214287Y29933358D02*
X26214287Y29719072D01*
X26214287Y29719072D02*
X26142859Y29576215D01*
X26142859Y29576215D02*
X26071430Y29504786D01*
X26071430Y29504786D02*
X25928573Y29433358D01*
X25928573Y29433358D02*
X25357144Y29433358D01*
X26785716Y30076215D02*
X26857144Y30147643D01*
X26857144Y30147643D02*
X27000002Y30219072D01*
X27000002Y30219072D02*
X27357144Y30219072D01*
X27357144Y30219072D02*
X27500002Y30147643D01*
X27500002Y30147643D02*
X27571430Y30076215D01*
X27571430Y30076215D02*
X27642859Y29933358D01*
X27642859Y29933358D02*
X27642859Y29790500D01*
X27642859Y29790500D02*
X27571430Y29576215D01*
X27571430Y29576215D02*
X26714287Y28719072D01*
X26714287Y28719072D02*
X27642859Y28719072D01*
X28571430Y30219072D02*
X28714287Y30219072D01*
X28714287Y30219072D02*
X28857144Y30147643D01*
X28857144Y30147643D02*
X28928573Y30076215D01*
X28928573Y30076215D02*
X29000001Y29933358D01*
X29000001Y29933358D02*
X29071430Y29647643D01*
X29071430Y29647643D02*
X29071430Y29290500D01*
X29071430Y29290500D02*
X29000001Y29004786D01*
X29000001Y29004786D02*
X28928573Y28861929D01*
X28928573Y28861929D02*
X28857144Y28790500D01*
X28857144Y28790500D02*
X28714287Y28719072D01*
X28714287Y28719072D02*
X28571430Y28719072D01*
X28571430Y28719072D02*
X28428573Y28790500D01*
X28428573Y28790500D02*
X28357144Y28861929D01*
X28357144Y28861929D02*
X28285715Y29004786D01*
X28285715Y29004786D02*
X28214287Y29290500D01*
X28214287Y29290500D02*
X28214287Y29647643D01*
X28214287Y29647643D02*
X28285715Y29933358D01*
X28285715Y29933358D02*
X28357144Y30076215D01*
X28357144Y30076215D02*
X28428573Y30147643D01*
X28428573Y30147643D02*
X28571430Y30219072D01*
X30357144Y29719072D02*
X30357144Y28719072D01*
X30000001Y30290500D02*
X29642858Y29219072D01*
X29642858Y29219072D02*
X30571429Y29219072D01*
X31428572Y30219072D02*
X31571429Y30219072D01*
X31571429Y30219072D02*
X31714286Y30147643D01*
X31714286Y30147643D02*
X31785715Y30076215D01*
X31785715Y30076215D02*
X31857143Y29933358D01*
X31857143Y29933358D02*
X31928572Y29647643D01*
X31928572Y29647643D02*
X31928572Y29290500D01*
X31928572Y29290500D02*
X31857143Y29004786D01*
X31857143Y29004786D02*
X31785715Y28861929D01*
X31785715Y28861929D02*
X31714286Y28790500D01*
X31714286Y28790500D02*
X31571429Y28719072D01*
X31571429Y28719072D02*
X31428572Y28719072D01*
X31428572Y28719072D02*
X31285715Y28790500D01*
X31285715Y28790500D02*
X31214286Y28861929D01*
X31214286Y28861929D02*
X31142857Y29004786D01*
X31142857Y29004786D02*
X31071429Y29290500D01*
X31071429Y29290500D02*
X31071429Y29647643D01*
X31071429Y29647643D02*
X31142857Y29933358D01*
X31142857Y29933358D02*
X31214286Y30076215D01*
X31214286Y30076215D02*
X31285715Y30147643D01*
X31285715Y30147643D02*
X31428572Y30219072D01*
X32428571Y29719072D02*
X32785714Y28719072D01*
X32785714Y28719072D02*
X33142857Y29719072D01*
X34000000Y30219072D02*
X34142857Y30219072D01*
X34142857Y30219072D02*
X34285714Y30147643D01*
X34285714Y30147643D02*
X34357143Y30076215D01*
X34357143Y30076215D02*
X34428571Y29933358D01*
X34428571Y29933358D02*
X34500000Y29647643D01*
X34500000Y29647643D02*
X34500000Y29290500D01*
X34500000Y29290500D02*
X34428571Y29004786D01*
X34428571Y29004786D02*
X34357143Y28861929D01*
X34357143Y28861929D02*
X34285714Y28790500D01*
X34285714Y28790500D02*
X34142857Y28719072D01*
X34142857Y28719072D02*
X34000000Y28719072D01*
X34000000Y28719072D02*
X33857143Y28790500D01*
X33857143Y28790500D02*
X33785714Y28861929D01*
X33785714Y28861929D02*
X33714285Y29004786D01*
X33714285Y29004786D02*
X33642857Y29290500D01*
X33642857Y29290500D02*
X33642857Y29647643D01*
X33642857Y29647643D02*
X33714285Y29933358D01*
X33714285Y29933358D02*
X33785714Y30076215D01*
X33785714Y30076215D02*
X33857143Y30147643D01*
X33857143Y30147643D02*
X34000000Y30219072D01*
X35928571Y28719072D02*
X35071428Y28719072D01*
X35499999Y28719072D02*
X35499999Y30219072D01*
X35499999Y30219072D02*
X35357142Y30004786D01*
X35357142Y30004786D02*
X35214285Y29861929D01*
X35214285Y29861929D02*
X35071428Y29790500D01*
X36499999Y29147643D02*
X37214285Y29147643D01*
X36357142Y28719072D02*
X36857142Y30219072D01*
X36857142Y30219072D02*
X37357142Y28719072D01*
D11*
X31769325Y39771994D02*
X31712182Y39657708D01*
X31712182Y39657708D02*
X31712182Y39486280D01*
X31712182Y39486280D02*
X31769325Y39314851D01*
X31769325Y39314851D02*
X31883611Y39200566D01*
X31883611Y39200566D02*
X31997897Y39143423D01*
X31997897Y39143423D02*
X32226468Y39086280D01*
X32226468Y39086280D02*
X32397897Y39086280D01*
X32397897Y39086280D02*
X32626468Y39143423D01*
X32626468Y39143423D02*
X32740754Y39200566D01*
X32740754Y39200566D02*
X32855040Y39314851D01*
X32855040Y39314851D02*
X32912182Y39486280D01*
X32912182Y39486280D02*
X32912182Y39600566D01*
X32912182Y39600566D02*
X32855040Y39771994D01*
X32855040Y39771994D02*
X32797897Y39829137D01*
X32797897Y39829137D02*
X32397897Y39829137D01*
X32397897Y39829137D02*
X32397897Y39600566D01*
X32912182Y40343423D02*
X31712182Y40343423D01*
X31712182Y40343423D02*
X31712182Y40800566D01*
X31712182Y40800566D02*
X31769325Y40914851D01*
X31769325Y40914851D02*
X31826468Y40971994D01*
X31826468Y40971994D02*
X31940754Y41029137D01*
X31940754Y41029137D02*
X32112182Y41029137D01*
X32112182Y41029137D02*
X32226468Y40971994D01*
X32226468Y40971994D02*
X32283611Y40914851D01*
X32283611Y40914851D02*
X32340754Y40800566D01*
X32340754Y40800566D02*
X32340754Y40343423D01*
X32912182Y42171994D02*
X32912182Y41486280D01*
X32912182Y41829137D02*
X31712182Y41829137D01*
X31712182Y41829137D02*
X31883611Y41714851D01*
X31883611Y41714851D02*
X31997897Y41600566D01*
X31997897Y41600566D02*
X32055040Y41486280D01*
X31712182Y43257708D02*
X31712182Y42686280D01*
X31712182Y42686280D02*
X32283611Y42629137D01*
X32283611Y42629137D02*
X32226468Y42686280D01*
X32226468Y42686280D02*
X32169325Y42800565D01*
X32169325Y42800565D02*
X32169325Y43086280D01*
X32169325Y43086280D02*
X32226468Y43200565D01*
X32226468Y43200565D02*
X32283611Y43257708D01*
X32283611Y43257708D02*
X32397897Y43314851D01*
X32397897Y43314851D02*
X32683611Y43314851D01*
X32683611Y43314851D02*
X32797897Y43257708D01*
X32797897Y43257708D02*
X32855040Y43200565D01*
X32855040Y43200565D02*
X32912182Y43086280D01*
X32912182Y43086280D02*
X32912182Y42800565D01*
X32912182Y42800565D02*
X32855040Y42686280D01*
X32855040Y42686280D02*
X32797897Y42629137D01*
X13995863Y40800115D02*
X13881578Y40857258D01*
X13881578Y40857258D02*
X13710149Y40857258D01*
X13710149Y40857258D02*
X13538720Y40800115D01*
X13538720Y40800115D02*
X13424435Y40685829D01*
X13424435Y40685829D02*
X13367292Y40571543D01*
X13367292Y40571543D02*
X13310149Y40342972D01*
X13310149Y40342972D02*
X13310149Y40171543D01*
X13310149Y40171543D02*
X13367292Y39942972D01*
X13367292Y39942972D02*
X13424435Y39828686D01*
X13424435Y39828686D02*
X13538720Y39714400D01*
X13538720Y39714400D02*
X13710149Y39657258D01*
X13710149Y39657258D02*
X13824435Y39657258D01*
X13824435Y39657258D02*
X13995863Y39714400D01*
X13995863Y39714400D02*
X14053006Y39771543D01*
X14053006Y39771543D02*
X14053006Y40171543D01*
X14053006Y40171543D02*
X13824435Y40171543D01*
X14567292Y39657258D02*
X14567292Y40857258D01*
X14567292Y40857258D02*
X15024435Y40857258D01*
X15024435Y40857258D02*
X15138720Y40800115D01*
X15138720Y40800115D02*
X15195863Y40742972D01*
X15195863Y40742972D02*
X15253006Y40628686D01*
X15253006Y40628686D02*
X15253006Y40457258D01*
X15253006Y40457258D02*
X15195863Y40342972D01*
X15195863Y40342972D02*
X15138720Y40285829D01*
X15138720Y40285829D02*
X15024435Y40228686D01*
X15024435Y40228686D02*
X14567292Y40228686D01*
X15653006Y40857258D02*
X16453006Y40857258D01*
X16453006Y40857258D02*
X15938720Y39657258D01*
X24152661Y39771994D02*
X24095518Y39657708D01*
X24095518Y39657708D02*
X24095518Y39486280D01*
X24095518Y39486280D02*
X24152661Y39314851D01*
X24152661Y39314851D02*
X24266947Y39200566D01*
X24266947Y39200566D02*
X24381233Y39143423D01*
X24381233Y39143423D02*
X24609804Y39086280D01*
X24609804Y39086280D02*
X24781233Y39086280D01*
X24781233Y39086280D02*
X25009804Y39143423D01*
X25009804Y39143423D02*
X25124090Y39200566D01*
X25124090Y39200566D02*
X25238376Y39314851D01*
X25238376Y39314851D02*
X25295518Y39486280D01*
X25295518Y39486280D02*
X25295518Y39600566D01*
X25295518Y39600566D02*
X25238376Y39771994D01*
X25238376Y39771994D02*
X25181233Y39829137D01*
X25181233Y39829137D02*
X24781233Y39829137D01*
X24781233Y39829137D02*
X24781233Y39600566D01*
X25295518Y40343423D02*
X24095518Y40343423D01*
X24095518Y40343423D02*
X24095518Y40800566D01*
X24095518Y40800566D02*
X24152661Y40914851D01*
X24152661Y40914851D02*
X24209804Y40971994D01*
X24209804Y40971994D02*
X24324090Y41029137D01*
X24324090Y41029137D02*
X24495518Y41029137D01*
X24495518Y41029137D02*
X24609804Y40971994D01*
X24609804Y40971994D02*
X24666947Y40914851D01*
X24666947Y40914851D02*
X24724090Y40800566D01*
X24724090Y40800566D02*
X24724090Y40343423D01*
X25295518Y42171994D02*
X25295518Y41486280D01*
X25295518Y41829137D02*
X24095518Y41829137D01*
X24095518Y41829137D02*
X24266947Y41714851D01*
X24266947Y41714851D02*
X24381233Y41600566D01*
X24381233Y41600566D02*
X24438376Y41486280D01*
X24209804Y42629137D02*
X24152661Y42686280D01*
X24152661Y42686280D02*
X24095518Y42800565D01*
X24095518Y42800565D02*
X24095518Y43086280D01*
X24095518Y43086280D02*
X24152661Y43200565D01*
X24152661Y43200565D02*
X24209804Y43257708D01*
X24209804Y43257708D02*
X24324090Y43314851D01*
X24324090Y43314851D02*
X24438376Y43314851D01*
X24438376Y43314851D02*
X24609804Y43257708D01*
X24609804Y43257708D02*
X25295518Y42571994D01*
X25295518Y42571994D02*
X25295518Y43314851D01*
X26425000Y15939258D02*
X26425000Y17139258D01*
X26425000Y17139258D02*
X26882143Y17139258D01*
X26882143Y17139258D02*
X26996428Y17082115D01*
X26996428Y17082115D02*
X27053571Y17024972D01*
X27053571Y17024972D02*
X27110714Y16910686D01*
X27110714Y16910686D02*
X27110714Y16739258D01*
X27110714Y16739258D02*
X27053571Y16624972D01*
X27053571Y16624972D02*
X26996428Y16567829D01*
X26996428Y16567829D02*
X26882143Y16510686D01*
X26882143Y16510686D02*
X26425000Y16510686D01*
X27510714Y17139258D02*
X27796428Y15939258D01*
X27796428Y15939258D02*
X28025000Y16796400D01*
X28025000Y16796400D02*
X28253571Y15939258D01*
X28253571Y15939258D02*
X28539286Y17139258D01*
X29682143Y15939258D02*
X29282143Y16510686D01*
X28996429Y15939258D02*
X28996429Y17139258D01*
X28996429Y17139258D02*
X29453572Y17139258D01*
X29453572Y17139258D02*
X29567857Y17082115D01*
X29567857Y17082115D02*
X29625000Y17024972D01*
X29625000Y17024972D02*
X29682143Y16910686D01*
X29682143Y16910686D02*
X29682143Y16739258D01*
X29682143Y16739258D02*
X29625000Y16624972D01*
X29625000Y16624972D02*
X29567857Y16567829D01*
X29567857Y16567829D02*
X29453572Y16510686D01*
X29453572Y16510686D02*
X28996429Y16510686D01*
X25825000Y15207258D02*
X26225000Y14007258D01*
X26225000Y14007258D02*
X26625000Y15207258D01*
X27025000Y15207258D02*
X27025000Y14235829D01*
X27025000Y14235829D02*
X27082143Y14121543D01*
X27082143Y14121543D02*
X27139286Y14064400D01*
X27139286Y14064400D02*
X27253571Y14007258D01*
X27253571Y14007258D02*
X27482143Y14007258D01*
X27482143Y14007258D02*
X27596428Y14064400D01*
X27596428Y14064400D02*
X27653571Y14121543D01*
X27653571Y14121543D02*
X27710714Y14235829D01*
X27710714Y14235829D02*
X27710714Y15207258D01*
X28225000Y14064400D02*
X28396429Y14007258D01*
X28396429Y14007258D02*
X28682143Y14007258D01*
X28682143Y14007258D02*
X28796429Y14064400D01*
X28796429Y14064400D02*
X28853571Y14121543D01*
X28853571Y14121543D02*
X28910714Y14235829D01*
X28910714Y14235829D02*
X28910714Y14350115D01*
X28910714Y14350115D02*
X28853571Y14464400D01*
X28853571Y14464400D02*
X28796429Y14521543D01*
X28796429Y14521543D02*
X28682143Y14578686D01*
X28682143Y14578686D02*
X28453571Y14635829D01*
X28453571Y14635829D02*
X28339286Y14692972D01*
X28339286Y14692972D02*
X28282143Y14750115D01*
X28282143Y14750115D02*
X28225000Y14864400D01*
X28225000Y14864400D02*
X28225000Y14978686D01*
X28225000Y14978686D02*
X28282143Y15092972D01*
X28282143Y15092972D02*
X28339286Y15150115D01*
X28339286Y15150115D02*
X28453571Y15207258D01*
X28453571Y15207258D02*
X28739286Y15207258D01*
X28739286Y15207258D02*
X28910714Y15150115D01*
X29825000Y14635829D02*
X29996428Y14578686D01*
X29996428Y14578686D02*
X30053571Y14521543D01*
X30053571Y14521543D02*
X30110714Y14407258D01*
X30110714Y14407258D02*
X30110714Y14235829D01*
X30110714Y14235829D02*
X30053571Y14121543D01*
X30053571Y14121543D02*
X29996428Y14064400D01*
X29996428Y14064400D02*
X29882143Y14007258D01*
X29882143Y14007258D02*
X29425000Y14007258D01*
X29425000Y14007258D02*
X29425000Y15207258D01*
X29425000Y15207258D02*
X29825000Y15207258D01*
X29825000Y15207258D02*
X29939286Y15150115D01*
X29939286Y15150115D02*
X29996428Y15092972D01*
X29996428Y15092972D02*
X30053571Y14978686D01*
X30053571Y14978686D02*
X30053571Y14864400D01*
X30053571Y14864400D02*
X29996428Y14750115D01*
X29996428Y14750115D02*
X29939286Y14692972D01*
X29939286Y14692972D02*
X29825000Y14635829D01*
X29825000Y14635829D02*
X29425000Y14635829D01*
X28833333Y32167781D02*
X28833333Y33167781D01*
X28833333Y33167781D02*
X29166666Y32453496D01*
X29166666Y32453496D02*
X29499999Y33167781D01*
X29499999Y33167781D02*
X29499999Y32167781D01*
X30452380Y32167781D02*
X29976190Y32167781D01*
X29976190Y32167781D02*
X29976190Y33167781D01*
X30738095Y32453496D02*
X31214285Y32453496D01*
X30642857Y32167781D02*
X30976190Y33167781D01*
X30976190Y33167781D02*
X31309523Y32167781D01*
X31976190Y32691591D02*
X32119047Y32643972D01*
X32119047Y32643972D02*
X32166666Y32596353D01*
X32166666Y32596353D02*
X32214285Y32501115D01*
X32214285Y32501115D02*
X32214285Y32358258D01*
X32214285Y32358258D02*
X32166666Y32263020D01*
X32166666Y32263020D02*
X32119047Y32215400D01*
X32119047Y32215400D02*
X32023809Y32167781D01*
X32023809Y32167781D02*
X31642857Y32167781D01*
X31642857Y32167781D02*
X31642857Y33167781D01*
X31642857Y33167781D02*
X31976190Y33167781D01*
X31976190Y33167781D02*
X32071428Y33120162D01*
X32071428Y33120162D02*
X32119047Y33072543D01*
X32119047Y33072543D02*
X32166666Y32977305D01*
X32166666Y32977305D02*
X32166666Y32882067D01*
X32166666Y32882067D02*
X32119047Y32786829D01*
X32119047Y32786829D02*
X32071428Y32739210D01*
X32071428Y32739210D02*
X31976190Y32691591D01*
X31976190Y32691591D02*
X31642857Y32691591D01*
X22761904Y26632543D02*
X22809523Y26680162D01*
X22809523Y26680162D02*
X22904761Y26727781D01*
X22904761Y26727781D02*
X23142856Y26727781D01*
X23142856Y26727781D02*
X23238094Y26680162D01*
X23238094Y26680162D02*
X23285713Y26632543D01*
X23285713Y26632543D02*
X23333332Y26537305D01*
X23333332Y26537305D02*
X23333332Y26442067D01*
X23333332Y26442067D02*
X23285713Y26299210D01*
X23285713Y26299210D02*
X22714285Y25727781D01*
X22714285Y25727781D02*
X23333332Y25727781D01*
X23952380Y26727781D02*
X24047618Y26727781D01*
X24047618Y26727781D02*
X24142856Y26680162D01*
X24142856Y26680162D02*
X24190475Y26632543D01*
X24190475Y26632543D02*
X24238094Y26537305D01*
X24238094Y26537305D02*
X24285713Y26346829D01*
X24285713Y26346829D02*
X24285713Y26108734D01*
X24285713Y26108734D02*
X24238094Y25918258D01*
X24238094Y25918258D02*
X24190475Y25823020D01*
X24190475Y25823020D02*
X24142856Y25775400D01*
X24142856Y25775400D02*
X24047618Y25727781D01*
X24047618Y25727781D02*
X23952380Y25727781D01*
X23952380Y25727781D02*
X23857142Y25775400D01*
X23857142Y25775400D02*
X23809523Y25823020D01*
X23809523Y25823020D02*
X23761904Y25918258D01*
X23761904Y25918258D02*
X23714285Y26108734D01*
X23714285Y26108734D02*
X23714285Y26346829D01*
X23714285Y26346829D02*
X23761904Y26537305D01*
X23761904Y26537305D02*
X23809523Y26632543D01*
X23809523Y26632543D02*
X23857142Y26680162D01*
X23857142Y26680162D02*
X23952380Y26727781D01*
X24666666Y26632543D02*
X24714285Y26680162D01*
X24714285Y26680162D02*
X24809523Y26727781D01*
X24809523Y26727781D02*
X25047618Y26727781D01*
X25047618Y26727781D02*
X25142856Y26680162D01*
X25142856Y26680162D02*
X25190475Y26632543D01*
X25190475Y26632543D02*
X25238094Y26537305D01*
X25238094Y26537305D02*
X25238094Y26442067D01*
X25238094Y26442067D02*
X25190475Y26299210D01*
X25190475Y26299210D02*
X24619047Y25727781D01*
X24619047Y25727781D02*
X25238094Y25727781D01*
X26095237Y26394448D02*
X26095237Y25727781D01*
X25857142Y26775400D02*
X25619047Y26061115D01*
X25619047Y26061115D02*
X26238094Y26061115D01*
X26666666Y25775400D02*
X26666666Y25727781D01*
X26666666Y25727781D02*
X26619047Y25632543D01*
X26619047Y25632543D02*
X26571428Y25584924D01*
X27857142Y25727781D02*
X27857142Y26394448D01*
X27857142Y26203972D02*
X27904761Y26299210D01*
X27904761Y26299210D02*
X27952380Y26346829D01*
X27952380Y26346829D02*
X28047618Y26394448D01*
X28047618Y26394448D02*
X28142856Y26394448D01*
X28619047Y25727781D02*
X28523809Y25775400D01*
X28523809Y25775400D02*
X28476190Y25823020D01*
X28476190Y25823020D02*
X28428571Y25918258D01*
X28428571Y25918258D02*
X28428571Y26203972D01*
X28428571Y26203972D02*
X28476190Y26299210D01*
X28476190Y26299210D02*
X28523809Y26346829D01*
X28523809Y26346829D02*
X28619047Y26394448D01*
X28619047Y26394448D02*
X28761904Y26394448D01*
X28761904Y26394448D02*
X28857142Y26346829D01*
X28857142Y26346829D02*
X28904761Y26299210D01*
X28904761Y26299210D02*
X28952380Y26203972D01*
X28952380Y26203972D02*
X28952380Y25918258D01*
X28952380Y25918258D02*
X28904761Y25823020D01*
X28904761Y25823020D02*
X28857142Y25775400D01*
X28857142Y25775400D02*
X28761904Y25727781D01*
X28761904Y25727781D02*
X28619047Y25727781D01*
X29380952Y25727781D02*
X29380952Y26394448D01*
X29380952Y26299210D02*
X29428571Y26346829D01*
X29428571Y26346829D02*
X29523809Y26394448D01*
X29523809Y26394448D02*
X29666666Y26394448D01*
X29666666Y26394448D02*
X29761904Y26346829D01*
X29761904Y26346829D02*
X29809523Y26251591D01*
X29809523Y26251591D02*
X29809523Y25727781D01*
X29809523Y26251591D02*
X29857142Y26346829D01*
X29857142Y26346829D02*
X29952380Y26394448D01*
X29952380Y26394448D02*
X30095237Y26394448D01*
X30095237Y26394448D02*
X30190476Y26346829D01*
X30190476Y26346829D02*
X30238095Y26251591D01*
X30238095Y26251591D02*
X30238095Y25727781D01*
X31142856Y25727781D02*
X31142856Y26251591D01*
X31142856Y26251591D02*
X31095237Y26346829D01*
X31095237Y26346829D02*
X30999999Y26394448D01*
X30999999Y26394448D02*
X30809523Y26394448D01*
X30809523Y26394448D02*
X30714285Y26346829D01*
X31142856Y25775400D02*
X31047618Y25727781D01*
X31047618Y25727781D02*
X30809523Y25727781D01*
X30809523Y25727781D02*
X30714285Y25775400D01*
X30714285Y25775400D02*
X30666666Y25870639D01*
X30666666Y25870639D02*
X30666666Y25965877D01*
X30666666Y25965877D02*
X30714285Y26061115D01*
X30714285Y26061115D02*
X30809523Y26108734D01*
X30809523Y26108734D02*
X31047618Y26108734D01*
X31047618Y26108734D02*
X31142856Y26156353D01*
X31619047Y26394448D02*
X31619047Y25727781D01*
X31619047Y26299210D02*
X31666666Y26346829D01*
X31666666Y26346829D02*
X31761904Y26394448D01*
X31761904Y26394448D02*
X31904761Y26394448D01*
X31904761Y26394448D02*
X31999999Y26346829D01*
X31999999Y26346829D02*
X32047618Y26251591D01*
X32047618Y26251591D02*
X32047618Y25727781D01*
X32523809Y26108734D02*
X33285714Y26108734D01*
X34190475Y25727781D02*
X34190475Y26727781D01*
X34190475Y25775400D02*
X34095237Y25727781D01*
X34095237Y25727781D02*
X33904761Y25727781D01*
X33904761Y25727781D02*
X33809523Y25775400D01*
X33809523Y25775400D02*
X33761904Y25823020D01*
X33761904Y25823020D02*
X33714285Y25918258D01*
X33714285Y25918258D02*
X33714285Y26203972D01*
X33714285Y26203972D02*
X33761904Y26299210D01*
X33761904Y26299210D02*
X33809523Y26346829D01*
X33809523Y26346829D02*
X33904761Y26394448D01*
X33904761Y26394448D02*
X34095237Y26394448D01*
X34095237Y26394448D02*
X34190475Y26346829D01*
X34571428Y26394448D02*
X34809523Y25727781D01*
X34809523Y25727781D02*
X35047618Y26394448D01*
X35571428Y25727781D02*
X35476190Y25775400D01*
X35476190Y25775400D02*
X35428571Y25823020D01*
X35428571Y25823020D02*
X35380952Y25918258D01*
X35380952Y25918258D02*
X35380952Y26203972D01*
X35380952Y26203972D02*
X35428571Y26299210D01*
X35428571Y26299210D02*
X35476190Y26346829D01*
X35476190Y26346829D02*
X35571428Y26394448D01*
X35571428Y26394448D02*
X35714285Y26394448D01*
X35714285Y26394448D02*
X35809523Y26346829D01*
X35809523Y26346829D02*
X35857142Y26299210D01*
X35857142Y26299210D02*
X35904761Y26203972D01*
X35904761Y26203972D02*
X35904761Y25918258D01*
X35904761Y25918258D02*
X35857142Y25823020D01*
X35857142Y25823020D02*
X35809523Y25775400D01*
X35809523Y25775400D02*
X35714285Y25727781D01*
X35714285Y25727781D02*
X35571428Y25727781D01*
X36333333Y25727781D02*
X36333333Y26394448D01*
X36333333Y26203972D02*
X36380952Y26299210D01*
X36380952Y26299210D02*
X36428571Y26346829D01*
X36428571Y26346829D02*
X36523809Y26394448D01*
X36523809Y26394448D02*
X36619047Y26394448D01*
X37380952Y25727781D02*
X37380952Y26251591D01*
X37380952Y26251591D02*
X37333333Y26346829D01*
X37333333Y26346829D02*
X37238095Y26394448D01*
X37238095Y26394448D02*
X37047619Y26394448D01*
X37047619Y26394448D02*
X36952381Y26346829D01*
X37380952Y25775400D02*
X37285714Y25727781D01*
X37285714Y25727781D02*
X37047619Y25727781D01*
X37047619Y25727781D02*
X36952381Y25775400D01*
X36952381Y25775400D02*
X36904762Y25870639D01*
X36904762Y25870639D02*
X36904762Y25965877D01*
X36904762Y25965877D02*
X36952381Y26061115D01*
X36952381Y26061115D02*
X37047619Y26108734D01*
X37047619Y26108734D02*
X37285714Y26108734D01*
X37285714Y26108734D02*
X37380952Y26156353D01*
X37857143Y25727781D02*
X37857143Y26727781D01*
X37952381Y26108734D02*
X38238095Y25727781D01*
X38238095Y26394448D02*
X37857143Y26013496D01*
X35423810Y19800115D02*
X35319048Y19857258D01*
X35319048Y19857258D02*
X35161905Y19857258D01*
X35161905Y19857258D02*
X35004762Y19800115D01*
X35004762Y19800115D02*
X34900000Y19685829D01*
X34900000Y19685829D02*
X34847619Y19571543D01*
X34847619Y19571543D02*
X34795238Y19342972D01*
X34795238Y19342972D02*
X34795238Y19171543D01*
X34795238Y19171543D02*
X34847619Y18942972D01*
X34847619Y18942972D02*
X34900000Y18828686D01*
X34900000Y18828686D02*
X35004762Y18714400D01*
X35004762Y18714400D02*
X35161905Y18657258D01*
X35161905Y18657258D02*
X35266667Y18657258D01*
X35266667Y18657258D02*
X35423810Y18714400D01*
X35423810Y18714400D02*
X35476191Y18771543D01*
X35476191Y18771543D02*
X35476191Y19171543D01*
X35476191Y19171543D02*
X35266667Y19171543D01*
X35947619Y18657258D02*
X35947619Y19857258D01*
X35947619Y19857258D02*
X36366667Y19857258D01*
X36366667Y19857258D02*
X36471429Y19800115D01*
X36471429Y19800115D02*
X36523810Y19742972D01*
X36523810Y19742972D02*
X36576191Y19628686D01*
X36576191Y19628686D02*
X36576191Y19457258D01*
X36576191Y19457258D02*
X36523810Y19342972D01*
X36523810Y19342972D02*
X36471429Y19285829D01*
X36471429Y19285829D02*
X36366667Y19228686D01*
X36366667Y19228686D02*
X35947619Y19228686D01*
X36995238Y19742972D02*
X37047619Y19800115D01*
X37047619Y19800115D02*
X37152381Y19857258D01*
X37152381Y19857258D02*
X37414286Y19857258D01*
X37414286Y19857258D02*
X37519048Y19800115D01*
X37519048Y19800115D02*
X37571429Y19742972D01*
X37571429Y19742972D02*
X37623810Y19628686D01*
X37623810Y19628686D02*
X37623810Y19514400D01*
X37623810Y19514400D02*
X37571429Y19342972D01*
X37571429Y19342972D02*
X36942857Y18657258D01*
X36942857Y18657258D02*
X37623810Y18657258D01*
X38619048Y19857258D02*
X38095238Y19857258D01*
X38095238Y19857258D02*
X38042857Y19285829D01*
X38042857Y19285829D02*
X38095238Y19342972D01*
X38095238Y19342972D02*
X38200000Y19400115D01*
X38200000Y19400115D02*
X38461905Y19400115D01*
X38461905Y19400115D02*
X38566667Y19342972D01*
X38566667Y19342972D02*
X38619048Y19285829D01*
X38619048Y19285829D02*
X38671429Y19171543D01*
X38671429Y19171543D02*
X38671429Y18885829D01*
X38671429Y18885829D02*
X38619048Y18771543D01*
X38619048Y18771543D02*
X38566667Y18714400D01*
X38566667Y18714400D02*
X38461905Y18657258D01*
X38461905Y18657258D02*
X38200000Y18657258D01*
X38200000Y18657258D02*
X38095238Y18714400D01*
X38095238Y18714400D02*
X38042857Y18771543D01*
X40819047Y18657258D02*
X40819047Y19857258D01*
X40819047Y19857258D02*
X41238095Y19857258D01*
X41238095Y19857258D02*
X41342857Y19800115D01*
X41342857Y19800115D02*
X41395238Y19742972D01*
X41395238Y19742972D02*
X41447619Y19628686D01*
X41447619Y19628686D02*
X41447619Y19457258D01*
X41447619Y19457258D02*
X41395238Y19342972D01*
X41395238Y19342972D02*
X41342857Y19285829D01*
X41342857Y19285829D02*
X41238095Y19228686D01*
X41238095Y19228686D02*
X40819047Y19228686D01*
X41814285Y19857258D02*
X42076190Y18657258D01*
X42076190Y18657258D02*
X42285714Y19514400D01*
X42285714Y19514400D02*
X42495238Y18657258D01*
X42495238Y18657258D02*
X42757143Y19857258D01*
X43804762Y18657258D02*
X43438095Y19228686D01*
X43176190Y18657258D02*
X43176190Y19857258D01*
X43176190Y19857258D02*
X43595238Y19857258D01*
X43595238Y19857258D02*
X43700000Y19800115D01*
X43700000Y19800115D02*
X43752381Y19742972D01*
X43752381Y19742972D02*
X43804762Y19628686D01*
X43804762Y19628686D02*
X43804762Y19457258D01*
X43804762Y19457258D02*
X43752381Y19342972D01*
X43752381Y19342972D02*
X43700000Y19285829D01*
X43700000Y19285829D02*
X43595238Y19228686D01*
X43595238Y19228686D02*
X43176190Y19228686D01*
X13538720Y42892972D02*
X13424435Y42950115D01*
X13424435Y42950115D02*
X13367292Y43007258D01*
X13367292Y43007258D02*
X13310149Y43121543D01*
X13310149Y43121543D02*
X13310149Y43178686D01*
X13310149Y43178686D02*
X13367292Y43292972D01*
X13367292Y43292972D02*
X13424435Y43350115D01*
X13424435Y43350115D02*
X13538720Y43407258D01*
X13538720Y43407258D02*
X13767292Y43407258D01*
X13767292Y43407258D02*
X13881578Y43350115D01*
X13881578Y43350115D02*
X13938720Y43292972D01*
X13938720Y43292972D02*
X13995863Y43178686D01*
X13995863Y43178686D02*
X13995863Y43121543D01*
X13995863Y43121543D02*
X13938720Y43007258D01*
X13938720Y43007258D02*
X13881578Y42950115D01*
X13881578Y42950115D02*
X13767292Y42892972D01*
X13767292Y42892972D02*
X13538720Y42892972D01*
X13538720Y42892972D02*
X13424435Y42835829D01*
X13424435Y42835829D02*
X13367292Y42778686D01*
X13367292Y42778686D02*
X13310149Y42664400D01*
X13310149Y42664400D02*
X13310149Y42435829D01*
X13310149Y42435829D02*
X13367292Y42321543D01*
X13367292Y42321543D02*
X13424435Y42264400D01*
X13424435Y42264400D02*
X13538720Y42207258D01*
X13538720Y42207258D02*
X13767292Y42207258D01*
X13767292Y42207258D02*
X13881578Y42264400D01*
X13881578Y42264400D02*
X13938720Y42321543D01*
X13938720Y42321543D02*
X13995863Y42435829D01*
X13995863Y42435829D02*
X13995863Y42664400D01*
X13995863Y42664400D02*
X13938720Y42778686D01*
X13938720Y42778686D02*
X13881578Y42835829D01*
X13881578Y42835829D02*
X13767292Y42892972D01*
D10*
X33306265Y51833534D02*
X33915789Y51833534D01*
X34868169Y51500200D02*
X34982455Y51452581D01*
X34982455Y51452581D02*
X35172931Y51452581D01*
X35172931Y51452581D02*
X35249122Y51500200D01*
X35249122Y51500200D02*
X35287217Y51547820D01*
X35287217Y51547820D02*
X35325312Y51643058D01*
X35325312Y51643058D02*
X35325312Y51738296D01*
X35325312Y51738296D02*
X35287217Y51833534D01*
X35287217Y51833534D02*
X35249122Y51881153D01*
X35249122Y51881153D02*
X35172931Y51928772D01*
X35172931Y51928772D02*
X35020550Y51976391D01*
X35020550Y51976391D02*
X34944360Y52024010D01*
X34944360Y52024010D02*
X34906265Y52071629D01*
X34906265Y52071629D02*
X34868169Y52166867D01*
X34868169Y52166867D02*
X34868169Y52262105D01*
X34868169Y52262105D02*
X34906265Y52357343D01*
X34906265Y52357343D02*
X34944360Y52404962D01*
X34944360Y52404962D02*
X35020550Y52452581D01*
X35020550Y52452581D02*
X35211027Y52452581D01*
X35211027Y52452581D02*
X35325312Y52404962D01*
X35668170Y51452581D02*
X35668170Y52452581D01*
X35668170Y52452581D02*
X35858646Y52452581D01*
X35858646Y52452581D02*
X35972932Y52404962D01*
X35972932Y52404962D02*
X36049122Y52309724D01*
X36049122Y52309724D02*
X36087217Y52214486D01*
X36087217Y52214486D02*
X36125313Y52024010D01*
X36125313Y52024010D02*
X36125313Y51881153D01*
X36125313Y51881153D02*
X36087217Y51690677D01*
X36087217Y51690677D02*
X36049122Y51595439D01*
X36049122Y51595439D02*
X35972932Y51500200D01*
X35972932Y51500200D02*
X35858646Y51452581D01*
X35858646Y51452581D02*
X35668170Y51452581D01*
X36430074Y51738296D02*
X36811027Y51738296D01*
X36353884Y51452581D02*
X36620551Y52452581D01*
X36620551Y52452581D02*
X36887217Y51452581D01*
X37763408Y51833534D02*
X38372932Y51833534D01*
X38068170Y51452581D02*
X38068170Y52214486D01*
X39325312Y51500200D02*
X39439598Y51452581D01*
X39439598Y51452581D02*
X39630074Y51452581D01*
X39630074Y51452581D02*
X39706265Y51500200D01*
X39706265Y51500200D02*
X39744360Y51547820D01*
X39744360Y51547820D02*
X39782455Y51643058D01*
X39782455Y51643058D02*
X39782455Y51738296D01*
X39782455Y51738296D02*
X39744360Y51833534D01*
X39744360Y51833534D02*
X39706265Y51881153D01*
X39706265Y51881153D02*
X39630074Y51928772D01*
X39630074Y51928772D02*
X39477693Y51976391D01*
X39477693Y51976391D02*
X39401503Y52024010D01*
X39401503Y52024010D02*
X39363408Y52071629D01*
X39363408Y52071629D02*
X39325312Y52166867D01*
X39325312Y52166867D02*
X39325312Y52262105D01*
X39325312Y52262105D02*
X39363408Y52357343D01*
X39363408Y52357343D02*
X39401503Y52404962D01*
X39401503Y52404962D02*
X39477693Y52452581D01*
X39477693Y52452581D02*
X39668170Y52452581D01*
X39668170Y52452581D02*
X39782455Y52404962D01*
X40582456Y51547820D02*
X40544360Y51500200D01*
X40544360Y51500200D02*
X40430075Y51452581D01*
X40430075Y51452581D02*
X40353884Y51452581D01*
X40353884Y51452581D02*
X40239598Y51500200D01*
X40239598Y51500200D02*
X40163408Y51595439D01*
X40163408Y51595439D02*
X40125313Y51690677D01*
X40125313Y51690677D02*
X40087217Y51881153D01*
X40087217Y51881153D02*
X40087217Y52024010D01*
X40087217Y52024010D02*
X40125313Y52214486D01*
X40125313Y52214486D02*
X40163408Y52309724D01*
X40163408Y52309724D02*
X40239598Y52404962D01*
X40239598Y52404962D02*
X40353884Y52452581D01*
X40353884Y52452581D02*
X40430075Y52452581D01*
X40430075Y52452581D02*
X40544360Y52404962D01*
X40544360Y52404962D02*
X40582456Y52357343D01*
X41306265Y51452581D02*
X40925313Y51452581D01*
X40925313Y51452581D02*
X40925313Y52452581D01*
X42182456Y51833534D02*
X42791980Y51833534D01*
D11*
X13995863Y25500115D02*
X13881578Y25557258D01*
X13881578Y25557258D02*
X13710149Y25557258D01*
X13710149Y25557258D02*
X13538720Y25500115D01*
X13538720Y25500115D02*
X13424435Y25385829D01*
X13424435Y25385829D02*
X13367292Y25271543D01*
X13367292Y25271543D02*
X13310149Y25042972D01*
X13310149Y25042972D02*
X13310149Y24871543D01*
X13310149Y24871543D02*
X13367292Y24642972D01*
X13367292Y24642972D02*
X13424435Y24528686D01*
X13424435Y24528686D02*
X13538720Y24414400D01*
X13538720Y24414400D02*
X13710149Y24357258D01*
X13710149Y24357258D02*
X13824435Y24357258D01*
X13824435Y24357258D02*
X13995863Y24414400D01*
X13995863Y24414400D02*
X14053006Y24471543D01*
X14053006Y24471543D02*
X14053006Y24871543D01*
X14053006Y24871543D02*
X13824435Y24871543D01*
X14567292Y24357258D02*
X14567292Y25557258D01*
X14567292Y25557258D02*
X15024435Y25557258D01*
X15024435Y25557258D02*
X15138720Y25500115D01*
X15138720Y25500115D02*
X15195863Y25442972D01*
X15195863Y25442972D02*
X15253006Y25328686D01*
X15253006Y25328686D02*
X15253006Y25157258D01*
X15253006Y25157258D02*
X15195863Y25042972D01*
X15195863Y25042972D02*
X15138720Y24985829D01*
X15138720Y24985829D02*
X15024435Y24928686D01*
X15024435Y24928686D02*
X14567292Y24928686D01*
X16395863Y24357258D02*
X15710149Y24357258D01*
X16053006Y24357258D02*
X16053006Y25557258D01*
X16053006Y25557258D02*
X15938720Y25385829D01*
X15938720Y25385829D02*
X15824435Y25271543D01*
X15824435Y25271543D02*
X15710149Y25214400D01*
X46685149Y45717972D02*
X46742292Y45775115D01*
X46742292Y45775115D02*
X46856578Y45832258D01*
X46856578Y45832258D02*
X47142292Y45832258D01*
X47142292Y45832258D02*
X47256578Y45775115D01*
X47256578Y45775115D02*
X47313720Y45717972D01*
X47313720Y45717972D02*
X47370863Y45603686D01*
X47370863Y45603686D02*
X47370863Y45489400D01*
X47370863Y45489400D02*
X47313720Y45317972D01*
X47313720Y45317972D02*
X46628006Y44632258D01*
X46628006Y44632258D02*
X47370863Y44632258D01*
X48113720Y45832258D02*
X48228006Y45832258D01*
X48228006Y45832258D02*
X48342292Y45775115D01*
X48342292Y45775115D02*
X48399435Y45717972D01*
X48399435Y45717972D02*
X48456577Y45603686D01*
X48456577Y45603686D02*
X48513720Y45375115D01*
X48513720Y45375115D02*
X48513720Y45089400D01*
X48513720Y45089400D02*
X48456577Y44860829D01*
X48456577Y44860829D02*
X48399435Y44746543D01*
X48399435Y44746543D02*
X48342292Y44689400D01*
X48342292Y44689400D02*
X48228006Y44632258D01*
X48228006Y44632258D02*
X48113720Y44632258D01*
X48113720Y44632258D02*
X47999435Y44689400D01*
X47999435Y44689400D02*
X47942292Y44746543D01*
X47942292Y44746543D02*
X47885149Y44860829D01*
X47885149Y44860829D02*
X47828006Y45089400D01*
X47828006Y45089400D02*
X47828006Y45375115D01*
X47828006Y45375115D02*
X47885149Y45603686D01*
X47885149Y45603686D02*
X47942292Y45717972D01*
X47942292Y45717972D02*
X47999435Y45775115D01*
X47999435Y45775115D02*
X48113720Y45832258D01*
X44521993Y35550115D02*
X44407708Y35607258D01*
X44407708Y35607258D02*
X44236279Y35607258D01*
X44236279Y35607258D02*
X44064850Y35550115D01*
X44064850Y35550115D02*
X43950565Y35435829D01*
X43950565Y35435829D02*
X43893422Y35321543D01*
X43893422Y35321543D02*
X43836279Y35092972D01*
X43836279Y35092972D02*
X43836279Y34921543D01*
X43836279Y34921543D02*
X43893422Y34692972D01*
X43893422Y34692972D02*
X43950565Y34578686D01*
X43950565Y34578686D02*
X44064850Y34464400D01*
X44064850Y34464400D02*
X44236279Y34407258D01*
X44236279Y34407258D02*
X44350565Y34407258D01*
X44350565Y34407258D02*
X44521993Y34464400D01*
X44521993Y34464400D02*
X44579136Y34521543D01*
X44579136Y34521543D02*
X44579136Y34921543D01*
X44579136Y34921543D02*
X44350565Y34921543D01*
X45093422Y34407258D02*
X45093422Y35607258D01*
X45093422Y35607258D02*
X45550565Y35607258D01*
X45550565Y35607258D02*
X45664850Y35550115D01*
X45664850Y35550115D02*
X45721993Y35492972D01*
X45721993Y35492972D02*
X45779136Y35378686D01*
X45779136Y35378686D02*
X45779136Y35207258D01*
X45779136Y35207258D02*
X45721993Y35092972D01*
X45721993Y35092972D02*
X45664850Y35035829D01*
X45664850Y35035829D02*
X45550565Y34978686D01*
X45550565Y34978686D02*
X45093422Y34978686D01*
X46236279Y35492972D02*
X46293422Y35550115D01*
X46293422Y35550115D02*
X46407708Y35607258D01*
X46407708Y35607258D02*
X46693422Y35607258D01*
X46693422Y35607258D02*
X46807708Y35550115D01*
X46807708Y35550115D02*
X46864850Y35492972D01*
X46864850Y35492972D02*
X46921993Y35378686D01*
X46921993Y35378686D02*
X46921993Y35264400D01*
X46921993Y35264400D02*
X46864850Y35092972D01*
X46864850Y35092972D02*
X46179136Y34407258D01*
X46179136Y34407258D02*
X46921993Y34407258D01*
X47950565Y35207258D02*
X47950565Y34407258D01*
X47664850Y35664400D02*
X47379136Y34807258D01*
X47379136Y34807258D02*
X48121993Y34807258D01*
D12*
X49916667Y17567800D02*
X50059524Y17520181D01*
X50059524Y17520181D02*
X50297619Y17520181D01*
X50297619Y17520181D02*
X50392857Y17567800D01*
X50392857Y17567800D02*
X50440476Y17615420D01*
X50440476Y17615420D02*
X50488095Y17710658D01*
X50488095Y17710658D02*
X50488095Y17805896D01*
X50488095Y17805896D02*
X50440476Y17901134D01*
X50440476Y17901134D02*
X50392857Y17948753D01*
X50392857Y17948753D02*
X50297619Y17996372D01*
X50297619Y17996372D02*
X50107143Y18043991D01*
X50107143Y18043991D02*
X50011905Y18091610D01*
X50011905Y18091610D02*
X49964286Y18139229D01*
X49964286Y18139229D02*
X49916667Y18234467D01*
X49916667Y18234467D02*
X49916667Y18329705D01*
X49916667Y18329705D02*
X49964286Y18424943D01*
X49964286Y18424943D02*
X50011905Y18472562D01*
X50011905Y18472562D02*
X50107143Y18520181D01*
X50107143Y18520181D02*
X50345238Y18520181D01*
X50345238Y18520181D02*
X50488095Y18472562D01*
X50821429Y18520181D02*
X51059524Y17520181D01*
X51059524Y17520181D02*
X51250000Y18234467D01*
X51250000Y18234467D02*
X51440476Y17520181D01*
X51440476Y17520181D02*
X51678572Y18520181D01*
X52011905Y18424943D02*
X52059524Y18472562D01*
X52059524Y18472562D02*
X52154762Y18520181D01*
X52154762Y18520181D02*
X52392857Y18520181D01*
X52392857Y18520181D02*
X52488095Y18472562D01*
X52488095Y18472562D02*
X52535714Y18424943D01*
X52535714Y18424943D02*
X52583333Y18329705D01*
X52583333Y18329705D02*
X52583333Y18234467D01*
X52583333Y18234467D02*
X52535714Y18091610D01*
X52535714Y18091610D02*
X51964286Y17520181D01*
X51964286Y17520181D02*
X52583333Y17520181D01*
X8341667Y17592800D02*
X8484524Y17545181D01*
X8484524Y17545181D02*
X8722619Y17545181D01*
X8722619Y17545181D02*
X8817857Y17592800D01*
X8817857Y17592800D02*
X8865476Y17640420D01*
X8865476Y17640420D02*
X8913095Y17735658D01*
X8913095Y17735658D02*
X8913095Y17830896D01*
X8913095Y17830896D02*
X8865476Y17926134D01*
X8865476Y17926134D02*
X8817857Y17973753D01*
X8817857Y17973753D02*
X8722619Y18021372D01*
X8722619Y18021372D02*
X8532143Y18068991D01*
X8532143Y18068991D02*
X8436905Y18116610D01*
X8436905Y18116610D02*
X8389286Y18164229D01*
X8389286Y18164229D02*
X8341667Y18259467D01*
X8341667Y18259467D02*
X8341667Y18354705D01*
X8341667Y18354705D02*
X8389286Y18449943D01*
X8389286Y18449943D02*
X8436905Y18497562D01*
X8436905Y18497562D02*
X8532143Y18545181D01*
X8532143Y18545181D02*
X8770238Y18545181D01*
X8770238Y18545181D02*
X8913095Y18497562D01*
X9246429Y18545181D02*
X9484524Y17545181D01*
X9484524Y17545181D02*
X9675000Y18259467D01*
X9675000Y18259467D02*
X9865476Y17545181D01*
X9865476Y17545181D02*
X10103572Y18545181D01*
X11008333Y17545181D02*
X10436905Y17545181D01*
X10722619Y17545181D02*
X10722619Y18545181D01*
X10722619Y18545181D02*
X10627381Y18402324D01*
X10627381Y18402324D02*
X10532143Y18307086D01*
X10532143Y18307086D02*
X10436905Y18259467D01*
%TO.C,J3*%
X38160000Y13610000D02*
X43240000Y13610000D01*
X38160000Y5990000D02*
X38160000Y13610000D01*
X43240000Y13610000D02*
X43240000Y5990000D01*
X43240000Y5990000D02*
X38160000Y5990000D01*
%TO.C,J8*%
X32505000Y54560000D02*
X32505000Y49480000D01*
X19805000Y54560000D02*
X32505000Y54560000D01*
X32505000Y49480000D02*
X19805000Y49480000D01*
X19805000Y49480000D02*
X19805000Y54560000D01*
D14*
%TO.C,SW2*%
X49000000Y17950000D02*
X49000000Y18050000D01*
X49000000Y16250000D02*
X53400000Y16250000D01*
X53400000Y19750000D02*
X49000000Y19750000D01*
X53400000Y17950000D02*
X53400000Y18050000D01*
D12*
%TO.C,J6*%
X48690000Y46510000D02*
X53770000Y46510000D01*
X48690000Y21110000D02*
X48690000Y46510000D01*
X53770000Y46510000D02*
X53770000Y21110000D01*
X53770000Y21110000D02*
X48690000Y21110000D01*
%TO.C,J1*%
X25460000Y13510000D02*
X30540000Y13510000D01*
X25460000Y5890000D02*
X25460000Y13510000D01*
X30540000Y13510000D02*
X30540000Y5890000D01*
X30540000Y5890000D02*
X25460000Y5890000D01*
%TO.C,J5*%
X12310000Y21070000D02*
X7230000Y21070000D01*
X12310000Y46470000D02*
X12310000Y21070000D01*
X7230000Y21070000D02*
X7230000Y46470000D01*
X7230000Y46470000D02*
X12310000Y46470000D01*
%TO.C,J4*%
X41445000Y40345000D02*
X41445000Y37805000D01*
X36365000Y40345000D02*
X41445000Y40345000D01*
X41445000Y37805000D02*
X36365000Y37805000D01*
X36365000Y37805000D02*
X36365000Y40345000D01*
D14*
%TO.C,SW1*%
X11900000Y18050000D02*
X11900000Y17950000D01*
X11900000Y19750000D02*
X7500000Y19750000D01*
X7500000Y16250000D02*
X11900000Y16250000D01*
X7500000Y18050000D02*
X7500000Y17950000D01*
D12*
%TO.C,J7*%
X15915000Y44040000D02*
X15915000Y49120000D01*
X46395000Y44040000D02*
X15915000Y44040000D01*
X15915000Y49120000D02*
X46395000Y49120000D01*
X46395000Y49120000D02*
X46395000Y44040000D01*
%TD*%
D15*
%TO.C,J8*%
X31235000Y53290000D03*
X31235000Y50750000D03*
X28695000Y53290000D03*
X28695000Y50750000D03*
X26155000Y53290000D03*
X26155000Y50750000D03*
X23615000Y53290000D03*
X23615000Y50750000D03*
X21075000Y53290000D03*
X21075000Y50750000D03*
%TD*%
%TO.C,J6*%
X49960000Y45240000D03*
X52500000Y45240000D03*
X49960000Y42700000D03*
X52500000Y42700000D03*
X49960000Y40160000D03*
X52500000Y40160000D03*
X49960000Y37620000D03*
X52500000Y37620000D03*
X49960000Y35080000D03*
X52500000Y35080000D03*
X49960000Y32540000D03*
X52500000Y32540000D03*
X49960000Y30000000D03*
X52500000Y30000000D03*
X49960000Y27460000D03*
X52500000Y27460000D03*
X49960000Y24920000D03*
X52500000Y24920000D03*
X49960000Y22380000D03*
X52500000Y22380000D03*
%TD*%
%TO.C,J5*%
X11040000Y22340000D03*
X8500000Y22340000D03*
X11040000Y24880000D03*
X8500000Y24880000D03*
X11040000Y27420000D03*
X8500000Y27420000D03*
X11040000Y29960000D03*
X8500000Y29960000D03*
X11040000Y32500000D03*
X8500000Y32500000D03*
X11040000Y35040000D03*
X8500000Y35040000D03*
X11040000Y37580000D03*
X8500000Y37580000D03*
X11040000Y40120000D03*
X8500000Y40120000D03*
X11040000Y42660000D03*
X8500000Y42660000D03*
X11040000Y45200000D03*
X8500000Y45200000D03*
%TD*%
%TO.C,J4*%
X40175000Y39075000D03*
X37635000Y39075000D03*
%TD*%
%TO.C,J7*%
X17185000Y45310000D03*
X17185000Y47850000D03*
X19725000Y45310000D03*
X19725000Y47850000D03*
X22265000Y45310000D03*
X22265000Y47850000D03*
X24805000Y45310000D03*
X24805000Y47850000D03*
X27345000Y45310000D03*
X27345000Y47850000D03*
X29885000Y45310000D03*
X29885000Y47850000D03*
X32425000Y45310000D03*
X32425000Y47850000D03*
X34965000Y45310000D03*
X34965000Y47850000D03*
X37505000Y45310000D03*
X37505000Y47850000D03*
X40045000Y45310000D03*
X40045000Y47850000D03*
X42585000Y45310000D03*
X42585000Y47850000D03*
X45125000Y45310000D03*
X45125000Y47850000D03*
%TD*%
M02*
