%TF.GenerationSoftware,KiCad,Pcbnew,7.0.11+1*%
%TF.CreationDate,2024-06-03T20:56:50+00:00*%
%TF.ProjectId,RP2040v01,52503230-3430-4763-9031-2e6b69636164,rev?*%
%TF.SameCoordinates,Original*%
%TF.FileFunction,Soldermask,Top*%
%TF.FilePolarity,Negative*%
%FSLAX46Y46*%
G04 Gerber Fmt 4.6, Leading zero omitted, Abs format (unit mm)*
G04 Created by KiCad (PCBNEW 7.0.11+1) date 2024-06-03 20:56:50*
%MOMM*%
%LPD*%
G01*
G04 APERTURE LIST*
%ADD10C,0.800000*%
%ADD11C,6.400000*%
%ADD12R,1.524000X1.524000*%
%ADD13R,1.050000X0.650000*%
%ADD14C,0.650000*%
%ADD15O,1.000000X2.000000*%
%ADD16O,1.050000X2.100000*%
%ADD17O,1.900000X2.400000*%
G04 APERTURE END LIST*
D10*
%TO.C,H3*%
X7760000Y10160000D03*
X8462944Y11857056D03*
X8462944Y8462944D03*
X10160000Y12560000D03*
D11*
X10160000Y10160000D03*
D10*
X10160000Y7760000D03*
X11857056Y11857056D03*
X11857056Y8462944D03*
X12560000Y10160000D03*
%TD*%
%TO.C,H4*%
X48400000Y10160000D03*
X49102944Y11857056D03*
X49102944Y8462944D03*
X50800000Y12560000D03*
D11*
X50800000Y10160000D03*
D10*
X50800000Y7760000D03*
X52497056Y11857056D03*
X52497056Y8462944D03*
X53200000Y10160000D03*
%TD*%
D12*
%TO.C,J3*%
X39430000Y12340000D03*
X41970000Y12340000D03*
X39430000Y9800000D03*
X41970000Y9800000D03*
X39430000Y7260000D03*
X41970000Y7260000D03*
%TD*%
%TO.C,J8*%
X31235000Y53290000D03*
X31235000Y50750000D03*
X28695000Y53290000D03*
X28695000Y50750000D03*
X26155000Y53290000D03*
X26155000Y50750000D03*
X23615000Y53290000D03*
X23615000Y50750000D03*
X21075000Y53290000D03*
X21075000Y50750000D03*
%TD*%
D13*
%TO.C,SW2*%
X49125000Y19075000D03*
X53275000Y19075000D03*
X49125000Y16925000D03*
X53250000Y16925000D03*
%TD*%
D12*
%TO.C,J6*%
X49960000Y45240000D03*
X52500000Y45240000D03*
X49960000Y42700000D03*
X52500000Y42700000D03*
X49960000Y40160000D03*
X52500000Y40160000D03*
X49960000Y37620000D03*
X52500000Y37620000D03*
X49960000Y35080000D03*
X52500000Y35080000D03*
X49960000Y32540000D03*
X52500000Y32540000D03*
X49960000Y30000000D03*
X52500000Y30000000D03*
X49960000Y27460000D03*
X52500000Y27460000D03*
X49960000Y24920000D03*
X52500000Y24920000D03*
X49960000Y22380000D03*
X52500000Y22380000D03*
%TD*%
D10*
%TO.C,H2*%
X48400000Y50800000D03*
X49102944Y52497056D03*
X49102944Y49102944D03*
X50800000Y53200000D03*
D11*
X50800000Y50800000D03*
D10*
X50800000Y48400000D03*
X52497056Y52497056D03*
X52497056Y49102944D03*
X53200000Y50800000D03*
%TD*%
D12*
%TO.C,J1*%
X26730000Y12240000D03*
X29270000Y12240000D03*
X26730000Y9700000D03*
X29270000Y9700000D03*
X26730000Y7160000D03*
X29270000Y7160000D03*
%TD*%
%TO.C,J5*%
X11040000Y22340000D03*
X8500000Y22340000D03*
X11040000Y24880000D03*
X8500000Y24880000D03*
X11040000Y27420000D03*
X8500000Y27420000D03*
X11040000Y29960000D03*
X8500000Y29960000D03*
X11040000Y32500000D03*
X8500000Y32500000D03*
X11040000Y35040000D03*
X8500000Y35040000D03*
X11040000Y37580000D03*
X8500000Y37580000D03*
X11040000Y40120000D03*
X8500000Y40120000D03*
X11040000Y42660000D03*
X8500000Y42660000D03*
X11040000Y45200000D03*
X8500000Y45200000D03*
%TD*%
%TO.C,J4*%
X40175000Y39075000D03*
X37635000Y39075000D03*
%TD*%
D10*
%TO.C,H1*%
X7760000Y50800000D03*
X8462944Y52497056D03*
X8462944Y49102944D03*
X10160000Y53200000D03*
D11*
X10160000Y50800000D03*
D10*
X10160000Y48400000D03*
X11857056Y52497056D03*
X11857056Y49102944D03*
X12560000Y50800000D03*
%TD*%
D13*
%TO.C,SW1*%
X11775000Y16925000D03*
X7625000Y16925000D03*
X11775000Y19075000D03*
X7650000Y19075000D03*
%TD*%
D12*
%TO.C,J7*%
X17185000Y45310000D03*
X17185000Y47850000D03*
X19725000Y45310000D03*
X19725000Y47850000D03*
X22265000Y45310000D03*
X22265000Y47850000D03*
X24805000Y45310000D03*
X24805000Y47850000D03*
X27345000Y45310000D03*
X27345000Y47850000D03*
X29885000Y45310000D03*
X29885000Y47850000D03*
X32425000Y45310000D03*
X32425000Y47850000D03*
X34965000Y45310000D03*
X34965000Y47850000D03*
X37505000Y45310000D03*
X37505000Y47850000D03*
X40045000Y45310000D03*
X40045000Y47850000D03*
X42585000Y45310000D03*
X42585000Y47850000D03*
X45125000Y45310000D03*
X45125000Y47850000D03*
%TD*%
D14*
%TO.C,J2*%
X22490000Y11315000D03*
X16710000Y11315000D03*
D15*
X23920000Y7635000D03*
X15280000Y7635000D03*
D16*
X23920000Y11815000D03*
X15280000Y11815000D03*
%TD*%
D17*
%TO.C,D2*%
X36900000Y16600000D03*
%TD*%
%TO.C,D1*%
X42100000Y16600000D03*
%TD*%
M02*
