%TF.GenerationSoftware,KiCad,Pcbnew,7.0.11+1*%
%TF.CreationDate,2024-06-09T18:10:44+00:00*%
%TF.ProjectId,RP2040v01,52503230-3430-4763-9031-2e6b69636164,rev?*%
%TF.SameCoordinates,Original*%
%TF.FileFunction,Legend,Bot*%
%TF.FilePolarity,Positive*%
%FSLAX46Y46*%
G04 Gerber Fmt 4.6, Leading zero omitted, Abs format (unit mm)*
G04 Created by KiCad (PCBNEW 7.0.11+1) date 2024-06-09 18:10:44*
%MOMM*%
%LPD*%
G01*
G04 APERTURE LIST*
%ADD10C,0.125000*%
%ADD11C,0.120000*%
%ADD12C,0.200000*%
G04 APERTURE END LIST*
D10*
X36347387Y38945559D02*
X36404629Y38945559D01*
X36404629Y38945559D02*
X36519113Y39002801D01*
X36519113Y39002801D02*
X36576355Y39060043D01*
X36576355Y39060043D02*
X36633597Y39174526D01*
X36633597Y39174526D02*
X36633597Y39289010D01*
X36633597Y39289010D02*
X36604976Y39374873D01*
X36604976Y39374873D02*
X36519113Y39517978D01*
X36519113Y39517978D02*
X36433250Y39603841D01*
X36433250Y39603841D02*
X36290145Y39689704D01*
X36290145Y39689704D02*
X36204283Y39718325D01*
X36204283Y39718325D02*
X36089799Y39718325D01*
X36089799Y39718325D02*
X35975315Y39661083D01*
X35975315Y39661083D02*
X35918073Y39603841D01*
X35918073Y39603841D02*
X35860831Y39489357D01*
X35860831Y39489357D02*
X35860831Y39432115D01*
X35717726Y38888317D02*
X35746347Y38974180D01*
X35746347Y38974180D02*
X35746347Y39031422D01*
X35746347Y39031422D02*
X35717726Y39117285D01*
X35717726Y39117285D02*
X35689105Y39145906D01*
X35689105Y39145906D02*
X35603242Y39174526D01*
X35603242Y39174526D02*
X35546000Y39174526D01*
X35546000Y39174526D02*
X35460137Y39145906D01*
X35460137Y39145906D02*
X35345653Y39031422D01*
X35345653Y39031422D02*
X35317032Y38945559D01*
X35317032Y38945559D02*
X35317032Y38888317D01*
X35317032Y38888317D02*
X35345653Y38802454D01*
X35345653Y38802454D02*
X35374274Y38773833D01*
X35374274Y38773833D02*
X35460137Y38745212D01*
X35460137Y38745212D02*
X35517379Y38745212D01*
X35517379Y38745212D02*
X35603242Y38773833D01*
X35603242Y38773833D02*
X35717726Y38888317D01*
X35717726Y38888317D02*
X35803589Y38916938D01*
X35803589Y38916938D02*
X35860831Y38916938D01*
X35860831Y38916938D02*
X35946694Y38888317D01*
X35946694Y38888317D02*
X36061178Y38773833D01*
X36061178Y38773833D02*
X36089799Y38687970D01*
X36089799Y38687970D02*
X36089799Y38630728D01*
X36089799Y38630728D02*
X36061178Y38544865D01*
X36061178Y38544865D02*
X35946694Y38430381D01*
X35946694Y38430381D02*
X35860831Y38401760D01*
X35860831Y38401760D02*
X35803589Y38401760D01*
X35803589Y38401760D02*
X35717726Y38430381D01*
X35717726Y38430381D02*
X35603242Y38544865D01*
X35603242Y38544865D02*
X35574621Y38630728D01*
X35574621Y38630728D02*
X35574621Y38687970D01*
X35574621Y38687970D02*
X35603242Y38773833D01*
X30141666Y15569226D02*
X30182142Y15528749D01*
X30182142Y15528749D02*
X30303571Y15488273D01*
X30303571Y15488273D02*
X30384523Y15488273D01*
X30384523Y15488273D02*
X30505952Y15528749D01*
X30505952Y15528749D02*
X30586904Y15609702D01*
X30586904Y15609702D02*
X30627381Y15690654D01*
X30627381Y15690654D02*
X30667857Y15852559D01*
X30667857Y15852559D02*
X30667857Y15973988D01*
X30667857Y15973988D02*
X30627381Y16135892D01*
X30627381Y16135892D02*
X30586904Y16216845D01*
X30586904Y16216845D02*
X30505952Y16297797D01*
X30505952Y16297797D02*
X30384523Y16338273D01*
X30384523Y16338273D02*
X30303571Y16338273D01*
X30303571Y16338273D02*
X30182142Y16297797D01*
X30182142Y16297797D02*
X30141666Y16257321D01*
X29413095Y16338273D02*
X29575000Y16338273D01*
X29575000Y16338273D02*
X29655952Y16297797D01*
X29655952Y16297797D02*
X29696428Y16257321D01*
X29696428Y16257321D02*
X29777381Y16135892D01*
X29777381Y16135892D02*
X29817857Y15973988D01*
X29817857Y15973988D02*
X29817857Y15650178D01*
X29817857Y15650178D02*
X29777381Y15569226D01*
X29777381Y15569226D02*
X29736904Y15528749D01*
X29736904Y15528749D02*
X29655952Y15488273D01*
X29655952Y15488273D02*
X29494047Y15488273D01*
X29494047Y15488273D02*
X29413095Y15528749D01*
X29413095Y15528749D02*
X29372619Y15569226D01*
X29372619Y15569226D02*
X29332142Y15650178D01*
X29332142Y15650178D02*
X29332142Y15852559D01*
X29332142Y15852559D02*
X29372619Y15933511D01*
X29372619Y15933511D02*
X29413095Y15973988D01*
X29413095Y15973988D02*
X29494047Y16014464D01*
X29494047Y16014464D02*
X29655952Y16014464D01*
X29655952Y16014464D02*
X29736904Y15973988D01*
X29736904Y15973988D02*
X29777381Y15933511D01*
X29777381Y15933511D02*
X29817857Y15852559D01*
X24791666Y25294226D02*
X24832142Y25253749D01*
X24832142Y25253749D02*
X24953571Y25213273D01*
X24953571Y25213273D02*
X25034523Y25213273D01*
X25034523Y25213273D02*
X25155952Y25253749D01*
X25155952Y25253749D02*
X25236904Y25334702D01*
X25236904Y25334702D02*
X25277381Y25415654D01*
X25277381Y25415654D02*
X25317857Y25577559D01*
X25317857Y25577559D02*
X25317857Y25698988D01*
X25317857Y25698988D02*
X25277381Y25860892D01*
X25277381Y25860892D02*
X25236904Y25941845D01*
X25236904Y25941845D02*
X25155952Y26022797D01*
X25155952Y26022797D02*
X25034523Y26063273D01*
X25034523Y26063273D02*
X24953571Y26063273D01*
X24953571Y26063273D02*
X24832142Y26022797D01*
X24832142Y26022797D02*
X24791666Y25982321D01*
X24508333Y26063273D02*
X23982142Y26063273D01*
X23982142Y26063273D02*
X24265476Y25739464D01*
X24265476Y25739464D02*
X24144047Y25739464D01*
X24144047Y25739464D02*
X24063095Y25698988D01*
X24063095Y25698988D02*
X24022619Y25658511D01*
X24022619Y25658511D02*
X23982142Y25577559D01*
X23982142Y25577559D02*
X23982142Y25375178D01*
X23982142Y25375178D02*
X24022619Y25294226D01*
X24022619Y25294226D02*
X24063095Y25253749D01*
X24063095Y25253749D02*
X24144047Y25213273D01*
X24144047Y25213273D02*
X24386904Y25213273D01*
X24386904Y25213273D02*
X24467857Y25253749D01*
X24467857Y25253749D02*
X24508333Y25294226D01*
X36786927Y14156820D02*
X37475022Y14156820D01*
X37475022Y14156820D02*
X37555974Y14116343D01*
X37555974Y14116343D02*
X37596451Y14075867D01*
X37596451Y14075867D02*
X37636927Y13994915D01*
X37636927Y13994915D02*
X37636927Y13833010D01*
X37636927Y13833010D02*
X37596451Y13752058D01*
X37596451Y13752058D02*
X37555974Y13711581D01*
X37555974Y13711581D02*
X37475022Y13671105D01*
X37475022Y13671105D02*
X36786927Y13671105D01*
X37636927Y12821105D02*
X37636927Y13306820D01*
X37636927Y13063963D02*
X36786927Y13063963D01*
X36786927Y13063963D02*
X36908355Y13144915D01*
X36908355Y13144915D02*
X36989308Y13225867D01*
X36989308Y13225867D02*
X37029784Y13306820D01*
X27077419Y16944273D02*
X27077419Y16256178D01*
X27077419Y16256178D02*
X27036942Y16175226D01*
X27036942Y16175226D02*
X26996466Y16134749D01*
X26996466Y16134749D02*
X26915514Y16094273D01*
X26915514Y16094273D02*
X26753609Y16094273D01*
X26753609Y16094273D02*
X26672657Y16134749D01*
X26672657Y16134749D02*
X26632180Y16175226D01*
X26632180Y16175226D02*
X26591704Y16256178D01*
X26591704Y16256178D02*
X26591704Y16944273D01*
X26267895Y16944273D02*
X25741704Y16944273D01*
X25741704Y16944273D02*
X26025038Y16620464D01*
X26025038Y16620464D02*
X25903609Y16620464D01*
X25903609Y16620464D02*
X25822657Y16579988D01*
X25822657Y16579988D02*
X25782181Y16539511D01*
X25782181Y16539511D02*
X25741704Y16458559D01*
X25741704Y16458559D02*
X25741704Y16256178D01*
X25741704Y16256178D02*
X25782181Y16175226D01*
X25782181Y16175226D02*
X25822657Y16134749D01*
X25822657Y16134749D02*
X25903609Y16094273D01*
X25903609Y16094273D02*
X26146466Y16094273D01*
X26146466Y16094273D02*
X26227419Y16134749D01*
X26227419Y16134749D02*
X26267895Y16175226D01*
X21291666Y25474226D02*
X21332142Y25433749D01*
X21332142Y25433749D02*
X21453571Y25393273D01*
X21453571Y25393273D02*
X21534523Y25393273D01*
X21534523Y25393273D02*
X21655952Y25433749D01*
X21655952Y25433749D02*
X21736904Y25514702D01*
X21736904Y25514702D02*
X21777381Y25595654D01*
X21777381Y25595654D02*
X21817857Y25757559D01*
X21817857Y25757559D02*
X21817857Y25878988D01*
X21817857Y25878988D02*
X21777381Y26040892D01*
X21777381Y26040892D02*
X21736904Y26121845D01*
X21736904Y26121845D02*
X21655952Y26202797D01*
X21655952Y26202797D02*
X21534523Y26243273D01*
X21534523Y26243273D02*
X21453571Y26243273D01*
X21453571Y26243273D02*
X21332142Y26202797D01*
X21332142Y26202797D02*
X21291666Y26162321D01*
X20522619Y26243273D02*
X20927381Y26243273D01*
X20927381Y26243273D02*
X20967857Y25838511D01*
X20967857Y25838511D02*
X20927381Y25878988D01*
X20927381Y25878988D02*
X20846428Y25919464D01*
X20846428Y25919464D02*
X20644047Y25919464D01*
X20644047Y25919464D02*
X20563095Y25878988D01*
X20563095Y25878988D02*
X20522619Y25838511D01*
X20522619Y25838511D02*
X20482142Y25757559D01*
X20482142Y25757559D02*
X20482142Y25555178D01*
X20482142Y25555178D02*
X20522619Y25474226D01*
X20522619Y25474226D02*
X20563095Y25433749D01*
X20563095Y25433749D02*
X20644047Y25393273D01*
X20644047Y25393273D02*
X20846428Y25393273D01*
X20846428Y25393273D02*
X20927381Y25433749D01*
X20927381Y25433749D02*
X20967857Y25474226D01*
X41318952Y22160121D02*
X41399904Y22200597D01*
X41399904Y22200597D02*
X41480857Y22281549D01*
X41480857Y22281549D02*
X41602285Y22402978D01*
X41602285Y22402978D02*
X41683238Y22443454D01*
X41683238Y22443454D02*
X41764190Y22443454D01*
X41723714Y22241073D02*
X41804666Y22281549D01*
X41804666Y22281549D02*
X41885619Y22362502D01*
X41885619Y22362502D02*
X41926095Y22524407D01*
X41926095Y22524407D02*
X41926095Y22807740D01*
X41926095Y22807740D02*
X41885619Y22969645D01*
X41885619Y22969645D02*
X41804666Y23050597D01*
X41804666Y23050597D02*
X41723714Y23091073D01*
X41723714Y23091073D02*
X41561809Y23091073D01*
X41561809Y23091073D02*
X41480857Y23050597D01*
X41480857Y23050597D02*
X41399904Y22969645D01*
X41399904Y22969645D02*
X41359428Y22807740D01*
X41359428Y22807740D02*
X41359428Y22524407D01*
X41359428Y22524407D02*
X41399904Y22362502D01*
X41399904Y22362502D02*
X41480857Y22281549D01*
X41480857Y22281549D02*
X41561809Y22241073D01*
X41561809Y22241073D02*
X41723714Y22241073D01*
X40549904Y22241073D02*
X41035619Y22241073D01*
X40792762Y22241073D02*
X40792762Y23091073D01*
X40792762Y23091073D02*
X40873714Y22969645D01*
X40873714Y22969645D02*
X40954666Y22888692D01*
X40954666Y22888692D02*
X41035619Y22848216D01*
X37347619Y26538273D02*
X37347619Y25850178D01*
X37347619Y25850178D02*
X37307142Y25769226D01*
X37307142Y25769226D02*
X37266666Y25728749D01*
X37266666Y25728749D02*
X37185714Y25688273D01*
X37185714Y25688273D02*
X37023809Y25688273D01*
X37023809Y25688273D02*
X36942857Y25728749D01*
X36942857Y25728749D02*
X36902380Y25769226D01*
X36902380Y25769226D02*
X36861904Y25850178D01*
X36861904Y25850178D02*
X36861904Y26538273D01*
X36092857Y26254940D02*
X36092857Y25688273D01*
X36295238Y26578749D02*
X36497619Y25971607D01*
X36497619Y25971607D02*
X35971428Y25971607D01*
X29999611Y41564864D02*
X30285821Y41278655D01*
X29885128Y42080042D02*
X29999611Y41564864D01*
X29999611Y41564864D02*
X29484434Y41679348D01*
X29570297Y40563130D02*
X29913749Y40906582D01*
X29742023Y40734856D02*
X29140982Y41335897D01*
X29140982Y41335897D02*
X29284087Y41307276D01*
X29284087Y41307276D02*
X29398571Y41307276D01*
X29398571Y41307276D02*
X29484434Y41335897D01*
X32591666Y22794226D02*
X32632142Y22753749D01*
X32632142Y22753749D02*
X32753571Y22713273D01*
X32753571Y22713273D02*
X32834523Y22713273D01*
X32834523Y22713273D02*
X32955952Y22753749D01*
X32955952Y22753749D02*
X33036904Y22834702D01*
X33036904Y22834702D02*
X33077381Y22915654D01*
X33077381Y22915654D02*
X33117857Y23077559D01*
X33117857Y23077559D02*
X33117857Y23198988D01*
X33117857Y23198988D02*
X33077381Y23360892D01*
X33077381Y23360892D02*
X33036904Y23441845D01*
X33036904Y23441845D02*
X32955952Y23522797D01*
X32955952Y23522797D02*
X32834523Y23563273D01*
X32834523Y23563273D02*
X32753571Y23563273D01*
X32753571Y23563273D02*
X32632142Y23522797D01*
X32632142Y23522797D02*
X32591666Y23482321D01*
X31863095Y23279940D02*
X31863095Y22713273D01*
X32065476Y23603749D02*
X32267857Y22996607D01*
X32267857Y22996607D02*
X31741666Y22996607D01*
X40996428Y27714226D02*
X41036904Y27673749D01*
X41036904Y27673749D02*
X41158333Y27633273D01*
X41158333Y27633273D02*
X41239285Y27633273D01*
X41239285Y27633273D02*
X41360714Y27673749D01*
X41360714Y27673749D02*
X41441666Y27754702D01*
X41441666Y27754702D02*
X41482143Y27835654D01*
X41482143Y27835654D02*
X41522619Y27997559D01*
X41522619Y27997559D02*
X41522619Y28118988D01*
X41522619Y28118988D02*
X41482143Y28280892D01*
X41482143Y28280892D02*
X41441666Y28361845D01*
X41441666Y28361845D02*
X41360714Y28442797D01*
X41360714Y28442797D02*
X41239285Y28483273D01*
X41239285Y28483273D02*
X41158333Y28483273D01*
X41158333Y28483273D02*
X41036904Y28442797D01*
X41036904Y28442797D02*
X40996428Y28402321D01*
X40186904Y27633273D02*
X40672619Y27633273D01*
X40429762Y27633273D02*
X40429762Y28483273D01*
X40429762Y28483273D02*
X40510714Y28361845D01*
X40510714Y28361845D02*
X40591666Y28280892D01*
X40591666Y28280892D02*
X40672619Y28240416D01*
X39377380Y27633273D02*
X39863095Y27633273D01*
X39620238Y27633273D02*
X39620238Y28483273D01*
X39620238Y28483273D02*
X39701190Y28361845D01*
X39701190Y28361845D02*
X39782142Y28280892D01*
X39782142Y28280892D02*
X39863095Y28240416D01*
X18138666Y14748073D02*
X18422000Y15152835D01*
X18624381Y14748073D02*
X18624381Y15598073D01*
X18624381Y15598073D02*
X18300571Y15598073D01*
X18300571Y15598073D02*
X18219619Y15557597D01*
X18219619Y15557597D02*
X18179142Y15517121D01*
X18179142Y15517121D02*
X18138666Y15436169D01*
X18138666Y15436169D02*
X18138666Y15314740D01*
X18138666Y15314740D02*
X18179142Y15233788D01*
X18179142Y15233788D02*
X18219619Y15193311D01*
X18219619Y15193311D02*
X18300571Y15152835D01*
X18300571Y15152835D02*
X18624381Y15152835D01*
X17329142Y14748073D02*
X17814857Y14748073D01*
X17572000Y14748073D02*
X17572000Y15598073D01*
X17572000Y15598073D02*
X17652952Y15476645D01*
X17652952Y15476645D02*
X17733904Y15395692D01*
X17733904Y15395692D02*
X17814857Y15355216D01*
X46653927Y11085467D02*
X46249165Y11368801D01*
X46653927Y11571182D02*
X45803927Y11571182D01*
X45803927Y11571182D02*
X45803927Y11247372D01*
X45803927Y11247372D02*
X45844403Y11166420D01*
X45844403Y11166420D02*
X45884879Y11125943D01*
X45884879Y11125943D02*
X45965831Y11085467D01*
X45965831Y11085467D02*
X46087260Y11085467D01*
X46087260Y11085467D02*
X46168212Y11125943D01*
X46168212Y11125943D02*
X46208689Y11166420D01*
X46208689Y11166420D02*
X46249165Y11247372D01*
X46249165Y11247372D02*
X46249165Y11571182D01*
X45803927Y10316420D02*
X45803927Y10721182D01*
X45803927Y10721182D02*
X46208689Y10761658D01*
X46208689Y10761658D02*
X46168212Y10721182D01*
X46168212Y10721182D02*
X46127736Y10640229D01*
X46127736Y10640229D02*
X46127736Y10437848D01*
X46127736Y10437848D02*
X46168212Y10356896D01*
X46168212Y10356896D02*
X46208689Y10316420D01*
X46208689Y10316420D02*
X46289641Y10275943D01*
X46289641Y10275943D02*
X46492022Y10275943D01*
X46492022Y10275943D02*
X46572974Y10316420D01*
X46572974Y10316420D02*
X46613451Y10356896D01*
X46613451Y10356896D02*
X46653927Y10437848D01*
X46653927Y10437848D02*
X46653927Y10640229D01*
X46653927Y10640229D02*
X46613451Y10721182D01*
X46613451Y10721182D02*
X46572974Y10761658D01*
X32836727Y17791667D02*
X32431965Y18075001D01*
X32836727Y18277382D02*
X31986727Y18277382D01*
X31986727Y18277382D02*
X31986727Y17953572D01*
X31986727Y17953572D02*
X32027203Y17872620D01*
X32027203Y17872620D02*
X32067679Y17832143D01*
X32067679Y17832143D02*
X32148631Y17791667D01*
X32148631Y17791667D02*
X32270060Y17791667D01*
X32270060Y17791667D02*
X32351012Y17832143D01*
X32351012Y17832143D02*
X32391489Y17872620D01*
X32391489Y17872620D02*
X32431965Y17953572D01*
X32431965Y17953572D02*
X32431965Y18277382D01*
X31986727Y17063096D02*
X31986727Y17225001D01*
X31986727Y17225001D02*
X32027203Y17305953D01*
X32027203Y17305953D02*
X32067679Y17346429D01*
X32067679Y17346429D02*
X32189108Y17427382D01*
X32189108Y17427382D02*
X32351012Y17467858D01*
X32351012Y17467858D02*
X32674822Y17467858D01*
X32674822Y17467858D02*
X32755774Y17427382D01*
X32755774Y17427382D02*
X32796251Y17386905D01*
X32796251Y17386905D02*
X32836727Y17305953D01*
X32836727Y17305953D02*
X32836727Y17144048D01*
X32836727Y17144048D02*
X32796251Y17063096D01*
X32796251Y17063096D02*
X32755774Y17022620D01*
X32755774Y17022620D02*
X32674822Y16982143D01*
X32674822Y16982143D02*
X32472441Y16982143D01*
X32472441Y16982143D02*
X32391489Y17022620D01*
X32391489Y17022620D02*
X32351012Y17063096D01*
X32351012Y17063096D02*
X32310536Y17144048D01*
X32310536Y17144048D02*
X32310536Y17305953D01*
X32310536Y17305953D02*
X32351012Y17386905D01*
X32351012Y17386905D02*
X32391489Y17427382D01*
X32391489Y17427382D02*
X32472441Y17467858D01*
X37230527Y20227829D02*
X36825765Y20511163D01*
X37230527Y20713544D02*
X36380527Y20713544D01*
X36380527Y20713544D02*
X36380527Y20389734D01*
X36380527Y20389734D02*
X36421003Y20308782D01*
X36421003Y20308782D02*
X36461479Y20268305D01*
X36461479Y20268305D02*
X36542431Y20227829D01*
X36542431Y20227829D02*
X36663860Y20227829D01*
X36663860Y20227829D02*
X36744812Y20268305D01*
X36744812Y20268305D02*
X36785289Y20308782D01*
X36785289Y20308782D02*
X36825765Y20389734D01*
X36825765Y20389734D02*
X36825765Y20713544D01*
X37230527Y19418305D02*
X37230527Y19904020D01*
X37230527Y19661163D02*
X36380527Y19661163D01*
X36380527Y19661163D02*
X36501955Y19742115D01*
X36501955Y19742115D02*
X36582908Y19823067D01*
X36582908Y19823067D02*
X36623384Y19904020D01*
X37230527Y18608781D02*
X37230527Y19094496D01*
X37230527Y18851639D02*
X36380527Y18851639D01*
X36380527Y18851639D02*
X36501955Y18932591D01*
X36501955Y18932591D02*
X36582908Y19013543D01*
X36582908Y19013543D02*
X36623384Y19094496D01*
X25604219Y15572673D02*
X25604219Y14884578D01*
X25604219Y14884578D02*
X25563742Y14803626D01*
X25563742Y14803626D02*
X25523266Y14763149D01*
X25523266Y14763149D02*
X25442314Y14722673D01*
X25442314Y14722673D02*
X25280409Y14722673D01*
X25280409Y14722673D02*
X25199457Y14763149D01*
X25199457Y14763149D02*
X25158980Y14803626D01*
X25158980Y14803626D02*
X25118504Y14884578D01*
X25118504Y14884578D02*
X25118504Y15572673D01*
X24754219Y15491721D02*
X24713743Y15532197D01*
X24713743Y15532197D02*
X24632790Y15572673D01*
X24632790Y15572673D02*
X24430409Y15572673D01*
X24430409Y15572673D02*
X24349457Y15532197D01*
X24349457Y15532197D02*
X24308981Y15491721D01*
X24308981Y15491721D02*
X24268504Y15410769D01*
X24268504Y15410769D02*
X24268504Y15329816D01*
X24268504Y15329816D02*
X24308981Y15208388D01*
X24308981Y15208388D02*
X24794695Y14722673D01*
X24794695Y14722673D02*
X24268504Y14722673D01*
X17904166Y21888273D02*
X18187500Y22293035D01*
X18389881Y21888273D02*
X18389881Y22738273D01*
X18389881Y22738273D02*
X18066071Y22738273D01*
X18066071Y22738273D02*
X17985119Y22697797D01*
X17985119Y22697797D02*
X17944642Y22657321D01*
X17944642Y22657321D02*
X17904166Y22576369D01*
X17904166Y22576369D02*
X17904166Y22454940D01*
X17904166Y22454940D02*
X17944642Y22373988D01*
X17944642Y22373988D02*
X17985119Y22333511D01*
X17985119Y22333511D02*
X18066071Y22293035D01*
X18066071Y22293035D02*
X18389881Y22293035D01*
X17175595Y22454940D02*
X17175595Y21888273D01*
X17377976Y22778749D02*
X17580357Y22171607D01*
X17580357Y22171607D02*
X17054166Y22171607D01*
X12195066Y16297473D02*
X12478400Y16702235D01*
X12680781Y16297473D02*
X12680781Y17147473D01*
X12680781Y17147473D02*
X12356971Y17147473D01*
X12356971Y17147473D02*
X12276019Y17106997D01*
X12276019Y17106997D02*
X12235542Y17066521D01*
X12235542Y17066521D02*
X12195066Y16985569D01*
X12195066Y16985569D02*
X12195066Y16864140D01*
X12195066Y16864140D02*
X12235542Y16783188D01*
X12235542Y16783188D02*
X12276019Y16742711D01*
X12276019Y16742711D02*
X12356971Y16702235D01*
X12356971Y16702235D02*
X12680781Y16702235D01*
X11871257Y17066521D02*
X11830781Y17106997D01*
X11830781Y17106997D02*
X11749828Y17147473D01*
X11749828Y17147473D02*
X11547447Y17147473D01*
X11547447Y17147473D02*
X11466495Y17106997D01*
X11466495Y17106997D02*
X11426019Y17066521D01*
X11426019Y17066521D02*
X11385542Y16985569D01*
X11385542Y16985569D02*
X11385542Y16904616D01*
X11385542Y16904616D02*
X11426019Y16783188D01*
X11426019Y16783188D02*
X11911733Y16297473D01*
X11911733Y16297473D02*
X11385542Y16297473D01*
X8766066Y16373673D02*
X9049400Y16778435D01*
X9251781Y16373673D02*
X9251781Y17223673D01*
X9251781Y17223673D02*
X8927971Y17223673D01*
X8927971Y17223673D02*
X8847019Y17183197D01*
X8847019Y17183197D02*
X8806542Y17142721D01*
X8806542Y17142721D02*
X8766066Y17061769D01*
X8766066Y17061769D02*
X8766066Y16940340D01*
X8766066Y16940340D02*
X8806542Y16859388D01*
X8806542Y16859388D02*
X8847019Y16818911D01*
X8847019Y16818911D02*
X8927971Y16778435D01*
X8927971Y16778435D02*
X9251781Y16778435D01*
X8482733Y17223673D02*
X7956542Y17223673D01*
X7956542Y17223673D02*
X8239876Y16899864D01*
X8239876Y16899864D02*
X8118447Y16899864D01*
X8118447Y16899864D02*
X8037495Y16859388D01*
X8037495Y16859388D02*
X7997019Y16818911D01*
X7997019Y16818911D02*
X7956542Y16737959D01*
X7956542Y16737959D02*
X7956542Y16535578D01*
X7956542Y16535578D02*
X7997019Y16454626D01*
X7997019Y16454626D02*
X8037495Y16414149D01*
X8037495Y16414149D02*
X8118447Y16373673D01*
X8118447Y16373673D02*
X8361304Y16373673D01*
X8361304Y16373673D02*
X8442257Y16414149D01*
X8442257Y16414149D02*
X8482733Y16454626D01*
X35464568Y42091203D02*
X35464568Y42033961D01*
X35464568Y42033961D02*
X35521810Y41919477D01*
X35521810Y41919477D02*
X35579051Y41862235D01*
X35579051Y41862235D02*
X35693535Y41804993D01*
X35693535Y41804993D02*
X35808019Y41804993D01*
X35808019Y41804993D02*
X35893882Y41833614D01*
X35893882Y41833614D02*
X36036987Y41919477D01*
X36036987Y41919477D02*
X36122850Y42005340D01*
X36122850Y42005340D02*
X36208713Y42148445D01*
X36208713Y42148445D02*
X36237334Y42234308D01*
X36237334Y42234308D02*
X36237334Y42348791D01*
X36237334Y42348791D02*
X36180092Y42463275D01*
X36180092Y42463275D02*
X36122850Y42520517D01*
X36122850Y42520517D02*
X36008366Y42577759D01*
X36008366Y42577759D02*
X35951124Y42577759D01*
X34834906Y42606380D02*
X35178358Y42262929D01*
X35006632Y42434654D02*
X35607672Y43035695D01*
X35607672Y43035695D02*
X35579051Y42892590D01*
X35579051Y42892590D02*
X35579051Y42778106D01*
X35579051Y42778106D02*
X35607672Y42692243D01*
X35149737Y43379147D02*
X35149737Y43436389D01*
X35149737Y43436389D02*
X35121116Y43522252D01*
X35121116Y43522252D02*
X34978011Y43665357D01*
X34978011Y43665357D02*
X34892148Y43693978D01*
X34892148Y43693978D02*
X34834906Y43693978D01*
X34834906Y43693978D02*
X34749043Y43665357D01*
X34749043Y43665357D02*
X34691801Y43608115D01*
X34691801Y43608115D02*
X34634559Y43493631D01*
X34634559Y43493631D02*
X34634559Y42806727D01*
X34634559Y42806727D02*
X34262486Y43178800D01*
X46069727Y20151629D02*
X45664965Y20434963D01*
X46069727Y20637344D02*
X45219727Y20637344D01*
X45219727Y20637344D02*
X45219727Y20313534D01*
X45219727Y20313534D02*
X45260203Y20232582D01*
X45260203Y20232582D02*
X45300679Y20192105D01*
X45300679Y20192105D02*
X45381631Y20151629D01*
X45381631Y20151629D02*
X45503060Y20151629D01*
X45503060Y20151629D02*
X45584012Y20192105D01*
X45584012Y20192105D02*
X45624489Y20232582D01*
X45624489Y20232582D02*
X45664965Y20313534D01*
X45664965Y20313534D02*
X45664965Y20637344D01*
X46069727Y19342105D02*
X46069727Y19827820D01*
X46069727Y19584963D02*
X45219727Y19584963D01*
X45219727Y19584963D02*
X45341155Y19665915D01*
X45341155Y19665915D02*
X45422108Y19746867D01*
X45422108Y19746867D02*
X45462584Y19827820D01*
X45219727Y18815915D02*
X45219727Y18734962D01*
X45219727Y18734962D02*
X45260203Y18654010D01*
X45260203Y18654010D02*
X45300679Y18613534D01*
X45300679Y18613534D02*
X45381631Y18573058D01*
X45381631Y18573058D02*
X45543536Y18532581D01*
X45543536Y18532581D02*
X45745917Y18532581D01*
X45745917Y18532581D02*
X45907822Y18573058D01*
X45907822Y18573058D02*
X45988774Y18613534D01*
X45988774Y18613534D02*
X46029251Y18654010D01*
X46029251Y18654010D02*
X46069727Y18734962D01*
X46069727Y18734962D02*
X46069727Y18815915D01*
X46069727Y18815915D02*
X46029251Y18896867D01*
X46029251Y18896867D02*
X45988774Y18937343D01*
X45988774Y18937343D02*
X45907822Y18977820D01*
X45907822Y18977820D02*
X45745917Y19018296D01*
X45745917Y19018296D02*
X45543536Y19018296D01*
X45543536Y19018296D02*
X45381631Y18977820D01*
X45381631Y18977820D02*
X45300679Y18937343D01*
X45300679Y18937343D02*
X45260203Y18896867D01*
X45260203Y18896867D02*
X45219727Y18815915D01*
X44672727Y10958467D02*
X44267965Y11241801D01*
X44672727Y11444182D02*
X43822727Y11444182D01*
X43822727Y11444182D02*
X43822727Y11120372D01*
X43822727Y11120372D02*
X43863203Y11039420D01*
X43863203Y11039420D02*
X43903679Y10998943D01*
X43903679Y10998943D02*
X43984631Y10958467D01*
X43984631Y10958467D02*
X44106060Y10958467D01*
X44106060Y10958467D02*
X44187012Y10998943D01*
X44187012Y10998943D02*
X44227489Y11039420D01*
X44227489Y11039420D02*
X44267965Y11120372D01*
X44267965Y11120372D02*
X44267965Y11444182D01*
X44672727Y10553705D02*
X44672727Y10391801D01*
X44672727Y10391801D02*
X44632251Y10310848D01*
X44632251Y10310848D02*
X44591774Y10270372D01*
X44591774Y10270372D02*
X44470346Y10189420D01*
X44470346Y10189420D02*
X44308441Y10148943D01*
X44308441Y10148943D02*
X43984631Y10148943D01*
X43984631Y10148943D02*
X43903679Y10189420D01*
X43903679Y10189420D02*
X43863203Y10229896D01*
X43863203Y10229896D02*
X43822727Y10310848D01*
X43822727Y10310848D02*
X43822727Y10472753D01*
X43822727Y10472753D02*
X43863203Y10553705D01*
X43863203Y10553705D02*
X43903679Y10594182D01*
X43903679Y10594182D02*
X43984631Y10634658D01*
X43984631Y10634658D02*
X44187012Y10634658D01*
X44187012Y10634658D02*
X44267965Y10594182D01*
X44267965Y10594182D02*
X44308441Y10553705D01*
X44308441Y10553705D02*
X44348917Y10472753D01*
X44348917Y10472753D02*
X44348917Y10310848D01*
X44348917Y10310848D02*
X44308441Y10229896D01*
X44308441Y10229896D02*
X44267965Y10189420D01*
X44267965Y10189420D02*
X44187012Y10148943D01*
X34011727Y17791667D02*
X33606965Y18075001D01*
X34011727Y18277382D02*
X33161727Y18277382D01*
X33161727Y18277382D02*
X33161727Y17953572D01*
X33161727Y17953572D02*
X33202203Y17872620D01*
X33202203Y17872620D02*
X33242679Y17832143D01*
X33242679Y17832143D02*
X33323631Y17791667D01*
X33323631Y17791667D02*
X33445060Y17791667D01*
X33445060Y17791667D02*
X33526012Y17832143D01*
X33526012Y17832143D02*
X33566489Y17872620D01*
X33566489Y17872620D02*
X33606965Y17953572D01*
X33606965Y17953572D02*
X33606965Y18277382D01*
X33161727Y17508334D02*
X33161727Y16941667D01*
X33161727Y16941667D02*
X34011727Y17305953D01*
X41771428Y32944226D02*
X41811904Y32903749D01*
X41811904Y32903749D02*
X41933333Y32863273D01*
X41933333Y32863273D02*
X42014285Y32863273D01*
X42014285Y32863273D02*
X42135714Y32903749D01*
X42135714Y32903749D02*
X42216666Y32984702D01*
X42216666Y32984702D02*
X42257143Y33065654D01*
X42257143Y33065654D02*
X42297619Y33227559D01*
X42297619Y33227559D02*
X42297619Y33348988D01*
X42297619Y33348988D02*
X42257143Y33510892D01*
X42257143Y33510892D02*
X42216666Y33591845D01*
X42216666Y33591845D02*
X42135714Y33672797D01*
X42135714Y33672797D02*
X42014285Y33713273D01*
X42014285Y33713273D02*
X41933333Y33713273D01*
X41933333Y33713273D02*
X41811904Y33672797D01*
X41811904Y33672797D02*
X41771428Y33632321D01*
X40961904Y32863273D02*
X41447619Y32863273D01*
X41204762Y32863273D02*
X41204762Y33713273D01*
X41204762Y33713273D02*
X41285714Y33591845D01*
X41285714Y33591845D02*
X41366666Y33510892D01*
X41366666Y33510892D02*
X41447619Y33470416D01*
X40678571Y33713273D02*
X40152380Y33713273D01*
X40152380Y33713273D02*
X40435714Y33389464D01*
X40435714Y33389464D02*
X40314285Y33389464D01*
X40314285Y33389464D02*
X40233333Y33348988D01*
X40233333Y33348988D02*
X40192857Y33308511D01*
X40192857Y33308511D02*
X40152380Y33227559D01*
X40152380Y33227559D02*
X40152380Y33025178D01*
X40152380Y33025178D02*
X40192857Y32944226D01*
X40192857Y32944226D02*
X40233333Y32903749D01*
X40233333Y32903749D02*
X40314285Y32863273D01*
X40314285Y32863273D02*
X40557142Y32863273D01*
X40557142Y32863273D02*
X40638095Y32903749D01*
X40638095Y32903749D02*
X40678571Y32944226D01*
X36851078Y35117771D02*
X36908320Y35117771D01*
X36908320Y35117771D02*
X37022804Y35175013D01*
X37022804Y35175013D02*
X37080046Y35232255D01*
X37080046Y35232255D02*
X37137288Y35346738D01*
X37137288Y35346738D02*
X37137288Y35461222D01*
X37137288Y35461222D02*
X37108667Y35547085D01*
X37108667Y35547085D02*
X37022804Y35690190D01*
X37022804Y35690190D02*
X36936941Y35776053D01*
X36936941Y35776053D02*
X36793836Y35861916D01*
X36793836Y35861916D02*
X36707974Y35890537D01*
X36707974Y35890537D02*
X36593490Y35890537D01*
X36593490Y35890537D02*
X36479006Y35833295D01*
X36479006Y35833295D02*
X36421764Y35776053D01*
X36421764Y35776053D02*
X36364522Y35661569D01*
X36364522Y35661569D02*
X36364522Y35604327D01*
X36622111Y34774319D02*
X36507627Y34659835D01*
X36507627Y34659835D02*
X36421764Y34631214D01*
X36421764Y34631214D02*
X36364522Y34631214D01*
X36364522Y34631214D02*
X36221417Y34659835D01*
X36221417Y34659835D02*
X36078312Y34745698D01*
X36078312Y34745698D02*
X35849344Y34974666D01*
X35849344Y34974666D02*
X35820723Y35060529D01*
X35820723Y35060529D02*
X35820723Y35117771D01*
X35820723Y35117771D02*
X35849344Y35203634D01*
X35849344Y35203634D02*
X35963828Y35318118D01*
X35963828Y35318118D02*
X36049691Y35346738D01*
X36049691Y35346738D02*
X36106933Y35346738D01*
X36106933Y35346738D02*
X36192796Y35318118D01*
X36192796Y35318118D02*
X36335901Y35175013D01*
X36335901Y35175013D02*
X36364522Y35089150D01*
X36364522Y35089150D02*
X36364522Y35031908D01*
X36364522Y35031908D02*
X36335901Y34946045D01*
X36335901Y34946045D02*
X36221417Y34831561D01*
X36221417Y34831561D02*
X36135554Y34802940D01*
X36135554Y34802940D02*
X36078312Y34802940D01*
X36078312Y34802940D02*
X35992449Y34831561D01*
X30702727Y34402667D02*
X30297965Y34686001D01*
X30702727Y34888382D02*
X29852727Y34888382D01*
X29852727Y34888382D02*
X29852727Y34564572D01*
X29852727Y34564572D02*
X29893203Y34483620D01*
X29893203Y34483620D02*
X29933679Y34443143D01*
X29933679Y34443143D02*
X30014631Y34402667D01*
X30014631Y34402667D02*
X30136060Y34402667D01*
X30136060Y34402667D02*
X30217012Y34443143D01*
X30217012Y34443143D02*
X30257489Y34483620D01*
X30257489Y34483620D02*
X30297965Y34564572D01*
X30297965Y34564572D02*
X30297965Y34888382D01*
X30217012Y33916953D02*
X30176536Y33997905D01*
X30176536Y33997905D02*
X30136060Y34038382D01*
X30136060Y34038382D02*
X30055108Y34078858D01*
X30055108Y34078858D02*
X30014631Y34078858D01*
X30014631Y34078858D02*
X29933679Y34038382D01*
X29933679Y34038382D02*
X29893203Y33997905D01*
X29893203Y33997905D02*
X29852727Y33916953D01*
X29852727Y33916953D02*
X29852727Y33755048D01*
X29852727Y33755048D02*
X29893203Y33674096D01*
X29893203Y33674096D02*
X29933679Y33633620D01*
X29933679Y33633620D02*
X30014631Y33593143D01*
X30014631Y33593143D02*
X30055108Y33593143D01*
X30055108Y33593143D02*
X30136060Y33633620D01*
X30136060Y33633620D02*
X30176536Y33674096D01*
X30176536Y33674096D02*
X30217012Y33755048D01*
X30217012Y33755048D02*
X30217012Y33916953D01*
X30217012Y33916953D02*
X30257489Y33997905D01*
X30257489Y33997905D02*
X30297965Y34038382D01*
X30297965Y34038382D02*
X30378917Y34078858D01*
X30378917Y34078858D02*
X30540822Y34078858D01*
X30540822Y34078858D02*
X30621774Y34038382D01*
X30621774Y34038382D02*
X30662251Y33997905D01*
X30662251Y33997905D02*
X30702727Y33916953D01*
X30702727Y33916953D02*
X30702727Y33755048D01*
X30702727Y33755048D02*
X30662251Y33674096D01*
X30662251Y33674096D02*
X30621774Y33633620D01*
X30621774Y33633620D02*
X30540822Y33593143D01*
X30540822Y33593143D02*
X30378917Y33593143D01*
X30378917Y33593143D02*
X30297965Y33633620D01*
X30297965Y33633620D02*
X30257489Y33674096D01*
X30257489Y33674096D02*
X30217012Y33755048D01*
X39714974Y24139429D02*
X39755451Y24179905D01*
X39755451Y24179905D02*
X39795927Y24301334D01*
X39795927Y24301334D02*
X39795927Y24382286D01*
X39795927Y24382286D02*
X39755451Y24503715D01*
X39755451Y24503715D02*
X39674498Y24584667D01*
X39674498Y24584667D02*
X39593546Y24625144D01*
X39593546Y24625144D02*
X39431641Y24665620D01*
X39431641Y24665620D02*
X39310212Y24665620D01*
X39310212Y24665620D02*
X39148308Y24625144D01*
X39148308Y24625144D02*
X39067355Y24584667D01*
X39067355Y24584667D02*
X38986403Y24503715D01*
X38986403Y24503715D02*
X38945927Y24382286D01*
X38945927Y24382286D02*
X38945927Y24301334D01*
X38945927Y24301334D02*
X38986403Y24179905D01*
X38986403Y24179905D02*
X39026879Y24139429D01*
X39795927Y23329905D02*
X39795927Y23815620D01*
X39795927Y23572763D02*
X38945927Y23572763D01*
X38945927Y23572763D02*
X39067355Y23653715D01*
X39067355Y23653715D02*
X39148308Y23734667D01*
X39148308Y23734667D02*
X39188784Y23815620D01*
X38945927Y22803715D02*
X38945927Y22722762D01*
X38945927Y22722762D02*
X38986403Y22641810D01*
X38986403Y22641810D02*
X39026879Y22601334D01*
X39026879Y22601334D02*
X39107831Y22560858D01*
X39107831Y22560858D02*
X39269736Y22520381D01*
X39269736Y22520381D02*
X39472117Y22520381D01*
X39472117Y22520381D02*
X39634022Y22560858D01*
X39634022Y22560858D02*
X39714974Y22601334D01*
X39714974Y22601334D02*
X39755451Y22641810D01*
X39755451Y22641810D02*
X39795927Y22722762D01*
X39795927Y22722762D02*
X39795927Y22803715D01*
X39795927Y22803715D02*
X39755451Y22884667D01*
X39755451Y22884667D02*
X39714974Y22925143D01*
X39714974Y22925143D02*
X39634022Y22965620D01*
X39634022Y22965620D02*
X39472117Y23006096D01*
X39472117Y23006096D02*
X39269736Y23006096D01*
X39269736Y23006096D02*
X39107831Y22965620D01*
X39107831Y22965620D02*
X39026879Y22925143D01*
X39026879Y22925143D02*
X38986403Y22884667D01*
X38986403Y22884667D02*
X38945927Y22803715D01*
X27676768Y35909924D02*
X27676768Y35852682D01*
X27676768Y35852682D02*
X27734010Y35738198D01*
X27734010Y35738198D02*
X27791252Y35680956D01*
X27791252Y35680956D02*
X27905735Y35623714D01*
X27905735Y35623714D02*
X28020219Y35623714D01*
X28020219Y35623714D02*
X28106082Y35652335D01*
X28106082Y35652335D02*
X28249187Y35738198D01*
X28249187Y35738198D02*
X28335050Y35824061D01*
X28335050Y35824061D02*
X28420913Y35967166D01*
X28420913Y35967166D02*
X28449534Y36053028D01*
X28449534Y36053028D02*
X28449534Y36167512D01*
X28449534Y36167512D02*
X28392292Y36281996D01*
X28392292Y36281996D02*
X28335050Y36339238D01*
X28335050Y36339238D02*
X28220566Y36396480D01*
X28220566Y36396480D02*
X28163324Y36396480D01*
X28020219Y36654069D02*
X27619526Y37054763D01*
X27619526Y37054763D02*
X27276074Y36196133D01*
X18430774Y18041667D02*
X18471251Y18082143D01*
X18471251Y18082143D02*
X18511727Y18203572D01*
X18511727Y18203572D02*
X18511727Y18284524D01*
X18511727Y18284524D02*
X18471251Y18405953D01*
X18471251Y18405953D02*
X18390298Y18486905D01*
X18390298Y18486905D02*
X18309346Y18527382D01*
X18309346Y18527382D02*
X18147441Y18567858D01*
X18147441Y18567858D02*
X18026012Y18567858D01*
X18026012Y18567858D02*
X17864108Y18527382D01*
X17864108Y18527382D02*
X17783155Y18486905D01*
X17783155Y18486905D02*
X17702203Y18405953D01*
X17702203Y18405953D02*
X17661727Y18284524D01*
X17661727Y18284524D02*
X17661727Y18203572D01*
X17661727Y18203572D02*
X17702203Y18082143D01*
X17702203Y18082143D02*
X17742679Y18041667D01*
X17742679Y17717858D02*
X17702203Y17677382D01*
X17702203Y17677382D02*
X17661727Y17596429D01*
X17661727Y17596429D02*
X17661727Y17394048D01*
X17661727Y17394048D02*
X17702203Y17313096D01*
X17702203Y17313096D02*
X17742679Y17272620D01*
X17742679Y17272620D02*
X17823631Y17232143D01*
X17823631Y17232143D02*
X17904584Y17232143D01*
X17904584Y17232143D02*
X18026012Y17272620D01*
X18026012Y17272620D02*
X18511727Y17758334D01*
X18511727Y17758334D02*
X18511727Y17232143D01*
X14848374Y20712067D02*
X14888851Y20752543D01*
X14888851Y20752543D02*
X14929327Y20873972D01*
X14929327Y20873972D02*
X14929327Y20954924D01*
X14929327Y20954924D02*
X14888851Y21076353D01*
X14888851Y21076353D02*
X14807898Y21157305D01*
X14807898Y21157305D02*
X14726946Y21197782D01*
X14726946Y21197782D02*
X14565041Y21238258D01*
X14565041Y21238258D02*
X14443612Y21238258D01*
X14443612Y21238258D02*
X14281708Y21197782D01*
X14281708Y21197782D02*
X14200755Y21157305D01*
X14200755Y21157305D02*
X14119803Y21076353D01*
X14119803Y21076353D02*
X14079327Y20954924D01*
X14079327Y20954924D02*
X14079327Y20873972D01*
X14079327Y20873972D02*
X14119803Y20752543D01*
X14119803Y20752543D02*
X14160279Y20712067D01*
X14929327Y19902543D02*
X14929327Y20388258D01*
X14929327Y20145401D02*
X14079327Y20145401D01*
X14079327Y20145401D02*
X14200755Y20226353D01*
X14200755Y20226353D02*
X14281708Y20307305D01*
X14281708Y20307305D02*
X14322184Y20388258D01*
D11*
%TO.C,C8*%
X34629457Y37515010D02*
X34259990Y37145543D01*
X33590010Y38554457D02*
X33220543Y38184990D01*
%TO.C,C6*%
X30735000Y18461252D02*
X30735000Y17938748D01*
X29265000Y18461252D02*
X29265000Y17938748D01*
%TO.C,C3*%
X24388748Y24835000D02*
X24911252Y24835000D01*
X24388748Y23365000D02*
X24911252Y23365000D01*
%TO.C,U1*%
X30890000Y8500000D02*
X30890000Y12260000D01*
X37710000Y8500000D02*
X37710000Y12260000D01*
X30890000Y12260000D02*
X32150000Y12260000D01*
X37710000Y12260000D02*
X36450000Y12260000D01*
X37940000Y6980000D02*
X37610000Y7220000D01*
X37940000Y7460000D01*
X37940000Y6980000D01*
G36*
X37940000Y6980000D02*
G01*
X37610000Y7220000D01*
X37940000Y7460000D01*
X37940000Y6980000D01*
G37*
%TO.C,U3*%
X21475000Y22862500D02*
X21475000Y22602500D01*
X21475000Y17412500D02*
X21475000Y17672500D01*
X24200000Y22862500D02*
X21475000Y22862500D01*
X24200000Y22862500D02*
X26925000Y22862500D01*
X24200000Y17412500D02*
X21475000Y17412500D01*
X24200000Y17412500D02*
X26925000Y17412500D01*
X26925000Y22862500D02*
X26925000Y22602500D01*
X26925000Y17412500D02*
X26925000Y17672500D01*
X20932500Y17342500D02*
X20452500Y17342500D01*
X20692500Y17672500D01*
X20932500Y17342500D01*
G36*
X20932500Y17342500D02*
G01*
X20452500Y17342500D01*
X20692500Y17672500D01*
X20932500Y17342500D01*
G37*
D12*
%TO.C,J2*%
X24390000Y5035000D02*
X14810000Y5035000D01*
X24390000Y6315000D02*
X24390000Y5035000D01*
X24390000Y10285000D02*
X24390000Y9035000D01*
X14810000Y5035000D02*
X14810000Y6315000D01*
X14810000Y10285000D02*
X14810000Y9035000D01*
D11*
%TO.C,C5*%
X21411252Y23365000D02*
X20888748Y23365000D01*
X21411252Y24835000D02*
X20888748Y24835000D01*
%TO.C,Q1*%
X39640000Y20025000D02*
X39640000Y19375000D01*
X39640000Y20025000D02*
X39640000Y20675000D01*
X42760000Y20025000D02*
X42760000Y19375000D01*
X42760000Y20025000D02*
X42760000Y20675000D01*
X43040000Y18622500D02*
X42710000Y18862500D01*
X43040000Y19102500D01*
X43040000Y18622500D01*
G36*
X43040000Y18622500D02*
G01*
X42710000Y18862500D01*
X43040000Y19102500D01*
X43040000Y18622500D01*
G37*
%TO.C,U4*%
X28090000Y31810000D02*
X28090000Y31160000D01*
X28090000Y25240000D02*
X28090000Y24830000D01*
X28740000Y31810000D02*
X28090000Y31810000D01*
X28740000Y24590000D02*
X28390000Y24590000D01*
X34660000Y31810000D02*
X35310000Y31810000D01*
X34660000Y24590000D02*
X35310000Y24590000D01*
X35310000Y31810000D02*
X35310000Y31160000D01*
X35310000Y24590000D02*
X35310000Y25240000D01*
X28330000Y24260000D02*
X27850000Y24260000D01*
X28090000Y24590000D01*
X28330000Y24260000D01*
G36*
X28330000Y24260000D02*
G01*
X27850000Y24260000D01*
X28090000Y24590000D01*
X28330000Y24260000D01*
G37*
%TO.C,Y1*%
X34251638Y39710267D02*
X31281790Y36740419D01*
X31776764Y42185141D02*
X34251638Y39710267D01*
%TO.C,C4*%
X34638748Y23535000D02*
X35161252Y23535000D01*
X34638748Y22065000D02*
X35161252Y22065000D01*
%TO.C,C11*%
X40188748Y30435000D02*
X40711252Y30435000D01*
X40188748Y28965000D02*
X40711252Y28965000D01*
%TO.C,R1*%
X15702064Y14365000D02*
X15247936Y14365000D01*
X15702064Y15835000D02*
X15247936Y15835000D01*
%TO.C,R5*%
X45565000Y13385436D02*
X45565000Y13839564D01*
X47035000Y13385436D02*
X47035000Y13839564D01*
%TO.C,R6*%
X31265000Y19872936D02*
X31265000Y20327064D01*
X32735000Y19872936D02*
X32735000Y20327064D01*
%TO.C,R11*%
X37665000Y19485436D02*
X37665000Y19939564D01*
X39135000Y19485436D02*
X39135000Y19939564D01*
%TO.C,U2*%
X21900000Y13640000D02*
X22700000Y13640000D01*
X21900000Y13640000D02*
X21100000Y13640000D01*
X21900000Y16760000D02*
X22700000Y16760000D01*
X21900000Y16760000D02*
X21100000Y16760000D01*
X23200000Y16710000D02*
X22960000Y17040000D01*
X23440000Y17040000D01*
X23200000Y16710000D01*
G36*
X23200000Y16710000D02*
G01*
X22960000Y17040000D01*
X23440000Y17040000D01*
X23200000Y16710000D01*
G37*
%TO.C,R4*%
X17989564Y20015000D02*
X17535436Y20015000D01*
X17989564Y21485000D02*
X17535436Y21485000D01*
%TO.C,R2*%
X12214564Y14340000D02*
X11760436Y14340000D01*
X12214564Y15810000D02*
X11760436Y15810000D01*
%TO.C,R3*%
X8285436Y15835000D02*
X8739564Y15835000D01*
X8285436Y14365000D02*
X8739564Y14365000D01*
%TO.C,C12*%
X34315010Y40345543D02*
X33945543Y40715010D01*
X35354457Y41384990D02*
X34984990Y41754457D01*
%TO.C,R10*%
X44735000Y19827064D02*
X44735000Y19372936D01*
X43265000Y19827064D02*
X43265000Y19372936D01*
%TO.C,R9*%
X45035000Y13814564D02*
X45035000Y13360436D01*
X43565000Y13814564D02*
X43565000Y13360436D01*
%TO.C,R7*%
X33265000Y19872936D02*
X33265000Y20327064D01*
X34735000Y19872936D02*
X34735000Y20327064D01*
%TO.C,C13*%
X40963748Y32460000D02*
X41486252Y32460000D01*
X40963748Y30990000D02*
X41486252Y30990000D01*
%TO.C,C9*%
X34642294Y36756741D02*
X35011761Y37126208D01*
X35681741Y35717294D02*
X36051208Y36086761D01*
%TO.C,R8*%
X31140000Y34635436D02*
X31140000Y35089564D01*
X32610000Y34635436D02*
X32610000Y35089564D01*
%TO.C,C10*%
X38535000Y23411252D02*
X38535000Y22888748D01*
X37065000Y23411252D02*
X37065000Y22888748D01*
%TO.C,C7*%
X29315739Y38118708D02*
X29685206Y37749241D01*
X28276292Y37079261D02*
X28645759Y36709794D01*
%TO.C,C2*%
X15790000Y17638748D02*
X15790000Y18161252D01*
X17260000Y17638748D02*
X17260000Y18161252D01*
%TO.C,C1*%
X13690000Y17638748D02*
X13690000Y18161252D01*
X15160000Y17638748D02*
X15160000Y18161252D01*
%TD*%
M02*
